<svg width="212" height="35" fill="none" xmlns="http://www.w3.org/2000/svg"><path d="M47.907 23.127L46.23 26.05h-3.367l8.157-14.18 1.678-2.918 1.677 2.918 8.154 14.18H59.15l-1.678-2.922h-9.566zm7.904-2.918l-3.113-5.418-3.113 5.418h6.226zm7.575.971v-2.92h2.91v2.922a1.95 1.95 0 00.566 1.377 1.935 1.935 0 001.372.57h6.8a1.928 1.928 0 001.792-1.202c.097-.236.147-.49.147-.745v-8.766h-4.86V9.494h7.757V21.18a4.883 4.883 0 01-1.422 3.442 4.84 4.84 0 01-3.429 1.426h-6.8a4.84 4.84 0 01-3.427-1.427 4.882 4.882 0 01-1.42-3.441h.014zM82.764 9.494h11.637a4.841 4.841 0 013.343 1.473 4.883 4.883 0 010 6.793 4.841 4.841 0 01-3.343 1.474h-8.727v6.83h-2.91V9.494zm2.91 2.921v3.897H94.4a1.934 1.934 0 001.428-.539 1.953 1.953 0 00-1.428-3.358h-8.727zm18.437 4.015v9.619h-2.909V9.494h11.636a4.843 4.843 0 013.343 1.473 4.88 4.88 0 011.373 3.397 4.881 4.881 0 01-1.373 3.396 4.843 4.843 0 01-3.343 1.474h-1.813l6.801 6.83h-4.122l-9.593-9.634zm0-4.015v3.897h8.727a1.94 1.94 0 002.028-1.948 1.958 1.958 0 00-.599-1.41 1.95 1.95 0 00-1.429-.539h-8.727zm20.402 13.634a4.841 4.841 0 01-3.429-1.426 4.881 4.881 0 01-1.422-3.442v-6.83a4.884 4.884 0 011.426-3.436 4.84 4.84 0 013.425-1.421h6.801a4.84 4.84 0 013.429 1.425 4.885 4.885 0 011.422 3.443v6.83a4.884 4.884 0 01-1.426 3.435 4.842 4.842 0 01-3.425 1.422h-6.801zm-1.938-4.868a1.945 1.945 0 001.196 1.799c.235.098.487.148.742.147h6.801a1.926 1.926 0 001.374-.568 1.959 1.959 0 00.568-1.378v-6.83a1.952 1.952 0 00-.572-1.372 1.94 1.94 0 00-1.37-.564h-6.801a1.924 1.924 0 00-1.372.57 1.957 1.957 0 00-.566 1.377v6.819zm25.404-8.766V26.05h-2.909V12.415h-6.801V9.494h16.488v2.921h-6.778zm25.99-2.921v2.921h-13.564v3.897h13.564v2.922h-13.564v3.893h13.564v2.922h-16.484V9.494h16.484zm18.827 4.868v.975h-2.921v-.975a1.944 1.944 0 00-1.196-1.8 1.922 1.922 0 00-.742-.146h-6.801a1.926 1.926 0 00-1.371.569 1.94 1.94 0 00-.567 1.377v6.83a1.945 1.945 0 001.938 1.947h6.801a1.923 1.923 0 001.376-.573 1.953 1.953 0 00.562-1.385v-.972h2.909v.972a4.882 4.882 0 01-1.421 3.441 4.838 4.838 0 01-3.426 1.427h-6.801a4.842 4.842 0 01-3.412-1.435 4.882 4.882 0 01-1.412-3.433v-6.83a4.886 4.886 0 011.42-3.442 4.843 4.843 0 013.427-1.427h6.801a4.84 4.84 0 013.426 1.427 4.882 4.882 0 011.421 3.442l-.011.011zm5.629 4.872v6.83h-2.909V9.494h2.909v6.83h10.666v-6.83H212v16.555h-2.909v-6.83l-10.666.015zM17.474 0a17.372 17.372 0 00-9.668 2.971 17.485 17.485 0 00-6.398 7.864 17.57 17.57 0 00-.973 10.107 17.523 17.523 0 004.78 8.948 17.402 17.402 0 008.922 4.777c3.379.672 6.88.322 10.061-1.004a17.442 17.442 0 007.813-6.445 17.553 17.553 0 002.934-9.718 17.584 17.584 0 00-5.133-12.377A17.432 17.432 0 0017.474 0zm0 33.19a15.575 15.575 0 01-8.667-2.666 15.676 15.676 0 01-5.734-7.051 15.753 15.753 0 01-.87-9.062A15.71 15.71 0 016.489 6.39a15.602 15.602 0 018-4.28 15.56 15.56 0 019.02.9 15.637 15.637 0 017.004 5.779 15.737 15.737 0 012.63 8.712 15.766 15.766 0 01-4.605 11.098 15.63 15.63 0 01-11.064 4.592z" fill="#fff"/><path d="M23.557 5.692V25.9a5.14 5.14 0 01-.05.687 4.842 4.842 0 01-.797 2.064 4.86 4.86 0 01-3.124 2.053l-.378.057c-.17 0-.344.026-.514.026a4.85 4.85 0 01-4.42-2.842 4.86 4.86 0 01-.446-2.045v-1.453h3.45v1.684a1.429 1.429 0 00.855 1.381 1.41 1.41 0 001.587-.327 1.423 1.423 0 00.387-1.053V4.477c.344.068.684.151 1.02.246.84.242 1.654.566 2.43.968z" fill="#fff"/><path d="M16.254 4.269a13.23 13.23 0 00-8.172 3.844 13.335 13.335 0 00-3.88 9.428c0 .41 0 .82.052 1.222.053.403.095.82.166 1.222.072.402.174.824.288 1.222a13.33 13.33 0 005.542 7.52v-3.07a10.862 10.862 0 01-3.347-5.673 10.49 10.49 0 01-.204-1.22h7.114v3.877h3.453V4.22c-.336 0-.676.02-1.012.05zm-9.555 12.05a10.942 10.942 0 012.274-5.536 10.872 10.872 0 014.84-3.498v9.035H6.699zM24.61 27.434v-1.617a.668.668 0 01.197-.478.645.645 0 01.476-.197.632.632 0 01.473.197.65.65 0 01.196.478v1.21h.94v.407h-2.281zm.405-.406h.537v-1.21a.262.262 0 00-.08-.194.267.267 0 00-.457.193v1.21zm.552-2.838h1.326v.402h-2.267v-1.617a.677.677 0 01.672-.671.67.67 0 01.67.671v.255l.94-.941v.569l-1.341 1.332zm-.552 0h.537v-1.215a.27.27 0 00-.167-.251.267.267 0 00-.294.062.274.274 0 00-.076.19v1.214zm1.878-3.108a.677.677 0 01-.673.671h-.937a.67.67 0 01-.672-.671v-.926a.677.677 0 01.672-.672h.937a.671.671 0 01.673.672v.926zm-.673.27a.259.259 0 00.193-.08.274.274 0 00.076-.19v-.926a.273.273 0 00-.076-.19.261.261 0 00-.193-.08h-.937a.259.259 0 00-.192.08.274.274 0 00-.076.19v.945c0 .07.027.139.076.19a.26.26 0 00.192.08l.937-.02zm-1.205-4.869h1.89v.402h-1.89v.945h-.404v-2.277h.404v.93zM24.61 12.7h.405v1.897h.537V12.7h.4v1.897h.537V12.7h.404v2.276h-2.267l-.015-2.276zm.673-2.838h.133v.402h-.133a.26.26 0 00-.192.08.274.274 0 00-.076.19v.944c0 .07.027.139.076.19a.26.26 0 00.192.08h.937a.26.26 0 00.193-.08.274.274 0 00.076-.19v-.945a.274.274 0 00-.076-.19.26.26 0 00-.193-.079h-.132v-.402h.132a.671.671 0 01.673.671v.945a.677.677 0 01-.673.672h-.937a.671.671 0 01-.672-.672v-.945a.677.677 0 01.672-.671zm.669-.952h.94v.401h-2.266V8.91h.94V7.426h-.94v-.403h2.267v.403h-.94v1.483z" fill="#fff"/></svg>