<svg width="30" height="30" fill="none" xmlns="http://www.w3.org/2000/svg"><path fill-rule="evenodd" clip-rule="evenodd" d="M9.033.613C10.576.543 11.069.526 15 .526c3.932 0 4.424.017 5.966.087 1.542.07 2.595.316 3.516.673a7.12 7.12 0 012.563 1.67 7.07 7.07 0 011.668 2.562c.358.922.603 1.974.674 3.514.07 1.546.087 2.038.087 5.968 0 3.932-.017 4.424-.087 5.967-.07 1.54-.316 2.592-.674 3.513a7.1 7.1 0 01-1.668 2.565 7.097 7.097 0 01-2.563 1.668c-.921.358-1.974.603-3.514.674-1.544.07-2.036.087-5.968.087-3.931 0-4.424-.017-5.967-.087-1.54-.07-2.592-.316-3.513-.674a7.102 7.102 0 01-2.565-1.668 7.094 7.094 0 01-1.67-2.563c-.356-.921-.6-1.974-.672-3.514C.543 19.422.526 18.93.526 15c0-3.931.017-4.424.087-5.966.07-1.542.316-2.594.673-3.516a7.1 7.1 0 011.67-2.563 7.095 7.095 0 012.562-1.67C6.44.93 7.492.686 9.032.614zm11.816 2.605c-1.527-.07-1.985-.084-5.849-.084s-4.322.015-5.849.084c-1.411.065-2.177.3-2.688.5A4.494 4.494 0 004.8 4.797a4.49 4.49 0 00-1.082 1.665c-.199.51-.434 1.277-.499 2.688-.07 1.527-.084 1.985-.084 5.85 0 3.864.015 4.321.084 5.848.065 1.412.3 2.177.5 2.688a4.493 4.493 0 001.08 1.664c.468.48 1.038.85 1.665 1.082.51.199 1.277.434 2.688.499 1.527.07 1.983.084 5.85.084 3.865 0 4.321-.015 5.848-.084 1.412-.065 2.177-.3 2.688-.5a4.495 4.495 0 001.664-1.08c.48-.468.85-1.038 1.082-1.665.199-.51.434-1.276.499-2.688.07-1.527.084-1.985.084-5.849s-.015-4.322-.084-5.849c-.065-1.411-.3-2.177-.5-2.688a4.495 4.495 0 00-1.08-1.664 4.49 4.49 0 00-1.665-1.082c-.51-.199-1.276-.434-2.688-.499zM13.15 19.462a4.827 4.827 0 005.264-7.876 4.827 4.827 0 00-7.429.732 4.827 4.827 0 002.165 7.144zM9.74 9.74a7.44 7.44 0 1110.52 10.52A7.44 7.44 0 019.74 9.74zm14.35-1.072a1.76 1.76 0 10-2.415-2.56 1.76 1.76 0 002.415 2.56z" fill="#fff"/></svg>