<svg width="30" height="30" fill="none" xmlns="http://www.w3.org/2000/svg"><path d="M25.204 10.35l1.939-1.928V8h-6.714l-4.784 12.386L10.203 8h-7.04v.422l2.265 2.835c.221.21.335.517.307.825V23.22c.07.403-.054.812-.326 1.103l-2.552 3.218v.415h7.229v-.422l-2.549-3.208a1.318 1.318 0 01-.3-.509 1.353 1.353 0 01-.051-.594v-9.636l6.347 14.376h.736l5.458-14.376V25.04c0 .301 0 .363-.19.563l-1.963 1.974V28h9.524v-.422l-1.894-1.928a.603.603 0 01-.215-.563V10.913a.611.611 0 01.215-.563z" fill="#fff"/></svg>