<svg width="212" height="35" viewBox="0 0 212 35" fill="none" xmlns="http://www.w3.org/2000/svg">
<path d="M47.9071 23.1272L46.2295 26.049H42.8632L51.0203 11.8691L52.6978 8.95117L54.3753 11.8691L62.5285 26.049H59.1509L57.4734 23.1272H47.9071ZM55.811 20.2093L52.6978 14.7908L49.5846 20.2093H55.811Z" fill="white"/>
<path d="M63.3862 21.1806V18.2588H66.2954V21.1806C66.2949 21.4363 66.3447 21.6897 66.4419 21.9261C66.5391 22.1625 66.6819 22.3772 66.862 22.5581C67.042 22.7389 67.2559 22.8823 67.4913 22.98C67.7267 23.0776 67.9789 23.1276 68.2336 23.1271H75.0343C75.2889 23.1276 75.5412 23.0776 75.7766 22.98C76.0119 22.8823 76.2258 22.7389 76.4059 22.5581C76.586 22.3772 76.7287 22.1625 76.8259 21.9261C76.9232 21.6897 76.973 21.4363 76.9725 21.1806V12.4154H72.1137V9.49365H79.8703V21.1806C79.8693 22.4721 79.3578 23.7103 78.4481 24.6232C77.5384 25.5361 76.3051 26.0488 75.0192 26.0488H68.2185C66.9332 26.0478 65.7008 25.5346 64.792 24.6218C63.8831 23.7091 63.3721 22.4714 63.3711 21.1806H63.3862Z" fill="white"/>
<path d="M82.7643 9.49365H94.4011C95.6637 9.52905 96.8629 10.0577 97.7435 10.9672C98.6242 11.8766 99.1169 13.0952 99.1169 14.3638C99.1169 15.6324 98.6242 16.851 97.7435 17.7605C96.8629 18.67 95.6637 19.1986 94.4011 19.234H85.6735V26.064H82.7643V9.49365ZM85.6735 12.4154V16.3123H94.4011C94.663 16.3239 94.9247 16.2821 95.1701 16.1894C95.4156 16.0967 95.6398 15.9551 95.8293 15.773C96.0187 15.5909 96.1695 15.3722 96.2726 15.13C96.3756 14.8878 96.4287 14.6272 96.4287 14.3638C96.4287 14.1005 96.3756 13.8398 96.2726 13.5976C96.1695 13.3554 96.0187 13.1367 95.8293 12.9547C95.6398 12.7726 95.4156 12.6309 95.1701 12.5382C94.9247 12.4456 94.663 12.4038 94.4011 12.4154H85.6735Z" fill="white"/>
<path d="M104.111 16.4299V26.0488H101.202V9.49365H112.838C114.101 9.52905 115.3 10.0577 116.181 10.9672C117.062 11.8766 117.554 13.0952 117.554 14.3638C117.554 15.6324 117.062 16.851 116.181 17.7605C115.3 18.67 114.101 19.1986 112.838 19.234H111.025L117.826 26.064H113.704L104.111 16.4299ZM104.111 12.4154V16.3123H112.838C113.1 16.3239 113.362 16.2821 113.608 16.1894C113.853 16.0967 114.077 15.9551 114.267 15.773C114.456 15.5909 114.607 15.3722 114.71 15.13C114.813 14.8878 114.866 14.6272 114.866 14.3638C114.866 14.1005 114.813 13.8398 114.71 13.5976C114.607 13.3554 114.456 13.1367 114.267 12.9547C114.077 12.7726 113.853 12.6309 113.608 12.5382C113.362 12.4456 113.1 12.4038 112.838 12.4154H104.111Z" fill="white"/>
<path d="M124.513 26.0488C123.227 26.0488 121.994 25.5361 121.084 24.6232C120.174 23.7103 119.663 22.4721 119.662 21.1806V14.3506C119.666 13.061 120.179 11.8257 121.088 10.9153C121.997 10.0049 123.229 9.49365 124.513 9.49365H131.314C132.6 9.49365 133.833 10.0064 134.743 10.9193C135.652 11.8322 136.164 13.0704 136.165 14.3619V21.1919C136.161 22.4815 135.648 23.7168 134.739 24.6272C133.829 25.5376 132.598 26.0488 131.314 26.0488H124.513ZM122.575 21.1806C122.574 21.4363 122.624 21.6897 122.721 21.9261C122.819 22.1625 122.961 22.3772 123.141 22.5581C123.321 22.7389 123.535 22.8823 123.771 22.98C124.006 23.0776 124.258 23.1276 124.513 23.1271H131.314C131.569 23.1281 131.821 23.0785 132.057 22.9811C132.293 22.8836 132.507 22.7403 132.688 22.5594C132.868 22.3785 133.011 22.1636 133.109 21.9269C133.206 21.6903 133.256 21.4367 133.256 21.1806V14.3506C133.255 14.0954 133.204 13.843 133.106 13.6077C133.007 13.3723 132.864 13.1587 132.684 12.979C132.503 12.7993 132.29 12.6571 132.055 12.5604C131.819 12.4637 131.568 12.4144 131.314 12.4154H124.513C124.258 12.4149 124.006 12.4649 123.771 12.5625C123.535 12.6602 123.321 12.8035 123.141 12.9844C122.961 13.1653 122.819 13.38 122.721 13.6164C122.624 13.8528 122.574 14.1062 122.575 14.3619V21.1806Z" fill="white"/>
<path d="M147.979 12.4154V26.0488H145.07V12.4154H138.269V9.49365H154.757V12.4154H147.979Z" fill="white"/>
<path d="M173.969 9.49365V12.4154H160.405V16.3123H173.969V19.234H160.405V23.1271H173.969V26.0488H157.485V9.49365H173.969Z" fill="white"/>
<path d="M192.796 14.3621V15.3373H189.875V14.3621C189.876 14.1063 189.826 13.853 189.729 13.6166C189.631 13.3802 189.489 13.1654 189.309 12.9846C189.128 12.8037 188.915 12.6603 188.679 12.5627C188.444 12.465 188.192 12.415 187.937 12.4155H181.136C180.882 12.415 180.629 12.465 180.394 12.5627C180.159 12.6603 179.945 12.8037 179.765 12.9846C179.585 13.1654 179.442 13.3802 179.345 13.6166C179.247 13.853 179.198 14.1063 179.198 14.3621V21.1921C179.198 21.4479 179.247 21.7012 179.345 21.9376C179.442 22.174 179.585 22.3888 179.765 22.5696C179.945 22.7505 180.159 22.8939 180.394 22.9915C180.629 23.0891 180.882 23.1391 181.136 23.1386H187.937C188.193 23.1392 188.446 23.0888 188.682 22.9904C188.918 22.8921 189.132 22.7477 189.313 22.5656C189.493 22.3836 189.635 22.1674 189.732 21.9297C189.828 21.692 189.877 21.4374 189.875 21.1807V20.2093H192.784V21.1807C192.783 22.4716 192.272 23.7092 191.363 24.622C190.455 25.5348 189.222 26.048 187.937 26.049H181.136C179.855 26.042 178.628 25.5261 177.724 24.614C176.82 23.7019 176.313 22.4676 176.312 21.1807V14.3507C176.313 13.0599 176.824 11.8222 177.732 10.9094C178.641 9.99665 179.874 9.48343 181.159 9.48242H187.96C189.245 9.48343 190.477 9.99665 191.386 10.9094C192.295 11.8222 192.806 13.0599 192.807 14.3507L192.796 14.3621Z" fill="white"/>
<path d="M198.425 19.234V26.064H195.516V9.49365H198.425V16.3237H209.091V9.49365H212V26.0488H209.091V19.2188L198.425 19.234Z" fill="white"/>
<path d="M17.4744 0C14.03 0.0090006 10.6656 1.043 7.80603 2.97138C4.9465 4.89977 2.72017 7.63604 1.40827 10.8345C0.0963722 14.033 -0.242237 17.5502 0.435216 20.9419C1.11267 24.3336 2.77579 27.4475 5.2145 29.8904C7.6532 32.3332 10.7581 33.9954 14.1369 34.667C17.5158 35.3386 21.017 34.9893 24.1984 33.6635C27.3797 32.3376 30.0984 30.0946 32.0111 27.2177C33.9238 24.3409 34.9446 20.9592 34.9446 17.5C34.9326 12.8545 33.0867 8.40344 29.8117 5.12285C26.5367 1.84227 22.0999 -1.56432e-05 17.4744 0ZM17.4744 33.19C14.3865 33.181 11.3704 32.2532 8.80727 30.5237C6.2441 28.7942 4.24876 26.3406 3.07327 23.4728C1.89777 20.6051 1.59485 17.4518 2.20277 14.4112C2.81068 11.3706 4.30217 8.5792 6.48883 6.38946C8.6755 4.19972 11.4593 2.70991 14.4885 2.10818C17.5178 1.50646 20.6567 1.81983 23.5087 3.00869C26.3607 4.19756 28.798 6.20861 30.5126 8.78783C32.2273 11.367 33.1424 14.3987 33.1424 17.5C33.1314 21.6657 31.4757 25.657 28.5385 28.5984C25.6012 31.5398 21.6223 33.1911 17.4744 33.19Z" fill="white"/>
<path d="M23.5568 5.69177V25.901C23.5558 26.1308 23.5394 26.3602 23.5077 26.5878C23.4047 27.3286 23.1318 28.0352 22.7105 28.652C22.0859 29.5735 21.1659 30.2524 20.1036 30.5758C19.9338 30.629 19.7609 30.6721 19.586 30.7048L19.2082 30.7617C19.0382 30.7617 18.8644 30.7882 18.6943 30.7882C18.2142 30.7882 17.7367 30.7166 17.2775 30.5758C16.6202 30.3758 16.0125 30.038 15.4947 29.5847C14.977 29.1314 14.5609 28.573 14.2739 27.9462C13.9786 27.3053 13.8264 26.6072 13.8281 25.901V24.4477H17.2775V26.1325C17.2676 26.3253 17.2969 26.5181 17.3635 26.6991C17.4301 26.8802 17.5327 27.0458 17.6651 27.1858C17.7975 27.3257 17.9568 27.4372 18.1334 27.5134C18.31 27.5896 18.5002 27.6288 18.6925 27.6288C18.8847 27.6288 19.0749 27.5896 19.2515 27.5134C19.4281 27.4372 19.5875 27.3257 19.7198 27.1858C19.8522 27.0458 19.9548 26.8802 20.0214 26.6991C20.0881 26.5181 20.1173 26.3253 20.1074 26.1325V4.47754C20.4512 4.54584 20.7912 4.62931 21.1275 4.72418C21.9669 4.96591 22.7806 5.29001 23.5568 5.69177Z" fill="white"/>
<path d="M16.2536 4.26857C13.1658 4.55048 10.2741 5.91071 8.0817 8.11258C5.88928 10.3145 4.53489 13.2186 4.25419 16.3197C4.21641 16.722 4.20129 17.1317 4.20129 17.5415C4.20129 17.9513 4.20129 18.3611 4.25419 18.7634C4.30708 19.1656 4.34864 19.583 4.42043 19.9852C4.49221 20.3874 4.59422 20.8086 4.70757 21.207C5.5899 24.3039 7.55873 26.9754 10.2501 28.7276V25.6579C10.099 25.5251 9.95165 25.3847 9.80808 25.2405C8.67028 24.1029 7.7991 22.725 7.25782 21.207C7.11783 20.8064 6.99929 20.3985 6.90268 19.9852C6.81145 19.5822 6.74333 19.1742 6.69866 18.7634H13.8129V22.6413H17.2662V4.21924C16.9299 4.21924 16.5899 4.23821 16.2536 4.26857ZM6.69866 16.3197C6.92799 14.2975 7.71568 12.3799 8.9728 10.7834C10.2299 9.18698 11.9064 7.97528 13.8129 7.28515V16.3197H6.69866Z" fill="white"/>
<path d="M24.6109 27.4336V25.8171C24.6102 25.7283 24.6272 25.6402 24.6609 25.5581C24.6946 25.476 24.7445 25.4015 24.8074 25.339C24.869 25.2751 24.9431 25.2246 25.025 25.1907C25.1069 25.1567 25.1949 25.1401 25.2834 25.1417C25.3715 25.1399 25.4589 25.1565 25.5402 25.1905C25.6215 25.2245 25.6949 25.2751 25.7557 25.339C25.8193 25.4009 25.8696 25.4753 25.9034 25.5576C25.9372 25.6398 25.9538 25.7282 25.9522 25.8171V27.0276H26.8929V27.4336H24.6109ZM25.0152 27.0276H25.5517V25.8171C25.5524 25.7811 25.5458 25.7454 25.5321 25.7121C25.5185 25.6788 25.4981 25.6487 25.4723 25.6236C25.4346 25.586 25.3866 25.5605 25.3344 25.5504C25.2822 25.5402 25.2282 25.5459 25.1792 25.5666C25.1303 25.5874 25.0885 25.6223 25.0593 25.6669C25.0301 25.7115 25.0147 25.7638 25.0152 25.8171V27.0276Z" fill="white"/>
<path d="M25.5668 24.1896H26.8929V24.5918H24.626V22.9754C24.627 22.7969 24.6983 22.6261 24.8243 22.5002C24.9504 22.3744 25.1208 22.3038 25.2985 22.3038C25.4756 22.3048 25.6451 22.3758 25.7703 22.5016C25.8955 22.6273 25.9663 22.7976 25.9673 22.9754V23.2296L26.908 22.2886V22.8577L25.5668 24.1896ZM25.0152 24.1896H25.5517V22.9754C25.5521 22.9215 25.5365 22.8688 25.5068 22.8239C25.4772 22.7791 25.4348 22.7442 25.3852 22.7238C25.3356 22.7034 25.281 22.6983 25.2285 22.7094C25.176 22.7204 25.1281 22.747 25.0908 22.7856C25.0421 22.8367 25.015 22.9047 25.0152 22.9754V24.1896Z" fill="white"/>
<path d="M26.8929 21.0818C26.8919 21.2603 26.8206 21.4311 26.6946 21.557C26.5686 21.6828 26.3981 21.7535 26.2204 21.7534H25.2834C25.1057 21.7535 24.9352 21.6828 24.8092 21.557C24.6832 21.4311 24.6119 21.2603 24.6109 21.0818V20.156C24.6119 19.9775 24.6832 19.8067 24.8092 19.6808C24.9352 19.555 25.1057 19.4844 25.2834 19.4844H26.2204C26.3981 19.4844 26.5686 19.555 26.6946 19.6808C26.8206 19.8067 26.8919 19.9775 26.8929 20.156V21.0818ZM26.2204 21.3512C26.2562 21.352 26.2919 21.3453 26.325 21.3316C26.3582 21.3179 26.3882 21.2974 26.4131 21.2716C26.4618 21.2205 26.4888 21.1525 26.4886 21.0818V20.156C26.4888 20.0853 26.4618 20.0173 26.4131 19.9663C26.3882 19.9404 26.3582 19.92 26.325 19.9062C26.2919 19.8925 26.2562 19.8858 26.2204 19.8866H25.2834C25.2476 19.8858 25.2119 19.8925 25.1788 19.9062C25.1456 19.92 25.1157 19.9404 25.0907 19.9663C25.0421 20.0173 25.015 20.0853 25.0152 20.156V21.1008C25.015 21.1715 25.0421 21.2395 25.0907 21.2905C25.1157 21.3164 25.1456 21.3368 25.1788 21.3505C25.2119 21.3643 25.2476 21.371 25.2834 21.3702L26.2204 21.3512Z" fill="white"/>
<path d="M25.0152 16.4829H26.9042V16.8851H25.0152V17.8299H24.6109V15.5532H25.0152V16.4829Z" fill="white"/>
<path d="M24.6109 12.6997H25.0152V14.5969H25.5517V12.6997H25.9521V14.5969H26.4886V12.6997H26.8929V14.9764H24.626L24.6109 12.6997Z" fill="white"/>
<path d="M25.2834 9.86182H25.4157V10.264H25.2834C25.2476 10.2633 25.2119 10.27 25.1788 10.2837C25.1456 10.2974 25.1157 10.3178 25.0907 10.3437C25.0421 10.3948 25.015 10.4628 25.0152 10.5334V11.4783C25.015 11.5489 25.0421 11.6169 25.0907 11.668C25.1157 11.6939 25.1456 11.7143 25.1788 11.728C25.2119 11.7417 25.2476 11.7484 25.2834 11.7477H26.2204C26.2562 11.7484 26.2919 11.7417 26.325 11.728C26.3582 11.7143 26.3882 11.6939 26.4131 11.668C26.4618 11.6169 26.4888 11.5489 26.4886 11.4783V10.5334C26.4888 10.4628 26.4618 10.3948 26.4131 10.3437C26.3882 10.3178 26.3582 10.2974 26.325 10.2837C26.2919 10.27 26.2562 10.2633 26.2204 10.264H26.0882V9.86182H26.2204C26.3981 9.86181 26.5686 9.93246 26.6946 10.0583C26.8206 10.1841 26.8919 10.355 26.8929 10.5334V11.4783C26.8919 11.6567 26.8206 11.8275 26.6946 11.9534C26.5686 12.0792 26.3981 12.1499 26.2204 12.1499H25.2834C25.1057 12.1499 24.9352 12.0792 24.8092 11.9534C24.6832 11.8275 24.6119 11.6567 24.6109 11.4783V10.5334C24.6119 10.355 24.6832 10.1841 24.8092 10.0583C24.9352 9.93246 25.1057 9.86181 25.2834 9.86182Z" fill="white"/>
<path d="M25.9522 8.90927H26.8929V9.31149H24.626V8.90927H25.5668V7.42565H24.626V7.02344H26.8929V7.42565H25.9522V8.90927Z" fill="white"/>
</svg>
