<svg width="349" height="372" viewBox="0 0 349 372" fill="none" xmlns="http://www.w3.org/2000/svg">
<path d="M295.34 53.0264L295.887 53.2088L295.92 53.2199L297.273 53.6718L296.138 54.0885C295.98 54.5496 295.686 54.8616 295.344 55.0852C295.055 55.2747 294.703 55.4135 294.412 55.5284C294.329 55.5609 294.252 55.5915 294.182 55.6208L290.887 57.0002L298.072 60.4483L298.495 60.6514L298.319 61.0866L298.153 61.4974L298.013 61.8437L297.641 61.8074C297.191 61.7636 296.747 61.6754 296.314 61.544L296.294 61.5379L296.275 61.5301C294.396 60.7824 292.557 59.9378 290.765 58.9996L290.756 58.995L290.748 58.9901C289.772 58.4295 288.904 58.2504 288.061 58.3613C287.351 58.4546 286.621 58.7583 285.828 59.2779C287.678 60.998 289.543 62.6971 291.404 64.3931C294.72 67.4145 298.024 70.4261 301.218 73.5292L301.54 73.8417L301.264 74.1953L300.987 74.5505L300.759 74.8429L300.413 74.7096C300.059 74.5734 299.724 74.3929 299.416 74.1726L299.391 74.1553L299.37 74.1354C298.19 73.061 297.006 71.9886 295.822 70.9156C292.252 67.6803 288.675 64.4391 285.168 61.1177L285.156 61.1066L285.145 61.0948C284.755 60.674 284.231 60.4026 283.663 60.3268C283.095 60.2511 282.518 60.3756 282.031 60.6793L281.998 60.7L281.962 60.7153C276.88 62.875 271.783 65.0096 266.685 67.1446C263.58 68.4449 260.475 69.7452 257.373 71.0515C253.879 72.5316 250.395 74.0115 246.911 75.4917C245.169 76.2317 243.427 76.9717 241.684 77.7118L241.683 77.712C232.944 81.4125 224.202 85.113 215.455 88.8135C206.708 92.5144 197.902 96.2152 189.037 99.916L162.967 110.872C162.967 110.872 162.967 110.872 162.966 110.872C162.788 110.948 162.623 111.026 162.407 111.128C164.768 112.428 167.134 113.627 169.485 114.818C170.047 115.103 170.608 115.387 171.168 115.672C174.347 117.291 177.483 118.934 180.49 120.823L180.065 121.721C176.726 120.6 173.612 118.994 170.542 117.411C169.497 116.872 168.457 116.336 167.415 115.823C164.932 114.598 162.385 113.283 159.835 111.966C158.13 111.085 156.424 110.203 154.734 109.348C152.242 108.087 149.785 106.862 147.331 105.639C145.616 104.784 143.902 103.93 142.181 103.065C139.137 101.536 136.092 99.9836 133.054 98.4337C131.921 97.8559 130.788 97.2785 129.657 96.7029L116.96 90.2532C116.959 90.2532 116.959 90.2532 116.959 90.2531C114.176 88.8401 111.392 87.4373 108.608 86.034C107.215 85.3318 105.822 84.6295 104.428 83.9258C102.339 82.8709 100.253 81.8078 98.1674 80.7451L98.166 80.7444C96.08 79.6814 93.9949 78.6188 91.9071 77.5647L91.9068 77.5645L79.3746 71.2256L66.6651 64.7978L66.6633 64.7969L54.3184 58.4888L34.2519 83.7781L295.34 53.0264ZM295.34 53.0264L295.283 53.3371M295.34 53.0264L295.283 53.3371M295.283 53.3371C295.117 53.3981 294.951 53.4591 294.785 53.5202C293.056 54.1547 291.319 54.7925 289.59 55.4468L289.555 55.4599L289.523 55.4778C289.24 55.6355 288.925 55.7264 288.602 55.7435C288.284 55.7604 287.966 55.7053 287.672 55.5824C286.37 54.9284 285.033 54.3473 283.703 53.7806C283.499 53.6939 283.296 53.6077 283.093 53.5215C281.96 53.0402 280.836 52.5628 279.731 52.0477C277.131 50.8342 274.682 49.4291 272.614 47.3471L272.613 47.3461C272.471 47.2034 272.288 47.1567 272.212 47.1374L272.202 47.1348C272.179 47.1288 272.156 47.1232 272.134 47.1177C272.059 47.0989 271.985 47.0805 271.886 47.0475L270.701 46.6518L271.286 47.7558C271.376 47.9262 271.459 48.0855 271.543 48.2486C261.829 43.8458 252.143 39.4642 242.469 35.0885C219.792 24.8314 197.188 14.6071 174.477 4.21822C175.221 3.85111 175.977 3.57475 176.735 3.29712C176.867 3.24887 176.999 3.20058 177.131 3.15177C178.295 2.72139 179.468 2.24886 180.463 1.38386L181.394 0.574587L180.162 0.507216C179.498 0.470903 178.834 0.57192 178.211 0.803961C177.826 0.946248 177.434 1.08555 177.037 1.2262C175.98 1.60121 174.897 1.98578 173.864 2.46188L173.85 2.4687L173.835 2.47646C173.294 2.77002 172.689 2.92373 172.074 2.92373C171.466 2.92373 170.867 2.77359 170.331 2.48663C169.307 1.81074 168.079 1.51556 166.86 1.65307L165.35 1.82339L166.666 2.58298L169.357 4.13614C169.273 4.18075 169.188 4.22374 169.102 4.26506L164.624 5.94474L164.622 5.9455L124.299 21.2656L124.299 21.2658L100.32 30.4134L100.32 30.4135C97.7814 31.383 95.2414 32.3476 92.7016 33.3122C88.993 34.7205 85.2849 36.1287 81.5826 37.5518C74.8375 40.1276 68.1034 42.7182 61.3803 45.3237L61.3622 45.3307L61.3448 45.3391C60.9068 45.5491 60.4852 45.7916 60.0834 46.0646L60.5105 46.9563C65.7909 45.3414 70.9348 43.4267 76.0537 41.4952L76.0538 41.4951L106.836 29.8719L106.837 29.8715L150.139 13.4084C151.967 12.7193 153.79 12.0363 155.61 11.3546C160.559 9.50104 165.483 7.65667 170.411 5.72382L170.422 5.71975L170.432 5.71522C170.907 5.50414 171.423 5.40487 171.942 5.42499C172.461 5.44512 172.969 5.58411 173.426 5.83135L173.426 5.83147L173.436 5.83684C174.178 6.21582 174.954 6.55423 175.716 6.88695C176.125 7.06533 176.53 7.24207 176.924 7.42256L176.925 7.42291C191.418 14.032 205.915 20.6484 220.416 27.2723L220.418 27.2731C236.802 34.6741 253.194 42.0752 269.594 49.4762L269.8 49.0204L269.594 49.4763C269.705 49.5264 269.816 49.5763 269.927 49.6263C273.378 51.1803 276.683 52.6687 279.101 55.5581L279.119 55.58L279.14 55.5997C279.438 55.8831 279.752 56.1491 280.08 56.3967C280.547 56.8412 281.004 57.2848 281.493 57.7598C281.75 58.0095 282.016 58.2678 282.298 58.5396C282.19 58.5918 282.087 58.6424 281.987 58.6916C281.491 58.9343 281.068 59.1414 280.622 59.3273L280.62 59.3279C266.813 65.123 253.01 70.9329 239.211 76.7576L239.211 76.7577C225.057 82.7377 210.892 88.7251 196.716 94.7199L163.829 108.619L164.005 109.034L163.829 108.619L163.75 108.652C162.825 109.044 162.148 109.33 161.588 109.518C161.018 109.71 160.604 109.789 160.213 109.779C159.822 109.768 159.415 109.668 158.863 109.444C158.303 109.216 157.628 108.876 156.693 108.401L156.692 108.4C152.335 106.202 147.992 103.989 143.648 101.777C140.489 100.168 137.33 98.5588 134.166 96.9548L99.1197 79.1934C99.1191 79.1931 99.1185 79.1928 99.1179 79.1925C94.8924 77.0277 90.6604 74.8972 86.4328 72.7689C84.8057 71.9498 83.1793 71.1311 81.5542 70.3108L81.5538 70.3106C73.4282 66.218 65.3026 62.1179 57.177 58.0105L57.1754 58.0097C56.7043 57.7737 56.2713 57.4893 55.8186 57.1919C55.7492 57.1464 55.6793 57.1005 55.6088 57.0544L56.1686 55.532L56.786 53.853L55.3875 54.9685L53.879 56.1719L49.2985 54.265L48.8675 54.0856L48.659 54.5034L48.4928 54.8364L48.2821 55.2586L48.6914 55.4934L52.6952 57.7898C51.4479 59.3497 50.2295 60.8691 49.0295 62.3653C47.6233 64.1189 46.2425 65.8407 44.8706 67.5588L44.8702 67.5593C42.1591 70.9638 39.4517 74.3646 36.748 77.7617L28.7379 87.7516L28.7369 87.7529C27.8891 88.8172 27.0368 89.8787 26.1844 90.9405C24.3143 93.2697 22.4432 95.6002 20.6157 97.9649C17.9026 101.228 15.3843 104.648 13.0738 108.208L13.8723 108.806C20.8936 100.638 27.6028 92.205 34.2511 83.7792L295.283 53.3371ZM285.83 56.8717C285.604 57.0354 285.407 57.1679 285.231 57.2722C284.903 57.4666 284.687 57.5373 284.52 57.5485C284.366 57.5588 284.199 57.5221 283.96 57.3856C283.709 57.2424 283.411 57.0089 283.001 56.6566L282.995 56.6511L282.988 56.6459C282.123 55.9506 281.317 55.1922 280.52 54.4075L285.83 56.8717Z" fill="#6895FF" stroke="#6895FF"/>
<path d="M74.1352 47.5835L73.8005 47.9859L73.5165 48.3273C73.6645 48.414 73.8081 48.4993 73.9484 48.5826L73.99 48.6073C74.2997 48.7913 74.5933 48.9651 74.8957 49.1302L91.1721 56.8954L91.1727 56.8957L138.387 79.4982L74.1352 47.5835ZM74.1352 47.5835L74.231 47.8212C74.6677 47.6838 75.1185 47.5528 75.575 47.4202C76.4733 47.1593 77.3934 46.892 78.2706 46.5569L78.2726 46.5561C92.0204 41.2346 105.735 35.9057 119.416 30.5694L119.418 30.5687C123.177 29.0851 126.936 27.6052 130.695 26.1257C141.194 21.9929 151.686 17.8624 162.148 13.66L162.155 13.6572L162.162 13.6541C162.997 13.2887 163.903 13.1139 164.814 13.1423C165.724 13.1707 166.618 13.4016 167.428 13.8184L167.441 13.8248L167.454 13.8306C177 18.0711 186.572 22.2392 196.146 26.4075C197.176 26.8561 198.206 27.3047 199.237 27.7534L199.238 27.7539C209.203 32.0611 219.138 36.3684 229.044 40.6756L229.045 40.676L260.131 54.1174L260.137 54.1199L263.138 55.4617C263.088 55.4846 263.038 55.5071 262.989 55.5294C262.346 55.8223 261.817 56.0636 261.277 56.2844L261.273 56.286L229.449 69.6078L229.448 69.6083L199.687 82.1524C197.395 83.1102 195.102 84.0668 192.81 85.0235C185.537 88.0578 178.265 91.0923 171.019 94.1652L171.017 94.1661C170.602 94.3443 170.15 94.4202 169.7 94.3873C169.249 94.3545 168.813 94.214 168.428 93.9775L168.409 93.9654L168.388 93.9551C167.857 93.6933 167.327 93.4311 166.796 93.1689C163.614 91.5977 160.427 90.0237 157.224 88.4906M74.1352 47.5835L138.387 79.4984C140.87 80.6851 143.354 81.8688 145.84 83.0532C149.63 84.8592 153.424 86.667 157.224 88.4906M189.669 88.2479C192.286 87.1511 194.879 86.0418 197.469 84.9336C200.334 83.7073 203.197 82.4823 206.089 81.2767L206.089 81.2765C211.15 79.1601 216.233 77.0748 221.328 74.9843C225.081 73.4446 228.841 71.9021 232.604 70.3422L232.605 70.3418C237.226 68.4149 241.836 66.4765 246.443 64.5388C252.242 62.1002 258.038 59.6628 263.852 57.2513C264.899 56.9277 265.974 56.7023 267.063 56.5779L267.352 56.5448L267.466 56.2764C267.841 55.3937 268.643 55.0507 269.738 54.6656C269.798 54.6446 269.859 54.6234 269.92 54.602C270.917 54.2547 272.123 53.8349 272.864 52.7158L273.594 51.6113L272.316 51.9572C270.634 52.4121 268.997 53.0169 267.423 53.7644L267.412 53.7699L267.4 53.7759C266.828 54.0845 266.188 54.246 265.538 54.246C264.888 54.246 264.248 54.0845 263.675 53.7759L263.661 53.7684L263.647 53.7617C260.939 52.5172 258.195 51.3462 255.459 50.1789C254.26 49.667 253.062 49.1558 251.869 48.6394L251.867 48.6387C244.378 45.427 236.888 42.1931 229.398 38.937C227.331 38.0303 225.264 37.1228 223.197 36.2155C216.814 33.413 210.433 30.6115 204.046 27.8355L204.045 27.8352C201.431 26.7039 198.825 25.5869 196.221 24.4707C193.366 23.2472 190.513 22.0248 187.657 20.7859L187.657 20.7859C181.341 18.0476 175.026 15.302 168.71 12.549L168.707 12.5479C168.292 12.3693 167.906 12.1863 167.464 11.9763C167.334 11.9144 167.199 11.8502 167.057 11.783C167.706 11.4842 168.352 11.2249 168.995 10.9665C169.24 10.8681 169.485 10.7698 169.729 10.6695C170.906 10.1867 172.066 9.66145 173.112 8.86465L174.342 7.92827L172.797 7.96695C171.883 7.98983 170.982 8.18306 170.138 8.53672C168.026 9.37439 165.915 10.2168 163.804 11.0594C160.708 12.2948 157.612 13.5303 154.51 14.751C143.984 18.8511 133.461 22.9586 122.942 27.0735L122.941 27.0736C115.103 30.1453 107.269 33.2317 99.4377 36.3329L99.4375 36.333C97.8408 36.9664 96.2434 37.5992 94.6458 38.2322C89.1596 40.4058 83.6699 42.5807 78.1937 44.7821L78.1918 44.7829C77.128 45.2157 76.0928 45.7503 75.0811 46.2728C74.6698 46.4853 74.2623 46.6957 73.8584 46.8965L73.952 47.1288L73.3823 47.1673L70.1025 47.3894L69.7766 47.4114L69.6659 47.7187L69.5218 48.1183L69.3667 48.5487L69.7816 48.7414C74.6681 51.0106 79.5021 53.3286 84.353 55.6547C87.6426 57.2321 90.9399 58.8132 94.2668 60.3854C100.087 63.1359 105.889 65.9249 111.693 68.7143C114.086 69.8647 116.479 71.0151 118.874 72.1629L118.875 72.1633L143.696 84.0086L143.696 84.0089L167.69 95.4189C167.433 95.5754 167.146 95.6993 166.829 95.8362C166.78 95.8572 166.731 95.8785 166.681 95.9002C166.082 96.1605 165.372 96.4959 164.963 97.295L164.556 98.0892L165.445 98.0216C166.156 97.9676 166.852 97.7973 167.508 97.5175C174.895 94.4461 182.282 91.3563 189.669 88.2479ZM189.669 88.2479C189.668 88.248 189.668 88.2481 189.668 88.2482L189.475 87.7879L189.669 88.2479C189.669 88.2479 189.669 88.2479 189.669 88.2479ZM157.224 88.4906C157.224 88.4906 157.225 88.4907 157.225 88.4908L157.008 88.9416L157.224 88.4906Z" fill="#6895FF" stroke="#6895FF"/>
<path d="M328.265 97.7908L328.266 97.7893L328.288 97.756L328.798 96.9901L327.878 96.9789C327.481 96.974 327.089 96.8875 326.726 96.7246C326.364 96.5618 326.039 96.326 325.771 96.0319L325.756 96.0158L325.74 96.001C318.294 89.1406 310.878 82.284 303.491 75.4311L303.489 75.4294C303.268 75.2262 303.033 75.0488 302.809 74.8862C302.738 74.835 302.67 74.786 302.602 74.7381C302.45 74.6288 302.305 74.5252 302.16 74.4135L301.792 74.1296L301.482 74.4765L301.105 74.8984L300.801 75.2386L301.112 75.5722C301.248 75.7182 301.39 75.8783 301.536 76.044C301.849 76.3984 302.185 76.7784 302.537 77.0994C309.303 83.286 316.058 89.4836 322.801 95.6924C323.403 96.2479 323.984 96.823 324.624 97.455C324.726 97.5554 324.829 97.6572 324.933 97.7606C324.744 97.853 324.563 97.9419 324.389 98.0277C323.737 98.3481 323.171 98.626 322.591 98.8881C315.035 102.285 307.471 105.682 299.899 109.079L300.104 109.535L299.899 109.079C295.283 111.15 290.665 113.219 286.047 115.287C275.47 120.025 264.891 124.764 254.323 129.539L254.323 129.54C245.248 133.644 236.19 137.796 227.133 141.947C223.793 143.478 220.453 145.008 217.112 146.537L217.112 146.537L217.1 146.543C216.694 146.742 216.273 146.994 215.873 147.233C215.718 147.326 215.565 147.417 215.418 147.503L215.006 147.743L215.226 148.166L215.503 148.699L215.719 149.114L216.147 148.926C220.198 147.152 224.174 145.29 228.154 143.415C228.505 143.25 228.856 143.085 229.207 142.92C232.84 141.208 236.483 139.491 240.207 137.823C244.801 135.765 249.427 133.738 254.04 131.716C257.643 130.137 261.238 128.562 264.805 126.977C268.4 125.38 271.968 123.761 275.535 122.141C280.045 120.094 284.555 118.047 289.124 116.043C292.343 114.632 295.53 113.175 298.725 111.715C303.525 109.521 308.346 107.317 313.33 105.242C313.567 105.847 313.799 106.427 314.025 106.99C314.547 108.294 315.036 109.513 315.464 110.77C317.854 118.06 319.678 125.524 320.919 133.096L320.918 133.096L320.92 133.106C322.137 139.673 322.82 146.328 322.962 153.006C323.082 159.744 322.754 166.482 321.979 173.176C320.989 181.263 319.543 189.287 317.646 197.209C317.588 197.452 317.53 197.694 317.472 197.936C315.768 205.05 314.069 212.142 311.341 218.92C307.166 229.296 302.747 239.519 296.821 249.005L296.813 249.017L296.806 249.03C296.632 249.349 296.49 249.683 296.38 250.029L296.277 250.356L296.545 250.57L296.766 250.748L297.134 251.042L297.45 250.693C298.079 249.997 298.663 249.26 299.197 248.488L299.203 248.479L299.209 248.47C302.8 242.759 305.621 236.609 308.431 230.484C308.916 229.428 309.4 228.373 309.887 227.321L309.888 227.321C315.031 216.19 318.065 204.446 320.637 192.592C322.677 183.285 323.996 173.834 324.581 164.324C325.188 156.948 325.02 149.528 324.08 142.188L324.08 142.188L324.078 142.177C323.102 135.633 321.982 129.087 320.662 122.595C319.611 116.891 317.889 111.332 315.531 106.035L315.531 106.035L315.526 106.025C315.322 105.592 315.138 105.162 314.936 104.689C314.919 104.65 314.902 104.61 314.884 104.569C315.168 104.376 315.461 104.197 315.761 104.033C316.831 103.554 317.907 103.079 318.985 102.604C320.837 101.788 322.693 100.969 324.532 100.122C324.78 100.012 325.029 99.9129 325.285 99.8106C325.355 99.7828 325.425 99.7547 325.496 99.7261C325.824 99.5944 326.162 99.4542 326.488 99.2892C327.146 98.9565 327.78 98.5131 328.265 97.7908Z" fill="#6895FF" stroke="#6895FF"/>
<path d="M59.0378 129.954C54.0148 127.249 44.5766 122.288 36.1641 117.971C31.958 115.813 28.0058 113.814 24.989 112.339C23.4811 111.601 22.2034 110.993 21.2432 110.56C20.7636 110.344 20.3587 110.169 20.0418 110.044C19.7449 109.927 19.4736 109.831 19.2895 109.806L17.6979 109.585L18.8831 110.67C19.3835 111.128 19.937 111.524 20.5319 111.849L20.5319 111.85L20.5384 111.853C21.1852 112.195 21.8321 112.537 22.4792 112.879C28.6818 116.157 34.8948 119.441 41.117 122.689C52.1459 128.462 63.1674 134.231 74.1815 139.996L74.1829 139.997C77.7875 141.87 81.4204 143.743 85.0434 145.611C88.3293 147.305 91.6072 148.995 94.8485 150.677C97.8827 152.251 100.915 153.833 103.948 155.415C107.732 157.39 111.516 159.364 115.304 161.323L115.304 161.323C119.277 163.374 123.264 165.411 127.252 167.449C129.46 168.578 131.669 169.706 133.876 170.838C134.643 171.233 135.391 171.645 136.164 172.071C136.44 172.223 136.72 172.378 137.005 172.533C136.847 173.032 136.692 173.521 136.541 174.001C135.986 175.756 135.467 177.402 134.916 179.049L134.915 179.051C134.434 180.508 133.939 181.963 133.443 183.42L133.443 183.421L133.443 183.422C132.947 184.878 132.451 186.337 131.968 187.799L131.961 187.82L131.956 187.842C131.843 188.322 131.773 188.811 131.744 189.303L131.719 189.737L132.145 189.823L132.588 189.911L133.007 189.995L133.155 189.595C133.292 189.227 133.436 188.873 133.582 188.516L133.595 188.483C133.745 188.118 133.895 187.748 134.032 187.371L134.034 187.367C134.707 185.451 135.375 183.535 136.043 181.618C136.87 179.245 137.698 176.871 138.537 174.497C138.683 174.168 138.846 173.846 139.023 173.533L147.199 177.843C147.097 177.889 146.997 177.935 146.898 177.98C145.789 178.484 144.813 178.928 143.85 179.39L143.845 179.392C143.312 179.656 142.778 179.947 142.254 180.233C141.956 180.395 141.661 180.556 141.373 180.708L141.606 181.651L59.0378 129.954ZM59.0378 129.954C68.5394 135.071 78.1339 140.009 87.7328 144.949C91.271 146.77 94.8099 148.591 98.3448 150.422C106.339 154.562 114.382 158.705 122.477 162.876C127.521 165.474 132.584 168.083 137.669 170.708M59.0378 129.954L137.669 170.708M137.669 170.708C137.865 170.318 138.047 169.92 138.214 169.516C140.62 162.638 143.016 155.752 145.4 148.859L145.401 148.857C145.605 148.275 145.849 147.703 146.086 147.145C146.176 146.932 146.266 146.72 146.352 146.512L146.529 146.083L146.97 146.227L147.479 146.394L147.924 146.539L147.809 146.992C147.764 147.17 147.72 147.355 147.675 147.544C147.562 148.016 147.444 148.513 147.289 148.981L147.288 148.984C146.018 152.707 144.737 156.429 143.457 160.146C143.038 161.363 142.619 162.579 142.202 163.794C141.947 164.545 141.69 165.291 141.434 166.034C140.971 167.376 140.511 168.71 140.077 170.058C139.825 170.843 139.8 171.254 139.902 171.536C139.999 171.805 140.259 172.08 140.946 172.451L140.949 172.452C143.518 173.855 146.106 175.213 148.737 176.481C149.228 176.655 149.765 176.653 150.255 176.473L150.264 176.47C151.692 175.979 153.081 175.376 154.469 174.725L154.477 174.721L187.586 159.912C196.081 156.108 204.575 152.282 213.07 148.434L213.075 148.432C213.42 148.28 213.807 148.164 214.155 148.059C214.295 148.017 214.428 147.977 214.55 147.937L214.929 147.813L215.134 148.155L215.367 148.544L215.599 148.931L215.238 149.201C214.793 149.534 214.326 149.836 213.839 150.105L213.821 150.114L213.803 150.122L197.902 157.294C193.467 159.296 189.038 161.306 184.606 163.318C180.875 165.011 177.143 166.705 173.403 168.395L173.402 168.396C166.508 171.483 159.596 174.533 152.665 177.546L137.669 170.708ZM141.631 180.651C142.167 180.559 142.696 180.435 143.217 180.279C142.98 180.406 142.744 180.535 142.509 180.664C142.23 180.815 141.952 180.967 141.673 181.115V180.651H141.631ZM141.631 180.651H141.606V180.655M141.631 180.651C141.623 180.652 141.615 180.653 141.606 180.655M141.606 180.655C141.601 180.656 141.596 180.656 141.59 180.657L141.606 180.754M141.606 180.655V180.754M141.606 180.754V181.151M141.606 180.754L141.667 181.118C141.647 181.129 141.627 181.14 141.606 181.151M141.606 181.151L141.673 181.276L141.704 181.335L141.84 181.593C142.155 181.426 142.461 181.259 142.763 181.094C142.979 180.976 143.194 180.859 143.409 180.744C142.839 180.916 142.26 181.052 141.673 181.151H141.606ZM214.789 148.911C214.813 148.903 214.836 148.895 214.86 148.888L214.853 148.864C214.832 148.88 214.81 148.895 214.789 148.911ZM214.658 148.427L214.638 148.401C214.612 148.42 214.586 148.439 214.56 148.458C214.593 148.448 214.626 148.438 214.658 148.427Z" fill="#6895FF" stroke="#6895FF"/>
<path d="M136.747 174.869L136.355 175.241C136.195 175.392 136.037 175.541 135.879 175.69C135.417 176.126 134.962 176.556 134.511 176.999C132.852 178.631 131.184 180.245 129.518 181.856C125.605 185.642 121.706 189.414 117.982 193.371C111.071 200.798 104.695 208.707 98.902 217.038L98.8977 217.044L98.8976 217.044C93.6826 224.306 89.1794 232.055 85.4504 240.184C83.7852 243.879 82.4108 247.695 81.0292 251.531C80.6633 252.547 80.2969 253.564 79.9244 254.581L79.923 254.585C77.4844 261.072 75.8274 267.827 74.9871 274.708L74.987 274.709C74.8269 275.999 74.8012 277.274 74.7748 278.58C74.7595 279.336 74.744 280.104 74.702 280.891L74.702 280.892C74.151 290.827 75.3735 300.697 76.9897 310.534C77.36 312.76 77.8917 314.972 78.4283 317.205C78.6904 318.295 78.9536 319.391 79.1997 320.494C79.3619 321.171 79.3906 321.872 79.2842 322.56L79.0736 323.921L78.362 322.742C77.3705 321.099 76.7365 319.265 76.5015 317.36C74.9099 309.951 73.7979 302.446 73.1726 294.893L73.1725 294.893C72.3167 284.448 72.536 274.038 75.2935 263.837L75.2936 263.837C76.4594 259.531 77.953 255.309 79.4362 251.118C79.8497 249.949 80.2623 248.783 80.6669 247.617C83.4853 239.473 87.2473 231.688 91.8757 224.422L91.8781 224.418C95.2093 219.289 98.7178 214.317 102.403 209.457L102.404 209.456C106.289 204.34 110.359 199.351 114.614 194.487L136.747 174.869ZM136.747 174.869L136.345 174.507L136.013 174.207L135.688 173.913L135.354 174.197C135.146 174.375 134.936 174.552 134.727 174.729C134.129 175.236 133.528 175.745 132.935 176.265L136.747 174.869Z" fill="#6895FF" stroke="#6895FF"/>
<path d="M22.9634 127.223L22.941 127.395C22.8355 128.208 22.6629 129.011 22.425 129.796L22.4193 129.815L22.412 129.833C18.8252 138.974 15.7495 148.307 13.1992 157.79L13.1977 157.795L13.1977 157.795C10.5554 167.199 8.59732 176.751 6.72489 186.331C5.90876 190.508 5.3565 194.755 4.86938 199.003L4.86937 199.003C4.18236 204.987 3.51889 210.959 3.13196 216.951C2.7115 223.603 2.47908 230.255 2.39053 236.975C2.33533 241.976 2.54511 246.936 2.82194 251.995C3.21736 258.989 4.09563 265.947 5.45046 272.819M22.9634 127.223L5.45046 272.819M22.9634 127.223L22.8741 127.074L22.7744 126.907L22.2924 126.102L21.893 126.951C21.7484 127.259 21.5858 127.577 21.4192 127.904C21.0958 128.538 20.757 129.202 20.5036 129.874L20.5025 129.877C20.1538 130.82 19.7854 131.769 19.4146 132.724C18.6202 134.77 17.8149 136.843 17.1693 138.951C14.643 147.133 12.1369 155.321 9.84121 163.576L9.84118 163.576C8.64001 167.9 7.76421 172.323 6.89755 176.701C6.85643 176.908 6.81533 177.116 6.77422 177.323L6.774 177.324C5.73281 182.64 4.68864 187.981 3.92195 193.358L3.92189 193.359C3.01181 199.786 2.31292 206.255 1.70311 212.709C1.15987 218.263 0.704161 223.827 0.592898 229.397C0.307884 239.393 0.678867 249.398 1.70345 259.345L1.70355 259.346C2.42364 266.212 3.56839 273.027 5.13118 279.75M22.9634 127.223L5.13118 279.75M5.45046 272.819C6.00453 275.628 6.55801 278.434 7.22213 281.594L7.51097 282.969L6.41853 282.086C5.70056 281.506 5.23877 280.667 5.13118 279.75M5.45046 272.819L5.13118 279.75" fill="#6895FF" stroke="#6895FF"/>
<path d="M327.152 269.109L326.756 269.392C326.624 269.486 326.492 269.582 326.359 269.678C325.874 270.028 325.377 270.387 324.861 270.717L324.857 270.72C322.96 271.905 321.062 273.087 319.164 274.269C314.197 277.363 309.232 280.456 304.295 283.595M327.152 269.109L304.295 283.595M327.152 269.109L326.879 268.705L326.668 268.394L326.491 268.132L326.178 268.181C325.787 268.241 325.405 268.349 325.041 268.503L325.012 268.515L324.985 268.53C324.133 269.021 323.301 269.549 322.478 270.072C322.284 270.195 322.091 270.317 321.898 270.439L321.898 270.439C319.594 271.899 317.278 273.345 314.959 274.792C309.674 278.091 304.381 281.395 299.215 284.879L299.214 284.88C291.575 290.049 283.828 295.027 275.873 299.683C266.177 305.356 256.491 311.041 246.859 316.815L246.859 316.815C242.087 319.679 237.367 322.622 232.653 325.561C230.676 326.794 228.699 328.026 226.72 329.252M327.152 269.109L206.803 342.207M304.295 283.595C302.329 284.845 300.396 286.151 298.456 287.465L298.239 287.611C296.373 288.875 294.5 290.143 292.595 291.365L292.594 291.366C287.461 294.631 282.304 297.854 277.068 300.977M304.295 283.595L277.068 300.977M277.068 300.977L276.813 300.548L277.07 300.976C277.069 300.976 277.069 300.976 277.068 300.977ZM277.068 300.977C272.546 303.693 268 306.353 263.46 309.011L263.156 309.188C258.513 311.906 253.875 314.621 249.269 317.395M277.068 300.977L318.902 273.844C313.934 276.938 308.966 280.032 304.026 283.173C301.981 284.474 299.972 285.835 297.961 287.196C296.094 288.46 294.225 289.726 292.325 290.944C287.195 294.208 282.042 297.428 276.812 300.547C272.292 303.262 267.748 305.921 263.206 308.579C258.463 311.356 253.721 314.131 249.011 316.966M249.269 317.395L249.011 316.966M249.269 317.395C249.269 317.395 249.269 317.395 249.269 317.395L249.011 316.966M249.269 317.395C243.748 320.721 238.275 324.122 232.8 327.524C229.707 329.446 226.614 331.369 223.511 333.278L223.51 333.279C219.149 335.951 214.78 338.594 210.412 341.237C209.463 341.811 208.513 342.385 207.564 342.96M249.011 316.966C243.487 320.294 238.008 323.699 232.532 327.102C229.439 329.024 226.348 330.946 223.249 332.853C218.889 335.524 214.522 338.166 210.154 340.809C209.204 341.383 208.254 341.958 207.303 342.533M207.564 342.96C207.565 342.959 207.565 342.959 207.566 342.959L207.303 342.533M207.564 342.96C207.564 342.96 207.563 342.96 207.562 342.961L207.303 342.533M207.564 342.96C207.355 343.089 207.122 343.174 206.879 343.211C206.635 343.247 206.386 343.234 206.147 343.172L205.299 342.952L205.92 342.334C206.231 342.025 206.567 341.74 206.922 341.484L206.936 341.474L206.95 341.465C213.533 337.364 220.123 333.293 226.72 329.252M207.303 342.533C207.222 342.583 207.136 342.624 207.046 342.656C206.971 342.72 206.897 342.785 206.825 342.852C206.757 342.915 206.691 342.978 206.626 343.043L206.273 342.688L206.398 342.204C206.507 342.233 206.619 342.238 206.729 342.222C206.754 342.218 206.779 342.213 206.803 342.207M207.215 341.889C213.797 337.789 220.386 333.718 226.983 329.678C228.965 328.45 230.943 327.216 232.921 325.983C237.634 323.045 242.348 320.106 247.116 317.244C256.745 311.471 266.43 305.787 276.125 300.114C284.092 295.452 291.849 290.467 299.494 285.294C304.653 281.815 309.934 278.519 315.215 275.222L207.215 341.889ZM207.215 341.889C207.074 341.991 206.937 342.097 206.803 342.207M207.215 341.889L206.803 342.207M226.72 329.252C226.72 329.252 226.72 329.252 226.719 329.252L226.983 329.677L226.722 329.251C226.721 329.251 226.721 329.252 226.72 329.252Z" fill="#6895FF" stroke="#6895FF"/>
<path d="M107.757 367.102L107.342 367.006L107.181 367.401L107.059 367.701L106.9 368.093L107.26 368.315C108.245 368.92 109.292 369.416 110.384 369.794L110.41 369.803L110.437 369.809C112.799 370.344 115.188 370.751 117.593 371.028L117.596 371.028C125.708 371.907 133.905 371.557 141.912 369.99C150.024 368.442 157.976 366.145 165.664 363.127C171.508 360.938 177.187 358.331 182.657 355.328L182.662 355.325C182.916 355.182 183.149 355.017 183.364 354.859C183.435 354.806 183.503 354.756 183.568 354.706C183.71 354.6 183.845 354.5 183.987 354.401L184.404 354.111L184.108 353.699L183.853 353.343L183.61 353.004L183.232 353.183C182.984 353.301 182.718 353.422 182.447 353.544C182.05 353.723 181.642 353.908 181.262 354.098L181.262 354.098L181.256 354.101C173.253 358.232 164.925 361.701 156.356 364.471L156.352 364.473C147.187 367.532 137.634 369.269 127.981 369.632L127.978 369.632C123.606 369.822 119.227 369.531 114.919 368.764C113.326 368.432 111.748 368.054 110.162 367.673C109.364 367.481 108.563 367.289 107.757 367.102Z" fill="#6895FF" stroke="#6895FF"/>
<path d="M22.0322 311.295L23.7024 312.037L22.6424 310.548C22.3827 310.184 22.0969 309.838 21.7871 309.515L21.7811 309.509L21.775 309.503C18.0182 305.846 15.007 301.492 12.9092 296.684L12.9092 296.684L12.9067 296.678C11.7396 294.087 10.7775 291.418 9.80712 288.725C9.37895 287.537 8.94916 286.344 8.49942 285.152C8.28021 284.157 7.81368 283.233 7.14274 282.467L6.42951 281.652L6.27184 282.723C6.19338 283.256 6.22811 283.8 6.37378 284.319L6.37364 284.319L6.37714 284.33C6.51483 284.779 6.6508 285.231 6.78713 285.683C7.24933 287.218 7.71564 288.766 8.26715 290.278C10.4574 296.747 13.7649 302.78 18.0388 308.102C19.0738 309.493 20.4491 310.592 22.0322 311.295Z" fill="#6895FF" stroke="#6895FF"/>
<path d="M313.281 248.632L312.809 248.315L312.555 248.824L312.543 248.846L312.389 249.154L312.622 249.408C313.174 250.008 313.763 250.572 314.387 251.095L314.398 251.105L314.409 251.113C321.797 256.627 329.184 262.119 336.572 267.589L336.584 267.598L336.596 267.605C337.083 267.925 337.589 268.213 338.112 268.469L338.49 268.654L338.737 268.314L339.003 267.947L339.294 267.546L338.895 267.251C338.603 267.035 338.315 266.782 338.003 266.506L337.994 266.499C337.685 266.226 337.353 265.934 336.999 265.674C330.764 261.092 324.51 256.525 318.237 251.973L318.238 251.973L318.227 251.966C317.069 251.171 315.881 250.375 314.696 249.582C314.223 249.265 313.751 248.948 313.281 248.632Z" fill="#6895FF" stroke="#6895FF"/>
<path d="M157.241 118.47L157.395 117.995L156.921 117.84L156.411 117.674L155.968 117.529L155.792 117.961C155.762 118.036 155.728 118.115 155.694 118.197C155.603 118.412 155.504 118.647 155.427 118.878C154.774 120.801 154.12 122.718 153.465 124.632C152.411 127.719 151.358 130.801 150.319 133.897C149.698 135.726 149.097 137.588 148.495 139.455C148.03 140.896 147.564 142.341 147.087 143.775C146.851 144.193 146.742 144.672 146.775 145.152C146.81 145.651 146.997 146.127 147.312 146.516L147.891 147.235L148.176 146.357L157.241 118.47Z" fill="#6895FF" stroke="#6895FF"/>
<path d="M297.518 250.62L297.758 250.182L297.321 249.942L297.099 249.819L296.788 249.648L296.524 249.885C296.307 250.08 296.105 250.291 295.919 250.516L295.905 250.532L295.893 250.55C292.058 256.079 288.242 261.631 284.444 267.205L284.438 267.214L284.433 267.222C284.299 267.436 284.288 267.671 284.281 267.834C284.279 267.887 284.278 267.94 284.276 267.997C284.272 268.147 284.267 268.32 284.248 268.556L284.124 270.072L285.123 268.926C285.376 268.635 285.593 268.398 285.786 268.187C285.852 268.115 285.914 268.047 285.975 267.98C286.212 267.718 286.42 267.481 286.605 267.222L286.605 267.222L286.608 267.217C287.488 265.95 288.371 264.687 289.253 263.425C291.211 260.624 293.167 257.827 295.078 255L295.079 254.999C295.732 254.03 296.284 252.968 296.822 251.935C297.054 251.488 297.284 251.046 297.518 250.62Z" fill="#6895FF" stroke="#6895FF"/>
<path d="M327.615 97.1055L327.518 97.1634L327.456 97.2569L327.434 97.2902L326.803 98.238L327.928 98.0613C328.793 97.9253 329.647 97.7183 330.478 97.4425L330.495 97.437L330.511 97.4304C331.588 96.988 332.666 96.4796 333.732 95.9769C334.431 95.6473 335.125 95.3201 335.81 95.0157C336.967 94.5018 338.131 93.9916 339.298 93.4806C341.07 92.7041 342.846 91.9256 344.61 91.129L344.635 91.1178L344.658 91.1041C345.239 90.7619 345.793 90.3764 346.316 89.951L347.008 89.3877L346.166 89.0915C345.702 88.9281 345.204 88.8829 344.718 88.9598C344.252 89.0335 343.81 89.2174 343.43 89.4957C339.302 91.3424 335.172 93.2012 331.075 95.1044C330.157 95.5301 329.28 96.0755 328.447 96.5936C328.164 96.7693 327.887 96.9419 327.615 97.1055Z" fill="#6895FF" stroke="#6895FF"/>
<path d="M21.7997 127.054L21.7034 127.376L21.9661 127.587L22.1323 127.72L22.5301 128.039L22.8412 127.635C23.9383 126.21 24.5993 124.608 25.1593 123.018C25.3101 122.589 25.453 122.164 25.5945 121.743C25.9853 120.58 26.3656 119.448 26.8758 118.362L26.0021 117.879C24.1809 120.726 22.7664 123.814 21.7997 127.054Z" fill="#6895FF" stroke="#6895FF"/>
<path d="M197.79 245.339L198.146 245.875L198.557 245.42C199.016 245.231 199.45 244.984 199.848 244.685L199.878 244.662L199.904 244.635C201.307 243.207 202.654 241.724 203.993 240.249L203.994 240.249C204.537 239.661 205.048 239.036 205.546 238.427C205.689 238.253 205.831 238.08 205.972 237.909L206.292 237.522L205.903 237.204L205.538 236.904L205.169 236.602L204.85 236.956L197.974 244.573L197.418 244.779L197.768 245.306L197.79 245.339ZM198.176 245.034V245.034Z" fill="#6895FF" stroke="#6895FF"/>
<path d="M159.202 183.103L159.706 182.599L159.116 182.323C158.497 181.662 157.31 180.898 156.119 180.315C155.478 180.001 154.813 179.729 154.198 179.545C153.596 179.365 152.993 179.255 152.498 179.311L150.736 179.51L152.342 180.261L158.504 183.141L158.808 183.498L159.191 183.114L159.202 183.103Z" fill="#6895FF" stroke="#6895FF"/>
<path d="M229.457 205.032L229.706 204.591L229.262 204.347L228.797 204.092L228.386 203.867L228.135 204.262C227.034 205.991 226.046 207.79 225.178 209.647L224.981 210.069L225.388 210.296L225.787 210.518L226.221 210.76L226.465 210.327L229.457 205.032Z" fill="#6895FF" stroke="#6895FF"/>
<path d="M220.397 216.683L220.153 217.043L220.475 217.334L220.819 217.645L221.197 217.987L221.531 217.602C222.874 216.057 224.015 214.346 224.926 212.512L225.121 212.121L224.759 211.876L224.416 211.643L224.002 211.362L223.721 211.776L220.397 216.683Z" fill="#6895FF" stroke="#6895FF"/>
<path d="M205.505 236.073L205.373 236.217V236.412V237.337V238.365L206.181 237.731C206.731 237.299 207.758 236.294 208.711 235.266C209.191 234.749 209.661 234.217 210.051 233.738C210.434 233.268 210.763 232.821 210.941 232.482L210.941 232.482L210.945 232.473L211.87 230.624L211.055 230.061L205.505 236.073Z" fill="#6895FF" stroke="#6895FF"/>
<path d="M220.768 218.957L221.074 218.514L220.609 218.242L220.21 218.009L219.865 217.807L219.593 218.099C218.799 218.947 218.136 219.908 217.625 220.951L217.431 221.347L217.799 221.589L218.187 221.844L218.596 222.114L218.873 221.71L220.768 218.957Z" fill="#6895FF" stroke="#6895FF"/>
<path d="M213.085 229.47L213.349 229.128L213.049 228.817L212.716 228.473L212.377 228.121L212.017 228.453C211.216 229.193 210.556 230.074 210.069 231.051L209.89 231.412L210.204 231.664L210.537 231.93L210.93 232.246L211.242 231.85C211.676 231.298 212.106 230.74 212.532 230.187C212.717 229.947 212.901 229.708 213.085 229.47Z" fill="#6895FF" stroke="#6895FF"/>
<path d="M295.291 53.9299L295.593 54.5366L295.86 54.2817C296.377 54.4564 296.862 54.431 297.335 54.242C297.87 54.0283 298.366 53.6126 298.864 53.1681L299.676 52.4429L298.596 52.2995C298.018 52.2227 297.431 52.2768 296.876 52.4578C296.441 52.5999 296.035 52.8175 295.676 53.0996L294.61 52.5647L295.28 53.9077L295.291 53.9299Z" fill="#6895FF" stroke="#6895FF"/>
<path d="M312.731 249.523L313.111 249.768L313.393 249.415L313.437 249.359L313.666 249.072L313.46 248.767C312.823 247.824 311.94 247.072 310.907 246.595L310.53 246.421L310.29 246.759L310.013 247.147L309.709 247.574L310.149 247.858L312.731 249.523Z" fill="#6895FF" stroke="#6895FF"/>
<path d="M142.043 181.307L142.798 179.793L141.341 180.653L141.324 180.663C140.293 180.746 139.313 181.151 138.523 181.825L138.229 182.076L138.397 182.423L138.586 182.812L138.822 183.301L139.29 183.025L141.622 181.648L141.877 181.639L142.01 181.373L142.043 181.307Z" fill="#6895FF" stroke="#6895FF"/>
<path d="M158.483 182.407L157.878 183.013L158.641 183.225C159.368 183.8 160.212 184.21 161.114 184.425L161.551 184.53L161.702 184.107L161.868 183.64L162.048 183.134L161.531 182.99L159.11 182.318L158.816 182.074L158.494 182.396L158.483 182.407Z" fill="#6895FF" stroke="#6895FF"/>
<path d="M198.539 244.687L197.684 243.829V244.863L196.239 246.193L196.704 247.045C197.148 246.93 197.634 246.761 198.013 246.457C198.357 246.183 198.599 245.808 198.666 245.318L198.928 245.077L198.561 244.709L198.539 244.687Z" fill="#6895FF" stroke="#6895FF"/>
<path d="M158.005 114.455L157.358 113.807L157.163 114.701C157.159 114.718 157.155 114.735 157.152 114.752L156.242 116.522L155.98 117.034L156.522 117.223L157.032 117.401L157.571 117.588L157.687 117.029C157.818 116.391 157.959 115.743 158.101 115.092L158.118 115.059L158.284 114.735L158.027 114.477L158.005 114.455Z" fill="#6895FF" stroke="#6895FF"/>
<path d="M157.319 115.185L158.037 115.903L158.169 114.896L158.173 114.866C158.263 114.663 158.352 114.461 158.441 114.258C158.567 113.969 158.695 113.678 158.828 113.381L159.07 112.842L158.499 112.693L158.033 112.571L157.484 112.427L157.41 112.989L157.2 114.592C157.198 114.597 157.196 114.601 157.194 114.605L157.054 114.919L157.297 115.163L157.319 115.185Z" fill="#6895FF" stroke="#6895FF"/>
<path d="M214.917 225.741L214.448 225.427L214.193 225.93L214.184 225.948L213.292 226.766L212.836 227.185L213.341 227.543L213.718 227.809L214.191 228.144L214.453 227.628L214.994 226.562L215.01 226.547L215.479 226.116L214.95 225.763L214.917 225.741Z" fill="#6895FF" stroke="#6895FF"/>
<path d="M215.34 225.53L215.803 225.84L216.061 225.346L216.071 225.326L216.917 224.563L217.36 224.163L216.888 223.797L216.545 223.53L216.072 223.163L215.795 223.694L215.267 224.705L215.249 224.721L214.773 225.151L215.307 225.508L215.34 225.53Z" fill="#6895FF" stroke="#6895FF"/>
<path d="M56.8514 53.0748L57.6311 53.6768L58.6173 52.7763L59.0373 52.3929L58.6033 52.0255L58.2486 51.7253L57.7732 51.3228L57.4831 51.8741L56.8514 53.0748Z" fill="#6895FF" stroke="#6895FF"/>
<path d="M57.6828 53.6204L57.914 53.3348L57.7105 53.0289L57.6883 52.9956L57.3056 52.4202L56.8788 52.9636L55.2831 54.9952L56.0649 55.6187L57.6828 53.6204Z" fill="#6895FF" stroke="#6895FF"/>
</svg>
