<svg width="354" height="352" viewBox="0 0 354 352" fill="none" xmlns="http://www.w3.org/2000/svg">
<path d="M299.616 50.1923L300.148 50.358L300.182 50.3685L301.642 50.8233L300.401 51.2484C300.235 51.6904 299.933 51.9849 299.592 52.1928C299.301 52.371 298.947 52.5011 298.651 52.6097C298.567 52.6406 298.488 52.6698 298.416 52.6978L295.145 53.9752L302.362 57.2049L302.813 57.4068L302.616 57.8603L302.448 58.2489L302.304 58.5805L301.944 58.5478C301.49 58.5065 301.042 58.4235 300.605 58.2999L300.586 58.2944L300.567 58.2875C298.662 57.5806 296.797 56.7819 294.98 55.8948L294.971 55.8906L294.963 55.8862C293.971 55.3544 293.082 55.1818 292.215 55.288C291.5 55.3757 290.769 55.6568 289.98 56.1332C291.843 57.7476 293.72 59.3425 295.594 60.9345C298.958 63.7928 302.31 66.6419 305.551 69.5774L305.907 69.9L305.599 70.2687L305.318 70.6047L305.094 70.8726L304.765 70.7545C304.409 70.6265 304.07 70.4566 303.758 70.2486L303.733 70.2324L303.711 70.2135C302.514 69.1971 301.313 68.1827 300.112 67.1676C296.49 64.1072 292.861 61.0413 289.304 57.8995L289.292 57.8888L289.28 57.8774C288.886 57.481 288.351 57.2203 287.764 57.1473C287.177 57.0744 286.584 57.1949 286.087 57.4843L286.054 57.5032L286.019 57.517C280.863 59.5602 275.691 61.5797 270.519 63.5995C267.37 64.8292 264.22 66.059 261.074 67.2944C257.529 68.6944 253.995 70.0943 250.461 71.4943C248.694 72.1944 246.926 72.8945 245.157 73.5947L245.157 73.5949C236.291 77.0954 227.422 80.5959 218.549 84.0964C209.675 87.597 200.742 91.0976 191.749 94.5982L299.616 50.1923ZM299.616 50.1923L299.56 50.4794M299.616 50.1923L299.56 50.4794M299.56 50.4794C299.392 50.5367 299.225 50.5941 299.057 50.6515C297.303 51.2519 295.54 51.8554 293.785 52.4746L293.752 52.4863L293.721 52.5025C293.431 52.6531 293.106 52.7408 292.772 52.7573C292.442 52.7736 292.114 52.7202 291.811 52.6021C290.491 51.9836 289.135 51.4342 287.785 50.898C287.579 50.8162 287.373 50.7347 287.168 50.6533C286.018 50.1979 284.876 49.7461 283.756 49.2584C281.115 48.1097 278.63 46.7798 276.533 44.8106L276.532 44.8097C276.389 44.6761 276.208 44.6333 276.133 44.6154L276.122 44.6129C276.099 44.6073 276.076 44.6021 276.054 44.5968C275.977 44.579 275.901 44.5613 275.799 44.5297L274.591 44.1533L275.216 45.254C275.296 45.3955 275.371 45.5288 275.446 45.6635C265.592 41.4991 255.766 37.3548 245.953 33.2161C222.971 23.5229 200.061 13.8607 177.043 4.04326C177.778 3.71072 178.522 3.45671 179.269 3.20196C179.403 3.15633 179.536 3.11067 179.67 3.06453C180.85 2.65787 182.037 2.21193 183.045 1.39458L184.059 0.573212L182.756 0.506769C182.088 0.472717 181.42 0.567376 180.792 0.785481C180.401 0.920342 180.002 1.05227 179.599 1.18541C178.528 1.54001 177.43 1.90317 176.384 2.35303L176.37 2.35919L176.356 2.36622C175.804 2.64553 175.184 2.79272 174.553 2.79272C173.928 2.79272 173.315 2.64882 172.768 2.37555C171.732 1.73788 170.494 1.46152 169.268 1.59051L167.656 1.76003L169.083 2.52806L171.753 3.96515C171.687 3.99738 171.62 4.02867 171.552 4.05903L167.008 5.64834L167.006 5.64901L126.099 20.141L126.098 20.1412L101.772 28.7943L101.772 28.7944C99.1967 29.7116 96.6199 30.624 94.0433 31.5364C90.281 32.8686 86.5193 34.2006 82.7633 35.5468C75.9204 37.9834 69.0888 40.434 62.2684 42.8986L62.251 42.9049L62.2341 42.9124C61.7909 43.1106 61.3639 43.3396 60.9567 43.5975L61.3613 44.5008C66.7171 42.9734 71.9348 41.1625 77.1279 39.3354L77.128 39.3353L108.356 28.3404L108.357 28.34L152.287 12.7669L299.56 50.4794ZM286.346 55.4191C286.253 55.4613 286.163 55.5025 286.075 55.5426C285.572 55.7724 285.141 55.9688 284.688 56.145L284.686 56.1455C270.679 61.6274 256.676 67.1232 242.677 72.6331L242.677 72.6331C228.318 78.2899 213.948 83.9537 199.567 89.6245L166.203 102.772L166.386 103.237L166.203 102.772L166.122 102.804C165.183 103.174 164.496 103.445 163.927 103.624C163.348 103.806 162.922 103.882 162.519 103.872C161.69 103.851 160.856 103.477 158.934 102.565L158.932 102.564C154.512 100.485 150.106 98.3919 145.699 96.2988C142.494 94.777 139.29 93.255 136.08 91.7379L135.866 92.1899L136.08 91.7378L100.526 74.9365C100.525 74.9364 100.525 74.9363 100.525 74.9362C96.2378 72.8882 91.944 70.8727 87.6546 68.8592C86.004 68.0845 84.3542 67.31 82.7055 66.5341L82.7052 66.5339C74.4618 62.6625 66.2185 58.7841 57.9751 54.8987L57.9735 54.8979C57.4945 54.6742 57.0541 54.4045 56.5945 54.123C56.5314 54.0843 56.4679 54.0454 56.4039 54.0064L56.9568 52.6045L57.6 50.9736L56.1933 52.0199L54.6501 53.1676L49.9841 51.3564L49.5713 51.1961L49.3623 51.5865L49.1937 51.9016L48.9577 52.3426L49.3987 52.5784L53.4248 54.7316C52.1723 56.1921 50.9483 57.6153 49.7427 59.0171C48.3158 60.6763 46.9147 62.3054 45.5227 63.9309L45.5222 63.9314C42.7721 67.1516 40.0258 70.3682 37.2832 73.5813C37.2829 73.5816 37.2826 73.582 37.2823 73.5823L29.1561 83.0322L29.155 83.0335C28.2951 84.0401 27.4306 85.0441 26.5658 86.0484C24.6686 88.2518 22.7702 90.4565 20.9162 92.6935L286.346 55.4191ZM286.346 55.4191C286.077 55.1771 285.822 54.9463 285.576 54.7228C285.079 54.2736 284.616 53.8541 284.142 53.4336C283.809 53.1996 283.491 52.9479 283.188 52.6797L283.166 52.6607L283.147 52.6394C280.696 49.9067 277.34 48.4978 273.837 47.0268C273.725 46.9799 273.613 46.9328 273.501 46.8857L273.695 46.4247L273.501 46.8856C256.864 39.8846 240.234 32.8837 223.612 25.8827L223.61 25.8819C208.899 19.6161 194.192 13.3573 179.489 7.10551L179.488 7.1052C179.087 6.93411 178.676 6.76676 178.261 6.59796C177.488 6.28342 176.703 5.96384 175.951 5.6056L175.941 5.60073L175.941 5.60062C175.474 5.36528 174.954 5.23214 174.421 5.21286C173.888 5.19358 173.358 5.28877 172.872 5.49004L172.863 5.49411L172.853 5.49775C167.853 7.32605 162.858 9.07063 157.838 10.824C155.992 11.4687 154.142 12.1147 152.288 12.7664L286.346 55.4191ZM165.3 104.962L191.748 94.5986L34.3352 79.0106L34.716 79.3347L34.7162 79.3345C34.7164 79.3342 34.7167 79.3339 34.7169 79.3336L55.0834 55.4005L67.6302 61.3786L67.632 61.3794L80.5257 67.4597L93.2395 73.4561L93.2398 73.4562C95.3579 74.4534 97.4732 75.4585 99.5895 76.4641C101.706 77.4695 103.823 78.4754 105.942 79.4735C107.356 80.139 108.769 80.8032 110.182 81.4674C113.007 82.7949 115.831 84.1221 118.655 85.4588C118.655 85.4588 118.655 85.4589 118.655 85.4589L131.537 91.56C132.685 92.1044 133.833 92.6506 134.982 93.1971C138.065 94.6632 141.154 96.1321 144.242 97.5784C145.989 98.3964 147.727 99.2043 149.468 100.013C151.957 101.17 154.45 102.329 156.977 103.522C158.692 104.331 160.423 105.165 162.153 105.998C164.739 107.244 167.322 108.488 169.842 109.646C170.9 110.132 171.955 110.64 173.016 111.15C176.13 112.647 179.287 114.165 182.671 115.224L183.073 114.316C180.024 112.529 176.843 110.975 173.618 109.444C173.05 109.174 172.481 108.905 171.911 108.636C169.547 107.519 167.168 106.395 164.794 105.177C164.983 105.094 165.136 105.028 165.299 104.963C165.299 104.963 165.3 104.963 165.3 104.962ZM289.919 53.8582C289.713 53.9959 289.531 54.109 289.367 54.1997C289.034 54.3837 288.81 54.4535 288.631 54.4647C288.286 54.4862 287.929 54.3058 287.07 53.6166L287.063 53.6115L287.057 53.6066C286.214 52.9752 285.427 52.2889 284.65 51.5784L289.919 53.8582Z" fill="#6895FF" stroke="#6895FF"/>
<path d="M74.8384 45.4763L75.1911 45.0809L75.2805 45.3187C75.725 45.1883 76.1831 45.0642 76.6465 44.9387C77.557 44.6921 78.488 44.4399 79.3768 44.1233L79.3788 44.1226C93.3258 39.0888 107.239 34.048 121.119 29.0001L121.12 28.9995C124.934 27.5961 128.748 26.1962 132.561 24.7966C143.211 20.8872 153.856 16.9801 164.469 13.0048L164.476 13.0023L164.483 12.9995C165.334 12.6523 166.258 12.4857 167.189 12.5128C168.119 12.5399 169.03 12.7598 169.856 13.1555L169.868 13.1614L169.881 13.1666C179.565 17.1781 189.277 21.1211 198.99 25.0644C200.035 25.4884 201.079 25.9125 202.124 26.3367L202.125 26.3371C212.234 30.4116 222.313 34.486 232.363 38.5604L232.364 38.5608L263.901 51.2758L263.907 51.278L266.881 52.5179C266.854 52.5292 266.828 52.5404 266.801 52.5516C266.149 52.8288 265.611 53.0574 265.062 53.2664L265.058 53.2679L232.773 65.8696L232.772 65.87L202.58 77.7361C202.58 77.7361 202.58 77.7362 202.579 77.7362C200.254 78.6423 197.928 79.5472 195.603 80.4522C188.225 83.3225 180.848 86.1928 173.496 89.0995L173.494 89.1003C173.069 89.2706 172.605 89.3436 172.141 89.312C171.677 89.2805 171.23 89.1457 170.838 88.9206L170.818 88.9095L170.798 88.9002C170.26 88.6526 169.721 88.4047 169.183 88.1567C165.955 86.6703 162.722 85.1814 159.473 83.7312C155.617 82.0062 151.768 80.2962 147.924 78.5879C145.402 77.4674 142.882 76.3476 140.362 75.2249L92.4639 53.8441L92.4633 53.8439L75.9506 46.4982C75.6433 46.3417 75.345 46.1771 75.0307 46.003L74.9883 45.9795C74.8576 45.9071 74.7241 45.8332 74.5869 45.7582L74.8384 45.4763ZM75.0132 44.6079L74.4337 44.6445L71.1063 44.8545L70.7869 44.8747L70.6715 45.1732L70.5253 45.5513L70.3521 45.9995L70.793 46.1904C75.7504 48.337 80.6547 50.5298 85.5761 52.7302C88.9133 54.2223 92.2584 55.718 95.6332 57.2051C101.538 59.8069 107.424 62.4453 113.312 65.084C115.74 66.1721 118.168 67.2603 120.598 68.3461L120.598 68.3464L145.779 79.5514L145.779 79.5516L170.061 90.3183C169.815 90.4511 169.543 90.5606 169.245 90.6805C169.196 90.7002 169.146 90.7202 169.096 90.7406C168.494 90.9845 167.771 91.3006 167.352 92.0646L166.91 92.869L167.825 92.8041C168.541 92.7533 169.244 92.5933 169.906 92.3298C177.4 89.4244 184.894 86.5014 192.388 83.5611C195.043 82.5239 197.673 81.4746 200.301 80.4263C203.209 79.2661 206.114 78.107 209.047 76.9667L209.047 76.9666C214.181 74.9645 219.338 72.9918 224.507 71.0142C228.315 69.5577 232.129 68.0986 235.946 66.6232L235.947 66.6228C240.635 64.8003 245.311 62.9666 249.986 61.1337C255.869 58.8267 261.75 56.5208 267.648 54.2394C268.713 53.9325 269.806 53.7187 270.914 53.6008L271.198 53.5705L271.316 53.3106C271.69 52.4873 272.501 52.1604 273.62 51.7934C273.681 51.7733 273.744 51.7531 273.807 51.7327C274.815 51.4053 276.035 51.0094 276.788 49.9485L277.573 48.8426L276.258 49.1743C274.554 49.6041 272.894 50.1756 271.299 50.8822L271.288 50.8871L271.277 50.8926C270.693 51.1861 270.038 51.3406 269.371 51.3406C268.705 51.3406 268.05 51.1861 267.466 50.8926L267.452 50.8857L267.438 50.8797C264.691 49.7026 261.907 48.5951 259.132 47.4909C257.915 47.0067 256.7 46.5231 255.49 46.0345L255.488 46.0339C247.89 42.9959 240.292 39.9369 232.694 36.8568C230.596 35.9987 228.498 35.1399 226.4 34.2812C219.925 31.6305 213.452 28.9808 206.973 26.3551L206.973 26.3549C204.322 25.2848 201.677 24.228 199.035 23.1721C196.138 22.0147 193.245 20.8584 190.347 19.6866L190.347 19.6866C183.94 17.0963 177.533 14.4991 171.126 11.8949L171.123 11.8939C170.701 11.725 170.31 11.5515 169.861 11.3526C169.75 11.3035 169.636 11.2529 169.517 11.2004C170.153 10.9297 170.786 10.6927 171.416 10.4567C171.664 10.3637 171.912 10.2708 172.16 10.1761C173.353 9.71968 174.528 9.22361 175.588 8.47072L176.921 7.525L175.287 7.56312C174.366 7.58464 173.455 7.7664 172.603 8.09971C170.46 8.89211 168.318 9.68907 166.176 10.4861C163.036 11.6547 159.895 12.8234 156.749 13.978C146.069 17.8566 135.394 21.7421 124.722 25.6347L124.722 25.6348C116.77 28.5404 108.822 31.46 100.878 34.3936L100.877 34.3937C99.2575 34.9928 97.637 35.5914 96.0163 36.1901C90.4505 38.2462 84.8813 40.3035 79.3258 42.386L79.324 42.3867C78.2459 42.7956 77.1972 43.3006 76.1713 43.7947C75.7537 43.9958 75.3399 44.1951 74.9295 44.3853L75.0132 44.6079Z" fill="#6895FF" stroke="#6895FF"/>
<path d="M332.993 92.5874L332.994 92.5859L333.016 92.5544L333.573 91.7747L332.615 91.7638C332.206 91.7591 331.804 91.676 331.433 91.5206C331.061 91.3651 330.731 91.1411 330.46 90.8641L330.445 90.8485L330.428 90.8343C322.875 84.3448 315.351 77.8588 307.857 71.3763L307.855 71.3747C307.631 71.1824 307.393 71.0147 307.165 70.861C307.094 70.8126 307.024 70.7663 306.956 70.7209C306.801 70.6176 306.654 70.5195 306.507 70.4138L306.154 70.1604L305.854 70.474L305.472 70.873L305.133 71.2263L305.479 71.5723C305.617 71.7099 305.76 71.8611 305.908 72.0177C306.226 72.3531 306.568 72.7132 306.925 73.0171C313.789 78.8695 320.642 84.7324 327.484 90.6058C328.093 91.131 328.683 91.6747 329.332 92.2722C329.42 92.3537 329.51 92.4362 329.601 92.5198C329.425 92.6001 329.255 92.6776 329.092 92.7526C328.43 93.0558 327.856 93.3189 327.267 93.5671C319.601 96.7804 311.927 99.9937 304.246 103.207L304.439 103.668L304.246 103.207C299.563 105.166 294.878 107.123 290.193 109.08C279.462 113.562 268.73 118.044 258.01 122.562L258.009 122.562C248.802 126.444 239.613 130.372 230.425 134.298C227.036 135.747 223.648 137.195 220.259 138.64L220.259 138.64L220.248 138.645C219.836 138.834 219.411 139.071 219.005 139.298C218.847 139.386 218.692 139.472 218.543 139.553L218.098 139.794L218.344 140.236L218.625 140.74L218.841 141.127L219.251 140.96C223.361 139.282 227.393 137.521 231.431 135.747C231.787 135.591 232.143 135.435 232.498 135.278C236.184 133.659 239.881 132.035 243.659 130.457C248.32 128.51 253.013 126.592 257.693 124.68C261.348 123.186 264.995 121.696 268.613 120.197C272.261 118.687 275.88 117.155 279.499 115.623C284.074 113.686 288.65 111.75 293.286 109.854C296.551 108.519 299.783 107.142 303.025 105.76C307.903 103.681 312.803 101.593 317.868 99.6269C318.108 100.201 318.344 100.75 318.574 101.284C319.104 102.517 319.598 103.668 320.032 104.856C322.456 111.749 324.305 118.806 325.563 125.965L325.563 125.965L325.565 125.976C326.799 132.186 327.491 138.478 327.636 144.792C327.757 151.162 327.424 157.533 326.639 163.862C325.635 171.509 324.168 179.097 322.244 186.589C322.185 186.818 322.127 187.047 322.068 187.275C320.339 194.006 318.616 200.711 315.851 207.119C311.615 216.933 307.133 226.601 301.123 235.571L301.115 235.584L301.107 235.597C300.93 235.9 300.784 236.22 300.672 236.55L300.555 236.894L300.846 237.111L301.071 237.279L301.423 237.542L301.729 237.227C302.368 236.568 302.961 235.871 303.503 235.139L303.51 235.13L303.516 235.121C307.16 229.717 310.024 223.896 312.875 218.103C313.366 217.104 313.857 216.106 314.352 215.111L314.352 215.111C319.572 204.577 322.651 193.463 325.261 182.248C327.331 173.442 328.669 164.499 329.263 155.5C329.879 148.519 329.709 141.496 328.754 134.548L328.755 134.548L328.753 134.537C327.763 128.346 326.626 122.153 325.286 116.011C324.219 110.611 322.471 105.348 320.077 100.334L320.077 100.334L320.072 100.324C319.866 99.9152 319.679 99.5092 319.474 99.0629C319.463 99.0378 319.451 99.0126 319.439 98.9872C319.72 98.8101 320.01 98.6454 320.308 98.4937C321.394 98.0403 322.486 97.5913 323.58 97.1416C325.458 96.3693 327.341 95.595 329.206 94.7934C329.458 94.6897 329.711 94.5955 329.972 94.4987C330.042 94.4724 330.114 94.4459 330.186 94.4189C330.518 94.2943 330.86 94.162 331.19 94.0064C331.854 93.6934 332.498 93.2745 332.993 92.5874Z" fill="#6895FF" stroke="#6895FF"/>
<path d="M143.644 171.913L143.423 170.964C143.716 170.82 144.015 170.668 144.318 170.514C144.848 170.244 145.39 169.968 145.93 169.719L145.935 169.717C146.912 169.28 147.902 168.86 149.027 168.383C149.106 168.35 149.186 168.316 149.267 168.282L141.014 164.225C140.833 164.522 140.667 164.828 140.518 165.14C139.667 167.385 138.828 169.629 137.99 171.873C137.312 173.686 136.634 175.5 135.95 177.312L135.949 177.317C135.809 177.675 135.656 178.025 135.505 178.371L135.491 178.402C135.343 178.74 135.197 179.073 135.059 179.421L134.907 179.803L134.503 179.728L134.053 179.644L133.618 179.562L133.646 179.121C133.675 178.652 133.747 178.186 133.862 177.728L133.868 177.705L133.876 177.683C134.366 176.3 134.87 174.919 135.372 173.542L135.373 173.541L135.373 173.54C135.876 172.162 136.378 170.786 136.866 169.408L136.867 169.406C137.425 167.848 137.952 166.292 138.515 164.632C138.664 164.19 138.817 163.741 138.973 163.282C138.69 163.138 138.413 162.995 138.139 162.855C137.355 162.452 136.596 162.062 135.817 161.688C133.578 160.618 131.337 159.55 129.097 158.482C125.051 156.555 121.006 154.627 116.976 152.688L116.976 152.687C113.133 150.834 109.294 148.966 105.455 147.099C102.379 145.602 99.3023 144.105 96.2241 142.616C92.9354 141.025 89.61 139.427 86.2763 137.824C82.6011 136.057 78.9158 134.285 75.259 132.514L75.2576 132.513C64.0838 127.059 52.9026 121.602 41.7138 116.141C35.4015 113.069 29.0986 109.963 22.8061 106.862C22.1497 106.538 21.4933 106.215 20.8371 105.891L20.8308 105.888L20.8308 105.888C20.2287 105.581 19.6676 105.206 19.1598 104.773L17.8804 103.681L19.5486 103.897C19.7302 103.92 20.0016 104.009 20.3038 104.12C20.6247 104.239 21.035 104.403 21.5215 104.608C22.4953 105.017 23.7912 105.593 25.3209 106.29C28.3812 107.686 32.3905 109.576 36.6576 111.618C45.1919 115.702 54.7667 120.394 59.8624 122.953M143.644 171.913L59.8624 122.953M143.644 171.913H143.711H143.75L143.788 171.907C144.473 171.8 145.148 171.647 145.81 171.451L145.825 171.446L145.84 171.441C146.322 171.263 146.805 171.086 147.289 170.908C149.806 169.983 152.351 169.048 154.849 168.032C161.88 165.182 168.892 162.297 175.885 159.377L175.887 159.377C179.68 157.778 183.466 156.175 187.251 154.574C191.747 152.671 196.241 150.769 200.741 148.875C200.741 148.875 200.741 148.875 200.741 148.875L216.872 142.091L216.89 142.084L216.907 142.075C217.4 141.822 217.873 141.536 218.325 141.221L218.719 140.946L218.459 140.541L218.223 140.174L218.018 139.856L217.657 139.966C217.532 140.004 217.395 140.042 217.253 140.082C216.9 140.181 216.511 140.29 216.162 140.433L216.157 140.435C207.54 144.075 198.922 147.694 190.305 151.293L156.716 165.301L156.708 165.305C155.299 165.921 153.889 166.491 152.439 166.956L152.43 166.959C151.925 167.132 151.37 167.134 150.863 166.966C148.194 165.766 145.567 164.482 142.96 163.154L142.958 163.153C142.254 162.798 141.997 162.539 141.904 162.298C141.808 162.051 141.826 161.68 142.082 160.937C142.522 159.663 142.989 158.402 143.458 157.133C143.718 156.431 143.979 155.726 144.237 155.014C144.661 153.864 145.086 152.712 145.511 151.561C146.809 148.045 148.109 144.525 149.397 141.004L149.398 141.001C149.557 140.556 149.678 140.081 149.792 139.634C149.837 139.456 149.881 139.282 149.927 139.116L150.054 138.647L149.59 138.506L149.073 138.348L148.649 138.219L148.47 138.624C148.383 138.821 148.292 139.02 148.2 139.221C147.96 139.749 147.712 140.292 147.504 140.845L147.503 140.848C145.084 147.367 142.654 153.88 140.213 160.386C140.043 160.769 139.859 161.146 139.659 161.517M143.644 171.913L139.659 161.517M59.8624 122.953C69.5019 127.793 79.2356 132.464 88.9737 137.138C92.5632 138.86 96.1532 140.583 99.7393 142.314C107.85 146.231 116.009 150.151 124.222 154.096C129.347 156.558 134.492 159.029 139.659 161.517M59.8624 122.953L139.659 161.517M150.467 168.315C150.26 168.403 150.057 168.489 149.86 168.573L150.467 168.315ZM150.467 168.315L149.875 168.023L150.467 168.315ZM143.672 170.913C144.255 170.82 144.831 170.692 145.396 170.53C145.116 170.668 144.838 170.81 144.559 170.952C144.277 171.096 143.995 171.239 143.711 171.379V170.913H143.672ZM143.672 170.913H143.644V170.917M143.672 170.913C143.663 170.914 143.653 170.916 143.644 170.917M143.644 170.917C143.64 170.918 143.637 170.918 143.634 170.919L143.644 170.981M143.644 170.917V170.981M143.644 170.981V171.413M143.644 170.981L143.706 171.382C143.685 171.392 143.665 171.402 143.644 171.413M143.644 171.413L143.711 171.55L143.743 171.613L143.865 171.861C144.184 171.704 144.494 171.546 144.8 171.39C145.06 171.258 145.318 171.127 145.578 170.998C144.966 171.175 144.343 171.314 143.711 171.413H143.644ZM217.819 140.961C217.862 140.948 217.904 140.935 217.948 140.922L217.935 140.882C217.897 140.909 217.858 140.935 217.819 140.961ZM217.785 140.449L217.752 140.402C217.703 140.435 217.655 140.469 217.606 140.502C217.666 140.485 217.726 140.467 217.785 140.449Z" fill="#6895FF" stroke="#6895FF"/>
<mask id="path-5-outside-1" maskUnits="userSpaceOnUse" x="73.2759" y="163.195" width="67" height="145" fill="black">
<rect fill="white" x="73.2759" y="163.195" width="67" height="145"/>
<path d="M137.967 165.479C137.338 166.035 136.708 166.582 136.09 167.149C130.469 172.305 124.703 177.303 119.307 182.649C112.279 189.691 105.796 197.19 99.9045 205.09C94.5946 211.985 90.0093 219.342 86.2127 227.059C84.0656 231.501 82.3906 236.132 80.5921 240.711C78.1039 246.882 76.4133 253.309 75.556 259.855C75.2974 261.798 75.3761 263.772 75.2637 265.736C74.7017 275.187 75.9494 284.565 77.5906 293.88C78.1527 297.03 79.0857 300.181 79.8389 303.331C79.9889 303.912 80.0156 304.515 79.9176 305.106C78.9447 303.603 78.324 301.924 78.0965 300.181C76.4839 293.185 75.3574 286.099 74.7241 278.968C73.8586 269.117 74.0834 259.33 76.86 249.753C78.3663 244.565 80.4122 239.514 82.3007 234.442C85.1471 226.772 88.9463 219.441 93.6207 212.599C96.993 207.758 100.545 203.063 104.277 198.474C108.212 193.644 112.334 188.932 116.643 184.339C122.369 178.198 128.564 172.453 135.179 167.149C135.989 166.487 136.809 165.846 137.63 165.195L137.967 165.479Z"/>
</mask>
<path d="M137.967 165.479C137.338 166.035 136.708 166.582 136.09 167.149C130.469 172.305 124.703 177.303 119.307 182.649C112.279 189.691 105.796 197.19 99.9045 205.09C94.5946 211.985 90.0093 219.342 86.2127 227.059C84.0656 231.501 82.3906 236.132 80.5921 240.711C78.1039 246.882 76.4133 253.309 75.556 259.855C75.2974 261.798 75.3761 263.772 75.2637 265.736C74.7017 275.187 75.9494 284.565 77.5906 293.88C78.1527 297.03 79.0857 300.181 79.8389 303.331C79.9889 303.912 80.0156 304.515 79.9176 305.106C78.9447 303.603 78.324 301.924 78.0965 300.181C76.4839 293.185 75.3574 286.099 74.7241 278.968C73.8586 269.117 74.0834 259.33 76.86 249.753C78.3663 244.565 80.4122 239.514 82.3007 234.442C85.1471 226.772 88.9463 219.441 93.6207 212.599C96.993 207.758 100.545 203.063 104.277 198.474C108.212 193.644 112.334 188.932 116.643 184.339C122.369 178.198 128.564 172.453 135.179 167.149C135.989 166.487 136.809 165.846 137.63 165.195L137.967 165.479Z" fill="#6895FF"/>
<path d="M137.967 165.479L138.63 166.228L139.499 165.46L138.611 164.713L137.967 165.479ZM136.09 167.149L135.414 166.412L135.414 166.412L136.09 167.149ZM119.307 182.649L118.603 181.938L118.599 181.942L119.307 182.649ZM99.9045 205.09L100.697 205.7L100.701 205.694L100.706 205.688L99.9045 205.09ZM86.2127 227.059L85.3154 226.618L85.3123 226.624L86.2127 227.059ZM80.5921 240.711L81.5195 241.085L81.5228 241.077L80.5921 240.711ZM75.556 259.855L76.5472 259.987L76.5475 259.985L75.556 259.855ZM75.2637 265.736L76.262 265.795L76.2621 265.793L75.2637 265.736ZM77.5906 293.88L76.6058 294.053L76.6062 294.055L77.5906 293.88ZM79.8389 303.331L78.8663 303.563L78.8684 303.572L78.8706 303.581L79.8389 303.331ZM79.9176 305.106L79.0781 305.649L80.4813 307.817L80.9041 305.269L79.9176 305.106ZM78.0965 300.181L79.0881 300.051L79.0818 300.003L79.0709 299.956L78.0965 300.181ZM74.7241 278.968L73.728 279.055L73.728 279.056L74.7241 278.968ZM76.86 249.753L75.8996 249.474L75.8995 249.474L76.86 249.753ZM82.3007 234.442L83.2379 234.791L83.2382 234.79L82.3007 234.442ZM93.6207 212.599L92.8001 212.027L92.7949 212.035L93.6207 212.599ZM104.277 198.474L103.502 197.843L103.502 197.843L104.277 198.474ZM116.643 184.339L117.372 185.024L117.374 185.021L116.643 184.339ZM135.179 167.149L135.805 167.929L135.812 167.923L135.179 167.149ZM137.63 165.195L138.274 164.43L137.648 163.904L137.009 164.412L137.63 165.195ZM137.305 164.73C136.685 165.278 136.041 165.836 135.414 166.412L136.766 167.886C137.375 167.327 137.991 166.793 138.63 166.228L137.305 164.73ZM135.414 166.412C129.822 171.542 124.017 176.576 118.603 181.938L120.011 183.359C125.389 178.031 131.117 173.068 136.766 167.885L135.414 166.412ZM118.599 181.942C111.538 189.018 105.023 196.554 99.1029 204.492L100.706 205.688C106.568 197.827 113.021 190.364 120.015 183.355L118.599 181.942ZM99.1122 204.48C93.7622 211.426 89.1417 218.84 85.3154 226.618L87.11 227.501C90.877 219.843 95.4269 212.543 100.697 205.7L99.1122 204.48ZM85.3123 226.624C83.1434 231.111 81.4464 235.801 79.6613 240.345L81.5228 241.077C83.3349 236.464 84.9878 231.891 87.113 227.494L85.3123 226.624ZM79.6646 240.337C77.1451 246.586 75.4328 253.095 74.5645 259.725L76.5475 259.985C77.3938 253.524 79.0627 247.179 81.5195 241.085L79.6646 240.337ZM74.5647 259.723C74.4283 260.748 74.3824 261.77 74.3554 262.76C74.328 263.767 74.3204 264.717 74.2654 265.679L76.2621 265.793C76.3194 264.791 76.3287 263.772 76.3547 262.815C76.3811 261.842 76.4251 260.905 76.5472 259.987L74.5647 259.723ZM74.2655 265.677C73.6963 275.248 74.9612 284.719 76.6058 294.053L78.5755 293.706C76.9377 284.411 75.707 275.126 76.262 265.795L74.2655 265.677ZM76.6062 294.055C77.1744 297.24 78.1308 300.487 78.8663 303.563L80.8115 303.098C80.0406 299.874 79.131 296.82 78.5751 293.704L76.6062 294.055ZM78.8706 303.581C78.9858 304.027 79.0062 304.489 78.9311 304.942L80.9041 305.269C81.025 304.541 80.9919 303.797 80.8072 303.081L78.8706 303.581ZM80.7571 304.562C79.8635 303.182 79.296 301.644 79.0881 300.051L77.1049 300.31C77.352 302.204 78.0259 304.023 79.0781 305.649L80.7571 304.562ZM79.0709 299.956C77.4686 293.005 76.3494 285.965 75.7202 278.879L73.728 279.056C74.3654 286.234 75.4991 293.365 77.1221 300.405L79.0709 299.956ZM75.7203 278.88C74.8607 269.098 75.0908 259.446 77.8204 250.031L75.8995 249.474C73.076 259.214 72.8564 269.136 73.728 279.055L75.7203 278.88ZM77.8203 250.032C79.313 244.891 81.3359 239.899 83.2379 234.791L81.3636 234.093C79.4885 239.129 77.4196 244.239 75.8996 249.474L77.8203 250.032ZM83.2382 234.79C86.0559 227.198 89.8174 219.939 94.4464 213.163L92.7949 212.035C88.0753 218.944 84.2382 226.347 81.3632 234.094L83.2382 234.79ZM94.4412 213.17C97.7986 208.351 101.336 203.676 105.053 199.105L103.502 197.843C99.7547 202.451 96.1875 207.164 92.8001 212.027L94.4412 213.17ZM105.053 199.106C108.972 194.293 113.079 189.599 117.372 185.024L115.913 183.655C111.588 188.265 107.451 192.994 103.502 197.843L105.053 199.106ZM117.374 185.021C123.067 178.916 129.227 173.203 135.805 167.929L134.554 166.368C127.901 171.703 121.671 177.481 115.911 183.657L117.374 185.021ZM135.812 167.923C136.614 167.267 137.423 166.636 138.252 165.979L137.009 164.412C136.196 165.056 135.363 165.707 134.547 166.374L135.812 167.923ZM136.987 165.961L137.324 166.244L138.611 164.713L138.274 164.43L136.987 165.961Z" fill="#6895FF" mask="url(#path-5-outside-1)"/>
<path d="M23.2767 120.387L23.2512 120.571C23.1436 121.343 22.9678 122.106 22.7256 122.851L22.7191 122.871L22.7109 122.891C19.0729 131.535 15.9533 140.362 13.3666 149.33L13.3649 149.336L13.3649 149.336C10.685 158.229 8.69893 167.263 6.7994 176.325C5.97193 180.273 5.4119 184.289 4.91777 188.307L4.91776 188.308C4.22078 193.968 3.54787 199.616 3.15546 205.282C2.729 211.573 2.49325 217.864 2.40343 224.22C2.34746 228.949 2.56017 233.639 2.84099 238.424C3.24196 245.037 4.13258 251.616 5.50648 258.114M23.2767 120.387L5.50648 258.114M23.2767 120.387L23.1767 120.232L23.0755 120.074L22.6026 119.338L22.2084 120.119C22.063 120.407 21.8988 120.707 21.7302 121.016C21.4013 121.617 21.0553 122.249 20.7973 122.887L20.7961 122.89C20.443 123.781 20.0696 124.677 19.6936 125.58C18.8873 127.516 18.0691 129.481 17.4135 131.477C14.8506 139.216 12.3081 146.962 9.9789 154.772L9.97886 154.772C8.75965 158.864 7.87075 163.051 6.99163 167.191C6.94987 167.387 6.90814 167.584 6.86639 167.78L6.86615 167.781C5.80991 172.809 4.75029 177.864 3.97221 182.952L3.97213 182.952C3.04868 189.033 2.33955 195.153 1.72085 201.259C1.1697 206.513 0.707201 211.779 0.594264 217.049C0.30505 226.508 0.681524 235.974 1.72124 245.387L1.72136 245.388C2.45205 251.884 3.61357 258.332 5.19917 264.693M23.2767 120.387L5.19917 264.693M5.50648 258.114C6.06858 260.771 6.63001 263.425 7.30366 266.414L7.60323 267.743L6.51499 266.923C5.78793 266.375 5.3113 265.577 5.19917 264.693M5.50648 258.114L5.19917 264.693" fill="#6895FF" stroke="#6895FF"/>
<path d="M281.053 284.792C286.364 281.838 291.596 278.79 296.802 275.702L296.804 275.701C298.736 274.545 300.636 273.345 302.53 272.15L302.749 272.011C304.717 270.769 306.679 269.534 308.673 268.351C313.681 265.381 318.719 262.455 323.758 259.529C325.683 258.411 327.609 257.292 329.533 256.171L329.537 256.169C330.06 255.857 330.565 255.517 331.056 255.186C331.191 255.095 331.325 255.005 331.459 254.916L331.892 254.627L331.586 254.206L331.372 253.912L331.195 253.668L330.896 253.711C330.503 253.768 330.118 253.869 329.751 254.014L329.723 254.025L329.697 254.039C328.832 254.503 327.989 255.002 327.154 255.497C326.957 255.613 326.761 255.729 326.566 255.844L326.565 255.844C324.228 257.225 321.878 258.593 319.526 259.962C314.164 263.083 308.794 266.208 303.554 269.503L303.553 269.504C295.803 274.393 287.944 279.103 279.873 283.507C270.037 288.873 260.21 294.251 250.439 299.713L250.439 299.713C245.597 302.423 240.81 305.206 236.027 307.986C234.021 309.153 232.016 310.318 230.008 311.478C223.315 315.301 216.63 319.152 209.952 323.031L209.938 323.039L209.924 323.048C209.563 323.29 209.223 323.559 208.908 323.852L208.224 324.486L209.13 324.705C209.367 324.762 209.614 324.774 209.856 324.74C210.097 324.706 210.33 324.627 210.541 324.506C211.503 323.963 212.464 323.421 213.426 322.878C217.859 320.378 222.292 317.878 226.717 315.349L226.718 315.348C229.866 313.542 233.004 311.724 236.142 309.905C241.696 306.687 247.248 303.47 252.85 300.323C257.523 297.7 262.228 295.131 266.938 292.56L267.246 292.392C271.853 289.878 276.465 287.362 281.053 284.792ZM281.053 284.792C281.053 284.792 281.052 284.792 281.052 284.793L280.809 284.356L281.054 284.792C281.053 284.792 281.053 284.792 281.053 284.792Z" fill="#6895FF" stroke="#6895FF"/>
<path d="M109.295 347.285L108.895 347.198L108.731 347.574L108.608 347.857L108.429 348.268L108.817 348.491C109.815 349.063 110.876 349.531 111.981 349.888L112.006 349.896L112.031 349.901C114.426 350.407 116.848 350.791 119.287 351.053L119.29 351.054C127.515 351.885 135.827 351.554 143.946 350.072C152.174 348.608 160.239 346.436 168.037 343.582C173.964 341.511 179.724 339.046 185.273 336.205L185.277 336.203C185.535 336.068 185.771 335.912 185.989 335.762C186.061 335.713 186.129 335.665 186.196 335.619C186.34 335.518 186.476 335.423 186.621 335.329L187.077 335.034L186.746 334.604L186.487 334.268L186.247 333.957L185.888 334.116C185.635 334.228 185.365 334.342 185.09 334.458C184.688 334.628 184.275 334.801 183.89 334.981L183.89 334.981L183.884 334.984C175.763 338.893 167.313 342.174 158.619 344.795L158.615 344.797C149.314 347.692 139.619 349.336 129.822 349.679L129.819 349.679C125.382 349.858 120.936 349.583 116.562 348.857C114.945 348.543 113.344 348.185 111.734 347.824C110.924 347.643 110.112 347.461 109.295 347.285Z" fill="#6895FF" stroke="#6895FF"/>
<path d="M22.3515 294.552L24.0672 295.262L22.9401 293.786C22.676 293.44 22.3854 293.113 22.0708 292.807L22.0646 292.801L22.0582 292.795C18.2477 289.337 15.1954 285.221 13.0697 280.677L13.0697 280.677L13.067 280.672C11.8837 278.222 10.9088 275.7 9.92467 273.154C9.49058 272.03 9.0547 270.903 8.59838 269.774C8.37328 268.825 7.89618 267.947 7.21458 267.221L6.51541 266.476L6.35615 267.485C6.27516 267.998 6.31111 268.521 6.4612 269.02L6.46105 269.02L6.465 269.032C6.60451 269.456 6.74233 269.883 6.88056 270.311C7.34948 271.762 7.8231 273.229 8.3831 274.66C10.6072 280.785 13.9649 286.495 18.3021 291.531C19.3545 292.849 20.75 293.888 22.3515 294.552Z" fill="#6895FF" stroke="#6895FF"/>
<path d="M317.789 235.215L317.336 234.931L317.083 235.402L317.072 235.423L316.897 235.748L317.156 236.011C317.716 236.579 318.314 237.112 318.946 237.608L318.957 237.616L318.969 237.624C326.464 242.84 333.958 248.035 341.453 253.209L341.465 253.217L341.476 253.225C341.97 253.526 342.484 253.799 343.013 254.04L343.373 254.204L343.615 253.893L343.885 253.546L344.211 253.128L343.774 252.827C343.478 252.623 343.186 252.383 342.869 252.123L342.86 252.115C342.546 251.857 342.209 251.581 341.851 251.335C335.525 247.001 329.181 242.681 322.817 238.375L322.817 238.375L322.807 238.368C321.632 237.616 320.427 236.864 319.225 236.113C318.745 235.813 318.266 235.514 317.789 235.215Z" fill="#6895FF" stroke="#6895FF"/>
<path d="M159.495 112.14L159.666 111.648L159.168 111.497L158.651 111.339L158.225 111.209L158.047 111.617C158.017 111.687 157.983 111.761 157.948 111.839C157.856 112.042 157.754 112.267 157.675 112.488C157.013 114.307 156.349 116.12 155.685 117.931C154.616 120.851 153.547 123.766 152.493 126.696C151.863 128.425 151.254 130.188 150.643 131.954C150.171 133.316 149.699 134.681 149.216 136.036C148.974 136.436 148.86 136.899 148.895 137.365C148.932 137.851 149.127 138.31 149.448 138.682L150.014 139.335L150.299 138.519L159.495 112.14Z" fill="#6895FF" stroke="#6895FF"/>
<path d="M301.802 237.153L302.07 236.697L301.599 236.455L301.374 236.339L301.079 236.188L300.825 236.401C300.605 236.585 300.399 236.785 300.21 236.998L300.196 237.015L300.183 237.032C296.292 242.263 292.42 247.515 288.567 252.787L288.561 252.796L288.555 252.804C288.413 253.017 288.401 253.253 288.394 253.408C288.392 253.459 288.39 253.51 288.389 253.564C288.385 253.706 288.38 253.867 288.36 254.089L288.234 255.533L289.224 254.474C289.481 254.199 289.7 253.976 289.896 253.776C289.962 253.708 290.026 253.643 290.088 253.579C290.328 253.332 290.54 253.107 290.728 252.861L290.728 252.861L290.732 252.856C291.624 251.658 292.52 250.463 293.415 249.27C295.402 246.619 297.385 243.973 299.325 241.299L299.325 241.299C299.989 240.38 300.551 239.372 301.097 238.395C301.333 237.972 301.565 237.555 301.802 237.153Z" fill="#6895FF" stroke="#6895FF"/>
<path d="M332.365 91.8807L332.268 91.9353L332.203 92.0262L332.18 92.0577L331.497 93.0133L332.659 92.843C333.536 92.7147 334.399 92.5194 335.241 92.2589L335.257 92.2541L335.273 92.2482C336.365 91.8299 337.457 91.3495 338.538 90.8743C339.247 90.5624 339.951 90.2528 340.647 89.9643C341.822 89.4781 343.003 88.9954 344.186 88.512C345.984 87.7776 347.786 87.0413 349.575 86.2878L349.599 86.2777L349.622 86.2651C350.21 85.9419 350.772 85.5775 351.302 85.1751L352.062 84.5988L351.156 84.3017C350.69 84.1489 350.192 84.1068 349.706 84.1785C349.239 84.2474 348.794 84.4195 348.409 84.6825C344.221 86.4296 340.031 88.1881 335.873 89.9886C334.943 90.3908 334.055 90.9059 333.21 91.3958C332.923 91.5621 332.642 91.7256 332.365 91.8807Z" fill="#6895FF" stroke="#6895FF"/>
<path d="M22.1112 120.224L22.0025 120.563L22.2881 120.777L22.4567 120.903L22.8383 121.188L23.1416 120.82C24.2576 119.469 24.93 117.949 25.4989 116.443C25.6525 116.036 25.7978 115.633 25.9415 115.234C26.3376 114.134 26.7221 113.067 27.2384 112.042L26.3796 111.535C24.5304 114.23 23.0934 117.154 22.1112 120.224Z" fill="#6895FF" stroke="#6895FF"/>
<path d="M200.657 232.159L201.006 232.648L201.403 232.238C201.868 232.06 202.308 231.826 202.712 231.543L202.742 231.522L202.769 231.497C204.193 230.145 205.56 228.742 206.918 227.347L206.919 227.347C207.47 226.79 207.989 226.199 208.494 225.623C208.639 225.458 208.783 225.294 208.926 225.133L209.283 224.731L208.855 224.404L208.484 224.121L208.131 223.851L207.821 224.17L200.845 231.376L200.246 231.583L200.635 232.128L200.657 232.159ZM201.036 231.842V231.842Z" fill="#6895FF" stroke="#6895FF"/>
<path d="M161.477 173.291L162.034 172.772L161.39 172.491C160.761 171.864 159.558 171.142 158.352 170.592C157.703 170.296 157.029 170.039 156.407 169.866C155.797 169.696 155.192 169.594 154.698 169.645L152.813 169.844L154.551 170.601L160.804 173.326L161.096 173.646L161.466 173.302L161.477 173.291Z" fill="#6895FF" stroke="#6895FF"/>
<path d="M232.754 194.029L233.032 193.569L232.554 193.325L232.082 193.083L231.69 192.883L231.441 193.246C230.324 194.883 229.321 196.586 228.439 198.345L228.218 198.786L228.656 199.013L229.061 199.223L229.476 199.438L229.719 199.038L232.754 194.029Z" fill="#6895FF" stroke="#6895FF"/>
<path d="M223.592 204.996L223.318 205.372L223.674 205.672L224.022 205.966L224.386 206.273L224.71 205.924C226.074 204.462 227.232 202.842 228.159 201.104L228.377 200.694L227.985 200.446L227.636 200.225L227.24 199.975L226.964 200.354L223.592 204.996Z" fill="#6895FF" stroke="#6895FF"/>
<path d="M208.486 223.335L208.342 223.481V223.687V224.562V225.547L209.137 224.966C209.695 224.557 210.737 223.606 211.704 222.634C212.191 222.144 212.668 221.641 213.064 221.187C213.452 220.743 213.788 220.319 213.97 219.994L213.97 219.994L213.974 219.986L214.913 218.236L214.117 217.648L208.486 223.335Z" fill="#6895FF" stroke="#6895FF"/>
<path d="M223.938 207.204L224.279 206.742L223.775 206.468L223.37 206.247L223.042 206.069L222.778 206.332C221.972 207.135 221.297 208.047 220.777 209.037L220.56 209.451L220.958 209.696L221.352 209.938L221.743 210.178L222.015 209.808L223.938 207.204Z" fill="#6895FF" stroke="#6895FF"/>
<path d="M216.142 217.151L216.438 216.794L216.104 216.472L215.767 216.146L215.439 215.829L215.093 216.127C214.28 216.828 213.608 217.662 213.112 218.591L212.91 218.97L213.254 219.227L213.591 219.479L213.969 219.761L214.273 219.401C214.713 218.88 215.149 218.352 215.581 217.828C215.769 217.601 215.955 217.375 216.142 217.151Z" fill="#6895FF" stroke="#6895FF"/>
<path d="M299.569 51.0934L299.868 51.6531L300.126 51.4239C300.651 51.5937 301.139 51.571 301.616 51.3932C302.155 51.1925 302.657 50.8009 303.163 50.3795L304.05 49.6409L302.904 49.499C302.324 49.4271 301.734 49.4777 301.176 49.6474C300.733 49.7824 300.318 49.9905 299.951 50.2621L298.849 49.7466L299.558 51.0724L299.569 51.0934Z" fill="#6895FF" stroke="#6895FF"/>
<path d="M317.266 236.121L317.628 236.339L317.903 236.018L317.948 235.965L318.205 235.666L317.974 235.346C317.324 234.45 316.427 233.74 315.383 233.29L315.025 233.136L314.788 233.446L314.507 233.813L314.168 234.257L314.647 234.546L317.266 236.121Z" fill="#6895FF" stroke="#6895FF"/>
<path d="M144.074 171.585L144.869 170.098L143.392 170.911L143.369 170.924C142.329 171 141.337 171.381 140.534 172.019L140.211 172.275L140.401 172.641L140.592 173.009L140.828 173.463L141.277 173.216L143.649 171.911L143.904 171.902L144.04 171.648L144.074 171.585Z" fill="#6895FF" stroke="#6895FF"/>
<path d="M160.783 172.57L160.118 173.192L160.941 173.405C161.679 173.949 162.533 174.336 163.444 174.539L163.865 174.633L164.019 174.229L164.188 173.787L164.387 173.265L163.846 173.125L161.386 172.487L161.104 172.27L160.794 172.56L160.783 172.57Z" fill="#6895FF" stroke="#6895FF"/>
<path d="M201.384 231.484L200.542 230.696V231.659L199.086 232.909L199.53 233.774C199.978 233.665 200.467 233.507 200.851 233.221C201.195 232.965 201.447 232.608 201.52 232.137L201.814 231.886L201.406 231.505L201.384 231.484Z" fill="#6895FF" stroke="#6895FF"/>
<path d="M160.263 108.291L159.631 107.702L159.435 108.542C159.431 108.556 159.428 108.569 159.425 108.583L158.505 110.253L158.214 110.783L158.789 110.97L159.306 111.138L159.83 111.308L159.949 110.77C160.082 110.169 160.224 109.559 160.367 108.945L160.382 108.918L160.57 108.577L160.285 108.312L160.263 108.291Z" fill="#6895FF" stroke="#6895FF"/>
<path d="M159.603 109.044L160.305 109.699L160.439 108.748L160.442 108.727C160.533 108.537 160.621 108.348 160.711 108.158C160.839 107.885 160.968 107.611 161.104 107.329L161.371 106.773L160.772 106.627L160.299 106.511L159.762 106.38L159.685 106.927L159.473 108.436C159.472 108.438 159.471 108.439 159.47 108.441L159.312 108.772L159.58 109.023L159.603 109.044Z" fill="#6895FF" stroke="#6895FF"/>
<path d="M217.999 213.561L217.549 213.28L217.296 213.746L217.289 213.759L216.387 214.531L215.883 214.962L216.436 215.328L216.819 215.58L217.273 215.881L217.533 215.402L218.079 214.399L218.094 214.386L218.612 213.943L218.033 213.582L217.999 213.561Z" fill="#6895FF" stroke="#6895FF"/>
<path d="M218.464 213.424L218.908 213.702L219.164 213.244L219.172 213.23L220.028 212.51L220.518 212.098L219.999 211.722L219.651 211.47L219.196 211.14L218.921 211.631L218.389 212.583L218.372 212.597L217.846 213.04L218.43 213.403L218.464 213.424Z" fill="#6895FF" stroke="#6895FF"/>
<path d="M57.6744 50.2343L58.434 50.8607L59.4345 50.0089L59.8989 49.6135L59.4202 49.2357L59.0605 48.9518L58.6021 48.59L58.3152 49.0985L57.6744 50.2343Z" fill="#6895FF" stroke="#6895FF"/>
<path d="M58.4876 50.8061L58.7459 50.5086L58.5171 50.1879L58.4947 50.1564L58.1204 49.6318L57.7052 50.1246L56.0863 52.0464L56.8463 52.6964L58.4876 50.8061Z" fill="#6895FF" stroke="#6895FF"/>
</svg>
