<svg width="352" height="353" viewBox="0 0 352 353" fill="none" xmlns="http://www.w3.org/2000/svg">
<mask id="path-1-outside-1" maskUnits="userSpaceOnUse" x="0" y="0.901367" width="352" height="308" fill="black">
<rect fill="white" y="0.901367" width="352" height="308"/>
<path d="M307.822 228.788C305.893 231.769 304.071 234.804 302.013 237.707C298.239 243.028 294.323 248.282 290.442 253.547C290.052 254.077 289.721 254.784 288.774 254.817C288.301 254.055 288.904 253.614 289.259 253.128C292.808 248.326 296.358 243.569 299.907 238.778C303.906 233.197 307.347 227.285 310.188 221.117C312.554 216.05 314.92 211.039 317.061 205.906C318.529 202.229 319.757 198.473 320.741 194.658C322.385 188.454 323.947 182.229 325.213 175.948C326.207 170.992 326.81 165.947 327.402 160.925C327.828 157.216 328.04 153.485 328.171 149.765C328.297 142.933 327.714 136.105 326.431 129.377C325.303 122.236 323.598 115.185 321.332 108.283C320.421 105.645 319.321 103.073 318.221 100.225C316.565 100.843 315.133 101.329 313.749 101.925C306.023 105.236 298.369 108.548 290.584 111.738C281.12 115.69 271.655 119.616 262.19 123.516C259.718 124.543 257.257 125.624 254.749 126.585C253.163 127.181 252.3 128.064 252.513 129.731C252.607 130.415 252.513 131.121 252.513 131.817C252.517 136.943 252.034 142.059 251.069 147.105C249.902 154.355 248.122 161.508 245.745 168.497C244.267 172.912 242.338 177.328 240.445 181.622C239.025 184.845 237.476 188.013 235.713 191.093C233.477 195.066 231.123 198.996 228.614 202.815C224.27 209.238 219.463 215.378 214.228 221.194C210.719 225.21 206.809 228.906 202.551 232.232C199.262 234.771 196.08 237.454 192.625 239.783C188.637 242.516 184.494 245.048 180.215 247.366C173.656 250.958 166.683 253.847 159.428 255.976C157.736 256.451 156.044 256.903 154.341 257.334C153.725 257.477 153.063 257.51 152.424 257.598L152.282 257.212C152.603 256.976 152.957 256.783 153.335 256.638C159.054 255.256 164.631 253.409 170.005 251.119C172.536 250.015 174.95 248.757 177.411 247.543C179.268 246.626 181.09 245.666 182.948 244.739C186.622 242.702 190.118 240.399 193.406 237.851C197.759 234.928 201.783 231.599 205.414 227.916C209.165 223.921 212.856 219.881 216.358 215.708C222.291 208.727 227.575 201.286 232.152 193.466C234.4 189.591 236.103 185.43 237.961 181.324C239.44 178.012 240.776 174.701 242.196 171.455C242.292 171.219 242.471 171.02 242.705 170.892C242.392 172.702 241.823 174.466 241.013 176.136C240.682 176.952 240.504 177.825 240.256 178.663L239.546 179.834L239.889 179.966L240.256 178.663C240.651 178.08 241.011 177.475 241.332 176.853C243.955 170.738 246.063 164.442 247.638 158.022C249.227 152.129 250.311 146.127 250.88 140.073C251.117 136.928 251.377 133.782 251.613 130.625C251.637 130.375 251.637 130.124 251.613 129.874C251.448 128.472 250.986 128.174 249.626 128.77C245.84 130.316 242.062 131.887 238.292 133.484C229.159 137.358 220.037 141.21 210.892 145.14C203.233 148.393 195.575 151.634 187.916 154.865C179.694 158.32 171.436 161.72 163.19 165.142L153.725 169.093C154.089 169.428 154.485 169.731 154.908 169.998C157.499 171.246 160.102 172.482 162.729 173.674C164.027 174.311 165.168 175.194 166.077 176.268C164.503 176.621 163.592 175.705 162.528 175.275C161.463 174.844 160.398 174.171 159.321 173.63C158.245 173.089 157.251 172.67 156.234 172.173C155.216 171.676 154.092 171.124 152.933 170.561L150.933 172.835L150.425 172.592L151.075 170.131C147.443 171.058 144.296 172.835 140.7 173.674C141.339 172.736 141.339 172.747 143.362 171.908L146.319 170.639L149.869 169.137C146.997 167.508 144.009 166.066 140.924 164.821C140.132 166.786 139.363 168.585 138.677 170.418C137.659 173.166 136.701 175.937 135.695 178.697C135.447 179.37 135.317 180.198 134.24 180.363C133.625 179.657 134.098 179.006 134.311 178.398C135.494 175.219 136.677 172.062 137.86 168.883C138.116 168.269 138.193 167.603 138.085 166.952C136.571 168.177 134.985 169.325 133.566 170.639C128.644 175.164 123.628 179.635 118.907 184.359C115.121 188.145 111.608 192.174 108.165 196.236C102.435 202.822 97.2425 209.8 92.6311 217.11C89.1363 222.62 86.1367 228.391 83.6634 234.363C80.9896 241.14 78.1621 247.874 76.8133 255.016C76.2336 258.051 75.9733 261.153 75.6303 264.233C75.3194 266.49 75.1968 268.768 75.2635 271.043C75.5711 275.459 75.4291 279.874 76.2809 284.289C77.1328 288.705 77.677 293.12 78.5051 297.535C78.9547 299.964 79.6882 302.337 80.2916 304.743C80.4625 305.112 80.5377 305.513 80.511 305.914C80.4842 306.315 80.3564 306.704 80.1378 307.05C79.7871 306.643 79.4892 306.198 79.2505 305.726C78.6779 304.104 78.2039 302.452 77.8308 300.78C76.8607 295.67 75.9733 290.559 75.1333 285.437C74.1014 279.372 73.7052 273.228 73.9503 267.091C74.1611 260.072 75.4643 253.119 77.8189 246.45C79.8538 240.931 81.8414 235.29 84.2549 229.892C87.5729 222.262 91.8417 215.023 96.973 208.323C100.108 204.272 103.078 200.1 106.438 196.181C109.987 191.92 113.867 187.814 117.76 183.763C121.025 180.385 124.421 177.14 127.934 173.939C131.14 171.036 134.583 168.42 137.919 165.583C138.404 165.186 138.854 164.733 139.505 164.126C137.86 163.254 136.488 162.47 135.056 161.786C125.509 157.249 115.914 152.779 106.39 148.187C95.2457 142.811 84.1602 137.314 73.0275 131.894C65.3966 128.185 57.7302 124.509 50.0757 120.856C44.0657 117.942 38.0556 114.994 32.0337 112.025C29.6676 110.921 29.8805 111.076 28.307 112.864C24.32 117.39 22.924 122.986 20.7235 128.229C16.3263 139.071 12.768 150.193 10.0758 161.51C7.88036 170.13 6.16653 178.851 4.94119 187.638C4.21951 192.958 3.75811 198.323 3.1429 203.654C2.5557 208.812 2.28708 213.998 2.3384 219.185C2.3384 220.951 1.95983 222.717 2.01898 224.484C2.18461 229.407 2.51588 234.319 2.74066 239.242C3.14286 246.382 4.1117 253.484 5.6392 260.491C7.07287 267.85 9.5391 275.002 12.9743 281.761C15.0299 286.049 17.9225 289.941 21.5043 293.241C22.1449 293.695 22.5696 294.365 22.6874 295.107C21.7764 295.283 21.3623 294.621 20.8418 294.191C18.1224 291.79 15.8159 289.012 14.0036 285.956C10.5979 280.4 8.02249 274.436 6.34904 268.228C4.22286 260.877 2.77813 253.37 2.03081 245.788C1.49842 240.577 1.27363 235.323 1.11983 230.08C0.966027 225.08 0.954197 220.079 1.11983 215.079C1.28546 210.079 1.71136 204.857 2.24375 199.769C2.78797 194.481 3.42684 189.194 4.32598 183.962C5.50906 177.085 6.83412 170.241 8.36029 163.431C10.8214 152.394 14.1307 141.538 18.2627 130.945C20.6288 124.94 23.4091 119.101 26 113.184L27.467 109.873C26.8755 109.508 26.4023 109.166 25.8935 108.912C22.8294 107.4 19.7415 105.954 16.7128 104.398C16.2744 104.079 15.7547 103.873 15.2049 103.8C14.6551 103.726 14.0942 103.788 13.5777 103.978C13.0571 103.128 12.5957 102.4 12.0397 101.517C12.3828 101.517 12.6667 101.439 12.856 101.517C13.9444 101.991 14.5951 101.517 15.2221 100.744C18.7714 96.5604 22.3206 92.4099 25.8699 88.2595L49.3422 60.8183C50.8092 59.0963 52.2526 57.3633 53.7433 55.5751C52.3354 54.1732 50.194 54.0187 48.6323 52.3408C49.1683 52.3311 49.7038 52.3755 50.2295 52.4733C50.9749 52.7603 51.6965 53.1245 52.43 53.4667C54.6897 54.5043 54.7962 54.4602 56.4407 52.5395C57.5646 51.1928 58.7122 49.8572 59.8598 48.5326C60.2265 48.1131 60.5696 47.5612 61.6226 47.9696C59.9781 50.4753 57.6238 52.3849 56.0029 55.0452C56.7128 55.4094 57.3398 55.7517 57.9905 56.0497C63.9059 58.8093 69.8213 61.5688 75.6421 64.3064C83.6397 68.0704 91.6492 71.8234 99.5876 75.6869C100.277 76.0724 101.06 76.2879 101.863 76.313C102.666 76.3381 103.463 76.172 104.178 75.8304C107.905 74.1636 111.679 72.5189 115.441 70.9625C116.305 70.5872 117.18 70.245 118.032 69.8587C118.683 69.5827 119.321 69.2626 120.138 68.8762C119.906 68.6388 119.648 68.4243 119.369 68.236C114.289 65.9621 109.206 63.6993 104.119 61.4475C94.3939 57.0984 84.665 52.7493 74.9322 48.4001C74.1269 47.9385 73.2084 47.6768 72.2641 47.6401C71.3197 47.6034 70.381 47.7929 69.5374 48.1904C67.92 48.855 66.2559 49.4155 64.5566 49.8682C64.9589 48.7644 65.7397 48.7644 66.2602 48.4664C67.8574 47.6937 69.8095 47.5723 70.9926 46.0379C71.0828 45.9412 71.2104 45.8816 71.3475 45.8723C75.5829 45.5964 79.1677 43.5102 83.0008 42.1745C90.9511 39.3929 98.8423 36.4898 106.733 33.6088C112.223 31.5998 117.689 29.5135 123.166 27.4604C123.282 27.3956 123.386 27.3136 123.474 27.2176C122.839 26.3531 121.905 25.7175 120.829 25.4163C119.753 25.115 118.599 25.1664 117.559 25.5618L81.2972 38.4987C74.3249 40.964 67.3408 43.4145 60.3448 45.8503C59.6941 46.0711 59.008 46.2035 58.3454 46.3801L58.1443 45.9165C58.6128 45.62 59.103 45.3544 59.6113 45.1217C65.4203 43.0024 71.2292 40.872 77.0618 38.7857C85.4853 35.7833 93.9443 32.8361 102.38 29.8558L115.89 25.0651C116.447 24.8664 117.003 24.6457 117.854 24.3145L115.488 22.3607C116.016 22.4555 116.528 22.6113 117.014 22.8243C117.702 23.2299 118.49 23.4633 119.302 23.5019C120.115 23.5406 120.924 23.3832 121.652 23.0451C125.887 21.4997 130.147 20.0206 134.406 18.5304L165.071 7.74596C166.976 7.07263 168.881 6.39932 170.774 5.7039C171.314 5.46654 171.839 5.20117 172.347 4.90911L169.236 3.13195C169.741 2.92574 170.297 2.84777 170.845 2.90592C171.393 2.96406 171.916 3.15626 172.359 3.46309C173.062 3.84658 173.86 4.0542 174.674 4.0658C175.489 4.07741 176.293 3.89259 177.008 3.52932C178.251 3.03259 179.505 2.54689 180.794 2.13848C181.556 1.90168 182.368 1.8411 183.16 1.96189C181.386 3.56245 178.842 3.71699 176.547 5.07471C178.369 5.86947 179.86 6.53173 181.374 7.17195C186.816 9.47528 192.254 11.7712 197.689 14.0599L216.168 21.853C218.393 22.7802 220.617 23.7184 222.829 24.7008C223.28 24.9159 223.778 25.028 224.284 25.028C224.79 25.028 225.289 24.9159 225.74 24.7008C232.175 22.0001 238.615 19.3104 245.059 16.6318C248.467 15.2189 251.878 13.8133 255.293 12.4152C255.895 12.2162 256.512 12.0576 257.138 11.9405C256.784 13.0443 255.955 13.2651 255.364 13.5411C250.844 15.4397 246.313 17.2941 241.794 19.1817C236.967 21.2054 232.148 23.2401 227.337 25.2859C227.039 25.4237 226.75 25.5785 226.473 25.7495C227.656 26.8533 271.43 45.4418 275.086 46.5015L275.642 45.5412C275.86 45.5832 276.072 45.6538 276.269 45.7509C276.884 46.2476 277.452 46.7775 278.091 47.2632C279.63 48.5088 281.381 49.505 283.273 50.2104C285.982 51.2038 288.608 52.418 291.259 53.5219C291.812 53.7778 292.424 53.9054 293.042 53.8938C293.66 53.8823 294.265 53.732 294.808 53.4557C296.653 52.6609 298.546 51.9544 300.439 51.248C301.115 50.9892 301.838 50.8543 302.569 50.8506C301.894 52.3077 300.368 52.4953 299.114 53.0583C297.86 53.6212 296.405 54.1622 294.595 54.8796C296.298 55.6634 297.635 56.2263 298.901 56.8886C300.167 57.5509 301.646 57.5288 302.45 58.721L302.261 59.1625C301.527 59.0003 300.804 58.7976 300.096 58.5554C298.286 57.8379 296.488 57.0984 294.737 56.2705C293.951 55.8685 293.045 55.7218 292.16 55.8537C291.275 55.9856 290.463 56.3886 289.851 56.999C290.631 57.7606 291.306 58.5112 292.087 59.2066C294.145 60.9507 296.275 62.6064 298.322 64.3615C300.83 66.4919 303.243 68.7106 305.739 70.8521C309.939 74.4395 314.163 77.9939 318.387 81.5593C320.043 82.9611 321.699 84.352 323.344 85.7759C325.71 87.8401 328.076 89.9042 330.442 92.0236C330.748 92.3947 331.189 92.6482 331.682 92.7357C332.175 92.8232 332.685 92.7387 333.116 92.4983C338.286 90.2906 343.503 88.0829 348.709 85.9525C349.457 85.6846 350.219 85.4525 350.992 85.2571C351.087 86.4382 350.294 86.5596 349.75 86.8025C346.485 88.1933 343.196 89.551 339.907 90.9308L325.438 97.0129C324.893 97.2447 324.397 97.5538 323.604 97.9733L326.136 100.391C324.61 100.744 323.994 99.8387 323.214 99.3641C322.817 99.0081 322.293 98.8011 321.743 98.7827C321.193 98.7644 320.655 98.936 320.232 99.2647C319.957 99.3951 319.748 99.6203 319.649 99.8924C319.549 100.165 319.568 100.462 319.7 100.722C319.948 101.307 320.161 101.903 320.445 102.477C322.296 106.49 323.714 110.664 324.681 114.939C326.291 121.155 327.554 127.444 328.466 133.782C329.439 140.17 329.764 146.631 329.436 153.077C328.699 166.034 326.578 178.891 323.107 191.457C321.619 197.46 319.69 203.361 317.334 209.118C316.151 211.812 314.885 214.472 313.595 217.121C311.832 220.742 310.046 224.351 308.224 227.972C308.098 228.263 307.991 228.562 307.904 228.866L307.822 228.788ZM164.113 106.053C165.095 106.55 165.71 106.892 166.349 107.157C171.389 109.519 176.429 111.859 181.457 114.233C182.131 114.542 183.03 114.685 183.231 115.657C182.202 116.164 181.457 115.557 180.723 115.204C175.104 112.555 169.484 109.862 163.864 107.19C163.226 106.892 162.563 106.66 161.782 106.34C161.451 107.146 161.191 107.72 160.978 108.316C159.313 112.996 157.653 117.68 155.997 122.368C153.264 130.095 150.543 137.888 147.775 145.626C146.142 150.196 144.426 154.732 142.782 159.291C142.522 160.009 141.906 160.726 142.439 161.631C144.249 161.3 145.101 159.424 147.171 159.126C145.763 161.101 143.314 161.72 142.297 163.74C142.727 164.084 143.182 164.401 143.657 164.689C145.633 165.66 147.633 166.621 149.632 167.559C151.821 168.574 151.998 168.663 153.122 166.632C157.689 158.441 162.173 150.196 166.668 141.972C169.449 136.894 172.181 131.806 174.95 126.728C175.033 126.563 175.281 126.474 175.447 126.342C169.046 140.118 161.9 153.485 154.388 167.095C155.157 166.874 155.571 166.808 155.89 166.665C158.126 165.76 160.374 164.854 162.599 163.938C172.714 159.766 182.841 155.626 192.945 151.432C200.788 148.209 208.467 144.897 216.168 141.652C224.734 137.987 233.276 134.267 241.853 130.614C246.585 128.605 251.247 126.651 255.955 124.697C263.397 121.628 270.862 118.593 278.304 115.502C284.125 113.085 289.933 110.623 295.742 108.173C302.549 105.317 309.348 102.451 316.139 99.5738C316.547 99.3593 316.942 99.1234 317.322 98.8674C316.221 96.2292 315.015 93.9222 312.412 92.2444C306.248 88.3258 300.262 84.1643 294.204 80.1022C293.743 79.7931 293.353 79.4068 292.927 79.0646C293.162 79.0036 293.41 78.9918 293.651 79.03C293.892 79.0681 294.122 79.1553 294.323 79.2854C296.156 80.4775 297.978 81.6917 299.8 82.8949C306.749 87.4354 313.694 91.9758 320.634 96.5162C320.974 96.7765 321.391 96.9331 321.829 96.9647C322.267 96.9963 322.705 96.9014 323.083 96.6928C324.964 95.8208 326.905 95.0481 328.798 94.2092C329.232 93.9684 329.647 93.6991 330.04 93.4034C329.401 92.7852 328.928 92.2995 328.384 91.8138C326.171 89.9484 323.912 88.127 321.711 86.2947C316.64 81.9456 311.568 77.5634 306.497 73.1481C300.924 68.3464 295.328 63.5557 289.803 58.6989C289.399 58.2354 288.836 57.9163 288.208 57.7957C287.581 57.675 286.928 57.7601 286.361 58.0366C283.994 59.03 281.474 59.9242 279.037 60.8845C272.223 63.5558 265.42 66.2601 258.605 68.9425C249.93 72.3202 241.297 75.6979 232.708 79.0756C231.894 79.4519 231.104 79.872 230.342 80.334C232.045 81.2061 233.335 81.8573 234.624 82.5417C235.914 83.2261 237.204 83.9325 238.517 84.6169C239.83 85.3013 241.179 85.8863 242.433 86.6259C243.687 87.3655 245.225 87.5089 246.124 88.9218C245.739 89.0167 245.335 89.0241 244.946 88.9434C244.557 88.8628 244.194 88.6964 243.888 88.4582C239.499 86.2506 235.098 83.9546 230.744 81.6144C230.186 81.2645 229.541 81.056 228.871 81.0096C228.201 80.9631 227.529 81.0803 226.923 81.3495C219.627 84.2931 212.315 87.1815 204.988 90.0147C192.984 94.7096 180.964 99.3935 168.928 104.066C167.473 104.64 166.029 105.281 164.113 106.053ZM30.2354 109.63C30.4445 109.833 30.6699 110.021 30.9098 110.193L53.8024 121.363C63.3617 126.014 72.9249 130.661 82.4921 135.305C92.3117 140.04 102.155 144.732 111.986 149.456L132.099 159.104C134.216 160.119 136.31 161.168 138.44 162.139C139.753 162.724 140.013 162.592 140.558 161.322C141.007 160.218 141.445 159.192 141.835 158.121C145.329 148.555 148.808 138.966 152.27 129.355C154.81 122.283 157.342 115.2 159.866 108.106C160.717 105.733 160.706 105.733 158.41 104.64C147.274 99.3862 136.133 94.1319 124.988 88.8777C118.631 85.8826 112.262 82.9096 105.882 79.9587C103.657 78.9211 103.515 78.9873 102.332 81.0625C101.469 82.641 100.641 84.2416 99.7533 85.798C95.1235 93.9664 90.4897 102.127 85.8521 110.281C82.9062 115.469 79.9367 120.69 77.05 125.878C76.6613 126.505 76.2388 127.113 75.784 127.699L75.3108 127.424C79.8065 119.321 84.1484 111.131 88.8334 103.139C92.1934 97.4103 101.847 80.036 102.167 78.325C99.8952 77.5413 98.2507 79.5393 96.2513 79.7269L96.0857 79.3516L100.286 77.2764C97.3043 75.8414 94.6779 74.5499 92.0041 73.2916L63.3144 59.7365C61.0192 58.6326 58.7004 57.595 56.4052 56.5022C56.2251 56.3852 56.0208 56.3046 55.8054 56.2656C55.5899 56.2266 55.3681 56.2301 55.1542 56.2758C54.9402 56.3215 54.7389 56.4085 54.5632 56.5311C54.3874 56.6538 54.2411 56.8094 54.1337 56.9879C51.8858 59.6923 49.5788 62.3416 47.3191 65.0239C42.5868 70.5798 37.8781 76.1358 33.1931 81.6917C27.8456 87.9836 22.4626 94.2423 17.1033 100.534C16.5709 101.152 16.1095 101.826 15.4588 102.687C19.8598 104.64 23.7403 106.881 27.9403 108.658L29.6794 106.616L30.0461 107.974C30.8506 107.279 30.969 106.109 32.3058 105.932L30.2354 109.63ZM169.898 49.4267C170.316 49.7747 170.759 50.0955 171.223 50.387C176.228 52.9369 181.232 55.4536 186.248 57.9925L202.338 66.1388C206.621 68.3464 210.927 70.4437 215.186 72.6845C215.669 72.9638 216.22 73.1236 216.787 73.1487C217.355 73.1738 217.919 73.0635 218.428 72.828C224.343 70.4658 230.259 68.1698 236.257 65.8628L266.118 54.2615C266.544 54.0959 266.911 53.842 267.621 53.4667C266.757 53.0804 266.177 52.8044 265.586 52.5616C258.298 49.618 251.01 46.6744 243.722 43.7309C234.021 39.8012 224.324 35.8569 214.63 31.8978C214.118 31.6588 213.553 31.5344 212.98 31.5344C212.407 31.5344 211.842 31.6588 211.33 31.8978C207.579 33.5205 203.782 35.0548 200.008 36.6222L171.211 48.6872C170.774 48.9097 170.351 49.1567 169.945 49.4267H169.898ZM166.408 49.5481L166.491 48.9962C165.887 48.643 165.308 48.2566 164.669 47.8924C162.646 46.8658 160.611 45.8613 158.588 44.8237L142.817 36.7216C138.416 34.5139 134.015 32.229 129.638 29.944C125.26 27.6591 126.207 27.6702 121.356 29.4142C112.507 32.6043 103.705 35.9378 94.8671 39.1721C88.7979 41.3797 82.7169 43.5874 76.6477 45.7951C75.926 46.06 75.2398 46.3801 74.1396 46.8989C75.4291 47.517 76.2573 47.9255 77.0973 48.3118C80.3389 49.7836 83.5805 51.2333 86.8222 52.6609C93.6249 55.6634 100.451 58.6327 107.254 61.6461C111.592 63.5815 115.93 65.5353 120.268 67.5075C120.754 67.7934 121.307 67.9648 121.88 68.0071C122.453 68.0494 123.029 67.9613 123.557 67.7503C129.472 65.2041 135.388 62.6911 141.303 60.2112C147.218 57.7496 153.075 55.3212 158.955 52.8596C161.451 51.7337 163.947 50.6299 166.479 49.5481H166.408ZM123.616 68.7327C124.491 69.1853 125.119 69.5385 125.769 69.8366C131.685 72.4637 137.529 75.0577 143.385 77.6958C152.187 81.6476 161.001 85.5772 169.744 89.6283C170.564 90.0587 171.484 90.2958 172.424 90.3188C173.364 90.3419 174.296 90.1503 175.139 89.7607C178.972 88.1491 182.888 86.7031 186.769 85.1908L214.169 74.4947C214.481 74.3237 214.775 74.124 215.044 73.8987C214.571 73.5896 214.275 73.3468 213.932 73.1702C210.383 71.3157 206.834 69.4613 203.285 67.651C198.292 65.1011 193.276 62.5844 188.283 60.0235C182.281 56.9548 176.295 53.8604 170.324 50.7403C169.777 50.4282 169.153 50.2539 168.512 50.2346C167.871 50.2152 167.236 50.3514 166.668 50.6298C161.356 52.8375 156.021 55.0452 150.709 57.3191L124.917 68.1256C124.551 68.2471 124.219 68.4347 123.616 68.7327ZM211.164 30.7057C210.099 30.1979 209.413 29.8226 208.68 29.5246L188.709 21.4335C182.06 18.7402 175.388 16.0689 168.751 13.3314C168.236 13.1052 167.675 12.9879 167.106 12.9879C166.537 12.9879 165.976 13.1052 165.462 13.3314C160.623 15.1527 155.737 16.8857 150.874 18.6629L128.325 26.9195C127.826 27.1476 127.344 27.4057 126.881 27.6922C127.627 28.1448 128.064 28.487 128.644 28.7961L140.475 34.7788C149.289 39.2493 158.115 43.6978 166.905 48.1904C167.299 48.4353 167.755 48.5813 168.227 48.6141C168.7 48.647 169.173 48.5657 169.602 48.3781C171.969 47.3736 174.335 46.4353 176.701 45.4419C181.646 43.3556 186.568 41.2252 191.525 39.15C197.275 36.7437 203.048 34.3815 208.81 31.9862C209.437 31.6109 210.111 31.2024 211.152 30.7057H211.164ZM162.232 105.159C164.148 104.905 225.172 81.0073 226.852 79.8925C226.13 79.4399 225.503 78.9984 224.817 78.6451C222.675 77.5413 220.475 76.5368 218.369 75.3336C217.959 75.0565 217.473 74.8947 216.968 74.8673C216.462 74.84 215.959 74.9482 215.518 75.1791C215.086 75.3674 214.644 75.5332 214.193 75.6758L177.742 89.827C176.618 90.2685 175.541 90.8094 174.406 91.2288C172.335 91.9795 170.241 92.6749 168.147 93.3703C168.029 93.3703 167.828 93.2047 167.378 92.9619L170.714 91.1737C170.04 90.8425 169.638 90.6328 169.212 90.4451L144.58 79.5282C137.482 76.3639 130.383 73.1812 123.285 69.9801C122.807 69.7461 122.275 69.6238 121.735 69.6238C121.195 69.6238 120.663 69.7461 120.185 69.9801C115.453 71.9339 110.72 73.8545 105.988 75.8193C105.323 76.1526 104.679 76.5212 104.06 76.9232C104.284 78.1594 105.243 78.3471 106 78.7004C114.226 82.6079 122.449 86.5044 130.667 90.3899C139.919 94.8053 149.178 99.1875 158.446 103.537C159.203 103.89 160.008 104.144 160.635 104.387C161.889 103.592 161.427 102.002 163.178 101.351L162.232 105.159ZM286.633 56.5906C286.503 56.2705 286.491 56.0607 286.361 55.9393C283.083 52.8265 279.901 49.5922 275.275 48.1462C274.96 48.0296 274.652 47.897 274.352 47.7489C266.39 44.3711 258.428 40.9713 250.466 37.6046C242.504 34.2379 234.258 30.8161 226.177 27.3611C225.615 27.0732 224.988 26.9123 224.347 26.8912C223.706 26.8701 223.069 26.9894 222.486 27.2396C220.392 28.1558 218.286 29.0278 216.204 29.944C215.761 30.1781 215.337 30.4438 214.938 30.7388C215.435 30.9706 215.719 31.1251 216.015 31.2465C220.25 32.9464 224.497 34.6243 228.721 36.3353L254.275 46.7334C258.807 48.5768 263.385 50.3539 267.905 52.2525C268.453 52.5159 269.062 52.6533 269.679 52.6533C270.296 52.6533 270.905 52.5159 271.454 52.2525C272.554 51.7668 273.69 51.3253 274.826 50.9169C275.485 50.7104 276.157 50.5373 276.837 50.3981L277.085 50.8838C276.671 51.2208 276.223 51.5201 275.748 51.7779C274.896 52.1753 273.974 52.4181 273.146 52.8817C272.306 53.3768 271.496 53.9148 270.72 54.4933C269.537 53.9965 268.188 54.7251 266.828 55.266C262.013 57.1535 257.209 59.0632 252.382 60.9397L220.439 73.3137C219.837 73.6105 219.252 73.9385 218.688 74.296C219.587 74.859 220.155 75.2784 220.794 75.6096C222.805 76.6472 224.9 77.5634 226.863 78.6893C227.397 79.0144 228.015 79.1993 228.652 79.2246C229.289 79.2499 229.922 79.1145 230.484 78.8328C236.162 76.5589 241.865 74.4175 247.556 72.1436L283.758 57.9262C284.692 57.4847 285.639 57.0431 286.633 56.5906V56.5906ZM169.224 12.084C169.981 12.4814 170.407 12.7684 170.892 12.9671L192.353 21.6653L211.022 29.2155C211.476 29.4946 211.993 29.6725 212.532 29.7356C213.072 29.7988 213.62 29.7455 214.133 29.5798C216.5 28.5753 218.866 27.626 221.232 26.6105C221.551 26.478 221.753 26.1358 222.096 25.8047C221.658 25.5618 221.386 25.3852 221.078 25.2527L206.432 19.0824C196.233 14.7774 186.039 10.4651 175.849 6.14539C175.397 5.94058 174.903 5.82958 174.4 5.82005C173.898 5.81052 173.399 5.90271 172.939 6.09022L121.912 24.0937C121.632 24.2249 121.363 24.3762 121.108 24.5463C123.202 26.191 125.142 26.9416 127.863 25.9151C139.552 21.4997 151.324 17.25 163.072 12.945C166.739 11.5984 170.411 10.2774 174.086 8.98225C174.397 8.77134 174.772 8.65779 175.157 8.65779C175.542 8.65779 175.916 8.77134 176.228 8.98225C174.051 10.4283 171.554 10.7595 169.224 12.1172V12.084ZM284.929 52.2084L284.598 52.683C285.355 53.3895 286.088 54.118 286.881 54.7913C288.324 56.0166 288.715 56.0166 290.821 54.703L284.929 52.2084ZM320.078 97.4655C319.308 96.637 318.291 96.0413 317.156 95.7545C318.209 98.5362 318.564 98.7239 320.078 97.5097V97.4655Z"/>
</mask>
<path d="M307.822 228.788C305.893 231.769 304.071 234.804 302.013 237.707C298.239 243.028 294.323 248.282 290.442 253.547C290.052 254.077 289.721 254.784 288.774 254.817C288.301 254.055 288.904 253.614 289.259 253.128C292.808 248.326 296.358 243.569 299.907 238.778C303.906 233.197 307.347 227.285 310.188 221.117C312.554 216.05 314.92 211.039 317.061 205.906C318.529 202.229 319.757 198.473 320.741 194.658C322.385 188.454 323.947 182.229 325.213 175.948C326.207 170.992 326.81 165.947 327.402 160.925C327.828 157.216 328.04 153.485 328.171 149.765C328.297 142.933 327.714 136.105 326.431 129.377C325.303 122.236 323.598 115.185 321.332 108.283C320.421 105.645 319.321 103.073 318.221 100.225C316.565 100.843 315.133 101.329 313.749 101.925C306.023 105.236 298.369 108.548 290.584 111.738C281.12 115.69 271.655 119.616 262.19 123.516C259.718 124.543 257.257 125.624 254.749 126.585C253.163 127.181 252.3 128.064 252.513 129.731C252.607 130.415 252.513 131.121 252.513 131.817C252.517 136.943 252.034 142.059 251.069 147.105C249.902 154.355 248.122 161.508 245.745 168.497C244.267 172.912 242.338 177.328 240.445 181.622C239.025 184.845 237.476 188.013 235.713 191.093C233.477 195.066 231.123 198.996 228.614 202.815C224.27 209.238 219.463 215.378 214.228 221.194C210.719 225.21 206.809 228.906 202.551 232.232C199.262 234.771 196.08 237.454 192.625 239.783C188.637 242.516 184.494 245.048 180.215 247.366C173.656 250.958 166.683 253.847 159.428 255.976C157.736 256.451 156.044 256.903 154.341 257.334C153.725 257.477 153.063 257.51 152.424 257.598L152.282 257.212C152.603 256.976 152.957 256.783 153.335 256.638C159.054 255.256 164.631 253.409 170.005 251.119C172.536 250.015 174.95 248.757 177.411 247.543C179.268 246.626 181.09 245.666 182.948 244.739C186.622 242.702 190.118 240.399 193.406 237.851C197.759 234.928 201.783 231.599 205.414 227.916C209.165 223.921 212.856 219.881 216.358 215.708C222.291 208.727 227.575 201.286 232.152 193.466C234.4 189.591 236.103 185.43 237.961 181.324C239.44 178.012 240.776 174.701 242.196 171.455C242.292 171.219 242.471 171.02 242.705 170.892C242.392 172.702 241.823 174.466 241.013 176.136C240.682 176.952 240.504 177.825 240.256 178.663L239.546 179.834L239.889 179.966L240.256 178.663C240.651 178.08 241.011 177.475 241.332 176.853C243.955 170.738 246.063 164.442 247.638 158.022C249.227 152.129 250.311 146.127 250.88 140.073C251.117 136.928 251.377 133.782 251.613 130.625C251.637 130.375 251.637 130.124 251.613 129.874C251.448 128.472 250.986 128.174 249.626 128.77C245.84 130.316 242.062 131.887 238.292 133.484C229.159 137.358 220.037 141.21 210.892 145.14C203.233 148.393 195.575 151.634 187.916 154.865C179.694 158.32 171.436 161.72 163.19 165.142L153.725 169.093C154.089 169.428 154.485 169.731 154.908 169.998C157.499 171.246 160.102 172.482 162.729 173.674C164.027 174.311 165.168 175.194 166.077 176.268C164.503 176.621 163.592 175.705 162.528 175.275C161.463 174.844 160.398 174.171 159.321 173.63C158.245 173.089 157.251 172.67 156.234 172.173C155.216 171.676 154.092 171.124 152.933 170.561L150.933 172.835L150.425 172.592L151.075 170.131C147.443 171.058 144.296 172.835 140.7 173.674C141.339 172.736 141.339 172.747 143.362 171.908L146.319 170.639L149.869 169.137C146.997 167.508 144.009 166.066 140.924 164.821C140.132 166.786 139.363 168.585 138.677 170.418C137.659 173.166 136.701 175.937 135.695 178.697C135.447 179.37 135.317 180.198 134.24 180.363C133.625 179.657 134.098 179.006 134.311 178.398C135.494 175.219 136.677 172.062 137.86 168.883C138.116 168.269 138.193 167.603 138.085 166.952C136.571 168.177 134.985 169.325 133.566 170.639C128.644 175.164 123.628 179.635 118.907 184.359C115.121 188.145 111.608 192.174 108.165 196.236C102.435 202.822 97.2425 209.8 92.6311 217.11C89.1363 222.62 86.1367 228.391 83.6634 234.363C80.9896 241.14 78.1621 247.874 76.8133 255.016C76.2336 258.051 75.9733 261.153 75.6303 264.233C75.3194 266.49 75.1968 268.768 75.2635 271.043C75.5711 275.459 75.4291 279.874 76.2809 284.289C77.1328 288.705 77.677 293.12 78.5051 297.535C78.9547 299.964 79.6882 302.337 80.2916 304.743C80.4625 305.112 80.5377 305.513 80.511 305.914C80.4842 306.315 80.3564 306.704 80.1378 307.05C79.7871 306.643 79.4892 306.198 79.2505 305.726C78.6779 304.104 78.2039 302.452 77.8308 300.78C76.8607 295.67 75.9733 290.559 75.1333 285.437C74.1014 279.372 73.7052 273.228 73.9503 267.091C74.1611 260.072 75.4643 253.119 77.8189 246.45C79.8538 240.931 81.8414 235.29 84.2549 229.892C87.5729 222.262 91.8417 215.023 96.973 208.323C100.108 204.272 103.078 200.1 106.438 196.181C109.987 191.92 113.867 187.814 117.76 183.763C121.025 180.385 124.421 177.14 127.934 173.939C131.14 171.036 134.583 168.42 137.919 165.583C138.404 165.186 138.854 164.733 139.505 164.126C137.86 163.254 136.488 162.47 135.056 161.786C125.509 157.249 115.914 152.779 106.39 148.187C95.2457 142.811 84.1602 137.314 73.0275 131.894C65.3966 128.185 57.7302 124.509 50.0757 120.856C44.0657 117.942 38.0556 114.994 32.0337 112.025C29.6676 110.921 29.8805 111.076 28.307 112.864C24.32 117.39 22.924 122.986 20.7235 128.229C16.3263 139.071 12.768 150.193 10.0758 161.51C7.88036 170.13 6.16653 178.851 4.94119 187.638C4.21951 192.958 3.75811 198.323 3.1429 203.654C2.5557 208.812 2.28708 213.998 2.3384 219.185C2.3384 220.951 1.95983 222.717 2.01898 224.484C2.18461 229.407 2.51588 234.319 2.74066 239.242C3.14286 246.382 4.1117 253.484 5.6392 260.491C7.07287 267.85 9.5391 275.002 12.9743 281.761C15.0299 286.049 17.9225 289.941 21.5043 293.241C22.1449 293.695 22.5696 294.365 22.6874 295.107C21.7764 295.283 21.3623 294.621 20.8418 294.191C18.1224 291.79 15.8159 289.012 14.0036 285.956C10.5979 280.4 8.02249 274.436 6.34904 268.228C4.22286 260.877 2.77813 253.37 2.03081 245.788C1.49842 240.577 1.27363 235.323 1.11983 230.08C0.966027 225.08 0.954197 220.079 1.11983 215.079C1.28546 210.079 1.71136 204.857 2.24375 199.769C2.78797 194.481 3.42684 189.194 4.32598 183.962C5.50906 177.085 6.83412 170.241 8.36029 163.431C10.8214 152.394 14.1307 141.538 18.2627 130.945C20.6288 124.94 23.4091 119.101 26 113.184L27.467 109.873C26.8755 109.508 26.4023 109.166 25.8935 108.912C22.8294 107.4 19.7415 105.954 16.7128 104.398C16.2744 104.079 15.7547 103.873 15.2049 103.8C14.6551 103.726 14.0942 103.788 13.5777 103.978C13.0571 103.128 12.5957 102.4 12.0397 101.517C12.3828 101.517 12.6667 101.439 12.856 101.517C13.9444 101.991 14.5951 101.517 15.2221 100.744C18.7714 96.5604 22.3206 92.4099 25.8699 88.2595L49.3422 60.8183C50.8092 59.0963 52.2526 57.3633 53.7433 55.5751C52.3354 54.1732 50.194 54.0187 48.6323 52.3408C49.1683 52.3311 49.7038 52.3755 50.2295 52.4733C50.9749 52.7603 51.6965 53.1245 52.43 53.4667C54.6897 54.5043 54.7962 54.4602 56.4407 52.5395C57.5646 51.1928 58.7122 49.8572 59.8598 48.5326C60.2265 48.1131 60.5696 47.5612 61.6226 47.9696C59.9781 50.4753 57.6238 52.3849 56.0029 55.0452C56.7128 55.4094 57.3398 55.7517 57.9905 56.0497C63.9059 58.8093 69.8213 61.5688 75.6421 64.3064C83.6397 68.0704 91.6492 71.8234 99.5876 75.6869C100.277 76.0724 101.06 76.2879 101.863 76.313C102.666 76.3381 103.463 76.172 104.178 75.8304C107.905 74.1636 111.679 72.5189 115.441 70.9625C116.305 70.5872 117.18 70.245 118.032 69.8587C118.683 69.5827 119.321 69.2626 120.138 68.8762C119.906 68.6388 119.648 68.4243 119.369 68.236C114.289 65.9621 109.206 63.6993 104.119 61.4475C94.3939 57.0984 84.665 52.7493 74.9322 48.4001C74.1269 47.9385 73.2084 47.6768 72.2641 47.6401C71.3197 47.6034 70.381 47.7929 69.5374 48.1904C67.92 48.855 66.2559 49.4155 64.5566 49.8682C64.9589 48.7644 65.7397 48.7644 66.2602 48.4664C67.8574 47.6937 69.8095 47.5723 70.9926 46.0379C71.0828 45.9412 71.2104 45.8816 71.3475 45.8723C75.5829 45.5964 79.1677 43.5102 83.0008 42.1745C90.9511 39.3929 98.8423 36.4898 106.733 33.6088C112.223 31.5998 117.689 29.5135 123.166 27.4604C123.282 27.3956 123.386 27.3136 123.474 27.2176C122.839 26.3531 121.905 25.7175 120.829 25.4163C119.753 25.115 118.599 25.1664 117.559 25.5618L81.2972 38.4987C74.3249 40.964 67.3408 43.4145 60.3448 45.8503C59.6941 46.0711 59.008 46.2035 58.3454 46.3801L58.1443 45.9165C58.6128 45.62 59.103 45.3544 59.6113 45.1217C65.4203 43.0024 71.2292 40.872 77.0618 38.7857C85.4853 35.7833 93.9443 32.8361 102.38 29.8558L115.89 25.0651C116.447 24.8664 117.003 24.6457 117.854 24.3145L115.488 22.3607C116.016 22.4555 116.528 22.6113 117.014 22.8243C117.702 23.2299 118.49 23.4633 119.302 23.5019C120.115 23.5406 120.924 23.3832 121.652 23.0451C125.887 21.4997 130.147 20.0206 134.406 18.5304L165.071 7.74596C166.976 7.07263 168.881 6.39932 170.774 5.7039C171.314 5.46654 171.839 5.20117 172.347 4.90911L169.236 3.13195C169.741 2.92574 170.297 2.84777 170.845 2.90592C171.393 2.96406 171.916 3.15626 172.359 3.46309C173.062 3.84658 173.86 4.0542 174.674 4.0658C175.489 4.07741 176.293 3.89259 177.008 3.52932C178.251 3.03259 179.505 2.54689 180.794 2.13848C181.556 1.90168 182.368 1.8411 183.16 1.96189C181.386 3.56245 178.842 3.71699 176.547 5.07471C178.369 5.86947 179.86 6.53173 181.374 7.17195C186.816 9.47528 192.254 11.7712 197.689 14.0599L216.168 21.853C218.393 22.7802 220.617 23.7184 222.829 24.7008C223.28 24.9159 223.778 25.028 224.284 25.028C224.79 25.028 225.289 24.9159 225.74 24.7008C232.175 22.0001 238.615 19.3104 245.059 16.6318C248.467 15.2189 251.878 13.8133 255.293 12.4152C255.895 12.2162 256.512 12.0576 257.138 11.9405C256.784 13.0443 255.955 13.2651 255.364 13.5411C250.844 15.4397 246.313 17.2941 241.794 19.1817C236.967 21.2054 232.148 23.2401 227.337 25.2859C227.039 25.4237 226.75 25.5785 226.473 25.7495C227.656 26.8533 271.43 45.4418 275.086 46.5015L275.642 45.5412C275.86 45.5832 276.072 45.6538 276.269 45.7509C276.884 46.2476 277.452 46.7775 278.091 47.2632C279.63 48.5088 281.381 49.505 283.273 50.2104C285.982 51.2038 288.608 52.418 291.259 53.5219C291.812 53.7778 292.424 53.9054 293.042 53.8938C293.66 53.8823 294.265 53.732 294.808 53.4557C296.653 52.6609 298.546 51.9544 300.439 51.248C301.115 50.9892 301.838 50.8543 302.569 50.8506C301.894 52.3077 300.368 52.4953 299.114 53.0583C297.86 53.6212 296.405 54.1622 294.595 54.8796C296.298 55.6634 297.635 56.2263 298.901 56.8886C300.167 57.5509 301.646 57.5288 302.45 58.721L302.261 59.1625C301.527 59.0003 300.804 58.7976 300.096 58.5554C298.286 57.8379 296.488 57.0984 294.737 56.2705C293.951 55.8685 293.045 55.7218 292.16 55.8537C291.275 55.9856 290.463 56.3886 289.851 56.999C290.631 57.7606 291.306 58.5112 292.087 59.2066C294.145 60.9507 296.275 62.6064 298.322 64.3615C300.83 66.4919 303.243 68.7106 305.739 70.8521C309.939 74.4395 314.163 77.9939 318.387 81.5593C320.043 82.9611 321.699 84.352 323.344 85.7759C325.71 87.8401 328.076 89.9042 330.442 92.0236C330.748 92.3947 331.189 92.6482 331.682 92.7357C332.175 92.8232 332.685 92.7387 333.116 92.4983C338.286 90.2906 343.503 88.0829 348.709 85.9525C349.457 85.6846 350.219 85.4525 350.992 85.2571C351.087 86.4382 350.294 86.5596 349.75 86.8025C346.485 88.1933 343.196 89.551 339.907 90.9308L325.438 97.0129C324.893 97.2447 324.397 97.5538 323.604 97.9733L326.136 100.391C324.61 100.744 323.994 99.8387 323.214 99.3641C322.817 99.0081 322.293 98.8011 321.743 98.7827C321.193 98.7644 320.655 98.936 320.232 99.2647C319.957 99.3951 319.748 99.6203 319.649 99.8924C319.549 100.165 319.568 100.462 319.7 100.722C319.948 101.307 320.161 101.903 320.445 102.477C322.296 106.49 323.714 110.664 324.681 114.939C326.291 121.155 327.554 127.444 328.466 133.782C329.439 140.17 329.764 146.631 329.436 153.077C328.699 166.034 326.578 178.891 323.107 191.457C321.619 197.46 319.69 203.361 317.334 209.118C316.151 211.812 314.885 214.472 313.595 217.121C311.832 220.742 310.046 224.351 308.224 227.972C308.098 228.263 307.991 228.562 307.904 228.866L307.822 228.788ZM164.113 106.053C165.095 106.55 165.71 106.892 166.349 107.157C171.389 109.519 176.429 111.859 181.457 114.233C182.131 114.542 183.03 114.685 183.231 115.657C182.202 116.164 181.457 115.557 180.723 115.204C175.104 112.555 169.484 109.862 163.864 107.19C163.226 106.892 162.563 106.66 161.782 106.34C161.451 107.146 161.191 107.72 160.978 108.316C159.313 112.996 157.653 117.68 155.997 122.368C153.264 130.095 150.543 137.888 147.775 145.626C146.142 150.196 144.426 154.732 142.782 159.291C142.522 160.009 141.906 160.726 142.439 161.631C144.249 161.3 145.101 159.424 147.171 159.126C145.763 161.101 143.314 161.72 142.297 163.74C142.727 164.084 143.182 164.401 143.657 164.689C145.633 165.66 147.633 166.621 149.632 167.559C151.821 168.574 151.998 168.663 153.122 166.632C157.689 158.441 162.173 150.196 166.668 141.972C169.449 136.894 172.181 131.806 174.95 126.728C175.033 126.563 175.281 126.474 175.447 126.342C169.046 140.118 161.9 153.485 154.388 167.095C155.157 166.874 155.571 166.808 155.89 166.665C158.126 165.76 160.374 164.854 162.599 163.938C172.714 159.766 182.841 155.626 192.945 151.432C200.788 148.209 208.467 144.897 216.168 141.652C224.734 137.987 233.276 134.267 241.853 130.614C246.585 128.605 251.247 126.651 255.955 124.697C263.397 121.628 270.862 118.593 278.304 115.502C284.125 113.085 289.933 110.623 295.742 108.173C302.549 105.317 309.348 102.451 316.139 99.5738C316.547 99.3593 316.942 99.1234 317.322 98.8674C316.221 96.2292 315.015 93.9222 312.412 92.2444C306.248 88.3258 300.262 84.1643 294.204 80.1022C293.743 79.7931 293.353 79.4068 292.927 79.0646C293.162 79.0036 293.41 78.9918 293.651 79.03C293.892 79.0681 294.122 79.1553 294.323 79.2854C296.156 80.4775 297.978 81.6917 299.8 82.8949C306.749 87.4354 313.694 91.9758 320.634 96.5162C320.974 96.7765 321.391 96.9331 321.829 96.9647C322.267 96.9963 322.705 96.9014 323.083 96.6928C324.964 95.8208 326.905 95.0481 328.798 94.2092C329.232 93.9684 329.647 93.6991 330.04 93.4034C329.401 92.7852 328.928 92.2995 328.384 91.8138C326.171 89.9484 323.912 88.127 321.711 86.2947C316.64 81.9456 311.568 77.5634 306.497 73.1481C300.924 68.3464 295.328 63.5557 289.803 58.6989C289.399 58.2354 288.836 57.9163 288.208 57.7957C287.581 57.675 286.928 57.7601 286.361 58.0366C283.994 59.03 281.474 59.9242 279.037 60.8845C272.223 63.5558 265.42 66.2601 258.605 68.9425C249.93 72.3202 241.297 75.6979 232.708 79.0756C231.894 79.4519 231.104 79.872 230.342 80.334C232.045 81.2061 233.335 81.8573 234.624 82.5417C235.914 83.2261 237.204 83.9325 238.517 84.6169C239.83 85.3013 241.179 85.8863 242.433 86.6259C243.687 87.3655 245.225 87.5089 246.124 88.9218C245.739 89.0167 245.335 89.0241 244.946 88.9434C244.557 88.8628 244.194 88.6964 243.888 88.4582C239.499 86.2506 235.098 83.9546 230.744 81.6144C230.186 81.2645 229.541 81.056 228.871 81.0096C228.201 80.9631 227.529 81.0803 226.923 81.3495C219.627 84.2931 212.315 87.1815 204.988 90.0147C192.984 94.7096 180.964 99.3935 168.928 104.066C167.473 104.64 166.029 105.281 164.113 106.053ZM30.2354 109.63C30.4445 109.833 30.6699 110.021 30.9098 110.193L53.8024 121.363C63.3617 126.014 72.9249 130.661 82.4921 135.305C92.3117 140.04 102.155 144.732 111.986 149.456L132.099 159.104C134.216 160.119 136.31 161.168 138.44 162.139C139.753 162.724 140.013 162.592 140.558 161.322C141.007 160.218 141.445 159.192 141.835 158.121C145.329 148.555 148.808 138.966 152.27 129.355C154.81 122.283 157.342 115.2 159.866 108.106C160.717 105.733 160.706 105.733 158.41 104.64C147.274 99.3862 136.133 94.1319 124.988 88.8777C118.631 85.8826 112.262 82.9096 105.882 79.9587C103.657 78.9211 103.515 78.9873 102.332 81.0625C101.469 82.641 100.641 84.2416 99.7533 85.798C95.1235 93.9664 90.4897 102.127 85.8521 110.281C82.9062 115.469 79.9367 120.69 77.05 125.878C76.6613 126.505 76.2388 127.113 75.784 127.699L75.3108 127.424C79.8065 119.321 84.1484 111.131 88.8334 103.139C92.1934 97.4103 101.847 80.036 102.167 78.325C99.8952 77.5413 98.2507 79.5393 96.2513 79.7269L96.0857 79.3516L100.286 77.2764C97.3043 75.8414 94.6779 74.5499 92.0041 73.2916L63.3144 59.7365C61.0192 58.6326 58.7004 57.595 56.4052 56.5022C56.2251 56.3852 56.0208 56.3046 55.8054 56.2656C55.5899 56.2266 55.3681 56.2301 55.1542 56.2758C54.9402 56.3215 54.7389 56.4085 54.5632 56.5311C54.3874 56.6538 54.2411 56.8094 54.1337 56.9879C51.8858 59.6923 49.5788 62.3416 47.3191 65.0239C42.5868 70.5798 37.8781 76.1358 33.1931 81.6917C27.8456 87.9836 22.4626 94.2423 17.1033 100.534C16.5709 101.152 16.1095 101.826 15.4588 102.687C19.8598 104.64 23.7403 106.881 27.9403 108.658L29.6794 106.616L30.0461 107.974C30.8506 107.279 30.969 106.109 32.3058 105.932L30.2354 109.63ZM169.898 49.4267C170.316 49.7747 170.759 50.0955 171.223 50.387C176.228 52.9369 181.232 55.4536 186.248 57.9925L202.338 66.1388C206.621 68.3464 210.927 70.4437 215.186 72.6845C215.669 72.9638 216.22 73.1236 216.787 73.1487C217.355 73.1738 217.919 73.0635 218.428 72.828C224.343 70.4658 230.259 68.1698 236.257 65.8628L266.118 54.2615C266.544 54.0959 266.911 53.842 267.621 53.4667C266.757 53.0804 266.177 52.8044 265.586 52.5616C258.298 49.618 251.01 46.6744 243.722 43.7309C234.021 39.8012 224.324 35.8569 214.63 31.8978C214.118 31.6588 213.553 31.5344 212.98 31.5344C212.407 31.5344 211.842 31.6588 211.33 31.8978C207.579 33.5205 203.782 35.0548 200.008 36.6222L171.211 48.6872C170.774 48.9097 170.351 49.1567 169.945 49.4267H169.898ZM166.408 49.5481L166.491 48.9962C165.887 48.643 165.308 48.2566 164.669 47.8924C162.646 46.8658 160.611 45.8613 158.588 44.8237L142.817 36.7216C138.416 34.5139 134.015 32.229 129.638 29.944C125.26 27.6591 126.207 27.6702 121.356 29.4142C112.507 32.6043 103.705 35.9378 94.8671 39.1721C88.7979 41.3797 82.7169 43.5874 76.6477 45.7951C75.926 46.06 75.2398 46.3801 74.1396 46.8989C75.4291 47.517 76.2573 47.9255 77.0973 48.3118C80.3389 49.7836 83.5805 51.2333 86.8222 52.6609C93.6249 55.6634 100.451 58.6327 107.254 61.6461C111.592 63.5815 115.93 65.5353 120.268 67.5075C120.754 67.7934 121.307 67.9648 121.88 68.0071C122.453 68.0494 123.029 67.9613 123.557 67.7503C129.472 65.2041 135.388 62.6911 141.303 60.2112C147.218 57.7496 153.075 55.3212 158.955 52.8596C161.451 51.7337 163.947 50.6299 166.479 49.5481H166.408ZM123.616 68.7327C124.491 69.1853 125.119 69.5385 125.769 69.8366C131.685 72.4637 137.529 75.0577 143.385 77.6958C152.187 81.6476 161.001 85.5772 169.744 89.6283C170.564 90.0587 171.484 90.2958 172.424 90.3188C173.364 90.3419 174.296 90.1503 175.139 89.7607C178.972 88.1491 182.888 86.7031 186.769 85.1908L214.169 74.4947C214.481 74.3237 214.775 74.124 215.044 73.8987C214.571 73.5896 214.275 73.3468 213.932 73.1702C210.383 71.3157 206.834 69.4613 203.285 67.651C198.292 65.1011 193.276 62.5844 188.283 60.0235C182.281 56.9548 176.295 53.8604 170.324 50.7403C169.777 50.4282 169.153 50.2539 168.512 50.2346C167.871 50.2152 167.236 50.3514 166.668 50.6298C161.356 52.8375 156.021 55.0452 150.709 57.3191L124.917 68.1256C124.551 68.2471 124.219 68.4347 123.616 68.7327ZM211.164 30.7057C210.099 30.1979 209.413 29.8226 208.68 29.5246L188.709 21.4335C182.06 18.7402 175.388 16.0689 168.751 13.3314C168.236 13.1052 167.675 12.9879 167.106 12.9879C166.537 12.9879 165.976 13.1052 165.462 13.3314C160.623 15.1527 155.737 16.8857 150.874 18.6629L128.325 26.9195C127.826 27.1476 127.344 27.4057 126.881 27.6922C127.627 28.1448 128.064 28.487 128.644 28.7961L140.475 34.7788C149.289 39.2493 158.115 43.6978 166.905 48.1904C167.299 48.4353 167.755 48.5813 168.227 48.6141C168.7 48.647 169.173 48.5657 169.602 48.3781C171.969 47.3736 174.335 46.4353 176.701 45.4419C181.646 43.3556 186.568 41.2252 191.525 39.15C197.275 36.7437 203.048 34.3815 208.81 31.9862C209.437 31.6109 210.111 31.2024 211.152 30.7057H211.164ZM162.232 105.159C164.148 104.905 225.172 81.0073 226.852 79.8925C226.13 79.4399 225.503 78.9984 224.817 78.6451C222.675 77.5413 220.475 76.5368 218.369 75.3336C217.959 75.0565 217.473 74.8947 216.968 74.8673C216.462 74.84 215.959 74.9482 215.518 75.1791C215.086 75.3674 214.644 75.5332 214.193 75.6758L177.742 89.827C176.618 90.2685 175.541 90.8094 174.406 91.2288C172.335 91.9795 170.241 92.6749 168.147 93.3703C168.029 93.3703 167.828 93.2047 167.378 92.9619L170.714 91.1737C170.04 90.8425 169.638 90.6328 169.212 90.4451L144.58 79.5282C137.482 76.3639 130.383 73.1812 123.285 69.9801C122.807 69.7461 122.275 69.6238 121.735 69.6238C121.195 69.6238 120.663 69.7461 120.185 69.9801C115.453 71.9339 110.72 73.8545 105.988 75.8193C105.323 76.1526 104.679 76.5212 104.06 76.9232C104.284 78.1594 105.243 78.3471 106 78.7004C114.226 82.6079 122.449 86.5044 130.667 90.3899C139.919 94.8053 149.178 99.1875 158.446 103.537C159.203 103.89 160.008 104.144 160.635 104.387C161.889 103.592 161.427 102.002 163.178 101.351L162.232 105.159ZM286.633 56.5906C286.503 56.2705 286.491 56.0607 286.361 55.9393C283.083 52.8265 279.901 49.5922 275.275 48.1462C274.96 48.0296 274.652 47.897 274.352 47.7489C266.39 44.3711 258.428 40.9713 250.466 37.6046C242.504 34.2379 234.258 30.8161 226.177 27.3611C225.615 27.0732 224.988 26.9123 224.347 26.8912C223.706 26.8701 223.069 26.9894 222.486 27.2396C220.392 28.1558 218.286 29.0278 216.204 29.944C215.761 30.1781 215.337 30.4438 214.938 30.7388C215.435 30.9706 215.719 31.1251 216.015 31.2465C220.25 32.9464 224.497 34.6243 228.721 36.3353L254.275 46.7334C258.807 48.5768 263.385 50.3539 267.905 52.2525C268.453 52.5159 269.062 52.6533 269.679 52.6533C270.296 52.6533 270.905 52.5159 271.454 52.2525C272.554 51.7668 273.69 51.3253 274.826 50.9169C275.485 50.7104 276.157 50.5373 276.837 50.3981L277.085 50.8838C276.671 51.2208 276.223 51.5201 275.748 51.7779C274.896 52.1753 273.974 52.4181 273.146 52.8817C272.306 53.3768 271.496 53.9148 270.72 54.4933C269.537 53.9965 268.188 54.7251 266.828 55.266C262.013 57.1535 257.209 59.0632 252.382 60.9397L220.439 73.3137C219.837 73.6105 219.252 73.9385 218.688 74.296C219.587 74.859 220.155 75.2784 220.794 75.6096C222.805 76.6472 224.9 77.5634 226.863 78.6893C227.397 79.0144 228.015 79.1993 228.652 79.2246C229.289 79.2499 229.922 79.1145 230.484 78.8328C236.162 76.5589 241.865 74.4175 247.556 72.1436L283.758 57.9262C284.692 57.4847 285.639 57.0431 286.633 56.5906V56.5906ZM169.224 12.084C169.981 12.4814 170.407 12.7684 170.892 12.9671L192.353 21.6653L211.022 29.2155C211.476 29.4946 211.993 29.6725 212.532 29.7356C213.072 29.7988 213.62 29.7455 214.133 29.5798C216.5 28.5753 218.866 27.626 221.232 26.6105C221.551 26.478 221.753 26.1358 222.096 25.8047C221.658 25.5618 221.386 25.3852 221.078 25.2527L206.432 19.0824C196.233 14.7774 186.039 10.4651 175.849 6.14539C175.397 5.94058 174.903 5.82958 174.4 5.82005C173.898 5.81052 173.399 5.90271 172.939 6.09022L121.912 24.0937C121.632 24.2249 121.363 24.3762 121.108 24.5463C123.202 26.191 125.142 26.9416 127.863 25.9151C139.552 21.4997 151.324 17.25 163.072 12.945C166.739 11.5984 170.411 10.2774 174.086 8.98225C174.397 8.77134 174.772 8.65779 175.157 8.65779C175.542 8.65779 175.916 8.77134 176.228 8.98225C174.051 10.4283 171.554 10.7595 169.224 12.1172V12.084ZM284.929 52.2084L284.598 52.683C285.355 53.3895 286.088 54.118 286.881 54.7913C288.324 56.0166 288.715 56.0166 290.821 54.703L284.929 52.2084ZM320.078 97.4655C319.308 96.637 318.291 96.0413 317.156 95.7545C318.209 98.5362 318.564 98.7239 320.078 97.5097V97.4655Z" fill="#6895FF"/>
<path d="M307.822 228.788C305.893 231.769 304.071 234.804 302.013 237.707C298.239 243.028 294.323 248.282 290.442 253.547C290.052 254.077 289.721 254.784 288.774 254.817C288.301 254.055 288.904 253.614 289.259 253.128C292.808 248.326 296.358 243.569 299.907 238.778C303.906 233.197 307.347 227.285 310.188 221.117C312.554 216.05 314.92 211.039 317.061 205.906C318.529 202.229 319.757 198.473 320.741 194.658C322.385 188.454 323.947 182.229 325.213 175.948C326.207 170.992 326.81 165.947 327.402 160.925C327.828 157.216 328.04 153.485 328.171 149.765C328.297 142.933 327.714 136.105 326.431 129.377C325.303 122.236 323.598 115.185 321.332 108.283C320.421 105.645 319.321 103.073 318.221 100.225C316.565 100.843 315.133 101.329 313.749 101.925C306.023 105.236 298.369 108.548 290.584 111.738C281.12 115.69 271.655 119.616 262.19 123.516C259.718 124.543 257.257 125.624 254.749 126.585C253.163 127.181 252.3 128.064 252.513 129.731C252.607 130.415 252.513 131.121 252.513 131.817C252.517 136.943 252.034 142.059 251.069 147.105C249.902 154.355 248.122 161.508 245.745 168.497C244.267 172.912 242.338 177.328 240.445 181.622C239.025 184.845 237.476 188.013 235.713 191.093C233.477 195.066 231.123 198.996 228.614 202.815C224.27 209.238 219.463 215.378 214.228 221.194C210.719 225.21 206.809 228.906 202.551 232.232C199.262 234.771 196.08 237.454 192.625 239.783C188.637 242.516 184.494 245.048 180.215 247.366C173.656 250.958 166.683 253.847 159.428 255.976C157.736 256.451 156.044 256.903 154.341 257.334C153.725 257.477 153.063 257.51 152.424 257.598L152.282 257.212C152.603 256.976 152.957 256.783 153.335 256.638C159.054 255.256 164.631 253.409 170.005 251.119C172.536 250.015 174.95 248.757 177.411 247.543C179.268 246.626 181.09 245.666 182.948 244.739C186.622 242.702 190.118 240.399 193.406 237.851C197.759 234.928 201.783 231.599 205.414 227.916C209.165 223.921 212.856 219.881 216.358 215.708C222.291 208.727 227.575 201.286 232.152 193.466C234.4 189.591 236.103 185.43 237.961 181.324C239.44 178.012 240.776 174.701 242.196 171.455C242.292 171.219 242.471 171.02 242.705 170.892C242.392 172.702 241.823 174.466 241.013 176.136C240.682 176.952 240.504 177.825 240.256 178.663L239.546 179.834L239.889 179.966L240.256 178.663C240.651 178.08 241.011 177.475 241.332 176.853C243.955 170.738 246.063 164.442 247.638 158.022C249.227 152.129 250.311 146.127 250.88 140.073C251.117 136.928 251.377 133.782 251.613 130.625C251.637 130.375 251.637 130.124 251.613 129.874C251.448 128.472 250.986 128.174 249.626 128.77C245.84 130.316 242.062 131.887 238.292 133.484C229.159 137.358 220.037 141.21 210.892 145.14C203.233 148.393 195.575 151.634 187.916 154.865C179.694 158.32 171.436 161.72 163.19 165.142L153.725 169.093C154.089 169.428 154.485 169.731 154.908 169.998C157.499 171.246 160.102 172.482 162.729 173.674C164.027 174.311 165.168 175.194 166.077 176.268C164.503 176.621 163.592 175.705 162.528 175.275C161.463 174.844 160.398 174.171 159.321 173.63C158.245 173.089 157.251 172.67 156.234 172.173C155.216 171.676 154.092 171.124 152.933 170.561L150.933 172.835L150.425 172.592L151.075 170.131C147.443 171.058 144.296 172.835 140.7 173.674C141.339 172.736 141.339 172.747 143.362 171.908L146.319 170.639L149.869 169.137C146.997 167.508 144.009 166.066 140.924 164.821C140.132 166.786 139.363 168.585 138.677 170.418C137.659 173.166 136.701 175.937 135.695 178.697C135.447 179.37 135.317 180.198 134.24 180.363C133.625 179.657 134.098 179.006 134.311 178.398C135.494 175.219 136.677 172.062 137.86 168.883C138.116 168.269 138.193 167.603 138.085 166.952C136.571 168.177 134.985 169.325 133.566 170.639C128.644 175.164 123.628 179.635 118.907 184.359C115.121 188.145 111.608 192.174 108.165 196.236C102.435 202.822 97.2425 209.8 92.6311 217.11C89.1363 222.62 86.1367 228.391 83.6634 234.363C80.9896 241.14 78.1621 247.874 76.8133 255.016C76.2336 258.051 75.9733 261.153 75.6303 264.233C75.3194 266.49 75.1968 268.768 75.2635 271.043C75.5711 275.459 75.4291 279.874 76.2809 284.289C77.1328 288.705 77.677 293.12 78.5051 297.535C78.9547 299.964 79.6882 302.337 80.2916 304.743C80.4625 305.112 80.5377 305.513 80.511 305.914C80.4842 306.315 80.3564 306.704 80.1378 307.05C79.7871 306.643 79.4892 306.198 79.2505 305.726C78.6779 304.104 78.2039 302.452 77.8308 300.78C76.8607 295.67 75.9733 290.559 75.1333 285.437C74.1014 279.372 73.7052 273.228 73.9503 267.091C74.1611 260.072 75.4643 253.119 77.8189 246.45C79.8538 240.931 81.8414 235.29 84.2549 229.892C87.5729 222.262 91.8417 215.023 96.973 208.323C100.108 204.272 103.078 200.1 106.438 196.181C109.987 191.92 113.867 187.814 117.76 183.763C121.025 180.385 124.421 177.14 127.934 173.939C131.14 171.036 134.583 168.42 137.919 165.583C138.404 165.186 138.854 164.733 139.505 164.126C137.86 163.254 136.488 162.47 135.056 161.786C125.509 157.249 115.914 152.779 106.39 148.187C95.2457 142.811 84.1602 137.314 73.0275 131.894C65.3966 128.185 57.7302 124.509 50.0757 120.856C44.0657 117.942 38.0556 114.994 32.0337 112.025C29.6676 110.921 29.8805 111.076 28.307 112.864C24.32 117.39 22.924 122.986 20.7235 128.229C16.3263 139.071 12.768 150.193 10.0758 161.51C7.88036 170.13 6.16653 178.851 4.94119 187.638C4.21951 192.958 3.75811 198.323 3.1429 203.654C2.5557 208.812 2.28708 213.998 2.3384 219.185C2.3384 220.951 1.95983 222.717 2.01898 224.484C2.18461 229.407 2.51588 234.319 2.74066 239.242C3.14286 246.382 4.1117 253.484 5.6392 260.491C7.07287 267.85 9.5391 275.002 12.9743 281.761C15.0299 286.049 17.9225 289.941 21.5043 293.241C22.1449 293.695 22.5696 294.365 22.6874 295.107C21.7764 295.283 21.3623 294.621 20.8418 294.191C18.1224 291.79 15.8159 289.012 14.0036 285.956C10.5979 280.4 8.02249 274.436 6.34904 268.228C4.22286 260.877 2.77813 253.37 2.03081 245.788C1.49842 240.577 1.27363 235.323 1.11983 230.08C0.966027 225.08 0.954197 220.079 1.11983 215.079C1.28546 210.079 1.71136 204.857 2.24375 199.769C2.78797 194.481 3.42684 189.194 4.32598 183.962C5.50906 177.085 6.83412 170.241 8.36029 163.431C10.8214 152.394 14.1307 141.538 18.2627 130.945C20.6288 124.94 23.4091 119.101 26 113.184L27.467 109.873C26.8755 109.508 26.4023 109.166 25.8935 108.912C22.8294 107.4 19.7415 105.954 16.7128 104.398C16.2744 104.079 15.7547 103.873 15.2049 103.8C14.6551 103.726 14.0942 103.788 13.5777 103.978C13.0571 103.128 12.5957 102.4 12.0397 101.517C12.3828 101.517 12.6667 101.439 12.856 101.517C13.9444 101.991 14.5951 101.517 15.2221 100.744C18.7714 96.5604 22.3206 92.4099 25.8699 88.2595L49.3422 60.8183C50.8092 59.0963 52.2526 57.3633 53.7433 55.5751C52.3354 54.1732 50.194 54.0187 48.6323 52.3408C49.1683 52.3311 49.7038 52.3755 50.2295 52.4733C50.9749 52.7603 51.6965 53.1245 52.43 53.4667C54.6897 54.5043 54.7962 54.4602 56.4407 52.5395C57.5646 51.1928 58.7122 49.8572 59.8598 48.5326C60.2265 48.1131 60.5696 47.5612 61.6226 47.9696C59.9781 50.4753 57.6238 52.3849 56.0029 55.0452C56.7128 55.4094 57.3398 55.7517 57.9905 56.0497C63.9059 58.8093 69.8213 61.5688 75.6421 64.3064C83.6397 68.0704 91.6492 71.8234 99.5876 75.6869C100.277 76.0724 101.06 76.2879 101.863 76.313C102.666 76.3381 103.463 76.172 104.178 75.8304C107.905 74.1636 111.679 72.5189 115.441 70.9625C116.305 70.5872 117.18 70.245 118.032 69.8587C118.683 69.5827 119.321 69.2626 120.138 68.8762C119.906 68.6388 119.648 68.4243 119.369 68.236C114.289 65.9621 109.206 63.6993 104.119 61.4475C94.3939 57.0984 84.665 52.7493 74.9322 48.4001C74.1269 47.9385 73.2084 47.6768 72.2641 47.6401C71.3197 47.6034 70.381 47.7929 69.5374 48.1904C67.92 48.855 66.2559 49.4155 64.5566 49.8682C64.9589 48.7644 65.7397 48.7644 66.2602 48.4664C67.8574 47.6937 69.8095 47.5723 70.9926 46.0379C71.0828 45.9412 71.2104 45.8816 71.3475 45.8723C75.5829 45.5964 79.1677 43.5102 83.0008 42.1745C90.9511 39.3929 98.8423 36.4898 106.733 33.6088C112.223 31.5998 117.689 29.5135 123.166 27.4604C123.282 27.3956 123.386 27.3136 123.474 27.2176C122.839 26.3531 121.905 25.7175 120.829 25.4163C119.753 25.115 118.599 25.1664 117.559 25.5618L81.2972 38.4987C74.3249 40.964 67.3408 43.4145 60.3448 45.8503C59.6941 46.0711 59.008 46.2035 58.3454 46.3801L58.1443 45.9165C58.6128 45.62 59.103 45.3544 59.6113 45.1217C65.4203 43.0024 71.2292 40.872 77.0618 38.7857C85.4853 35.7833 93.9443 32.8361 102.38 29.8558L115.89 25.0651C116.447 24.8664 117.003 24.6457 117.854 24.3145L115.488 22.3607C116.016 22.4555 116.528 22.6113 117.014 22.8243C117.702 23.2299 118.49 23.4633 119.302 23.5019C120.115 23.5406 120.924 23.3832 121.652 23.0451C125.887 21.4997 130.147 20.0206 134.406 18.5304L165.071 7.74596C166.976 7.07263 168.881 6.39932 170.774 5.7039C171.314 5.46654 171.839 5.20117 172.347 4.90911L169.236 3.13195C169.741 2.92574 170.297 2.84777 170.845 2.90592C171.393 2.96406 171.916 3.15626 172.359 3.46309C173.062 3.84658 173.86 4.0542 174.674 4.0658C175.489 4.07741 176.293 3.89259 177.008 3.52932C178.251 3.03259 179.505 2.54689 180.794 2.13848C181.556 1.90168 182.368 1.8411 183.16 1.96189C181.386 3.56245 178.842 3.71699 176.547 5.07471C178.369 5.86947 179.86 6.53173 181.374 7.17195C186.816 9.47528 192.254 11.7712 197.689 14.0599L216.168 21.853C218.393 22.7802 220.617 23.7184 222.829 24.7008C223.28 24.9159 223.778 25.028 224.284 25.028C224.79 25.028 225.289 24.9159 225.74 24.7008C232.175 22.0001 238.615 19.3104 245.059 16.6318C248.467 15.2189 251.878 13.8133 255.293 12.4152C255.895 12.2162 256.512 12.0576 257.138 11.9405C256.784 13.0443 255.955 13.2651 255.364 13.5411C250.844 15.4397 246.313 17.2941 241.794 19.1817C236.967 21.2054 232.148 23.2401 227.337 25.2859C227.039 25.4237 226.75 25.5785 226.473 25.7495C227.656 26.8533 271.43 45.4418 275.086 46.5015L275.642 45.5412C275.86 45.5832 276.072 45.6538 276.269 45.7509C276.884 46.2476 277.452 46.7775 278.091 47.2632C279.63 48.5088 281.381 49.505 283.273 50.2104C285.982 51.2038 288.608 52.418 291.259 53.5219C291.812 53.7778 292.424 53.9054 293.042 53.8938C293.66 53.8823 294.265 53.732 294.808 53.4557C296.653 52.6609 298.546 51.9544 300.439 51.248C301.115 50.9892 301.838 50.8543 302.569 50.8506C301.894 52.3077 300.368 52.4953 299.114 53.0583C297.86 53.6212 296.405 54.1622 294.595 54.8796C296.298 55.6634 297.635 56.2263 298.901 56.8886C300.167 57.5509 301.646 57.5288 302.45 58.721L302.261 59.1625C301.527 59.0003 300.804 58.7976 300.096 58.5554C298.286 57.8379 296.488 57.0984 294.737 56.2705C293.951 55.8685 293.045 55.7218 292.16 55.8537C291.275 55.9856 290.463 56.3886 289.851 56.999C290.631 57.7606 291.306 58.5112 292.087 59.2066C294.145 60.9507 296.275 62.6064 298.322 64.3615C300.83 66.4919 303.243 68.7106 305.739 70.8521C309.939 74.4395 314.163 77.9939 318.387 81.5593C320.043 82.9611 321.699 84.352 323.344 85.7759C325.71 87.8401 328.076 89.9042 330.442 92.0236C330.748 92.3947 331.189 92.6482 331.682 92.7357C332.175 92.8232 332.685 92.7387 333.116 92.4983C338.286 90.2906 343.503 88.0829 348.709 85.9525C349.457 85.6846 350.219 85.4525 350.992 85.2571C351.087 86.4382 350.294 86.5596 349.75 86.8025C346.485 88.1933 343.196 89.551 339.907 90.9308L325.438 97.0129C324.893 97.2447 324.397 97.5538 323.604 97.9733L326.136 100.391C324.61 100.744 323.994 99.8387 323.214 99.3641C322.817 99.0081 322.293 98.8011 321.743 98.7827C321.193 98.7644 320.655 98.936 320.232 99.2647C319.957 99.3951 319.748 99.6203 319.649 99.8924C319.549 100.165 319.568 100.462 319.7 100.722C319.948 101.307 320.161 101.903 320.445 102.477C322.296 106.49 323.714 110.664 324.681 114.939C326.291 121.155 327.554 127.444 328.466 133.782C329.439 140.17 329.764 146.631 329.436 153.077C328.699 166.034 326.578 178.891 323.107 191.457C321.619 197.46 319.69 203.361 317.334 209.118C316.151 211.812 314.885 214.472 313.595 217.121C311.832 220.742 310.046 224.351 308.224 227.972C308.098 228.263 307.991 228.562 307.904 228.866L307.822 228.788ZM164.113 106.053C165.095 106.55 165.71 106.892 166.349 107.157C171.389 109.519 176.429 111.859 181.457 114.233C182.131 114.542 183.03 114.685 183.231 115.657C182.202 116.164 181.457 115.557 180.723 115.204C175.104 112.555 169.484 109.862 163.864 107.19C163.226 106.892 162.563 106.66 161.782 106.34C161.451 107.146 161.191 107.72 160.978 108.316C159.313 112.996 157.653 117.68 155.997 122.368C153.264 130.095 150.543 137.888 147.775 145.626C146.142 150.196 144.426 154.732 142.782 159.291C142.522 160.009 141.906 160.726 142.439 161.631C144.249 161.3 145.101 159.424 147.171 159.126C145.763 161.101 143.314 161.72 142.297 163.74C142.727 164.084 143.182 164.401 143.657 164.689C145.633 165.66 147.633 166.621 149.632 167.559C151.821 168.574 151.998 168.663 153.122 166.632C157.689 158.441 162.173 150.196 166.668 141.972C169.449 136.894 172.181 131.806 174.95 126.728C175.033 126.563 175.281 126.474 175.447 126.342C169.046 140.118 161.9 153.485 154.388 167.095C155.157 166.874 155.571 166.808 155.89 166.665C158.126 165.76 160.374 164.854 162.599 163.938C172.714 159.766 182.841 155.626 192.945 151.432C200.788 148.209 208.467 144.897 216.168 141.652C224.734 137.987 233.276 134.267 241.853 130.614C246.585 128.605 251.247 126.651 255.955 124.697C263.397 121.628 270.862 118.593 278.304 115.502C284.125 113.085 289.933 110.623 295.742 108.173C302.549 105.317 309.348 102.451 316.139 99.5738C316.547 99.3593 316.942 99.1234 317.322 98.8674C316.221 96.2292 315.015 93.9222 312.412 92.2444C306.248 88.3258 300.262 84.1643 294.204 80.1022C293.743 79.7931 293.353 79.4068 292.927 79.0646C293.162 79.0036 293.41 78.9918 293.651 79.03C293.892 79.0681 294.122 79.1553 294.323 79.2854C296.156 80.4775 297.978 81.6917 299.8 82.8949C306.749 87.4354 313.694 91.9758 320.634 96.5162C320.974 96.7765 321.391 96.9331 321.829 96.9647C322.267 96.9963 322.705 96.9014 323.083 96.6928C324.964 95.8208 326.905 95.0481 328.798 94.2092C329.232 93.9684 329.647 93.6991 330.04 93.4034C329.401 92.7852 328.928 92.2995 328.384 91.8138C326.171 89.9484 323.912 88.127 321.711 86.2947C316.64 81.9456 311.568 77.5634 306.497 73.1481C300.924 68.3464 295.328 63.5557 289.803 58.6989C289.399 58.2354 288.836 57.9163 288.208 57.7957C287.581 57.675 286.928 57.7601 286.361 58.0366C283.994 59.03 281.474 59.9242 279.037 60.8845C272.223 63.5558 265.42 66.2601 258.605 68.9425C249.93 72.3202 241.297 75.6979 232.708 79.0756C231.894 79.4519 231.104 79.872 230.342 80.334C232.045 81.2061 233.335 81.8573 234.624 82.5417C235.914 83.2261 237.204 83.9325 238.517 84.6169C239.83 85.3013 241.179 85.8863 242.433 86.6259C243.687 87.3655 245.225 87.5089 246.124 88.9218C245.739 89.0167 245.335 89.0241 244.946 88.9434C244.557 88.8628 244.194 88.6964 243.888 88.4582C239.499 86.2506 235.098 83.9546 230.744 81.6144C230.186 81.2645 229.541 81.056 228.871 81.0096C228.201 80.9631 227.529 81.0803 226.923 81.3495C219.627 84.2931 212.315 87.1815 204.988 90.0147C192.984 94.7096 180.964 99.3935 168.928 104.066C167.473 104.64 166.029 105.281 164.113 106.053ZM30.2354 109.63C30.4445 109.833 30.6699 110.021 30.9098 110.193L53.8024 121.363C63.3617 126.014 72.9249 130.661 82.4921 135.305C92.3117 140.04 102.155 144.732 111.986 149.456L132.099 159.104C134.216 160.119 136.31 161.168 138.44 162.139C139.753 162.724 140.013 162.592 140.558 161.322C141.007 160.218 141.445 159.192 141.835 158.121C145.329 148.555 148.808 138.966 152.27 129.355C154.81 122.283 157.342 115.2 159.866 108.106C160.717 105.733 160.706 105.733 158.41 104.64C147.274 99.3862 136.133 94.1319 124.988 88.8777C118.631 85.8826 112.262 82.9096 105.882 79.9587C103.657 78.9211 103.515 78.9873 102.332 81.0625C101.469 82.641 100.641 84.2416 99.7533 85.798C95.1235 93.9664 90.4897 102.127 85.8521 110.281C82.9062 115.469 79.9367 120.69 77.05 125.878C76.6613 126.505 76.2388 127.113 75.784 127.699L75.3108 127.424C79.8065 119.321 84.1484 111.131 88.8334 103.139C92.1934 97.4103 101.847 80.036 102.167 78.325C99.8952 77.5413 98.2507 79.5393 96.2513 79.7269L96.0857 79.3516L100.286 77.2764C97.3043 75.8414 94.6779 74.5499 92.0041 73.2916L63.3144 59.7365C61.0192 58.6326 58.7004 57.595 56.4052 56.5022C56.2251 56.3852 56.0208 56.3046 55.8054 56.2656C55.5899 56.2266 55.3681 56.2301 55.1542 56.2758C54.9402 56.3215 54.7389 56.4085 54.5632 56.5311C54.3874 56.6538 54.2411 56.8094 54.1337 56.9879C51.8858 59.6923 49.5788 62.3416 47.3191 65.0239C42.5868 70.5798 37.8781 76.1358 33.1931 81.6917C27.8456 87.9836 22.4626 94.2423 17.1033 100.534C16.5709 101.152 16.1095 101.826 15.4588 102.687C19.8598 104.64 23.7403 106.881 27.9403 108.658L29.6794 106.616L30.0461 107.974C30.8506 107.279 30.969 106.109 32.3058 105.932L30.2354 109.63ZM169.898 49.4267C170.316 49.7747 170.759 50.0955 171.223 50.387C176.228 52.9369 181.232 55.4536 186.248 57.9925L202.338 66.1388C206.621 68.3464 210.927 70.4437 215.186 72.6845C215.669 72.9638 216.22 73.1236 216.787 73.1487C217.355 73.1738 217.919 73.0635 218.428 72.828C224.343 70.4658 230.259 68.1698 236.257 65.8628L266.118 54.2615C266.544 54.0959 266.911 53.842 267.621 53.4667C266.757 53.0804 266.177 52.8044 265.586 52.5616C258.298 49.618 251.01 46.6744 243.722 43.7309C234.021 39.8012 224.324 35.8569 214.63 31.8978C214.118 31.6588 213.553 31.5344 212.98 31.5344C212.407 31.5344 211.842 31.6588 211.33 31.8978C207.579 33.5205 203.782 35.0548 200.008 36.6222L171.211 48.6872C170.774 48.9097 170.351 49.1567 169.945 49.4267H169.898ZM166.408 49.5481L166.491 48.9962C165.887 48.643 165.308 48.2566 164.669 47.8924C162.646 46.8658 160.611 45.8613 158.588 44.8237L142.817 36.7216C138.416 34.5139 134.015 32.229 129.638 29.944C125.26 27.6591 126.207 27.6702 121.356 29.4142C112.507 32.6043 103.705 35.9378 94.8671 39.1721C88.7979 41.3797 82.7169 43.5874 76.6477 45.7951C75.926 46.06 75.2398 46.3801 74.1396 46.8989C75.4291 47.517 76.2573 47.9255 77.0973 48.3118C80.3389 49.7836 83.5805 51.2333 86.8222 52.6609C93.6249 55.6634 100.451 58.6327 107.254 61.6461C111.592 63.5815 115.93 65.5353 120.268 67.5075C120.754 67.7934 121.307 67.9648 121.88 68.0071C122.453 68.0494 123.029 67.9613 123.557 67.7503C129.472 65.2041 135.388 62.6911 141.303 60.2112C147.218 57.7496 153.075 55.3212 158.955 52.8596C161.451 51.7337 163.947 50.6299 166.479 49.5481H166.408ZM123.616 68.7327C124.491 69.1853 125.119 69.5385 125.769 69.8366C131.685 72.4637 137.529 75.0577 143.385 77.6958C152.187 81.6476 161.001 85.5772 169.744 89.6283C170.564 90.0587 171.484 90.2958 172.424 90.3188C173.364 90.3419 174.296 90.1503 175.139 89.7607C178.972 88.1491 182.888 86.7031 186.769 85.1908L214.169 74.4947C214.481 74.3237 214.775 74.124 215.044 73.8987C214.571 73.5896 214.275 73.3468 213.932 73.1702C210.383 71.3157 206.834 69.4613 203.285 67.651C198.292 65.1011 193.276 62.5844 188.283 60.0235C182.281 56.9548 176.295 53.8604 170.324 50.7403C169.777 50.4282 169.153 50.2539 168.512 50.2346C167.871 50.2152 167.236 50.3514 166.668 50.6298C161.356 52.8375 156.021 55.0452 150.709 57.3191L124.917 68.1256C124.551 68.2471 124.219 68.4347 123.616 68.7327ZM211.164 30.7057C210.099 30.1979 209.413 29.8226 208.68 29.5246L188.709 21.4335C182.06 18.7402 175.388 16.0689 168.751 13.3314C168.236 13.1052 167.675 12.9879 167.106 12.9879C166.537 12.9879 165.976 13.1052 165.462 13.3314C160.623 15.1527 155.737 16.8857 150.874 18.6629L128.325 26.9195C127.826 27.1476 127.344 27.4057 126.881 27.6922C127.627 28.1448 128.064 28.487 128.644 28.7961L140.475 34.7788C149.289 39.2493 158.115 43.6978 166.905 48.1904C167.299 48.4353 167.755 48.5813 168.227 48.6141C168.7 48.647 169.173 48.5657 169.602 48.3781C171.969 47.3736 174.335 46.4353 176.701 45.4419C181.646 43.3556 186.568 41.2252 191.525 39.15C197.275 36.7437 203.048 34.3815 208.81 31.9862C209.437 31.6109 210.111 31.2024 211.152 30.7057H211.164ZM162.232 105.159C164.148 104.905 225.172 81.0073 226.852 79.8925C226.13 79.4399 225.503 78.9984 224.817 78.6451C222.675 77.5413 220.475 76.5368 218.369 75.3336C217.959 75.0565 217.473 74.8947 216.968 74.8673C216.462 74.84 215.959 74.9482 215.518 75.1791C215.086 75.3674 214.644 75.5332 214.193 75.6758L177.742 89.827C176.618 90.2685 175.541 90.8094 174.406 91.2288C172.335 91.9795 170.241 92.6749 168.147 93.3703C168.029 93.3703 167.828 93.2047 167.378 92.9619L170.714 91.1737C170.04 90.8425 169.638 90.6328 169.212 90.4451L144.58 79.5282C137.482 76.3639 130.383 73.1812 123.285 69.9801C122.807 69.7461 122.275 69.6238 121.735 69.6238C121.195 69.6238 120.663 69.7461 120.185 69.9801C115.453 71.9339 110.72 73.8545 105.988 75.8193C105.323 76.1526 104.679 76.5212 104.06 76.9232C104.284 78.1594 105.243 78.3471 106 78.7004C114.226 82.6079 122.449 86.5044 130.667 90.3899C139.919 94.8053 149.178 99.1875 158.446 103.537C159.203 103.89 160.008 104.144 160.635 104.387C161.889 103.592 161.427 102.002 163.178 101.351L162.232 105.159ZM286.633 56.5906C286.503 56.2705 286.491 56.0607 286.361 55.9393C283.083 52.8265 279.901 49.5922 275.275 48.1462C274.96 48.0296 274.652 47.897 274.352 47.7489C266.39 44.3711 258.428 40.9713 250.466 37.6046C242.504 34.2379 234.258 30.8161 226.177 27.3611C225.615 27.0732 224.988 26.9123 224.347 26.8912C223.706 26.8701 223.069 26.9894 222.486 27.2396C220.392 28.1558 218.286 29.0278 216.204 29.944C215.761 30.1781 215.337 30.4438 214.938 30.7388C215.435 30.9706 215.719 31.1251 216.015 31.2465C220.25 32.9464 224.497 34.6243 228.721 36.3353L254.275 46.7334C258.807 48.5768 263.385 50.3539 267.905 52.2525C268.453 52.5159 269.062 52.6533 269.679 52.6533C270.296 52.6533 270.905 52.5159 271.454 52.2525C272.554 51.7668 273.69 51.3253 274.826 50.9169C275.485 50.7104 276.157 50.5373 276.837 50.3981L277.085 50.8838C276.671 51.2208 276.223 51.5201 275.748 51.7779C274.896 52.1753 273.974 52.4181 273.146 52.8817C272.306 53.3768 271.496 53.9148 270.72 54.4933C269.537 53.9965 268.188 54.7251 266.828 55.266C262.013 57.1535 257.209 59.0632 252.382 60.9397L220.439 73.3137C219.837 73.6105 219.252 73.9385 218.688 74.296C219.587 74.859 220.155 75.2784 220.794 75.6096C222.805 76.6472 224.9 77.5634 226.863 78.6893C227.397 79.0144 228.015 79.1993 228.652 79.2246C229.289 79.2499 229.922 79.1145 230.484 78.8328C236.162 76.5589 241.865 74.4175 247.556 72.1436L283.758 57.9262C284.692 57.4847 285.639 57.0431 286.633 56.5906V56.5906ZM169.224 12.084C169.981 12.4814 170.407 12.7684 170.892 12.9671L192.353 21.6653L211.022 29.2155C211.476 29.4946 211.993 29.6725 212.532 29.7356C213.072 29.7988 213.62 29.7455 214.133 29.5798C216.5 28.5753 218.866 27.626 221.232 26.6105C221.551 26.478 221.753 26.1358 222.096 25.8047C221.658 25.5618 221.386 25.3852 221.078 25.2527L206.432 19.0824C196.233 14.7774 186.039 10.4651 175.849 6.14539C175.397 5.94058 174.903 5.82958 174.4 5.82005C173.898 5.81052 173.399 5.90271 172.939 6.09022L121.912 24.0937C121.632 24.2249 121.363 24.3762 121.108 24.5463C123.202 26.191 125.142 26.9416 127.863 25.9151C139.552 21.4997 151.324 17.25 163.072 12.945C166.739 11.5984 170.411 10.2774 174.086 8.98225C174.397 8.77134 174.772 8.65779 175.157 8.65779C175.542 8.65779 175.916 8.77134 176.228 8.98225C174.051 10.4283 171.554 10.7595 169.224 12.1172V12.084ZM284.929 52.2084L284.598 52.683C285.355 53.3895 286.088 54.118 286.881 54.7913C288.324 56.0166 288.715 56.0166 290.821 54.703L284.929 52.2084ZM320.078 97.4655C319.308 96.637 318.291 96.0413 317.156 95.7545C318.209 98.5362 318.564 98.7239 320.078 97.5097V97.4655Z" stroke="#6895FF" stroke-width="2" mask="url(#path-1-outside-1)"/>
<path d="M65.6162 146.007L65.9312 145.596L65.5089 145.295L65.2604 145.119L64.9589 144.905L64.6658 145.13C64.2097 145.481 63.7902 145.873 63.4131 146.299L63.4047 146.309L63.3967 146.319C62.8453 147.01 62.2811 147.701 61.7145 148.396C60.1846 150.27 58.6365 152.166 57.2713 154.162C53.5032 159.593 50.0985 165.236 47.0765 171.059L47.0765 171.059L47.0736 171.065C40.051 185.043 35.0889 199.845 32.3227 215.067L32.3227 215.067L32.3213 215.075C31.3337 221.09 30.5435 227.117 29.951 233.154C29.4563 238.102 29.3073 243.079 29.1588 248.036L29.1442 248.521L29.1442 248.522C29.0905 250.374 29.2373 252.28 29.3783 254.109C29.4262 254.731 29.4733 255.343 29.5118 255.942C29.5548 256.611 29.5886 257.288 29.6227 257.969C29.7088 259.689 29.7962 261.436 30.0356 263.161C30.912 270.151 32.187 277.092 33.855 283.955L33.8557 283.957C36.2326 293.495 39.8521 302.725 44.633 311.441L44.6402 311.454L44.6483 311.467C44.9483 311.943 45.2819 312.401 45.6466 312.835L45.8853 313.12L46.2267 312.974L46.6644 312.786L47.0609 312.616L46.9509 312.199C46.8111 311.669 46.6335 311.149 46.4193 310.642L46.4147 310.631L46.4096 310.62C46.1091 309.993 45.7831 309.372 45.4624 308.762C45.3802 308.606 45.2983 308.45 45.2173 308.295C44.8175 307.53 44.4353 306.775 44.1127 306.007L44.1123 306.006C43.7383 305.12 43.3618 304.238 42.9857 303.356C41.43 299.709 39.8826 296.082 38.5635 292.382C36.3902 285.952 34.697 279.39 33.496 272.742L33.4954 272.739C32.3576 266.663 31.6686 260.521 31.4332 254.356L31.4332 254.356L31.4329 254.35C30.9809 245.28 31.332 236.19 32.4825 227.174L32.4829 227.17C33.5481 218.333 35.251 209.572 37.5799 200.949C39.5188 193.862 41.9495 186.9 44.8567 180.107L44.8575 180.106C47.5627 173.714 50.7773 167.521 54.4742 161.577C56.3301 158.657 58.3578 155.827 60.3928 152.987C60.9538 152.204 61.5153 151.42 62.0739 150.634C62.8594 149.586 63.6432 148.569 64.4294 147.55C64.8242 147.038 65.2197 146.525 65.6162 146.007Z" fill="#6895FF" stroke="#6895FF"/>
<path d="M208.06 324.838L208.436 324.569C208.575 324.469 208.719 324.363 208.866 324.254C209.27 323.955 209.701 323.636 210.155 323.374C212.903 321.771 215.657 320.184 218.408 318.599C219.638 317.891 220.866 317.183 222.094 316.474L222.344 316.907L222.094 316.474C224.858 314.877 227.622 313.279 230.386 311.68C236.965 307.874 243.544 304.069 250.134 300.291L250.136 300.29C254.011 298.093 257.887 295.963 261.759 293.835C262.619 293.362 263.479 292.89 264.338 292.417C266.305 291.331 268.272 290.258 270.238 289.187C272.543 287.93 274.847 286.674 277.15 285.397C277.922 284.968 278.695 284.539 279.468 284.11C284.461 281.338 289.457 278.565 294.391 275.71L294.392 275.709C295.996 274.783 297.561 273.792 299.127 272.789C299.359 272.641 299.591 272.492 299.823 272.343C301.155 271.488 302.492 270.63 303.847 269.809L303.848 269.809C309.662 266.298 315.493 262.82 321.339 259.375C323.925 257.847 326.557 256.387 329.172 254.952L329.175 254.95L329.175 254.95C329.254 254.907 329.327 254.861 329.417 254.804C329.458 254.778 329.502 254.75 329.552 254.719C329.696 254.629 329.874 254.525 330.075 254.453C330.281 254.378 330.52 254.332 330.786 254.365C331.052 254.397 331.312 254.503 331.569 254.683L331.84 254.873L331.771 255.197C331.627 255.867 331.219 256.267 330.791 256.538C330.584 256.669 330.366 256.775 330.173 256.867C330.146 256.879 330.12 256.892 330.094 256.904C329.927 256.983 329.783 257.051 329.65 257.126C328.053 258.052 326.45 258.957 324.85 259.859C322.328 261.282 319.815 262.7 317.355 264.185C314.549 265.88 311.758 267.614 308.965 269.349C304.978 271.827 300.984 274.309 296.93 276.684L208.06 324.838ZM208.06 324.838L208.298 325.234M208.06 324.838L208.298 325.234M208.298 325.234L208.57 325.686L208.757 325.997L209.11 325.916C209.601 325.803 210.079 325.646 210.536 325.445L210.556 325.436M208.298 325.234L210.556 325.436M210.556 325.436L210.574 325.426M210.556 325.436L210.574 325.426M210.574 325.426C212.509 324.374 214.418 323.268 216.32 322.165L216.322 322.165L216.324 322.163L210.574 325.426ZM261.281 296.056C258.642 297.502 256.002 298.948 253.376 300.416L274.112 289.559C272.257 290.601 270.389 291.625 268.524 292.648C267.818 293.036 267.112 293.423 266.407 293.811C266.407 293.811 266.406 293.811 266.406 293.811L266.165 293.373C264.539 294.271 262.91 295.163 261.281 296.056Z" fill="#6895FF" stroke="#6895FF"/>
<path d="M105.927 345.904L105.476 345.694L105.264 346.144L105.086 346.519L104.888 346.938L105.29 347.167C105.897 347.513 106.507 347.867 107.119 348.222C108.575 349.066 110.044 349.918 111.519 350.697C112.458 351.304 113.607 351.547 114.728 351.38C115.276 351.339 115.828 351.377 116.364 351.493L116.376 351.496L116.389 351.498C122.452 352.496 128.638 352.668 134.755 352.009L134.755 352.01L134.766 352.008C139.651 351.368 144.562 350.715 149.417 349.796L149.419 349.795C155.506 348.614 161.469 346.934 167.239 344.775C173.813 342.513 180.187 339.773 186.302 336.579L186.304 336.578C186.387 336.534 186.471 336.497 186.574 336.452C186.617 336.433 186.663 336.413 186.713 336.39C186.87 336.319 187.054 336.23 187.23 336.108C187.609 335.844 187.917 335.444 187.987 334.8L188.048 334.242L187.487 334.245C187.046 334.248 186.607 334.305 186.181 334.416L186.152 334.423L186.123 334.435C185.292 334.764 184.482 335.146 183.673 335.527C183.327 335.69 182.98 335.853 182.633 336.012L182.633 336.012L182.621 336.018C173.152 340.649 163.167 344.298 152.846 346.899L152.846 346.899L152.839 346.901C144.854 349.03 136.596 350.138 128.291 350.195C125.291 350.151 122.342 350.063 119.422 349.746L119.422 349.746L119.411 349.745C115.736 349.432 112.137 348.584 108.746 347.231C108.143 346.974 107.563 346.692 106.97 346.404C106.628 346.238 106.283 346.07 105.927 345.904ZM187.347 335.249C187.138 335.656 186.751 335.827 186.387 335.988C186.277 336.036 186.17 336.083 186.07 336.136L187.347 335.249Z" fill="#6895FF" stroke="#6895FF"/>
<path d="M212.26 306.749L212.26 306.749L195.26 297.422L212.26 306.749ZM212.26 306.749L212.269 306.753M212.26 306.749L212.269 306.753M212.269 306.753C212.613 306.934 212.993 307.083 213.445 307.261C213.664 307.347 213.899 307.439 214.155 307.545L214.346 307.083M212.269 306.753L214.346 307.083M214.346 307.083L214.835 306.975C214.729 306.497 214.496 306.055 214.161 305.689C213.837 305.335 213.427 305.063 212.97 304.894C208.758 302.516 204.521 300.138 200.272 297.803L200.272 297.803C192.037 293.285 183.795 288.773 175.544 284.27L175.544 284.269C170.914 281.745 166.287 279.232 161.665 276.73L161.663 276.729C159.858 275.761 158.063 274.784 156.271 273.808C153.906 272.522 151.548 271.238 149.181 269.984C148.458 269.595 147.709 269.24 146.975 268.892C146.595 268.712 146.22 268.533 145.854 268.354L145.452 268.156L145.211 268.534L144.986 268.887L144.722 269.303L145.133 269.573C145.793 270.007 146.445 270.451 147.1 270.897C148.57 271.898 150.059 272.912 151.69 273.85C152.879 274.533 154.121 275.139 155.351 275.732C155.44 275.775 155.53 275.819 155.619 275.862C156.762 276.412 157.89 276.956 158.974 277.552L158.975 277.553C171.073 284.176 183.168 290.799 195.259 297.422L214.346 307.083Z" fill="#6895FF" stroke="#6895FF"/>
<path d="M308.034 228.336L307.731 228.875L309.561 230.842C315.524 235.235 321.487 239.606 327.521 243.9L327.229 244.306C327.229 244.306 327.229 244.307 327.23 244.307C330.572 246.709 334.015 249.051 337.444 251.382C338.765 252.281 340.084 253.177 341.394 254.076C341.748 254.431 342.201 254.679 342.696 254.794C343.209 254.914 343.749 254.887 344.246 254.716L344.988 254.461L344.444 253.896C343.909 253.341 343.335 252.821 342.726 252.339L342.713 252.328L342.699 252.319C339.6 250.188 336.499 248.07 333.398 245.953C329.554 243.329 325.711 240.705 321.878 238.058C320.609 237.176 319.374 236.251 318.133 235.318C318.058 235.262 317.983 235.205 317.907 235.149C316.743 234.273 315.571 233.392 314.37 232.542L314.369 232.541C312.993 231.571 311.567 230.642 310.148 229.716C309.5 229.294 308.853 228.872 308.213 228.448L308.186 228.407L308.058 228.347L308.034 228.336Z" fill="#6895FF" stroke="#6895FF"/>
<path d="M106.351 17.1294L105.893 17.9877C107.096 19.0525 108.478 19.7834 109.868 20.4191C110.352 20.6408 110.832 20.8486 111.306 21.0542C112.216 21.4486 113.107 21.8347 113.977 22.2941L115.421 23.0573L114.651 21.6165C114.396 21.1382 113.998 20.7461 113.513 20.4846L113.513 20.4846L113.507 20.4815C113.429 20.4409 113.352 20.4004 113.274 20.3598C111.558 19.4644 109.875 18.5864 108.149 17.7385L108.135 17.7318L108.121 17.7259C107.547 17.4863 106.956 17.2869 106.351 17.1294Z" fill="#6895FF" stroke="#6895FF"/>
<path d="M67.5027 142.416L67.1224 142.121L66.8127 142.49L64.5525 145.184L64.9355 145.505L65.1338 145.964C66.3837 145.424 67.3994 144.489 67.9966 143.314L68.1834 142.946L67.8577 142.692L67.5027 142.416Z" fill="#6895FF" stroke="#6895FF"/>
<path d="M102.071 32.7986L101.665 32.9198L101.718 33.3403L101.765 33.7158L101.844 34.3424L102.436 34.1217L103.679 33.6578L104.16 33.4786L103.968 33.0028L103.862 32.7378L103.692 32.3148L103.255 32.4452L102.071 32.7986Z" fill="#6895FF" stroke="#6895FF"/>
<path d="M104.423 17.3226L106.117 17.9378L104.982 16.5378C104.803 16.3173 104.554 16.0164 104.204 15.8392C103.816 15.6427 103.369 15.6254 102.861 15.8236L101.623 16.306L102.872 16.7594L104.423 17.3226Z" fill="#6895FF" stroke="#6895FF"/>
<path d="M100.728 34.7583L101.198 34.485L100.887 34.0392L100.709 33.7851L100.448 33.413L100.053 33.6365L99.3301 34.0451L98.8604 34.3107L99.1609 34.7589L99.3387 35.024L99.5997 35.4133L100.005 35.1779L100.728 34.7583Z" fill="#6895FF" stroke="#6895FF"/>
<path d="M96.7747 343.775L97.232 344.018L97.4591 343.553L97.6369 343.188L97.8711 342.708L97.3762 342.506L96.4282 342.12L96.0115 341.95L95.7988 342.346L95.6566 342.611L95.4195 343.053L95.8621 343.289L96.7747 343.775Z" fill="#6895FF" stroke="#6895FF"/>
<path d="M104.38 17.3057L106.014 18.0678L106.226 17.6146L106.437 17.1615L104.803 16.3994L104.592 16.8525L104.38 17.3057Z" fill="#6895FF" stroke="#6895FF"/>
<path d="M87.5063 339.729L87.0297 339.59L86.8872 340.065L86.8042 340.342L86.6578 340.831L87.1495 340.968L87.908 341.178L88.3746 341.308L88.5189 340.845L88.6019 340.579L88.7537 340.093L88.2648 339.951L87.5063 339.729Z" fill="#6895FF" stroke="#6895FF"/>
<path d="M283.069 82.8896L283.084 82.8857C283.571 82.7549 284.07 82.665 284.574 82.617L285.163 82.561L285.12 83.1508C285.073 83.795 284.792 84.2058 284.409 84.4775C284.234 84.6018 284.048 84.6899 283.887 84.7595C283.817 84.7897 283.756 84.8148 283.701 84.8379C283.612 84.8744 283.536 84.9061 283.452 84.946L283.441 84.9515L283.429 84.9563C279.56 86.5624 275.683 88.1601 271.806 89.7575L271.804 89.7585L271.803 89.7586C267.926 91.3564 264.049 92.9539 260.181 94.5596L260.18 94.56C257.523 95.6573 254.895 96.7722 252.266 97.8877C250.21 98.7602 248.153 99.633 246.08 100.498C240.637 102.772 235.186 105.035 229.728 107.287L212.255 114.561L212.255 114.561C205.882 117.21 199.493 119.849 193.088 122.476C193.088 122.476 193.087 122.476 193.087 122.476L192.897 122.014C191.069 122.77 189.235 123.517 187.396 124.253L283.069 82.8896ZM283.069 82.8896L283.055 82.8943C279.937 83.9344 255.219 94.1846 231.141 104.347C219.094 109.432 207.194 114.5 198.219 118.392C193.731 120.337 189.972 121.99 187.291 123.203C185.95 123.81 184.875 124.309 184.112 124.68C183.731 124.865 183.423 125.022 183.197 125.145C183.084 125.206 182.986 125.263 182.907 125.312C182.842 125.353 182.747 125.416 182.676 125.492L183.042 125.833L283.069 82.8896Z" fill="#6895FF" stroke="#6895FF"/>
<path d="M91.9634 81.7329L92.8046 80.6437L91.4604 80.9389C90.1337 81.2303 88.8895 81.7898 87.8159 82.58L88.2863 83.4515C88.5645 83.3482 88.8576 83.2688 89.1711 83.1882C89.2139 83.1772 89.2574 83.1661 89.3012 83.1549C89.5701 83.0863 89.855 83.0136 90.1305 82.9251C90.781 82.716 91.4494 82.3983 91.9634 81.7329Z" fill="#6895FF" stroke="#6895FF"/>
<path d="M91.3469 80.9766L91.0664 81.1137V81.4258V81.459V81.9399L91.547 81.9586C92.1817 81.9833 92.8158 81.8875 93.4111 81.6765C94.0064 81.4655 94.5518 81.1431 95.0133 80.7272L95.2931 80.4751L95.128 80.1367L94.9506 79.7726L94.7312 79.3227L94.2816 79.5425L91.3469 80.9766Z" fill="#6895FF" stroke="#6895FF"/>
</svg>
