<svg width="347" height="373" viewBox="0 0 347 373" fill="none" xmlns="http://www.w3.org/2000/svg">
<mask id="path-1-outside-1" maskUnits="userSpaceOnUse" x="0" y="0.901367" width="347" height="326" fill="black">
<rect fill="white" y="0.901367" width="347" height="326"/>
<path d="M303.438 241.753C301.538 244.904 299.742 248.113 297.713 251.182C293.992 256.807 290.132 262.361 286.307 267.927C285.922 268.487 285.596 269.234 284.663 269.269C284.197 268.464 284.791 267.997 285.141 267.484C288.64 262.408 292.138 257.378 295.637 252.314C299.579 246.414 302.971 240.164 305.771 233.643C308.103 228.287 310.436 222.99 312.546 217.563C313.992 213.676 315.204 209.705 316.173 205.673C317.794 199.115 319.334 192.533 320.581 185.894C321.561 180.654 322.156 175.321 322.739 170.012C323.159 166.091 323.368 162.147 323.497 158.214C323.621 150.992 323.047 143.774 321.782 136.662C320.67 129.113 318.989 121.658 316.756 114.362C315.858 111.573 314.774 108.854 313.689 105.844C312.057 106.497 310.645 107.01 309.281 107.641C301.666 111.141 294.121 114.642 286.447 118.014C277.118 122.192 267.788 126.342 258.459 130.465C256.022 131.551 253.596 132.694 251.124 133.709C249.561 134.339 248.71 135.273 248.92 137.035C249.013 137.759 248.92 138.505 248.92 139.241C248.924 144.659 248.448 150.068 247.497 155.402C246.346 163.067 244.591 170.629 242.249 178.017C240.791 182.685 238.89 187.352 237.025 191.891C235.625 195.299 234.097 198.648 232.36 201.903C230.156 206.104 227.835 210.259 225.363 214.296C221.08 221.086 216.342 227.577 211.182 233.725C207.723 237.97 203.869 241.877 199.672 245.394C196.43 248.078 193.293 250.914 189.888 253.376C185.956 256.266 181.873 258.942 177.654 261.393C171.189 265.19 164.316 268.243 157.165 270.494C155.497 270.996 153.829 271.475 152.15 271.93C151.544 272.081 150.891 272.116 150.261 272.21L150.121 271.801C150.437 271.552 150.786 271.347 151.159 271.195C156.796 269.734 162.294 267.781 167.59 265.36C170.086 264.193 172.465 262.863 174.891 261.579C176.721 260.611 178.517 259.596 180.348 258.615C183.97 256.462 187.417 254.027 190.657 251.334C194.949 248.244 198.915 244.725 202.494 240.832C206.191 236.607 209.829 232.337 213.281 227.926C219.13 220.545 224.338 212.679 228.85 204.412C231.065 200.317 232.745 195.917 234.576 191.576C236.033 188.076 237.351 184.575 238.751 181.144C238.845 180.894 239.022 180.684 239.252 180.549C238.944 182.462 238.383 184.326 237.584 186.092C237.258 186.955 237.083 187.877 236.838 188.764L236.138 190.001L236.476 190.141L236.838 188.764C237.228 188.147 237.582 187.508 237.899 186.85C240.484 180.386 242.562 173.73 244.115 166.943C245.681 160.713 246.75 154.368 247.31 147.969C247.543 144.643 247.8 141.318 248.033 137.98C248.057 137.716 248.057 137.451 248.033 137.187C247.87 135.705 247.415 135.39 246.074 136.02C242.342 137.654 238.618 139.314 234.902 141.003C225.899 145.098 216.908 149.171 207.893 153.325C200.344 156.764 192.795 160.19 185.246 163.606C177.141 167.258 169.001 170.852 160.873 174.47L151.544 178.647C151.902 179.001 152.292 179.322 152.71 179.604C155.264 180.922 157.829 182.229 160.418 183.49C161.698 184.163 162.822 185.097 163.719 186.232C162.168 186.605 161.27 185.637 160.22 185.182C159.17 184.727 158.121 184.015 157.06 183.443C155.998 182.871 155.019 182.428 154.016 181.903C153.013 181.378 151.905 180.794 150.762 180.199L148.791 182.603L148.29 182.346L148.931 179.744C145.351 180.724 142.249 182.603 138.704 183.49C139.334 182.498 139.334 182.509 141.328 181.623L144.243 180.281L147.742 178.694C144.911 176.972 141.966 175.447 138.926 174.131C138.144 176.208 137.386 178.11 136.71 180.047C135.707 182.953 134.762 185.882 133.771 188.799C133.526 189.511 133.398 190.386 132.337 190.561C131.73 189.814 132.197 189.126 132.407 188.484C133.573 185.123 134.739 181.786 135.905 178.425C136.157 177.776 136.233 177.072 136.127 176.383C134.634 177.678 133.071 178.892 131.672 180.281C126.821 185.065 121.876 189.791 117.223 194.785C113.491 198.788 110.028 203.047 106.634 207.341C100.986 214.303 95.8676 221.679 91.3221 229.408C87.8772 235.232 84.9205 241.333 82.4825 247.646C79.8469 254.811 77.0597 261.929 75.7303 269.479C75.1589 272.688 74.9023 275.967 74.5641 279.223C74.2577 281.61 74.1368 284.017 74.2026 286.423C74.5058 291.09 74.3658 295.758 75.2055 300.426C76.0451 305.093 76.5816 309.761 77.3979 314.429C77.8411 316.996 78.5641 319.505 79.1588 322.048C79.3273 322.438 79.4014 322.862 79.3751 323.286C79.3488 323.71 79.2227 324.122 79.0073 324.487C78.6615 324.057 78.3679 323.587 78.1326 323.087C77.5682 321.372 77.101 319.627 76.7332 317.859C75.7769 312.456 74.9023 307.054 74.0743 301.639C73.0571 295.228 72.6665 288.732 72.9081 282.245C73.116 274.825 74.4006 267.474 76.7215 260.424C78.7274 254.589 80.6865 248.627 83.0656 242.92C86.3362 234.854 90.5439 227.201 95.602 220.119C98.6924 215.836 101.619 211.426 104.931 207.283C108.43 202.779 112.255 198.438 116.092 194.155C119.31 190.585 122.657 187.154 126.121 183.77C129.281 180.701 132.675 177.935 135.963 174.936C136.442 174.516 136.885 174.038 137.526 173.396C135.905 172.474 134.552 171.646 133.141 170.922C123.73 166.126 114.273 161.4 104.885 156.546C93.8994 150.863 82.9722 145.052 71.9985 139.322C64.4766 135.401 56.9198 131.516 49.3746 127.653C43.4504 124.572 37.5262 121.457 31.5904 118.318C29.258 117.151 29.4679 117.314 27.9169 119.205C23.9869 123.989 22.6108 129.905 20.4417 135.448C16.1074 146.909 12.5998 158.667 9.9461 170.63C7.78207 179.743 6.09272 188.963 4.88489 198.251C4.17352 203.876 3.7187 209.547 3.11229 215.183C2.53348 220.636 2.26869 226.118 2.31928 231.601C2.31928 233.468 1.94611 235.335 2.00442 237.202C2.16769 242.407 2.49422 247.6 2.71579 252.804C3.11225 260.352 4.06724 267.86 5.57293 275.267C6.98611 283.048 9.41711 290.608 12.8032 297.753C14.8295 302.286 17.6807 306.401 21.2114 309.889C21.8428 310.369 22.2614 311.077 22.3776 311.861C21.4796 312.048 21.0714 311.348 20.5583 310.893C17.8778 308.355 15.6042 305.419 13.8178 302.188C10.4608 296.314 7.92217 290.009 6.27263 283.447C4.17682 275.676 2.75273 267.739 2.01608 259.724C1.4913 254.216 1.26972 248.662 1.11812 243.119C0.966513 237.833 0.954851 232.547 1.11812 227.26C1.28138 221.974 1.7012 216.455 2.22598 211.075C2.76243 205.486 3.39217 199.896 4.27847 194.365C5.44465 187.095 6.75077 179.861 8.25515 172.661C10.681 160.994 13.9431 149.517 18.0161 138.319C20.3484 131.971 23.0889 125.798 25.6429 119.543L27.0889 116.042C26.5058 115.657 26.0394 115.296 25.5379 115.027C22.5175 113.429 19.4738 111.9 16.4884 110.254C16.0562 109.918 15.5439 109.7 15.002 109.623C14.46 109.545 13.9072 109.61 13.398 109.811C12.8849 108.913 12.4301 108.142 11.882 107.209C12.2202 107.209 12.5 107.127 12.6866 107.209C13.7595 107.711 14.4009 107.209 15.019 106.392C18.5175 101.969 22.016 97.5819 25.5146 93.1943L48.6516 64.1849C50.0977 62.3646 51.5204 60.5325 52.9898 58.6421C51.602 57.1602 49.4912 56.9968 47.9519 55.2231C48.4802 55.2128 49.008 55.2597 49.5262 55.3631C50.2609 55.6665 50.9723 56.0516 51.6953 56.4133C53.9227 57.5102 54.0277 57.4636 55.6487 55.4331C56.7565 54.0095 57.8877 52.5975 59.0189 51.1972C59.3804 50.7538 59.7186 50.1704 60.7565 50.6021C59.1355 53.251 56.8148 55.2697 55.2172 58.082C55.9169 58.467 56.535 58.8288 57.1764 59.1439C63.0073 62.0612 68.8382 64.9784 74.5758 67.8723C82.4591 71.8515 90.3542 75.819 98.1792 79.9032C98.8585 80.3108 99.6304 80.5386 100.422 80.5651C101.214 80.5917 101.999 80.4161 102.704 80.0549C106.377 78.2928 110.098 76.5542 113.806 74.9088C114.657 74.5121 115.52 74.1504 116.36 73.7419C117.001 73.4502 117.631 73.1118 118.436 72.7034C118.207 72.4524 117.953 72.2256 117.678 72.0265C112.671 69.6227 107.66 67.2306 102.646 64.8501C93.0597 60.2525 83.4698 55.6548 73.876 51.0572C73.0823 50.5692 72.1769 50.2926 71.246 50.2538C70.3152 50.215 69.3899 50.4152 68.5583 50.8355C66.964 51.538 65.3237 52.1306 63.6487 52.6092C64.0452 51.4422 64.8148 51.4423 65.328 51.1272C66.9023 50.3104 68.8265 50.182 69.9927 48.56C70.0816 48.4577 70.2074 48.3948 70.3425 48.385C74.5174 48.0932 78.051 45.8878 81.8294 44.4758C89.6661 41.5352 97.4445 38.4662 105.223 35.4206C110.634 33.2968 116.022 31.0914 121.421 28.9209C121.536 28.8524 121.638 28.7657 121.724 28.6642C121.098 27.7504 120.178 27.0784 119.117 26.76C118.057 26.4415 116.919 26.4959 115.893 26.9139L80.1501 40.59C73.2774 43.1961 66.3931 45.7867 59.4971 48.3617C58.8557 48.595 58.1793 48.7351 57.5262 48.9218L57.328 48.4317C57.7898 48.1182 58.273 47.8374 58.774 47.5915C64.5 45.351 70.2259 43.0989 75.9752 40.8934C84.2784 37.7194 92.6166 34.6038 100.931 31.4532L114.249 26.3887C114.797 26.1787 115.345 25.9453 116.185 25.5953L113.853 23.5298C114.373 23.6301 114.878 23.7947 115.357 24.0199C116.035 24.4486 116.811 24.6954 117.612 24.7362C118.413 24.7771 119.211 24.6108 119.928 24.2533C124.103 22.6196 128.302 21.056 132.5 19.4807L162.727 8.07994C164.605 7.36813 166.482 6.65634 168.348 5.92119C168.881 5.67026 169.398 5.38973 169.899 5.08098L166.832 3.20227C167.331 2.98428 167.878 2.90185 168.419 2.96332C168.959 3.02479 169.474 3.22796 169.911 3.55233C170.604 3.95773 171.39 4.17722 172.193 4.18949C172.996 4.20175 173.789 4.00638 174.494 3.62234C175.719 3.09723 176.955 2.58378 178.226 2.15202C178.977 1.9017 179.777 1.83766 180.558 1.96535C178.809 3.65737 176.302 3.82074 174.039 5.25604C175.835 6.09622 177.305 6.79632 178.797 7.47313C184.162 9.90808 189.522 12.3352 194.879 14.7546L213.095 22.9931C215.287 23.9733 217.479 24.9651 219.66 26.0036C220.104 26.231 220.596 26.3496 221.095 26.3496C221.593 26.3496 222.085 26.231 222.529 26.0036C228.873 23.1486 235.221 20.3052 241.573 17.4735C244.931 15.9799 248.294 14.494 251.66 13.0159C252.254 12.8056 252.862 12.6379 253.479 12.5142C253.13 13.6811 252.313 13.9145 251.73 14.2062C247.275 16.2133 242.809 18.1737 238.354 20.1691C233.596 22.3084 228.846 24.4595 224.103 26.6221C223.81 26.7678 223.525 26.9315 223.252 27.1122C224.418 28.2791 267.567 47.9299 271.17 49.0501L271.718 48.0349C271.934 48.0793 272.142 48.1539 272.336 48.2566C272.943 48.7817 273.503 49.3418 274.132 49.8553C275.649 51.1721 277.376 52.2252 279.24 52.9709C281.911 54.0211 284.5 55.3047 287.112 56.4716C287.658 56.7421 288.261 56.877 288.87 56.8648C289.479 56.8527 290.076 56.6937 290.611 56.4016C292.43 55.5614 294.296 54.8146 296.162 54.0678C296.828 53.7942 297.54 53.6516 298.261 53.6477C297.596 55.188 296.092 55.3864 294.855 55.9815C293.619 56.5767 292.185 57.1485 290.401 57.907C292.08 58.7355 293.398 59.3306 294.645 60.0308C295.893 60.7309 297.351 60.7075 298.144 61.9678L297.957 62.4346C297.234 62.2631 296.521 62.0488 295.823 61.7928C294.039 61.0343 292.266 60.2525 290.541 59.3773C289.766 58.9523 288.873 58.7973 288.001 58.9367C287.128 59.0762 286.328 59.5021 285.724 60.1474C286.494 60.9526 287.159 61.7461 287.928 62.4812C289.957 64.325 292.057 66.0753 294.074 67.9307C296.546 70.1828 298.925 72.5283 301.386 74.7921C305.526 78.5846 309.689 82.342 313.852 86.1111C315.485 87.5931 317.118 89.0634 318.739 90.5687C321.071 92.7509 323.403 94.933 325.736 97.1734C326.037 97.5658 326.472 97.8337 326.958 97.9262C327.444 98.0187 327.947 97.9294 328.371 97.6752C333.468 95.3414 338.61 93.0076 343.742 90.7554C344.479 90.4723 345.23 90.2269 345.992 90.0203C346.086 91.2689 345.304 91.3972 344.768 91.654C341.549 93.1243 338.307 94.5596 335.065 96.0182L320.803 102.448C320.266 102.693 319.777 103.02 318.995 103.463L321.491 106.019C319.987 106.392 319.38 105.435 318.61 104.933C318.219 104.557 317.703 104.338 317.161 104.319C316.619 104.299 316.089 104.481 315.672 104.828C315.401 104.966 315.195 105.204 315.097 105.492C314.999 105.78 315.017 106.094 315.147 106.369C315.392 106.987 315.602 107.617 315.882 108.224C317.706 112.466 319.104 116.879 320.057 121.398C321.644 127.969 322.889 134.618 323.788 141.318C324.747 148.072 325.068 154.901 324.745 161.715C324.017 175.413 321.927 189.005 318.506 202.289C317.038 208.635 315.137 214.873 312.815 220.959C311.648 223.806 310.401 226.619 309.129 229.419C307.392 233.247 305.631 237.062 303.835 240.89C303.711 241.198 303.606 241.514 303.52 241.835L303.438 241.753ZM161.783 112.005C162.751 112.53 163.357 112.892 163.987 113.172C168.955 115.669 173.923 118.143 178.879 120.652C179.544 120.978 180.43 121.13 180.628 122.157C179.614 122.694 178.879 122.052 178.156 121.679C172.616 118.878 167.077 116.031 161.538 113.207C160.908 112.892 160.255 112.647 159.485 112.308C159.159 113.16 158.902 113.767 158.692 114.397C157.052 119.345 155.415 124.296 153.783 129.252C151.089 137.42 148.407 145.658 145.678 153.839C144.068 158.67 142.377 163.466 140.756 168.285C140.5 169.043 139.893 169.802 140.418 170.759C142.203 170.409 143.042 168.425 145.083 168.11C143.695 170.199 141.281 170.852 140.278 172.988C140.702 173.352 141.15 173.687 141.619 173.991C143.567 175.018 145.538 176.033 147.509 177.025C149.666 178.099 149.841 178.192 150.949 176.045C155.45 167.386 159.87 158.67 164.302 149.976C167.042 144.608 169.736 139.229 172.465 133.861C172.547 133.686 172.791 133.593 172.955 133.453C166.646 148.016 159.602 162.147 152.197 176.535C152.955 176.302 153.363 176.231 153.678 176.08C155.882 175.123 158.098 174.166 160.29 173.198C170.261 168.787 180.243 164.411 190.202 159.976C197.934 156.569 205.503 153.068 213.095 149.638C221.538 145.764 229.958 141.831 238.412 137.969C243.077 135.845 247.672 133.779 252.313 131.714C259.648 128.47 267.007 125.261 274.342 121.994C280.08 119.438 285.806 116.836 291.532 114.245C298.241 111.227 304.943 108.197 311.637 105.155C312.039 104.928 312.429 104.679 312.803 104.408C311.718 101.619 310.529 99.1805 307.963 97.4068C301.887 93.2643 295.987 88.865 290.016 84.5708C289.561 84.2441 289.176 83.8357 288.756 83.4739C288.989 83.4094 289.232 83.397 289.47 83.4373C289.708 83.4776 289.934 83.5698 290.132 83.7073C291.94 84.9676 293.736 86.2512 295.532 87.5231C302.381 92.323 309.227 97.1229 316.068 101.923C316.403 102.198 316.814 102.363 317.246 102.397C317.678 102.43 318.109 102.33 318.482 102.109C320.336 101.188 322.249 100.371 324.115 99.4839C324.543 99.2294 324.952 98.9447 325.339 98.6321C324.71 97.9786 324.243 97.4651 323.707 96.9517C321.526 94.9796 319.298 93.0542 317.129 91.1172C312.13 86.5195 307.131 81.8869 302.132 77.2193C296.64 72.1432 291.124 67.0788 285.678 61.9444C285.279 61.4545 284.724 61.1172 284.105 60.9896C283.487 60.8621 282.844 60.952 282.284 61.2443C279.952 62.2945 277.468 63.2397 275.065 64.255C268.348 67.0789 261.643 69.9378 254.925 72.7734C246.373 76.3441 237.864 79.9149 229.398 83.4856C228.595 83.8833 227.816 84.3275 227.065 84.8159C228.745 85.7377 230.016 86.4262 231.287 87.1497C232.558 87.8732 233.829 88.62 235.124 89.3435C236.418 90.067 237.748 90.6855 238.984 91.4673C240.22 92.2491 241.736 92.4008 242.622 93.8944C242.242 93.9947 241.844 94.0025 241.461 93.9173C241.077 93.832 240.72 93.6561 240.418 93.4043C236.092 91.0705 231.753 88.6433 227.462 86.1695C226.912 85.7995 226.276 85.5791 225.616 85.53C224.955 85.4809 224.293 85.6048 223.695 85.8894C216.504 89.0012 209.297 92.0546 202.074 95.0497C190.241 100.013 178.393 104.965 166.529 109.904C165.095 110.511 163.672 111.188 161.783 112.005ZM29.8178 115.786C30.0239 116.001 30.2461 116.2 30.4825 116.381L53.0481 128.19C62.4708 133.106 71.8974 138.019 81.3279 142.928C91.0072 147.934 100.71 152.893 110.401 157.888L130.226 168.086C132.313 169.16 134.377 170.269 136.477 171.295C137.771 171.914 138.028 171.774 138.564 170.432C139.007 169.265 139.439 168.18 139.824 167.048C143.268 156.935 146.696 146.798 150.109 136.638C152.613 129.162 155.108 121.675 157.596 114.175C158.436 111.666 158.424 111.666 156.162 110.511C145.184 104.957 134.203 99.4022 123.217 93.8478C116.951 90.6815 110.673 87.5386 104.383 84.4191C102.191 83.3222 102.051 83.3922 100.885 85.586C100.033 87.2547 99.2171 88.9468 98.3425 90.5921C93.7789 99.2272 89.2113 107.855 84.6399 116.474C81.7361 121.959 78.809 127.478 75.9635 132.963C75.5805 133.625 75.164 134.268 74.7157 134.888L74.2492 134.596C78.6807 126.031 82.9606 117.373 87.5787 108.924C90.8906 102.868 100.407 84.5008 100.722 82.6921C98.4824 81.8636 96.8615 83.9757 94.8906 84.1741L94.7273 83.7773L98.8673 81.5835C95.9285 80.0665 93.3396 78.7013 90.704 77.371L62.4242 63.0413C60.1618 61.8744 57.8761 60.7775 55.6137 59.6223C55.4362 59.4985 55.2348 59.4133 55.0224 59.3721C54.81 59.3309 54.5914 59.3346 54.3805 59.3829C54.1697 59.4313 53.9712 59.5232 53.798 59.6528C53.6248 59.7825 53.4805 59.947 53.3746 60.1357C51.1589 62.9947 48.8848 65.7953 46.6574 68.6309C41.9927 74.5043 37.3513 80.3777 32.7332 86.2512C27.4621 92.9025 22.156 99.5189 16.8732 106.17C16.3484 106.824 15.8936 107.536 15.2522 108.446C19.5904 110.511 23.4155 112.88 27.5554 114.759L29.2697 112.6L29.6312 114.035C30.4242 113.3 30.5408 112.063 31.8586 111.877L29.8178 115.786ZM167.485 52.1424C167.897 52.5103 168.333 52.8495 168.791 53.1576C173.724 55.8532 178.657 58.5138 183.602 61.1977L199.462 69.8095C203.683 72.1433 207.928 74.3604 212.127 76.7292C212.602 77.0245 213.145 77.1935 213.705 77.22C214.264 77.2466 214.82 77.1299 215.322 76.8809C221.153 74.3837 226.984 71.9566 232.896 69.5177L262.331 57.2535C262.75 57.0785 263.112 56.81 263.812 56.4133C262.96 56.0049 262.389 55.7131 261.806 55.4564C254.622 52.3447 247.439 49.2329 240.255 46.1211C230.692 41.967 221.133 37.7972 211.579 33.6119C211.073 33.3593 210.516 33.2277 209.952 33.2277C209.387 33.2277 208.83 33.3593 208.325 33.6119C204.628 35.3273 200.885 36.9492 197.165 38.6062L168.78 51.3606C168.348 51.5959 167.932 51.857 167.532 52.1424H167.485ZM164.045 52.2708L164.127 51.6873C163.532 51.3139 162.961 50.9055 162.331 50.5204C160.337 49.4352 158.331 48.3733 156.337 47.2764L140.791 38.7113C136.453 36.3775 132.115 33.962 127.8 31.5465C123.485 29.131 124.418 29.1427 119.637 30.9864C110.914 34.3587 102.238 37.8828 93.5262 41.3018C87.5437 43.6356 81.5495 45.9694 75.567 48.3033C74.8557 48.5833 74.1793 48.9217 73.0947 49.4702C74.3658 50.1236 75.1822 50.5554 76.0102 50.9638C79.2055 52.5197 82.4008 54.0523 85.5962 55.5615C92.3017 58.7355 99.0306 61.8745 105.736 65.0601C110.012 67.1061 114.288 69.1715 118.564 71.2564C119.043 71.5586 119.589 71.7399 120.153 71.7846C120.718 71.8293 121.285 71.7361 121.806 71.5131C127.637 68.8214 133.468 66.1648 139.299 63.5432C145.13 60.941 150.902 58.3737 156.698 55.7715C159.159 54.5813 161.619 53.4144 164.115 52.2708H164.045ZM121.864 72.5517C122.727 73.0301 123.345 73.4035 123.987 73.7186C129.818 76.4958 135.579 79.238 141.351 82.027C150.028 86.2045 158.716 90.3587 167.334 94.6412C168.142 95.0962 169.048 95.3469 169.975 95.3713C170.902 95.3957 171.821 95.1931 172.651 94.7813C176.43 93.0776 180.29 91.5489 184.115 89.9502L211.124 78.6429C211.432 78.4621 211.721 78.251 211.987 78.0128C211.52 77.6861 211.229 77.4294 210.89 77.2427C207.392 75.2823 203.893 73.3218 200.395 71.4081C195.474 68.7126 190.529 66.052 185.608 63.3447C179.691 60.1007 173.79 56.8295 167.905 53.5311C167.366 53.2011 166.75 53.0169 166.119 52.9965C165.487 52.976 164.861 53.12 164.302 53.4143C159.065 55.7481 153.806 58.082 148.57 60.4858L123.147 71.9099C122.786 72.0382 122.459 72.2366 121.864 72.5517ZM208.162 32.3516C207.112 31.8149 206.436 31.4181 205.713 31.103L186.028 22.5496C179.474 19.7024 172.896 16.8784 166.354 13.9845C165.847 13.7454 165.294 13.6214 164.733 13.6214C164.173 13.6214 163.619 13.7454 163.112 13.9845C158.342 15.9099 153.526 17.742 148.733 19.6207L126.506 28.3491C126.014 28.5902 125.539 28.8631 125.083 29.166C125.818 29.6444 126.249 30.0062 126.821 30.3329L138.482 36.6575C147.17 41.3835 155.87 46.0862 164.535 50.8355C164.924 51.0944 165.373 51.2487 165.838 51.2834C166.304 51.3182 166.771 51.2322 167.194 51.0339C169.526 49.972 171.858 48.9801 174.191 47.9299C179.065 45.7245 183.917 43.4723 188.803 41.2785C194.471 38.7347 200.162 36.2375 205.841 33.7053C206.459 33.3085 207.124 32.8767 208.15 32.3516H208.162ZM159.928 111.06C161.818 110.791 221.969 85.5277 223.625 84.3491C222.914 83.8707 222.296 83.4039 221.619 83.0305C219.509 81.8636 217.339 80.8017 215.264 79.5298C214.86 79.2368 214.38 79.0658 213.882 79.0368C213.384 79.0079 212.888 79.1223 212.453 79.3664C212.028 79.5655 211.592 79.7407 211.147 79.8915L175.217 94.8513C174.109 95.318 173.048 95.8898 171.928 96.3333C169.888 97.1268 167.823 97.8619 165.759 98.5971C165.643 98.5971 165.444 98.4221 165.001 98.1653L168.29 96.2749C167.625 95.9249 167.229 95.7031 166.809 95.5047L142.529 83.9641C135.532 80.6189 128.535 77.2543 121.538 73.8703C121.067 73.6229 120.542 73.4937 120.01 73.4937C119.478 73.4937 118.954 73.6229 118.482 73.8703C113.818 75.9357 109.153 77.9661 104.488 80.0432C103.833 80.3955 103.198 80.7851 102.587 81.2101C102.809 82.517 103.754 82.7155 104.5 83.0889C112.609 87.2197 120.714 91.3389 128.815 95.4464C137.934 100.114 147.062 104.747 156.197 109.344C156.943 109.718 157.736 109.986 158.354 110.243C159.59 109.403 159.135 107.722 160.861 107.034L159.928 111.06ZM282.552 59.7157C282.424 59.3773 282.412 59.1555 282.284 59.0272C279.054 55.7365 275.917 52.3174 271.357 50.7888C271.046 50.6655 270.743 50.5253 270.447 50.3687C262.599 46.798 254.75 43.2039 246.902 39.6448C239.054 36.0857 230.925 32.4684 222.96 28.8159C222.406 28.5116 221.788 28.3415 221.156 28.3192C220.525 28.2969 219.896 28.423 219.322 28.6875C217.258 29.6561 215.182 30.5779 213.13 31.5465C212.693 31.7939 212.275 32.0748 211.882 32.3867C212.372 32.6317 212.651 32.795 212.943 32.9234C217.118 34.7204 221.304 36.4942 225.468 38.3029L250.657 49.2952C255.124 51.2439 259.637 53.1226 264.092 55.1297C264.633 55.4082 265.232 55.5534 265.841 55.5534C266.449 55.5534 267.049 55.4082 267.59 55.1297C268.675 54.6163 269.794 54.1495 270.914 53.7177C271.564 53.4995 272.226 53.3165 272.896 53.1693L273.141 53.6828C272.733 54.039 272.292 54.3555 271.823 54.628C270.984 55.048 270.074 55.3048 269.258 55.7949C268.43 56.3183 267.632 56.887 266.867 57.4985C265.701 56.9734 264.371 57.7436 263.03 58.3154C258.284 60.3108 253.549 62.3295 248.791 64.3133L217.304 77.3944C216.71 77.7082 216.134 78.0549 215.579 78.4329C216.465 79.028 217.025 79.4714 217.654 79.8215C219.637 80.9184 221.701 81.887 223.637 83.0772C224.163 83.4209 224.772 83.6164 225.4 83.6431C226.028 83.6698 226.652 83.5267 227.205 83.2289C232.803 80.8251 238.424 78.5613 244.033 76.1574L279.718 61.1277C280.64 60.6609 281.573 60.1941 282.552 59.7157V59.7157ZM166.821 12.6659C167.567 13.086 167.987 13.3894 168.465 13.5994L189.619 22.7946L208.022 30.7763C208.469 31.0713 208.979 31.2594 209.51 31.3262C210.042 31.3929 210.582 31.3366 211.089 31.1614C213.421 30.0995 215.753 29.096 218.086 28.0224C218.401 27.8824 218.599 27.5206 218.937 27.1706C218.506 26.9138 218.237 26.7271 217.934 26.5871L203.497 20.0641C193.444 15.5132 183.396 10.9544 173.351 6.38791C172.906 6.1714 172.418 6.05405 171.923 6.04398C171.428 6.0339 170.936 6.13136 170.482 6.32958L120.185 25.3619C119.909 25.5006 119.644 25.6605 119.392 25.8403C121.456 27.579 123.369 28.3725 126.051 27.2873C137.573 22.6197 149.176 18.1271 160.756 13.5761C164.372 12.1525 167.991 10.756 171.614 9.38687C171.92 9.16391 172.29 9.04387 172.669 9.04387C173.048 9.04387 173.418 9.16391 173.724 9.38687C171.579 10.9155 169.118 11.2656 166.821 12.7009V12.6659ZM280.873 55.0831L280.546 55.5848C281.293 56.3317 282.016 57.1018 282.797 57.8136C284.22 59.1089 284.605 59.1088 286.68 57.7202L280.873 55.0831ZM315.52 102.926C314.761 102.05 313.758 101.421 312.64 101.118C313.677 104.058 314.027 104.257 315.52 102.973V102.926Z"/>
</mask>
<path d="M303.438 241.753C301.538 244.904 299.742 248.113 297.713 251.182C293.992 256.807 290.132 262.361 286.307 267.927C285.922 268.487 285.596 269.234 284.663 269.269C284.197 268.464 284.791 267.997 285.141 267.484C288.64 262.408 292.138 257.378 295.637 252.314C299.579 246.414 302.971 240.164 305.771 233.643C308.103 228.287 310.436 222.99 312.546 217.563C313.992 213.676 315.204 209.705 316.173 205.673C317.794 199.115 319.334 192.533 320.581 185.894C321.561 180.654 322.156 175.321 322.739 170.012C323.159 166.091 323.368 162.147 323.497 158.214C323.621 150.992 323.047 143.774 321.782 136.662C320.67 129.113 318.989 121.658 316.756 114.362C315.858 111.573 314.774 108.854 313.689 105.844C312.057 106.497 310.645 107.01 309.281 107.641C301.666 111.141 294.121 114.642 286.447 118.014C277.118 122.192 267.788 126.342 258.459 130.465C256.022 131.551 253.596 132.694 251.124 133.709C249.561 134.339 248.71 135.273 248.92 137.035C249.013 137.759 248.92 138.505 248.92 139.241C248.924 144.659 248.448 150.068 247.497 155.402C246.346 163.067 244.591 170.629 242.249 178.017C240.791 182.685 238.89 187.352 237.025 191.891C235.625 195.299 234.097 198.648 232.36 201.903C230.156 206.104 227.835 210.259 225.363 214.296C221.08 221.086 216.342 227.577 211.182 233.725C207.723 237.97 203.869 241.877 199.672 245.394C196.43 248.078 193.293 250.914 189.888 253.376C185.956 256.266 181.873 258.942 177.654 261.393C171.189 265.19 164.316 268.243 157.165 270.494C155.497 270.996 153.829 271.475 152.15 271.93C151.544 272.081 150.891 272.116 150.261 272.21L150.121 271.801C150.437 271.552 150.786 271.347 151.159 271.195C156.796 269.734 162.294 267.781 167.59 265.36C170.086 264.193 172.465 262.863 174.891 261.579C176.721 260.611 178.517 259.596 180.348 258.615C183.97 256.462 187.417 254.027 190.657 251.334C194.949 248.244 198.915 244.725 202.494 240.832C206.191 236.607 209.829 232.337 213.281 227.926C219.13 220.545 224.338 212.679 228.85 204.412C231.065 200.317 232.745 195.917 234.576 191.576C236.033 188.076 237.351 184.575 238.751 181.144C238.845 180.894 239.022 180.684 239.252 180.549C238.944 182.462 238.383 184.326 237.584 186.092C237.258 186.955 237.083 187.877 236.838 188.764L236.138 190.001L236.476 190.141L236.838 188.764C237.228 188.147 237.582 187.508 237.899 186.85C240.484 180.386 242.562 173.73 244.115 166.943C245.681 160.713 246.75 154.368 247.31 147.969C247.543 144.643 247.8 141.318 248.033 137.98C248.057 137.716 248.057 137.451 248.033 137.187C247.87 135.705 247.415 135.39 246.074 136.02C242.342 137.654 238.618 139.314 234.902 141.003C225.899 145.098 216.908 149.171 207.893 153.325C200.344 156.764 192.795 160.19 185.246 163.606C177.141 167.258 169.001 170.852 160.873 174.47L151.544 178.647C151.902 179.001 152.292 179.322 152.71 179.604C155.264 180.922 157.829 182.229 160.418 183.49C161.698 184.163 162.822 185.097 163.719 186.232C162.168 186.605 161.27 185.637 160.22 185.182C159.17 184.727 158.121 184.015 157.06 183.443C155.998 182.871 155.019 182.428 154.016 181.903C153.013 181.378 151.905 180.794 150.762 180.199L148.791 182.603L148.29 182.346L148.931 179.744C145.351 180.724 142.249 182.603 138.704 183.49C139.334 182.498 139.334 182.509 141.328 181.623L144.243 180.281L147.742 178.694C144.911 176.972 141.966 175.447 138.926 174.131C138.144 176.208 137.386 178.11 136.71 180.047C135.707 182.953 134.762 185.882 133.771 188.799C133.526 189.511 133.398 190.386 132.337 190.561C131.73 189.814 132.197 189.126 132.407 188.484C133.573 185.123 134.739 181.786 135.905 178.425C136.157 177.776 136.233 177.072 136.127 176.383C134.634 177.678 133.071 178.892 131.672 180.281C126.821 185.065 121.876 189.791 117.223 194.785C113.491 198.788 110.028 203.047 106.634 207.341C100.986 214.303 95.8676 221.679 91.3221 229.408C87.8772 235.232 84.9205 241.333 82.4825 247.646C79.8469 254.811 77.0597 261.929 75.7303 269.479C75.1589 272.688 74.9023 275.967 74.5641 279.223C74.2577 281.61 74.1368 284.017 74.2026 286.423C74.5058 291.09 74.3658 295.758 75.2055 300.426C76.0451 305.093 76.5816 309.761 77.3979 314.429C77.8411 316.996 78.5641 319.505 79.1588 322.048C79.3273 322.438 79.4014 322.862 79.3751 323.286C79.3488 323.71 79.2227 324.122 79.0073 324.487C78.6615 324.057 78.3679 323.587 78.1326 323.087C77.5682 321.372 77.101 319.627 76.7332 317.859C75.7769 312.456 74.9023 307.054 74.0743 301.639C73.0571 295.228 72.6665 288.732 72.9081 282.245C73.116 274.825 74.4006 267.474 76.7215 260.424C78.7274 254.589 80.6865 248.627 83.0656 242.92C86.3362 234.854 90.5439 227.201 95.602 220.119C98.6924 215.836 101.619 211.426 104.931 207.283C108.43 202.779 112.255 198.438 116.092 194.155C119.31 190.585 122.657 187.154 126.121 183.77C129.281 180.701 132.675 177.935 135.963 174.936C136.442 174.516 136.885 174.038 137.526 173.396C135.905 172.474 134.552 171.646 133.141 170.922C123.73 166.126 114.273 161.4 104.885 156.546C93.8994 150.863 82.9722 145.052 71.9985 139.322C64.4766 135.401 56.9198 131.516 49.3746 127.653C43.4504 124.572 37.5262 121.457 31.5904 118.318C29.258 117.151 29.4679 117.314 27.9169 119.205C23.9869 123.989 22.6108 129.905 20.4417 135.448C16.1074 146.909 12.5998 158.667 9.9461 170.63C7.78207 179.743 6.09272 188.963 4.88489 198.251C4.17352 203.876 3.7187 209.547 3.11229 215.183C2.53348 220.636 2.26869 226.118 2.31928 231.601C2.31928 233.468 1.94611 235.335 2.00442 237.202C2.16769 242.407 2.49422 247.6 2.71579 252.804C3.11225 260.352 4.06724 267.86 5.57293 275.267C6.98611 283.048 9.41711 290.608 12.8032 297.753C14.8295 302.286 17.6807 306.401 21.2114 309.889C21.8428 310.369 22.2614 311.077 22.3776 311.861C21.4796 312.048 21.0714 311.348 20.5583 310.893C17.8778 308.355 15.6042 305.419 13.8178 302.188C10.4608 296.314 7.92217 290.009 6.27263 283.447C4.17682 275.676 2.75273 267.739 2.01608 259.724C1.4913 254.216 1.26972 248.662 1.11812 243.119C0.966513 237.833 0.954851 232.547 1.11812 227.26C1.28138 221.974 1.7012 216.455 2.22598 211.075C2.76243 205.486 3.39217 199.896 4.27847 194.365C5.44465 187.095 6.75077 179.861 8.25515 172.661C10.681 160.994 13.9431 149.517 18.0161 138.319C20.3484 131.971 23.0889 125.798 25.6429 119.543L27.0889 116.042C26.5058 115.657 26.0394 115.296 25.5379 115.027C22.5175 113.429 19.4738 111.9 16.4884 110.254C16.0562 109.918 15.5439 109.7 15.002 109.623C14.46 109.545 13.9072 109.61 13.398 109.811C12.8849 108.913 12.4301 108.142 11.882 107.209C12.2202 107.209 12.5 107.127 12.6866 107.209C13.7595 107.711 14.4009 107.209 15.019 106.392C18.5175 101.969 22.016 97.5819 25.5146 93.1943L48.6516 64.1849C50.0977 62.3646 51.5204 60.5325 52.9898 58.6421C51.602 57.1602 49.4912 56.9968 47.9519 55.2231C48.4802 55.2128 49.008 55.2597 49.5262 55.3631C50.2609 55.6665 50.9723 56.0516 51.6953 56.4133C53.9227 57.5102 54.0277 57.4636 55.6487 55.4331C56.7565 54.0095 57.8877 52.5975 59.0189 51.1972C59.3804 50.7538 59.7186 50.1704 60.7565 50.6021C59.1355 53.251 56.8148 55.2697 55.2172 58.082C55.9169 58.467 56.535 58.8288 57.1764 59.1439C63.0073 62.0612 68.8382 64.9784 74.5758 67.8723C82.4591 71.8515 90.3542 75.819 98.1792 79.9032C98.8585 80.3108 99.6304 80.5386 100.422 80.5651C101.214 80.5917 101.999 80.4161 102.704 80.0549C106.377 78.2928 110.098 76.5542 113.806 74.9088C114.657 74.5121 115.52 74.1504 116.36 73.7419C117.001 73.4502 117.631 73.1118 118.436 72.7034C118.207 72.4524 117.953 72.2256 117.678 72.0265C112.671 69.6227 107.66 67.2306 102.646 64.8501C93.0597 60.2525 83.4698 55.6548 73.876 51.0572C73.0823 50.5692 72.1769 50.2926 71.246 50.2538C70.3152 50.215 69.3899 50.4152 68.5583 50.8355C66.964 51.538 65.3237 52.1306 63.6487 52.6092C64.0452 51.4422 64.8148 51.4423 65.328 51.1272C66.9023 50.3104 68.8265 50.182 69.9927 48.56C70.0816 48.4577 70.2074 48.3948 70.3425 48.385C74.5174 48.0932 78.051 45.8878 81.8294 44.4758C89.6661 41.5352 97.4445 38.4662 105.223 35.4206C110.634 33.2968 116.022 31.0914 121.421 28.9209C121.536 28.8524 121.638 28.7657 121.724 28.6642C121.098 27.7504 120.178 27.0784 119.117 26.76C118.057 26.4415 116.919 26.4959 115.893 26.9139L80.1501 40.59C73.2774 43.1961 66.3931 45.7867 59.4971 48.3617C58.8557 48.595 58.1793 48.7351 57.5262 48.9218L57.328 48.4317C57.7898 48.1182 58.273 47.8374 58.774 47.5915C64.5 45.351 70.2259 43.0989 75.9752 40.8934C84.2784 37.7194 92.6166 34.6038 100.931 31.4532L114.249 26.3887C114.797 26.1787 115.345 25.9453 116.185 25.5953L113.853 23.5298C114.373 23.6301 114.878 23.7947 115.357 24.0199C116.035 24.4486 116.811 24.6954 117.612 24.7362C118.413 24.7771 119.211 24.6108 119.928 24.2533C124.103 22.6196 128.302 21.056 132.5 19.4807L162.727 8.07994C164.605 7.36813 166.482 6.65634 168.348 5.92119C168.881 5.67026 169.398 5.38973 169.899 5.08098L166.832 3.20227C167.331 2.98428 167.878 2.90185 168.419 2.96332C168.959 3.02479 169.474 3.22796 169.911 3.55233C170.604 3.95773 171.39 4.17722 172.193 4.18949C172.996 4.20175 173.789 4.00638 174.494 3.62234C175.719 3.09723 176.955 2.58378 178.226 2.15202C178.977 1.9017 179.777 1.83766 180.558 1.96535C178.809 3.65737 176.302 3.82074 174.039 5.25604C175.835 6.09622 177.305 6.79632 178.797 7.47313C184.162 9.90808 189.522 12.3352 194.879 14.7546L213.095 22.9931C215.287 23.9733 217.479 24.9651 219.66 26.0036C220.104 26.231 220.596 26.3496 221.095 26.3496C221.593 26.3496 222.085 26.231 222.529 26.0036C228.873 23.1486 235.221 20.3052 241.573 17.4735C244.931 15.9799 248.294 14.494 251.66 13.0159C252.254 12.8056 252.862 12.6379 253.479 12.5142C253.13 13.6811 252.313 13.9145 251.73 14.2062C247.275 16.2133 242.809 18.1737 238.354 20.1691C233.596 22.3084 228.846 24.4595 224.103 26.6221C223.81 26.7678 223.525 26.9315 223.252 27.1122C224.418 28.2791 267.567 47.9299 271.17 49.0501L271.718 48.0349C271.934 48.0793 272.142 48.1539 272.336 48.2566C272.943 48.7817 273.503 49.3418 274.132 49.8553C275.649 51.1721 277.376 52.2252 279.24 52.9709C281.911 54.0211 284.5 55.3047 287.112 56.4716C287.658 56.7421 288.261 56.877 288.87 56.8648C289.479 56.8527 290.076 56.6937 290.611 56.4016C292.43 55.5614 294.296 54.8146 296.162 54.0678C296.828 53.7942 297.54 53.6516 298.261 53.6477C297.596 55.188 296.092 55.3864 294.855 55.9815C293.619 56.5767 292.185 57.1485 290.401 57.907C292.08 58.7355 293.398 59.3306 294.645 60.0308C295.893 60.7309 297.351 60.7075 298.144 61.9678L297.957 62.4346C297.234 62.2631 296.521 62.0488 295.823 61.7928C294.039 61.0343 292.266 60.2525 290.541 59.3773C289.766 58.9523 288.873 58.7973 288.001 58.9367C287.128 59.0762 286.328 59.5021 285.724 60.1474C286.494 60.9526 287.159 61.7461 287.928 62.4812C289.957 64.325 292.057 66.0753 294.074 67.9307C296.546 70.1828 298.925 72.5283 301.386 74.7921C305.526 78.5846 309.689 82.342 313.852 86.1111C315.485 87.5931 317.118 89.0634 318.739 90.5687C321.071 92.7509 323.403 94.933 325.736 97.1734C326.037 97.5658 326.472 97.8337 326.958 97.9262C327.444 98.0187 327.947 97.9294 328.371 97.6752C333.468 95.3414 338.61 93.0076 343.742 90.7554C344.479 90.4723 345.23 90.2269 345.992 90.0203C346.086 91.2689 345.304 91.3972 344.768 91.654C341.549 93.1243 338.307 94.5596 335.065 96.0182L320.803 102.448C320.266 102.693 319.777 103.02 318.995 103.463L321.491 106.019C319.987 106.392 319.38 105.435 318.61 104.933C318.219 104.557 317.703 104.338 317.161 104.319C316.619 104.299 316.089 104.481 315.672 104.828C315.401 104.966 315.195 105.204 315.097 105.492C314.999 105.78 315.017 106.094 315.147 106.369C315.392 106.987 315.602 107.617 315.882 108.224C317.706 112.466 319.104 116.879 320.057 121.398C321.644 127.969 322.889 134.618 323.788 141.318C324.747 148.072 325.068 154.901 324.745 161.715C324.017 175.413 321.927 189.005 318.506 202.289C317.038 208.635 315.137 214.873 312.815 220.959C311.648 223.806 310.401 226.619 309.129 229.419C307.392 233.247 305.631 237.062 303.835 240.89C303.711 241.198 303.606 241.514 303.52 241.835L303.438 241.753ZM161.783 112.005C162.751 112.53 163.357 112.892 163.987 113.172C168.955 115.669 173.923 118.143 178.879 120.652C179.544 120.978 180.43 121.13 180.628 122.157C179.614 122.694 178.879 122.052 178.156 121.679C172.616 118.878 167.077 116.031 161.538 113.207C160.908 112.892 160.255 112.647 159.485 112.308C159.159 113.16 158.902 113.767 158.692 114.397C157.052 119.345 155.415 124.296 153.783 129.252C151.089 137.42 148.407 145.658 145.678 153.839C144.068 158.67 142.377 163.466 140.756 168.285C140.5 169.043 139.893 169.802 140.418 170.759C142.203 170.409 143.042 168.425 145.083 168.11C143.695 170.199 141.281 170.852 140.278 172.988C140.702 173.352 141.15 173.687 141.619 173.991C143.567 175.018 145.538 176.033 147.509 177.025C149.666 178.099 149.841 178.192 150.949 176.045C155.45 167.386 159.87 158.67 164.302 149.976C167.042 144.608 169.736 139.229 172.465 133.861C172.547 133.686 172.791 133.593 172.955 133.453C166.646 148.016 159.602 162.147 152.197 176.535C152.955 176.302 153.363 176.231 153.678 176.08C155.882 175.123 158.098 174.166 160.29 173.198C170.261 168.787 180.243 164.411 190.202 159.976C197.934 156.569 205.503 153.068 213.095 149.638C221.538 145.764 229.958 141.831 238.412 137.969C243.077 135.845 247.672 133.779 252.313 131.714C259.648 128.47 267.007 125.261 274.342 121.994C280.08 119.438 285.806 116.836 291.532 114.245C298.241 111.227 304.943 108.197 311.637 105.155C312.039 104.928 312.429 104.679 312.803 104.408C311.718 101.619 310.529 99.1805 307.963 97.4068C301.887 93.2643 295.987 88.865 290.016 84.5708C289.561 84.2441 289.176 83.8357 288.756 83.4739C288.989 83.4094 289.232 83.397 289.47 83.4373C289.708 83.4776 289.934 83.5698 290.132 83.7073C291.94 84.9676 293.736 86.2512 295.532 87.5231C302.381 92.323 309.227 97.1229 316.068 101.923C316.403 102.198 316.814 102.363 317.246 102.397C317.678 102.43 318.109 102.33 318.482 102.109C320.336 101.188 322.249 100.371 324.115 99.4839C324.543 99.2294 324.952 98.9447 325.339 98.6321C324.71 97.9786 324.243 97.4651 323.707 96.9517C321.526 94.9796 319.298 93.0542 317.129 91.1172C312.13 86.5195 307.131 81.8869 302.132 77.2193C296.64 72.1432 291.124 67.0788 285.678 61.9444C285.279 61.4545 284.724 61.1172 284.105 60.9896C283.487 60.8621 282.844 60.952 282.284 61.2443C279.952 62.2945 277.468 63.2397 275.065 64.255C268.348 67.0789 261.643 69.9378 254.925 72.7734C246.373 76.3441 237.864 79.9149 229.398 83.4856C228.595 83.8833 227.816 84.3275 227.065 84.8159C228.745 85.7377 230.016 86.4262 231.287 87.1497C232.558 87.8732 233.829 88.62 235.124 89.3435C236.418 90.067 237.748 90.6855 238.984 91.4673C240.22 92.2491 241.736 92.4008 242.622 93.8944C242.242 93.9947 241.844 94.0025 241.461 93.9173C241.077 93.832 240.72 93.6561 240.418 93.4043C236.092 91.0705 231.753 88.6433 227.462 86.1695C226.912 85.7995 226.276 85.5791 225.616 85.53C224.955 85.4809 224.293 85.6048 223.695 85.8894C216.504 89.0012 209.297 92.0546 202.074 95.0497C190.241 100.013 178.393 104.965 166.529 109.904C165.095 110.511 163.672 111.188 161.783 112.005ZM29.8178 115.786C30.0239 116.001 30.2461 116.2 30.4825 116.381L53.0481 128.19C62.4708 133.106 71.8974 138.019 81.3279 142.928C91.0072 147.934 100.71 152.893 110.401 157.888L130.226 168.086C132.313 169.16 134.377 170.269 136.477 171.295C137.771 171.914 138.028 171.774 138.564 170.432C139.007 169.265 139.439 168.18 139.824 167.048C143.268 156.935 146.696 146.798 150.109 136.638C152.613 129.162 155.108 121.675 157.596 114.175C158.436 111.666 158.424 111.666 156.162 110.511C145.184 104.957 134.203 99.4022 123.217 93.8478C116.951 90.6815 110.673 87.5386 104.383 84.4191C102.191 83.3222 102.051 83.3922 100.885 85.586C100.033 87.2547 99.2171 88.9468 98.3425 90.5921C93.7789 99.2272 89.2113 107.855 84.6399 116.474C81.7361 121.959 78.809 127.478 75.9635 132.963C75.5805 133.625 75.164 134.268 74.7157 134.888L74.2492 134.596C78.6807 126.031 82.9606 117.373 87.5787 108.924C90.8906 102.868 100.407 84.5008 100.722 82.6921C98.4824 81.8636 96.8615 83.9757 94.8906 84.1741L94.7273 83.7773L98.8673 81.5835C95.9285 80.0665 93.3396 78.7013 90.704 77.371L62.4242 63.0413C60.1618 61.8744 57.8761 60.7775 55.6137 59.6223C55.4362 59.4985 55.2348 59.4133 55.0224 59.3721C54.81 59.3309 54.5914 59.3346 54.3805 59.3829C54.1697 59.4313 53.9712 59.5232 53.798 59.6528C53.6248 59.7825 53.4805 59.947 53.3746 60.1357C51.1589 62.9947 48.8848 65.7953 46.6574 68.6309C41.9927 74.5043 37.3513 80.3777 32.7332 86.2512C27.4621 92.9025 22.156 99.5189 16.8732 106.17C16.3484 106.824 15.8936 107.536 15.2522 108.446C19.5904 110.511 23.4155 112.88 27.5554 114.759L29.2697 112.6L29.6312 114.035C30.4242 113.3 30.5408 112.063 31.8586 111.877L29.8178 115.786ZM167.485 52.1424C167.897 52.5103 168.333 52.8495 168.791 53.1576C173.724 55.8532 178.657 58.5138 183.602 61.1977L199.462 69.8095C203.683 72.1433 207.928 74.3604 212.127 76.7292C212.602 77.0245 213.145 77.1935 213.705 77.22C214.264 77.2466 214.82 77.1299 215.322 76.8809C221.153 74.3837 226.984 71.9566 232.896 69.5177L262.331 57.2535C262.75 57.0785 263.112 56.81 263.812 56.4133C262.96 56.0049 262.389 55.7131 261.806 55.4564C254.622 52.3447 247.439 49.2329 240.255 46.1211C230.692 41.967 221.133 37.7972 211.579 33.6119C211.073 33.3593 210.516 33.2277 209.952 33.2277C209.387 33.2277 208.83 33.3593 208.325 33.6119C204.628 35.3273 200.885 36.9492 197.165 38.6062L168.78 51.3606C168.348 51.5959 167.932 51.857 167.532 52.1424H167.485ZM164.045 52.2708L164.127 51.6873C163.532 51.3139 162.961 50.9055 162.331 50.5204C160.337 49.4352 158.331 48.3733 156.337 47.2764L140.791 38.7113C136.453 36.3775 132.115 33.962 127.8 31.5465C123.485 29.131 124.418 29.1427 119.637 30.9864C110.914 34.3587 102.238 37.8828 93.5262 41.3018C87.5437 43.6356 81.5495 45.9694 75.567 48.3033C74.8557 48.5833 74.1793 48.9217 73.0947 49.4702C74.3658 50.1236 75.1822 50.5554 76.0102 50.9638C79.2055 52.5197 82.4008 54.0523 85.5962 55.5615C92.3017 58.7355 99.0306 61.8745 105.736 65.0601C110.012 67.1061 114.288 69.1715 118.564 71.2564C119.043 71.5586 119.589 71.7399 120.153 71.7846C120.718 71.8293 121.285 71.7361 121.806 71.5131C127.637 68.8214 133.468 66.1648 139.299 63.5432C145.13 60.941 150.902 58.3737 156.698 55.7715C159.159 54.5813 161.619 53.4144 164.115 52.2708H164.045ZM121.864 72.5517C122.727 73.0301 123.345 73.4035 123.987 73.7186C129.818 76.4958 135.579 79.238 141.351 82.027C150.028 86.2045 158.716 90.3587 167.334 94.6412C168.142 95.0962 169.048 95.3469 169.975 95.3713C170.902 95.3957 171.821 95.1931 172.651 94.7813C176.43 93.0776 180.29 91.5489 184.115 89.9502L211.124 78.6429C211.432 78.4621 211.721 78.251 211.987 78.0128C211.52 77.6861 211.229 77.4294 210.89 77.2427C207.392 75.2823 203.893 73.3218 200.395 71.4081C195.474 68.7126 190.529 66.052 185.608 63.3447C179.691 60.1007 173.79 56.8295 167.905 53.5311C167.366 53.2011 166.75 53.0169 166.119 52.9965C165.487 52.976 164.861 53.12 164.302 53.4143C159.065 55.7481 153.806 58.082 148.57 60.4858L123.147 71.9099C122.786 72.0382 122.459 72.2366 121.864 72.5517ZM208.162 32.3516C207.112 31.8149 206.436 31.4181 205.713 31.103L186.028 22.5496C179.474 19.7024 172.896 16.8784 166.354 13.9845C165.847 13.7454 165.294 13.6214 164.733 13.6214C164.173 13.6214 163.619 13.7454 163.112 13.9845C158.342 15.9099 153.526 17.742 148.733 19.6207L126.506 28.3491C126.014 28.5902 125.539 28.8631 125.083 29.166C125.818 29.6444 126.249 30.0062 126.821 30.3329L138.482 36.6575C147.17 41.3835 155.87 46.0862 164.535 50.8355C164.924 51.0944 165.373 51.2487 165.838 51.2834C166.304 51.3182 166.771 51.2322 167.194 51.0339C169.526 49.972 171.858 48.9801 174.191 47.9299C179.065 45.7245 183.917 43.4723 188.803 41.2785C194.471 38.7347 200.162 36.2375 205.841 33.7053C206.459 33.3085 207.124 32.8767 208.15 32.3516H208.162ZM159.928 111.06C161.818 110.791 221.969 85.5277 223.625 84.3491C222.914 83.8707 222.296 83.4039 221.619 83.0305C219.509 81.8636 217.339 80.8017 215.264 79.5298C214.86 79.2368 214.38 79.0658 213.882 79.0368C213.384 79.0079 212.888 79.1223 212.453 79.3664C212.028 79.5655 211.592 79.7407 211.147 79.8915L175.217 94.8513C174.109 95.318 173.048 95.8898 171.928 96.3333C169.888 97.1268 167.823 97.8619 165.759 98.5971C165.643 98.5971 165.444 98.4221 165.001 98.1653L168.29 96.2749C167.625 95.9249 167.229 95.7031 166.809 95.5047L142.529 83.9641C135.532 80.6189 128.535 77.2543 121.538 73.8703C121.067 73.6229 120.542 73.4937 120.01 73.4937C119.478 73.4937 118.954 73.6229 118.482 73.8703C113.818 75.9357 109.153 77.9661 104.488 80.0432C103.833 80.3955 103.198 80.7851 102.587 81.2101C102.809 82.517 103.754 82.7155 104.5 83.0889C112.609 87.2197 120.714 91.3389 128.815 95.4464C137.934 100.114 147.062 104.747 156.197 109.344C156.943 109.718 157.736 109.986 158.354 110.243C159.59 109.403 159.135 107.722 160.861 107.034L159.928 111.06ZM282.552 59.7157C282.424 59.3773 282.412 59.1555 282.284 59.0272C279.054 55.7365 275.917 52.3174 271.357 50.7888C271.046 50.6655 270.743 50.5253 270.447 50.3687C262.599 46.798 254.75 43.2039 246.902 39.6448C239.054 36.0857 230.925 32.4684 222.96 28.8159C222.406 28.5116 221.788 28.3415 221.156 28.3192C220.525 28.2969 219.896 28.423 219.322 28.6875C217.258 29.6561 215.182 30.5779 213.13 31.5465C212.693 31.7939 212.275 32.0748 211.882 32.3867C212.372 32.6317 212.651 32.795 212.943 32.9234C217.118 34.7204 221.304 36.4942 225.468 38.3029L250.657 49.2952C255.124 51.2439 259.637 53.1226 264.092 55.1297C264.633 55.4082 265.232 55.5534 265.841 55.5534C266.449 55.5534 267.049 55.4082 267.59 55.1297C268.675 54.6163 269.794 54.1495 270.914 53.7177C271.564 53.4995 272.226 53.3165 272.896 53.1693L273.141 53.6828C272.733 54.039 272.292 54.3555 271.823 54.628C270.984 55.048 270.074 55.3048 269.258 55.7949C268.43 56.3183 267.632 56.887 266.867 57.4985C265.701 56.9734 264.371 57.7436 263.03 58.3154C258.284 60.3108 253.549 62.3295 248.791 64.3133L217.304 77.3944C216.71 77.7082 216.134 78.0549 215.579 78.4329C216.465 79.028 217.025 79.4714 217.654 79.8215C219.637 80.9184 221.701 81.887 223.637 83.0772C224.163 83.4209 224.772 83.6164 225.4 83.6431C226.028 83.6698 226.652 83.5267 227.205 83.2289C232.803 80.8251 238.424 78.5613 244.033 76.1574L279.718 61.1277C280.64 60.6609 281.573 60.1941 282.552 59.7157V59.7157ZM166.821 12.6659C167.567 13.086 167.987 13.3894 168.465 13.5994L189.619 22.7946L208.022 30.7763C208.469 31.0713 208.979 31.2594 209.51 31.3262C210.042 31.3929 210.582 31.3366 211.089 31.1614C213.421 30.0995 215.753 29.096 218.086 28.0224C218.401 27.8824 218.599 27.5206 218.937 27.1706C218.506 26.9138 218.237 26.7271 217.934 26.5871L203.497 20.0641C193.444 15.5132 183.396 10.9544 173.351 6.38791C172.906 6.1714 172.418 6.05405 171.923 6.04398C171.428 6.0339 170.936 6.13136 170.482 6.32958L120.185 25.3619C119.909 25.5006 119.644 25.6605 119.392 25.8403C121.456 27.579 123.369 28.3725 126.051 27.2873C137.573 22.6197 149.176 18.1271 160.756 13.5761C164.372 12.1525 167.991 10.756 171.614 9.38687C171.92 9.16391 172.29 9.04387 172.669 9.04387C173.048 9.04387 173.418 9.16391 173.724 9.38687C171.579 10.9155 169.118 11.2656 166.821 12.7009V12.6659ZM280.873 55.0831L280.546 55.5848C281.293 56.3317 282.016 57.1018 282.797 57.8136C284.22 59.1089 284.605 59.1088 286.68 57.7202L280.873 55.0831ZM315.52 102.926C314.761 102.05 313.758 101.421 312.64 101.118C313.677 104.058 314.027 104.257 315.52 102.973V102.926Z" fill="#6895FF"/>
<path d="M303.438 241.753C301.538 244.904 299.742 248.113 297.713 251.182C293.992 256.807 290.132 262.361 286.307 267.927C285.922 268.487 285.596 269.234 284.663 269.269C284.197 268.464 284.791 267.997 285.141 267.484C288.64 262.408 292.138 257.378 295.637 252.314C299.579 246.414 302.971 240.164 305.771 233.643C308.103 228.287 310.436 222.99 312.546 217.563C313.992 213.676 315.204 209.705 316.173 205.673C317.794 199.115 319.334 192.533 320.581 185.894C321.561 180.654 322.156 175.321 322.739 170.012C323.159 166.091 323.368 162.147 323.497 158.214C323.621 150.992 323.047 143.774 321.782 136.662C320.67 129.113 318.989 121.658 316.756 114.362C315.858 111.573 314.774 108.854 313.689 105.844C312.057 106.497 310.645 107.01 309.281 107.641C301.666 111.141 294.121 114.642 286.447 118.014C277.118 122.192 267.788 126.342 258.459 130.465C256.022 131.551 253.596 132.694 251.124 133.709C249.561 134.339 248.71 135.273 248.92 137.035C249.013 137.759 248.92 138.505 248.92 139.241C248.924 144.659 248.448 150.068 247.497 155.402C246.346 163.067 244.591 170.629 242.249 178.017C240.791 182.685 238.89 187.352 237.025 191.891C235.625 195.299 234.097 198.648 232.36 201.903C230.156 206.104 227.835 210.259 225.363 214.296C221.08 221.086 216.342 227.577 211.182 233.725C207.723 237.97 203.869 241.877 199.672 245.394C196.43 248.078 193.293 250.914 189.888 253.376C185.956 256.266 181.873 258.942 177.654 261.393C171.189 265.19 164.316 268.243 157.165 270.494C155.497 270.996 153.829 271.475 152.15 271.93C151.544 272.081 150.891 272.116 150.261 272.21L150.121 271.801C150.437 271.552 150.786 271.347 151.159 271.195C156.796 269.734 162.294 267.781 167.59 265.36C170.086 264.193 172.465 262.863 174.891 261.579C176.721 260.611 178.517 259.596 180.348 258.615C183.97 256.462 187.417 254.027 190.657 251.334C194.949 248.244 198.915 244.725 202.494 240.832C206.191 236.607 209.829 232.337 213.281 227.926C219.13 220.545 224.338 212.679 228.85 204.412C231.065 200.317 232.745 195.917 234.576 191.576C236.033 188.076 237.351 184.575 238.751 181.144C238.845 180.894 239.022 180.684 239.252 180.549C238.944 182.462 238.383 184.326 237.584 186.092C237.258 186.955 237.083 187.877 236.838 188.764L236.138 190.001L236.476 190.141L236.838 188.764C237.228 188.147 237.582 187.508 237.899 186.85C240.484 180.386 242.562 173.73 244.115 166.943C245.681 160.713 246.75 154.368 247.31 147.969C247.543 144.643 247.8 141.318 248.033 137.98C248.057 137.716 248.057 137.451 248.033 137.187C247.87 135.705 247.415 135.39 246.074 136.02C242.342 137.654 238.618 139.314 234.902 141.003C225.899 145.098 216.908 149.171 207.893 153.325C200.344 156.764 192.795 160.19 185.246 163.606C177.141 167.258 169.001 170.852 160.873 174.47L151.544 178.647C151.902 179.001 152.292 179.322 152.71 179.604C155.264 180.922 157.829 182.229 160.418 183.49C161.698 184.163 162.822 185.097 163.719 186.232C162.168 186.605 161.27 185.637 160.22 185.182C159.17 184.727 158.121 184.015 157.06 183.443C155.998 182.871 155.019 182.428 154.016 181.903C153.013 181.378 151.905 180.794 150.762 180.199L148.791 182.603L148.29 182.346L148.931 179.744C145.351 180.724 142.249 182.603 138.704 183.49C139.334 182.498 139.334 182.509 141.328 181.623L144.243 180.281L147.742 178.694C144.911 176.972 141.966 175.447 138.926 174.131C138.144 176.208 137.386 178.11 136.71 180.047C135.707 182.953 134.762 185.882 133.771 188.799C133.526 189.511 133.398 190.386 132.337 190.561C131.73 189.814 132.197 189.126 132.407 188.484C133.573 185.123 134.739 181.786 135.905 178.425C136.157 177.776 136.233 177.072 136.127 176.383C134.634 177.678 133.071 178.892 131.672 180.281C126.821 185.065 121.876 189.791 117.223 194.785C113.491 198.788 110.028 203.047 106.634 207.341C100.986 214.303 95.8676 221.679 91.3221 229.408C87.8772 235.232 84.9205 241.333 82.4825 247.646C79.8469 254.811 77.0597 261.929 75.7303 269.479C75.1589 272.688 74.9023 275.967 74.5641 279.223C74.2577 281.61 74.1368 284.017 74.2026 286.423C74.5058 291.09 74.3658 295.758 75.2055 300.426C76.0451 305.093 76.5816 309.761 77.3979 314.429C77.8411 316.996 78.5641 319.505 79.1588 322.048C79.3273 322.438 79.4014 322.862 79.3751 323.286C79.3488 323.71 79.2227 324.122 79.0073 324.487C78.6615 324.057 78.3679 323.587 78.1326 323.087C77.5682 321.372 77.101 319.627 76.7332 317.859C75.7769 312.456 74.9023 307.054 74.0743 301.639C73.0571 295.228 72.6665 288.732 72.9081 282.245C73.116 274.825 74.4006 267.474 76.7215 260.424C78.7274 254.589 80.6865 248.627 83.0656 242.92C86.3362 234.854 90.5439 227.201 95.602 220.119C98.6924 215.836 101.619 211.426 104.931 207.283C108.43 202.779 112.255 198.438 116.092 194.155C119.31 190.585 122.657 187.154 126.121 183.77C129.281 180.701 132.675 177.935 135.963 174.936C136.442 174.516 136.885 174.038 137.526 173.396C135.905 172.474 134.552 171.646 133.141 170.922C123.73 166.126 114.273 161.4 104.885 156.546C93.8994 150.863 82.9722 145.052 71.9985 139.322C64.4766 135.401 56.9198 131.516 49.3746 127.653C43.4504 124.572 37.5262 121.457 31.5904 118.318C29.258 117.151 29.4679 117.314 27.9169 119.205C23.9869 123.989 22.6108 129.905 20.4417 135.448C16.1074 146.909 12.5998 158.667 9.9461 170.63C7.78207 179.743 6.09272 188.963 4.88489 198.251C4.17352 203.876 3.7187 209.547 3.11229 215.183C2.53348 220.636 2.26869 226.118 2.31928 231.601C2.31928 233.468 1.94611 235.335 2.00442 237.202C2.16769 242.407 2.49422 247.6 2.71579 252.804C3.11225 260.352 4.06724 267.86 5.57293 275.267C6.98611 283.048 9.41711 290.608 12.8032 297.753C14.8295 302.286 17.6807 306.401 21.2114 309.889C21.8428 310.369 22.2614 311.077 22.3776 311.861C21.4796 312.048 21.0714 311.348 20.5583 310.893C17.8778 308.355 15.6042 305.419 13.8178 302.188C10.4608 296.314 7.92217 290.009 6.27263 283.447C4.17682 275.676 2.75273 267.739 2.01608 259.724C1.4913 254.216 1.26972 248.662 1.11812 243.119C0.966513 237.833 0.954851 232.547 1.11812 227.26C1.28138 221.974 1.7012 216.455 2.22598 211.075C2.76243 205.486 3.39217 199.896 4.27847 194.365C5.44465 187.095 6.75077 179.861 8.25515 172.661C10.681 160.994 13.9431 149.517 18.0161 138.319C20.3484 131.971 23.0889 125.798 25.6429 119.543L27.0889 116.042C26.5058 115.657 26.0394 115.296 25.5379 115.027C22.5175 113.429 19.4738 111.9 16.4884 110.254C16.0562 109.918 15.5439 109.7 15.002 109.623C14.46 109.545 13.9072 109.61 13.398 109.811C12.8849 108.913 12.4301 108.142 11.882 107.209C12.2202 107.209 12.5 107.127 12.6866 107.209C13.7595 107.711 14.4009 107.209 15.019 106.392C18.5175 101.969 22.016 97.5819 25.5146 93.1943L48.6516 64.1849C50.0977 62.3646 51.5204 60.5325 52.9898 58.6421C51.602 57.1602 49.4912 56.9968 47.9519 55.2231C48.4802 55.2128 49.008 55.2597 49.5262 55.3631C50.2609 55.6665 50.9723 56.0516 51.6953 56.4133C53.9227 57.5102 54.0277 57.4636 55.6487 55.4331C56.7565 54.0095 57.8877 52.5975 59.0189 51.1972C59.3804 50.7538 59.7186 50.1704 60.7565 50.6021C59.1355 53.251 56.8148 55.2697 55.2172 58.082C55.9169 58.467 56.535 58.8288 57.1764 59.1439C63.0073 62.0612 68.8382 64.9784 74.5758 67.8723C82.4591 71.8515 90.3542 75.819 98.1792 79.9032C98.8585 80.3108 99.6304 80.5386 100.422 80.5651C101.214 80.5917 101.999 80.4161 102.704 80.0549C106.377 78.2928 110.098 76.5542 113.806 74.9088C114.657 74.5121 115.52 74.1504 116.36 73.7419C117.001 73.4502 117.631 73.1118 118.436 72.7034C118.207 72.4524 117.953 72.2256 117.678 72.0265C112.671 69.6227 107.66 67.2306 102.646 64.8501C93.0597 60.2525 83.4698 55.6548 73.876 51.0572C73.0823 50.5692 72.1769 50.2926 71.246 50.2538C70.3152 50.215 69.3899 50.4152 68.5583 50.8355C66.964 51.538 65.3237 52.1306 63.6487 52.6092C64.0452 51.4422 64.8148 51.4423 65.328 51.1272C66.9023 50.3104 68.8265 50.182 69.9927 48.56C70.0816 48.4577 70.2074 48.3948 70.3425 48.385C74.5174 48.0932 78.051 45.8878 81.8294 44.4758C89.6661 41.5352 97.4445 38.4662 105.223 35.4206C110.634 33.2968 116.022 31.0914 121.421 28.9209C121.536 28.8524 121.638 28.7657 121.724 28.6642C121.098 27.7504 120.178 27.0784 119.117 26.76C118.057 26.4415 116.919 26.4959 115.893 26.9139L80.1501 40.59C73.2774 43.1961 66.3931 45.7867 59.4971 48.3617C58.8557 48.595 58.1793 48.7351 57.5262 48.9218L57.328 48.4317C57.7898 48.1182 58.273 47.8374 58.774 47.5915C64.5 45.351 70.2259 43.0989 75.9752 40.8934C84.2784 37.7194 92.6166 34.6038 100.931 31.4532L114.249 26.3887C114.797 26.1787 115.345 25.9453 116.185 25.5953L113.853 23.5298C114.373 23.6301 114.878 23.7947 115.357 24.0199C116.035 24.4486 116.811 24.6954 117.612 24.7362C118.413 24.7771 119.211 24.6108 119.928 24.2533C124.103 22.6196 128.302 21.056 132.5 19.4807L162.727 8.07994C164.605 7.36813 166.482 6.65634 168.348 5.92119C168.881 5.67026 169.398 5.38973 169.899 5.08098L166.832 3.20227C167.331 2.98428 167.878 2.90185 168.419 2.96332C168.959 3.02479 169.474 3.22796 169.911 3.55233C170.604 3.95773 171.39 4.17722 172.193 4.18949C172.996 4.20175 173.789 4.00638 174.494 3.62234C175.719 3.09723 176.955 2.58378 178.226 2.15202C178.977 1.9017 179.777 1.83766 180.558 1.96535C178.809 3.65737 176.302 3.82074 174.039 5.25604C175.835 6.09622 177.305 6.79632 178.797 7.47313C184.162 9.90808 189.522 12.3352 194.879 14.7546L213.095 22.9931C215.287 23.9733 217.479 24.9651 219.66 26.0036C220.104 26.231 220.596 26.3496 221.095 26.3496C221.593 26.3496 222.085 26.231 222.529 26.0036C228.873 23.1486 235.221 20.3052 241.573 17.4735C244.931 15.9799 248.294 14.494 251.66 13.0159C252.254 12.8056 252.862 12.6379 253.479 12.5142C253.13 13.6811 252.313 13.9145 251.73 14.2062C247.275 16.2133 242.809 18.1737 238.354 20.1691C233.596 22.3084 228.846 24.4595 224.103 26.6221C223.81 26.7678 223.525 26.9315 223.252 27.1122C224.418 28.2791 267.567 47.9299 271.17 49.0501L271.718 48.0349C271.934 48.0793 272.142 48.1539 272.336 48.2566C272.943 48.7817 273.503 49.3418 274.132 49.8553C275.649 51.1721 277.376 52.2252 279.24 52.9709C281.911 54.0211 284.5 55.3047 287.112 56.4716C287.658 56.7421 288.261 56.877 288.87 56.8648C289.479 56.8527 290.076 56.6937 290.611 56.4016C292.43 55.5614 294.296 54.8146 296.162 54.0678C296.828 53.7942 297.54 53.6516 298.261 53.6477C297.596 55.188 296.092 55.3864 294.855 55.9815C293.619 56.5767 292.185 57.1485 290.401 57.907C292.08 58.7355 293.398 59.3306 294.645 60.0308C295.893 60.7309 297.351 60.7075 298.144 61.9678L297.957 62.4346C297.234 62.2631 296.521 62.0488 295.823 61.7928C294.039 61.0343 292.266 60.2525 290.541 59.3773C289.766 58.9523 288.873 58.7973 288.001 58.9367C287.128 59.0762 286.328 59.5021 285.724 60.1474C286.494 60.9526 287.159 61.7461 287.928 62.4812C289.957 64.325 292.057 66.0753 294.074 67.9307C296.546 70.1828 298.925 72.5283 301.386 74.7921C305.526 78.5846 309.689 82.342 313.852 86.1111C315.485 87.5931 317.118 89.0634 318.739 90.5687C321.071 92.7509 323.403 94.933 325.736 97.1734C326.037 97.5658 326.472 97.8337 326.958 97.9262C327.444 98.0187 327.947 97.9294 328.371 97.6752C333.468 95.3414 338.61 93.0076 343.742 90.7554C344.479 90.4723 345.23 90.2269 345.992 90.0203C346.086 91.2689 345.304 91.3972 344.768 91.654C341.549 93.1243 338.307 94.5596 335.065 96.0182L320.803 102.448C320.266 102.693 319.777 103.02 318.995 103.463L321.491 106.019C319.987 106.392 319.38 105.435 318.61 104.933C318.219 104.557 317.703 104.338 317.161 104.319C316.619 104.299 316.089 104.481 315.672 104.828C315.401 104.966 315.195 105.204 315.097 105.492C314.999 105.78 315.017 106.094 315.147 106.369C315.392 106.987 315.602 107.617 315.882 108.224C317.706 112.466 319.104 116.879 320.057 121.398C321.644 127.969 322.889 134.618 323.788 141.318C324.747 148.072 325.068 154.901 324.745 161.715C324.017 175.413 321.927 189.005 318.506 202.289C317.038 208.635 315.137 214.873 312.815 220.959C311.648 223.806 310.401 226.619 309.129 229.419C307.392 233.247 305.631 237.062 303.835 240.89C303.711 241.198 303.606 241.514 303.52 241.835L303.438 241.753ZM161.783 112.005C162.751 112.53 163.357 112.892 163.987 113.172C168.955 115.669 173.923 118.143 178.879 120.652C179.544 120.978 180.43 121.13 180.628 122.157C179.614 122.694 178.879 122.052 178.156 121.679C172.616 118.878 167.077 116.031 161.538 113.207C160.908 112.892 160.255 112.647 159.485 112.308C159.159 113.16 158.902 113.767 158.692 114.397C157.052 119.345 155.415 124.296 153.783 129.252C151.089 137.42 148.407 145.658 145.678 153.839C144.068 158.67 142.377 163.466 140.756 168.285C140.5 169.043 139.893 169.802 140.418 170.759C142.203 170.409 143.042 168.425 145.083 168.11C143.695 170.199 141.281 170.852 140.278 172.988C140.702 173.352 141.15 173.687 141.619 173.991C143.567 175.018 145.538 176.033 147.509 177.025C149.666 178.099 149.841 178.192 150.949 176.045C155.45 167.386 159.87 158.67 164.302 149.976C167.042 144.608 169.736 139.229 172.465 133.861C172.547 133.686 172.791 133.593 172.955 133.453C166.646 148.016 159.602 162.147 152.197 176.535C152.955 176.302 153.363 176.231 153.678 176.08C155.882 175.123 158.098 174.166 160.29 173.198C170.261 168.787 180.243 164.411 190.202 159.976C197.934 156.569 205.503 153.068 213.095 149.638C221.538 145.764 229.958 141.831 238.412 137.969C243.077 135.845 247.672 133.779 252.313 131.714C259.648 128.47 267.007 125.261 274.342 121.994C280.08 119.438 285.806 116.836 291.532 114.245C298.241 111.227 304.943 108.197 311.637 105.155C312.039 104.928 312.429 104.679 312.803 104.408C311.718 101.619 310.529 99.1805 307.963 97.4068C301.887 93.2643 295.987 88.865 290.016 84.5708C289.561 84.2441 289.176 83.8357 288.756 83.4739C288.989 83.4094 289.232 83.397 289.47 83.4373C289.708 83.4776 289.934 83.5698 290.132 83.7073C291.94 84.9676 293.736 86.2512 295.532 87.5231C302.381 92.323 309.227 97.1229 316.068 101.923C316.403 102.198 316.814 102.363 317.246 102.397C317.678 102.43 318.109 102.33 318.482 102.109C320.336 101.188 322.249 100.371 324.115 99.4839C324.543 99.2294 324.952 98.9447 325.339 98.6321C324.71 97.9786 324.243 97.4651 323.707 96.9517C321.526 94.9796 319.298 93.0542 317.129 91.1172C312.13 86.5195 307.131 81.8869 302.132 77.2193C296.64 72.1432 291.124 67.0788 285.678 61.9444C285.279 61.4545 284.724 61.1172 284.105 60.9896C283.487 60.8621 282.844 60.952 282.284 61.2443C279.952 62.2945 277.468 63.2397 275.065 64.255C268.348 67.0789 261.643 69.9378 254.925 72.7734C246.373 76.3441 237.864 79.9149 229.398 83.4856C228.595 83.8833 227.816 84.3275 227.065 84.8159C228.745 85.7377 230.016 86.4262 231.287 87.1497C232.558 87.8732 233.829 88.62 235.124 89.3435C236.418 90.067 237.748 90.6855 238.984 91.4673C240.22 92.2491 241.736 92.4008 242.622 93.8944C242.242 93.9947 241.844 94.0025 241.461 93.9173C241.077 93.832 240.72 93.6561 240.418 93.4043C236.092 91.0705 231.753 88.6433 227.462 86.1695C226.912 85.7995 226.276 85.5791 225.616 85.53C224.955 85.4809 224.293 85.6048 223.695 85.8894C216.504 89.0012 209.297 92.0546 202.074 95.0497C190.241 100.013 178.393 104.965 166.529 109.904C165.095 110.511 163.672 111.188 161.783 112.005ZM29.8178 115.786C30.0239 116.001 30.2461 116.2 30.4825 116.381L53.0481 128.19C62.4708 133.106 71.8974 138.019 81.3279 142.928C91.0072 147.934 100.71 152.893 110.401 157.888L130.226 168.086C132.313 169.16 134.377 170.269 136.477 171.295C137.771 171.914 138.028 171.774 138.564 170.432C139.007 169.265 139.439 168.18 139.824 167.048C143.268 156.935 146.696 146.798 150.109 136.638C152.613 129.162 155.108 121.675 157.596 114.175C158.436 111.666 158.424 111.666 156.162 110.511C145.184 104.957 134.203 99.4022 123.217 93.8478C116.951 90.6815 110.673 87.5386 104.383 84.4191C102.191 83.3222 102.051 83.3922 100.885 85.586C100.033 87.2547 99.2171 88.9468 98.3425 90.5921C93.7789 99.2272 89.2113 107.855 84.6399 116.474C81.7361 121.959 78.809 127.478 75.9635 132.963C75.5805 133.625 75.164 134.268 74.7157 134.888L74.2492 134.596C78.6807 126.031 82.9606 117.373 87.5787 108.924C90.8906 102.868 100.407 84.5008 100.722 82.6921C98.4824 81.8636 96.8615 83.9757 94.8906 84.1741L94.7273 83.7773L98.8673 81.5835C95.9285 80.0665 93.3396 78.7013 90.704 77.371L62.4242 63.0413C60.1618 61.8744 57.8761 60.7775 55.6137 59.6223C55.4362 59.4985 55.2348 59.4133 55.0224 59.3721C54.81 59.3309 54.5914 59.3346 54.3805 59.3829C54.1697 59.4313 53.9712 59.5232 53.798 59.6528C53.6248 59.7825 53.4805 59.947 53.3746 60.1357C51.1589 62.9947 48.8848 65.7953 46.6574 68.6309C41.9927 74.5043 37.3513 80.3777 32.7332 86.2512C27.4621 92.9025 22.156 99.5189 16.8732 106.17C16.3484 106.824 15.8936 107.536 15.2522 108.446C19.5904 110.511 23.4155 112.88 27.5554 114.759L29.2697 112.6L29.6312 114.035C30.4242 113.3 30.5408 112.063 31.8586 111.877L29.8178 115.786ZM167.485 52.1424C167.897 52.5103 168.333 52.8495 168.791 53.1576C173.724 55.8532 178.657 58.5138 183.602 61.1977L199.462 69.8095C203.683 72.1433 207.928 74.3604 212.127 76.7292C212.602 77.0245 213.145 77.1935 213.705 77.22C214.264 77.2466 214.82 77.1299 215.322 76.8809C221.153 74.3837 226.984 71.9566 232.896 69.5177L262.331 57.2535C262.75 57.0785 263.112 56.81 263.812 56.4133C262.96 56.0049 262.389 55.7131 261.806 55.4564C254.622 52.3447 247.439 49.2329 240.255 46.1211C230.692 41.967 221.133 37.7972 211.579 33.6119C211.073 33.3593 210.516 33.2277 209.952 33.2277C209.387 33.2277 208.83 33.3593 208.325 33.6119C204.628 35.3273 200.885 36.9492 197.165 38.6062L168.78 51.3606C168.348 51.5959 167.932 51.857 167.532 52.1424H167.485ZM164.045 52.2708L164.127 51.6873C163.532 51.3139 162.961 50.9055 162.331 50.5204C160.337 49.4352 158.331 48.3733 156.337 47.2764L140.791 38.7113C136.453 36.3775 132.115 33.962 127.8 31.5465C123.485 29.131 124.418 29.1427 119.637 30.9864C110.914 34.3587 102.238 37.8828 93.5262 41.3018C87.5437 43.6356 81.5495 45.9694 75.567 48.3033C74.8557 48.5833 74.1793 48.9217 73.0947 49.4702C74.3658 50.1236 75.1822 50.5554 76.0102 50.9638C79.2055 52.5197 82.4008 54.0523 85.5962 55.5615C92.3017 58.7355 99.0306 61.8745 105.736 65.0601C110.012 67.1061 114.288 69.1715 118.564 71.2564C119.043 71.5586 119.589 71.7399 120.153 71.7846C120.718 71.8293 121.285 71.7361 121.806 71.5131C127.637 68.8214 133.468 66.1648 139.299 63.5432C145.13 60.941 150.902 58.3737 156.698 55.7715C159.159 54.5813 161.619 53.4144 164.115 52.2708H164.045ZM121.864 72.5517C122.727 73.0301 123.345 73.4035 123.987 73.7186C129.818 76.4958 135.579 79.238 141.351 82.027C150.028 86.2045 158.716 90.3587 167.334 94.6412C168.142 95.0962 169.048 95.3469 169.975 95.3713C170.902 95.3957 171.821 95.1931 172.651 94.7813C176.43 93.0776 180.29 91.5489 184.115 89.9502L211.124 78.6429C211.432 78.4621 211.721 78.251 211.987 78.0128C211.52 77.6861 211.229 77.4294 210.89 77.2427C207.392 75.2823 203.893 73.3218 200.395 71.4081C195.474 68.7126 190.529 66.052 185.608 63.3447C179.691 60.1007 173.79 56.8295 167.905 53.5311C167.366 53.2011 166.75 53.0169 166.119 52.9965C165.487 52.976 164.861 53.12 164.302 53.4143C159.065 55.7481 153.806 58.082 148.57 60.4858L123.147 71.9099C122.786 72.0382 122.459 72.2366 121.864 72.5517ZM208.162 32.3516C207.112 31.8149 206.436 31.4181 205.713 31.103L186.028 22.5496C179.474 19.7024 172.896 16.8784 166.354 13.9845C165.847 13.7454 165.294 13.6214 164.733 13.6214C164.173 13.6214 163.619 13.7454 163.112 13.9845C158.342 15.9099 153.526 17.742 148.733 19.6207L126.506 28.3491C126.014 28.5902 125.539 28.8631 125.083 29.166C125.818 29.6444 126.249 30.0062 126.821 30.3329L138.482 36.6575C147.17 41.3835 155.87 46.0862 164.535 50.8355C164.924 51.0944 165.373 51.2487 165.838 51.2834C166.304 51.3182 166.771 51.2322 167.194 51.0339C169.526 49.972 171.858 48.9801 174.191 47.9299C179.065 45.7245 183.917 43.4723 188.803 41.2785C194.471 38.7347 200.162 36.2375 205.841 33.7053C206.459 33.3085 207.124 32.8767 208.15 32.3516H208.162ZM159.928 111.06C161.818 110.791 221.969 85.5277 223.625 84.3491C222.914 83.8707 222.296 83.4039 221.619 83.0305C219.509 81.8636 217.339 80.8017 215.264 79.5298C214.86 79.2368 214.38 79.0658 213.882 79.0368C213.384 79.0079 212.888 79.1223 212.453 79.3664C212.028 79.5655 211.592 79.7407 211.147 79.8915L175.217 94.8513C174.109 95.318 173.048 95.8898 171.928 96.3333C169.888 97.1268 167.823 97.8619 165.759 98.5971C165.643 98.5971 165.444 98.4221 165.001 98.1653L168.29 96.2749C167.625 95.9249 167.229 95.7031 166.809 95.5047L142.529 83.9641C135.532 80.6189 128.535 77.2543 121.538 73.8703C121.067 73.6229 120.542 73.4937 120.01 73.4937C119.478 73.4937 118.954 73.6229 118.482 73.8703C113.818 75.9357 109.153 77.9661 104.488 80.0432C103.833 80.3955 103.198 80.7851 102.587 81.2101C102.809 82.517 103.754 82.7155 104.5 83.0889C112.609 87.2197 120.714 91.3389 128.815 95.4464C137.934 100.114 147.062 104.747 156.197 109.344C156.943 109.718 157.736 109.986 158.354 110.243C159.59 109.403 159.135 107.722 160.861 107.034L159.928 111.06ZM282.552 59.7157C282.424 59.3773 282.412 59.1555 282.284 59.0272C279.054 55.7365 275.917 52.3174 271.357 50.7888C271.046 50.6655 270.743 50.5253 270.447 50.3687C262.599 46.798 254.75 43.2039 246.902 39.6448C239.054 36.0857 230.925 32.4684 222.96 28.8159C222.406 28.5116 221.788 28.3415 221.156 28.3192C220.525 28.2969 219.896 28.423 219.322 28.6875C217.258 29.6561 215.182 30.5779 213.13 31.5465C212.693 31.7939 212.275 32.0748 211.882 32.3867C212.372 32.6317 212.651 32.795 212.943 32.9234C217.118 34.7204 221.304 36.4942 225.468 38.3029L250.657 49.2952C255.124 51.2439 259.637 53.1226 264.092 55.1297C264.633 55.4082 265.232 55.5534 265.841 55.5534C266.449 55.5534 267.049 55.4082 267.59 55.1297C268.675 54.6163 269.794 54.1495 270.914 53.7177C271.564 53.4995 272.226 53.3165 272.896 53.1693L273.141 53.6828C272.733 54.039 272.292 54.3555 271.823 54.628C270.984 55.048 270.074 55.3048 269.258 55.7949C268.43 56.3183 267.632 56.887 266.867 57.4985C265.701 56.9734 264.371 57.7436 263.03 58.3154C258.284 60.3108 253.549 62.3295 248.791 64.3133L217.304 77.3944C216.71 77.7082 216.134 78.0549 215.579 78.4329C216.465 79.028 217.025 79.4714 217.654 79.8215C219.637 80.9184 221.701 81.887 223.637 83.0772C224.163 83.4209 224.772 83.6164 225.4 83.6431C226.028 83.6698 226.652 83.5267 227.205 83.2289C232.803 80.8251 238.424 78.5613 244.033 76.1574L279.718 61.1277C280.64 60.6609 281.573 60.1941 282.552 59.7157V59.7157ZM166.821 12.6659C167.567 13.086 167.987 13.3894 168.465 13.5994L189.619 22.7946L208.022 30.7763C208.469 31.0713 208.979 31.2594 209.51 31.3262C210.042 31.3929 210.582 31.3366 211.089 31.1614C213.421 30.0995 215.753 29.096 218.086 28.0224C218.401 27.8824 218.599 27.5206 218.937 27.1706C218.506 26.9138 218.237 26.7271 217.934 26.5871L203.497 20.0641C193.444 15.5132 183.396 10.9544 173.351 6.38791C172.906 6.1714 172.418 6.05405 171.923 6.04398C171.428 6.0339 170.936 6.13136 170.482 6.32958L120.185 25.3619C119.909 25.5006 119.644 25.6605 119.392 25.8403C121.456 27.579 123.369 28.3725 126.051 27.2873C137.573 22.6197 149.176 18.1271 160.756 13.5761C164.372 12.1525 167.991 10.756 171.614 9.38687C171.92 9.16391 172.29 9.04387 172.669 9.04387C173.048 9.04387 173.418 9.16391 173.724 9.38687C171.579 10.9155 169.118 11.2656 166.821 12.7009V12.6659ZM280.873 55.0831L280.546 55.5848C281.293 56.3317 282.016 57.1018 282.797 57.8136C284.22 59.1089 284.605 59.1088 286.68 57.7202L280.873 55.0831ZM315.52 102.926C314.761 102.05 313.758 101.421 312.64 101.118C313.677 104.058 314.027 104.257 315.52 102.973V102.926Z" stroke="#6895FF" stroke-width="2" mask="url(#path-1-outside-1)"/>
<path d="M44.4416 328.875C39.7492 319.7 36.197 309.985 33.8644 299.947L44.4416 328.875ZM44.4416 328.875C44.7254 329.358 45.041 329.822 45.3862 330.263M44.4416 328.875L45.3862 330.263M45.3862 330.263L45.8177 330.065M45.3862 330.263L45.8177 330.065M45.8177 330.065C45.6859 329.529 45.5184 329.003 45.3163 328.49M45.8177 330.065L45.3163 328.49M45.3163 328.49C45.0243 327.836 44.7084 327.191 44.3927 326.547M45.3163 328.49L44.3927 326.547M44.3927 326.547C43.914 325.57 43.4358 324.594 43.0422 323.589L44.3927 326.547ZM64.7086 154.211L64.9902 153.816L64.6048 153.522L64.3599 153.336L64.0444 153.095L63.7384 153.348C63.2888 153.719 62.8758 154.132 62.5048 154.582L62.4968 154.592L62.4893 154.602C61.9453 155.334 61.389 156.065 60.8303 156.799C59.3225 158.78 57.7974 160.783 56.4523 162.892C52.7388 168.632 49.3835 174.597 46.4055 180.751L46.4055 180.751L46.4028 180.757C39.4824 195.53 34.5927 211.173 31.8671 227.258L31.867 227.258L31.8658 227.266C30.8925 233.624 30.1138 239.994 29.5298 246.375C29.0424 251.603 28.8956 256.862 28.7492 262.103L28.7349 262.615L28.7348 262.616C28.682 264.571 28.8264 266.58 28.9653 268.514C29.0125 269.171 29.0591 269.819 29.0971 270.454C29.1396 271.164 29.173 271.88 29.2066 272.6C29.2914 274.418 29.3774 276.261 29.613 278.082C30.4767 285.469 31.733 292.804 33.3768 300.057L33.3774 300.06C35.7192 310.138 39.2855 319.892 43.9965 329.102L44.0031 329.115L44.0105 329.128C44.3054 329.63 44.6335 330.112 44.9924 330.571L45.236 330.883L45.5951 330.718L46.0266 330.519L46.402 330.347L46.3032 329.945C46.1661 329.388 45.9918 328.84 45.7815 328.306L45.7774 328.296L45.7728 328.286C45.4769 327.623 45.1559 326.968 44.8397 326.323C44.7587 326.158 44.678 325.993 44.5981 325.829C44.204 325.02 43.8266 324.221 43.5078 323.406L43.5074 323.405C43.139 322.47 42.7679 321.537 42.3972 320.605C40.8636 316.75 39.3376 312.913 38.0369 309C35.8937 302.2 34.224 295.26 33.0397 288.23L33.0392 288.227C31.9171 281.8 31.2376 275.304 31.0055 268.784L31.0053 268.779C30.5595 259.187 30.9057 249.574 32.0402 240.039L32.0406 240.035C33.0909 230.69 34.77 221.426 37.0663 212.307C38.9782 204.813 41.3749 197.451 44.2413 190.268L44.242 190.266C46.9096 183.507 50.0792 176.958 53.7243 170.673C55.5541 167.585 57.5536 164.592 59.5596 161.59C60.1126 160.762 60.666 159.934 61.2165 159.102C61.991 157.994 62.7639 156.919 63.5391 155.841C63.9282 155.3 64.3179 154.758 64.7086 154.211Z" fill="#6895FF" stroke="#6895FF"/>
<path d="M205.111 343.304L205.455 343.041C205.593 342.935 205.734 342.823 205.879 342.708C206.277 342.392 206.703 342.054 207.151 341.776M205.111 343.304L207.415 342.201M205.111 343.304L205.323 343.682L205.591 344.16L205.777 344.492L206.147 344.401C206.633 344.282 207.105 344.115 207.558 343.902L207.578 343.892L207.597 343.881C209.504 342.769 211.387 341.599 213.262 340.433L213.263 340.433L213.001 340.007M205.111 343.304L205.759 343.437L206.028 343.916C206.481 343.804 206.923 343.648 207.345 343.449C209.246 342.341 211.123 341.174 213 340.007L213.001 340.007M207.151 341.776C207.151 341.776 207.151 341.776 207.152 341.776L207.415 342.201M207.151 341.776C207.151 341.776 207.15 341.776 207.15 341.777L207.415 342.201M207.151 341.776C209.86 340.082 212.575 338.404 215.286 336.729C216.498 335.98 217.709 335.232 218.919 334.482L219.182 334.907C217.971 335.657 216.76 336.406 215.548 337.155C212.836 338.83 210.123 340.507 207.415 342.201M213.001 340.007L237.969 324.697C239.103 324 240.236 323.298 241.368 322.597C244.163 320.866 246.958 319.134 249.771 317.474C252.36 315.922 254.962 314.394 257.563 312.865C259.169 311.921 260.775 310.978 262.377 310.029M213.001 340.007L213.265 340.431M213.265 340.431L238.231 325.123L238.231 325.123C239.368 324.424 240.503 323.721 241.637 323.019C244.429 321.289 247.217 319.562 250.025 317.904L250.028 317.903C252.615 316.352 255.213 314.825 257.813 313.298C259.42 312.354 261.027 311.41 262.632 310.459M213.265 340.431L273.189 301.629C273.95 301.176 274.711 300.722 275.473 300.269C280.395 297.339 285.32 294.408 290.184 291.389L290.184 291.388C291.765 290.409 293.308 289.362 294.851 288.302C295.079 288.145 295.308 287.987 295.537 287.83C296.85 286.926 298.168 286.019 299.504 285.151L299.505 285.151C305.236 281.439 310.983 277.762 316.746 274.12C319.295 272.506 321.89 270.962 324.468 269.445L324.471 269.443C324.548 269.398 324.62 269.349 324.708 269.289C324.748 269.261 324.792 269.232 324.842 269.199C324.983 269.104 325.16 268.993 325.361 268.915C325.568 268.834 325.809 268.785 326.08 268.82C326.35 268.855 326.611 268.97 326.864 269.161L327.116 269.35L327.054 269.658C326.916 270.347 326.523 270.766 326.097 271.056C325.893 271.195 325.677 271.308 325.486 271.404C325.46 271.418 325.434 271.431 325.409 271.444C325.244 271.527 325.102 271.599 324.971 271.678C323.397 272.657 321.817 273.614 320.24 274.568C317.754 276.072 315.278 277.57 312.853 279.14C310.087 280.931 307.337 282.764 304.584 284.599C300.653 287.219 296.716 289.843 292.719 292.353M213.265 340.431L262.377 310.029M262.632 310.459C263.327 310.049 264.023 309.64 264.719 309.23C266.557 308.149 268.399 307.066 270.227 305.965M262.632 310.459L262.377 310.029M262.632 310.459C262.632 310.459 262.632 310.459 262.631 310.459L262.377 310.029M270.227 305.965C272.248 304.75 274.273 303.541 276.299 302.331C281.795 299.05 287.296 295.767 292.719 292.353M270.227 305.965C270.227 305.965 270.227 305.965 270.227 305.965L269.969 305.536M270.227 305.965L269.969 305.536M292.719 292.353C292.719 292.353 292.719 292.353 292.719 292.353L292.455 291.933L292.719 292.353ZM269.969 305.536C268.143 306.636 266.305 307.717 264.468 308.798C263.771 309.208 263.074 309.618 262.377 310.029M269.969 305.536C271.993 304.319 274.02 303.109 276.047 301.899C281.542 298.619 287.035 295.34 292.453 291.93C296.448 289.42 300.371 286.806 304.295 284.191C307.048 282.356 309.802 280.52 312.581 278.721C315.01 277.148 317.501 275.641 319.993 274.133C321.569 273.179 323.147 272.224 324.71 271.252C324.859 271.161 325.021 271.08 325.185 270.997C325.777 270.697 326.399 270.383 326.564 269.56L262.377 310.029M260.56 309.05C260.56 309.05 260.56 309.05 260.56 309.05L260.815 309.48L260.56 309.05Z" fill="#6895FF" stroke="#6895FF"/>
<path d="M104.444 365.593L103.974 365.358L103.762 365.839L103.587 366.235L103.411 366.636L103.784 366.864C104.382 367.23 104.983 367.603 105.586 367.979C107.021 368.871 108.469 369.772 109.924 370.595C110.852 371.238 111.993 371.499 113.108 371.322C113.644 371.279 114.184 371.319 114.707 371.44L114.72 371.443L114.734 371.446C120.714 372.501 126.816 372.683 132.849 371.987L132.849 371.987L132.861 371.985C137.676 371.308 142.518 370.618 147.305 369.646L147.307 369.646C153.309 368.396 159.188 366.62 164.878 364.337C171.359 361.945 177.643 359.048 183.671 355.671L183.673 355.67C183.755 355.624 183.837 355.585 183.937 355.537C183.98 355.517 184.025 355.496 184.075 355.472C184.23 355.396 184.413 355.302 184.587 355.172C184.963 354.891 185.256 354.476 185.324 353.815L185.38 353.261L184.823 353.265C184.384 353.268 183.948 353.329 183.526 353.446L183.495 353.455L183.465 353.468C182.645 353.816 181.845 354.22 181.048 354.623C180.706 354.796 180.365 354.968 180.023 355.136L180.023 355.136L180.011 355.142C170.679 360.037 160.839 363.894 150.667 366.643L150.667 366.643L150.66 366.645C142.792 368.895 134.655 370.066 126.473 370.126C123.516 370.08 120.611 369.987 117.735 369.651L117.735 369.651L117.723 369.65C114.105 369.32 110.561 368.424 107.221 366.995C106.628 366.724 106.057 366.426 105.473 366.122C105.136 365.947 104.795 365.769 104.444 365.593Z" fill="#6895FF" stroke="#6895FF"/>
<path d="M209.226 324.136L209.226 324.136L209.235 324.141C209.575 324.332 209.952 324.491 210.398 324.679C210.613 324.77 210.845 324.868 211.096 324.979L211.298 324.522L211.788 324.421C211.686 323.926 211.461 323.465 211.133 323.081C210.815 322.708 210.412 322.42 209.957 322.24C205.806 319.726 201.63 317.212 197.442 314.744L197.441 314.744C189.324 309.968 181.2 305.199 173.067 300.437L173.067 300.437C168.503 297.769 163.943 295.112 159.386 292.466L159.385 292.465C157.605 291.442 155.836 290.41 154.069 289.379C151.738 288.018 149.413 286.661 147.08 285.335C146.368 284.924 145.629 284.548 144.905 284.18C144.53 283.99 144.16 283.801 143.8 283.611L143.379 283.39L143.137 283.799L142.915 284.172L142.679 284.569L143.057 284.836C143.706 285.294 144.349 285.763 144.995 286.235C146.444 287.293 147.912 288.366 149.52 289.357C150.693 290.08 151.918 290.721 153.13 291.348C153.218 291.393 153.307 291.439 153.395 291.484C154.521 292.067 155.632 292.641 156.7 293.271L156.701 293.272C168.627 300.273 180.55 307.275 192.468 314.276L209.226 324.136Z" fill="#6895FF" stroke="#6895FF"/>
<path d="M303.663 241.307L303.343 241.839L303.036 242.027C303.536 242.841 304.127 243.596 304.797 244.276L304.819 244.298L304.843 244.317C310.721 248.961 316.601 253.584 322.551 258.126C325.846 260.666 329.24 263.141 332.621 265.606C333.923 266.555 335.222 267.503 336.514 268.453C336.861 268.827 337.309 269.092 337.805 269.216C338.318 269.345 338.859 269.315 339.355 269.132L340.047 268.877L339.554 268.329C339.028 267.743 338.462 267.193 337.862 266.683L337.849 266.672L337.835 266.662C334.781 264.409 331.723 262.17 328.667 259.933C324.878 257.158 321.09 254.385 317.312 251.586C316.061 250.654 314.843 249.676 313.62 248.69C313.546 248.63 313.472 248.57 313.398 248.51C312.25 247.585 311.094 246.653 309.91 245.755L309.91 245.754C308.553 244.728 307.148 243.746 305.748 242.767C305.109 242.321 304.472 241.875 303.841 241.426L303.814 241.382L303.686 241.319L303.663 241.307Z" fill="#6895FF" stroke="#6895FF"/>
<path d="M104.856 18.0296L104.377 18.8739C105.563 19.9995 106.926 20.7729 108.297 21.4457C108.775 21.6804 109.249 21.9003 109.716 22.1178C110.613 22.5344 111.49 22.9419 112.346 23.4272L113.77 24.2339L113.04 22.7693C112.792 22.2713 112.403 21.8573 111.922 21.579L111.922 21.579L111.916 21.5756C111.839 21.5327 111.762 21.4898 111.686 21.447C109.995 20.5005 108.336 19.5721 106.633 18.6756L106.619 18.6682L106.605 18.6618C106.038 18.4079 105.454 18.1966 104.856 18.0296Z" fill="#6895FF" stroke="#6895FF"/>
<path d="M66.5701 150.479L66.1739 150.148L65.8561 150.555L63.6282 153.403L64.022 153.711L64.2321 154.165C65.4699 153.591 66.4676 152.602 67.0517 151.369L67.2175 151.019L66.9201 150.771L66.5701 150.479Z" fill="#6895FF" stroke="#6895FF"/>
<path d="M100.615 34.5942L100.223 34.7198L100.271 35.1288L100.318 35.5257L100.394 36.174L101 35.9315L102.225 35.4412L102.68 35.2595L102.508 34.8014L102.403 34.5212L102.236 34.0754L101.782 34.2206L100.615 34.5942Z" fill="#6895FF" stroke="#6895FF"/>
<path d="M102.932 18.1728L104.577 18.8132L103.513 17.4054C103.338 17.1741 103.093 16.8561 102.746 16.6676C102.354 16.4552 101.902 16.4371 101.392 16.6501L100.249 17.1278L101.404 17.5773L102.932 18.1728Z" fill="#6895FF" stroke="#6895FF"/>
<path d="M99.32 36.6032L99.7536 36.3333L99.4745 35.9055L99.2993 35.637L99.035 35.2318L98.6213 35.4826L97.9088 35.9146L97.4753 36.1774L97.744 36.6072L97.9192 36.8875L98.1838 37.3107L98.6075 37.0469L99.32 36.6032Z" fill="#6895FF" stroke="#6895FF"/>
<path d="M95.3903 363.278L95.8664 363.55L96.0934 363.051L96.2686 362.666L96.4786 362.204L96.0138 362.001L95.0793 361.592L94.6442 361.402L94.4318 361.827L94.2916 362.107L94.0799 362.53L94.4908 362.765L95.3903 363.278Z" fill="#6895FF" stroke="#6895FF"/>
<path d="M102.889 18.1542L104.499 18.9598L104.723 18.5127L104.947 18.0655L103.336 17.2599L103.112 17.707L102.889 18.1542Z" fill="#6895FF" stroke="#6895FF"/>
<path d="M86.282 359.063L85.7898 358.909L85.651 359.406L85.5692 359.699L85.4369 360.172L85.9082 360.312L86.6558 360.535L87.1379 360.678L87.2785 360.195L87.3602 359.914L87.4972 359.444L87.0296 359.298L86.282 359.063Z" fill="#6895FF" stroke="#6895FF"/>
<path d="M280.458 88.2711C280.268 88.7344 279.875 88.9098 279.49 89.0811C279.393 89.1242 279.297 89.167 279.205 89.214C275.392 90.9118 271.57 92.6009 267.748 94.29C263.925 95.9791 260.103 97.6682 256.29 99.3661C253.671 100.526 251.074 101.707 248.479 102.888C246.451 103.811 244.424 104.733 242.389 105.644C237.024 108.048 231.652 110.44 226.272 112.821L209.048 120.51C202.766 123.311 196.469 126.1 190.156 128.877L280.458 88.2711ZM280.458 88.2711C280.512 88.2644 280.566 88.2583 280.62 88.2528L280.57 87.7554L280.071 87.7218C280.068 87.7578 280.065 87.7919 280.061 87.824C279.764 87.8739 279.471 87.9405 279.182 88.0237C273.773 89.9588 201.397 122.508 184.113 130.967C183.371 131.285 182.628 131.601 181.883 131.916L280.458 88.2711ZM279.043 87.5433L279.028 87.5476L279.013 87.553C275.939 88.653 251.572 99.4896 227.839 110.232C215.963 115.608 204.234 120.966 195.387 125.08C190.963 127.136 187.258 128.883 184.614 130.166C183.293 130.808 182.233 131.335 181.481 131.728C181.105 131.924 180.801 132.089 180.577 132.22C180.466 132.285 180.369 132.344 180.291 132.397C180.226 132.441 180.133 132.507 180.064 132.587L180.441 132.915L180.566 133.399C181.143 133.25 181.709 133.064 182.261 132.842L182.261 132.842L182.269 132.839C184.977 131.694 187.673 130.526 190.358 129.334C196.672 126.557 202.969 123.768 209.251 120.967L209.252 120.967L226.475 113.278C226.475 113.278 226.475 113.278 226.475 113.277C231.856 110.897 237.228 108.504 242.593 106.1C244.637 105.186 246.664 104.263 248.691 103.341C251.282 102.162 253.872 100.983 256.492 99.8232L256.493 99.8228C260.306 98.1253 264.127 96.4365 267.95 94.7474L267.95 94.747C271.772 93.0581 275.595 91.3688 279.409 89.6708L279.421 89.6654L279.432 89.6593C279.515 89.6174 279.589 89.5843 279.676 89.5459C279.731 89.5215 279.79 89.4949 279.86 89.4626C280.02 89.3885 280.204 89.2948 280.378 89.1628C280.757 88.8748 281.024 88.4487 281.068 87.789L281.108 87.1978L280.519 87.258C280.02 87.3089 279.526 87.4044 279.043 87.5433Z" fill="#6895FF" stroke="#6895FF"/>
<path d="M90.6794 86.2639L91.4612 85.1783L90.159 85.485C88.8459 85.7943 87.6167 86.3877 86.5579 87.2236L87.0526 88.0806C87.3252 87.972 87.6127 87.8885 87.9215 87.8034C87.9637 87.7918 88.0064 87.7801 88.0496 87.7682C88.3146 87.6957 88.5965 87.6186 88.8692 87.5246C89.5161 87.3016 90.1754 86.9637 90.6794 86.2639Z" fill="#6895FF" stroke="#6895FF"/>
<path d="M90.0404 85.5273L89.7725 85.6677V85.9702V86.0052V86.4848L90.2516 86.5048C90.883 86.5311 91.5131 86.4289 92.1038 86.2044C92.6944 85.9798 93.2333 85.6376 93.6877 85.1985L93.9414 84.9533L93.7954 84.6321L93.6204 84.2472L93.4016 83.7657L92.9332 84.0112L90.0404 85.5273Z" fill="#6895FF" stroke="#6895FF"/>
</svg>
