<svg width="348" height="380" viewBox="0 0 348 380" fill="none" xmlns="http://www.w3.org/2000/svg">
<path d="M295.339 54.161L295.89 54.349L295.923 54.3603L297.244 54.8112L296.141 55.2253C295.984 55.6946 295.691 56.0133 295.348 56.2429C295.059 56.4367 294.706 56.5787 294.415 56.6961C294.332 56.7293 294.255 56.7605 294.185 56.7903L290.866 58.2102L298.076 61.7452L298.491 61.9487L298.321 62.3783L298.154 62.798L298.015 63.1487L297.64 63.1114C297.189 63.0665 296.744 62.9762 296.311 62.8418L296.291 62.8355L296.271 62.8275C294.392 62.0635 292.553 61.2005 290.761 60.242L290.752 60.2373L290.744 60.2323C289.769 59.6598 288.902 59.4778 288.062 59.5907C287.35 59.6864 286.616 59.9992 285.818 60.536C287.673 62.2978 289.542 64.0379 291.407 65.7749C294.723 68.8618 298.028 71.9386 301.222 75.1089L301.533 75.4182L301.267 75.7672L300.99 76.1301L300.761 76.4303L300.41 76.292C300.055 76.1526 299.72 75.968 299.411 75.743L299.387 75.7254L299.366 75.7051C298.185 74.6071 297.001 73.5112 295.817 72.4147C292.247 69.1097 288.671 65.7989 285.164 62.4061L285.153 62.3949L285.142 62.3829C284.75 61.9519 284.227 61.6757 283.661 61.5987C283.096 61.5217 282.521 61.6481 282.035 61.958L282.002 61.9793L281.966 61.995C276.882 64.2019 271.784 66.3831 266.685 68.5647C263.582 69.8925 260.478 71.2204 257.377 72.5542C253.881 74.0676 250.394 75.5808 246.907 77.0942C245.168 77.8491 243.428 78.604 241.687 79.359L241.687 79.3592C232.948 83.1397 224.205 86.9202 215.459 90.7008C206.712 94.4816 197.906 98.2624 189.041 102.043L162.971 113.236C162.971 113.236 162.97 113.236 162.97 113.236C162.786 113.316 162.615 113.399 162.389 113.508C164.757 114.841 167.131 116.07 169.489 117.291C170.051 117.582 170.612 117.872 171.172 118.163C174.351 119.817 177.487 121.496 180.494 123.426L180.061 124.32C176.723 123.175 173.608 121.534 170.538 119.916C169.492 119.366 168.453 118.818 167.411 118.294C164.928 117.043 162.381 115.699 159.832 114.354C158.127 113.454 156.42 112.553 154.73 111.679C152.238 110.391 149.781 109.139 147.327 107.89C145.612 107.016 143.898 106.144 142.177 105.261C139.133 103.698 136.088 102.112 133.049 100.528C131.916 99.9383 130.785 99.3486 129.654 98.7608L295.339 54.161ZM295.339 54.161L295.282 54.4795M295.339 54.161L295.282 54.4795M295.282 54.4795C295.116 54.5415 294.951 54.6036 294.785 54.6657C293.055 55.3144 291.317 55.9664 289.587 56.6355L289.552 56.6489L289.519 56.6674C289.237 56.8283 288.923 56.9206 288.602 56.938C288.285 56.9551 287.969 56.8993 287.676 56.7742C286.374 56.1059 285.037 55.5123 283.706 54.9333C283.503 54.8448 283.3 54.7567 283.097 54.6687C281.964 54.177 280.839 53.6893 279.735 53.163C277.135 51.9235 274.686 50.4881 272.618 48.3606L272.617 48.3597C272.475 48.2139 272.291 48.166 272.214 48.1461L272.204 48.1435C272.181 48.1373 272.159 48.1316 272.136 48.1259C272.061 48.1067 271.987 48.088 271.889 48.0544L270.711 47.6524L271.284 48.7578C271.378 48.9399 271.465 49.1098 271.553 49.2846C261.836 44.785 252.146 40.3071 242.469 35.8353C219.786 25.3534 197.175 14.9049 174.457 4.28826L295.282 54.4795ZM116.956 92.1714L129.654 98.7606L178.384 1.2788L178.207 0.811091C178.207 0.811231 178.207 0.81137 178.206 0.81151C177.822 0.956664 177.43 1.09881 177.034 1.24234C175.977 1.62549 174.893 2.01852 173.861 2.50504L173.846 2.51206L173.831 2.52006C173.291 2.81964 172.687 2.97614 172.074 2.97614C171.468 2.97614 170.871 2.82328 170.335 2.53048C169.311 1.83973 168.081 1.53726 166.859 1.67807L165.378 1.84865L166.662 2.60549L169.374 4.20442C169.283 4.25395 169.191 4.30154 169.098 4.34715L164.62 6.06304L164.618 6.06382L124.296 21.7151L124.295 21.7154L100.317 31.0608L100.317 31.0609C97.7782 32.0513 95.2383 33.0367 92.6985 34.0221C88.9895 35.4611 85.281 36.8998 81.5783 38.3539C74.8334 40.9853 68.0996 43.6318 61.3769 46.2935L61.3587 46.3007L61.341 46.3094C60.9029 46.5241 60.4811 46.7719 60.0792 47.0508L60.5134 47.9388C65.794 46.2888 70.9382 44.3326 76.057 42.3594L76.0571 42.3593L106.839 30.4848L106.84 30.4843L150.142 13.6654C150.142 13.6652 150.143 13.6651 150.143 13.6649C151.971 12.9611 153.794 12.2635 155.614 11.5671C160.562 9.6735 165.486 7.78922 170.415 5.81455L170.425 5.81034L170.436 5.80566C170.91 5.59039 171.425 5.48936 171.942 5.50985C172.459 5.53034 172.965 5.67186 173.422 5.92415L173.422 5.92427L173.433 5.9298C174.175 6.31704 174.95 6.66289 175.713 7.00286C176.121 7.18507 176.526 7.36559 176.92 7.54989L176.921 7.55024C191.414 14.3022 205.911 21.0617 220.412 27.8288L220.414 27.8297C236.799 35.3907 253.191 42.9518 269.59 50.5128L269.8 50.0588L269.59 50.5129C269.702 50.5642 269.813 50.6154 269.924 50.6665C273.374 52.2537 276.68 53.7743 279.097 56.7268L279.115 56.7489L279.136 56.7687C279.434 57.0581 279.748 57.3299 280.076 57.5828C280.543 58.0366 281 58.4895 281.488 58.9745C281.751 59.2346 282.022 59.5039 282.309 59.7875C282.196 59.8437 282.088 59.898 281.983 59.9507C281.487 60.1986 281.065 60.41 280.618 60.5999L280.617 60.6005C266.81 66.5209 253.007 72.4565 239.207 78.4071L239.207 78.4072C225.053 84.5165 210.889 90.6334 196.713 96.7579L163.826 110.957L164.024 111.416L163.825 110.957L163.747 110.991C162.821 111.391 162.145 111.683 161.585 111.876C161.016 112.072 160.603 112.152 160.213 112.142C159.824 112.131 159.418 112.029 158.866 111.8C158.307 111.568 157.631 111.22 156.697 110.735L156.696 110.734C152.339 108.488 147.996 106.228 143.651 103.967C140.493 102.323 137.334 100.68 134.17 99.0412L99.1236 80.8957C99.1234 80.8956 99.1232 80.8955 99.123 80.8954C94.8967 78.6833 90.6638 76.5064 86.4354 74.3317C84.8087 73.4951 83.1827 72.6589 81.558 71.8211L81.5576 71.8209C73.4321 67.6397 65.3065 63.451 57.1809 59.2548L57.1792 59.254C56.7083 59.0129 56.2755 58.7225 55.8229 58.4188C55.7509 58.3705 55.6783 58.3218 55.6051 58.273L56.1698 56.7041L56.7798 55.0092L55.3835 56.1472L53.8777 57.3743L49.302 55.4282L48.8654 55.2425L48.6571 55.6688L48.4909 56.0091L48.2874 56.4256L48.6874 56.6599L52.7038 59.0134C51.4526 60.612 50.2305 62.1689 49.027 63.7021C47.6206 65.4939 46.2396 67.2532 44.8674 69.0088L44.867 69.0093C42.1561 72.4872 39.4489 75.9613 36.7453 79.4316C36.7452 79.4318 36.745 79.432 36.7448 79.4323L28.7346 89.6382L28.7336 89.6395C27.8858 90.7269 27.0335 91.8114 26.181 92.8962C24.3109 95.2758 22.4399 97.6566 20.6125 100.072C17.8996 103.405 15.3814 106.899 13.0711 110.536L13.8758 111.126C20.8972 102.781 27.6066 94.1655 34.2551 85.5572L54.3201 59.7231L66.6594 66.1646L66.6613 66.1656L79.3708 72.7324L91.903 79.2084L91.9033 79.2085C93.991 80.2855 96.0761 81.371 98.1622 82.457L98.1639 82.4579C100.249 83.5435 102.335 84.6296 104.424 85.7072C105.818 86.4261 107.211 87.1436 108.604 87.8609C111.388 89.2945 114.172 90.7278 116.956 92.1714ZM285.845 58.0771C285.611 58.2511 285.408 58.391 285.227 58.5006C284.899 58.6994 284.684 58.7707 284.519 58.782C284.368 58.7924 284.203 58.7559 283.964 58.6165C283.713 58.4702 283.415 58.2317 283.005 57.8717L282.999 57.8661L282.992 57.8608C282.114 57.1396 281.296 56.3518 280.487 55.537L285.845 58.0771Z" fill="#6895FF" stroke="#6895FF"/>
<path d="M74.1356 48.5836L73.8038 48.9911L73.5077 49.3548C73.6603 49.446 73.8081 49.5357 73.9525 49.6234L73.9941 49.6486C74.3038 49.8366 74.5973 50.014 74.8996 50.1827L91.1758 58.1157L91.1764 58.116L138.391 81.2073L74.1356 48.5836ZM74.1356 48.5836L74.234 48.8225C74.6703 48.6822 75.121 48.5485 75.5774 48.413C76.4758 48.1464 77.3965 47.8732 78.2739 47.5307L78.276 47.5299C92.0238 42.0933 105.738 36.6492 119.42 31.1976L119.422 31.1968C123.18 29.6811 126.94 28.1693 130.698 26.6577C141.197 22.4355 151.689 18.2158 162.151 13.9225L162.159 13.9195L162.166 13.9164C163 13.5434 163.904 13.3652 164.813 13.3942C165.722 13.4232 166.614 13.6586 167.424 14.0841L167.437 14.0907L167.45 14.0967C176.996 18.4291 186.57 22.6874 196.143 26.9461C197.173 27.4042 198.203 27.8623 199.233 28.3205L199.234 28.3211C209.199 32.7214 219.134 37.1218 229.04 41.5222L229.041 41.5226L260.128 55.2546L260.133 55.2572L263.159 56.6394C263.1 56.6667 263.042 56.6937 262.985 56.7202C262.343 57.0194 261.813 57.2659 261.273 57.4913L261.269 57.493L229.445 71.1029L229.444 71.1034L199.683 83.9187L74.1356 48.5836ZM168.413 95.9873L168.432 95.9997C168.817 96.2412 169.252 96.3842 169.7 96.4176C170.149 96.451 170.599 96.3738 171.013 96.1922L171.015 96.1913C178.261 93.0521 185.533 89.9522 192.805 86.8523C195.098 85.8751 197.39 84.8978 199.682 83.9193L168.413 95.9873ZM168.413 95.9873L168.392 95.9768M168.413 95.9873L168.392 95.9768M168.392 95.9768C167.861 95.7093 167.331 95.4416 166.8 95.1738C163.618 93.5685 160.431 91.9604 157.228 90.394M168.392 95.9768L157.228 90.394M157.228 90.394C153.427 88.5308 149.633 86.6837 145.842 84.8384M157.228 90.394L145.842 84.8384M145.842 84.8384C143.357 83.6286 140.874 82.4196 138.391 81.2074L145.842 84.8384ZM143.693 85.7923L167.707 97.4591C167.445 97.6252 167.151 97.7548 166.825 97.8982C166.777 97.9197 166.727 97.9415 166.677 97.9638C166.076 98.2306 165.368 98.5733 164.961 99.3861L164.564 100.177L165.446 100.109C166.158 100.053 166.855 99.8792 167.511 99.5932C174.898 96.4555 182.285 93.2989 189.671 90.1233C192.29 89.0026 194.882 87.8693 197.472 86.7371C200.338 85.4843 203.201 84.2329 206.092 83.0012L206.093 83.001C211.154 80.8388 216.236 78.7083 221.332 76.5726C225.085 74.9996 228.844 73.4238 232.607 71.8302L232.608 71.8298C237.23 69.8612 241.84 67.8807 246.448 65.9011C252.246 63.4099 258.042 60.92 263.855 58.4564C264.902 58.126 265.976 57.8959 267.064 57.7689L267.355 57.7349L267.468 57.464C267.844 56.5573 268.649 56.2073 269.742 55.8148C269.801 55.7934 269.861 55.7719 269.923 55.7502C270.921 55.3949 272.127 54.9659 272.866 53.8241L273.582 52.7198L272.313 53.0703C270.631 53.5352 268.993 54.1532 267.419 54.917L267.408 54.9227L267.396 54.9289C266.824 55.2438 266.186 55.4083 265.538 55.4083C264.89 55.4083 264.251 55.2438 263.679 54.9289L263.665 54.9211L263.651 54.9143C260.942 53.6428 258.198 52.4465 255.463 51.254C254.263 50.731 253.065 50.2087 251.873 49.6812L251.871 49.6805C244.381 46.3993 236.892 43.0955 229.402 39.769C227.334 38.8427 225.268 37.9156 223.201 36.9887C216.818 34.1256 210.436 31.2635 204.049 28.4274L204.049 28.4271C201.435 27.2713 198.828 26.13 196.224 24.9896C193.369 23.7398 190.517 22.4911 187.661 21.2254L187.661 21.2254C181.345 18.4279 175.029 15.6229 168.714 12.8103L168.711 12.8092C168.295 12.6268 167.91 12.4399 167.468 12.2254C167.331 12.1586 167.187 12.0891 167.036 12.0162C167.694 11.7062 168.347 11.438 168.998 11.1708C169.243 11.0702 169.488 10.9698 169.733 10.8673C170.91 10.3739 172.07 9.83719 173.116 9.02312L174.317 8.08972L172.797 8.12858C171.881 8.15198 170.979 8.3497 170.135 8.7113C168.022 9.56712 165.911 10.4278 163.8 11.2886C160.705 12.5506 157.609 13.8127 154.507 15.0597C143.981 19.2486 133.458 23.4449 122.938 27.6489L122.938 27.649C115.1 30.787 107.265 33.9402 99.4343 37.1085L99.434 37.1086C97.8374 37.7557 96.2401 38.4022 94.6424 39.0488C89.1562 41.2694 83.6664 43.4913 78.1903 45.7404L78.1883 45.7412C77.1243 46.1834 76.0888 46.7298 75.077 47.2636C74.6657 47.4807 74.2583 47.6956 73.8546 47.9007L73.9519 48.1371L73.3816 48.1766L70.1017 48.4034L69.774 48.4261L69.6647 48.7358L69.5207 49.1441L69.3707 49.5691L69.7779 49.7622C74.6643 52.0805 79.4981 54.4485 84.3489 56.8249C87.6386 58.4364 90.936 60.0518 94.263 61.658C100.083 64.4679 105.885 67.3171 111.688 70.1668C114.082 71.3421 116.476 72.5175 118.871 73.6902L118.871 73.6906L143.692 85.792L143.693 85.7923Z" fill="#6895FF" stroke="#6895FF"/>
<path d="M328.269 99.8718L328.268 99.8733C327.784 100.609 327.151 101.062 326.492 101.403C326.165 101.571 325.828 101.715 325.5 101.849C325.429 101.878 325.358 101.907 325.289 101.935C325.032 102.04 324.784 102.141 324.536 102.253C322.697 103.119 320.841 103.955 318.989 104.789C317.911 105.275 316.835 105.76 315.765 106.249C315.461 106.419 315.166 106.603 314.88 106.802C314.899 106.848 314.918 106.894 314.937 106.939C315.14 107.421 315.324 107.861 315.528 108.304L315.532 108.313L315.532 108.313C317.89 113.724 319.612 119.402 320.662 125.228C321.982 131.86 323.103 138.547 324.079 145.233L324.08 145.243L324.08 145.243C325.02 152.741 325.188 160.319 324.581 167.853C323.996 177.568 322.678 187.222 320.638 196.729C318.065 208.84 315.031 220.837 309.889 232.206L309.889 232.206C309.401 233.281 308.917 234.359 308.433 235.438C305.623 241.695 302.802 247.977 299.211 253.811L299.205 253.82L299.199 253.829C298.666 254.617 298.083 255.37 297.453 256.08L297.134 256.441L296.762 256.136L296.541 255.954L296.28 255.741L296.38 255.42C296.489 255.067 296.631 254.727 296.804 254.402L296.811 254.389L296.819 254.377C302.745 244.685 307.164 234.239 311.34 223.639C314.068 216.714 315.767 209.467 317.471 202.199C317.529 201.952 317.587 201.704 317.645 201.456C319.542 193.362 320.989 185.164 321.979 176.901C322.754 170.062 323.082 163.178 322.962 156.294M328.269 99.8718L323.462 156.284M328.269 99.8718L328.291 99.8377L328.787 99.0761L327.878 99.0647C327.483 99.0598 327.092 98.9718 326.73 98.8057C326.368 98.6397 326.043 98.3989 325.774 98.0977L325.76 98.0814L325.744 98.0665C318.298 91.0578 310.882 84.0529 303.495 77.0518L303.493 77.05C303.272 76.8426 303.037 76.6615 302.813 76.4954C302.742 76.443 302.674 76.3929 302.607 76.344C302.454 76.2324 302.309 76.1265 302.164 76.0124L301.791 75.7186L301.478 76.0762L301.101 76.5072L300.808 76.8433L301.108 77.1732C301.245 77.3225 301.386 77.4862 301.533 77.6555C301.846 78.0174 302.181 78.405 302.533 78.7327C309.299 85.0532 316.054 91.385 322.798 97.7282C323.399 98.2957 323.981 98.8832 324.62 99.5288C324.727 99.6364 324.835 99.7455 324.945 99.8565M328.269 99.8718L324.945 99.8565M322.962 156.294C322.962 156.293 322.962 156.293 322.962 156.292L323.462 156.284M322.962 156.294C322.962 156.294 322.962 156.294 322.962 156.294L323.462 156.284M322.962 156.294C322.82 149.47 322.137 142.669 320.92 135.958L320.918 135.948L320.918 135.948C319.677 128.212 317.854 120.586 315.463 113.137M323.462 156.284C323.319 149.433 322.633 142.606 321.412 135.869C320.167 128.107 318.337 120.455 315.938 112.982M315.463 113.137C315.463 113.138 315.464 113.139 315.464 113.14L315.938 112.982M315.463 113.137C315.463 113.136 315.462 113.136 315.462 113.135L315.938 112.982M315.463 113.137C315.035 111.852 314.546 110.606 314.023 109.274C313.797 108.697 313.565 108.105 313.328 107.486M315.938 112.982C315.506 111.685 315.009 110.416 314.482 109.074C314.255 108.496 314.023 107.904 313.789 107.291C313.635 107.356 313.482 107.421 313.328 107.486M324.945 99.8565C324.75 99.9537 324.564 100.047 324.385 100.137C323.733 100.464 323.168 100.748 322.588 101.016C315.032 104.486 307.467 107.957 299.896 111.427L324.945 99.8565ZM313.328 107.486C313.269 107.332 313.21 107.176 313.151 107.019L313.328 107.486ZM297.074 254.989C296.953 255.133 296.83 255.276 296.705 255.418L296.861 255.556C296.921 255.363 296.992 255.173 297.074 254.989ZM297.157 255.66L297.335 255.715C297.383 255.558 297.44 255.405 297.504 255.254C297.39 255.391 297.274 255.526 297.157 255.66Z" fill="#6895FF" stroke="#6895FF"/>
<path d="M144.066 183.707C145.024 183.238 145.994 182.787 147.101 182.273C147.318 182.172 147.539 182.069 147.767 181.963L144.066 183.707ZM144.066 183.707C143.767 183.859 143.47 184.017 143.175 184.179M144.066 183.707L143.175 184.179M143.175 184.179C142.667 184.332 142.152 184.455 141.63 184.546H141.606V184.55C141.6 184.551 141.594 184.552 141.588 184.553L141.606 184.658V185.046L141.673 185.169L141.704 185.226L141.844 185.486C142.159 185.316 142.465 185.145 142.767 184.977C142.969 184.864 143.169 184.753 143.369 184.642C143.447 184.619 143.524 184.594 143.601 184.569C144.077 184.377 144.554 184.185 145.032 183.993C147.513 182.994 150.013 181.988 152.465 180.895L143.175 184.179ZM141.369 184.606L141.606 185.546H141.673H141.715L141.757 185.539C142.434 185.423 143.102 185.258 143.756 185.045L143.772 185.039L143.788 185.033C144.263 184.841 144.739 184.65 145.216 184.457C147.697 183.459 150.207 182.449 152.669 181.351C159.6 178.273 166.512 175.158 173.405 172.004L173.407 172.003C177.146 170.276 180.879 168.546 184.609 166.816C189.041 164.761 193.471 162.707 197.906 160.662C197.906 160.662 197.906 160.662 197.906 160.662L213.807 153.335L213.825 153.327L213.843 153.317C214.33 153.043 214.797 152.734 215.242 152.394L215.593 152.125L215.369 151.744L215.137 151.347L214.932 150.997L214.547 151.125C214.426 151.166 214.292 151.207 214.153 151.25C213.804 151.357 213.416 151.476 213.071 151.631L213.066 151.633C204.572 155.565 196.077 159.474 187.583 163.36C187.583 163.36 187.583 163.36 187.583 163.36L154.474 178.489L154.465 178.493C153.077 179.158 151.688 179.774 150.261 180.276L150.252 180.279C149.764 180.461 149.23 180.464 148.74 180.287C146.11 178.991 143.522 177.604 140.952 176.171L140.95 176.17C140.264 175.791 140.002 175.51 139.903 175.23C139.799 174.935 139.826 174.509 140.078 173.707C140.512 172.329 140.972 170.967 141.435 169.596C141.691 168.837 141.949 168.075 142.203 167.307C142.62 166.066 143.039 164.824 143.458 163.582C144.738 159.784 146.019 155.981 147.289 152.177L147.29 152.174C147.445 151.697 147.563 151.19 147.675 150.709C147.72 150.515 147.764 150.326 147.809 150.144L147.921 149.695L147.482 149.549L146.973 149.379L146.527 149.23L146.351 149.665C146.264 149.879 146.175 150.095 146.084 150.313C145.847 150.883 145.604 151.466 145.4 152.061L145.399 152.063C143.014 159.105 140.619 166.14 138.212 173.167C138.045 173.58 137.864 173.987 137.668 174.386C132.584 171.705 127.521 169.041 122.479 166.387C114.385 162.126 106.342 157.893 98.3487 153.664C94.8138 151.794 91.275 149.933 87.7368 148.073C78.1379 143.026 68.5434 137.981 59.0418 132.754C54.0187 129.991 44.5805 124.922 36.168 120.512C31.9619 118.307 28.0097 116.265 24.9928 114.758C23.4849 114.004 22.2072 113.383 21.2469 112.94C20.7672 112.719 20.3622 112.541 20.0452 112.413C19.7486 112.294 19.4763 112.195 19.2909 112.169L17.7214 111.946L18.8792 113.029C19.3793 113.497 19.9329 113.902 20.5279 114.235L20.5279 114.235L20.5345 114.238C21.1812 114.587 21.8281 114.937 22.4751 115.286C28.6777 118.636 34.8908 121.991 41.113 125.308C52.1419 131.206 63.1634 137.1 74.1776 142.99L74.179 142.991C77.7835 144.904 81.4163 146.817 85.0393 148.726C88.3253 150.457 91.6033 152.183 94.8446 153.901C97.8786 155.51 100.911 157.126 103.943 158.742C107.728 160.759 111.512 162.777 115.3 164.778L115.3 164.778C119.272 166.873 123.259 168.954 127.247 171.036C129.456 172.189 131.665 173.342 133.872 174.498C134.639 174.902 135.387 175.323 136.16 175.758C136.439 175.915 136.721 176.074 137.008 176.235C136.849 176.749 136.693 177.252 136.54 177.747C135.986 179.541 135.466 181.222 134.915 182.905L134.914 182.907C134.433 184.396 133.938 185.883 133.442 187.371L133.441 187.373C132.946 188.861 132.45 190.351 131.967 191.844L131.96 191.865L131.955 191.886C131.843 192.376 131.772 192.874 131.744 193.376L131.72 193.808L132.143 193.894L132.586 193.985L133.009 194.072L133.156 193.666C133.293 193.289 133.438 192.927 133.584 192.563L133.597 192.53C133.746 192.156 133.896 191.779 134.033 191.394L134.035 191.39C134.708 189.433 135.376 187.474 136.045 185.516C136.872 183.092 137.699 180.667 138.538 178.241C138.685 177.904 138.847 177.575 139.025 177.255L147.218 181.668C147.109 181.718 147.001 181.768 146.895 181.817C145.786 182.333 144.809 182.787 143.846 183.258L143.841 183.261C143.308 183.53 142.774 183.828 142.25 184.12C141.952 184.286 141.657 184.45 141.369 184.606ZM147.783 181.404L138.836 176.585C138.548 177.058 138.293 177.55 138.072 178.059L147.783 181.404ZM214.814 152.09C214.425 152.38 214.019 152.644 213.597 152.881L187.791 163.814C196.286 159.928 204.781 156.019 213.276 152.087C213.592 151.945 213.929 151.842 214.265 151.739C214.37 151.706 214.476 151.674 214.58 151.64C214.598 151.627 214.616 151.613 214.634 151.599L214.649 151.618C214.668 151.612 214.687 151.606 214.705 151.6L214.938 151.996C214.911 152.017 214.885 152.037 214.858 152.057L214.863 152.074C214.847 152.079 214.83 152.085 214.814 152.09ZM150.427 180.747C151.878 180.237 153.285 179.613 154.682 178.944L148.543 180.747C149.151 180.974 149.818 180.974 150.427 180.747Z" fill="#6895FF" stroke="#6895FF"/>
<path d="M136.739 178.628L136.358 178.996C136.199 179.151 136.041 179.304 135.883 179.456C135.421 179.901 134.965 180.34 134.515 180.793C132.856 182.46 131.188 184.109 129.522 185.755C125.609 189.622 121.71 193.476 117.985 197.519C111.074 205.107 104.698 213.187 98.9049 221.699L98.9006 221.705L98.9006 221.705C93.6852 229.124 89.1816 237.042 85.4523 245.347C83.7867 249.123 82.4119 253.022 81.0302 256.941C80.6644 257.979 80.298 259.018 79.9256 260.057L79.9242 260.061C77.4851 266.689 75.8277 273.592 74.9873 280.623L74.9872 280.624C74.827 281.943 74.8012 283.247 74.7748 284.582C74.7595 285.356 74.744 286.139 74.7021 286.941L74.702 286.942C74.1509 297.095 75.3738 307.18 76.9901 317.231C77.3605 319.505 77.8925 321.767 78.4291 324.048C78.6911 325.162 78.9542 326.28 79.2002 327.407C79.3618 328.096 79.3905 328.81 79.2845 329.509L79.0741 330.898L78.3596 329.689C77.3689 328.012 76.7358 326.14 76.5012 324.197C74.9097 316.628 73.7978 308.961 73.1725 301.246L73.1725 301.245C72.3167 290.576 72.5361 279.943 75.2928 269.525L75.2929 269.525C76.4585 265.127 77.9518 260.815 79.4349 256.533C79.8484 255.339 80.2611 254.147 80.6656 252.957C80.6657 252.957 80.6657 252.956 80.6658 252.956L81.1392 253.117M136.739 178.628L92.2974 229.527C87.6899 236.917 83.9449 244.834 81.1392 253.117M136.739 178.628L136.349 178.27L136.017 177.963L135.688 177.66L135.35 177.954C135.142 178.135 134.932 178.316 134.723 178.497C134.125 179.015 133.524 179.535 132.931 180.066C126.393 185.811 120.27 192.032 114.61 198.682L136.739 178.628ZM81.1392 253.117C80.7325 254.314 80.3183 255.51 79.9039 256.706C78.4218 260.986 76.9366 265.275 75.7762 269.653C73.0393 279.997 72.8176 290.567 73.6709 301.205C74.2951 308.907 75.4055 316.56 76.995 324.115C77.1826 325.69 77.641 327.215 78.3468 328.622C78.3498 328.868 78.3328 329.115 78.2958 329.359L78.7901 329.434L79.2206 329.18C79.0881 328.956 78.9625 328.728 78.8439 328.496C78.8322 328.167 78.7883 327.839 78.7125 327.518C78.4701 326.407 78.2088 325.296 77.9475 324.185C77.4085 321.893 76.8695 319.602 76.4964 317.31C74.8786 307.25 73.6487 297.122 74.2027 286.915C74.2428 286.148 74.2582 285.38 74.2737 284.612C74.3009 283.257 74.3281 281.903 74.4908 280.564C75.3359 273.494 77.0024 266.553 79.4549 259.888M81.1392 253.117L79.4549 259.888M79.4549 259.888C79.8253 258.855 80.1903 257.82 80.5553 256.784C81.9379 252.863 83.3209 248.939 84.9953 245.144L79.4549 259.888Z" fill="#6895FF" stroke="#6895FF"/>
<path d="M5.45085 278.7C4.09583 271.679 3.21743 264.569 2.82196 257.423C2.54513 252.255 2.33532 247.187 2.39053 242.077C2.47908 235.212 2.71151 228.415 3.13198 221.62C3.51894 215.498 4.18248 209.396 4.8695 203.282L4.86951 203.282C5.35665 198.942 5.90899 194.602 6.72527 190.334C8.5977 180.548 10.5559 170.788 13.1985 161.18L13.1985 161.18L13.1999 161.175C15.7504 151.486 18.8263 141.95 22.4133 132.612L22.4203 132.594L22.4259 132.575C22.6634 131.774 22.8358 130.955 22.9412 130.125L22.9626 129.956L5.45085 278.7ZM5.45085 278.7C6.00491 281.57 6.55842 284.437 7.22256 287.666L7.50835 289.055L6.41447 288.152C5.69675 287.559 5.23757 286.705 5.1309 285.774M5.45085 278.7L5.1309 285.774M5.1309 285.774C3.56817 278.905 2.42348 271.944 1.70343 264.93L1.70334 264.929C0.678847 254.767 0.307899 244.547 0.592892 234.336C0.704137 228.647 1.15979 222.962 1.70302 217.288C2.31281 210.695 3.01167 204.087 3.92168 197.521L3.92175 197.521C4.68835 192.028 5.73241 186.572 6.77362 181.141L6.77383 181.14C6.81493 180.928 6.85601 180.716 6.89711 180.504C7.76381 176.032 8.63948 171.514 9.84045 167.097L9.84048 167.097C12.1362 158.663 14.6422 150.298 17.1686 141.94C17.1686 141.94 17.1686 141.94 17.1686 141.94L17.6472 142.084L5.1309 285.774Z" fill="#6895FF" stroke="#6895FF"/>
<path d="M327.145 274.902L326.76 275.184C326.628 275.28 326.496 275.377 326.363 275.475C325.879 275.833 325.381 276.2 324.865 276.537L324.861 276.54C322.964 277.75 321.066 278.958 319.169 280.166C314.201 283.327 309.236 286.486 304.299 289.694C302.333 290.971 300.4 292.305 298.46 293.647L298.244 293.796C296.378 295.087 294.504 296.383 292.599 297.632L292.598 297.633C287.465 300.968 282.309 304.26 277.073 307.451M327.145 274.902L276.812 307.024M327.145 274.902L326.881 274.504L326.671 274.186L326.493 273.918L326.176 273.969C325.785 274.03 325.402 274.141 325.037 274.298L325.008 274.31L324.981 274.326C324.129 274.828 323.296 275.368 322.473 275.902C322.28 276.027 322.087 276.152 321.894 276.277L321.894 276.277C319.59 277.768 317.274 279.246 314.955 280.724C309.67 284.094 304.376 287.47 299.211 291.029L299.21 291.029C291.571 296.31 283.824 301.396 275.869 306.152M327.145 274.902L276.125 306.582L275.869 306.152M277.073 307.451C277.073 307.451 277.073 307.451 277.073 307.451L276.812 307.024M277.073 307.451C277.073 307.45 277.074 307.45 277.074 307.45L276.812 307.024M277.073 307.451C272.551 310.225 268.005 312.943 263.465 315.658L263.16 315.84C258.517 318.616 253.88 321.39 249.273 324.224M276.812 307.024C272.292 309.798 267.748 312.514 263.206 315.23C258.463 318.066 253.721 320.901 249.011 323.798M249.273 324.224L249.011 323.798M249.273 324.224C243.752 327.622 238.279 331.097 232.804 334.572C229.711 336.536 226.618 338.5 223.515 340.451L223.514 340.452C219.153 343.182 214.784 345.882 210.416 348.581C209.467 349.168 208.518 349.755 207.569 350.341M249.273 324.224C249.273 324.224 249.273 324.224 249.273 324.224L249.011 323.798M249.011 323.798L207.569 350.341M206.786 349.599C206.767 349.604 206.747 349.607 206.728 349.61M206.786 349.599L206.401 349.593C206.508 349.621 206.619 349.627 206.728 349.61M206.786 349.599C206.768 349.614 206.751 349.629 206.733 349.645L206.728 349.61M206.786 349.599L206.728 349.61C206.728 349.61 206.728 349.61 206.728 349.61M207.569 350.341C207.359 350.473 207.125 350.561 206.88 350.599L206.88 350.599C206.635 350.637 206.385 350.623 206.145 350.56L205.313 350.339L205.917 349.726C206.227 349.41 206.562 349.119 206.918 348.857L206.932 348.847L206.946 348.838C213.529 344.649 220.119 340.49 226.716 336.361C228.695 335.109 230.672 333.85 232.649 332.591C237.363 329.588 242.082 326.581 246.855 323.655L246.855 323.655C256.487 317.756 266.173 311.948 275.869 306.152M207.569 350.341L275.869 306.152M326.191 274.981C326.238 274.972 326.285 274.964 326.332 274.956L326.321 274.885C326.277 274.917 326.234 274.949 326.191 274.981ZM325.981 274.515C326.065 274.496 326.15 274.479 326.235 274.466L326.17 274.376C326.106 274.423 326.044 274.469 325.981 274.515ZM207.031 350.049C206.957 350.074 206.881 350.093 206.804 350.105L206.824 350.236C206.892 350.172 206.961 350.11 207.031 350.049Z" fill="#6895FF" stroke="#6895FF"/>
<path d="M107.76 375.029L107.339 374.929L107.18 375.331L107.058 375.637L106.904 376.024L107.256 376.245C108.241 376.864 109.289 377.371 110.381 377.756L110.407 377.766L110.435 377.772C112.797 378.318 115.186 378.734 117.592 379.018L117.595 379.018C125.708 379.916 133.906 379.558 141.914 377.957C150.027 376.376 157.979 374.029 165.668 370.945C171.511 368.709 177.19 366.046 182.661 362.977L182.666 362.974C182.92 362.828 183.153 362.66 183.369 362.498C183.439 362.444 183.507 362.393 183.572 362.342C183.714 362.234 183.849 362.131 183.991 362.03L184.397 361.742L184.111 361.335L183.856 360.972L183.612 360.624L183.229 360.81C182.98 360.93 182.714 361.053 182.444 361.178C182.046 361.361 181.638 361.55 181.258 361.744L181.258 361.744L181.253 361.747C173.249 365.968 164.921 369.511 156.353 372.341L156.349 372.343C147.184 375.468 137.633 377.243 127.98 377.613L127.977 377.613C123.607 377.807 119.229 377.51 114.921 376.726C113.328 376.388 111.751 376.001 110.165 375.612C109.366 375.416 108.566 375.22 107.76 375.029Z" fill="#6895FF" stroke="#6895FF"/>
<path d="M22.0285 317.993L23.686 318.745L22.6453 317.251C22.3859 316.879 22.1003 316.527 21.7908 316.197L21.7849 316.191L21.7788 316.185C18.0215 312.448 15.0094 307.999 12.9107 303.085L12.9107 303.085L12.9084 303.079C11.7409 300.432 10.7785 297.703 9.808 294.952C9.37973 293.738 8.94989 292.519 8.50019 291.301C8.28183 290.288 7.81655 289.346 7.14621 288.563L6.42883 287.726L6.27162 288.817C6.19359 289.359 6.22811 289.912 6.37304 290.439L6.37291 290.439L6.37627 290.45C6.51403 290.909 6.65004 291.37 6.78639 291.833C7.24859 293.401 7.71471 294.982 8.26606 296.525C10.4557 303.132 13.7623 309.295 18.0356 314.732C19.0696 316.151 20.4445 317.274 22.0285 317.993Z" fill="#6895FF" stroke="#6895FF"/>
<path d="M313.285 253.999L312.807 253.67L312.553 254.191L312.542 254.214L312.393 254.517L312.619 254.768C313.17 255.38 313.759 255.956 314.383 256.491L314.394 256.501L314.405 256.509C321.793 262.143 329.18 267.753 336.568 273.341L336.579 273.35L336.591 273.358C337.079 273.684 337.585 273.979 338.109 274.241L338.492 274.432L338.74 274.083L339.006 273.709L339.287 273.312L338.899 273.02C338.607 272.799 338.319 272.54 338.007 272.259L337.998 272.251C337.689 271.972 337.357 271.674 337.004 271.409C330.768 266.728 324.514 262.062 318.242 257.411L318.242 257.411L318.231 257.404C317.073 256.592 315.885 255.779 314.7 254.968C314.227 254.645 313.755 254.321 313.285 253.999Z" fill="#6895FF" stroke="#6895FF"/>
<path d="M157.242 121.004L157.391 120.534L156.924 120.378L156.414 120.208L155.966 120.058L155.791 120.497C155.76 120.574 155.727 120.655 155.692 120.74C155.601 120.959 155.503 121.198 155.426 121.433C154.773 123.398 154.118 125.356 153.464 127.312C152.41 130.466 151.357 133.614 150.318 136.778C149.697 138.646 149.096 140.548 148.494 142.454C148.029 143.928 147.563 145.404 147.086 146.871C146.85 147.295 146.742 147.781 146.775 148.267C146.81 148.773 146.995 149.256 147.308 149.652L147.892 150.391L148.177 149.494L157.242 121.004Z" fill="#6895FF" stroke="#6895FF"/>
<path d="M297.52 256.008L297.752 255.576L297.325 255.336L297.103 255.211L296.787 255.033L296.52 255.279C296.303 255.478 296.101 255.693 295.915 255.922L295.902 255.938L295.89 255.956C292.055 261.605 288.239 267.277 284.441 272.972L284.435 272.98L284.43 272.988C284.299 273.203 284.288 273.438 284.281 273.605C284.279 273.658 284.278 273.712 284.276 273.77C284.272 273.924 284.267 274.101 284.248 274.343L284.124 275.882L285.126 274.708C285.38 274.411 285.596 274.169 285.79 273.953C285.855 273.88 285.918 273.81 285.979 273.741C286.216 273.474 286.424 273.232 286.608 272.968L286.608 272.968L286.611 272.963C287.491 271.669 288.374 270.378 289.256 269.089C291.214 266.227 293.169 263.37 295.081 260.482L295.081 260.481C295.734 259.491 296.286 258.408 296.823 257.353C297.056 256.896 297.286 256.444 297.52 256.008Z" fill="#6895FF" stroke="#6895FF"/>
<path d="M327.611 99.1955L327.515 99.2543L327.453 99.3484L327.431 99.3825L326.815 100.328L327.929 100.149C328.796 100.01 329.649 99.7986 330.482 99.5167L330.498 99.511L330.515 99.5042C331.592 99.0522 332.67 98.5327 333.736 98.019C334.435 97.6823 335.129 97.3482 335.813 97.0373C336.97 96.5123 338.135 95.9911 339.301 95.4689C341.073 94.6757 342.85 93.8803 344.614 93.0665L344.639 93.055L344.662 93.0408C345.243 92.6912 345.797 92.2974 346.32 91.8628L346.992 91.3036L346.169 91.0078C345.704 90.8404 345.204 90.7939 344.716 90.8728C344.249 90.9484 343.806 91.1368 343.426 91.4211C339.298 93.3076 335.168 95.2066 331.071 97.1509C330.153 97.5859 329.276 98.1433 328.443 98.6726C328.16 98.8521 327.883 99.0283 327.611 99.1955Z" fill="#6895FF" stroke="#6895FF"/>
<path d="M21.7989 129.785L21.7061 130.103L21.9621 130.312L22.1283 130.448L22.531 130.778L22.8443 130.363C23.9403 128.908 24.6007 127.274 25.1603 125.65C25.311 125.212 25.4538 124.778 25.5952 124.348C25.9861 123.159 26.3668 122.002 26.8775 120.891L25.9995 120.417C24.1789 123.324 22.765 126.477 21.7989 129.785Z" fill="#6895FF" stroke="#6895FF"/>
<path d="M197.787 250.612L198.146 251.162L198.561 250.693C199.02 250.499 199.454 250.247 199.852 249.941L199.881 249.919L199.907 249.892C201.311 248.432 202.658 246.917 203.997 245.411L203.997 245.41C204.54 244.81 205.052 244.171 205.55 243.55C205.692 243.372 205.834 243.195 205.975 243.021L206.285 242.638L205.907 242.323L205.542 242.017L205.169 241.704L204.846 242.069L197.97 249.851L197.426 250.057L197.765 250.578L197.787 250.612Z" fill="#6895FF" stroke="#6895FF"/>
<path d="M159.206 187.029L159.695 186.529L159.12 186.255C158.501 185.58 157.315 184.799 156.123 184.203C155.482 183.883 154.816 183.604 154.201 183.417C153.598 183.233 152.994 183.12 152.497 183.177L150.771 183.376L152.339 184.125L158.5 187.067L158.808 187.436L159.195 187.04L159.206 187.029Z" fill="#6895FF" stroke="#6895FF"/>
<path d="M229.459 209.434L229.7 208.999L229.266 208.756L228.801 208.495L228.384 208.262L228.132 208.667C227.031 210.433 226.044 212.27 225.176 214.167L224.986 214.583L225.384 214.81L225.783 215.037L226.222 215.287L226.467 214.844L229.459 209.434Z" fill="#6895FF" stroke="#6895FF"/>
<path d="M220.394 221.357L220.159 221.711L220.471 222L220.815 222.318L221.197 222.672L221.535 222.275C222.877 220.696 224.018 218.95 224.928 217.077L225.116 216.692L224.763 216.447L224.42 216.209L224 215.918L223.718 216.344L220.394 221.357Z" fill="#6895FF" stroke="#6895FF"/>
<path d="M205.502 241.167L205.373 241.31V241.502V242.447V243.489L206.185 242.837C206.735 242.397 207.761 241.37 208.714 240.32C209.194 239.792 209.664 239.248 210.054 238.759C210.437 238.279 210.766 237.823 210.943 237.478L210.943 237.478L210.947 237.47L211.872 235.58L211.052 235.025L205.502 241.167Z" fill="#6895FF" stroke="#6895FF"/>
<path d="M220.771 223.66L221.066 223.222L220.613 222.951L220.214 222.713L219.864 222.504L219.589 222.804C218.796 223.67 218.133 224.651 217.623 225.716L217.436 226.106L217.795 226.347L218.183 226.608L218.597 226.887L218.876 226.472L220.771 223.66Z" fill="#6895FF" stroke="#6895FF"/>
<path d="M213.088 234.399L213.343 234.062L213.052 233.754L212.72 233.403L212.377 233.04L212.014 233.382C211.212 234.138 210.553 235.037 210.068 236.034L209.895 236.389L210.2 236.64L210.533 236.912L210.931 237.238L211.246 236.83C211.68 236.267 212.109 235.697 212.535 235.131C212.72 234.886 212.904 234.642 213.088 234.399Z" fill="#6895FF" stroke="#6895FF"/>
<path d="M295.289 55.0656L295.592 55.6872L295.862 55.424C296.379 55.6012 296.865 55.5749 297.339 55.3816C297.874 55.163 298.37 54.7381 298.868 54.2843L299.658 53.5634L298.598 53.4195C298.018 53.3408 297.429 53.3963 296.873 53.5816C296.438 53.7266 296.033 53.9483 295.675 54.2351L294.619 53.694L295.278 55.0429L295.289 55.0656Z" fill="#6895FF" stroke="#6895FF"/>
<path d="M312.727 254.885L313.112 255.138L313.396 254.775L313.44 254.719L313.662 254.435L313.463 254.135C312.827 253.173 311.944 252.405 310.91 251.917L310.529 251.737L310.287 252.083L310.01 252.48L309.716 252.901L310.145 253.184L312.727 254.885Z" fill="#6895FF" stroke="#6895FF"/>
<path d="M142.045 185.196L142.788 183.674L141.337 184.549L141.321 184.559C140.289 184.644 139.308 185.059 138.519 185.746L138.233 185.995L138.395 186.337L138.584 186.735L138.821 187.234L139.294 186.949L141.625 185.543L141.88 185.534L142.011 185.265L142.045 185.196Z" fill="#6895FF" stroke="#6895FF"/>
<path d="M158.479 186.341L157.892 186.942L158.637 187.154C159.364 187.741 160.209 188.16 161.112 188.38L161.553 188.488L161.703 188.059L161.869 187.582L162.043 187.081L161.533 186.936L159.114 186.25L158.816 185.997L158.49 186.33L158.479 186.341Z" fill="#6895FF" stroke="#6895FF"/>
<path d="M198.542 249.967L197.684 249.087V250.144L196.235 251.507L196.706 252.354C197.151 252.236 197.638 252.064 198.017 251.753C198.362 251.472 198.602 251.089 198.667 250.593L198.92 250.355L198.565 249.99L198.542 249.967Z" fill="#6895FF" stroke="#6895FF"/>
<path d="M158.009 116.919L157.357 116.253L157.162 117.165C157.158 117.182 157.155 117.2 157.151 117.218L156.24 119.029L155.986 119.535L156.519 119.725L157.029 119.906L157.573 120.1L157.687 119.534C157.819 118.881 157.959 118.219 158.102 117.553L158.12 117.516L158.28 117.197L158.031 116.942L158.009 116.919Z" fill="#6895FF" stroke="#6895FF"/>
<path d="M157.316 117.642L158.038 118.38L158.169 117.356L158.173 117.323C158.264 117.114 158.353 116.907 158.442 116.699C158.569 116.404 158.697 116.107 158.83 115.803L159.064 115.27L158.501 115.119L158.035 114.994L157.483 114.846L157.41 115.413L157.2 117.054C157.197 117.059 157.195 117.065 157.193 117.07L157.058 117.379L157.293 117.62L157.316 117.642Z" fill="#6895FF" stroke="#6895FF"/>
<path d="M214.921 230.612L214.446 230.288L214.191 230.802L214.181 230.822L213.288 231.659L212.846 232.074L213.337 232.429L213.714 232.702L214.192 233.048L214.455 232.519L214.996 231.428L215.014 231.412L215.469 230.986L214.954 230.634L214.921 230.612Z" fill="#6895FF" stroke="#6895FF"/>
<path d="M215.336 230.373L215.805 230.693L216.063 230.188L216.074 230.166L216.921 229.385L217.35 228.989L216.893 228.626L216.549 228.353L216.071 227.974L215.793 228.518L215.265 229.552L215.245 229.57L214.784 229.996L215.303 230.35L215.336 230.373Z" fill="#6895FF" stroke="#6895FF"/>
<path d="M56.8494 54.2096L57.635 54.8042L58.6213 53.8842L59.0283 53.5045L58.6073 53.1404L58.2527 52.8337L57.772 52.4181L57.4811 52.983L56.8494 54.2096Z" fill="#6895FF" stroke="#6895FF"/>
<path d="M57.686 54.7474L57.9094 54.4655L57.7132 54.1641L57.691 54.13L57.3059 53.5384L56.8756 54.0981L55.2799 56.1736L56.0681 56.7889L57.686 54.7474Z" fill="#6895FF" stroke="#6895FF"/>
</svg>
