<svg width="331" height="356" viewBox="0 0 331 356" fill="none" xmlns="http://www.w3.org/2000/svg">
<mask id="path-1-outside-1" maskUnits="userSpaceOnUse" x="0" y="0.901367" width="331" height="311" fill="black">
<rect fill="white" y="0.901367" width="331" height="311"/>
<path d="M289.412 230.414C287.6 233.416 285.887 236.473 283.952 239.397C280.404 244.756 276.723 250.048 273.076 255.351C272.709 255.884 272.397 256.596 271.508 256.629C271.063 255.862 271.63 255.418 271.964 254.928C275.3 250.092 278.636 245.301 281.972 240.476C285.731 234.854 288.966 228.9 291.637 222.688C293.861 217.585 296.085 212.538 298.098 207.368C299.477 203.665 300.632 199.881 301.556 196.039C303.102 189.791 304.57 183.521 305.76 177.195C306.694 172.204 307.261 167.123 307.818 162.064C308.218 158.329 308.418 154.571 308.54 150.825C308.659 143.943 308.112 137.067 306.906 130.291C305.844 123.099 304.242 115.997 302.113 109.045C301.256 106.388 300.222 103.798 299.188 100.93C297.631 101.552 296.285 102.041 294.984 102.642C287.722 105.977 280.527 109.312 273.209 112.525C264.312 116.505 255.416 120.459 246.519 124.387C244.195 125.421 241.881 126.511 239.524 127.478C238.034 128.078 237.222 128.968 237.422 130.647C237.511 131.336 237.422 132.047 237.422 132.748C237.426 137.91 236.972 143.063 236.065 148.145C234.968 155.448 233.294 162.652 231.061 169.691C229.671 174.138 227.858 178.585 226.079 182.91C224.744 186.156 223.287 189.347 221.63 192.448C219.528 196.451 217.315 200.408 214.958 204.255C210.874 210.724 206.356 216.908 201.434 222.766C198.135 226.81 194.46 230.532 190.458 233.883C187.366 236.44 184.375 239.142 181.128 241.487C177.379 244.24 173.484 246.79 169.462 249.125C163.296 252.743 156.742 255.652 149.922 257.797C148.332 258.275 146.742 258.73 145.14 259.164C144.562 259.309 143.939 259.342 143.339 259.431L143.205 259.042C143.506 258.804 143.84 258.609 144.195 258.464C149.57 257.072 154.814 255.212 159.864 252.905C162.244 251.793 164.513 250.526 166.826 249.303C168.572 248.38 170.285 247.413 172.031 246.479C175.484 244.428 178.771 242.108 181.862 239.542C185.954 236.598 189.736 233.245 193.149 229.536C196.675 225.512 200.144 221.443 203.436 217.24C209.014 210.209 213.98 202.714 218.283 194.839C220.396 190.936 221.997 186.745 223.743 182.609C225.133 179.274 226.39 175.939 227.724 172.67C227.814 172.432 227.983 172.232 228.203 172.103C227.909 173.926 227.374 175.702 226.612 177.384C226.301 178.207 226.134 179.085 225.901 179.93L225.233 181.109L225.556 181.242L225.901 179.93C226.272 179.342 226.61 178.733 226.913 178.107C229.378 171.948 231.359 165.607 232.84 159.141C234.334 153.205 235.353 147.161 235.887 141.064C236.11 137.895 236.354 134.727 236.577 131.547C236.599 131.296 236.599 131.043 236.577 130.791C236.421 129.379 235.987 129.079 234.708 129.679C231.15 131.236 227.598 132.818 224.055 134.426C215.469 138.329 206.895 142.209 198.298 146.166C191.099 149.442 183.9 152.707 176.701 155.961C168.972 159.441 161.21 162.865 153.459 166.311L144.562 170.291C144.904 170.629 145.276 170.934 145.674 171.203C148.109 172.459 150.556 173.704 153.025 174.905C154.245 175.546 155.317 176.436 156.172 177.518C154.693 177.873 153.837 176.951 152.836 176.517C151.835 176.084 150.834 175.405 149.822 174.861C148.81 174.316 147.876 173.893 146.92 173.393C145.963 172.893 144.907 172.337 143.817 171.77L141.937 174.06L141.459 173.816L142.071 171.336C138.657 172.27 135.698 174.06 132.318 174.905C132.918 173.96 132.918 173.971 134.82 173.126L137.6 171.848L140.936 170.336C138.237 168.695 135.428 167.243 132.529 165.989C131.784 167.968 131.061 169.78 130.416 171.625C129.46 174.394 128.559 177.184 127.614 179.964C127.38 180.642 127.258 181.475 126.246 181.642C125.667 180.931 126.112 180.275 126.312 179.663C127.424 176.462 128.537 173.282 129.649 170.08C129.889 169.461 129.962 168.79 129.86 168.135C128.437 169.369 126.946 170.525 125.612 171.848C120.985 176.406 116.27 180.908 111.833 185.667C108.274 189.48 104.971 193.538 101.735 197.629C96.3489 204.262 91.4679 211.289 87.1333 218.652C83.8481 224.202 81.0285 230.014 78.7036 236.029C76.1902 242.855 73.5323 249.636 72.2645 256.829C71.7196 259.887 71.475 263.011 71.1524 266.112C70.8602 268.387 70.745 270.68 70.8077 272.972C71.0968 277.419 70.9634 281.866 71.7641 286.313C72.5648 290.76 73.0764 295.207 73.8548 299.654C74.2774 302.1 74.9669 304.49 75.5341 306.913C75.6948 307.285 75.7654 307.689 75.7403 308.093C75.7152 308.496 75.595 308.889 75.3895 309.237C75.0598 308.827 74.7799 308.379 74.5555 307.903C74.0172 306.269 73.5717 304.606 73.2209 302.922C72.309 297.775 71.4749 292.628 70.6853 287.469C69.7153 281.361 69.3429 275.172 69.5733 268.992C69.7715 261.923 70.9965 254.919 73.2098 248.202C75.1226 242.644 76.9909 236.963 79.2596 231.526C82.3786 223.841 86.3912 216.55 91.2147 209.803C94.1617 205.723 96.9531 201.52 100.111 197.574C103.448 193.282 107.095 189.147 110.754 185.066C113.824 181.665 117.015 178.396 120.318 175.172C123.332 172.248 126.568 169.613 129.704 166.756C130.16 166.356 130.583 165.9 131.195 165.288C129.649 164.41 128.359 163.621 127.013 162.932C118.038 158.362 109.019 153.86 100.067 149.235C89.591 143.821 79.1706 138.284 68.7058 132.826C61.5328 129.09 54.3264 125.388 47.1312 121.708C41.4817 118.773 35.8323 115.805 30.1717 112.814C27.9475 111.702 28.1477 111.858 26.6686 113.659C22.9208 118.217 21.6086 123.854 19.5401 129.135C15.4067 140.054 12.0619 151.256 9.53121 162.654C7.46754 171.336 5.85654 180.119 4.70472 188.969C4.02634 194.327 3.59262 199.73 3.01433 205.1C2.46236 210.295 2.20986 215.518 2.2581 220.742C2.2581 222.521 1.90224 224.3 1.95784 226.079C2.11354 231.037 2.42492 235.984 2.63622 240.943C3.01429 248.134 3.92499 255.287 5.36085 262.344C6.7085 269.756 9.02675 276.959 12.2558 283.767C14.1881 288.085 16.9071 292.006 20.2741 295.329C20.8762 295.786 21.2754 296.46 21.3862 297.208C20.5298 297.386 20.1406 296.719 19.6513 296.285C17.095 293.867 14.927 291.07 13.2234 287.992C10.022 282.396 7.60115 276.389 6.0281 270.137C4.02949 262.733 2.67144 255.172 1.96896 247.535C1.46851 242.288 1.25721 236.996 1.11264 231.715C0.968066 226.679 0.956945 221.643 1.11264 216.607C1.26833 211.57 1.66868 206.312 2.16913 201.187C2.68069 195.861 3.28123 190.536 4.12643 185.267C5.23852 178.34 6.48407 171.448 7.91868 164.588C10.2321 153.473 13.3429 142.538 17.2269 131.869C19.4511 125.822 22.0645 119.941 24.5 113.982L25.879 110.646C25.323 110.279 24.8781 109.935 24.3999 109.679C21.5196 108.156 18.617 106.7 15.7701 105.132C15.358 104.812 14.8694 104.604 14.3526 104.53C13.8358 104.456 13.3086 104.518 12.823 104.71C12.3337 103.854 11.9 103.12 11.3773 102.23C11.6998 102.23 11.9667 102.153 12.1446 102.23C13.1678 102.708 13.7794 102.23 14.3688 101.452C17.7051 97.2387 21.0414 93.0586 24.3777 88.8784L46.4417 61.2405C47.8207 59.5062 49.1774 57.7607 50.5787 55.9597C49.2553 54.5478 47.2424 54.3922 45.7744 52.7023C46.2782 52.6925 46.7816 52.7372 47.2757 52.8357C47.9764 53.1248 48.6547 53.4916 49.3442 53.8362C51.4683 54.8813 51.5684 54.8368 53.1143 52.9024C54.1707 51.5461 55.2495 50.2009 56.3282 48.8668C56.673 48.4443 56.9955 47.8884 57.9852 48.2998C56.4394 50.8234 54.2263 52.7467 52.7028 55.426C53.37 55.7929 53.9594 56.1376 54.5711 56.4377C60.1316 59.2171 65.692 61.9964 71.1636 64.7536C78.6813 68.5446 86.2102 72.3245 93.6724 76.2156C94.3202 76.604 95.0562 76.821 95.8111 76.8463C96.5661 76.8716 97.315 76.7043 97.9873 76.3602C101.49 74.6814 105.038 73.025 108.574 71.4574C109.386 71.0794 110.209 70.7348 111.01 70.3457C111.622 70.0677 112.222 69.7453 112.989 69.3562C112.771 69.1171 112.529 68.901 112.267 68.7114C107.492 66.4212 102.714 64.1421 97.9317 61.8742C88.7903 57.4939 79.6451 53.1136 70.4963 48.7334C69.7393 48.2684 68.8759 48.0049 67.9882 47.9679C67.1005 47.9309 66.2182 48.1217 65.4251 48.5221C63.9049 49.1914 62.3406 49.756 60.7432 50.2119C61.1213 49.1002 61.8553 49.1002 62.3446 48.8001C63.846 48.0219 65.6809 47.8995 66.793 46.3542C66.8778 46.2568 66.9978 46.1968 67.1266 46.1874C71.1079 45.9095 74.4776 43.8083 78.0808 42.4631C85.5541 39.6615 92.9718 36.7376 100.389 33.836C105.55 31.8126 110.687 29.7114 115.836 27.6436C115.946 27.5783 116.043 27.4957 116.126 27.399C115.528 26.5283 114.651 25.8881 113.64 25.5848C112.628 25.2814 111.543 25.3332 110.565 25.7314L76.4794 38.761C69.9254 41.2439 63.3603 43.712 56.7842 46.1652C56.1725 46.3876 55.5275 46.521 54.9047 46.6989L54.7157 46.2319C55.1561 45.9333 55.6169 45.6658 56.0947 45.4315C61.555 43.2969 67.0154 41.1513 72.4981 39.0501C80.4162 36.0261 88.3677 33.0578 96.2969 30.0561L108.997 25.2311C109.52 25.031 110.042 24.8086 110.843 24.4751L108.619 22.5073C109.115 22.6028 109.597 22.7597 110.054 22.9742C110.7 23.3827 111.44 23.6178 112.204 23.6567C112.968 23.6957 113.728 23.5372 114.413 23.1966C118.394 21.6402 122.398 20.1505 126.401 18.6496L155.227 7.78785C157.017 7.10969 158.808 6.43155 160.587 5.73115C161.095 5.49209 161.589 5.22482 162.066 4.93066L159.141 3.14077C159.617 2.93308 160.139 2.85455 160.654 2.91312C161.17 2.97168 161.661 3.16525 162.077 3.47428C162.739 3.86052 163.488 4.06963 164.254 4.08131C165.02 4.093 165.775 3.90686 166.448 3.54098C167.616 3.0407 168.794 2.55152 170.007 2.14017C170.723 1.90168 171.486 1.84067 172.231 1.96233C170.563 3.57435 168.172 3.73001 166.014 5.09745C167.727 5.8979 169.128 6.56491 170.552 7.20972C175.667 9.52956 180.779 11.842 185.887 14.147L203.258 21.996C205.349 22.9298 207.44 23.8748 209.519 24.8642C209.943 25.0808 210.412 25.1938 210.887 25.1938C211.363 25.1938 211.832 25.0808 212.255 24.8642C218.305 22.1441 224.358 19.4352 230.416 16.7374C233.619 15.3143 236.825 13.8987 240.035 12.4905C240.602 12.2901 241.181 12.1303 241.77 12.0125C241.437 13.1242 240.658 13.3466 240.102 13.6245C235.854 15.5367 231.595 17.4044 227.346 19.3055C222.809 21.3437 218.279 23.393 213.757 25.4535C213.477 25.5922 213.205 25.7482 212.945 25.9204C214.057 27.0321 255.204 45.7539 258.641 46.8211L259.163 45.8539C259.369 45.8962 259.567 45.9673 259.753 46.0652C260.331 46.5654 260.865 47.0991 261.465 47.5882C262.912 48.8428 264.558 49.8461 266.336 50.5566C268.883 51.5571 271.352 52.7801 273.843 53.8918C274.364 54.1495 274.939 54.278 275.519 54.2664C276.1 54.2548 276.669 54.1034 277.179 53.8251C278.914 53.0247 280.694 52.3131 282.473 51.6016C283.108 51.341 283.788 51.2051 284.475 51.2014C283.841 52.6689 282.406 52.8579 281.227 53.4249C280.048 53.9919 278.681 54.5367 276.979 55.2593C278.581 56.0486 279.837 56.6156 281.027 57.2827C282.217 57.9497 283.607 57.9275 284.363 59.1281L284.186 59.5729C283.496 59.4095 282.816 59.2053 282.15 58.9614C280.449 58.2388 278.758 57.4939 277.113 56.6601C276.374 56.2552 275.522 56.1075 274.69 56.2404C273.859 56.3732 273.095 56.779 272.52 57.3938C273.254 58.1609 273.888 58.9169 274.622 59.6173C276.557 61.3739 278.558 63.0415 280.482 64.8091C282.84 66.9548 285.109 69.1894 287.455 71.3462C291.403 74.9594 295.373 78.5392 299.343 82.1301C300.9 83.542 302.457 84.9428 304.003 86.377C306.227 88.4559 308.451 90.5349 310.676 92.6694C310.963 93.0432 311.378 93.2985 311.841 93.3867C312.305 93.4748 312.784 93.3897 313.189 93.1475C318.049 90.924 322.953 88.7005 327.846 86.5548C328.549 86.2851 329.266 86.0513 329.993 85.8544C330.082 87.044 329.337 87.1663 328.825 87.4109C325.756 88.8117 322.664 90.1791 319.572 91.5688L305.971 97.6945C305.46 97.928 304.993 98.2393 304.248 98.6617L306.628 101.096C305.193 101.452 304.615 100.541 303.881 100.063C303.508 99.7039 303.016 99.4955 302.499 99.477C301.982 99.4585 301.476 99.6314 301.078 99.9624C300.82 100.094 300.623 100.321 300.53 100.595C300.436 100.869 300.454 101.168 300.578 101.43C300.811 102.019 301.012 102.62 301.278 103.198C303.018 107.239 304.352 111.444 305.26 115.749C306.773 122.009 307.961 128.344 308.818 134.727C309.733 141.161 310.038 147.668 309.73 154.16C309.037 167.211 307.044 180.16 303.781 192.815C302.382 198.862 300.568 204.805 298.354 210.603C297.242 213.316 296.052 215.995 294.839 218.663C293.182 222.31 291.503 225.945 289.79 229.592C289.672 229.886 289.572 230.186 289.49 230.492L289.412 230.414ZM154.326 106.8C155.249 107.3 155.827 107.645 156.428 107.911C161.165 110.291 165.903 112.647 170.629 115.038C171.263 115.349 172.109 115.494 172.298 116.472C171.33 116.983 170.629 116.372 169.94 116.016C164.657 113.348 159.375 110.635 154.093 107.945C153.492 107.645 152.869 107.411 152.135 107.089C151.824 107.9 151.579 108.478 151.379 109.079C149.815 113.793 148.254 118.51 146.697 123.231C144.128 131.014 141.57 138.862 138.968 146.656C137.433 151.258 135.821 155.828 134.275 160.419C134.03 161.142 133.452 161.864 133.952 162.776C135.654 162.442 136.455 160.552 138.401 160.252C137.077 162.242 134.775 162.865 133.819 164.899C134.223 165.246 134.651 165.566 135.098 165.855C136.955 166.834 138.835 167.801 140.714 168.746C142.771 169.769 142.938 169.858 143.995 167.812C148.287 159.563 152.502 151.258 156.728 142.976C159.342 137.862 161.911 132.737 164.513 127.623C164.591 127.456 164.824 127.367 164.98 127.234C158.964 141.108 152.246 154.571 145.185 168.279C145.908 168.057 146.297 167.99 146.597 167.845C148.699 166.934 150.812 166.022 152.903 165.1C162.411 160.897 171.931 156.728 181.428 152.503C188.801 149.257 196.019 145.922 203.258 142.653C211.31 138.962 219.339 135.216 227.402 131.536C231.85 129.513 236.232 127.545 240.658 125.577C247.653 122.486 254.67 119.429 261.666 116.316C267.137 113.882 272.598 111.402 278.058 108.934C284.456 106.059 290.847 103.172 297.23 100.274C297.614 100.058 297.985 99.8202 298.342 99.5622C297.308 96.9052 296.174 94.5816 293.727 92.8918C287.933 88.9451 282.306 84.7538 276.612 80.6626C276.178 80.3513 275.811 79.9622 275.411 79.6176C275.633 79.5561 275.865 79.5443 276.092 79.5827C276.319 79.6211 276.534 79.7089 276.723 79.8399C278.447 81.0406 280.16 82.2635 281.872 83.4753C288.404 88.0483 294.932 92.6213 301.456 97.1942C301.775 97.4564 302.168 97.6141 302.579 97.6459C302.991 97.6778 303.403 97.5822 303.758 97.3721C305.527 96.4939 307.35 95.7156 309.13 94.8707C309.538 94.6282 309.928 94.357 310.298 94.0591C309.697 93.4365 309.252 92.9473 308.741 92.4582C306.661 90.5793 304.537 88.745 302.468 86.8995C297.701 82.5192 292.934 78.1056 288.167 73.6586C282.929 68.8226 277.669 63.9976 272.475 59.1059C272.095 58.6391 271.566 58.3178 270.976 58.1962C270.386 58.0747 269.773 58.1604 269.239 58.4389C267.015 59.4394 264.646 60.34 262.355 61.3072C255.949 63.9976 249.555 66.7214 243.149 69.4229C234.994 72.8248 226.879 76.2268 218.805 79.6287C218.04 80.0076 217.297 80.4308 216.581 80.8961C218.183 81.7744 219.395 82.4303 220.607 83.1196C221.819 83.8089 223.031 84.5204 224.266 85.2097C225.5 85.8989 226.768 86.4882 227.947 87.233C229.126 87.9779 230.571 88.1224 231.417 89.5454C231.054 89.641 230.675 89.6484 230.309 89.5672C229.943 89.486 229.602 89.3184 229.315 89.0785C225.189 86.855 221.052 84.5426 216.959 82.1857C216.435 81.8332 215.829 81.6233 215.199 81.5765C214.569 81.5297 213.938 81.6477 213.367 81.9189C206.509 84.8835 199.637 87.7926 192.749 90.6461C181.465 95.3747 170.166 100.092 158.852 104.799C157.484 105.377 156.128 106.021 154.326 106.8ZM28.4813 110.402C28.6778 110.607 28.8897 110.796 29.1152 110.969L50.6343 122.22C59.62 126.904 68.6094 131.584 77.6026 136.261C86.833 141.03 96.0856 145.755 105.327 150.513L124.233 160.23C126.223 161.253 128.192 162.309 130.194 163.287C131.428 163.877 131.673 163.743 132.184 162.465C132.607 161.353 133.018 160.319 133.385 159.241C136.67 149.605 139.939 139.948 143.194 130.269C145.581 123.146 147.961 116.012 150.334 108.868C151.134 106.477 151.123 106.477 148.966 105.377C138.497 100.085 128.025 94.7929 117.549 89.501C111.573 86.4844 105.587 83.4901 99.5887 80.5181C97.498 79.473 97.3645 79.5397 96.2524 81.6298C95.4406 83.2196 94.6622 84.8317 93.8281 86.3992C89.4761 94.6261 85.1204 102.846 80.761 111.058C77.9918 116.283 75.2005 121.541 72.487 126.767C72.1217 127.398 71.7245 128.01 71.297 128.601L70.8522 128.323C75.0781 120.163 79.1595 111.914 83.5634 103.865C86.7218 98.0947 95.7965 80.5959 96.0967 78.8727C93.9615 78.0834 92.4157 80.0956 90.5363 80.2847L90.3806 79.9066L94.3285 77.8165C91.526 76.3713 89.0572 75.0706 86.5439 73.8032L59.5755 60.1509C57.4181 59.0392 55.2384 57.9942 53.0809 56.8935C52.9116 56.7756 52.7196 56.6944 52.517 56.6552C52.3145 56.6159 52.106 56.6194 51.9049 56.6655C51.7038 56.7115 51.5146 56.7991 51.3494 56.9226C51.1842 57.0462 51.0467 57.2029 50.9456 57.3827C48.8327 60.1065 46.6641 62.7747 44.54 65.4762C40.0916 71.072 35.6655 76.6677 31.2616 82.2635C26.2349 88.6005 21.1749 94.904 16.1371 101.241C15.6366 101.864 15.2029 102.542 14.5913 103.409C18.7282 105.377 22.3759 107.633 26.3238 109.423L27.9586 107.367L28.3034 108.734C29.0596 108.034 29.1708 106.855 30.4275 106.677L28.4813 110.402ZM159.764 49.7673C160.157 50.1177 160.573 50.4409 161.01 50.7345C165.714 53.3026 170.418 55.8374 175.133 58.3944L190.258 66.5991C194.284 68.8226 198.332 70.9349 202.335 73.1917C202.789 73.4731 203.307 73.634 203.84 73.6593C204.373 73.6846 204.904 73.5734 205.382 73.3363C210.943 70.9571 216.503 68.6447 222.142 66.3212L250.211 54.6367C250.611 54.47 250.956 54.2142 251.623 53.8362C250.812 53.4471 250.267 53.1692 249.711 52.9246C242.86 49.9599 236.01 46.9953 229.159 44.0307C220.04 40.0728 210.924 36.1002 201.813 32.1128C201.331 31.8721 200.8 31.7468 200.261 31.7468C199.723 31.7468 199.192 31.8721 198.71 32.1128C195.184 33.7471 191.615 35.2923 188.067 36.871L160.999 49.0224C160.587 49.2466 160.19 49.4953 159.809 49.7673H159.764ZM156.484 49.8896L156.561 49.3337C155.994 48.9779 155.449 48.5888 154.849 48.2219C152.947 47.188 151.034 46.1764 149.133 45.1313L134.308 36.9711C130.171 34.7476 126.034 32.4463 121.92 30.145C117.805 27.8437 118.695 27.8548 114.135 29.6114C105.816 32.8243 97.5425 36.1817 89.2351 39.4391C83.5301 41.6626 77.8139 43.8861 72.1088 46.1096C71.4305 46.3764 70.7854 46.6988 69.7512 47.2213C70.9634 47.8439 71.7419 48.2553 72.5314 48.6444C75.5786 50.1267 78.6257 51.5868 81.6729 53.0247C88.0674 56.0486 94.4842 59.0392 100.879 62.0743C104.956 64.0235 109.034 65.9913 113.112 67.9776C113.569 68.2656 114.089 68.4383 114.627 68.4809C115.166 68.5235 115.707 68.4347 116.203 68.2222C121.764 65.6578 127.324 63.1268 132.885 60.629C138.445 58.1498 143.95 55.704 149.477 53.2248C151.824 52.0908 154.17 50.9791 156.55 49.8896H156.484ZM116.259 69.2117C117.082 69.6675 117.671 70.0232 118.283 70.3234C123.844 72.9694 129.337 75.5819 134.842 78.239C143.116 82.2191 151.401 86.1769 159.62 90.257C160.39 90.6904 161.255 90.9292 162.139 90.9525C163.023 90.9757 163.899 90.7827 164.691 90.3904C168.294 88.7672 171.975 87.3108 175.623 85.7877L201.379 75.0149C201.672 74.8427 201.948 74.6416 202.202 74.4146C201.757 74.1033 201.479 73.8588 201.156 73.6809C197.82 71.8132 194.484 69.9454 191.148 68.1222C186.455 65.5541 181.739 63.0192 177.046 60.44C171.404 57.3493 165.777 54.2328 160.165 51.0903C159.65 50.7759 159.063 50.6004 158.461 50.5809C157.859 50.5615 157.262 50.6986 156.728 50.979C151.735 53.2025 146.719 55.426 141.726 57.7162L117.482 68.6002C117.138 68.7225 116.826 68.9115 116.259 69.2117ZM198.554 30.9121C197.553 30.4007 196.908 30.0227 196.219 29.7225L177.447 21.5735C171.197 18.8608 164.924 16.1704 158.686 13.4133C158.202 13.1854 157.674 13.0673 157.14 13.0673C156.605 13.0673 156.077 13.1854 155.594 13.4133C151.045 15.2476 146.452 16.9931 141.882 18.783L120.685 27.0988C120.217 27.3285 119.763 27.5885 119.328 27.8771C120.029 28.3329 120.441 28.6775 120.985 28.9888L132.106 35.0144C140.392 39.517 148.688 43.9973 156.951 48.5221C157.321 48.7688 157.75 48.9158 158.194 48.9489C158.638 48.982 159.083 48.9001 159.486 48.7111C161.71 47.6994 163.935 46.7545 166.159 45.7539C170.807 43.6527 175.434 41.507 180.093 39.417C185.498 36.9934 190.925 34.6142 196.341 32.2018C196.93 31.8238 197.564 31.4124 198.543 30.9121H198.554ZM152.558 105.899C154.359 105.643 211.721 81.5742 213.301 80.4514C212.622 79.9956 212.033 79.5508 211.388 79.1951C209.375 78.0834 207.306 77.0717 205.327 75.8599C204.942 75.5808 204.484 75.4178 204.01 75.3902C203.535 75.3627 203.062 75.4717 202.647 75.7043C202.241 75.8939 201.825 76.0609 201.401 76.2045L167.137 90.4571C166.081 90.9018 165.069 91.4465 164.001 91.869C162.055 92.625 160.087 93.3254 158.118 94.0258C158.007 94.0258 157.818 93.859 157.395 93.6144L160.532 91.8134C159.898 91.4799 159.52 91.2686 159.119 91.0796L135.965 80.0845C129.293 76.8975 122.62 73.692 115.948 70.4679C115.498 70.2323 114.998 70.1091 114.491 70.1091C113.983 70.1091 113.483 70.2323 113.034 70.4679C108.586 72.4357 104.137 74.3701 99.6888 76.349C99.0638 76.6847 98.4586 77.0559 97.8761 77.4608C98.0874 78.7059 98.9882 78.895 99.7 79.2507C107.433 83.1863 115.162 87.1107 122.887 91.0241C131.584 95.471 140.288 99.8847 148.999 104.265C149.711 104.621 150.467 104.876 151.057 105.121C152.235 104.321 151.802 102.72 153.448 102.064L152.558 105.899ZM269.495 56.9825C269.372 56.6601 269.361 56.4488 269.239 56.3265C266.158 53.1914 263.167 49.934 258.819 48.4776C258.522 48.3602 258.233 48.2266 257.951 48.0774C250.467 44.6755 242.982 41.2513 235.498 37.8605C228.014 34.4697 220.262 31.0233 212.667 27.5435C212.138 27.2536 211.549 27.0915 210.946 27.0703C210.344 27.049 209.745 27.1692 209.197 27.4212C207.228 28.344 205.249 29.2222 203.292 30.145C202.875 30.3807 202.477 30.6484 202.102 30.9455C202.569 31.1789 202.836 31.3345 203.114 31.4568C207.095 33.1689 211.087 34.8588 215.058 36.582L239.079 47.0546C243.338 48.9112 247.642 50.7011 251.89 52.6133C252.406 52.8786 252.978 53.017 253.558 53.017C254.139 53.017 254.711 52.8786 255.227 52.6133C256.261 52.1242 257.328 51.6795 258.396 51.2681C259.016 51.0602 259.647 50.8858 260.287 50.7456L260.52 51.2348C260.131 51.5742 259.71 51.8757 259.263 52.1353C258.463 52.5355 257.595 52.7801 256.817 53.247C256.028 53.7457 255.266 54.2875 254.537 54.8701C253.425 54.3699 252.157 55.1036 250.878 55.6484C246.352 57.5495 241.837 59.4728 237.3 61.3628L207.273 73.8254C206.706 74.1244 206.157 74.4547 205.627 74.8148C206.472 75.3818 207.006 75.8043 207.607 76.1378C209.497 77.1828 211.466 78.1056 213.312 79.2396C213.814 79.5671 214.395 79.7533 214.993 79.7787C215.592 79.8042 216.187 79.6678 216.715 79.3841C222.053 77.0939 227.413 74.9372 232.762 72.647L266.792 58.3277C267.671 57.883 268.561 57.4383 269.495 56.9825ZM159.13 12.157C159.842 12.5572 160.242 12.8463 160.698 13.0464L180.872 21.8069L198.421 29.4113C198.848 29.6923 199.333 29.8715 199.84 29.9351C200.347 29.9987 200.862 29.9451 201.346 29.7782C203.57 28.7665 205.794 27.8104 208.018 26.7876C208.318 26.6542 208.507 26.3095 208.83 25.976C208.418 25.7314 208.163 25.5535 207.873 25.4201L194.106 19.2055C184.519 14.8697 174.937 10.5264 165.358 6.17581C164.933 5.96953 164.469 5.85773 163.996 5.84813C163.524 5.83854 163.055 5.93139 162.622 6.12023L114.658 24.2528C114.394 24.3849 114.141 24.5373 113.901 24.7085C115.87 26.365 117.694 27.1211 120.251 26.0872C131.239 21.6402 142.304 17.36 153.347 13.0242C156.795 11.6679 160.246 10.3374 163.701 9.033C163.994 8.82057 164.346 8.7062 164.707 8.7062C165.069 8.7062 165.421 8.82057 165.714 9.033C163.668 10.4894 161.321 10.8229 159.13 12.1904V12.157ZM267.893 52.5689L267.582 53.0469C268.294 53.7585 268.983 54.4922 269.728 55.1703C271.085 56.4044 271.452 56.4044 273.432 55.0814L267.893 52.5689ZM300.934 98.1504C300.21 97.3159 299.253 96.7159 298.187 96.4271C299.177 99.2287 299.51 99.4177 300.934 98.1948V98.1504Z"/>
</mask>
<path d="M289.412 230.414C287.6 233.416 285.887 236.473 283.952 239.397C280.404 244.756 276.723 250.048 273.076 255.351C272.709 255.884 272.397 256.596 271.508 256.629C271.063 255.862 271.63 255.418 271.964 254.928C275.3 250.092 278.636 245.301 281.972 240.476C285.731 234.854 288.966 228.9 291.637 222.688C293.861 217.585 296.085 212.538 298.098 207.368C299.477 203.665 300.632 199.881 301.556 196.039C303.102 189.791 304.57 183.521 305.76 177.195C306.694 172.204 307.261 167.123 307.818 162.064C308.218 158.329 308.418 154.571 308.54 150.825C308.659 143.943 308.112 137.067 306.906 130.291C305.844 123.099 304.242 115.997 302.113 109.045C301.256 106.388 300.222 103.798 299.188 100.93C297.631 101.552 296.285 102.041 294.984 102.642C287.722 105.977 280.527 109.312 273.209 112.525C264.312 116.505 255.416 120.459 246.519 124.387C244.195 125.421 241.881 126.511 239.524 127.478C238.034 128.078 237.222 128.968 237.422 130.647C237.511 131.336 237.422 132.047 237.422 132.748C237.426 137.91 236.972 143.063 236.065 148.145C234.968 155.448 233.294 162.652 231.061 169.691C229.671 174.138 227.858 178.585 226.079 182.91C224.744 186.156 223.287 189.347 221.63 192.448C219.528 196.451 217.315 200.408 214.958 204.255C210.874 210.724 206.356 216.908 201.434 222.766C198.135 226.81 194.46 230.532 190.458 233.883C187.366 236.44 184.375 239.142 181.128 241.487C177.379 244.24 173.484 246.79 169.462 249.125C163.296 252.743 156.742 255.652 149.922 257.797C148.332 258.275 146.742 258.73 145.14 259.164C144.562 259.309 143.939 259.342 143.339 259.431L143.205 259.042C143.506 258.804 143.84 258.609 144.195 258.464C149.57 257.072 154.814 255.212 159.864 252.905C162.244 251.793 164.513 250.526 166.826 249.303C168.572 248.38 170.285 247.413 172.031 246.479C175.484 244.428 178.771 242.108 181.862 239.542C185.954 236.598 189.736 233.245 193.149 229.536C196.675 225.512 200.144 221.443 203.436 217.24C209.014 210.209 213.98 202.714 218.283 194.839C220.396 190.936 221.997 186.745 223.743 182.609C225.133 179.274 226.39 175.939 227.724 172.67C227.814 172.432 227.983 172.232 228.203 172.103C227.909 173.926 227.374 175.702 226.612 177.384C226.301 178.207 226.134 179.085 225.901 179.93L225.233 181.109L225.556 181.242L225.901 179.93C226.272 179.342 226.61 178.733 226.913 178.107C229.378 171.948 231.359 165.607 232.84 159.141C234.334 153.205 235.353 147.161 235.887 141.064C236.11 137.895 236.354 134.727 236.577 131.547C236.599 131.296 236.599 131.043 236.577 130.791C236.421 129.379 235.987 129.079 234.708 129.679C231.15 131.236 227.598 132.818 224.055 134.426C215.469 138.329 206.895 142.209 198.298 146.166C191.099 149.442 183.9 152.707 176.701 155.961C168.972 159.441 161.21 162.865 153.459 166.311L144.562 170.291C144.904 170.629 145.276 170.934 145.674 171.203C148.109 172.459 150.556 173.704 153.025 174.905C154.245 175.546 155.317 176.436 156.172 177.518C154.693 177.873 153.837 176.951 152.836 176.517C151.835 176.084 150.834 175.405 149.822 174.861C148.81 174.316 147.876 173.893 146.92 173.393C145.963 172.893 144.907 172.337 143.817 171.77L141.937 174.06L141.459 173.816L142.071 171.336C138.657 172.27 135.698 174.06 132.318 174.905C132.918 173.96 132.918 173.971 134.82 173.126L137.6 171.848L140.936 170.336C138.237 168.695 135.428 167.243 132.529 165.989C131.784 167.968 131.061 169.78 130.416 171.625C129.46 174.394 128.559 177.184 127.614 179.964C127.38 180.642 127.258 181.475 126.246 181.642C125.667 180.931 126.112 180.275 126.312 179.663C127.424 176.462 128.537 173.282 129.649 170.08C129.889 169.461 129.962 168.79 129.86 168.135C128.437 169.369 126.946 170.525 125.612 171.848C120.985 176.406 116.27 180.908 111.833 185.667C108.274 189.48 104.971 193.538 101.735 197.629C96.3489 204.262 91.4679 211.289 87.1333 218.652C83.8481 224.202 81.0285 230.014 78.7036 236.029C76.1902 242.855 73.5323 249.636 72.2645 256.829C71.7196 259.887 71.475 263.011 71.1524 266.112C70.8602 268.387 70.745 270.68 70.8077 272.972C71.0968 277.419 70.9634 281.866 71.7641 286.313C72.5648 290.76 73.0764 295.207 73.8548 299.654C74.2774 302.1 74.9669 304.49 75.5341 306.913C75.6948 307.285 75.7654 307.689 75.7403 308.093C75.7152 308.496 75.595 308.889 75.3895 309.237C75.0598 308.827 74.7799 308.379 74.5555 307.903C74.0172 306.269 73.5717 304.606 73.2209 302.922C72.309 297.775 71.4749 292.628 70.6853 287.469C69.7153 281.361 69.3429 275.172 69.5733 268.992C69.7715 261.923 70.9965 254.919 73.2098 248.202C75.1226 242.644 76.9909 236.963 79.2596 231.526C82.3786 223.841 86.3912 216.55 91.2147 209.803C94.1617 205.723 96.9531 201.52 100.111 197.574C103.448 193.282 107.095 189.147 110.754 185.066C113.824 181.665 117.015 178.396 120.318 175.172C123.332 172.248 126.568 169.613 129.704 166.756C130.16 166.356 130.583 165.9 131.195 165.288C129.649 164.41 128.359 163.621 127.013 162.932C118.038 158.362 109.019 153.86 100.067 149.235C89.591 143.821 79.1706 138.284 68.7058 132.826C61.5328 129.09 54.3264 125.388 47.1312 121.708C41.4817 118.773 35.8323 115.805 30.1717 112.814C27.9475 111.702 28.1477 111.858 26.6686 113.659C22.9208 118.217 21.6086 123.854 19.5401 129.135C15.4067 140.054 12.0619 151.256 9.53121 162.654C7.46754 171.336 5.85654 180.119 4.70472 188.969C4.02634 194.327 3.59262 199.73 3.01433 205.1C2.46236 210.295 2.20986 215.518 2.2581 220.742C2.2581 222.521 1.90224 224.3 1.95784 226.079C2.11354 231.037 2.42492 235.984 2.63622 240.943C3.01429 248.134 3.92499 255.287 5.36085 262.344C6.7085 269.756 9.02675 276.959 12.2558 283.767C14.1881 288.085 16.9071 292.006 20.2741 295.329C20.8762 295.786 21.2754 296.46 21.3862 297.208C20.5298 297.386 20.1406 296.719 19.6513 296.285C17.095 293.867 14.927 291.07 13.2234 287.992C10.022 282.396 7.60115 276.389 6.0281 270.137C4.02949 262.733 2.67144 255.172 1.96896 247.535C1.46851 242.288 1.25721 236.996 1.11264 231.715C0.968066 226.679 0.956945 221.643 1.11264 216.607C1.26833 211.57 1.66868 206.312 2.16913 201.187C2.68069 195.861 3.28123 190.536 4.12643 185.267C5.23852 178.34 6.48407 171.448 7.91868 164.588C10.2321 153.473 13.3429 142.538 17.2269 131.869C19.4511 125.822 22.0645 119.941 24.5 113.982L25.879 110.646C25.323 110.279 24.8781 109.935 24.3999 109.679C21.5196 108.156 18.617 106.7 15.7701 105.132C15.358 104.812 14.8694 104.604 14.3526 104.53C13.8358 104.456 13.3086 104.518 12.823 104.71C12.3337 103.854 11.9 103.12 11.3773 102.23C11.6998 102.23 11.9667 102.153 12.1446 102.23C13.1678 102.708 13.7794 102.23 14.3688 101.452C17.7051 97.2387 21.0414 93.0586 24.3777 88.8784L46.4417 61.2405C47.8207 59.5062 49.1774 57.7607 50.5787 55.9597C49.2553 54.5478 47.2424 54.3922 45.7744 52.7023C46.2782 52.6925 46.7816 52.7372 47.2757 52.8357C47.9764 53.1248 48.6547 53.4916 49.3442 53.8362C51.4683 54.8813 51.5684 54.8368 53.1143 52.9024C54.1707 51.5461 55.2495 50.2009 56.3282 48.8668C56.673 48.4443 56.9955 47.8884 57.9852 48.2998C56.4394 50.8234 54.2263 52.7467 52.7028 55.426C53.37 55.7929 53.9594 56.1376 54.5711 56.4377C60.1316 59.2171 65.692 61.9964 71.1636 64.7536C78.6813 68.5446 86.2102 72.3245 93.6724 76.2156C94.3202 76.604 95.0562 76.821 95.8111 76.8463C96.5661 76.8716 97.315 76.7043 97.9873 76.3602C101.49 74.6814 105.038 73.025 108.574 71.4574C109.386 71.0794 110.209 70.7348 111.01 70.3457C111.622 70.0677 112.222 69.7453 112.989 69.3562C112.771 69.1171 112.529 68.901 112.267 68.7114C107.492 66.4212 102.714 64.1421 97.9317 61.8742C88.7903 57.4939 79.6451 53.1136 70.4963 48.7334C69.7393 48.2684 68.8759 48.0049 67.9882 47.9679C67.1005 47.9309 66.2182 48.1217 65.4251 48.5221C63.9049 49.1914 62.3406 49.756 60.7432 50.2119C61.1213 49.1002 61.8553 49.1002 62.3446 48.8001C63.846 48.0219 65.6809 47.8995 66.793 46.3542C66.8778 46.2568 66.9978 46.1968 67.1266 46.1874C71.1079 45.9095 74.4776 43.8083 78.0808 42.4631C85.5541 39.6615 92.9718 36.7376 100.389 33.836C105.55 31.8126 110.687 29.7114 115.836 27.6436C115.946 27.5783 116.043 27.4957 116.126 27.399C115.528 26.5283 114.651 25.8881 113.64 25.5848C112.628 25.2814 111.543 25.3332 110.565 25.7314L76.4794 38.761C69.9254 41.2439 63.3603 43.712 56.7842 46.1652C56.1725 46.3876 55.5275 46.521 54.9047 46.6989L54.7157 46.2319C55.1561 45.9333 55.6169 45.6658 56.0947 45.4315C61.555 43.2969 67.0154 41.1513 72.4981 39.0501C80.4162 36.0261 88.3677 33.0578 96.2969 30.0561L108.997 25.2311C109.52 25.031 110.042 24.8086 110.843 24.4751L108.619 22.5073C109.115 22.6028 109.597 22.7597 110.054 22.9742C110.7 23.3827 111.44 23.6178 112.204 23.6567C112.968 23.6957 113.728 23.5372 114.413 23.1966C118.394 21.6402 122.398 20.1505 126.401 18.6496L155.227 7.78785C157.017 7.10969 158.808 6.43155 160.587 5.73115C161.095 5.49209 161.589 5.22482 162.066 4.93066L159.141 3.14077C159.617 2.93308 160.139 2.85455 160.654 2.91312C161.17 2.97168 161.661 3.16525 162.077 3.47428C162.739 3.86052 163.488 4.06963 164.254 4.08131C165.02 4.093 165.775 3.90686 166.448 3.54098C167.616 3.0407 168.794 2.55152 170.007 2.14017C170.723 1.90168 171.486 1.84067 172.231 1.96233C170.563 3.57435 168.172 3.73001 166.014 5.09745C167.727 5.8979 169.128 6.56491 170.552 7.20972C175.667 9.52956 180.779 11.842 185.887 14.147L203.258 21.996C205.349 22.9298 207.44 23.8748 209.519 24.8642C209.943 25.0808 210.412 25.1938 210.887 25.1938C211.363 25.1938 211.832 25.0808 212.255 24.8642C218.305 22.1441 224.358 19.4352 230.416 16.7374C233.619 15.3143 236.825 13.8987 240.035 12.4905C240.602 12.2901 241.181 12.1303 241.77 12.0125C241.437 13.1242 240.658 13.3466 240.102 13.6245C235.854 15.5367 231.595 17.4044 227.346 19.3055C222.809 21.3437 218.279 23.393 213.757 25.4535C213.477 25.5922 213.205 25.7482 212.945 25.9204C214.057 27.0321 255.204 45.7539 258.641 46.8211L259.163 45.8539C259.369 45.8962 259.567 45.9673 259.753 46.0652C260.331 46.5654 260.865 47.0991 261.465 47.5882C262.912 48.8428 264.558 49.8461 266.336 50.5566C268.883 51.5571 271.352 52.7801 273.843 53.8918C274.364 54.1495 274.939 54.278 275.519 54.2664C276.1 54.2548 276.669 54.1034 277.179 53.8251C278.914 53.0247 280.694 52.3131 282.473 51.6016C283.108 51.341 283.788 51.2051 284.475 51.2014C283.841 52.6689 282.406 52.8579 281.227 53.4249C280.048 53.9919 278.681 54.5367 276.979 55.2593C278.581 56.0486 279.837 56.6156 281.027 57.2827C282.217 57.9497 283.607 57.9275 284.363 59.1281L284.186 59.5729C283.496 59.4095 282.816 59.2053 282.15 58.9614C280.449 58.2388 278.758 57.4939 277.113 56.6601C276.374 56.2552 275.522 56.1075 274.69 56.2404C273.859 56.3732 273.095 56.779 272.52 57.3938C273.254 58.1609 273.888 58.9169 274.622 59.6173C276.557 61.3739 278.558 63.0415 280.482 64.8091C282.84 66.9548 285.109 69.1894 287.455 71.3462C291.403 74.9594 295.373 78.5392 299.343 82.1301C300.9 83.542 302.457 84.9428 304.003 86.377C306.227 88.4559 308.451 90.5349 310.676 92.6694C310.963 93.0432 311.378 93.2985 311.841 93.3867C312.305 93.4748 312.784 93.3897 313.189 93.1475C318.049 90.924 322.953 88.7005 327.846 86.5548C328.549 86.2851 329.266 86.0513 329.993 85.8544C330.082 87.044 329.337 87.1663 328.825 87.4109C325.756 88.8117 322.664 90.1791 319.572 91.5688L305.971 97.6945C305.46 97.928 304.993 98.2393 304.248 98.6617L306.628 101.096C305.193 101.452 304.615 100.541 303.881 100.063C303.508 99.7039 303.016 99.4955 302.499 99.477C301.982 99.4585 301.476 99.6314 301.078 99.9624C300.82 100.094 300.623 100.321 300.53 100.595C300.436 100.869 300.454 101.168 300.578 101.43C300.811 102.019 301.012 102.62 301.278 103.198C303.018 107.239 304.352 111.444 305.26 115.749C306.773 122.009 307.961 128.344 308.818 134.727C309.733 141.161 310.038 147.668 309.73 154.16C309.037 167.211 307.044 180.16 303.781 192.815C302.382 198.862 300.568 204.805 298.354 210.603C297.242 213.316 296.052 215.995 294.839 218.663C293.182 222.31 291.503 225.945 289.79 229.592C289.672 229.886 289.572 230.186 289.49 230.492L289.412 230.414ZM154.326 106.8C155.249 107.3 155.827 107.645 156.428 107.911C161.165 110.291 165.903 112.647 170.629 115.038C171.263 115.349 172.109 115.494 172.298 116.472C171.33 116.983 170.629 116.372 169.94 116.016C164.657 113.348 159.375 110.635 154.093 107.945C153.492 107.645 152.869 107.411 152.135 107.089C151.824 107.9 151.579 108.478 151.379 109.079C149.815 113.793 148.254 118.51 146.697 123.231C144.128 131.014 141.57 138.862 138.968 146.656C137.433 151.258 135.821 155.828 134.275 160.419C134.03 161.142 133.452 161.864 133.952 162.776C135.654 162.442 136.455 160.552 138.401 160.252C137.077 162.242 134.775 162.865 133.819 164.899C134.223 165.246 134.651 165.566 135.098 165.855C136.955 166.834 138.835 167.801 140.714 168.746C142.771 169.769 142.938 169.858 143.995 167.812C148.287 159.563 152.502 151.258 156.728 142.976C159.342 137.862 161.911 132.737 164.513 127.623C164.591 127.456 164.824 127.367 164.98 127.234C158.964 141.108 152.246 154.571 145.185 168.279C145.908 168.057 146.297 167.99 146.597 167.845C148.699 166.934 150.812 166.022 152.903 165.1C162.411 160.897 171.931 156.728 181.428 152.503C188.801 149.257 196.019 145.922 203.258 142.653C211.31 138.962 219.339 135.216 227.402 131.536C231.85 129.513 236.232 127.545 240.658 125.577C247.653 122.486 254.67 119.429 261.666 116.316C267.137 113.882 272.598 111.402 278.058 108.934C284.456 106.059 290.847 103.172 297.23 100.274C297.614 100.058 297.985 99.8202 298.342 99.5622C297.308 96.9052 296.174 94.5816 293.727 92.8918C287.933 88.9451 282.306 84.7538 276.612 80.6626C276.178 80.3513 275.811 79.9622 275.411 79.6176C275.633 79.5561 275.865 79.5443 276.092 79.5827C276.319 79.6211 276.534 79.7089 276.723 79.8399C278.447 81.0406 280.16 82.2635 281.872 83.4753C288.404 88.0483 294.932 92.6213 301.456 97.1942C301.775 97.4564 302.168 97.6141 302.579 97.6459C302.991 97.6778 303.403 97.5822 303.758 97.3721C305.527 96.4939 307.35 95.7156 309.13 94.8707C309.538 94.6282 309.928 94.357 310.298 94.0591C309.697 93.4365 309.252 92.9473 308.741 92.4582C306.661 90.5793 304.537 88.745 302.468 86.8995C297.701 82.5192 292.934 78.1056 288.167 73.6586C282.929 68.8226 277.669 63.9976 272.475 59.1059C272.095 58.6391 271.566 58.3178 270.976 58.1962C270.386 58.0747 269.773 58.1604 269.239 58.4389C267.015 59.4394 264.646 60.34 262.355 61.3072C255.949 63.9976 249.555 66.7214 243.149 69.4229C234.994 72.8248 226.879 76.2268 218.805 79.6287C218.04 80.0076 217.297 80.4308 216.581 80.8961C218.183 81.7744 219.395 82.4303 220.607 83.1196C221.819 83.8089 223.031 84.5204 224.266 85.2097C225.5 85.8989 226.768 86.4882 227.947 87.233C229.126 87.9779 230.571 88.1224 231.417 89.5454C231.054 89.641 230.675 89.6484 230.309 89.5672C229.943 89.486 229.602 89.3184 229.315 89.0785C225.189 86.855 221.052 84.5426 216.959 82.1857C216.435 81.8332 215.829 81.6233 215.199 81.5765C214.569 81.5297 213.938 81.6477 213.367 81.9189C206.509 84.8835 199.637 87.7926 192.749 90.6461C181.465 95.3747 170.166 100.092 158.852 104.799C157.484 105.377 156.128 106.021 154.326 106.8ZM28.4813 110.402C28.6778 110.607 28.8897 110.796 29.1152 110.969L50.6343 122.22C59.62 126.904 68.6094 131.584 77.6026 136.261C86.833 141.03 96.0856 145.755 105.327 150.513L124.233 160.23C126.223 161.253 128.192 162.309 130.194 163.287C131.428 163.877 131.673 163.743 132.184 162.465C132.607 161.353 133.018 160.319 133.385 159.241C136.67 149.605 139.939 139.948 143.194 130.269C145.581 123.146 147.961 116.012 150.334 108.868C151.134 106.477 151.123 106.477 148.966 105.377C138.497 100.085 128.025 94.7929 117.549 89.501C111.573 86.4844 105.587 83.4901 99.5887 80.5181C97.498 79.473 97.3645 79.5397 96.2524 81.6298C95.4406 83.2196 94.6622 84.8317 93.8281 86.3992C89.4761 94.6261 85.1204 102.846 80.761 111.058C77.9918 116.283 75.2005 121.541 72.487 126.767C72.1217 127.398 71.7245 128.01 71.297 128.601L70.8522 128.323C75.0781 120.163 79.1595 111.914 83.5634 103.865C86.7218 98.0947 95.7965 80.5959 96.0967 78.8727C93.9615 78.0834 92.4157 80.0956 90.5363 80.2847L90.3806 79.9066L94.3285 77.8165C91.526 76.3713 89.0572 75.0706 86.5439 73.8032L59.5755 60.1509C57.4181 59.0392 55.2384 57.9942 53.0809 56.8935C52.9116 56.7756 52.7196 56.6944 52.517 56.6552C52.3145 56.6159 52.106 56.6194 51.9049 56.6655C51.7038 56.7115 51.5146 56.7991 51.3494 56.9226C51.1842 57.0462 51.0467 57.2029 50.9456 57.3827C48.8327 60.1065 46.6641 62.7747 44.54 65.4762C40.0916 71.072 35.6655 76.6677 31.2616 82.2635C26.2349 88.6005 21.1749 94.904 16.1371 101.241C15.6366 101.864 15.2029 102.542 14.5913 103.409C18.7282 105.377 22.3759 107.633 26.3238 109.423L27.9586 107.367L28.3034 108.734C29.0596 108.034 29.1708 106.855 30.4275 106.677L28.4813 110.402ZM159.764 49.7673C160.157 50.1177 160.573 50.4409 161.01 50.7345C165.714 53.3026 170.418 55.8374 175.133 58.3944L190.258 66.5991C194.284 68.8226 198.332 70.9349 202.335 73.1917C202.789 73.4731 203.307 73.634 203.84 73.6593C204.373 73.6846 204.904 73.5734 205.382 73.3363C210.943 70.9571 216.503 68.6447 222.142 66.3212L250.211 54.6367C250.611 54.47 250.956 54.2142 251.623 53.8362C250.812 53.4471 250.267 53.1692 249.711 52.9246C242.86 49.9599 236.01 46.9953 229.159 44.0307C220.04 40.0728 210.924 36.1002 201.813 32.1128C201.331 31.8721 200.8 31.7468 200.261 31.7468C199.723 31.7468 199.192 31.8721 198.71 32.1128C195.184 33.7471 191.615 35.2923 188.067 36.871L160.999 49.0224C160.587 49.2466 160.19 49.4953 159.809 49.7673H159.764ZM156.484 49.8896L156.561 49.3337C155.994 48.9779 155.449 48.5888 154.849 48.2219C152.947 47.188 151.034 46.1764 149.133 45.1313L134.308 36.9711C130.171 34.7476 126.034 32.4463 121.92 30.145C117.805 27.8437 118.695 27.8548 114.135 29.6114C105.816 32.8243 97.5425 36.1817 89.2351 39.4391C83.5301 41.6626 77.8139 43.8861 72.1088 46.1096C71.4305 46.3764 70.7854 46.6988 69.7512 47.2213C70.9634 47.8439 71.7419 48.2553 72.5314 48.6444C75.5786 50.1267 78.6257 51.5868 81.6729 53.0247C88.0674 56.0486 94.4842 59.0392 100.879 62.0743C104.956 64.0235 109.034 65.9913 113.112 67.9776C113.569 68.2656 114.089 68.4383 114.627 68.4809C115.166 68.5235 115.707 68.4347 116.203 68.2222C121.764 65.6578 127.324 63.1268 132.885 60.629C138.445 58.1498 143.95 55.704 149.477 53.2248C151.824 52.0908 154.17 50.9791 156.55 49.8896H156.484ZM116.259 69.2117C117.082 69.6675 117.671 70.0232 118.283 70.3234C123.844 72.9694 129.337 75.5819 134.842 78.239C143.116 82.2191 151.401 86.1769 159.62 90.257C160.39 90.6904 161.255 90.9292 162.139 90.9525C163.023 90.9757 163.899 90.7827 164.691 90.3904C168.294 88.7672 171.975 87.3108 175.623 85.7877L201.379 75.0149C201.672 74.8427 201.948 74.6416 202.202 74.4146C201.757 74.1033 201.479 73.8588 201.156 73.6809C197.82 71.8132 194.484 69.9454 191.148 68.1222C186.455 65.5541 181.739 63.0192 177.046 60.44C171.404 57.3493 165.777 54.2328 160.165 51.0903C159.65 50.7759 159.063 50.6004 158.461 50.5809C157.859 50.5615 157.262 50.6986 156.728 50.979C151.735 53.2025 146.719 55.426 141.726 57.7162L117.482 68.6002C117.138 68.7225 116.826 68.9115 116.259 69.2117ZM198.554 30.9121C197.553 30.4007 196.908 30.0227 196.219 29.7225L177.447 21.5735C171.197 18.8608 164.924 16.1704 158.686 13.4133C158.202 13.1854 157.674 13.0673 157.14 13.0673C156.605 13.0673 156.077 13.1854 155.594 13.4133C151.045 15.2476 146.452 16.9931 141.882 18.783L120.685 27.0988C120.217 27.3285 119.763 27.5885 119.328 27.8771C120.029 28.3329 120.441 28.6775 120.985 28.9888L132.106 35.0144C140.392 39.517 148.688 43.9973 156.951 48.5221C157.321 48.7688 157.75 48.9158 158.194 48.9489C158.638 48.982 159.083 48.9001 159.486 48.7111C161.71 47.6994 163.935 46.7545 166.159 45.7539C170.807 43.6527 175.434 41.507 180.093 39.417C185.498 36.9934 190.925 34.6142 196.341 32.2018C196.93 31.8238 197.564 31.4124 198.543 30.9121H198.554ZM152.558 105.899C154.359 105.643 211.721 81.5742 213.301 80.4514C212.622 79.9956 212.033 79.5508 211.388 79.1951C209.375 78.0834 207.306 77.0717 205.327 75.8599C204.942 75.5808 204.484 75.4178 204.01 75.3902C203.535 75.3627 203.062 75.4717 202.647 75.7043C202.241 75.8939 201.825 76.0609 201.401 76.2045L167.137 90.4571C166.081 90.9018 165.069 91.4465 164.001 91.869C162.055 92.625 160.087 93.3254 158.118 94.0258C158.007 94.0258 157.818 93.859 157.395 93.6144L160.532 91.8134C159.898 91.4799 159.52 91.2686 159.119 91.0796L135.965 80.0845C129.293 76.8975 122.62 73.692 115.948 70.4679C115.498 70.2323 114.998 70.1091 114.491 70.1091C113.983 70.1091 113.483 70.2323 113.034 70.4679C108.586 72.4357 104.137 74.3701 99.6888 76.349C99.0638 76.6847 98.4586 77.0559 97.8761 77.4608C98.0874 78.7059 98.9882 78.895 99.7 79.2507C107.433 83.1863 115.162 87.1107 122.887 91.0241C131.584 95.471 140.288 99.8847 148.999 104.265C149.711 104.621 150.467 104.876 151.057 105.121C152.235 104.321 151.802 102.72 153.448 102.064L152.558 105.899ZM269.495 56.9825C269.372 56.6601 269.361 56.4488 269.239 56.3265C266.158 53.1914 263.167 49.934 258.819 48.4776C258.522 48.3602 258.233 48.2266 257.951 48.0774C250.467 44.6755 242.982 41.2513 235.498 37.8605C228.014 34.4697 220.262 31.0233 212.667 27.5435C212.138 27.2536 211.549 27.0915 210.946 27.0703C210.344 27.049 209.745 27.1692 209.197 27.4212C207.228 28.344 205.249 29.2222 203.292 30.145C202.875 30.3807 202.477 30.6484 202.102 30.9455C202.569 31.1789 202.836 31.3345 203.114 31.4568C207.095 33.1689 211.087 34.8588 215.058 36.582L239.079 47.0546C243.338 48.9112 247.642 50.7011 251.89 52.6133C252.406 52.8786 252.978 53.017 253.558 53.017C254.139 53.017 254.711 52.8786 255.227 52.6133C256.261 52.1242 257.328 51.6795 258.396 51.2681C259.016 51.0602 259.647 50.8858 260.287 50.7456L260.52 51.2348C260.131 51.5742 259.71 51.8757 259.263 52.1353C258.463 52.5355 257.595 52.7801 256.817 53.247C256.028 53.7457 255.266 54.2875 254.537 54.8701C253.425 54.3699 252.157 55.1036 250.878 55.6484C246.352 57.5495 241.837 59.4728 237.3 61.3628L207.273 73.8254C206.706 74.1244 206.157 74.4547 205.627 74.8148C206.472 75.3818 207.006 75.8043 207.607 76.1378C209.497 77.1828 211.466 78.1056 213.312 79.2396C213.814 79.5671 214.395 79.7533 214.993 79.7787C215.592 79.8042 216.187 79.6678 216.715 79.3841C222.053 77.0939 227.413 74.9372 232.762 72.647L266.792 58.3277C267.671 57.883 268.561 57.4383 269.495 56.9825ZM159.13 12.157C159.842 12.5572 160.242 12.8463 160.698 13.0464L180.872 21.8069L198.421 29.4113C198.848 29.6923 199.333 29.8715 199.84 29.9351C200.347 29.9987 200.862 29.9451 201.346 29.7782C203.57 28.7665 205.794 27.8104 208.018 26.7876C208.318 26.6542 208.507 26.3095 208.83 25.976C208.418 25.7314 208.163 25.5535 207.873 25.4201L194.106 19.2055C184.519 14.8697 174.937 10.5264 165.358 6.17581C164.933 5.96953 164.469 5.85773 163.996 5.84813C163.524 5.83854 163.055 5.93139 162.622 6.12023L114.658 24.2528C114.394 24.3849 114.141 24.5373 113.901 24.7085C115.87 26.365 117.694 27.1211 120.251 26.0872C131.239 21.6402 142.304 17.36 153.347 13.0242C156.795 11.6679 160.246 10.3374 163.701 9.033C163.994 8.82057 164.346 8.7062 164.707 8.7062C165.069 8.7062 165.421 8.82057 165.714 9.033C163.668 10.4894 161.321 10.8229 159.13 12.1904V12.157ZM267.893 52.5689L267.582 53.0469C268.294 53.7585 268.983 54.4922 269.728 55.1703C271.085 56.4044 271.452 56.4044 273.432 55.0814L267.893 52.5689ZM300.934 98.1504C300.21 97.3159 299.253 96.7159 298.187 96.4271C299.177 99.2287 299.51 99.4177 300.934 98.1948V98.1504Z" fill="#6895FF"/>
<path d="M289.412 230.414C287.6 233.416 285.887 236.473 283.952 239.397C280.404 244.756 276.723 250.048 273.076 255.351C272.709 255.884 272.397 256.596 271.508 256.629C271.063 255.862 271.63 255.418 271.964 254.928C275.3 250.092 278.636 245.301 281.972 240.476C285.731 234.854 288.966 228.9 291.637 222.688C293.861 217.585 296.085 212.538 298.098 207.368C299.477 203.665 300.632 199.881 301.556 196.039C303.102 189.791 304.57 183.521 305.76 177.195C306.694 172.204 307.261 167.123 307.818 162.064C308.218 158.329 308.418 154.571 308.54 150.825C308.659 143.943 308.112 137.067 306.906 130.291C305.844 123.099 304.242 115.997 302.113 109.045C301.256 106.388 300.222 103.798 299.188 100.93C297.631 101.552 296.285 102.041 294.984 102.642C287.722 105.977 280.527 109.312 273.209 112.525C264.312 116.505 255.416 120.459 246.519 124.387C244.195 125.421 241.881 126.511 239.524 127.478C238.034 128.078 237.222 128.968 237.422 130.647C237.511 131.336 237.422 132.047 237.422 132.748C237.426 137.91 236.972 143.063 236.065 148.145C234.968 155.448 233.294 162.652 231.061 169.691C229.671 174.138 227.858 178.585 226.079 182.91C224.744 186.156 223.287 189.347 221.63 192.448C219.528 196.451 217.315 200.408 214.958 204.255C210.874 210.724 206.356 216.908 201.434 222.766C198.135 226.81 194.46 230.532 190.458 233.883C187.366 236.44 184.375 239.142 181.128 241.487C177.379 244.24 173.484 246.79 169.462 249.125C163.296 252.743 156.742 255.652 149.922 257.797C148.332 258.275 146.742 258.73 145.14 259.164C144.562 259.309 143.939 259.342 143.339 259.431L143.205 259.042C143.506 258.804 143.84 258.609 144.195 258.464C149.57 257.072 154.814 255.212 159.864 252.905C162.244 251.793 164.513 250.526 166.826 249.303C168.572 248.38 170.285 247.413 172.031 246.479C175.484 244.428 178.771 242.108 181.862 239.542C185.954 236.598 189.736 233.245 193.149 229.536C196.675 225.512 200.144 221.443 203.436 217.24C209.014 210.209 213.98 202.714 218.283 194.839C220.396 190.936 221.997 186.745 223.743 182.609C225.133 179.274 226.39 175.939 227.724 172.67C227.814 172.432 227.983 172.232 228.203 172.103C227.909 173.926 227.374 175.702 226.612 177.384C226.301 178.207 226.134 179.085 225.901 179.93L225.233 181.109L225.556 181.242L225.901 179.93C226.272 179.342 226.61 178.733 226.913 178.107C229.378 171.948 231.359 165.607 232.84 159.141C234.334 153.205 235.353 147.161 235.887 141.064C236.11 137.895 236.354 134.727 236.577 131.547C236.599 131.296 236.599 131.043 236.577 130.791C236.421 129.379 235.987 129.079 234.708 129.679C231.15 131.236 227.598 132.818 224.055 134.426C215.469 138.329 206.895 142.209 198.298 146.166C191.099 149.442 183.9 152.707 176.701 155.961C168.972 159.441 161.21 162.865 153.459 166.311L144.562 170.291C144.904 170.629 145.276 170.934 145.674 171.203C148.109 172.459 150.556 173.704 153.025 174.905C154.245 175.546 155.317 176.436 156.172 177.518C154.693 177.873 153.837 176.951 152.836 176.517C151.835 176.084 150.834 175.405 149.822 174.861C148.81 174.316 147.876 173.893 146.92 173.393C145.963 172.893 144.907 172.337 143.817 171.77L141.937 174.06L141.459 173.816L142.071 171.336C138.657 172.27 135.698 174.06 132.318 174.905C132.918 173.96 132.918 173.971 134.82 173.126L137.6 171.848L140.936 170.336C138.237 168.695 135.428 167.243 132.529 165.989C131.784 167.968 131.061 169.78 130.416 171.625C129.46 174.394 128.559 177.184 127.614 179.964C127.38 180.642 127.258 181.475 126.246 181.642C125.667 180.931 126.112 180.275 126.312 179.663C127.424 176.462 128.537 173.282 129.649 170.08C129.889 169.461 129.962 168.79 129.86 168.135C128.437 169.369 126.946 170.525 125.612 171.848C120.985 176.406 116.27 180.908 111.833 185.667C108.274 189.48 104.971 193.538 101.735 197.629C96.3489 204.262 91.4679 211.289 87.1333 218.652C83.8481 224.202 81.0285 230.014 78.7036 236.029C76.1902 242.855 73.5323 249.636 72.2645 256.829C71.7196 259.887 71.475 263.011 71.1524 266.112C70.8602 268.387 70.745 270.68 70.8077 272.972C71.0968 277.419 70.9634 281.866 71.7641 286.313C72.5648 290.76 73.0764 295.207 73.8548 299.654C74.2774 302.1 74.9669 304.49 75.5341 306.913C75.6948 307.285 75.7654 307.689 75.7403 308.093C75.7152 308.496 75.595 308.889 75.3895 309.237C75.0598 308.827 74.7799 308.379 74.5555 307.903C74.0172 306.269 73.5717 304.606 73.2209 302.922C72.309 297.775 71.4749 292.628 70.6853 287.469C69.7153 281.361 69.3429 275.172 69.5733 268.992C69.7715 261.923 70.9965 254.919 73.2098 248.202C75.1226 242.644 76.9909 236.963 79.2596 231.526C82.3786 223.841 86.3912 216.55 91.2147 209.803C94.1617 205.723 96.9531 201.52 100.111 197.574C103.448 193.282 107.095 189.147 110.754 185.066C113.824 181.665 117.015 178.396 120.318 175.172C123.332 172.248 126.568 169.613 129.704 166.756C130.16 166.356 130.583 165.9 131.195 165.288C129.649 164.41 128.359 163.621 127.013 162.932C118.038 158.362 109.019 153.86 100.067 149.235C89.591 143.821 79.1706 138.284 68.7058 132.826C61.5328 129.09 54.3264 125.388 47.1312 121.708C41.4817 118.773 35.8323 115.805 30.1717 112.814C27.9475 111.702 28.1477 111.858 26.6686 113.659C22.9208 118.217 21.6086 123.854 19.5401 129.135C15.4067 140.054 12.0619 151.256 9.53121 162.654C7.46754 171.336 5.85654 180.119 4.70472 188.969C4.02634 194.327 3.59262 199.73 3.01433 205.1C2.46236 210.295 2.20986 215.518 2.2581 220.742C2.2581 222.521 1.90224 224.3 1.95784 226.079C2.11354 231.037 2.42492 235.984 2.63622 240.943C3.01429 248.134 3.92499 255.287 5.36085 262.344C6.7085 269.756 9.02675 276.959 12.2558 283.767C14.1881 288.085 16.9071 292.006 20.2741 295.329C20.8762 295.786 21.2754 296.46 21.3862 297.208C20.5298 297.386 20.1406 296.719 19.6513 296.285C17.095 293.867 14.927 291.07 13.2234 287.992C10.022 282.396 7.60115 276.389 6.0281 270.137C4.02949 262.733 2.67144 255.172 1.96896 247.535C1.46851 242.288 1.25721 236.996 1.11264 231.715C0.968066 226.679 0.956945 221.643 1.11264 216.607C1.26833 211.57 1.66868 206.312 2.16913 201.187C2.68069 195.861 3.28123 190.536 4.12643 185.267C5.23852 178.34 6.48407 171.448 7.91868 164.588C10.2321 153.473 13.3429 142.538 17.2269 131.869C19.4511 125.822 22.0645 119.941 24.5 113.982L25.879 110.646C25.323 110.279 24.8781 109.935 24.3999 109.679C21.5196 108.156 18.617 106.7 15.7701 105.132C15.358 104.812 14.8694 104.604 14.3526 104.53C13.8358 104.456 13.3086 104.518 12.823 104.71C12.3337 103.854 11.9 103.12 11.3773 102.23C11.6998 102.23 11.9667 102.153 12.1446 102.23C13.1678 102.708 13.7794 102.23 14.3688 101.452C17.7051 97.2387 21.0414 93.0586 24.3777 88.8784L46.4417 61.2405C47.8207 59.5062 49.1774 57.7607 50.5787 55.9597C49.2553 54.5478 47.2424 54.3922 45.7744 52.7023C46.2782 52.6925 46.7816 52.7372 47.2757 52.8357C47.9764 53.1248 48.6547 53.4916 49.3442 53.8362C51.4683 54.8813 51.5684 54.8368 53.1143 52.9024C54.1707 51.5461 55.2495 50.2009 56.3282 48.8668C56.673 48.4443 56.9955 47.8884 57.9852 48.2998C56.4394 50.8234 54.2263 52.7467 52.7028 55.426C53.37 55.7929 53.9594 56.1376 54.5711 56.4377C60.1316 59.2171 65.692 61.9964 71.1636 64.7536C78.6813 68.5446 86.2102 72.3245 93.6724 76.2156C94.3202 76.604 95.0562 76.821 95.8111 76.8463C96.5661 76.8716 97.315 76.7043 97.9873 76.3602C101.49 74.6814 105.038 73.025 108.574 71.4574C109.386 71.0794 110.209 70.7348 111.01 70.3457C111.622 70.0677 112.222 69.7453 112.989 69.3562C112.771 69.1171 112.529 68.901 112.267 68.7114C107.492 66.4212 102.714 64.1421 97.9317 61.8742C88.7903 57.4939 79.6451 53.1136 70.4963 48.7334C69.7393 48.2684 68.8759 48.0049 67.9882 47.9679C67.1005 47.9309 66.2182 48.1217 65.4251 48.5221C63.9049 49.1914 62.3406 49.756 60.7432 50.2119C61.1213 49.1002 61.8553 49.1002 62.3446 48.8001C63.846 48.0219 65.6809 47.8995 66.793 46.3542C66.8778 46.2568 66.9978 46.1968 67.1266 46.1874C71.1079 45.9095 74.4776 43.8083 78.0808 42.4631C85.5541 39.6615 92.9718 36.7376 100.389 33.836C105.55 31.8126 110.687 29.7114 115.836 27.6436C115.946 27.5783 116.043 27.4957 116.126 27.399C115.528 26.5283 114.651 25.8881 113.64 25.5848C112.628 25.2814 111.543 25.3332 110.565 25.7314L76.4794 38.761C69.9254 41.2439 63.3603 43.712 56.7842 46.1652C56.1725 46.3876 55.5275 46.521 54.9047 46.6989L54.7157 46.2319C55.1561 45.9333 55.6169 45.6658 56.0947 45.4315C61.555 43.2969 67.0154 41.1513 72.4981 39.0501C80.4162 36.0261 88.3677 33.0578 96.2969 30.0561L108.997 25.2311C109.52 25.031 110.042 24.8086 110.843 24.4751L108.619 22.5073C109.115 22.6028 109.597 22.7597 110.054 22.9742C110.7 23.3827 111.44 23.6178 112.204 23.6567C112.968 23.6957 113.728 23.5372 114.413 23.1966C118.394 21.6402 122.398 20.1505 126.401 18.6496L155.227 7.78785C157.017 7.10969 158.808 6.43155 160.587 5.73115C161.095 5.49209 161.589 5.22482 162.066 4.93066L159.141 3.14077C159.617 2.93308 160.139 2.85455 160.654 2.91312C161.17 2.97168 161.661 3.16525 162.077 3.47428C162.739 3.86052 163.488 4.06963 164.254 4.08131C165.02 4.093 165.775 3.90686 166.448 3.54098C167.616 3.0407 168.794 2.55152 170.007 2.14017C170.723 1.90168 171.486 1.84067 172.231 1.96233C170.563 3.57435 168.172 3.73001 166.014 5.09745C167.727 5.8979 169.128 6.56491 170.552 7.20972C175.667 9.52956 180.779 11.842 185.887 14.147L203.258 21.996C205.349 22.9298 207.44 23.8748 209.519 24.8642C209.943 25.0808 210.412 25.1938 210.887 25.1938C211.363 25.1938 211.832 25.0808 212.255 24.8642C218.305 22.1441 224.358 19.4352 230.416 16.7374C233.619 15.3143 236.825 13.8987 240.035 12.4905C240.602 12.2901 241.181 12.1303 241.77 12.0125C241.437 13.1242 240.658 13.3466 240.102 13.6245C235.854 15.5367 231.595 17.4044 227.346 19.3055C222.809 21.3437 218.279 23.393 213.757 25.4535C213.477 25.5922 213.205 25.7482 212.945 25.9204C214.057 27.0321 255.204 45.7539 258.641 46.8211L259.163 45.8539C259.369 45.8962 259.567 45.9673 259.753 46.0652C260.331 46.5654 260.865 47.0991 261.465 47.5882C262.912 48.8428 264.558 49.8461 266.336 50.5566C268.883 51.5571 271.352 52.7801 273.843 53.8918C274.364 54.1495 274.939 54.278 275.519 54.2664C276.1 54.2548 276.669 54.1034 277.179 53.8251C278.914 53.0247 280.694 52.3131 282.473 51.6016C283.108 51.341 283.788 51.2051 284.475 51.2014C283.841 52.6689 282.406 52.8579 281.227 53.4249C280.048 53.9919 278.681 54.5367 276.979 55.2593C278.581 56.0486 279.837 56.6156 281.027 57.2827C282.217 57.9497 283.607 57.9275 284.363 59.1281L284.186 59.5729C283.496 59.4095 282.816 59.2053 282.15 58.9614C280.449 58.2388 278.758 57.4939 277.113 56.6601C276.374 56.2552 275.522 56.1075 274.69 56.2404C273.859 56.3732 273.095 56.779 272.52 57.3938C273.254 58.1609 273.888 58.9169 274.622 59.6173C276.557 61.3739 278.558 63.0415 280.482 64.8091C282.84 66.9548 285.109 69.1894 287.455 71.3462C291.403 74.9594 295.373 78.5392 299.343 82.1301C300.9 83.542 302.457 84.9428 304.003 86.377C306.227 88.4559 308.451 90.5349 310.676 92.6694C310.963 93.0432 311.378 93.2985 311.841 93.3867C312.305 93.4748 312.784 93.3897 313.189 93.1475C318.049 90.924 322.953 88.7005 327.846 86.5548C328.549 86.2851 329.266 86.0513 329.993 85.8544C330.082 87.044 329.337 87.1663 328.825 87.4109C325.756 88.8117 322.664 90.1791 319.572 91.5688L305.971 97.6945C305.46 97.928 304.993 98.2393 304.248 98.6617L306.628 101.096C305.193 101.452 304.615 100.541 303.881 100.063C303.508 99.7039 303.016 99.4955 302.499 99.477C301.982 99.4585 301.476 99.6314 301.078 99.9624C300.82 100.094 300.623 100.321 300.53 100.595C300.436 100.869 300.454 101.168 300.578 101.43C300.811 102.019 301.012 102.62 301.278 103.198C303.018 107.239 304.352 111.444 305.26 115.749C306.773 122.009 307.961 128.344 308.818 134.727C309.733 141.161 310.038 147.668 309.73 154.16C309.037 167.211 307.044 180.16 303.781 192.815C302.382 198.862 300.568 204.805 298.354 210.603C297.242 213.316 296.052 215.995 294.839 218.663C293.182 222.31 291.503 225.945 289.79 229.592C289.672 229.886 289.572 230.186 289.49 230.492L289.412 230.414ZM154.326 106.8C155.249 107.3 155.827 107.645 156.428 107.911C161.165 110.291 165.903 112.647 170.629 115.038C171.263 115.349 172.109 115.494 172.298 116.472C171.33 116.983 170.629 116.372 169.94 116.016C164.657 113.348 159.375 110.635 154.093 107.945C153.492 107.645 152.869 107.411 152.135 107.089C151.824 107.9 151.579 108.478 151.379 109.079C149.815 113.793 148.254 118.51 146.697 123.231C144.128 131.014 141.57 138.862 138.968 146.656C137.433 151.258 135.821 155.828 134.275 160.419C134.03 161.142 133.452 161.864 133.952 162.776C135.654 162.442 136.455 160.552 138.401 160.252C137.077 162.242 134.775 162.865 133.819 164.899C134.223 165.246 134.651 165.566 135.098 165.855C136.955 166.834 138.835 167.801 140.714 168.746C142.771 169.769 142.938 169.858 143.995 167.812C148.287 159.563 152.502 151.258 156.728 142.976C159.342 137.862 161.911 132.737 164.513 127.623C164.591 127.456 164.824 127.367 164.98 127.234C158.964 141.108 152.246 154.571 145.185 168.279C145.908 168.057 146.297 167.99 146.597 167.845C148.699 166.934 150.812 166.022 152.903 165.1C162.411 160.897 171.931 156.728 181.428 152.503C188.801 149.257 196.019 145.922 203.258 142.653C211.31 138.962 219.339 135.216 227.402 131.536C231.85 129.513 236.232 127.545 240.658 125.577C247.653 122.486 254.67 119.429 261.666 116.316C267.137 113.882 272.598 111.402 278.058 108.934C284.456 106.059 290.847 103.172 297.23 100.274C297.614 100.058 297.985 99.8202 298.342 99.5622C297.308 96.9052 296.174 94.5816 293.727 92.8918C287.933 88.9451 282.306 84.7538 276.612 80.6626C276.178 80.3513 275.811 79.9622 275.411 79.6176C275.633 79.5561 275.865 79.5443 276.092 79.5827C276.319 79.6211 276.534 79.7089 276.723 79.8399C278.447 81.0406 280.16 82.2635 281.872 83.4753C288.404 88.0483 294.932 92.6213 301.456 97.1942C301.775 97.4564 302.168 97.6141 302.579 97.6459C302.991 97.6778 303.403 97.5822 303.758 97.3721C305.527 96.4939 307.35 95.7156 309.13 94.8707C309.538 94.6282 309.928 94.357 310.298 94.0591C309.697 93.4365 309.252 92.9473 308.741 92.4582C306.661 90.5793 304.537 88.745 302.468 86.8995C297.701 82.5192 292.934 78.1056 288.167 73.6586C282.929 68.8226 277.669 63.9976 272.475 59.1059C272.095 58.6391 271.566 58.3178 270.976 58.1962C270.386 58.0747 269.773 58.1604 269.239 58.4389C267.015 59.4394 264.646 60.34 262.355 61.3072C255.949 63.9976 249.555 66.7214 243.149 69.4229C234.994 72.8248 226.879 76.2268 218.805 79.6287C218.04 80.0076 217.297 80.4308 216.581 80.8961C218.183 81.7744 219.395 82.4303 220.607 83.1196C221.819 83.8089 223.031 84.5204 224.266 85.2097C225.5 85.8989 226.768 86.4882 227.947 87.233C229.126 87.9779 230.571 88.1224 231.417 89.5454C231.054 89.641 230.675 89.6484 230.309 89.5672C229.943 89.486 229.602 89.3184 229.315 89.0785C225.189 86.855 221.052 84.5426 216.959 82.1857C216.435 81.8332 215.829 81.6233 215.199 81.5765C214.569 81.5297 213.938 81.6477 213.367 81.9189C206.509 84.8835 199.637 87.7926 192.749 90.6461C181.465 95.3747 170.166 100.092 158.852 104.799C157.484 105.377 156.128 106.021 154.326 106.8ZM28.4813 110.402C28.6778 110.607 28.8897 110.796 29.1152 110.969L50.6343 122.22C59.62 126.904 68.6094 131.584 77.6026 136.261C86.833 141.03 96.0856 145.755 105.327 150.513L124.233 160.23C126.223 161.253 128.192 162.309 130.194 163.287C131.428 163.877 131.673 163.743 132.184 162.465C132.607 161.353 133.018 160.319 133.385 159.241C136.67 149.605 139.939 139.948 143.194 130.269C145.581 123.146 147.961 116.012 150.334 108.868C151.134 106.477 151.123 106.477 148.966 105.377C138.497 100.085 128.025 94.7929 117.549 89.501C111.573 86.4844 105.587 83.4901 99.5887 80.5181C97.498 79.473 97.3645 79.5397 96.2524 81.6298C95.4406 83.2196 94.6622 84.8317 93.8281 86.3992C89.4761 94.6261 85.1204 102.846 80.761 111.058C77.9918 116.283 75.2005 121.541 72.487 126.767C72.1217 127.398 71.7245 128.01 71.297 128.601L70.8522 128.323C75.0781 120.163 79.1595 111.914 83.5634 103.865C86.7218 98.0947 95.7965 80.5959 96.0967 78.8727C93.9615 78.0834 92.4157 80.0956 90.5363 80.2847L90.3806 79.9066L94.3285 77.8165C91.526 76.3713 89.0572 75.0706 86.5439 73.8032L59.5755 60.1509C57.4181 59.0392 55.2384 57.9942 53.0809 56.8935C52.9116 56.7756 52.7196 56.6944 52.517 56.6552C52.3145 56.6159 52.106 56.6194 51.9049 56.6655C51.7038 56.7115 51.5146 56.7991 51.3494 56.9226C51.1842 57.0462 51.0467 57.2029 50.9456 57.3827C48.8327 60.1065 46.6641 62.7747 44.54 65.4762C40.0916 71.072 35.6655 76.6677 31.2616 82.2635C26.2349 88.6005 21.1749 94.904 16.1371 101.241C15.6366 101.864 15.2029 102.542 14.5913 103.409C18.7282 105.377 22.3759 107.633 26.3238 109.423L27.9586 107.367L28.3034 108.734C29.0596 108.034 29.1708 106.855 30.4275 106.677L28.4813 110.402ZM159.764 49.7673C160.157 50.1177 160.573 50.4409 161.01 50.7345C165.714 53.3026 170.418 55.8374 175.133 58.3944L190.258 66.5991C194.284 68.8226 198.332 70.9349 202.335 73.1917C202.789 73.4731 203.307 73.634 203.84 73.6593C204.373 73.6846 204.904 73.5734 205.382 73.3363C210.943 70.9571 216.503 68.6447 222.142 66.3212L250.211 54.6367C250.611 54.47 250.956 54.2142 251.623 53.8362C250.812 53.4471 250.267 53.1692 249.711 52.9246C242.86 49.9599 236.01 46.9953 229.159 44.0307C220.04 40.0728 210.924 36.1002 201.813 32.1128C201.331 31.8721 200.8 31.7468 200.261 31.7468C199.723 31.7468 199.192 31.8721 198.71 32.1128C195.184 33.7471 191.615 35.2923 188.067 36.871L160.999 49.0224C160.587 49.2466 160.19 49.4953 159.809 49.7673H159.764ZM156.484 49.8896L156.561 49.3337C155.994 48.9779 155.449 48.5888 154.849 48.2219C152.947 47.188 151.034 46.1764 149.133 45.1313L134.308 36.9711C130.171 34.7476 126.034 32.4463 121.92 30.145C117.805 27.8437 118.695 27.8548 114.135 29.6114C105.816 32.8243 97.5425 36.1817 89.2351 39.4391C83.5301 41.6626 77.8139 43.8861 72.1088 46.1096C71.4305 46.3764 70.7854 46.6988 69.7512 47.2213C70.9634 47.8439 71.7419 48.2553 72.5314 48.6444C75.5786 50.1267 78.6257 51.5868 81.6729 53.0247C88.0674 56.0486 94.4842 59.0392 100.879 62.0743C104.956 64.0235 109.034 65.9913 113.112 67.9776C113.569 68.2656 114.089 68.4383 114.627 68.4809C115.166 68.5235 115.707 68.4347 116.203 68.2222C121.764 65.6578 127.324 63.1268 132.885 60.629C138.445 58.1498 143.95 55.704 149.477 53.2248C151.824 52.0908 154.17 50.9791 156.55 49.8896H156.484ZM116.259 69.2117C117.082 69.6675 117.671 70.0232 118.283 70.3234C123.844 72.9694 129.337 75.5819 134.842 78.239C143.116 82.2191 151.401 86.1769 159.62 90.257C160.39 90.6904 161.255 90.9292 162.139 90.9525C163.023 90.9757 163.899 90.7827 164.691 90.3904C168.294 88.7672 171.975 87.3108 175.623 85.7877L201.379 75.0149C201.672 74.8427 201.948 74.6416 202.202 74.4146C201.757 74.1033 201.479 73.8588 201.156 73.6809C197.82 71.8132 194.484 69.9454 191.148 68.1222C186.455 65.5541 181.739 63.0192 177.046 60.44C171.404 57.3493 165.777 54.2328 160.165 51.0903C159.65 50.7759 159.063 50.6004 158.461 50.5809C157.859 50.5615 157.262 50.6986 156.728 50.979C151.735 53.2025 146.719 55.426 141.726 57.7162L117.482 68.6002C117.138 68.7225 116.826 68.9115 116.259 69.2117ZM198.554 30.9121C197.553 30.4007 196.908 30.0227 196.219 29.7225L177.447 21.5735C171.197 18.8608 164.924 16.1704 158.686 13.4133C158.202 13.1854 157.674 13.0673 157.14 13.0673C156.605 13.0673 156.077 13.1854 155.594 13.4133C151.045 15.2476 146.452 16.9931 141.882 18.783L120.685 27.0988C120.217 27.3285 119.763 27.5885 119.328 27.8771C120.029 28.3329 120.441 28.6775 120.985 28.9888L132.106 35.0144C140.392 39.517 148.688 43.9973 156.951 48.5221C157.321 48.7688 157.75 48.9158 158.194 48.9489C158.638 48.982 159.083 48.9001 159.486 48.7111C161.71 47.6994 163.935 46.7545 166.159 45.7539C170.807 43.6527 175.434 41.507 180.093 39.417C185.498 36.9934 190.925 34.6142 196.341 32.2018C196.93 31.8238 197.564 31.4124 198.543 30.9121H198.554ZM152.558 105.899C154.359 105.643 211.721 81.5742 213.301 80.4514C212.622 79.9956 212.033 79.5508 211.388 79.1951C209.375 78.0834 207.306 77.0717 205.327 75.8599C204.942 75.5808 204.484 75.4178 204.01 75.3902C203.535 75.3627 203.062 75.4717 202.647 75.7043C202.241 75.8939 201.825 76.0609 201.401 76.2045L167.137 90.4571C166.081 90.9018 165.069 91.4465 164.001 91.869C162.055 92.625 160.087 93.3254 158.118 94.0258C158.007 94.0258 157.818 93.859 157.395 93.6144L160.532 91.8134C159.898 91.4799 159.52 91.2686 159.119 91.0796L135.965 80.0845C129.293 76.8975 122.62 73.692 115.948 70.4679C115.498 70.2323 114.998 70.1091 114.491 70.1091C113.983 70.1091 113.483 70.2323 113.034 70.4679C108.586 72.4357 104.137 74.3701 99.6888 76.349C99.0638 76.6847 98.4586 77.0559 97.8761 77.4608C98.0874 78.7059 98.9882 78.895 99.7 79.2507C107.433 83.1863 115.162 87.1107 122.887 91.0241C131.584 95.471 140.288 99.8847 148.999 104.265C149.711 104.621 150.467 104.876 151.057 105.121C152.235 104.321 151.802 102.72 153.448 102.064L152.558 105.899ZM269.495 56.9825C269.372 56.6601 269.361 56.4488 269.239 56.3265C266.158 53.1914 263.167 49.934 258.819 48.4776C258.522 48.3602 258.233 48.2266 257.951 48.0774C250.467 44.6755 242.982 41.2513 235.498 37.8605C228.014 34.4697 220.262 31.0233 212.667 27.5435C212.138 27.2536 211.549 27.0915 210.946 27.0703C210.344 27.049 209.745 27.1692 209.197 27.4212C207.228 28.344 205.249 29.2222 203.292 30.145C202.875 30.3807 202.477 30.6484 202.102 30.9455C202.569 31.1789 202.836 31.3345 203.114 31.4568C207.095 33.1689 211.087 34.8588 215.058 36.582L239.079 47.0546C243.338 48.9112 247.642 50.7011 251.89 52.6133C252.406 52.8786 252.978 53.017 253.558 53.017C254.139 53.017 254.711 52.8786 255.227 52.6133C256.261 52.1242 257.328 51.6795 258.396 51.2681C259.016 51.0602 259.647 50.8858 260.287 50.7456L260.52 51.2348C260.131 51.5742 259.71 51.8757 259.263 52.1353C258.463 52.5355 257.595 52.7801 256.817 53.247C256.028 53.7457 255.266 54.2875 254.537 54.8701C253.425 54.3699 252.157 55.1036 250.878 55.6484C246.352 57.5495 241.837 59.4728 237.3 61.3628L207.273 73.8254C206.706 74.1244 206.157 74.4547 205.627 74.8148C206.472 75.3818 207.006 75.8043 207.607 76.1378C209.497 77.1828 211.466 78.1056 213.312 79.2396C213.814 79.5671 214.395 79.7533 214.993 79.7787C215.592 79.8042 216.187 79.6678 216.715 79.3841C222.053 77.0939 227.413 74.9372 232.762 72.647L266.792 58.3277C267.671 57.883 268.561 57.4383 269.495 56.9825ZM159.13 12.157C159.842 12.5572 160.242 12.8463 160.698 13.0464L180.872 21.8069L198.421 29.4113C198.848 29.6923 199.333 29.8715 199.84 29.9351C200.347 29.9987 200.862 29.9451 201.346 29.7782C203.57 28.7665 205.794 27.8104 208.018 26.7876C208.318 26.6542 208.507 26.3095 208.83 25.976C208.418 25.7314 208.163 25.5535 207.873 25.4201L194.106 19.2055C184.519 14.8697 174.937 10.5264 165.358 6.17581C164.933 5.96953 164.469 5.85773 163.996 5.84813C163.524 5.83854 163.055 5.93139 162.622 6.12023L114.658 24.2528C114.394 24.3849 114.141 24.5373 113.901 24.7085C115.87 26.365 117.694 27.1211 120.251 26.0872C131.239 21.6402 142.304 17.36 153.347 13.0242C156.795 11.6679 160.246 10.3374 163.701 9.033C163.994 8.82057 164.346 8.7062 164.707 8.7062C165.069 8.7062 165.421 8.82057 165.714 9.033C163.668 10.4894 161.321 10.8229 159.13 12.1904V12.157ZM267.893 52.5689L267.582 53.0469C268.294 53.7585 268.983 54.4922 269.728 55.1703C271.085 56.4044 271.452 56.4044 273.432 55.0814L267.893 52.5689ZM300.934 98.1504C300.21 97.3159 299.253 96.7159 298.187 96.4271C299.177 99.2287 299.51 99.4177 300.934 98.1948V98.1504Z" stroke="#6895FF" stroke-width="2" mask="url(#path-1-outside-1)"/>
<path d="M42.4268 313.417C37.952 304.676 34.5645 295.421 32.3401 285.857L42.4268 313.417ZM42.4268 313.417C42.6743 313.838 42.9472 314.244 43.244 314.632M42.4268 313.417L43.244 314.632M43.244 314.632C43.2472 314.645 43.2504 314.658 43.2536 314.671L43.2704 314.666C43.2894 314.691 43.3085 314.716 43.3276 314.74L43.7391 314.551C43.7299 314.514 43.7206 314.477 43.7111 314.44L43.7213 314.432C43.7152 314.424 43.7091 314.416 43.703 314.408C43.5832 313.947 43.4356 313.494 43.2609 313.05C42.9825 312.427 42.6812 311.813 42.3802 311.199C41.9236 310.269 41.4676 309.339 41.0923 308.381C40.7422 307.493 40.3893 306.607 40.0364 305.72C38.573 302.045 37.1109 298.373 35.8654 294.629L43.244 314.632ZM61.7726 147.024L62.0546 146.63L61.6687 146.336L61.4352 146.158L61.1198 145.918L60.8141 146.17C60.3842 146.525 59.9892 146.919 59.6345 147.349L59.6265 147.359L59.619 147.369C59.1006 148.066 58.5703 148.762 58.0376 149.461C56.5996 151.348 55.1444 153.258 53.8612 155.268C50.3193 160.738 47.1191 166.421 44.2788 172.286L44.2788 172.286L44.2761 172.291C37.6757 186.368 33.0121 201.273 30.4125 216.601L30.4125 216.601L30.4113 216.609C29.483 222.666 28.7404 228.735 28.1834 234.815C27.7186 239.797 27.5785 244.808 27.4389 249.801L27.4253 250.289L27.4253 250.29C27.3749 252.154 27.5126 254.07 27.6451 255.912C27.6901 256.538 27.7345 257.156 27.7707 257.76C27.8112 258.435 27.843 259.117 27.8751 259.803C27.956 261.536 28.038 263.293 28.2629 265.029C29.0866 272.067 30.2848 279.057 31.8525 285.968L31.8531 285.97C34.0868 295.574 37.4883 304.868 41.9817 313.645L41.9884 313.658L41.9957 313.67C42.2775 314.15 42.591 314.61 42.9339 315.048L43.1774 315.359L43.5363 315.194L43.9478 315.005L44.3234 314.833L44.2246 314.431C44.0935 313.899 43.927 313.377 43.7261 312.867L43.7219 312.856L43.7174 312.846C43.4349 312.214 43.1285 311.59 42.827 310.975C42.7498 310.818 42.6729 310.661 42.5968 310.505C42.221 309.734 41.8615 308.974 41.5578 308.199L41.5574 308.197C41.206 307.306 40.852 306.417 40.4986 305.529C39.0361 301.856 37.5813 298.202 36.3411 294.475C34.2977 287.998 32.7057 281.387 31.5765 274.69L31.576 274.687C30.5061 268.565 29.8582 262.377 29.637 256.167L29.6367 256.161C29.2117 247.024 29.5418 237.867 30.6235 228.784L30.6239 228.78C31.6254 219.878 33.2264 211.053 35.4159 202.366C37.2389 195.227 39.5241 188.214 42.2572 181.372L42.2579 181.37C44.8014 174.932 47.8235 168.693 51.2989 162.706C53.0435 159.765 54.9497 156.915 56.8626 154.054C57.3899 153.266 57.9177 152.476 58.4428 151.684C59.1812 150.629 59.9179 149.605 60.6569 148.578C61.0281 148.062 61.3998 147.546 61.7726 147.024Z" fill="#6895FF" stroke="#6895FF"/>
<path d="M195.615 327.158L195.959 326.894C196.09 326.795 196.224 326.688 196.362 326.579C196.742 326.277 197.15 325.954 197.578 325.688M195.615 327.158L197.842 326.113M195.615 327.158L195.827 327.536L196.083 327.992L196.269 328.323L196.638 328.233C197.103 328.119 197.555 327.959 197.988 327.755L198.008 327.746L198.027 327.735C199.846 326.675 201.641 325.56 203.429 324.45L203.431 324.449M195.615 327.158L203.431 324.449M197.578 325.688C197.578 325.688 197.579 325.688 197.579 325.688L197.842 326.113M197.578 325.688C197.578 325.689 197.578 325.689 197.577 325.689L197.842 326.113M197.578 325.688C200.161 324.075 202.75 322.476 205.336 320.88C206.492 320.166 207.647 319.453 208.8 318.739L209.063 319.165C207.909 319.879 206.754 320.592 205.598 321.306C203.012 322.902 200.425 324.5 197.842 326.113M302.357 261.654C304.782 260.12 307.25 258.652 309.708 257.207C309.798 257.155 309.888 257.094 309.979 257.032C310.397 256.747 310.845 256.442 311.465 256.907C311.308 257.69 310.715 257.99 310.15 258.275C309.994 258.354 309.839 258.432 309.697 258.519M302.357 261.654L302.09 261.231M302.357 261.654C296.863 265.123 291.384 268.625 285.92 272.16L302.09 261.231M302.357 261.654L302.09 261.232C302.09 261.231 302.09 261.231 302.09 261.231M302.09 261.231C304.522 259.693 306.996 258.222 309.455 256.776L309.458 256.774C309.531 256.732 309.598 256.686 309.682 256.629C309.72 256.603 309.762 256.574 309.81 256.542C309.946 256.452 310.116 256.345 310.309 256.27C310.51 256.192 310.744 256.144 311.007 256.178C311.269 256.212 311.521 256.324 311.765 256.507L312.017 256.696L311.955 257.005C311.823 257.669 311.443 258.073 311.033 258.351C310.837 258.485 310.63 258.593 310.448 258.685C310.423 258.698 310.398 258.71 310.374 258.722C310.216 258.802 310.082 258.87 309.959 258.945M309.959 258.945C309.959 258.945 309.96 258.944 309.961 258.944L309.697 258.519M309.959 258.945C309.958 258.945 309.958 258.946 309.957 258.946L309.697 258.519M309.959 258.945C308.457 259.878 306.95 260.789 305.446 261.698C303.076 263.131 300.715 264.558 298.403 266.054C295.765 267.76 293.143 269.506 290.518 271.254C286.769 273.75 283.014 276.25 279.203 278.642M309.697 258.519C308.206 259.445 306.702 260.354 305.199 261.263C302.822 262.7 300.448 264.136 298.131 265.634C295.481 267.349 292.854 269.097 290.229 270.846C286.487 273.337 282.746 275.828 278.936 278.219M278.936 278.219L279.203 278.642M278.936 278.219C273.77 281.468 268.531 284.592 263.292 287.717C261.359 288.869 259.425 290.022 257.495 291.182M278.936 278.219L279.202 278.643C279.202 278.642 279.202 278.642 279.203 278.642M279.203 278.642C274.03 281.894 268.785 285.023 263.543 288.149C261.611 289.301 259.68 290.453 257.753 291.611M257.495 291.182L257.753 291.61C257.753 291.61 257.753 291.61 257.753 291.611M257.495 291.182C255.754 292.23 254.001 293.26 252.249 294.289C251.584 294.68 250.919 295.071 250.255 295.462M257.495 291.182L257.753 291.611M257.753 291.611C256.009 292.66 254.253 293.692 252.5 294.722C251.836 295.112 251.172 295.502 250.51 295.893M250.255 295.462L250.51 295.893M250.255 295.462C248.727 296.366 247.196 297.265 245.665 298.164C243.184 299.621 240.702 301.077 238.234 302.555C235.551 304.137 232.886 305.787 230.221 307.436C229.141 308.104 228.06 308.773 226.979 309.437L203.169 324.023M250.255 295.462L250.509 295.893C250.51 295.893 250.51 295.893 250.51 295.893M250.51 295.893C248.979 296.798 247.446 297.698 245.914 298.597C243.435 300.053 240.958 301.507 238.491 302.984L238.488 302.986C235.81 304.565 233.152 306.21 230.489 307.858C229.407 308.527 228.325 309.197 227.241 309.863L227.24 309.863L203.433 324.448L203.169 324.023M203.169 324.023L203.431 324.449M203.169 324.023L203.168 324.023C201.378 325.135 199.588 326.247 197.776 327.303C197.373 327.492 196.952 327.641 196.519 327.747L203.431 324.449M248.511 294.509C248.511 294.509 248.511 294.509 248.511 294.509L248.765 294.94L248.511 294.509ZM260.809 287.869L260.554 287.439C260.554 287.439 260.554 287.439 260.553 287.439L260.809 287.869Z" fill="#6895FF" stroke="#6895FF"/>
<path d="M99.6565 348.379L99.1873 348.144L98.9755 348.624L98.8087 349.002L98.632 349.402L99.0054 349.63C99.5753 349.979 100.148 350.335 100.724 350.692C102.091 351.542 103.473 352.401 104.86 353.185C105.75 353.801 106.843 354.05 107.912 353.881C108.42 353.84 108.932 353.878 109.429 353.993L109.442 353.996L109.455 353.999C115.16 355.005 120.981 355.179 126.737 354.514L126.737 354.515L126.749 354.513C131.34 353.868 135.959 353.21 140.524 352.284L140.527 352.284C146.251 351.093 151.859 349.4 157.286 347.225C163.468 344.946 169.461 342.185 175.211 338.968L175.212 338.966C175.29 338.923 175.367 338.886 175.462 338.841C175.503 338.822 175.546 338.801 175.595 338.778C175.743 338.706 175.919 338.615 176.087 338.49C176.45 338.219 176.733 337.817 176.798 337.181L176.855 336.627L176.298 336.63C175.878 336.633 175.46 336.692 175.055 336.804L175.024 336.813L174.994 336.826C174.211 337.158 173.448 337.543 172.687 337.928C172.361 338.092 172.036 338.256 171.711 338.416L171.71 338.415L171.698 338.422C162.801 343.084 153.418 346.758 143.72 349.377L143.72 349.377L143.713 349.379C136.212 351.522 128.455 352.637 120.654 352.695C117.834 352.651 115.066 352.562 112.324 352.243L112.324 352.242L112.312 352.241C108.864 351.927 105.487 351.074 102.304 349.714C101.739 349.455 101.195 349.173 100.639 348.883C100.318 348.716 99.9925 348.547 99.6565 348.379Z" fill="#6895FF" stroke="#6895FF"/>
<path d="M201.343 309.727L202.231 310.121L202.035 309.169C201.937 308.694 201.72 308.251 201.405 307.881C201.1 307.524 200.713 307.247 200.277 307.074C196.318 304.68 192.336 302.285 188.343 299.934L188.343 299.934C180.602 295.383 172.854 290.84 165.099 286.303L165.098 286.303C160.746 283.761 156.397 281.23 152.052 278.709L152.051 278.708C150.354 277.734 148.667 276.75 146.982 275.768C144.759 274.472 142.542 273.179 140.317 271.915C139.637 271.523 138.931 271.165 138.24 270.814C137.884 270.632 137.531 270.453 137.188 270.272L136.768 270.051L136.525 270.46L136.314 270.815L136.078 271.213L136.456 271.479C137.074 271.915 137.687 272.362 138.303 272.812C139.685 273.82 141.086 274.843 142.62 275.788C143.739 276.477 144.908 277.088 146.064 277.685C146.148 277.729 146.233 277.772 146.317 277.815C147.391 278.37 148.45 278.917 149.468 279.517L149.469 279.518C160.842 286.188 172.211 292.858 183.577 299.529L199.557 308.923L199.557 308.923L199.566 308.928C199.892 309.111 200.253 309.263 200.679 309.442C200.884 309.529 201.105 309.622 201.343 309.727Z" fill="#6895FF" stroke="#6895FF"/>
<path d="M307.625 246.032C310.767 248.452 314.004 250.81 317.228 253.159C318.469 254.063 319.707 254.965 320.938 255.87C321.272 256.228 321.703 256.483 322.179 256.602C322.673 256.725 323.193 256.697 323.671 256.521L324.363 256.266L323.87 255.718C323.367 255.158 322.827 254.634 322.254 254.147L322.241 254.136L322.227 254.126C319.314 251.98 316.399 249.847 313.484 247.715C309.87 245.072 306.258 242.429 302.655 239.764C301.463 238.875 300.302 237.944 299.136 237.005C299.065 236.948 298.994 236.891 298.924 236.834C297.829 235.952 296.727 235.064 295.598 234.208L295.597 234.207C294.303 233.23 292.962 232.293 291.627 231.361C291.02 230.936 290.413 230.512 289.813 230.086L289.786 230.043L289.659 229.979L289.636 229.968L289.318 230.498L289.009 230.688C289.486 231.465 290.051 232.185 290.692 232.834L290.713 232.856L290.738 232.875C296.343 237.3 301.95 241.705 307.625 246.032ZM307.625 246.032C307.625 246.032 307.625 246.032 307.626 246.032L307.929 245.635L307.624 246.031C307.624 246.031 307.625 246.031 307.625 246.032Z" fill="#6895FF" stroke="#6895FF"/>
<path d="M100.045 17.2445L99.5671 18.0889C100.701 19.1637 102.003 19.9017 103.311 20.5431C103.768 20.7672 104.22 20.9769 104.666 21.1842C105.521 21.5809 106.356 21.9684 107.171 22.4303L108.595 23.2364L107.865 21.7721C107.627 21.2935 107.252 20.8957 106.789 20.6283L106.789 20.6282L106.783 20.6249C106.71 20.584 106.637 20.5431 106.564 20.5023C104.951 19.6005 103.369 18.716 101.745 17.8617L101.731 17.8543L101.717 17.8478C101.175 17.6055 100.617 17.4038 100.045 17.2445Z" fill="#6895FF" stroke="#6895FF"/>
<path d="M60.7054 146.226L61.3091 146.988C62.4944 146.439 63.4498 145.493 64.0092 144.313L64.1753 143.963L63.8775 143.715L63.5438 143.437L63.1478 143.107L62.83 143.513L60.7054 146.226Z" fill="#6895FF" stroke="#6895FF"/>
<path d="M95.9883 33.0262L95.5959 33.1517L95.6441 33.5609L95.6886 33.9391L95.7649 34.5871L96.3707 34.3449L97.5394 33.8777L97.9939 33.696L97.8219 33.2378L97.7217 32.9708L97.5545 32.5253L97.1013 32.6702L95.9883 33.0262Z" fill="#6895FF" stroke="#6895FF"/>
<path d="M98.1966 17.4255L99.8416 18.0656L98.7766 16.6579C98.6102 16.4379 98.3736 16.1308 98.0375 15.9485C97.6574 15.7424 97.2184 15.7257 96.7272 15.9309L95.5833 16.4087L96.7386 16.8582L98.1966 17.4255Z" fill="#6895FF" stroke="#6895FF"/>
<path d="M94.7723 34.9827L95.2064 34.7127L94.9269 34.2847L94.7598 34.0289L94.4955 33.6242L94.0821 33.8746L93.4026 34.2861L92.9686 34.549L93.2378 34.9791L93.4049 35.2461L93.6694 35.6688L94.0928 35.4054L94.7723 34.9827Z" fill="#6895FF" stroke="#6895FF"/>
<path d="M91.0016 346.215L91.4775 346.487L91.7045 345.988L91.8716 345.621L92.0819 345.159L91.6166 344.956L90.7255 344.566L90.2907 344.376L90.0782 344.801L89.9445 345.068L89.7325 345.491L90.1438 345.726L91.0016 346.215Z" fill="#6895FF" stroke="#6895FF"/>
<path d="M98.153 17.4072L99.6888 18.1748L99.9124 17.7275L100.136 17.2802L98.6 16.5127L98.3765 16.96L98.153 17.4072Z" fill="#6895FF" stroke="#6895FF"/>
<path d="M82.3338 342.156L81.8418 342.002L81.7029 342.499L81.6249 342.777L81.4924 343.251L81.964 343.391L82.6769 343.603L83.1588 343.747L83.2994 343.264L83.3774 342.996L83.5145 342.526L83.0467 342.379L82.3338 342.156Z" fill="#6895FF" stroke="#6895FF"/>
<path d="M267.488 84.2133C267.303 84.636 266.935 84.7997 266.575 84.9599C266.483 85.0009 266.391 85.0416 266.303 85.0865C262.666 86.7041 259.021 88.3134 255.376 89.9227C251.732 91.5318 248.087 93.141 244.45 94.7586L267.488 84.2133ZM267.488 84.2133C267.543 84.2063 267.599 84.1999 267.655 84.1942L267.604 83.6968L267.105 83.6631C267.103 83.6997 267.099 83.734 267.095 83.7663C266.82 83.8133 266.549 83.8754 266.281 83.9525C261.167 85.7803 193.282 116.277 176.056 124.653L267.488 84.2133ZM171.742 126.393L170.688 127.607L172.245 127.205C172.795 127.063 173.336 126.886 173.863 126.674L173.863 126.674L173.871 126.67C176.453 125.58 179.025 124.467 181.585 123.332C187.606 120.686 193.612 118.029 199.603 115.36L199.603 115.36L216.027 108.034C216.027 108.034 216.028 108.034 216.028 108.034C221.159 105.766 226.282 103.486 231.398 101.196C233.348 100.325 235.281 99.4456 237.214 98.5668C239.685 97.4436 242.154 96.321 244.653 95.2158L244.654 95.2154C248.289 93.5985 251.932 91.9899 255.576 90.381L255.579 90.3799L255.579 90.3796C259.224 88.7705 262.869 87.1611 266.506 85.5433L266.518 85.5379L266.53 85.5319C266.608 85.4921 266.678 85.461 266.76 85.4247C266.813 85.4014 266.87 85.376 266.937 85.3448C267.09 85.274 267.268 85.1839 267.435 85.0566C267.802 84.7781 268.06 84.3658 268.103 83.7304L268.143 83.1392L267.553 83.1994C267.076 83.2481 266.604 83.3393 266.143 83.4719L266.127 83.4763L266.113 83.4816C263.179 84.5301 239.941 94.855 217.309 105.09C205.985 110.211 194.799 115.315 186.362 119.235C182.144 121.195 178.61 122.859 176.089 124.082C174.829 124.693 173.818 125.195 173.1 125.569C172.742 125.756 172.451 125.914 172.238 126.039C172.131 126.101 172.038 126.158 171.964 126.208C171.902 126.25 171.81 126.315 171.742 126.393Z" fill="#6895FF" stroke="#6895FF"/>
<path d="M86.5389 82.2894L87.3214 81.2038L86.0187 81.5104C84.7633 81.8058 83.588 82.3726 82.5756 83.1711L83.07 84.0283C83.3287 83.9254 83.6018 83.8461 83.8962 83.765C83.9364 83.7539 83.9771 83.7428 84.0182 83.7316C84.2709 83.6625 84.5406 83.5888 84.8014 83.4989C85.4205 83.2858 86.0543 82.9617 86.5389 82.2894Z" fill="#6895FF" stroke="#6895FF"/>
<path d="M85.9004 81.5527L85.6323 81.6931V81.9957V82.029V82.5086L86.1115 82.5286C86.7167 82.5538 87.3206 82.456 87.8868 82.2409C88.453 82.0259 88.9695 81.6982 89.4051 81.2777L89.6592 81.0323L89.5129 80.7109L89.3461 80.3442L89.1272 79.8632L88.659 80.1083L85.9004 81.5527Z" fill="#6895FF" stroke="#6895FF"/>
</svg>
