<svg width="16" height="17" viewBox="0 0 16 17" fill="none" xmlns="http://www.w3.org/2000/svg">
<path d="M5.74238 16.666C5.05389 16.6627 4.37294 16.521 3.73916 16.2492C3.10538 15.9774 2.53143 15.581 2.05071 15.083C1.5736 14.626 1.19034 14.0785 0.92286 13.4717C0.655383 12.865 0.508941 12.2109 0.491912 11.5468C0.474884 10.8828 0.587604 10.2219 0.823622 9.60198C1.05964 8.98203 1.41432 8.41519 1.86738 7.9339L8.00071 1.67744C8.32824 1.34708 8.71864 1.08722 9.14832 0.913547C9.578 0.739876 10.0381 0.655995 10.5007 0.666969C10.9963 0.668674 11.4866 0.770069 11.943 0.965241C12.3994 1.16041 12.8128 1.44545 13.159 1.80374C13.8482 2.47422 14.2479 3.39229 14.2713 4.35869C14.2947 5.32508 13.9399 6.26181 13.284 6.96554L7.11737 13.222C6.91986 13.4229 6.68482 13.5822 6.4259 13.6906C6.16697 13.7991 5.88931 13.8544 5.60904 13.8536C5.30627 13.854 5.00649 13.7931 4.72739 13.6745C4.44829 13.5559 4.19554 13.382 3.98404 13.1631C3.56132 12.7495 3.31719 12.1841 3.3047 11.5896C3.29222 10.9952 3.51239 10.4198 3.91738 9.98852L9.60904 4.21202C9.77103 4.10331 9.96553 4.05527 10.1589 4.07621C10.3522 4.09715 10.5322 4.18575 10.6677 4.32668C10.8033 4.4676 10.8857 4.65197 10.9009 4.84786C10.916 5.04376 10.8629 5.23883 10.7507 5.39932L5.05904 11.1758C4.96413 11.2914 4.91794 11.4399 4.93041 11.5896C4.94288 11.7392 5.01301 11.8779 5.12571 11.9758C5.24297 12.0951 5.40105 12.1644 5.56738 12.1694C5.62899 12.1703 5.69017 12.1589 5.74738 12.1358C5.80459 12.1126 5.8567 12.0783 5.90071 12.0347L12.059 5.77824C12.4047 5.39021 12.5854 4.8803 12.562 4.35875C12.5386 3.8372 12.313 3.34589 11.934 2.99104C11.582 2.62175 11.1033 2.40283 10.5964 2.37934C10.0896 2.35584 9.59303 2.52956 9.20904 2.86473L3.05071 9.08752C2.75125 9.41253 2.51834 9.79417 2.3654 10.2105C2.21245 10.6268 2.14249 11.0695 2.15953 11.5133C2.17657 11.957 2.28027 12.393 2.46468 12.796C2.64909 13.1991 2.91056 13.5614 3.23404 13.862C3.55844 14.2018 3.9466 14.4728 4.37584 14.6594C4.80509 14.8459 5.26681 14.9441 5.73404 14.9482C6.13689 14.9515 6.53642 14.8744 6.90967 14.7212C7.28292 14.568 7.62255 14.3418 7.90904 14.0556L14.0674 7.79918C14.1445 7.72066 14.2362 7.65828 14.3372 7.61557C14.4383 7.57287 14.5466 7.55069 14.6561 7.5503C14.7656 7.54991 14.8741 7.57132 14.9754 7.6133C15.0767 7.65527 15.1688 7.71701 15.2465 7.79497C15.3242 7.87292 15.386 7.96558 15.4282 8.06765C15.4705 8.16972 15.4925 8.27921 15.4928 8.38985C15.4932 8.50049 15.472 8.61013 15.4305 8.71249C15.389 8.81486 15.3279 8.90796 15.2507 8.98647L9.09238 15.2429C8.65513 15.6926 8.13382 16.0499 7.55872 16.2942C6.98363 16.5385 6.36622 16.6649 5.74238 16.666Z" fill="white"/>
</svg>
