<svg width="14" height="14" viewBox="0 0 14 14" fill="none" xmlns="http://www.w3.org/2000/svg">
<path d="M0.482149 1.80635C0.116438 1.44063 0.116438 0.847687 0.482149 0.481971C0.84786 0.116255 1.44079 0.116255 1.80651 0.481971L13.7257 12.4013C14.0914 12.7671 14.0914 13.36 13.7257 13.7257C13.36 14.0914 12.7671 14.0914 12.4014 13.7257L0.482149 1.80635Z" fill="black"/>
<path d="M12.1935 0.274287C12.5592 -0.0914289 13.1521 -0.091429 13.5179 0.274287C13.8836 0.640003 13.8836 1.23295 13.5179 1.59866L1.59864 13.518C1.23293 13.8837 0.639994 13.8837 0.274283 13.518C-0.0914278 13.1523 -0.0914278 12.5594 0.274283 12.1937L12.1935 0.274287Z" fill="black"/>
</svg>
