<svg width="19" height="13" viewBox="0 0 19 13" fill="none" xmlns="http://www.w3.org/2000/svg">
<path d="M9.05379 11.7858L9.08253 11.761L9.0538 11.7858C9.25917 12.0235 9.59468 12.0634 9.8437 11.9054C9.90963 11.8699 9.97063 11.8216 10.0231 11.7604L18.3442 2.06514L18.1473 1.89618L18.3442 2.06514C18.5523 1.82263 18.552 1.45657 18.3429 1.21449C18.0956 0.928307 17.6602 0.929028 17.4138 1.21546L9.51632 10.3948L1.58521 1.21421C1.33847 0.928595 0.903874 0.928595 0.657128 1.21421C0.447624 1.45672 0.447624 1.8238 0.657128 2.0663L9.05379 11.7858ZM18.1719 1.86765C18.1718 1.86777 18.1717 1.86789 18.1716 1.86801L18.1719 1.86765L17.9855 1.70728L18.1719 1.86765Z" fill="white" stroke="white"/>
</svg>
