<svg width="16" height="17" fill="none" xmlns="http://www.w3.org/2000/svg"><path d="M5.742 16.666a5.144 5.144 0 01-2.003-.417 5.19 5.19 0 01-1.688-1.166 5.053 5.053 0 01-1.128-1.611 5.096 5.096 0 01.944-5.538l6.134-6.257a3.394 3.394 0 012.5-1.01 3.7 3.7 0 012.658 1.137 3.69 3.69 0 011.112 2.555 3.693 3.693 0 01-.987 2.607l-6.167 6.256a2.116 2.116 0 01-1.508.632 2.246 2.246 0 01-1.625-.69 2.27 2.27 0 01-.067-3.175L9.61 4.212a.827.827 0 011.059.115.846.846 0 01.083 1.072L5.06 11.176a.577.577 0 00.067.8c.117.12.275.188.441.193a.463.463 0 00.334-.134l6.158-6.257a2 2 0 00-.125-2.787 1.97 1.97 0 00-2.725-.126L3.051 9.088a3.374 3.374 0 00-.891 2.425 3.397 3.397 0 001.074 2.349 3.519 3.519 0 002.5 1.087 3.03 3.03 0 002.175-.893l6.158-6.257a.833.833 0 01.908-.186.833.833 0 01.453.455.848.848 0 01-.177.918l-6.159 6.257c-.437.45-.958.807-1.533 1.051a4.666 4.666 0 01-1.817.372z" fill="#fff"/></svg>