<svg width="30" height="30" viewBox="0 0 30 30" fill="none" xmlns="http://www.w3.org/2000/svg">
<path fill-rule="evenodd" clip-rule="evenodd" d="M9.03295 0.613209C10.5764 0.542157 11.0685 0.526367 15.0001 0.526367C18.9316 0.526367 19.4237 0.543472 20.9658 0.613209C22.5079 0.682946 23.5606 0.928999 24.4816 1.28558C25.4461 1.65005 26.3211 2.21979 27.0448 2.95663C27.7816 3.679 28.3501 4.55268 28.7132 5.51847C29.0711 6.43953 29.3158 7.49216 29.3869 9.03163C29.4579 10.5777 29.4737 11.0698 29.4737 15.0001C29.4737 18.9316 29.4566 19.4237 29.3869 20.9672C29.3172 22.5066 29.0711 23.5593 28.7132 24.4803C28.35 25.4462 27.7807 26.3214 27.0448 27.0448C26.3211 27.7816 25.4461 28.3501 24.4816 28.7132C23.5606 29.0711 22.5079 29.3158 20.9685 29.3869C19.4237 29.4579 18.9316 29.4737 15.0001 29.4737C11.0685 29.4737 10.5764 29.4566 9.03295 29.3869C7.49347 29.3172 6.44084 29.0711 5.51979 28.7132C4.55389 28.35 3.67876 27.7806 2.95531 27.0448C2.21897 26.322 1.64915 25.4473 1.28558 24.4816C0.928999 23.5606 0.684262 22.5079 0.613209 20.9685C0.542157 19.4224 0.526367 18.9303 0.526367 15.0001C0.526367 11.0685 0.543472 10.5764 0.613209 9.03426C0.682946 7.49216 0.928999 6.43953 1.28558 5.51847C1.64969 4.55279 2.21994 3.6781 2.95663 2.95531C3.67905 2.21913 4.5533 1.64932 5.51847 1.28558C6.43953 0.928999 7.49216 0.684262 9.03163 0.613209H9.03295ZM20.8487 3.21847C19.3224 3.14874 18.8645 3.13426 15.0001 3.13426C11.1356 3.13426 10.6777 3.14874 9.15137 3.21847C7.73952 3.28295 6.97374 3.51847 6.46321 3.71716C5.78821 3.98031 5.30532 4.29216 4.79874 4.79874C4.31853 5.26591 3.94897 5.83463 3.71716 6.46321C3.51847 6.97374 3.28295 7.73952 3.21847 9.15137C3.14874 10.6777 3.13426 11.1356 3.13426 15.0001C3.13426 18.8645 3.14874 19.3224 3.21847 20.8487C3.28295 22.2606 3.51847 23.0264 3.71716 23.5369C3.94874 24.1645 4.31847 24.7343 4.79874 25.2014C5.26584 25.6816 5.83558 26.0514 6.46321 26.2829C6.97374 26.4816 7.73952 26.7172 9.15137 26.7816C10.6777 26.8514 11.1343 26.8658 15.0001 26.8658C18.8658 26.8658 19.3224 26.8514 20.8487 26.7816C22.2606 26.7172 23.0264 26.4816 23.5369 26.2829C24.2119 26.0198 24.6948 25.7079 25.2014 25.2014C25.6816 24.7343 26.0514 24.1645 26.2829 23.5369C26.4816 23.0264 26.7172 22.2606 26.7816 20.8487C26.8514 19.3224 26.8658 18.8645 26.8658 15.0001C26.8658 11.1356 26.8514 10.6777 26.7816 9.15137C26.7172 7.73952 26.4816 6.97374 26.2829 6.46321C26.0198 5.78821 25.7079 5.30532 25.2014 4.79874C24.7342 4.31857 24.1655 3.94901 23.5369 3.71716C23.0264 3.51847 22.2606 3.28295 20.8487 3.21847ZM13.1514 19.4619C14.1838 19.8917 15.3334 19.9497 16.4039 19.626C17.4744 19.3023 18.3993 18.617 19.0206 17.6872C19.6419 16.7574 19.9212 15.6407 19.8106 14.5278C19.7001 13.415 19.2066 12.375 18.4145 11.5856C17.9096 11.0809 17.299 10.6945 16.6268 10.4542C15.9546 10.2138 15.2375 10.1255 14.527 10.1956C13.8166 10.2657 13.1305 10.4924 12.5182 10.8594C11.9059 11.2265 11.3826 11.7247 10.986 12.3183C10.5893 12.9118 10.3292 13.586 10.2244 14.2921C10.1196 14.9983 10.1726 15.7189 10.3797 16.402C10.5868 17.0852 10.9428 17.714 11.4221 18.2431C11.9013 18.7722 12.4919 19.1885 13.1514 19.4619ZM9.73952 9.73952C10.4303 9.0487 11.2505 8.50071 12.1531 8.12684C13.0557 7.75297 14.0231 7.56054 15.0001 7.56054C15.977 7.56054 16.9444 7.75297 17.847 8.12684C18.7496 8.50071 19.5698 9.0487 20.2606 9.73952C20.9514 10.4303 21.4994 11.2505 21.8733 12.1531C22.2471 13.0557 22.4396 14.0231 22.4396 15.0001C22.4396 15.977 22.2471 16.9444 21.8733 17.847C21.4994 18.7496 20.9514 19.5698 20.2606 20.2606C18.8654 21.6558 16.9731 22.4396 15.0001 22.4396C13.027 22.4396 11.1347 21.6558 9.73952 20.2606C8.34435 18.8654 7.56054 16.9731 7.56054 15.0001C7.56054 13.027 8.34435 11.1347 9.73952 9.73952ZM24.0895 8.66847C24.2607 8.50698 24.3978 8.31279 24.4926 8.09739C24.5873 7.88198 24.638 7.64975 24.6414 7.41443C24.6448 7.17912 24.601 6.94551 24.5125 6.72743C24.4241 6.50936 24.2927 6.31125 24.1263 6.14484C23.9599 5.97843 23.7618 5.8471 23.5437 5.75863C23.3256 5.67015 23.092 5.62634 22.8567 5.62977C22.6214 5.6332 22.3892 5.68381 22.1738 5.7786C21.9584 5.87339 21.7642 6.01044 21.6027 6.18163C21.2886 6.51456 21.1167 6.95679 21.1233 7.41443C21.13 7.87208 21.3148 8.3091 21.6384 8.63274C21.9621 8.95638 22.3991 9.14114 22.8567 9.14781C23.3144 9.15448 23.7566 8.98254 24.0895 8.66847Z" fill="white"/>
</svg>
