<svg width="30" height="30" viewBox="0 0 30 30" fill="none" xmlns="http://www.w3.org/2000/svg">
<path d="M7.90215 28V10.4578H2.32882V28H7.90215ZM5.11621 8.06132C7.05973 8.06132 8.26947 6.71429 8.26947 5.03095C8.23326 3.30964 7.0598 2 5.15309 2C3.24668 2 2 3.30967 2 5.03095C2 6.71437 3.20945 8.06132 5.07983 8.06132H5.11604H5.11621ZM10.987 28H16.5603V18.2036C16.5603 17.6793 16.5965 17.1556 16.7437 16.7808C17.1466 15.7333 18.0636 14.6483 19.6032 14.6483C21.62 14.6483 22.4268 16.257 22.4268 18.6152V27.9999H27.9998V17.9414C27.9998 12.5531 25.2502 10.046 21.5833 10.046C18.5767 10.046 17.2566 11.8042 16.5232 13.0017H16.5604V10.4575H10.9871C11.0602 12.1035 10.9871 27.9996 10.9871 27.9996L10.987 28Z" fill="white"/>
</svg>
