<svg width="30" height="30" viewBox="0 0 30 30" fill="none" xmlns="http://www.w3.org/2000/svg">
<path d="M25.2042 10.3502L27.1427 8.42226V8H20.4293L15.6449 20.3863L10.2027 8H3.16367V8.42226L5.4278 11.257C5.64916 11.4664 5.763 11.7741 5.73454 12.0818V23.2209C5.80411 23.6236 5.68078 24.0327 5.40883 24.3241L2.85693 27.5417V27.9574H10.0857V27.5352L7.53699 24.3273C7.40043 24.1838 7.29771 24.0096 7.23683 23.8183C7.17595 23.6269 7.15855 23.4237 7.18599 23.2242V13.5876L13.5325 27.964H14.2693L19.7273 13.5876V25.0409C19.7273 25.3421 19.7273 25.4043 19.5376 25.6039L17.5738 27.5777V28H27.0984V27.5777L25.2042 25.6498C25.0398 25.5188 24.9544 25.2995 24.9892 25.0867V10.9133C24.9728 10.8081 24.9841 10.7003 25.022 10.6012C25.0598 10.5021 25.1228 10.4154 25.2042 10.3502Z" fill="white"/>
</svg>
