<svg width="354" height="352" fill="none" xmlns="http://www.w3.org/2000/svg"><path d="M299.616 50.192l.532.166.034.01 1.46.455-1.241.425c-.166.442-.468.737-.809.945-.291.178-.645.308-.941.417-.084.03-.163.06-.235.088l-3.271 1.277 7.217 3.23.451.202-.197.453-.168.389-.144.331-.36-.032a7.373 7.373 0 01-1.339-.248l-.019-.006-.019-.006a61.514 61.514 0 01-5.587-2.393l-.009-.004-.008-.005c-.992-.532-1.881-.704-2.748-.598-.715.088-1.446.369-2.235.845a716.41 716.41 0 005.614 4.801c3.364 2.859 6.716 5.708 9.957 8.643l.356.323-.308.369-.281.336-.224.268-.329-.119a4.657 4.657 0 01-1.007-.505l-.025-.017-.022-.019c-1.197-1.016-2.398-2.03-3.599-3.045-3.622-3.06-7.251-6.127-10.808-9.269l-.012-.01-.012-.012a2.586 2.586 0 00-1.516-.73 2.685 2.685 0 00-1.677.337l-.033.02-.035.013a3278.712 3278.712 0 01-15.5 6.082c-3.149 1.23-6.299 2.46-9.445 3.695-3.545 1.4-7.079 2.8-10.613 4.2l-5.304 2.1h0a77929.21 77929.21 0 01-26.608 10.502 6227.388 6227.388 0 01-26.8 10.502l107.867-44.406zm0 0l-.056.287m.056-.287l-.056.287m0 0l-.503.172c-1.754.6-3.517 1.204-5.272 1.824l-.033.011-.031.017a2.332 2.332 0 01-1.91.1c-1.32-.62-2.676-1.169-4.026-1.705l-.617-.245c-1.15-.455-2.292-.907-3.412-1.395-2.641-1.148-5.126-2.478-7.223-4.447l-.001-.001c-.143-.134-.324-.177-.399-.195l-.011-.002-.068-.016a3.3 3.3 0 01-.255-.067l-1.208-.377.625 1.101.23.41c-9.854-4.165-19.68-8.31-29.493-12.448-22.982-9.693-45.892-19.355-68.91-29.173.735-.332 1.479-.586 2.226-.841l.401-.137c1.18-.407 2.367-.853 3.375-1.67l1.014-.822-1.303-.066a5.186 5.186 0 00-1.964.278c-.391.135-.79.267-1.193.4-1.071.355-2.169.718-3.215 1.168l-.014.006-.014.007a4 4 0 01-1.803.427 4 4 0 01-1.785-.417 5.58 5.58 0 00-3.5-.785l-1.612.169 1.427.768 2.67 1.437a6.457 6.457 0 01-.201.094l-4.544 1.59h-.002l-40.907 14.492h-.001l-24.326 8.653h0c-2.575.918-5.152 1.83-7.729 2.742a3122.166 3122.166 0 00-11.28 4.01A4654.42 4654.42 0 0062.268 42.9l-.017.006-.017.007c-.443.199-.87.428-1.277.685l.404.904c5.356-1.528 10.574-3.338 15.767-5.166h0l31.228-10.995h.001l43.93-15.573L299.56 50.479zm-13.214 4.94l-.271.124c-.503.23-.934.426-1.387.602h-.002a23419.522 23419.522 0 00-42.009 16.488h0c-14.359 5.657-28.729 11.32-43.11 16.992l-33.364 13.147.183.465-.183-.465-.081.032c-.939.37-1.626.641-2.195.82-.579.182-1.005.258-1.408.248-.829-.021-1.663-.395-3.585-1.307l-.002-.001c-4.42-2.079-8.826-4.172-13.233-6.265-3.205-1.522-6.409-3.044-9.619-4.561l-.214.452.214-.452-35.554-16.802h-.001c-4.287-2.048-8.581-4.063-12.87-6.077-1.651-.774-3.3-1.549-4.95-2.325h0c-8.243-3.872-16.486-7.75-24.73-11.635l-.002-.001c-.478-.224-.919-.494-1.379-.775a77.853 77.853 0 00-.19-.117l.553-1.401.643-1.631-1.407 1.046-1.543 1.148-4.666-1.812-.413-.16-.209.39-.168.316-.236.44.44.236 4.027 2.154a3968.31 3968.31 0 01-3.682 4.285c-1.427 1.66-2.828 3.288-4.22 4.914h0l-8.24 9.65v.001l-8.127 9.45-.001.002c-.86 1.006-1.724 2.01-2.59 3.014-1.896 2.204-3.795 4.409-5.649 6.645l265.43-37.274zm0 0a210.62 210.62 0 01-.77-.696c-.497-.45-.96-.869-1.434-1.29a10.856 10.856 0 01-.954-.753l-.022-.02-.019-.02c-2.451-2.733-5.807-4.142-9.31-5.613l-.336-.141.194-.461-.194.46c-16.637-7-33.267-14.001-49.889-21.002l-.002-.001a78536.735 78536.735 0 00-44.121-18.776h-.001a78.714 78.714 0 00-1.227-.508 43.505 43.505 0 01-2.31-.992l-.01-.005h0a3.705 3.705 0 00-3.069-.11l-.009.003-.01.004c-5 1.828-9.995 3.573-15.015 5.326-1.846.645-3.696 1.29-5.55 1.942L286.346 55.42zM165.3 104.962l26.448-10.363L34.335 79.01l.381.324h0v-.001L55.084 55.4l12.546 5.98h.002l12.894 6.08 12.714 5.997h0c2.118.997 4.233 2.002 6.35 3.008 2.116 1.005 4.233 2.011 6.352 3.01 1.414.665 2.827 1.33 4.24 1.993 2.825 1.328 5.649 2.655 8.473 3.992 0 0 0 0 0 0l12.882 6.101c1.148.544 2.296 1.09 3.445 1.637a1745.9 1745.9 0 009.26 4.381c1.747.818 3.485 1.626 5.226 2.435a1385.56 1385.56 0 017.509 3.509c1.715.809 3.446 1.643 5.176 2.476a471.379 471.379 0 007.689 3.648c1.058.486 2.113.994 3.174 1.504 3.114 1.497 6.271 3.015 9.655 4.074l.402-.908c-3.049-1.787-6.23-3.341-9.455-4.872-.568-.27-1.137-.539-1.707-.808-2.364-1.117-4.743-2.241-7.117-3.459.189-.083.342-.149.505-.214l.001-.001zm124.619-51.104a7.847 7.847 0 01-.552.342c-.333.184-.557.253-.736.265-.345.021-.702-.16-1.561-.848l-.007-.005-.006-.005a32.11 32.11 0 01-2.407-2.029l5.269 2.28z" fill="#6895FF" stroke="#6895FF"/><path d="M74.838 45.476l.353-.395.09.238c.444-.13.902-.255 1.365-.38.911-.247 1.842-.5 2.73-.816h.003c13.947-5.034 27.86-10.075 41.74-15.123h.001c3.814-1.404 7.628-2.804 11.441-4.203 10.65-3.91 21.295-7.817 31.908-11.792l.007-.003.007-.003a6.658 6.658 0 012.706-.486 6.62 6.62 0 012.667.643l.012.005.013.006c9.684 4.011 19.396 7.954 29.109 11.897l3.134 1.273h.001a16103.46 16103.46 0 0130.238 12.223h.001l31.537 12.716.006.002 2.974 1.24-.08.034a49.15 49.15 0 01-1.739.714l-.004.002-32.285 12.602h-.001L202.58 77.736h-.001l-6.976 2.716a4330.9 4330.9 0 00-22.107 8.648h-.002a3.08 3.08 0 01-2.656-.18l-.02-.01-.02-.01-1.615-.743a895.718 895.718 0 00-9.71-4.426c-3.856-1.725-7.705-3.435-11.549-5.143-2.522-1.12-5.042-2.24-7.562-3.363l-47.898-21.38v-.001L75.95 46.498a29.87 29.87 0 01-.92-.495l-.043-.023-.401-.222.251-.282zm.175-.868l-.58.037-3.327.21-.32.02-.115.298-.146.378-.173.448.441.191c4.957 2.147 9.862 4.34 14.783 6.54 3.337 1.492 6.682 2.988 10.057 4.475 5.905 2.602 11.791 5.24 17.679 7.879 2.428 1.088 4.856 2.176 7.286 3.262h0l25.181 11.205h0l24.282 10.767a8.075 8.075 0 01-.816.362l-.149.06c-.602.245-1.325.56-1.744 1.325l-.442.804.915-.065a6.963 6.963 0 002.081-.474 5969.981 5969.981 0 0022.482-8.769c2.655-1.037 5.285-2.086 7.913-3.135 2.908-1.16 5.813-2.319 8.746-3.46h0c5.134-2.001 10.291-3.974 15.46-5.952 3.808-1.456 7.622-2.915 11.439-4.39l.001-.001c4.688-1.823 9.364-3.656 14.039-5.49a4089.355 4089.355 0 0117.662-6.894 19.09 19.09 0 013.266-.638l.284-.03.118-.26c.374-.824 1.185-1.15 2.304-1.518l.187-.06c1.008-.328 2.228-.724 2.981-1.784l.785-1.106-1.315.331a30.908 30.908 0 00-4.959 1.708l-.011.005-.011.006a4.25 4.25 0 01-1.906.448 4.25 4.25 0 01-1.905-.448l-.014-.007-.014-.006c-2.747-1.177-5.531-2.285-8.306-3.39a767.203 767.203 0 01-3.642-1.456h-.002a5153.482 5153.482 0 01-22.794-9.177L226.4 34.28a5951.02 5951.02 0 00-19.427-7.926h0c-2.651-1.07-5.296-2.127-7.938-3.183a2314.25 2314.25 0 01-8.688-3.485h0c-6.407-2.59-12.814-5.188-19.221-7.792l-.003-.001a37.097 37.097 0 01-1.262-.541l-.344-.153c.636-.27 1.269-.507 1.899-.743l.744-.28c1.193-.457 2.368-.953 3.428-1.706l1.333-.946-1.634.038a7.882 7.882 0 00-2.684.537c-2.143.792-4.285 1.59-6.427 2.386-3.14 1.169-6.281 2.337-9.427 3.492-10.68 3.879-21.355 7.764-32.027 11.657h0c-7.952 2.905-15.9 5.825-23.844 8.759h-.001l-4.86 1.796a3746.43 3746.43 0 00-16.691 6.196h-.002c-1.078.41-2.127.915-3.153 1.409-.417.2-.831.4-1.242.59l.084.223zm257.98 47.979l.001-.001.022-.032.557-.78-.958-.01a3.155 3.155 0 01-1.182-.243 2.95 2.95 0 01-.973-.657l-.015-.016-.017-.014a8910.426 8910.426 0 01-22.571-19.458l-.002-.001a7.4 7.4 0 00-.69-.514l-.209-.14a15.182 15.182 0 01-.449-.307l-.353-.254-.3.314-.382.399-.339.353.346.346c.138.138.281.29.429.446.318.335.66.695 1.017 1a8064.12 8064.12 0 0120.559 17.588c.609.525 1.199 1.069 1.848 1.666l.269.248-.509.233c-.662.303-1.236.566-1.825.814-7.666 3.213-15.34 6.427-23.021 9.64l.193.461-.193-.461c-4.683 1.959-9.368 3.916-14.053 5.873-10.731 4.482-21.463 8.964-32.183 13.482h-.001c-9.207 3.882-18.396 7.81-27.584 11.736a11073.33 11073.33 0 01-10.166 4.342h0l-.011.005c-.412.189-.837.426-1.243.653-.158.088-.313.174-.462.255l-.445.241.246.442.281.504.216.387.41-.167c4.11-1.678 8.142-3.439 12.18-5.213l1.067-.469c3.686-1.619 7.383-3.243 11.161-4.821 4.661-1.947 9.354-3.865 14.034-5.777 3.655-1.494 7.302-2.984 10.92-4.483 3.648-1.51 7.267-3.042 10.886-4.574 4.575-1.937 9.151-3.873 13.787-5.769a712.159 712.159 0 009.739-4.094c4.878-2.079 9.778-4.167 14.843-6.133.24.574.476 1.123.706 1.657.53 1.233 1.024 2.384 1.458 3.572a133.012 133.012 0 015.531 21.109h0l.002.011a109.402 109.402 0 012.071 18.816 134.2 134.2 0 01-.997 19.07 191.675 191.675 0 01-4.395 22.727l-.176.686c-1.729 6.731-3.452 13.436-6.217 19.844-4.236 9.814-8.718 19.482-14.728 28.452l-.008.013-.008.013a5.214 5.214 0 00-.435.953l-.117.344.291.217.225.168.352.263.306-.315a20.67 20.67 0 001.774-2.088l.007-.009.006-.009c3.644-5.404 6.508-11.225 9.359-17.018.491-.999.982-1.997 1.477-2.992h0c5.22-10.534 8.299-21.648 10.909-32.863a164.105 164.105 0 004.002-26.748 93.473 93.473 0 00-.509-20.952h.001l-.002-.011c-.99-6.191-2.127-12.384-3.467-18.526a66.128 66.128 0 00-5.209-15.677h0l-.005-.01a38.252 38.252 0 01-.598-1.261l-.035-.076c.281-.177.571-.342.869-.493a544.28 544.28 0 013.272-1.352c1.878-.773 3.761-1.547 5.626-2.349.252-.103.505-.198.766-.294l.214-.08c.332-.125.674-.257 1.004-.413.664-.313 1.308-.731 1.803-1.419zm-189.349 79.326l-.221-.949c.293-.144.592-.296.895-.45.53-.27 1.072-.546 1.612-.795l.005-.002c.977-.437 1.967-.857 3.092-1.334l.24-.101-8.253-4.057c-.181.297-.347.603-.496.915-.851 2.245-1.69 4.489-2.528 6.733-.678 1.813-1.356 3.627-2.04 5.439l-.001.005c-.14.358-.293.708-.444 1.054l-.014.031c-.148.338-.294.671-.432 1.019l-.152.382-.404-.075-.45-.084-.435-.082.028-.441c.029-.469.101-.935.216-1.393l.006-.023.008-.022c.49-1.383.994-2.764 1.496-4.141l.001-.001v-.001a456.088 456.088 0 001.493-4.132l.001-.002c.558-1.558 1.085-3.114 1.648-4.774l.458-1.35-.834-.427a95.124 95.124 0 00-2.322-1.167c-2.239-1.07-4.48-2.138-6.72-3.206a3393.86 3393.86 0 01-12.121-5.794v-.001c-3.843-1.853-7.682-3.721-11.521-5.588a4303.157 4303.157 0 00-9.23-4.483c-3.29-1.591-6.615-3.189-9.949-4.792-3.675-1.767-7.36-3.539-11.017-5.31l-.001-.001-33.544-16.372a4254.307 4254.307 0 01-18.908-9.279l-1.969-.971-.006-.003h0a8.59 8.59 0 01-1.671-1.115l-1.28-1.092 1.669.216c.181.023.453.112.755.223.32.119.731.283 1.218.488.973.409 2.27.985 3.799 1.682 3.06 1.396 7.07 3.286 11.337 5.328 8.534 4.084 18.109 8.776 23.204 11.335m83.782 48.96l-83.782-48.96m83.782 48.96h.106l.038-.006c.685-.107 1.36-.26 2.022-.456l.015-.005.015-.005 1.449-.533c2.517-.925 5.062-1.86 7.56-2.876 7.031-2.85 14.043-5.735 21.036-8.655h.002c3.793-1.599 7.579-3.202 11.364-4.803 4.496-1.903 8.99-3.805 13.49-5.699 0 0 0 0 0 0l16.131-6.784.018-.007.017-.009c.493-.253.966-.539 1.418-.854l.394-.275-.26-.405-.236-.367-.205-.318-.361.11c-.125.038-.262.076-.404.116-.353.099-.742.208-1.091.351l-.005.002a6932.964 6932.964 0 01-25.852 10.858l-33.589 14.008-.008.004c-1.409.616-2.819 1.186-4.269 1.651l-.009.003a2.464 2.464 0 01-1.567.007 180.466 180.466 0 01-7.903-3.812l-.002-.001c-.704-.355-.961-.614-1.054-.855-.096-.247-.078-.618.178-1.361.44-1.274.907-2.535 1.376-3.804.26-.702.521-1.407.779-2.119l1.274-3.453c1.298-3.516 2.598-7.036 3.886-10.557l.001-.003c.159-.445.28-.92.394-1.367.045-.178.089-.352.135-.518l.127-.469-.464-.141-.517-.158-.424-.129-.179.405c-.087.197-.178.396-.27.597-.24.528-.488 1.071-.696 1.624l-.001.003a5762.306 5762.306 0 01-7.29 19.538c-.17.383-.354.76-.554 1.131m3.985 10.396l-3.985-10.396m-79.797-38.564c9.64 4.84 19.374 9.511 29.112 14.185 3.59 1.722 7.18 3.445 10.765 5.176 8.111 3.917 16.27 7.837 24.483 11.782 5.125 2.462 10.27 4.933 15.437 7.421m-79.797-38.564l79.797 38.564m10.808 6.798l-.607.258.607-.258zm0 0l-.592-.292.592.292zm-6.795 2.598a14.602 14.602 0 001.724-.383c-.28.138-.558.28-.837.422a67.19 67.19 0 01-.848.427v-.466h-.039zm0 0h-.028v.004m.028-.004l-.028.004m0 0l-.01.002.01.062m0-.064v.064m0 0v.432m0-.432l.062.401a1.79 1.79 0 00-.062.031m0 0l.067.137.032.063.122.248c.319-.157.629-.315.935-.471.26-.132.518-.263.778-.392-.612.177-1.235.316-1.867.415h-.067zm74.175-30.452l.129-.039-.013-.04a4.726 4.726 0 01-.116.079zm-.034-.512l-.033-.047-.146.1.179-.053z" fill="#6895FF" stroke="#6895FF"/><mask id="a" maskUnits="userSpaceOnUse" x="73.276" y="163.195" width="67" height="145" fill="#000"><path fill="#fff" d="M73.276 163.195h67v145h-67z"/><path d="M137.967 165.479c-.629.556-1.259 1.103-1.877 1.67-5.621 5.156-11.387 10.154-16.783 15.5a206.723 206.723 0 00-19.403 22.441 130.256 130.256 0 00-13.691 21.969c-2.147 4.442-3.822 9.073-5.62 13.652a78.404 78.404 0 00-5.037 19.144c-.259 1.943-.18 3.917-.292 5.881-.562 9.451.685 18.829 2.327 28.144.562 3.15 1.495 6.301 2.248 9.451.15.581.177 1.184.079 1.775a11.894 11.894 0 01-1.822-4.925 155.786 155.786 0 01-3.372-21.213c-.865-9.851-.64-19.638 2.136-29.215 1.506-5.188 3.552-10.239 5.44-15.311a101.05 101.05 0 0111.32-21.843 237.843 237.843 0 0110.657-14.125 268.795 268.795 0 0112.366-14.135 175.095 175.095 0 0118.536-17.19c.81-.662 1.63-1.303 2.451-1.954l.337.284z"/></mask><path d="M137.967 165.479c-.629.556-1.259 1.103-1.877 1.67-5.621 5.156-11.387 10.154-16.783 15.5a206.723 206.723 0 00-19.403 22.441 130.256 130.256 0 00-13.691 21.969c-2.147 4.442-3.822 9.073-5.62 13.652a78.404 78.404 0 00-5.037 19.144c-.259 1.943-.18 3.917-.292 5.881-.562 9.451.685 18.829 2.327 28.144.562 3.15 1.495 6.301 2.248 9.451.15.581.177 1.184.079 1.775a11.894 11.894 0 01-1.822-4.925 155.786 155.786 0 01-3.372-21.213c-.865-9.851-.64-19.638 2.136-29.215 1.506-5.188 3.552-10.239 5.44-15.311a101.05 101.05 0 0111.32-21.843 237.843 237.843 0 0110.657-14.125 268.795 268.795 0 0112.366-14.135 175.095 175.095 0 0118.536-17.19c.81-.662 1.63-1.303 2.451-1.954l.337.284z" fill="#6895FF"/><path d="M137.967 165.479l.663.749.869-.768-.888-.747-.644.766zm-1.877 1.67l-.676-.737.676.737zm-16.783 15.5l-.704-.711-.004.004.708.707zM99.904 205.09l.793.61.004-.006.005-.006-.802-.598zm-13.691 21.969l-.898-.441-.003.006.9.435zm-5.62 13.652l.926.374.004-.008-.93-.366zm-5.037 19.144l.991.132v-.002l-.991-.13zm-.292 5.881l.998.059v-.002l-.998-.057zm2.327 28.144l-.985.173v.002l.985-.175zm2.248 9.451l-.973.232.002.009.003.009.968-.25zm.079 1.775l-.84.543 1.403 2.168.423-2.548-.986-.163zm-1.822-4.925l.992-.13-.006-.048-.011-.047-.974.225zm-3.372-21.213l-.996.087v.001l.996-.088zm2.136-29.215l-.96-.279.96.279zm5.44-15.311l.938.349v-.001l-.937-.348zm11.32-21.843l-.82-.572-.005.008.826.564zm10.657-14.125l-.775-.631.775.631zm12.366-14.135l.729.685.002-.003-.731-.682zm18.536-17.19l.626.78.007-.006-.633-.774zm2.451-1.954l.644-.765-.626-.526-.639.508.621.783zm-.325-.465c-.62.548-1.264 1.106-1.891 1.682l1.352 1.474c.609-.559 1.225-1.093 1.864-1.658l-1.325-1.498zm-1.891 1.682c-5.592 5.13-11.397 10.164-16.811 15.526l1.408 1.421c5.378-5.328 11.106-10.291 16.755-15.474l-1.352-1.473zm-16.815 15.53a207.86 207.86 0 00-19.496 22.55l1.603 1.196a205.798 205.798 0 0119.309-22.333l-1.416-1.413zM99.112 204.48a131.19 131.19 0 00-13.797 22.138l1.795.883a129.2 129.2 0 0113.587-21.801l-1.585-1.22zm-13.8 22.144c-2.169 4.487-3.866 9.177-5.65 13.721l1.86.732c1.813-4.613 3.466-9.186 5.591-13.583l-1.8-.87zm-5.647 13.713a79.41 79.41 0 00-5.1 19.388l1.983.26a77.426 77.426 0 014.971-18.9l-1.854-.748zm-5.1 19.386c-.137 1.025-.183 2.047-.21 3.037-.027 1.007-.035 1.957-.09 2.919l1.997.114c.057-1.002.067-2.021.093-2.978.026-.973.07-1.91.192-2.828l-1.982-.264zm-.3 5.954c-.569 9.571.696 19.042 2.34 28.376l1.97-.347c-1.637-9.295-2.868-18.58-2.313-27.911l-1.996-.118zm2.341 28.378c.568 3.185 1.525 6.432 2.26 9.508l1.945-.465c-.77-3.224-1.68-6.278-2.236-9.394l-1.969.351zm2.265 9.526c.115.446.135.908.06 1.361l1.973.327a5.285 5.285 0 00-.097-2.188l-1.936.5zm1.886.981a10.89 10.89 0 01-1.669-4.511l-1.983.259a12.893 12.893 0 001.973 5.339l1.68-1.087zm-1.686-4.606a154.754 154.754 0 01-3.35-21.077l-1.993.177a156.73 156.73 0 003.394 21.349l1.949-.449zm-3.35-21.076c-.86-9.782-.63-19.434 2.1-28.849l-1.921-.557c-2.824 9.74-3.044 19.662-2.172 29.581l1.992-.175zm2.1-28.848c1.492-5.141 3.515-10.133 5.417-15.241l-1.874-.698c-1.876 5.036-3.944 10.146-5.464 15.381l1.92.558zm5.417-15.242a100.079 100.079 0 0111.208-21.627l-1.651-1.128a102.073 102.073 0 00-11.432 22.059l1.875.696zm11.203-21.62a237.184 237.184 0 0110.612-14.065l-1.551-1.262A238.782 238.782 0 0092.8 212.027l1.641 1.143zm10.612-14.064a266.37 266.37 0 0112.319-14.082l-1.459-1.369a269.051 269.051 0 00-12.411 14.188l1.551 1.263zm12.321-14.085a174.129 174.129 0 0118.431-17.092l-1.251-1.561a176.301 176.301 0 00-18.643 17.289l1.463 1.364zm18.438-17.098c.802-.656 1.611-1.287 2.44-1.944l-1.243-1.567c-.813.644-1.646 1.295-2.462 1.962l1.265 1.549zm1.175-1.962l.337.283 1.287-1.531-.337-.283-1.287 1.531z" fill="#6895FF" mask="url(#a)"/><path d="M23.277 120.387l-.026.184a13.324 13.324 0 01-.525 2.28l-.007.02-.008.02a238.667 238.667 0 00-9.344 26.439l-.002.006h0c-2.68 8.893-4.666 17.927-6.566 26.989-.827 3.948-1.387 7.964-1.881 11.982v.001c-.697 5.66-1.37 11.308-1.763 16.974a353.319 353.319 0 00-.752 18.938c-.056 4.729.157 9.419.438 14.204a134.53 134.53 0 002.665 19.69m17.77-137.727L5.507 258.114m17.77-137.727l-.1-.155-.1-.158-.473-.736-.395.781c-.145.288-.31.588-.478.897-.329.601-.675 1.233-.933 1.871v.003c-.354.891-.727 1.787-1.103 2.69-.807 1.936-1.625 3.901-2.28 5.897-2.563 7.739-5.106 15.485-7.435 23.295h0c-1.22 4.092-2.108 8.279-2.987 12.419l-.126.589v.001c-1.056 5.028-2.116 10.083-2.894 15.171h0c-.923 6.081-1.632 12.201-2.251 18.307-.551 5.254-1.014 10.52-1.127 15.79a202.016 202.016 0 001.127 28.338v.001A148.387 148.387 0 005.2 264.693m18.078-144.306L5.199 264.693m.307-6.579c.563 2.657 1.124 5.311 1.798 8.3l.3 1.329-1.089-.82a3.322 3.322 0 01-1.316-2.23m.307-6.579l-.307 6.579m275.854 20.099c5.311-2.954 10.543-6.002 15.749-9.09l.002-.001c1.932-1.156 3.832-2.356 5.726-3.551l.219-.139c1.968-1.242 3.93-2.477 5.924-3.66a1898.06 1898.06 0 0115.085-8.822c1.925-1.118 3.851-2.237 5.775-3.358l.004-.002a32.738 32.738 0 001.519-.983l.403-.27.433-.289-.306-.421-.214-.294-.177-.244-.299.043a5.115 5.115 0 00-1.145.303l-.028.011-.026.014c-.865.464-1.708.963-2.543 1.458l-.588.347h-.001a1236.247 1236.247 0 01-7.039 4.118c-5.362 3.121-10.732 6.246-15.972 9.541l-.001.001c-7.75 4.889-15.609 9.599-23.68 14.003-9.836 5.366-19.663 10.744-29.434 16.206h0c-4.842 2.71-9.629 5.493-14.412 8.273a2286.74 2286.74 0 01-6.019 3.492 3188.095 3188.095 0 00-20.056 11.553l-.014.008-.014.009a8.177 8.177 0 00-1.016.804l-.684.634.906.219a1.95 1.95 0 001.411-.199l2.885-1.628c4.433-2.5 8.866-5 13.291-7.529l.001-.001c3.148-1.806 6.286-3.624 9.424-5.443 5.554-3.218 11.106-6.435 16.708-9.582 4.673-2.623 9.378-5.192 14.088-7.763l.308-.168c4.607-2.514 9.219-5.03 13.807-7.6zm0 0l-.001.001-.243-.437.245.436h-.001zm-171.758 62.493l-.4-.087-.164.376-.123.283-.179.411.388.223c.998.572 2.059 1.04 3.164 1.397l.025.008.025.005a72.63 72.63 0 007.256 1.152l.003.001c8.225.831 16.537.5 24.656-.982a142.98 142.98 0 0024.091-6.49 136.938 136.938 0 0017.236-7.377l.004-.002c.258-.135.494-.291.712-.441l.207-.143c.144-.101.28-.196.425-.29l.456-.295-.331-.43-.259-.336-.24-.311-.359.159c-.253.112-.523.226-.798.342-.402.17-.815.343-1.2.523h0l-.006.003a174.16 174.16 0 01-25.265 9.811l-.004.002a109.871 109.871 0 01-28.793 4.882h-.003a64.996 64.996 0 01-13.257-.822 171.346 171.346 0 01-4.828-1.033c-.81-.181-1.622-.363-2.439-.539z" fill="#6895FF" stroke="#6895FF"/><path d="M22.352 294.552l1.715.71-1.127-1.476a8.895 8.895 0 00-.87-.979l-.005-.006-.007-.006c-3.81-3.458-6.863-7.574-8.988-12.118h0l-.003-.005c-1.183-2.45-2.158-4.972-3.142-7.518a224.45 224.45 0 00-1.327-3.38 5.633 5.633 0 00-1.383-2.553l-.7-.745-.159 1.009a3.452 3.452 0 00.105 1.535h0l.004.012c.14.424.277.851.416 1.279.468 1.451.942 2.918 1.502 4.349 2.224 6.125 5.582 11.835 9.92 16.871a10.139 10.139 0 004.049 3.021zm295.437-59.337l-.453-.284-.253.471-.011.021-.175.325.259.263c.56.568 1.158 1.101 1.79 1.597l.011.008.012.008a7227.304 7227.304 0 0022.484 15.585l.012.008.011.008c.494.301 1.008.574 1.537.815l.36.164.242-.311.27-.347.326-.418-.437-.301c-.296-.204-.588-.444-.905-.704l-.009-.008a14.896 14.896 0 00-1.009-.78 3969.169 3969.169 0 00-19.034-12.96h0l-.01-.007c-1.175-.752-2.38-1.504-3.582-2.255l-1.436-.898zM159.495 112.14l.171-.492-.498-.151-.517-.158-.426-.13-.178.408c-.03.07-.064.144-.099.222-.092.203-.194.428-.273.649a2420.42 2420.42 0 01-1.99 5.443c-1.069 2.92-2.138 5.835-3.192 8.765-.63 1.729-1.239 3.492-1.85 5.258-.472 1.362-.944 2.727-1.427 4.082a2.242 2.242 0 00.232 2.646l.566.653.285-.816 9.196-26.379zm142.307 125.013l.268-.456-.471-.242-.225-.116-.295-.151-.254.213c-.22.184-.426.384-.615.597l-.014.017-.013.017a2325.679 2325.679 0 00-11.616 15.755l-.006.009-.006.008c-.142.213-.154.449-.161.604l-.005.156a7.866 7.866 0 01-.029.525l-.126 1.444.99-1.059c.257-.275.476-.498.672-.698l.192-.197c.24-.247.452-.472.64-.718h0l.004-.005c.892-1.198 1.788-2.393 2.683-3.586a637.903 637.903 0 005.91-7.971h0c.664-.919 1.226-1.927 1.772-2.904.236-.423.468-.84.705-1.242zM332.365 91.88l-.097.055-.065.091-.023.032-.683.955 1.162-.17c.877-.128 1.74-.324 2.582-.584l.016-.005.016-.006c1.092-.418 2.184-.898 3.265-1.374a107.66 107.66 0 012.109-.91 866.79 866.79 0 013.539-1.452c1.798-.734 3.6-1.47 5.389-2.224l.024-.01.023-.013c.588-.323 1.15-.688 1.68-1.09l.76-.576-.906-.297a3.174 3.174 0 00-1.45-.124 3.104 3.104 0 00-1.297.505 1014.776 1014.776 0 00-12.536 5.306c-.93.402-1.818.917-2.663 1.407-.287.166-.568.33-.845.485zM22.111 120.224l-.108.339.285.214.169.126.381.285.304-.368c1.116-1.351 1.788-2.871 2.357-4.377a84.4 84.4 0 00.443-1.209c.396-1.1.78-2.167 1.296-3.192l-.858-.507a33.286 33.286 0 00-4.269 8.689zm178.546 111.935l.349.489.397-.41a6.057 6.057 0 001.309-.695l.03-.021.027-.025c1.424-1.352 2.791-2.755 4.149-4.15h.001a38.865 38.865 0 001.575-1.724l.432-.49.357-.402-.428-.327-.371-.283-.353-.27-.31.319-6.976 7.206-.599.207.389.545.022.031zm.379-.317v0zm-39.559-58.551l.557-.519-.644-.281c-.629-.627-1.832-1.349-3.038-1.899a13.592 13.592 0 00-1.945-.726c-.61-.17-1.215-.272-1.709-.221l-1.885.199 1.738.757 6.253 2.725.292.32.37-.344.011-.011zm71.277 20.738l.278-.46-.478-.244-.472-.242-.392-.2-.249.363a44.188 44.188 0 00-3.002 5.099l-.221.441.438.227.405.21.415.215.243-.4 3.035-5.009zm-9.162 10.967l-.274.376.356.3.348.294.364.307.324-.349a22.789 22.789 0 003.449-4.82l.218-.41-.392-.248-.349-.221-.396-.25-.276.379-3.372 4.642z" fill="#6895FF" stroke="#6895FF"/><path d="M208.486 223.335l-.144.146v2.066l.795-.581c.558-.409 1.6-1.36 2.567-2.332.487-.49.964-.993 1.36-1.447.388-.444.724-.868.906-1.193h0l.004-.008.939-1.75-.796-.588-5.631 5.687zm15.452-16.131l.341-.462-.504-.274-.405-.221-.328-.178-.264.263a11.126 11.126 0 00-2.001 2.705l-.217.414.398.245.394.242.391.24.272-.37 1.923-2.604z" fill="#6895FF" stroke="#6895FF"/><path d="M216.142 217.151l.296-.357-.334-.322-.337-.326-.328-.317-.346.298a8.618 8.618 0 00-1.981 2.464l-.202.379.344.257.337.252.378.282.304-.36c.44-.521.876-1.049 1.308-1.573.188-.227.374-.453.561-.677zm83.427-166.058l.299.56.258-.23c.525.17 1.013.148 1.49-.03.539-.2 1.041-.592 1.547-1.014l.887-.738-1.146-.142a4.179 4.179 0 00-1.728.148 4.039 4.039 0 00-1.225.615l-1.102-.515.709 1.325.011.021zm17.697 185.028l.362.218.275-.321.045-.053.257-.299-.231-.32a6.248 6.248 0 00-2.591-2.056l-.358-.154-.237.31-.281.367-.339.444.479.289 2.619 1.575zm-173.192-64.536l.795-1.487-1.477.813-.023.013a5.164 5.164 0 00-2.835 1.095l-.323.256.19.366.191.368.236.454.449-.247 2.372-1.305.255-.009.136-.254.034-.063zm16.709.985l-.665.622.823.213a6.66 6.66 0 002.503 1.134l.421.094.154-.404.169-.442.199-.522-.541-.14-2.46-.638-.282-.217-.31.29-.011.01zm40.601 58.914l-.842-.788v.963l-1.456 1.25.444.865c.448-.109.937-.267 1.321-.553.344-.256.596-.613.669-1.084l.294-.251-.408-.381-.022-.021zm-41.121-123.193l-.632-.589-.196.84a.611.611 0 00-.01.041l-.92 1.67-.291.53.575.187.517.168.524.17.119-.538c.133-.601.275-1.211.418-1.825l.015-.027.188-.341-.285-.265-.022-.021z" fill="#6895FF" stroke="#6895FF"/><path d="M159.603 109.044l.702.655.134-.951.003-.021c.091-.19.179-.379.269-.569.128-.273.257-.547.393-.829l.267-.556-.599-.146-.473-.116-.537-.131-.077.547-.212 1.509-.003.005-.158.331.268.251.023.021zm58.396 104.517l-.45-.281-.253.466-.007.013-.902.772-.504.431.553.366.383.252.454.301.26-.479.546-1.003.015-.013.518-.443-.579-.361-.034-.021zm.465-.137l.444.278.256-.458.008-.014.856-.72.49-.412-.519-.376-.348-.252-.455-.33-.275.491-.532.952-.017.014-.526.443.584.363.034.021zM57.674 50.234l.76.627 1-.852.465-.395-.479-.378-.36-.284-.458-.362-.287.508-.64 1.136z" fill="#6895FF" stroke="#6895FF"/><path d="M58.488 50.806l.258-.297-.229-.321-.022-.032-.375-.524-.415.493-1.619 1.921.76.65 1.642-1.89z" fill="#6895FF" stroke="#6895FF"/></svg>