<svg width="349" height="372" fill="none" xmlns="http://www.w3.org/2000/svg"><path d="M295.34 53.026l.547.183.033.01 1.353.453-1.135.417a1.906 1.906 0 01-.794.996c-.289.19-.641.328-.932.443l-.23.093-3.295 1.38 7.185 3.447.423.203-.176.436-.166.41-.14.347-.372-.037a6.854 6.854 0 01-1.327-.263l-.02-.006-.019-.008a58.554 58.554 0 01-5.51-2.53l-.009-.005-.008-.005c-.976-.56-1.844-.74-2.687-.629-.71.094-1.44.397-2.233.917 1.85 1.72 3.715 3.42 5.576 5.115 3.316 3.022 6.62 6.033 9.814 9.136l.322.313-.276.353-.277.356-.228.292-.346-.133a4.477 4.477 0 01-.997-.537l-.025-.018-.021-.02c-1.18-1.074-2.364-2.146-3.548-3.22-3.57-3.235-7.147-6.476-10.654-9.797l-.012-.011-.011-.012a2.465 2.465 0 00-3.114-.416l-.033.021-.036.015a3160.744 3160.744 0 01-15.277 6.43c-3.105 1.3-6.21 2.6-9.312 3.907-3.494 1.48-6.978 2.96-10.462 4.44l-5.227 2.22h-.001c-8.739 3.7-17.481 7.401-26.228 11.102-8.747 3.7-17.553 7.401-26.418 11.102l-26.07 10.956h-.001c-.178.076-.343.154-.559.256 2.361 1.3 4.727 2.499 7.078 3.69l1.683.854c3.179 1.619 6.315 3.262 9.322 5.151l-.425.898c-3.339-1.121-6.453-2.727-9.523-4.31a187.87 187.87 0 00-3.127-1.588c-2.483-1.225-5.03-2.54-7.58-3.857-1.705-.881-3.411-1.763-5.101-2.618a1348.052 1348.052 0 00-7.403-3.709c-1.715-.855-3.429-1.709-5.15-2.574a1635.243 1635.243 0 01-9.127-4.631c-1.133-.578-2.266-1.156-3.397-1.731l-12.697-6.45h-.001c-2.783-1.413-5.567-2.816-8.351-4.219l-4.18-2.108c-2.089-1.055-4.175-2.118-6.26-3.18l-.002-.002a2043.895 2043.895 0 00-6.259-3.18h0l-12.532-6.338-12.71-6.428-.002-.001-12.345-6.308-20.066 25.29L295.34 53.025zm0 0l-.057.311m.057-.31l-.057.31m0 0l-.498.183a551.231 551.231 0 00-5.195 1.927l-.035.013-.032.018a2.123 2.123 0 01-1.851.104c-1.302-.654-2.639-1.235-3.969-1.801l-.61-.26c-1.133-.48-2.257-.958-3.362-1.473-2.6-1.214-5.049-2.619-7.117-4.7l-.001-.002a.847.847 0 00-.401-.209l-.01-.002-.068-.017c-.075-.02-.149-.038-.248-.07l-1.185-.396.585 1.104c.09.17.173.33.257.493-9.714-4.403-19.4-8.785-29.074-13.16-22.677-10.258-45.281-20.482-67.992-30.87.744-.368 1.5-.644 2.258-.922l.396-.145c1.164-.43 2.337-.903 3.332-1.768l.931-.81-1.232-.067a4.833 4.833 0 00-1.951.297c-.385.142-.777.282-1.174.422-1.057.375-2.14.76-3.173 1.236l-.014.007-.015.007a3.692 3.692 0 01-3.504.01 5.235 5.235 0 00-3.471-.833l-1.51.17 1.316.76 2.691 1.553a7.09 7.09 0 01-.255.13l-4.478 1.679h-.002l-40.323 15.32h0l-23.979 9.148h0c-2.539.97-5.079 1.935-7.618 2.9a2936.669 2936.669 0 00-11.12 4.239 4384.743 4384.743 0 00-20.202 7.772l-.018.007-.017.008c-.438.21-.86.453-1.262.726l.428.891c5.28-1.615 10.424-3.53 15.543-5.46h0l30.782-11.624h.001l43.302-16.464c1.828-.689 3.651-1.372 5.471-2.053 4.949-1.854 9.873-3.698 14.801-5.631l.011-.004.01-.005a3.393 3.393 0 012.994.116h0l.01.006c.742.379 1.518.717 2.28 1.05.409.178.814.355 1.208.536h.001c14.493 6.609 28.99 13.225 43.491 19.85h.002a147389.27 147389.27 0 0049.176 22.203l.206-.456-.206.456.333.15c3.451 1.554 6.756 3.043 9.174 5.932l.018.022.021.02c.298.283.612.55.94.797.467.444.924.888 1.413 1.363l.805.78a48.84 48.84 0 00-.311.152c-.496.242-.919.45-1.365.635h-.002a22143.355 22143.355 0 00-41.409 17.43h0a140027.36 140027.36 0 00-42.495 17.963l-32.887 13.899.176.415-.176-.415-.079.033c-.925.392-1.602.678-2.162.866-.57.192-.984.271-1.375.261-.391-.011-.798-.111-1.35-.335-.56-.228-1.235-.568-2.17-1.043l-.001-.001c-4.357-2.198-8.7-4.411-13.044-6.623a5610.36 5610.36 0 00-9.482-4.822L99.12 79.193h-.002a2014.101 2014.101 0 00-12.685-6.424c-1.627-.82-3.254-1.638-4.879-2.458h0c-8.126-4.093-16.251-8.193-24.377-12.3l-.002-.001c-.47-.236-.904-.52-1.356-.818l-.21-.138.56-1.522.617-1.679-1.398 1.115-1.509 1.204-4.58-1.907-.431-.18-.209.418-.166.333-.21.423.408.234 4.004 2.297a3931.55 3931.55 0 01-3.666 4.575c-1.406 1.754-2.787 3.476-4.158 5.194h0c-2.712 3.405-5.42 6.806-8.123 10.203l-8.01 9.99h-.001a962.68 962.68 0 01-2.553 3.189c-1.87 2.329-3.74 4.66-5.568 7.024a107.91 107.91 0 00-7.542 10.243l.798.598c7.022-8.168 13.73-16.601 20.38-25.027l261.031-30.442zm-9.453 3.535a7.972 7.972 0 01-.599.4c-.328.195-.544.265-.711.276-.154.01-.321-.026-.56-.162-.251-.144-.549-.377-.959-.73l-.006-.005-.007-.005c-.865-.695-1.671-1.454-2.468-2.239l5.31 2.465z" fill="#6895FF" stroke="#6895FF"/><path d="M74.135 47.584l-.335.402-.284.341.432.256.042.024c.31.184.603.358.906.523l16.276 7.765h0l47.215 22.603-64.252-31.915zm0 0l.096.237a64.18 64.18 0 011.344-.4c.898-.262 1.818-.529 2.696-.864h.002a17141.754 17141.754 0 0041.143-15.988h.002c3.759-1.484 7.518-2.964 11.277-4.443 10.499-4.133 20.991-8.264 31.453-12.466l.007-.003.007-.003a6.138 6.138 0 015.266.164l.013.007.013.006c9.546 4.24 19.118 8.408 28.692 12.576 1.03.45 2.06.898 3.091 1.346h.001c9.965 4.308 19.9 8.615 29.806 12.923h.001l31.086 13.441.006.003 3.001 1.342-.149.067c-.643.293-1.172.535-1.712.755l-.004.002-31.824 13.322h-.001l-29.761 12.544c-2.292.958-4.585 1.915-6.877 2.871a4043.029 4043.029 0 00-21.791 9.142l-.002.001a2.818 2.818 0 01-2.589-.188l-.019-.013-.021-.01-1.592-.786c-3.182-1.571-6.369-3.145-9.572-4.678M74.135 47.584l64.252 31.914a6749.28 6749.28 0 007.453 3.555c3.79 1.806 7.584 3.614 11.384 5.438m32.445-.243a1137.31 1137.31 0 007.8-3.314 987.335 987.335 0 018.62-3.657h0c5.061-2.117 10.144-4.202 15.239-6.293 3.753-1.54 7.513-3.082 11.276-4.642h.001c4.621-1.927 9.231-3.865 13.838-5.803a3867.657 3867.657 0 0117.409-7.288 17.663 17.663 0 013.211-.673l.289-.033.114-.269c.375-.882 1.177-1.225 2.272-1.61l.182-.064c.997-.347 2.203-.767 2.944-1.886l.73-1.105-1.278.346a29.136 29.136 0 00-4.893 1.807l-.011.006-.012.006a3.922 3.922 0 01-3.725 0l-.014-.008-.014-.006c-2.708-1.245-5.452-2.416-8.188-3.583-1.199-.512-2.397-1.023-3.59-1.54h-.002a4946.226 4946.226 0 01-22.469-9.702l-6.201-2.721a5628.137 5628.137 0 00-19.151-8.38h-.001c-2.614-1.132-5.22-2.25-7.824-3.365-2.855-1.224-5.708-2.446-8.564-3.685h0c-6.316-2.738-12.631-5.484-18.947-8.237l-.003-.001a36.162 36.162 0 01-1.243-.572l-.407-.193c.649-.299 1.295-.558 1.938-.816.245-.099.49-.197.734-.298 1.177-.482 2.337-1.008 3.383-1.804l1.23-.937-1.545.039a7.354 7.354 0 00-2.659.57c-2.112.837-4.223 1.68-6.334 2.522a2063.482 2063.482 0 01-9.294 3.692 23437.94 23437.94 0 00-31.568 12.322h-.001a7113.52 7113.52 0 00-23.503 9.26h0l-4.792 1.9a3411.118 3411.118 0 00-16.452 6.55h-.002c-1.064.433-2.1.967-3.11 1.49-.412.212-.82.423-1.224.623l.094.233-.57.038-3.28.222-.325.022-.111.308-.144.4-.155.43.415.192c4.886 2.27 9.72 4.588 14.571 6.914 3.29 1.577 6.587 3.158 9.914 4.73 5.82 2.75 11.622 5.54 17.426 8.33 2.393 1.15 4.786 2.3 7.181 3.448h.001l24.821 11.846h0l23.994 11.41c-.257.156-.544.28-.861.417l-.148.064c-.599.26-1.309.596-1.718 1.395l-.407.794.889-.067a6.512 6.512 0 002.063-.505 5634.972 5634.972 0 0022.161-9.27zm0 0h-.001l-.193-.46.194.46s0 0 0 0zm-32.445.243h.001l-.217.45.216-.45zm171.041 9.299h.001l.022-.034.51-.766-.92-.011a2.9 2.9 0 01-2.107-.947l-.015-.016-.016-.015a8859.215 8859.215 0 01-22.249-20.57l-.002-.002a7.52 7.52 0 00-.68-.543l-.207-.148c-.152-.11-.297-.213-.442-.325l-.368-.283-.31.347-.377.421-.304.34.311.334c.136.146.278.306.424.472.313.354.649.734 1.001 1.055a7901.299 7901.299 0 0120.264 18.593c.602.556 1.183 1.131 1.823 1.763l.309.306c-.189.092-.37.18-.544.267-.652.32-1.218.598-1.798.86a31910.85 31910.85 0 01-22.692 10.191l.205.456-.205-.456c-4.616 2.071-9.234 4.14-13.852 6.208a10768.996 10768.996 0 00-31.724 14.252v.001c-9.075 4.104-18.133 8.256-27.19 12.407-3.34 1.531-6.68 3.061-10.021 4.59h0l-.012.006c-.406.199-.827.451-1.227.69-.155.093-.308.184-.455.27l-.412.24.22.423.277.533.216.415.428-.188c4.051-1.774 8.027-3.636 12.007-5.511l1.053-.495c3.633-1.712 7.276-3.429 11-5.097 4.594-2.058 9.22-4.085 13.833-6.107 3.603-1.579 7.198-3.154 10.765-4.739 3.595-1.597 7.163-3.216 10.73-4.836 4.51-2.047 9.02-4.094 13.589-6.098 3.219-1.411 6.406-2.868 9.601-4.328 4.8-2.194 9.621-4.398 14.605-6.473.237.605.469 1.185.695 1.748.522 1.304 1.011 2.523 1.439 3.78a149.042 149.042 0 015.455 22.326h-.001l.002.01a123.633 123.633 0 012.042 19.9c.12 6.738-.208 13.476-.983 20.17a215.804 215.804 0 01-4.333 24.033l-.174.727c-1.704 7.114-3.403 14.206-6.131 20.984-4.175 10.376-8.594 20.599-14.52 30.085l-.008.012-.007.013a5.673 5.673 0 00-.426.999l-.103.327.268.214.221.178.368.294.316-.349a21.707 21.707 0 001.747-2.205l.006-.009.006-.009c3.591-5.711 6.412-11.861 9.222-17.986.485-1.056.969-2.111 1.456-3.163h.001c5.143-11.131 8.177-22.875 10.749-34.729a185.114 185.114 0 003.944-28.268c.607-7.376.439-14.796-.501-22.136h0l-.002-.011c-.976-6.544-2.096-13.09-3.416-19.582a73.444 73.444 0 00-5.131-16.56h0l-.005-.01a39.515 39.515 0 01-.59-1.336l-.052-.12c.284-.193.577-.372.877-.536 1.07-.479 2.146-.954 3.224-1.429a366.305 366.305 0 005.547-2.482c.248-.11.497-.21.753-.311l.211-.085c.328-.132.666-.272.992-.437.658-.332 1.292-.776 1.777-1.498zM59.038 129.954c-5.023-2.705-14.461-7.666-22.874-11.983-4.206-2.158-8.158-4.157-11.175-5.632a139.588 139.588 0 00-3.746-1.779c-.48-.216-.884-.391-1.201-.516-.297-.117-.568-.213-.753-.238l-1.591-.221 1.185 1.085c.5.458 1.054.854 1.649 1.179v.001l.006.003 1.941 1.026c6.203 3.278 12.416 6.562 18.638 9.81l33.065 17.307v.001c3.605 1.873 7.238 3.746 10.861 5.614 3.286 1.694 6.564 3.384 9.805 5.066 3.035 1.574 6.067 3.156 9.1 4.738 3.784 1.975 7.568 3.949 11.356 5.908h0c3.973 2.051 7.96 4.088 11.948 6.126 2.208 1.129 4.417 2.257 6.624 3.389.767.395 1.515.807 2.288 1.233.276.152.556.307.841.462l-.464 1.468c-.555 1.755-1.074 3.401-1.625 5.048l-.001.002a498.422 498.422 0 01-1.472 4.369v.002a499.55 499.55 0 00-1.475 4.377l-.007.021-.005.022c-.113.48-.183.969-.212 1.461l-.025.434.426.086.443.088.419.084.148-.4c.137-.368.281-.722.427-1.079l.013-.033c.15-.365.3-.735.437-1.112l.002-.004a2448 2448 0 002.009-5.749c.827-2.373 1.655-4.747 2.494-7.121.146-.329.309-.651.486-.964l8.176 4.31-.301.137c-1.109.504-2.085.948-3.048 1.41l-.005.002c-.533.264-1.067.555-1.591.841-.298.162-.593.323-.881.475l.233.943-82.568-51.697zm0 0c9.501 5.117 19.096 10.055 28.695 14.995 3.538 1.821 7.077 3.642 10.612 5.473 7.994 4.14 16.037 8.283 24.132 12.454 5.044 2.598 10.107 5.207 15.192 7.832m-78.631-40.754l78.631 40.754m0 0c.196-.39.378-.788.545-1.192a6202.592 6202.592 0 007.186-20.657l.001-.002c.204-.582.448-1.154.685-1.712.09-.213.18-.425.266-.633l.177-.429.441.144.509.167.445.145-.115.453c-.045.178-.089.363-.134.552-.113.472-.231.969-.386 1.437l-.001.003a4069.92 4069.92 0 01-3.831 11.162l-1.255 3.648c-.255.751-.512 1.497-.768 2.24a204.495 204.495 0 00-1.357 4.024c-.252.785-.277 1.196-.175 1.478.097.269.357.544 1.044.915l.003.001a172.735 172.735 0 007.788 4.029 2.236 2.236 0 001.518-.008l.009-.003c1.428-.491 2.817-1.094 4.205-1.745l.008-.004 33.109-14.809c8.495-3.804 16.989-7.63 25.484-11.478l.005-.002c.345-.152.732-.268 1.08-.373.14-.042.273-.082.395-.122l.379-.124.205.342.233.389.232.387-.361.27c-.445.333-.912.635-1.399.904l-.018.009-.018.008-15.901 7.172a6864.36 6864.36 0 00-13.296 6.024c-3.731 1.693-7.463 3.387-11.203 5.077l-.001.001a2072.269 2072.269 0 01-20.737 9.15l-14.996-6.838zm3.962 9.943a13.47 13.47 0 001.586-.372c-.237.127-.473.256-.708.385-.279.151-.557.303-.836.451v-.464h-.042zm0 0h-.025v.004m.025-.004a.257.257 0 00-.025.004m0 0l-.016.002.016.097m0-.099v.099m0 0v.397m0-.397l.061.364-.061.033m0 0l.067.125.031.059.136.258c.315-.167.621-.334.923-.499.216-.118.431-.235.646-.35-.57.172-1.149.308-1.736.407h-.067zm73.183-32.24l.071-.023-.007-.024-.064.047zm-.131-.484l-.02-.026-.078.057.098-.031z" fill="#6895FF" stroke="#6895FF"/><path d="M136.747 174.869l-.392.372-.476.449c-.462.436-.917.866-1.368 1.309a811.365 811.365 0 01-4.993 4.857c-3.913 3.786-7.812 7.558-11.536 11.515a214.533 214.533 0 00-19.08 23.667l-.004.006h0a139.103 139.103 0 00-13.448 23.14c-1.665 3.695-3.04 7.511-4.42 11.347a598.087 598.087 0 01-1.106 3.05l-.001.004a87.239 87.239 0 00-4.936 20.123v.001c-.16 1.29-.186 2.565-.212 3.871-.016.756-.031 1.524-.073 2.311v.001c-.551 9.935.672 19.805 2.288 29.642.37 2.226.902 4.438 1.438 6.671.262 1.09.526 2.186.772 3.289.162.677.19 1.378.084 2.066l-.21 1.361-.712-1.179a13.652 13.652 0 01-1.86-5.382 176.186 176.186 0 01-3.33-22.467h0c-.855-10.445-.636-20.855 2.121-31.056h0c1.166-4.306 2.66-8.528 4.143-12.719.414-1.169.826-2.335 1.23-3.501a110.34 110.34 0 0111.21-23.195l.002-.004a251.114 251.114 0 0110.525-14.961l.001-.001a278.974 278.974 0 0112.21-14.969l22.133-19.618zm0 0l-.402-.362-.332-.3-.325-.294-.334.284c-.208.178-.418.355-.627.532-.598.507-1.199 1.016-1.792 1.536l3.812-1.396zM22.963 127.223l-.022.172a14.88 14.88 0 01-.516 2.401l-.006.019-.007.018a264.824 264.824 0 00-9.213 27.957l-.001.005h0c-2.643 9.404-4.6 18.956-6.473 28.536-.816 4.177-1.369 8.424-1.856 12.672h0c-.687 5.984-1.35 11.956-1.737 17.948a400.531 400.531 0 00-.741 20.024c-.056 5.001.154 9.961.43 15.02a152.02 152.02 0 002.63 20.824m17.512-145.596L5.45 272.819m17.513-145.596l-.089-.149-.1-.167-.482-.805-.399.849c-.145.308-.307.626-.474.953-.323.634-.662 1.298-.915 1.97l-.002.003c-.348.943-.717 1.892-1.087 2.847-.795 2.046-1.6 4.119-2.246 6.227-2.526 8.182-5.032 16.37-7.328 24.625h0c-1.201 4.324-2.077 8.747-2.943 13.125l-.124.622v.001c-1.041 5.316-2.085 10.657-2.852 16.034v.001c-.91 6.427-1.61 12.896-2.219 19.35-.543 5.554-.999 11.118-1.11 16.688a228.684 228.684 0 001.11 29.948v.001a167.1 167.1 0 003.428 20.404m17.832-152.527L5.131 279.75m.32-6.931a694.86 694.86 0 001.771 8.775l.289 1.375-1.092-.883a3.532 3.532 0 01-1.288-2.336m.32-6.931l-.32 6.931m322.021-10.641l-.396.283-.397.286c-.485.35-.982.709-1.498 1.039l-.004.003a4878.904 4878.904 0 01-5.693 3.549c-4.967 3.094-9.932 6.187-14.869 9.326m22.857-14.486l-22.857 14.486m22.857-14.486l-.273-.404-.211-.311-.177-.262-.313.049c-.391.06-.773.168-1.137.322l-.029.012-.027.015a68.031 68.031 0 00-2.507 1.542l-.58.367h0a1178.18 1178.18 0 01-6.939 4.353c-5.285 3.299-10.578 6.603-15.744 10.087l-.001.001c-7.639 5.169-15.386 10.147-23.341 14.803-9.696 5.673-19.382 11.358-29.014 17.132h0c-4.772 2.864-9.492 5.807-14.206 8.746a2324.9 2324.9 0 01-5.933 3.691m100.432-60.143l-120.349 73.098m97.492-58.612c-1.966 1.25-3.899 2.556-5.839 3.87l-.217.146c-1.866 1.264-3.739 2.532-5.644 3.754l-.001.001c-5.133 3.265-10.29 6.488-15.526 9.611m27.227-17.382l-27.227 17.382m0 0l-.255-.429.257.428-.002.001zm0 0c-4.522 2.716-9.068 5.376-13.608 8.034l-.304.177c-4.643 2.718-9.281 5.433-13.887 8.207m27.799-16.418l41.834-27.133c-4.968 3.094-9.936 6.188-14.876 9.329-2.045 1.301-4.054 2.662-6.065 4.023-1.867 1.264-3.736 2.53-5.636 3.748-5.13 3.264-10.283 6.484-15.513 9.603-4.52 2.715-9.064 5.374-13.606 8.032-4.743 2.777-9.485 5.552-14.195 8.387m.258.429l-.258-.429m.258.429s0 0 0 0l-.258-.429m.258.429c-5.521 3.326-10.994 6.727-16.469 10.129-3.093 1.922-6.186 3.845-9.289 5.754l-.001.001c-4.361 2.672-8.73 5.315-13.098 7.958l-2.848 1.723m41.447-25.994c-5.524 3.328-11.003 6.733-16.479 10.136-3.093 1.922-6.184 3.844-9.283 5.751-4.36 2.671-8.727 5.313-13.095 7.956l-2.851 1.724m.261.427l.002-.001-.263-.426m.261.427l-.002.001-.259-.428m.261.427a1.827 1.827 0 01-1.417.212l-.848-.22.621-.618a8.368 8.368 0 011.002-.85l.014-.01.014-.009a3082.088 3082.088 0 0119.77-12.213m-19.417 13.281c-.081.05-.167.091-.257.123a6.869 6.869 0 00-.42.387l-.353-.355.125-.484a.823.823 0 00.405.003m.412-.318a3053.85 3053.85 0 0119.768-12.211c1.982-1.228 3.96-2.462 5.938-3.695 4.713-2.938 9.427-5.877 14.195-8.739 9.629-5.773 19.314-11.457 29.009-17.13 7.967-4.662 15.724-9.647 23.369-14.82 5.159-3.479 10.44-6.775 15.721-10.072l-108 66.667zm0 0a8.512 8.512 0 00-.412.318m.412-.318l-.412.318m19.917-12.955h-.001l.264.425-.261-.426-.002.001zm-118.963 37.85l-.415-.096-.161.395-.122.3-.159.392.36.222a15.916 15.916 0 003.124 1.479l.026.009.027.006c2.362.535 4.751.942 7.156 1.219h.003a81.108 81.108 0 0024.316-1.038 133.465 133.465 0 0023.752-6.863 130.25 130.25 0 0016.993-7.799l.005-.003a6.95 6.95 0 00.702-.466c.071-.053.139-.103.204-.153.142-.106.277-.206.419-.305l.417-.29-.296-.412-.255-.356-.243-.339-.378.179a41.63 41.63 0 01-.785.361c-.397.179-.805.364-1.185.554h0l-.006.003a164.805 164.805 0 01-24.9 10.37l-.004.002a101.68 101.68 0 01-28.371 5.159h-.003a59.71 59.71 0 01-13.059-.868c-1.593-.332-3.171-.71-4.757-1.091-.798-.192-1.599-.384-2.405-.571z" fill="#6895FF" stroke="#6895FF"/><path d="M22.032 311.295l1.67.742-1.06-1.489a9.273 9.273 0 00-.855-1.033l-.006-.006-.006-.006a40.482 40.482 0 01-8.866-12.819h0l-.002-.006c-1.167-2.591-2.13-5.26-3.1-7.953a250.246 250.246 0 00-1.308-3.573 6.051 6.051 0 00-1.356-2.685l-.713-.815-.158 1.071a3.838 3.838 0 00.102 1.596h0l.003.011c.138.449.274.901.41 1.353.462 1.535.929 3.083 1.48 4.595a58.351 58.351 0 009.772 17.824 10.072 10.072 0 003.993 3.193zm291.249-62.663l-.472-.317-.254.509-.012.022-.154.308.233.254a18.87 18.87 0 001.765 1.687l.011.01.011.008a7199.324 7199.324 0 0022.163 16.476l.012.009.012.007c.487.32.993.608 1.516.864l.378.185.247-.34.266-.367.291-.401-.399-.295c-.292-.216-.58-.469-.892-.745l-.009-.007a14.382 14.382 0 00-.995-.825 3857.593 3857.593 0 00-18.762-13.701h.001l-.011-.007a360.879 360.879 0 00-3.531-2.384l-1.415-.95zM157.241 118.47l.154-.475-.474-.155-.51-.166-.443-.145-.176.432c-.03.075-.064.154-.098.236-.091.215-.19.45-.267.681-.653 1.923-1.307 3.84-1.962 5.754-1.054 3.087-2.107 6.169-3.146 9.265a381.454 381.454 0 00-1.824 5.558c-.465 1.441-.931 2.886-1.408 4.32a2.437 2.437 0 00.225 2.741l.579.719.285-.878 9.065-27.887zm140.277 132.15l.24-.438-.437-.24-.222-.123-.311-.171-.264.237a5.913 5.913 0 00-.605.631l-.014.016-.012.018a2432.131 2432.131 0 00-11.449 16.655l-.006.009-.005.008c-.134.214-.145.449-.152.612l-.005.163c-.004.15-.009.323-.028.559l-.124 1.516.999-1.146c.253-.291.47-.528.663-.739l.189-.207c.237-.262.445-.499.63-.758h0l.003-.005c.88-1.267 1.763-2.53 2.645-3.792 1.958-2.801 3.914-5.598 5.825-8.425l.001-.001c.653-.969 1.205-2.031 1.743-3.064.232-.447.462-.889.696-1.315zm30.097-153.514l-.097.057-.062.094-.022.033-.631.948 1.125-.177a15.98 15.98 0 002.55-.619l.017-.005.016-.007c1.077-.442 2.155-.95 3.221-1.453.699-.33 1.393-.657 2.078-.961a724.41 724.41 0 013.488-1.535 520.364 520.364 0 005.312-2.352l.025-.011.023-.014a13.424 13.424 0 001.658-1.153l.692-.563-.842-.297a2.966 2.966 0 00-2.736.405 954.986 954.986 0 00-12.355 5.608c-.918.426-1.795.972-2.628 1.49-.283.175-.56.348-.832.512zM21.8 127.054l-.097.322.263.211.166.133.398.319.311-.404c1.097-1.425 1.758-3.027 2.318-4.617.151-.429.294-.854.436-1.275.39-1.163.77-2.295 1.28-3.381l-.873-.483a36.27 36.27 0 00-4.202 9.175zm175.99 118.285l.356.536.411-.455a5.872 5.872 0 001.291-.735l.03-.023.026-.027c1.403-1.428 2.75-2.911 4.089-4.386h.001c.543-.588 1.054-1.213 1.552-1.822l.426-.518.32-.387-.389-.318-.365-.3-.369-.302-.319.354-6.876 7.617-.556.206.35.527.022.033zm.386-.305v0zm-38.974-61.931l.504-.504-.59-.276c-.619-.661-1.806-1.425-2.997-2.008a12.875 12.875 0 00-1.921-.77c-.602-.18-1.205-.29-1.7-.234l-1.762.199 1.606.751 6.162 2.88.304.357.383-.384.011-.011zm70.255 21.929l.249-.441-.444-.244-.465-.255-.411-.225-.251.395a47.373 47.373 0 00-2.957 5.385l-.197.422.407.227.399.222.434.242.244-.433 2.992-5.295zm-9.06 11.651l-.244.36.322.291.344.311.378.342.334-.385a24.105 24.105 0 003.395-5.09l.195-.391-.362-.245-.343-.233-.414-.281-.281.414-3.324 4.907z" fill="#6895FF" stroke="#6895FF"/><path d="M205.505 236.073l-.132.144v2.148l.808-.634c.55-.432 1.577-1.437 2.53-2.465.48-.517.95-1.049 1.34-1.528.383-.47.712-.917.89-1.256h0l.004-.009.925-1.849-.815-.563-5.55 6.012zm15.263-17.116l.306-.443-.465-.272-.399-.233-.345-.202-.272.292a11.71 11.71 0 00-1.968 2.852l-.194.396.368.242.388.255.409.27.277-.404 1.895-2.753z" fill="#6895FF" stroke="#6895FF"/><path d="M213.085 229.47l.264-.342-.3-.311-.333-.344-.339-.352-.36.332a9.008 9.008 0 00-1.948 2.598l-.179.361.314.252.333.266.393.316.312-.396c.434-.552.864-1.11 1.29-1.663l.553-.717zm82.206-175.54l.302.607.267-.255a2.061 2.061 0 001.475-.04c.535-.214 1.031-.63 1.529-1.074l.812-.725-1.08-.143a3.89 3.89 0 00-2.92.8l-1.066-.535.67 1.343.011.022zm17.44 195.593l.38.245.282-.353.044-.056.229-.287-.206-.305a6.239 6.239 0 00-2.553-2.172l-.377-.174-.24.338-.277.388-.304.427.44.284 2.582 1.665zm-170.688-68.216l.755-1.514-1.457.86-.017.01a4.922 4.922 0 00-2.801 1.162l-.294.251.168.347.189.389.236.489.468-.276 2.332-1.377.255-.009.133-.266.033-.066zm16.44 1.1l-.605.606.763.212a6.367 6.367 0 002.473 1.2l.437.105.151-.423.166-.467.18-.506-.517-.144-2.421-.672-.294-.244-.322.322-.011.011zm40.056 62.28l-.855-.858v1.034l-1.445 1.33.465.852c.444-.115.93-.284 1.309-.588.344-.274.586-.649.653-1.139l.262-.241-.367-.368-.022-.022zm-40.534-130.232l-.647-.648-.195.894a.928.928 0 00-.011.051l-.91 1.77-.262.512.542.189.51.178.539.187.116-.559c.131-.638.272-1.286.414-1.937l.017-.033.166-.324-.257-.258-.022-.022z" fill="#6895FF" stroke="#6895FF"/><path d="M157.319 115.185l.718.718.132-1.007.004-.03.268-.608c.126-.289.254-.58.387-.877l.242-.539-.571-.149-.466-.122-.549-.144-.074.562-.21 1.603-.006.013-.14.314.243.244.022.022zm57.598 110.556l-.469-.314-.255.503-.009.018-.892.818-.456.419.505.358.377.266.473.335.262-.516.541-1.066.016-.015.469-.431-.529-.353-.033-.022zm.423-.211l.463.31.258-.494.01-.02.846-.763.443-.4-.472-.366-.343-.267-.473-.367-.277.531-.528 1.011-.018.016-.476.43.534.357.033.022zM56.851 53.075l.78.602.986-.9.42-.384-.434-.367-.354-.3-.476-.403-.29.551-.632 1.2z" fill="#6895FF" stroke="#6895FF"/><path d="M57.683 53.62l.231-.285-.203-.306-.023-.033-.382-.576-.427.544-1.596 2.031.782.624 1.618-1.999z" fill="#6895FF" stroke="#6895FF"/></svg>