<svg width="347" height="373" fill="none" xmlns="http://www.w3.org/2000/svg"><mask id="a" maskUnits="userSpaceOnUse" x="0" y=".901" width="347" height="326" fill="#000"><path fill="#fff" d="M0 .901h347v326H0z"/><path d="M303.438 241.753c-1.9 3.151-3.696 6.36-5.725 9.429-3.721 5.625-7.581 11.179-11.406 16.745-.385.56-.711 1.307-1.644 1.342-.466-.805.128-1.272.478-1.785 3.499-5.076 6.997-10.106 10.496-15.17a115.97 115.97 0 0010.134-18.671c2.332-5.356 4.665-10.653 6.775-16.08a103.41 103.41 0 003.627-11.89c1.621-6.558 3.161-13.14 4.408-19.779.98-5.24 1.575-10.573 2.158-15.882.42-3.921.629-7.865.758-11.798.124-7.222-.45-14.44-1.715-21.552a151.785 151.785 0 00-5.026-22.3c-.898-2.789-1.982-5.508-3.067-8.518-1.632.653-3.044 1.166-4.408 1.797-7.615 3.5-15.16 7.001-22.834 10.373a6224.377 6224.377 0 01-27.988 12.451c-2.437 1.086-4.863 2.229-7.335 3.244-1.563.63-2.414 1.564-2.204 3.326.093.724 0 1.47 0 2.206a91.695 91.695 0 01-1.423 16.161 147.156 147.156 0 01-5.248 22.615c-1.458 4.668-3.359 9.335-5.224 13.874-1.4 3.408-2.928 6.757-4.665 10.012-2.204 4.201-4.525 8.356-6.997 12.393a177.65 177.65 0 01-14.181 19.429 86.578 86.578 0 01-11.51 11.669c-3.242 2.684-6.379 5.52-9.784 7.982a136.067 136.067 0 01-12.234 8.017 99.375 99.375 0 01-20.489 9.101c-1.668.502-3.336.981-5.015 1.436-.606.151-1.259.186-1.889.28l-.14-.409a4.301 4.301 0 011.038-.606 99.666 99.666 0 0016.431-5.835c2.496-1.167 4.875-2.497 7.301-3.781 1.83-.968 3.626-1.983 5.457-2.964a80.396 80.396 0 0010.309-7.281 77.93 77.93 0 0011.837-10.502c3.697-4.225 7.335-8.495 10.787-12.906a165.584 165.584 0 0015.569-23.514c2.215-4.095 3.895-8.495 5.726-12.836 1.457-3.5 2.775-7.001 4.175-10.432.094-.25.271-.46.501-.595a21.888 21.888 0 01-1.668 5.543c-.326.863-.501 1.785-.746 2.672l-.7 1.237.338.14.362-1.377c.39-.617.744-1.256 1.061-1.914a134.27 134.27 0 006.216-19.907 121.167 121.167 0 003.195-18.974c.233-3.326.49-6.651.723-9.989a4.376 4.376 0 000-.793c-.163-1.482-.618-1.797-1.959-1.167a879.013 879.013 0 00-11.172 4.983c-9.003 4.095-17.994 8.168-27.009 12.322a9845.551 9845.551 0 01-22.647 10.281c-8.105 3.652-16.245 7.246-24.373 10.864l-9.329 4.177a8.11 8.11 0 001.166.957 372.656 372.656 0 007.708 3.886 10.341 10.341 0 013.301 2.742c-1.551.373-2.449-.595-3.499-1.05-1.05-.455-2.099-1.167-3.16-1.739-1.062-.572-2.041-1.015-3.044-1.54-1.003-.525-2.111-1.109-3.254-1.704l-1.971 2.404-.501-.257.641-2.602c-3.58.98-6.682 2.859-10.227 3.746.63-.992.63-.981 2.624-1.867l2.915-1.342 3.499-1.587a72.02 72.02 0 00-8.816-4.563c-.782 2.077-1.54 3.979-2.216 5.916-1.003 2.906-1.948 5.835-2.939 8.752-.245.712-.373 1.587-1.434 1.762-.607-.747-.14-1.435.07-2.077 1.166-3.361 2.332-6.698 3.498-10.059a3.972 3.972 0 00.222-2.042c-1.493 1.295-3.056 2.509-4.455 3.898-4.851 4.784-9.796 9.51-14.449 14.504-3.732 4.003-7.195 8.262-10.589 12.556a179.298 179.298 0 00-15.312 22.067 122.53 122.53 0 00-8.84 18.238c-2.635 7.165-5.422 14.283-6.752 21.833-.571 3.209-.828 6.488-1.166 9.744a46.553 46.553 0 00-.361 7.2c.303 4.667.163 9.335 1.002 14.003.84 4.667 1.377 9.335 2.193 14.003.443 2.567 1.166 5.076 1.76 7.619a2.7 2.7 0 01-.15 2.439c-.346-.43-.64-.9-.875-1.4a47.988 47.988 0 01-1.4-5.228 700.543 700.543 0 01-2.659-16.22 100.014 100.014 0 01-1.166-19.394 76.651 76.651 0 013.814-21.821c2.005-5.835 3.965-11.797 6.344-17.504a110.987 110.987 0 0112.536-22.801c3.09-4.283 6.017-8.693 9.329-12.836 3.499-4.504 7.324-8.845 11.161-13.128 3.218-3.57 6.565-7.001 10.029-10.385 3.16-3.069 6.554-5.835 9.842-8.834.479-.42.922-.898 1.563-1.54-1.621-.922-2.974-1.75-4.385-2.474-9.411-4.796-18.868-9.522-28.256-14.376-10.986-5.683-21.913-11.494-32.886-17.224a3471.153 3471.153 0 00-22.624-11.669 2925.638 2925.638 0 01-17.785-9.335c-2.332-1.167-2.122-1.004-3.673.887-3.93 4.784-5.306 10.7-7.475 16.243A256.496 256.496 0 009.946 170.63a270.576 270.576 0 00-5.061 27.621c-.711 5.625-1.166 11.296-1.773 16.932a143.044 143.044 0 00-.793 16.418c0 1.867-.373 3.734-.315 5.601.164 5.205.49 10.398.712 15.602a153.065 153.065 0 002.857 22.463 90.102 90.102 0 007.23 22.486 40.01 40.01 0 008.408 12.136 3.037 3.037 0 011.167 1.972c-.898.187-1.307-.513-1.82-.968a35.929 35.929 0 01-6.74-8.705 74.252 74.252 0 01-7.545-18.741 140.482 140.482 0 01-4.257-23.723c-.525-5.508-.746-11.062-.898-16.605a266.31 266.31 0 010-15.859c.163-5.286.583-10.805 1.108-16.185.536-5.589 1.166-11.179 2.052-16.71 1.167-7.27 2.473-14.504 3.977-21.704a248.41 248.41 0 019.761-34.342c2.332-6.348 5.073-12.521 7.627-18.776l1.446-3.501c-.583-.385-1.05-.746-1.551-1.015-3.02-1.598-6.064-3.127-9.05-4.773a3.143 3.143 0 00-3.09-.443c-.513-.898-.968-1.669-1.516-2.602.338 0 .618-.082.805 0 1.072.502 1.714 0 2.332-.817 3.498-4.423 6.997-8.81 10.496-13.198l23.137-29.01c1.446-1.82 2.868-3.651 4.338-5.542-1.388-1.482-3.499-1.645-5.038-3.419a7.316 7.316 0 011.574.14c.735.303 1.446.689 2.17 1.05 2.227 1.097 2.332 1.05 3.953-.98a297.618 297.618 0 013.37-4.236c.361-.443.7-1.027 1.738-.595-1.621 2.649-3.942 4.668-5.54 7.48.7.385 1.318.747 1.96 1.062 5.83 2.917 11.661 5.834 17.399 8.728 7.883 3.98 15.778 7.947 23.603 12.031a4.662 4.662 0 004.525.152c3.673-1.762 7.394-3.5 11.102-5.146.851-.397 1.714-.759 2.554-1.167.641-.292 1.271-.63 2.076-1.039a4.977 4.977 0 00-.758-.677 3846.827 3846.827 0 00-15.032-7.176c-9.586-4.597-19.176-9.195-28.77-13.793a5.455 5.455 0 00-5.318-.221 38.21 38.21 0 01-4.91 1.773c.397-1.167 1.167-1.167 1.68-1.482 1.574-.817 3.498-.945 4.665-2.567a.513.513 0 01.35-.175c4.174-.292 7.708-2.497 11.486-3.91 7.837-2.94 15.616-6.009 23.394-9.054 5.411-2.124 10.799-4.33 16.198-6.5.115-.069.217-.155.303-.257a4.85 4.85 0 00-5.831-1.75L80.15 40.59a4350.06 4350.06 0 01-20.653 7.772c-.641.233-1.318.373-1.97.56l-.199-.49c.462-.314.945-.595 1.446-.84 5.726-2.241 11.452-4.493 17.201-6.699 8.303-3.174 16.642-6.29 24.956-9.44l13.318-5.064c.548-.21 1.096-.444 1.936-.794l-2.332-2.065c.52.1 1.025.265 1.504.49a4.662 4.662 0 004.571.233c4.175-1.633 8.374-3.197 12.572-4.772L162.727 8.08a463.208 463.208 0 005.621-2.159c.533-.25 1.05-.531 1.551-.84l-3.067-1.879a3.091 3.091 0 013.079.35 4.66 4.66 0 004.583.07c1.225-.525 2.461-1.038 3.732-1.47a4.882 4.882 0 012.332-.187c-1.749 1.692-4.256 1.856-6.519 3.291 1.796.84 3.266 1.54 4.758 2.217a9560.466 9560.466 0 0016.082 7.282l18.216 8.238a303.4 303.4 0 016.565 3.01 3.148 3.148 0 002.869 0 5915.96 5915.96 0 0119.044-8.53c3.358-1.493 6.721-2.979 10.087-4.457a13.35 13.35 0 011.819-.502c-.349 1.167-1.166 1.4-1.749 1.692-4.455 2.007-8.921 3.968-13.376 5.963-4.758 2.14-9.508 4.29-14.251 6.453-.293.146-.578.31-.851.49 1.166 1.167 44.315 20.818 47.918 21.938l.548-1.015c.216.044.424.119.618.222.607.525 1.167 1.085 1.796 1.598a17.982 17.982 0 005.108 3.116c2.671 1.05 5.26 2.334 7.872 3.5a3.79 3.79 0 003.499-.07c1.819-.84 3.685-1.586 5.551-2.333a5.6 5.6 0 012.099-.42c-.665 1.54-2.169 1.738-3.406 2.333-1.236.596-2.67 1.167-4.454 1.926 1.679.829 2.997 1.424 4.244 2.124 1.248.7 2.706.677 3.499 1.937l-.187.467a18.801 18.801 0 01-2.134-.642c-1.784-.759-3.557-1.54-5.282-2.416a3.976 3.976 0 00-4.817.77c.77.806 1.435 1.6 2.204 2.334 2.029 1.844 4.129 3.594 6.146 5.45 2.472 2.252 4.851 4.597 7.312 6.861 4.14 3.793 8.303 7.55 12.466 11.32 1.633 1.481 3.266 2.951 4.887 4.457 2.332 2.182 4.664 4.364 6.997 6.604a2.015 2.015 0 002.635.502 1066.947 1066.947 0 0115.371-6.92 23.22 23.22 0 012.25-.735c.094 1.249-.688 1.377-1.224 1.634-3.219 1.47-6.461 2.906-9.703 4.364l-14.262 6.43c-.537.245-1.026.572-1.808 1.015l2.496 2.556c-1.504.373-2.111-.584-2.881-1.086a2.202 2.202 0 00-2.938-.105 1.166 1.166 0 00-.525 1.541c.245.618.455 1.248.735 1.855a69.824 69.824 0 014.175 13.174 195.718 195.718 0 013.731 19.92c.959 6.754 1.28 13.583.957 20.397a206.676 206.676 0 01-6.239 40.574 142.416 142.416 0 01-5.691 18.67c-1.167 2.847-2.414 5.66-3.686 8.46a993.162 993.162 0 01-5.294 11.471 8.243 8.243 0 00-.315.945l-.082-.082zM161.783 112.005c.968.525 1.574.887 2.204 1.167 4.968 2.497 9.936 4.971 14.892 7.48.665.326 1.551.478 1.749 1.505-1.014.537-1.749-.105-2.472-.478-5.54-2.801-11.079-5.648-16.618-8.472-.63-.315-1.283-.56-2.053-.899-.326.852-.583 1.459-.793 2.089-1.64 4.948-3.277 9.899-4.909 14.855-2.694 8.168-5.376 16.406-8.105 24.587-1.61 4.831-3.301 9.627-4.922 14.446-.256.758-.863 1.517-.338 2.474 1.785-.35 2.624-2.334 4.665-2.649-1.388 2.089-3.802 2.742-4.805 4.878.424.364.872.699 1.341 1.003a351.352 351.352 0 005.89 3.034c2.157 1.074 2.332 1.167 3.44-.98 4.501-8.659 8.921-17.375 13.353-26.069 2.74-5.368 5.434-10.747 8.163-16.115.082-.175.326-.268.49-.408-6.309 14.563-13.353 28.694-20.758 43.082.758-.233 1.166-.304 1.481-.455 2.204-.957 4.42-1.914 6.612-2.882 9.971-4.411 19.953-8.787 29.912-13.222 7.732-3.407 15.301-6.908 22.893-10.338 8.443-3.874 16.863-7.807 25.317-11.669 4.665-2.124 9.26-4.19 13.901-6.255 7.335-3.244 14.694-6.453 22.029-9.72 5.738-2.556 11.464-5.158 17.19-7.749a5785.727 5785.727 0 0020.105-9.09c.402-.227.792-.476 1.166-.747-1.085-2.789-2.274-5.228-4.84-7.001-6.076-4.143-11.976-8.542-17.947-12.836-.455-.327-.84-.735-1.26-1.097a1.644 1.644 0 011.376.233c1.808 1.26 3.604 2.544 5.4 3.816 6.849 4.8 13.695 9.6 20.536 14.4a2.108 2.108 0 002.414.186c1.854-.921 3.767-1.738 5.633-2.625.428-.255.837-.54 1.224-.852-.629-.653-1.096-1.167-1.632-1.68-2.181-1.972-4.409-3.898-6.578-5.835-4.999-4.598-9.998-9.23-14.997-13.898-5.492-5.076-11.008-10.14-16.454-15.275a2.742 2.742 0 00-3.394-.7c-2.332 1.05-4.816 1.996-7.219 3.011-6.717 2.824-13.422 5.683-20.14 8.518a7676.537 7676.537 0 00-25.527 10.713c-.803.397-1.582.841-2.333 1.33 1.68.922 2.951 1.61 4.222 2.334 1.271.723 2.542 1.47 3.837 2.194 1.294.723 2.624 1.342 3.86 2.123 1.236.782 2.752.934 3.638 2.427a2.458 2.458 0 01-2.204-.49 526.954 526.954 0 01-12.956-7.234 3.814 3.814 0 00-3.767-.28 1532.431 1532.431 0 01-21.621 9.16 14391.632 14391.632 0 01-35.545 14.854c-1.434.607-2.857 1.284-4.746 2.101zm-131.965 3.781c.206.215.428.414.665.595l22.565 11.809a35899.7 35899.7 0 0028.28 14.738c9.68 5.006 19.382 9.965 29.073 14.96l19.825 10.198c2.087 1.074 4.151 2.183 6.251 3.209 1.294.619 1.551.479 2.087-.863.443-1.167.875-2.252 1.26-3.384a7732.69 7732.69 0 0010.285-30.41 8208.062 8208.062 0 007.487-22.463c.84-2.509.828-2.509-1.434-3.664-10.978-5.554-21.959-11.109-32.945-16.663a2811.686 2811.686 0 00-18.834-9.429c-2.192-1.097-2.332-1.027-3.498 1.167-.852 1.669-1.668 3.36-2.543 5.006-4.563 8.635-9.13 17.263-13.702 25.882-2.904 5.485-5.831 11.004-8.677 16.489a22.43 22.43 0 01-1.247 1.925l-.467-.292c4.432-8.565 8.712-17.223 13.33-25.672 3.312-6.056 12.828-24.423 13.143-26.232-2.24-.828-3.86 1.284-5.831 1.482l-.164-.397 4.14-2.194c-2.939-1.516-5.527-2.882-8.163-4.212l-28.28-14.33c-2.262-1.167-4.548-2.263-6.81-3.419a1.55 1.55 0 00-2.24.514c-2.215 2.859-4.49 5.66-6.717 8.495a4590.423 4590.423 0 00-13.924 17.62c-5.27 6.651-10.577 13.268-15.86 19.919-.525.654-.98 1.366-1.62 2.276 4.337 2.065 8.163 4.434 12.302 6.313l1.715-2.159.361 1.435c.793-.735.91-1.972 2.228-2.158l-2.041 3.909zm137.667-63.644c.412.368.848.707 1.306 1.016 4.933 2.695 9.866 5.356 14.811 8.04l15.86 8.611c4.221 2.334 8.466 4.551 12.665 6.92a3.282 3.282 0 003.195.152 1422.574 1422.574 0 0117.574-7.363l29.435-12.264c.419-.175.781-.444 1.481-.84-.852-.41-1.423-.7-2.006-.958l-21.551-9.335a9908.27 9908.27 0 01-28.676-12.51 3.643 3.643 0 00-3.254 0c-3.697 1.716-7.44 3.338-11.16 4.995L168.78 51.361c-.432.235-.848.496-1.248.781h-.047zm-3.44.129l.082-.584c-.595-.373-1.166-.781-1.796-1.167-1.994-1.085-4-2.147-5.994-3.244l-15.546-8.565c-4.338-2.334-8.676-4.749-12.991-7.164-4.315-2.416-3.382-2.404-8.163-.56-8.723 3.372-17.399 6.896-26.11 10.315-5.983 2.334-11.978 4.667-17.96 7.001-.711.28-1.388.619-2.472 1.167 1.27.654 2.087 1.085 2.915 1.494a893.868 893.868 0 009.586 4.598c6.706 3.174 13.435 6.313 20.14 9.498 4.276 2.046 8.552 4.111 12.828 6.196a3.498 3.498 0 003.242.257 1930.915 1930.915 0 0117.493-7.97c5.831-2.602 11.603-5.17 17.399-7.771a392.826 392.826 0 017.417-3.501h-.07zm-42.181 20.28c.863.48 1.481.852 2.123 1.168 5.831 2.777 11.592 5.519 17.364 8.308 8.677 4.177 17.365 8.332 25.983 12.614a5.686 5.686 0 005.317.14c3.779-1.703 7.639-3.232 11.464-4.83l27.009-11.308c.308-.18.597-.392.863-.63-.467-.327-.758-.584-1.097-.77-3.498-1.96-6.997-3.921-10.495-5.835-4.921-2.695-9.866-5.356-14.787-8.063a2164.548 2164.548 0 01-17.703-9.814 3.648 3.648 0 00-3.603-.117c-5.237 2.334-10.496 4.668-15.732 7.072L123.147 71.91c-.361.128-.688.327-1.283.642zm86.298-40.2c-1.05-.536-1.726-.933-2.449-1.248l-19.685-8.553c-6.554-2.848-13.132-5.672-19.674-8.566a3.798 3.798 0 00-3.242 0c-4.77 1.926-9.586 3.758-14.379 5.637l-22.227 8.728c-.492.241-.967.514-1.423.817.735.478 1.166.84 1.738 1.167l11.661 6.325c8.688 4.725 17.388 9.428 26.053 14.178a2.718 2.718 0 002.659.198c2.332-1.062 4.664-2.054 6.997-3.104 4.874-2.206 9.726-4.458 14.612-6.651 5.668-2.544 11.359-5.042 17.038-7.574.618-.396 1.283-.828 2.309-1.353h.012zm-48.234 78.709c1.89-.269 62.041-25.532 63.697-26.71-.711-.48-1.329-.946-2.006-1.32-2.11-1.166-4.28-2.228-6.355-3.5a2.613 2.613 0 00-2.811-.164c-.425.2-.861.375-1.306.525l-35.93 14.96c-1.108.467-2.169 1.039-3.289 1.482-2.04.794-4.105 1.529-6.169 2.264-.116 0-.315-.175-.758-.432l3.289-1.89c-.665-.35-1.061-.572-1.481-.77l-24.28-11.54a5171.567 5171.567 0 01-20.991-10.095 3.288 3.288 0 00-3.056 0c-4.664 2.066-9.329 4.096-13.994 6.173-.655.352-1.29.742-1.901 1.167.222 1.307 1.167 1.506 1.913 1.879 8.109 4.13 16.214 8.25 24.315 12.357a4454.934 4454.934 0 0027.382 13.898c.746.374 1.539.642 2.157.899 1.236-.84.781-2.521 2.507-3.209l-.933 4.026zm122.624-51.344c-.128-.339-.14-.56-.268-.689-3.23-3.29-6.367-6.71-10.927-8.238a9.176 9.176 0 01-.91-.42c-7.848-3.571-15.697-7.165-23.545-10.724-7.848-3.56-15.977-7.177-23.942-10.83a4.044 4.044 0 00-3.638-.128c-2.064.97-4.14 1.89-6.192 2.86a9.678 9.678 0 00-1.248.84c.49.245.769.408 1.061.536 4.175 1.797 8.361 3.571 12.525 5.38l25.189 10.992c4.467 1.949 8.98 3.828 13.435 5.835a3.82 3.82 0 003.498 0 48.982 48.982 0 013.324-1.412c.65-.219 1.312-.402 1.982-.549l.245.514a8.486 8.486 0 01-1.318.945c-.839.42-1.749.677-2.565 1.167a26.547 26.547 0 00-2.391 1.703c-1.166-.525-2.496.246-3.837.817-4.746 1.996-9.481 4.015-14.239 5.998l-31.487 13.081c-.594.314-1.17.66-1.725 1.039.886.595 1.446 1.038 2.075 1.388 1.983 1.097 4.047 2.066 5.983 3.256a3.494 3.494 0 003.568.152c5.598-2.404 11.219-4.668 16.828-7.072l35.685-15.03a227.81 227.81 0 012.834-1.411zm-115.731-47.05c.746.42 1.166.723 1.644.933l21.154 9.196 18.403 7.981a3.495 3.495 0 003.067.385c2.332-1.062 4.664-2.065 6.997-3.139.315-.14.513-.501.851-.851-.431-.257-.7-.444-1.003-.584l-14.437-6.523a20433.86 20433.86 0 01-30.146-13.676 3.426 3.426 0 00-2.869-.058l-50.297 19.032a6.017 6.017 0 00-.793.478c2.064 1.739 3.977 2.532 6.659 1.447 11.522-4.667 23.125-9.16 34.705-13.71a846.464 846.464 0 0110.858-4.19 1.793 1.793 0 012.11 0c-2.145 1.528-4.606 1.879-6.903 3.314v-.035zm114.052 42.417l-.327.502c.747.747 1.47 1.517 2.251 2.229 1.423 1.295 1.808 1.295 3.883-.094l-5.807-2.637zm34.647 47.843a5.827 5.827 0 00-2.88-1.808c1.037 2.94 1.387 3.139 2.88 1.855v-.047z"/></mask><path d="M303.438 241.753c-1.9 3.151-3.696 6.36-5.725 9.429-3.721 5.625-7.581 11.179-11.406 16.745-.385.56-.711 1.307-1.644 1.342-.466-.805.128-1.272.478-1.785 3.499-5.076 6.997-10.106 10.496-15.17a115.97 115.97 0 0010.134-18.671c2.332-5.356 4.665-10.653 6.775-16.08a103.41 103.41 0 003.627-11.89c1.621-6.558 3.161-13.14 4.408-19.779.98-5.24 1.575-10.573 2.158-15.882.42-3.921.629-7.865.758-11.798.124-7.222-.45-14.44-1.715-21.552a151.785 151.785 0 00-5.026-22.3c-.898-2.789-1.982-5.508-3.067-8.518-1.632.653-3.044 1.166-4.408 1.797-7.615 3.5-15.16 7.001-22.834 10.373a6224.377 6224.377 0 01-27.988 12.451c-2.437 1.086-4.863 2.229-7.335 3.244-1.563.63-2.414 1.564-2.204 3.326.093.724 0 1.47 0 2.206a91.695 91.695 0 01-1.423 16.161 147.156 147.156 0 01-5.248 22.615c-1.458 4.668-3.359 9.335-5.224 13.874-1.4 3.408-2.928 6.757-4.665 10.012-2.204 4.201-4.525 8.356-6.997 12.393a177.65 177.65 0 01-14.181 19.429 86.578 86.578 0 01-11.51 11.669c-3.242 2.684-6.379 5.52-9.784 7.982a136.067 136.067 0 01-12.234 8.017 99.375 99.375 0 01-20.489 9.101c-1.668.502-3.336.981-5.015 1.436-.606.151-1.259.186-1.889.28l-.14-.409a4.301 4.301 0 011.038-.606 99.666 99.666 0 0016.431-5.835c2.496-1.167 4.875-2.497 7.301-3.781 1.83-.968 3.626-1.983 5.457-2.964a80.396 80.396 0 0010.309-7.281 77.93 77.93 0 0011.837-10.502c3.697-4.225 7.335-8.495 10.787-12.906a165.584 165.584 0 0015.569-23.514c2.215-4.095 3.895-8.495 5.726-12.836 1.457-3.5 2.775-7.001 4.175-10.432.094-.25.271-.46.501-.595a21.888 21.888 0 01-1.668 5.543c-.326.863-.501 1.785-.746 2.672l-.7 1.237.338.14.362-1.377c.39-.617.744-1.256 1.061-1.914a134.27 134.27 0 006.216-19.907 121.167 121.167 0 003.195-18.974c.233-3.326.49-6.651.723-9.989a4.376 4.376 0 000-.793c-.163-1.482-.618-1.797-1.959-1.167a879.013 879.013 0 00-11.172 4.983c-9.003 4.095-17.994 8.168-27.009 12.322a9845.551 9845.551 0 01-22.647 10.281c-8.105 3.652-16.245 7.246-24.373 10.864l-9.329 4.177a8.11 8.11 0 001.166.957 372.656 372.656 0 007.708 3.886 10.341 10.341 0 013.301 2.742c-1.551.373-2.449-.595-3.499-1.05-1.05-.455-2.099-1.167-3.16-1.739-1.062-.572-2.041-1.015-3.044-1.54-1.003-.525-2.111-1.109-3.254-1.704l-1.971 2.404-.501-.257.641-2.602c-3.58.98-6.682 2.859-10.227 3.746.63-.992.63-.981 2.624-1.867l2.915-1.342 3.499-1.587a72.02 72.02 0 00-8.816-4.563c-.782 2.077-1.54 3.979-2.216 5.916-1.003 2.906-1.948 5.835-2.939 8.752-.245.712-.373 1.587-1.434 1.762-.607-.747-.14-1.435.07-2.077 1.166-3.361 2.332-6.698 3.498-10.059a3.972 3.972 0 00.222-2.042c-1.493 1.295-3.056 2.509-4.455 3.898-4.851 4.784-9.796 9.51-14.449 14.504-3.732 4.003-7.195 8.262-10.589 12.556a179.298 179.298 0 00-15.312 22.067 122.53 122.53 0 00-8.84 18.238c-2.635 7.165-5.422 14.283-6.752 21.833-.571 3.209-.828 6.488-1.166 9.744a46.553 46.553 0 00-.361 7.2c.303 4.667.163 9.335 1.002 14.003.84 4.667 1.377 9.335 2.193 14.003.443 2.567 1.166 5.076 1.76 7.619a2.7 2.7 0 01-.15 2.439c-.346-.43-.64-.9-.875-1.4a47.988 47.988 0 01-1.4-5.228 700.543 700.543 0 01-2.659-16.22 100.014 100.014 0 01-1.166-19.394 76.651 76.651 0 013.814-21.821c2.005-5.835 3.965-11.797 6.344-17.504a110.987 110.987 0 0112.536-22.801c3.09-4.283 6.017-8.693 9.329-12.836 3.499-4.504 7.324-8.845 11.161-13.128 3.218-3.57 6.565-7.001 10.029-10.385 3.16-3.069 6.554-5.835 9.842-8.834.479-.42.922-.898 1.563-1.54-1.621-.922-2.974-1.75-4.385-2.474-9.411-4.796-18.868-9.522-28.256-14.376-10.986-5.683-21.913-11.494-32.886-17.224a3471.153 3471.153 0 00-22.624-11.669 2925.638 2925.638 0 01-17.785-9.335c-2.332-1.167-2.122-1.004-3.673.887-3.93 4.784-5.306 10.7-7.475 16.243A256.496 256.496 0 009.946 170.63a270.576 270.576 0 00-5.061 27.621c-.711 5.625-1.166 11.296-1.773 16.932a143.044 143.044 0 00-.793 16.418c0 1.867-.373 3.734-.315 5.601.164 5.205.49 10.398.712 15.602a153.065 153.065 0 002.857 22.463 90.102 90.102 0 007.23 22.486 40.01 40.01 0 008.408 12.136 3.037 3.037 0 011.167 1.972c-.898.187-1.307-.513-1.82-.968a35.929 35.929 0 01-6.74-8.705 74.252 74.252 0 01-7.545-18.741 140.482 140.482 0 01-4.257-23.723c-.525-5.508-.746-11.062-.898-16.605a266.31 266.31 0 010-15.859c.163-5.286.583-10.805 1.108-16.185.536-5.589 1.166-11.179 2.052-16.71 1.167-7.27 2.473-14.504 3.977-21.704a248.41 248.41 0 019.761-34.342c2.332-6.348 5.073-12.521 7.627-18.776l1.446-3.501c-.583-.385-1.05-.746-1.551-1.015-3.02-1.598-6.064-3.127-9.05-4.773a3.143 3.143 0 00-3.09-.443c-.513-.898-.968-1.669-1.516-2.602.338 0 .618-.082.805 0 1.072.502 1.714 0 2.332-.817 3.498-4.423 6.997-8.81 10.496-13.198l23.137-29.01c1.446-1.82 2.868-3.651 4.338-5.542-1.388-1.482-3.499-1.645-5.038-3.419a7.316 7.316 0 011.574.14c.735.303 1.446.689 2.17 1.05 2.227 1.097 2.332 1.05 3.953-.98a297.618 297.618 0 013.37-4.236c.361-.443.7-1.027 1.738-.595-1.621 2.649-3.942 4.668-5.54 7.48.7.385 1.318.747 1.96 1.062 5.83 2.917 11.661 5.834 17.399 8.728 7.883 3.98 15.778 7.947 23.603 12.031a4.662 4.662 0 004.525.152c3.673-1.762 7.394-3.5 11.102-5.146.851-.397 1.714-.759 2.554-1.167.641-.292 1.271-.63 2.076-1.039a4.977 4.977 0 00-.758-.677 3846.827 3846.827 0 00-15.032-7.176c-9.586-4.597-19.176-9.195-28.77-13.793a5.455 5.455 0 00-5.318-.221 38.21 38.21 0 01-4.91 1.773c.397-1.167 1.167-1.167 1.68-1.482 1.574-.817 3.498-.945 4.665-2.567a.513.513 0 01.35-.175c4.174-.292 7.708-2.497 11.486-3.91 7.837-2.94 15.616-6.009 23.394-9.054 5.411-2.124 10.799-4.33 16.198-6.5.115-.069.217-.155.303-.257a4.85 4.85 0 00-5.831-1.75L80.15 40.59a4350.06 4350.06 0 01-20.653 7.772c-.641.233-1.318.373-1.97.56l-.199-.49c.462-.314.945-.595 1.446-.84 5.726-2.241 11.452-4.493 17.201-6.699 8.303-3.174 16.642-6.29 24.956-9.44l13.318-5.064c.548-.21 1.096-.444 1.936-.794l-2.332-2.065c.52.1 1.025.265 1.504.49a4.662 4.662 0 004.571.233c4.175-1.633 8.374-3.197 12.572-4.772L162.727 8.08a463.208 463.208 0 005.621-2.159c.533-.25 1.05-.531 1.551-.84l-3.067-1.879a3.091 3.091 0 013.079.35 4.66 4.66 0 004.583.07c1.225-.525 2.461-1.038 3.732-1.47a4.882 4.882 0 012.332-.187c-1.749 1.692-4.256 1.856-6.519 3.291 1.796.84 3.266 1.54 4.758 2.217a9560.466 9560.466 0 0016.082 7.282l18.216 8.238a303.4 303.4 0 016.565 3.01 3.148 3.148 0 002.869 0 5915.96 5915.96 0 0119.044-8.53c3.358-1.493 6.721-2.979 10.087-4.457a13.35 13.35 0 011.819-.502c-.349 1.167-1.166 1.4-1.749 1.692-4.455 2.007-8.921 3.968-13.376 5.963-4.758 2.14-9.508 4.29-14.251 6.453-.293.146-.578.31-.851.49 1.166 1.167 44.315 20.818 47.918 21.938l.548-1.015c.216.044.424.119.618.222.607.525 1.167 1.085 1.796 1.598a17.982 17.982 0 005.108 3.116c2.671 1.05 5.26 2.334 7.872 3.5a3.79 3.79 0 003.499-.07c1.819-.84 3.685-1.586 5.551-2.333a5.6 5.6 0 012.099-.42c-.665 1.54-2.169 1.738-3.406 2.333-1.236.596-2.67 1.167-4.454 1.926 1.679.829 2.997 1.424 4.244 2.124 1.248.7 2.706.677 3.499 1.937l-.187.467a18.801 18.801 0 01-2.134-.642c-1.784-.759-3.557-1.54-5.282-2.416a3.976 3.976 0 00-4.817.77c.77.806 1.435 1.6 2.204 2.334 2.029 1.844 4.129 3.594 6.146 5.45 2.472 2.252 4.851 4.597 7.312 6.861 4.14 3.793 8.303 7.55 12.466 11.32 1.633 1.481 3.266 2.951 4.887 4.457 2.332 2.182 4.664 4.364 6.997 6.604a2.015 2.015 0 002.635.502 1066.947 1066.947 0 0115.371-6.92 23.22 23.22 0 012.25-.735c.094 1.249-.688 1.377-1.224 1.634-3.219 1.47-6.461 2.906-9.703 4.364l-14.262 6.43c-.537.245-1.026.572-1.808 1.015l2.496 2.556c-1.504.373-2.111-.584-2.881-1.086a2.202 2.202 0 00-2.938-.105 1.166 1.166 0 00-.525 1.541c.245.618.455 1.248.735 1.855a69.824 69.824 0 014.175 13.174 195.718 195.718 0 013.731 19.92c.959 6.754 1.28 13.583.957 20.397a206.676 206.676 0 01-6.239 40.574 142.416 142.416 0 01-5.691 18.67c-1.167 2.847-2.414 5.66-3.686 8.46a993.162 993.162 0 01-5.294 11.471 8.243 8.243 0 00-.315.945l-.082-.082zM161.783 112.005c.968.525 1.574.887 2.204 1.167 4.968 2.497 9.936 4.971 14.892 7.48.665.326 1.551.478 1.749 1.505-1.014.537-1.749-.105-2.472-.478-5.54-2.801-11.079-5.648-16.618-8.472-.63-.315-1.283-.56-2.053-.899-.326.852-.583 1.459-.793 2.089-1.64 4.948-3.277 9.899-4.909 14.855-2.694 8.168-5.376 16.406-8.105 24.587-1.61 4.831-3.301 9.627-4.922 14.446-.256.758-.863 1.517-.338 2.474 1.785-.35 2.624-2.334 4.665-2.649-1.388 2.089-3.802 2.742-4.805 4.878.424.364.872.699 1.341 1.003a351.352 351.352 0 005.89 3.034c2.157 1.074 2.332 1.167 3.44-.98 4.501-8.659 8.921-17.375 13.353-26.069 2.74-5.368 5.434-10.747 8.163-16.115.082-.175.326-.268.49-.408-6.309 14.563-13.353 28.694-20.758 43.082.758-.233 1.166-.304 1.481-.455 2.204-.957 4.42-1.914 6.612-2.882 9.971-4.411 19.953-8.787 29.912-13.222 7.732-3.407 15.301-6.908 22.893-10.338 8.443-3.874 16.863-7.807 25.317-11.669 4.665-2.124 9.26-4.19 13.901-6.255 7.335-3.244 14.694-6.453 22.029-9.72 5.738-2.556 11.464-5.158 17.19-7.749a5785.727 5785.727 0 0020.105-9.09c.402-.227.792-.476 1.166-.747-1.085-2.789-2.274-5.228-4.84-7.001-6.076-4.143-11.976-8.542-17.947-12.836-.455-.327-.84-.735-1.26-1.097a1.644 1.644 0 011.376.233c1.808 1.26 3.604 2.544 5.4 3.816 6.849 4.8 13.695 9.6 20.536 14.4a2.108 2.108 0 002.414.186c1.854-.921 3.767-1.738 5.633-2.625.428-.255.837-.54 1.224-.852-.629-.653-1.096-1.167-1.632-1.68-2.181-1.972-4.409-3.898-6.578-5.835-4.999-4.598-9.998-9.23-14.997-13.898-5.492-5.076-11.008-10.14-16.454-15.275a2.742 2.742 0 00-3.394-.7c-2.332 1.05-4.816 1.996-7.219 3.011-6.717 2.824-13.422 5.683-20.14 8.518a7676.537 7676.537 0 00-25.527 10.713c-.803.397-1.582.841-2.333 1.33 1.68.922 2.951 1.61 4.222 2.334 1.271.723 2.542 1.47 3.837 2.194 1.294.723 2.624 1.342 3.86 2.123 1.236.782 2.752.934 3.638 2.427a2.458 2.458 0 01-2.204-.49 526.954 526.954 0 01-12.956-7.234 3.814 3.814 0 00-3.767-.28 1532.431 1532.431 0 01-21.621 9.16 14391.632 14391.632 0 01-35.545 14.854c-1.434.607-2.857 1.284-4.746 2.101zm-131.965 3.781c.206.215.428.414.665.595l22.565 11.809a35899.7 35899.7 0 0028.28 14.738c9.68 5.006 19.382 9.965 29.073 14.96l19.825 10.198c2.087 1.074 4.151 2.183 6.251 3.209 1.294.619 1.551.479 2.087-.863.443-1.167.875-2.252 1.26-3.384a7732.69 7732.69 0 0010.285-30.41 8208.062 8208.062 0 007.487-22.463c.84-2.509.828-2.509-1.434-3.664-10.978-5.554-21.959-11.109-32.945-16.663a2811.686 2811.686 0 00-18.834-9.429c-2.192-1.097-2.332-1.027-3.498 1.167-.852 1.669-1.668 3.36-2.543 5.006-4.563 8.635-9.13 17.263-13.702 25.882-2.904 5.485-5.831 11.004-8.677 16.489a22.43 22.43 0 01-1.247 1.925l-.467-.292c4.432-8.565 8.712-17.223 13.33-25.672 3.312-6.056 12.828-24.423 13.143-26.232-2.24-.828-3.86 1.284-5.831 1.482l-.164-.397 4.14-2.194c-2.939-1.516-5.527-2.882-8.163-4.212l-28.28-14.33c-2.262-1.167-4.548-2.263-6.81-3.419a1.55 1.55 0 00-2.24.514c-2.215 2.859-4.49 5.66-6.717 8.495a4590.423 4590.423 0 00-13.924 17.62c-5.27 6.651-10.577 13.268-15.86 19.919-.525.654-.98 1.366-1.62 2.276 4.337 2.065 8.163 4.434 12.302 6.313l1.715-2.159.361 1.435c.793-.735.91-1.972 2.228-2.158l-2.041 3.909zm137.667-63.644c.412.368.848.707 1.306 1.016 4.933 2.695 9.866 5.356 14.811 8.04l15.86 8.611c4.221 2.334 8.466 4.551 12.665 6.92a3.282 3.282 0 003.195.152 1422.574 1422.574 0 0117.574-7.363l29.435-12.264c.419-.175.781-.444 1.481-.84-.852-.41-1.423-.7-2.006-.958l-21.551-9.335a9908.27 9908.27 0 01-28.676-12.51 3.643 3.643 0 00-3.254 0c-3.697 1.716-7.44 3.338-11.16 4.995L168.78 51.361c-.432.235-.848.496-1.248.781h-.047zm-3.44.129l.082-.584c-.595-.373-1.166-.781-1.796-1.167-1.994-1.085-4-2.147-5.994-3.244l-15.546-8.565c-4.338-2.334-8.676-4.749-12.991-7.164-4.315-2.416-3.382-2.404-8.163-.56-8.723 3.372-17.399 6.896-26.11 10.315-5.983 2.334-11.978 4.667-17.96 7.001-.711.28-1.388.619-2.472 1.167 1.27.654 2.087 1.085 2.915 1.494a893.868 893.868 0 009.586 4.598c6.706 3.174 13.435 6.313 20.14 9.498 4.276 2.046 8.552 4.111 12.828 6.196a3.498 3.498 0 003.242.257 1930.915 1930.915 0 0117.493-7.97c5.831-2.602 11.603-5.17 17.399-7.771a392.826 392.826 0 017.417-3.501h-.07zm-42.181 20.28c.863.48 1.481.852 2.123 1.168 5.831 2.777 11.592 5.519 17.364 8.308 8.677 4.177 17.365 8.332 25.983 12.614a5.686 5.686 0 005.317.14c3.779-1.703 7.639-3.232 11.464-4.83l27.009-11.308c.308-.18.597-.392.863-.63-.467-.327-.758-.584-1.097-.77-3.498-1.96-6.997-3.921-10.495-5.835-4.921-2.695-9.866-5.356-14.787-8.063a2164.548 2164.548 0 01-17.703-9.814 3.648 3.648 0 00-3.603-.117c-5.237 2.334-10.496 4.668-15.732 7.072L123.147 71.91c-.361.128-.688.327-1.283.642zm86.298-40.2c-1.05-.536-1.726-.933-2.449-1.248l-19.685-8.553c-6.554-2.848-13.132-5.672-19.674-8.566a3.798 3.798 0 00-3.242 0c-4.77 1.926-9.586 3.758-14.379 5.637l-22.227 8.728c-.492.241-.967.514-1.423.817.735.478 1.166.84 1.738 1.167l11.661 6.325c8.688 4.725 17.388 9.428 26.053 14.178a2.718 2.718 0 002.659.198c2.332-1.062 4.664-2.054 6.997-3.104 4.874-2.206 9.726-4.458 14.612-6.651 5.668-2.544 11.359-5.042 17.038-7.574.618-.396 1.283-.828 2.309-1.353h.012zm-48.234 78.709c1.89-.269 62.041-25.532 63.697-26.71-.711-.48-1.329-.946-2.006-1.32-2.11-1.166-4.28-2.228-6.355-3.5a2.613 2.613 0 00-2.811-.164c-.425.2-.861.375-1.306.525l-35.93 14.96c-1.108.467-2.169 1.039-3.289 1.482-2.04.794-4.105 1.529-6.169 2.264-.116 0-.315-.175-.758-.432l3.289-1.89c-.665-.35-1.061-.572-1.481-.77l-24.28-11.54a5171.567 5171.567 0 01-20.991-10.095 3.288 3.288 0 00-3.056 0c-4.664 2.066-9.329 4.096-13.994 6.173-.655.352-1.29.742-1.901 1.167.222 1.307 1.167 1.506 1.913 1.879 8.109 4.13 16.214 8.25 24.315 12.357a4454.934 4454.934 0 0027.382 13.898c.746.374 1.539.642 2.157.899 1.236-.84.781-2.521 2.507-3.209l-.933 4.026zm122.624-51.344c-.128-.339-.14-.56-.268-.689-3.23-3.29-6.367-6.71-10.927-8.238a9.176 9.176 0 01-.91-.42c-7.848-3.571-15.697-7.165-23.545-10.724-7.848-3.56-15.977-7.177-23.942-10.83a4.044 4.044 0 00-3.638-.128c-2.064.97-4.14 1.89-6.192 2.86a9.678 9.678 0 00-1.248.84c.49.245.769.408 1.061.536 4.175 1.797 8.361 3.571 12.525 5.38l25.189 10.992c4.467 1.949 8.98 3.828 13.435 5.835a3.82 3.82 0 003.498 0 48.982 48.982 0 013.324-1.412c.65-.219 1.312-.402 1.982-.549l.245.514a8.486 8.486 0 01-1.318.945c-.839.42-1.749.677-2.565 1.167a26.547 26.547 0 00-2.391 1.703c-1.166-.525-2.496.246-3.837.817-4.746 1.996-9.481 4.015-14.239 5.998l-31.487 13.081c-.594.314-1.17.66-1.725 1.039.886.595 1.446 1.038 2.075 1.388 1.983 1.097 4.047 2.066 5.983 3.256a3.494 3.494 0 003.568.152c5.598-2.404 11.219-4.668 16.828-7.072l35.685-15.03a227.81 227.81 0 012.834-1.411zm-115.731-47.05c.746.42 1.166.723 1.644.933l21.154 9.196 18.403 7.981a3.495 3.495 0 003.067.385c2.332-1.062 4.664-2.065 6.997-3.139.315-.14.513-.501.851-.851-.431-.257-.7-.444-1.003-.584l-14.437-6.523a20433.86 20433.86 0 01-30.146-13.676 3.426 3.426 0 00-2.869-.058l-50.297 19.032a6.017 6.017 0 00-.793.478c2.064 1.739 3.977 2.532 6.659 1.447 11.522-4.667 23.125-9.16 34.705-13.71a846.464 846.464 0 0110.858-4.19 1.793 1.793 0 012.11 0c-2.145 1.528-4.606 1.879-6.903 3.314v-.035zm114.052 42.417l-.327.502c.747.747 1.47 1.517 2.251 2.229 1.423 1.295 1.808 1.295 3.883-.094l-5.807-2.637zm34.647 47.843a5.827 5.827 0 00-2.88-1.808c1.037 2.94 1.387 3.139 2.88 1.855v-.047z" fill="#6895FF"/><path d="M303.438 241.753c-1.9 3.151-3.696 6.36-5.725 9.429-3.721 5.625-7.581 11.179-11.406 16.745-.385.56-.711 1.307-1.644 1.342-.466-.805.128-1.272.478-1.785 3.499-5.076 6.997-10.106 10.496-15.17a115.97 115.97 0 0010.134-18.671c2.332-5.356 4.665-10.653 6.775-16.08a103.41 103.41 0 003.627-11.89c1.621-6.558 3.161-13.14 4.408-19.779.98-5.24 1.575-10.573 2.158-15.882.42-3.921.629-7.865.758-11.798.124-7.222-.45-14.44-1.715-21.552a151.785 151.785 0 00-5.026-22.3c-.898-2.789-1.982-5.508-3.067-8.518-1.632.653-3.044 1.166-4.408 1.797-7.615 3.5-15.16 7.001-22.834 10.373a6224.377 6224.377 0 01-27.988 12.451c-2.437 1.086-4.863 2.229-7.335 3.244-1.563.63-2.414 1.564-2.204 3.326.093.724 0 1.47 0 2.206a91.695 91.695 0 01-1.423 16.161 147.156 147.156 0 01-5.248 22.615c-1.458 4.668-3.359 9.335-5.224 13.874-1.4 3.408-2.928 6.757-4.665 10.012-2.204 4.201-4.525 8.356-6.997 12.393a177.65 177.65 0 01-14.181 19.429 86.578 86.578 0 01-11.51 11.669c-3.242 2.684-6.379 5.52-9.784 7.982a136.067 136.067 0 01-12.234 8.017 99.375 99.375 0 01-20.489 9.101c-1.668.502-3.336.981-5.015 1.436-.606.151-1.259.186-1.889.28l-.14-.409a4.301 4.301 0 011.038-.606 99.666 99.666 0 0016.431-5.835c2.496-1.167 4.875-2.497 7.301-3.781 1.83-.968 3.626-1.983 5.457-2.964a80.396 80.396 0 0010.309-7.281 77.93 77.93 0 0011.837-10.502c3.697-4.225 7.335-8.495 10.787-12.906a165.584 165.584 0 0015.569-23.514c2.215-4.095 3.895-8.495 5.726-12.836 1.457-3.5 2.775-7.001 4.175-10.432.094-.25.271-.46.501-.595a21.888 21.888 0 01-1.668 5.543c-.326.863-.501 1.785-.746 2.672l-.7 1.237.338.14.362-1.377c.39-.617.744-1.256 1.061-1.914a134.27 134.27 0 006.216-19.907 121.167 121.167 0 003.195-18.974c.233-3.326.49-6.651.723-9.989a4.376 4.376 0 000-.793c-.163-1.482-.618-1.797-1.959-1.167a879.013 879.013 0 00-11.172 4.983c-9.003 4.095-17.994 8.168-27.009 12.322a9845.551 9845.551 0 01-22.647 10.281c-8.105 3.652-16.245 7.246-24.373 10.864l-9.329 4.177a8.11 8.11 0 001.166.957 372.656 372.656 0 007.708 3.886 10.341 10.341 0 013.301 2.742c-1.551.373-2.449-.595-3.499-1.05-1.05-.455-2.099-1.167-3.16-1.739-1.062-.572-2.041-1.015-3.044-1.54-1.003-.525-2.111-1.109-3.254-1.704l-1.971 2.404-.501-.257.641-2.602c-3.58.98-6.682 2.859-10.227 3.746.63-.992.63-.981 2.624-1.867l2.915-1.342 3.499-1.587a72.02 72.02 0 00-8.816-4.563c-.782 2.077-1.54 3.979-2.216 5.916-1.003 2.906-1.948 5.835-2.939 8.752-.245.712-.373 1.587-1.434 1.762-.607-.747-.14-1.435.07-2.077 1.166-3.361 2.332-6.698 3.498-10.059a3.972 3.972 0 00.222-2.042c-1.493 1.295-3.056 2.509-4.455 3.898-4.851 4.784-9.796 9.51-14.449 14.504-3.732 4.003-7.195 8.262-10.589 12.556a179.298 179.298 0 00-15.312 22.067 122.53 122.53 0 00-8.84 18.238c-2.635 7.165-5.422 14.283-6.752 21.833-.571 3.209-.828 6.488-1.166 9.744a46.553 46.553 0 00-.361 7.2c.303 4.667.163 9.335 1.002 14.003.84 4.667 1.377 9.335 2.193 14.003.443 2.567 1.166 5.076 1.76 7.619a2.7 2.7 0 01-.15 2.439c-.346-.43-.64-.9-.875-1.4a47.988 47.988 0 01-1.4-5.228 700.543 700.543 0 01-2.659-16.22 100.014 100.014 0 01-1.166-19.394 76.651 76.651 0 013.814-21.821c2.005-5.835 3.965-11.797 6.344-17.504a110.987 110.987 0 0112.536-22.801c3.09-4.283 6.017-8.693 9.329-12.836 3.499-4.504 7.324-8.845 11.161-13.128 3.218-3.57 6.565-7.001 10.029-10.385 3.16-3.069 6.554-5.835 9.842-8.834.479-.42.922-.898 1.563-1.54-1.621-.922-2.974-1.75-4.385-2.474-9.411-4.796-18.868-9.522-28.256-14.376-10.986-5.683-21.913-11.494-32.886-17.224a3471.153 3471.153 0 00-22.624-11.669 2925.638 2925.638 0 01-17.785-9.335c-2.332-1.167-2.122-1.004-3.673.887-3.93 4.784-5.306 10.7-7.475 16.243A256.496 256.496 0 009.946 170.63a270.576 270.576 0 00-5.061 27.621c-.711 5.625-1.166 11.296-1.773 16.932a143.044 143.044 0 00-.793 16.418c0 1.867-.373 3.734-.315 5.601.164 5.205.49 10.398.712 15.602a153.065 153.065 0 002.857 22.463 90.102 90.102 0 007.23 22.486 40.01 40.01 0 008.408 12.136 3.037 3.037 0 011.167 1.972c-.898.187-1.307-.513-1.82-.968a35.929 35.929 0 01-6.74-8.705 74.252 74.252 0 01-7.545-18.741 140.482 140.482 0 01-4.257-23.723c-.525-5.508-.746-11.062-.898-16.605a266.31 266.31 0 010-15.859c.163-5.286.583-10.805 1.108-16.185.536-5.589 1.166-11.179 2.052-16.71 1.167-7.27 2.473-14.504 3.977-21.704a248.41 248.41 0 019.761-34.342c2.332-6.348 5.073-12.521 7.627-18.776l1.446-3.501c-.583-.385-1.05-.746-1.551-1.015-3.02-1.598-6.064-3.127-9.05-4.773a3.143 3.143 0 00-3.09-.443c-.513-.898-.968-1.669-1.516-2.602.338 0 .618-.082.805 0 1.072.502 1.714 0 2.332-.817 3.498-4.423 6.997-8.81 10.496-13.198l23.137-29.01c1.446-1.82 2.868-3.651 4.338-5.542-1.388-1.482-3.499-1.645-5.038-3.419a7.316 7.316 0 011.574.14c.735.303 1.446.689 2.17 1.05 2.227 1.097 2.332 1.05 3.953-.98a297.618 297.618 0 013.37-4.236c.361-.443.7-1.027 1.738-.595-1.621 2.649-3.942 4.668-5.54 7.48.7.385 1.318.747 1.96 1.062 5.83 2.917 11.661 5.834 17.399 8.728 7.883 3.98 15.778 7.947 23.603 12.031a4.662 4.662 0 004.525.152c3.673-1.762 7.394-3.5 11.102-5.146.851-.397 1.714-.759 2.554-1.167.641-.292 1.271-.63 2.076-1.039a4.977 4.977 0 00-.758-.677 3846.827 3846.827 0 00-15.032-7.176c-9.586-4.597-19.176-9.195-28.77-13.793a5.455 5.455 0 00-5.318-.221 38.21 38.21 0 01-4.91 1.773c.397-1.167 1.167-1.167 1.68-1.482 1.574-.817 3.498-.945 4.665-2.567a.513.513 0 01.35-.175c4.174-.292 7.708-2.497 11.486-3.91 7.837-2.94 15.616-6.009 23.394-9.054 5.411-2.124 10.799-4.33 16.198-6.5.115-.069.217-.155.303-.257a4.85 4.85 0 00-5.831-1.75L80.15 40.59a4350.06 4350.06 0 01-20.653 7.772c-.641.233-1.318.373-1.97.56l-.199-.49c.462-.314.945-.595 1.446-.84 5.726-2.241 11.452-4.493 17.201-6.699 8.303-3.174 16.642-6.29 24.956-9.44l13.318-5.064c.548-.21 1.096-.444 1.936-.794l-2.332-2.065c.52.1 1.025.265 1.504.49a4.662 4.662 0 004.571.233c4.175-1.633 8.374-3.197 12.572-4.772L162.727 8.08a463.208 463.208 0 005.621-2.159c.533-.25 1.05-.531 1.551-.84l-3.067-1.879a3.091 3.091 0 013.079.35 4.66 4.66 0 004.583.07c1.225-.525 2.461-1.038 3.732-1.47a4.882 4.882 0 012.332-.187c-1.749 1.692-4.256 1.856-6.519 3.291 1.796.84 3.266 1.54 4.758 2.217a9560.466 9560.466 0 0016.082 7.282l18.216 8.238a303.4 303.4 0 016.565 3.01 3.148 3.148 0 002.869 0 5915.96 5915.96 0 0119.044-8.53c3.358-1.493 6.721-2.979 10.087-4.457a13.35 13.35 0 011.819-.502c-.349 1.167-1.166 1.4-1.749 1.692-4.455 2.007-8.921 3.968-13.376 5.963-4.758 2.14-9.508 4.29-14.251 6.453-.293.146-.578.31-.851.49 1.166 1.167 44.315 20.818 47.918 21.938l.548-1.015c.216.044.424.119.618.222.607.525 1.167 1.085 1.796 1.598a17.982 17.982 0 005.108 3.116c2.671 1.05 5.26 2.334 7.872 3.5a3.79 3.79 0 003.499-.07c1.819-.84 3.685-1.586 5.551-2.333a5.6 5.6 0 012.099-.42c-.665 1.54-2.169 1.738-3.406 2.333-1.236.596-2.67 1.167-4.454 1.926 1.679.829 2.997 1.424 4.244 2.124 1.248.7 2.706.677 3.499 1.937l-.187.467a18.801 18.801 0 01-2.134-.642c-1.784-.759-3.557-1.54-5.282-2.416a3.976 3.976 0 00-4.817.77c.77.806 1.435 1.6 2.204 2.334 2.029 1.844 4.129 3.594 6.146 5.45 2.472 2.252 4.851 4.597 7.312 6.861 4.14 3.793 8.303 7.55 12.466 11.32 1.633 1.481 3.266 2.951 4.887 4.457 2.332 2.182 4.664 4.364 6.997 6.604a2.015 2.015 0 002.635.502 1066.947 1066.947 0 0115.371-6.92 23.22 23.22 0 012.25-.735c.094 1.249-.688 1.377-1.224 1.634-3.219 1.47-6.461 2.906-9.703 4.364l-14.262 6.43c-.537.245-1.026.572-1.808 1.015l2.496 2.556c-1.504.373-2.111-.584-2.881-1.086a2.202 2.202 0 00-2.938-.105 1.166 1.166 0 00-.525 1.541c.245.618.455 1.248.735 1.855a69.824 69.824 0 014.175 13.174 195.718 195.718 0 013.731 19.92c.959 6.754 1.28 13.583.957 20.397a206.676 206.676 0 01-6.239 40.574 142.416 142.416 0 01-5.691 18.67c-1.167 2.847-2.414 5.66-3.686 8.46a993.162 993.162 0 01-5.294 11.471 8.243 8.243 0 00-.315.945l-.082-.082zM161.783 112.005c.968.525 1.574.887 2.204 1.167 4.968 2.497 9.936 4.971 14.892 7.48.665.326 1.551.478 1.749 1.505-1.014.537-1.749-.105-2.472-.478-5.54-2.801-11.079-5.648-16.618-8.472-.63-.315-1.283-.56-2.053-.899-.326.852-.583 1.459-.793 2.089-1.64 4.948-3.277 9.899-4.909 14.855-2.694 8.168-5.376 16.406-8.105 24.587-1.61 4.831-3.301 9.627-4.922 14.446-.256.758-.863 1.517-.338 2.474 1.785-.35 2.624-2.334 4.665-2.649-1.388 2.089-3.802 2.742-4.805 4.878.424.364.872.699 1.341 1.003a351.352 351.352 0 005.89 3.034c2.157 1.074 2.332 1.167 3.44-.98 4.501-8.659 8.921-17.375 13.353-26.069 2.74-5.368 5.434-10.747 8.163-16.115.082-.175.326-.268.49-.408-6.309 14.563-13.353 28.694-20.758 43.082.758-.233 1.166-.304 1.481-.455 2.204-.957 4.42-1.914 6.612-2.882 9.971-4.411 19.953-8.787 29.912-13.222 7.732-3.407 15.301-6.908 22.893-10.338 8.443-3.874 16.863-7.807 25.317-11.669 4.665-2.124 9.26-4.19 13.901-6.255 7.335-3.244 14.694-6.453 22.029-9.72 5.738-2.556 11.464-5.158 17.19-7.749a5785.727 5785.727 0 0020.105-9.09c.402-.227.792-.476 1.166-.747-1.085-2.789-2.274-5.228-4.84-7.001-6.076-4.143-11.976-8.542-17.947-12.836-.455-.327-.84-.735-1.26-1.097a1.644 1.644 0 011.376.233c1.808 1.26 3.604 2.544 5.4 3.816 6.849 4.8 13.695 9.6 20.536 14.4a2.108 2.108 0 002.414.186c1.854-.921 3.767-1.738 5.633-2.625.428-.255.837-.54 1.224-.852-.629-.653-1.096-1.167-1.632-1.68-2.181-1.972-4.409-3.898-6.578-5.835-4.999-4.598-9.998-9.23-14.997-13.898-5.492-5.076-11.008-10.14-16.454-15.275a2.742 2.742 0 00-3.394-.7c-2.332 1.05-4.816 1.996-7.219 3.011-6.717 2.824-13.422 5.683-20.14 8.518a7676.537 7676.537 0 00-25.527 10.713c-.803.397-1.582.841-2.333 1.33 1.68.922 2.951 1.61 4.222 2.334 1.271.723 2.542 1.47 3.837 2.194 1.294.723 2.624 1.342 3.86 2.123 1.236.782 2.752.934 3.638 2.427a2.458 2.458 0 01-2.204-.49 526.954 526.954 0 01-12.956-7.234 3.814 3.814 0 00-3.767-.28 1532.431 1532.431 0 01-21.621 9.16 14391.632 14391.632 0 01-35.545 14.854c-1.434.607-2.857 1.284-4.746 2.101zm-131.965 3.781c.206.215.428.414.665.595l22.565 11.809a35899.7 35899.7 0 0028.28 14.738c9.68 5.006 19.382 9.965 29.073 14.96l19.825 10.198c2.087 1.074 4.151 2.183 6.251 3.209 1.294.619 1.551.479 2.087-.863.443-1.167.875-2.252 1.26-3.384a7732.69 7732.69 0 0010.285-30.41 8208.062 8208.062 0 007.487-22.463c.84-2.509.828-2.509-1.434-3.664-10.978-5.554-21.959-11.109-32.945-16.663a2811.686 2811.686 0 00-18.834-9.429c-2.192-1.097-2.332-1.027-3.498 1.167-.852 1.669-1.668 3.36-2.543 5.006-4.563 8.635-9.13 17.263-13.702 25.882-2.904 5.485-5.831 11.004-8.677 16.489a22.43 22.43 0 01-1.247 1.925l-.467-.292c4.432-8.565 8.712-17.223 13.33-25.672 3.312-6.056 12.828-24.423 13.143-26.232-2.24-.828-3.86 1.284-5.831 1.482l-.164-.397 4.14-2.194c-2.939-1.516-5.527-2.882-8.163-4.212l-28.28-14.33c-2.262-1.167-4.548-2.263-6.81-3.419a1.55 1.55 0 00-2.24.514c-2.215 2.859-4.49 5.66-6.717 8.495a4590.423 4590.423 0 00-13.924 17.62c-5.27 6.651-10.577 13.268-15.86 19.919-.525.654-.98 1.366-1.62 2.276 4.337 2.065 8.163 4.434 12.302 6.313l1.715-2.159.361 1.435c.793-.735.91-1.972 2.228-2.158l-2.041 3.909zm137.667-63.644c.412.368.848.707 1.306 1.016 4.933 2.695 9.866 5.356 14.811 8.04l15.86 8.611c4.221 2.334 8.466 4.551 12.665 6.92a3.282 3.282 0 003.195.152 1422.574 1422.574 0 0117.574-7.363l29.435-12.264c.419-.175.781-.444 1.481-.84-.852-.41-1.423-.7-2.006-.958l-21.551-9.335a9908.27 9908.27 0 01-28.676-12.51 3.643 3.643 0 00-3.254 0c-3.697 1.716-7.44 3.338-11.16 4.995L168.78 51.361c-.432.235-.848.496-1.248.781h-.047zm-3.44.129l.082-.584c-.595-.373-1.166-.781-1.796-1.167-1.994-1.085-4-2.147-5.994-3.244l-15.546-8.565c-4.338-2.334-8.676-4.749-12.991-7.164-4.315-2.416-3.382-2.404-8.163-.56-8.723 3.372-17.399 6.896-26.11 10.315-5.983 2.334-11.978 4.667-17.96 7.001-.711.28-1.388.619-2.472 1.167 1.27.654 2.087 1.085 2.915 1.494a893.868 893.868 0 009.586 4.598c6.706 3.174 13.435 6.313 20.14 9.498 4.276 2.046 8.552 4.111 12.828 6.196a3.498 3.498 0 003.242.257 1930.915 1930.915 0 0117.493-7.97c5.831-2.602 11.603-5.17 17.399-7.771a392.826 392.826 0 017.417-3.501h-.07zm-42.181 20.28c.863.48 1.481.852 2.123 1.168 5.831 2.777 11.592 5.519 17.364 8.308 8.677 4.177 17.365 8.332 25.983 12.614a5.686 5.686 0 005.317.14c3.779-1.703 7.639-3.232 11.464-4.83l27.009-11.308c.308-.18.597-.392.863-.63-.467-.327-.758-.584-1.097-.77-3.498-1.96-6.997-3.921-10.495-5.835-4.921-2.695-9.866-5.356-14.787-8.063a2164.548 2164.548 0 01-17.703-9.814 3.648 3.648 0 00-3.603-.117c-5.237 2.334-10.496 4.668-15.732 7.072L123.147 71.91c-.361.128-.688.327-1.283.642zm86.298-40.2c-1.05-.536-1.726-.933-2.449-1.248l-19.685-8.553c-6.554-2.848-13.132-5.672-19.674-8.566a3.798 3.798 0 00-3.242 0c-4.77 1.926-9.586 3.758-14.379 5.637l-22.227 8.728c-.492.241-.967.514-1.423.817.735.478 1.166.84 1.738 1.167l11.661 6.325c8.688 4.725 17.388 9.428 26.053 14.178a2.718 2.718 0 002.659.198c2.332-1.062 4.664-2.054 6.997-3.104 4.874-2.206 9.726-4.458 14.612-6.651 5.668-2.544 11.359-5.042 17.038-7.574.618-.396 1.283-.828 2.309-1.353h.012zm-48.234 78.709c1.89-.269 62.041-25.532 63.697-26.71-.711-.48-1.329-.946-2.006-1.32-2.11-1.166-4.28-2.228-6.355-3.5a2.613 2.613 0 00-2.811-.164c-.425.2-.861.375-1.306.525l-35.93 14.96c-1.108.467-2.169 1.039-3.289 1.482-2.04.794-4.105 1.529-6.169 2.264-.116 0-.315-.175-.758-.432l3.289-1.89c-.665-.35-1.061-.572-1.481-.77l-24.28-11.54a5171.567 5171.567 0 01-20.991-10.095 3.288 3.288 0 00-3.056 0c-4.664 2.066-9.329 4.096-13.994 6.173-.655.352-1.29.742-1.901 1.167.222 1.307 1.167 1.506 1.913 1.879 8.109 4.13 16.214 8.25 24.315 12.357a4454.934 4454.934 0 0027.382 13.898c.746.374 1.539.642 2.157.899 1.236-.84.781-2.521 2.507-3.209l-.933 4.026zm122.624-51.344c-.128-.339-.14-.56-.268-.689-3.23-3.29-6.367-6.71-10.927-8.238a9.176 9.176 0 01-.91-.42c-7.848-3.571-15.697-7.165-23.545-10.724-7.848-3.56-15.977-7.177-23.942-10.83a4.044 4.044 0 00-3.638-.128c-2.064.97-4.14 1.89-6.192 2.86a9.678 9.678 0 00-1.248.84c.49.245.769.408 1.061.536 4.175 1.797 8.361 3.571 12.525 5.38l25.189 10.992c4.467 1.949 8.98 3.828 13.435 5.835a3.82 3.82 0 003.498 0 48.982 48.982 0 013.324-1.412c.65-.219 1.312-.402 1.982-.549l.245.514a8.486 8.486 0 01-1.318.945c-.839.42-1.749.677-2.565 1.167a26.547 26.547 0 00-2.391 1.703c-1.166-.525-2.496.246-3.837.817-4.746 1.996-9.481 4.015-14.239 5.998l-31.487 13.081c-.594.314-1.17.66-1.725 1.039.886.595 1.446 1.038 2.075 1.388 1.983 1.097 4.047 2.066 5.983 3.256a3.494 3.494 0 003.568.152c5.598-2.404 11.219-4.668 16.828-7.072l35.685-15.03a227.81 227.81 0 012.834-1.411v0zm-115.731-47.05c.746.42 1.166.723 1.644.933l21.154 9.196 18.403 7.981a3.495 3.495 0 003.067.385c2.332-1.062 4.664-2.065 6.997-3.139.315-.14.513-.501.851-.851-.431-.257-.7-.444-1.003-.584l-14.437-6.523a20433.86 20433.86 0 01-30.146-13.676 3.426 3.426 0 00-2.869-.058l-50.297 19.032a6.017 6.017 0 00-.793.478c2.064 1.739 3.977 2.532 6.659 1.447 11.522-4.667 23.125-9.16 34.705-13.71a846.464 846.464 0 0110.858-4.19 1.793 1.793 0 012.11 0c-2.145 1.528-4.606 1.879-6.903 3.314v-.035zm114.052 42.417l-.327.502c.747.747 1.47 1.517 2.251 2.229 1.423 1.295 1.808 1.295 3.883-.094l-5.807-2.637zm34.647 47.843a5.827 5.827 0 00-2.88-1.808c1.037 2.94 1.387 3.139 2.88 1.855v-.047z" stroke="#6895FF" stroke-width="2" mask="url(#a)"/><path d="M44.442 328.875a126.328 126.328 0 01-10.578-28.928l10.578 28.928zm0 0c.283.483.599.947.944 1.388m-.944-1.388l.944 1.388m0 0l.432-.198m-.432.198l.432-.198m0 0c-.132-.536-.3-1.062-.502-1.575m.502 1.575l-.502-1.575m0 0a60.04 60.04 0 00-.923-1.943m.923 1.943l-.923-1.943m0 0c-.479-.977-.957-1.953-1.35-2.958l1.35 2.958zm20.316-172.336l.281-.395-.385-.294-.245-.186-.316-.241-.306.253a9.1 9.1 0 00-1.233 1.234l-.008.01-.008.01c-.544.732-1.1 1.463-1.659 2.197-1.508 1.981-3.033 3.984-4.378 6.093a165.986 165.986 0 00-10.046 17.859h0l-.003.006a180.841 180.841 0 00-14.536 46.501h0l-.001.008a317.474 317.474 0 00-2.336 19.109c-.488 5.228-.634 10.487-.78 15.728l-.015.512v.001c-.053 1.955.091 3.964.23 5.898.047.657.094 1.305.132 1.94.043.71.076 1.426.11 2.146.084 1.818.17 3.661.406 5.482a209.477 209.477 0 003.764 21.975v.003a126.795 126.795 0 0010.62 29.042l.006.013.008.013c.294.502.622.984.981 1.443l.244.312.36-.165.43-.199.376-.172-.099-.402a12.867 12.867 0 00-.521-1.639l-.005-.01-.004-.01a60.426 60.426 0 00-.933-1.963l-.242-.494a33.095 33.095 0 01-1.09-2.423v-.001c-.369-.935-.74-1.868-1.11-2.8-1.534-3.855-3.06-7.692-4.361-11.605a154.451 154.451 0 01-4.997-20.77v-.003a142.526 142.526 0 01-2.034-19.443v-.005c-.447-9.592-.1-19.205 1.034-28.74v-.004a209.267 209.267 0 015.026-27.728 178.56 178.56 0 017.175-22.039l.001-.002a145.582 145.582 0 019.482-19.593c1.83-3.088 3.83-6.081 5.836-9.083a767.31 767.31 0 001.657-2.488 297.25 297.25 0 012.322-3.261c.39-.541.779-1.083 1.17-1.63zm140.402 189.093l.344-.263c.138-.106.279-.218.424-.333.398-.316.824-.654 1.272-.932m-2.04 1.528l2.304-1.103m-2.304 1.103l.212.378.268.478.186.332.37-.091a7.513 7.513 0 001.411-.499l.02-.01.019-.011c1.907-1.112 3.79-2.282 5.665-3.448h.001l-.262-.426m-7.89 3.297l.648.133.269.479a7.064 7.064 0 001.317-.467c1.901-1.108 3.778-2.275 5.655-3.442h.001m-5.85 1.769h.001l.263.425m-.264-.425l-.001.001.265.424m-.264-.425c2.709-1.694 5.424-3.372 8.135-5.047 1.212-.749 2.423-1.497 3.633-2.247l.263.425-3.634 2.248a1672.854 1672.854 0 00-8.133 5.046m5.586-2.194l24.968-15.31c1.134-.697 2.267-1.399 3.399-2.1 2.795-1.731 5.59-3.463 8.403-5.123 2.589-1.552 5.191-3.08 7.792-4.609 1.606-.944 3.212-1.887 4.814-2.836m-49.376 29.978l.264.424m0 0l24.966-15.308h0c1.137-.699 2.272-1.402 3.406-2.104 2.792-1.73 5.58-3.457 8.388-5.115l.003-.001a999.84 999.84 0 017.785-4.605c1.607-.944 3.214-1.888 4.819-2.839m-49.367 29.972l59.924-38.802 2.284-1.36c4.922-2.93 9.847-5.861 14.711-8.88v-.001c1.581-.979 3.124-2.026 4.667-3.086l.686-.472a178.859 178.859 0 013.967-2.679h.001a1832.382 1832.382 0 0117.241-11.031c2.549-1.614 5.144-3.158 7.722-4.675l.003-.002c.077-.045.149-.094.237-.154l.134-.09c.141-.095.318-.206.519-.284a1.44 1.44 0 01.719-.095c.27.035.531.15.784.341l.252.189-.062.308c-.138.689-.531 1.108-.957 1.398-.204.139-.42.252-.611.348l-.077.04a6.567 6.567 0 00-.438.234 447.41 447.41 0 01-4.731 2.89c-2.486 1.504-4.962 3.002-7.387 4.572a745.771 745.771 0 00-8.269 5.459c-3.931 2.62-7.868 5.244-11.865 7.754m-79.454 48.078l49.112-30.402m.255.43l2.087-1.229c1.838-1.081 3.68-2.164 5.508-3.265m-7.595 4.494l-.255-.43m.255.43h-.001l-.254-.43m7.85-4.064c2.021-1.215 4.046-2.424 6.072-3.634 5.496-3.281 10.997-6.564 16.42-9.978m-22.492 13.612s0 0 0 0l-.258-.429m.258.429l-.258-.429m22.75-13.183s0 0 0 0l-.264-.42.264.42zm-22.75 13.183c-1.826 1.1-3.664 2.181-5.501 3.262l-2.091 1.231m7.592-4.493c2.024-1.217 4.051-2.427 6.078-3.637 5.495-3.28 10.988-6.559 16.406-9.969 3.995-2.51 7.918-5.124 11.842-7.739 2.753-1.835 5.507-3.671 8.286-5.47 2.429-1.573 4.92-3.08 7.412-4.588 1.576-.954 3.154-1.909 4.717-2.881.149-.091.311-.172.475-.255.592-.3 1.214-.614 1.379-1.437l-64.187 40.469m-1.817-.979s0 0 0 0l.255.43-.255-.43zm-156.116 56.543l-.47-.235-.212.481-.175.396-.176.401.373.228c.598.366 1.199.739 1.802 1.115 1.435.892 2.883 1.793 4.338 2.616a4.385 4.385 0 003.184.727 5.24 5.24 0 011.599.118l.013.003.014.003a62.825 62.825 0 0018.115.541h0l.012-.002c4.815-.677 9.657-1.367 14.444-2.339h.002a104.28 104.28 0 0017.571-5.309 131.878 131.878 0 0018.793-8.666l.002-.001c.082-.046.164-.085.264-.133l.138-.065c.155-.076.338-.17.512-.3.376-.281.669-.696.737-1.357l.056-.554-.557.004a4.982 4.982 0 00-1.297.181l-.031.009-.03.013c-.82.348-1.62.752-2.417 1.155-.342.173-.683.345-1.025.513h0l-.012.006a144.111 144.111 0 01-29.344 11.501h0l-.007.002a90.382 90.382 0 01-24.187 3.481c-2.957-.046-5.862-.139-8.738-.475h0l-.012-.001a34.716 34.716 0 01-10.502-2.655c-.593-.271-1.164-.569-1.748-.873-.337-.175-.678-.353-1.029-.529zm104.782-41.457h0l.009.005c.34.191.717.35 1.163.538.215.091.447.189.698.3l.202-.457.49-.101a2.992 2.992 0 00-1.831-2.181 1213.155 1213.155 0 00-12.515-7.496h-.001c-8.117-4.776-16.241-9.545-24.374-14.307h0a5396.764 5396.764 0 00-13.681-7.971l-.001-.001a936.713 936.713 0 01-5.316-3.086 694.453 694.453 0 00-6.989-4.044 46.368 46.368 0 00-2.175-1.155c-.375-.19-.745-.379-1.105-.569l-.421-.221-.242.409-.222.373-.236.397.378.267c.649.458 1.292.927 1.938 1.399 1.449 1.058 2.917 2.131 4.525 3.122 1.173.723 2.398 1.364 3.61 1.991l.265.136c1.126.583 2.237 1.157 3.305 1.787l.001.001c11.926 7.001 23.849 14.003 35.767 21.004l16.758 9.86zm94.437-82.829l-.32.532-.307.188c.5.814 1.091 1.569 1.761 2.249l.022.022.024.019c5.878 4.644 11.758 9.267 17.708 13.809 3.295 2.54 6.689 5.015 10.07 7.48 1.302.949 2.601 1.897 3.893 2.847a2.63 2.63 0 002.841.679l.692-.255-.493-.548a17.53 17.53 0 00-1.692-1.646l-.013-.011-.014-.01a3061.4 3061.4 0 00-9.168-6.729c-3.789-2.775-7.577-5.548-11.355-8.347-1.251-.932-2.469-1.91-3.692-2.896l-.222-.18c-1.148-.925-2.304-1.857-3.488-2.755v-.001c-1.357-1.026-2.762-2.008-4.162-2.987-.639-.446-1.276-.892-1.907-1.341l-.027-.044-.128-.063-.023-.012zM104.856 18.03l-.479.844c1.186 1.126 2.549 1.899 3.92 2.572.478.234.952.454 1.419.672.897.416 1.774.824 2.63 1.31l1.424.806-.73-1.465a2.836 2.836 0 00-1.118-1.19h0l-.006-.003-.23-.129a223.173 223.173 0 00-5.053-2.771l-.014-.008-.014-.006a12.513 12.513 0 00-1.749-.632z" fill="#6895FF" stroke="#6895FF"/><path d="M66.57 150.479l-.396-.331-.318.407-2.228 2.848.394.308.21.454a5.836 5.836 0 002.82-2.796l.165-.35-.297-.248-.35-.292zm34.045-115.885l-.392.126.048.409.047.397.076.648.606-.242 1.225-.49.455-.182-.172-.459-.105-.28-.167-.446-.454.146-1.167.373zm2.317-16.421l1.645.64-1.064-1.408c-.175-.23-.42-.549-.767-.737-.392-.213-.844-.23-1.354-.018l-1.143.478 1.155.45 1.528.595zm-3.612 18.43l.434-.27-.28-.427-.175-.269-.264-.405-.414.25-.712.433-.434.262.269.43.175.28.265.424.424-.264.712-.444zm-3.93 326.675l.476.272.227-.499.176-.385.21-.462-.465-.203-.935-.409-.435-.19-.212.425-.14.28-.212.423.41.235.9.513z" fill="#6895FF" stroke="#6895FF"/><path d="M102.889 18.154l1.61.806.224-.447.224-.448-1.611-.805-.224.447-.223.447zM86.282 359.063l-.492-.154-.139.497-.082.293-.132.473.471.14.748.223.482.143.14-.483.082-.281.137-.47-.467-.146-.748-.235zM280.458 88.271c-.19.463-.583.639-.968.81a5.837 5.837 0 00-.285.133 4408.116 4408.116 0 01-11.457 5.076c-3.823 1.69-7.645 3.378-11.458 5.076a840.959 840.959 0 00-7.811 3.522 1077.86 1077.86 0 01-6.09 2.756 3826.81 3826.81 0 01-16.117 7.177l-17.224 7.689a4125.075 4125.075 0 01-18.892 8.367l90.302-40.606zm0 0a7.43 7.43 0 01.162-.018l-.05-.498-.499-.033-.01.102c-.297.05-.59.117-.879.2-5.409 1.935-77.785 34.484-95.069 42.943-.742.318-1.485.634-2.23.949l98.575-43.645zm-1.415-.728l-.015.005-.015.005c-3.074 1.1-27.441 11.937-51.174 22.679-11.876 5.376-23.605 10.734-32.452 14.848a765.21 765.21 0 00-10.773 5.086 129.296 129.296 0 00-3.133 1.562c-.376.196-.68.361-.904.492a5.235 5.235 0 00-.286.177c-.065.044-.158.11-.227.19l.377.328.125.484a13.767 13.767 0 001.695-.557h0l.008-.003a495.622 495.622 0 008.089-3.505 4077.62 4077.62 0 0018.893-8.367h.001l17.223-7.689v-.001c5.381-2.38 10.753-4.773 16.118-7.177 2.044-.914 4.071-1.837 6.098-2.759 2.591-1.179 5.181-2.358 7.801-3.518h.001c3.813-1.698 7.634-3.386 11.457-5.076h0c3.822-1.689 7.645-3.378 11.459-5.076l.012-.006.011-.006a4.54 4.54 0 01.244-.113l.184-.083c.16-.075.344-.168.518-.3.379-.288.646-.714.69-1.374l.04-.591-.589.06a8.44 8.44 0 00-1.476.285zM90.68 86.264l.781-1.086-1.302.307a9.224 9.224 0 00-3.601 1.739l.495.857c.272-.109.56-.193.868-.278l.129-.035c.265-.072.547-.15.82-.243.646-.223 1.305-.561 1.81-1.261z" fill="#6895FF" stroke="#6895FF"/><path d="M90.04 85.527l-.268.14v.818l.48.02a4.667 4.667 0 003.436-1.306l.253-.246-.146-.32-.175-.386-.218-.481-.469.245-2.893 1.516z" fill="#6895FF" stroke="#6895FF"/></svg>