<svg width="352" height="353" fill="none" xmlns="http://www.w3.org/2000/svg"><mask id="a" maskUnits="userSpaceOnUse" x="0" y=".901" width="352" height="308" fill="#000"><path fill="#fff" d="M0 .901h352v308H0z"/><path d="M307.822 228.788c-1.929 2.981-3.751 6.016-5.809 8.919-3.774 5.321-7.69 10.575-11.571 15.84-.39.53-.721 1.237-1.668 1.27-.473-.762.13-1.203.485-1.689 3.549-4.802 7.099-9.559 10.648-14.35a107.644 107.644 0 0010.281-17.661c2.366-5.067 4.732-10.078 6.873-15.211a92.926 92.926 0 003.68-11.248c1.644-6.204 3.206-12.429 4.472-18.71.994-4.956 1.597-10.001 2.189-15.023.426-3.709.638-7.44.769-11.16a99.056 99.056 0 00-1.74-20.388 135.283 135.283 0 00-5.099-21.094c-.911-2.638-2.011-5.21-3.111-8.058-1.656.618-3.088 1.104-4.472 1.7-7.726 3.311-15.38 6.623-23.165 9.813a6505.87 6505.87 0 01-28.394 11.778c-2.472 1.027-4.933 2.108-7.441 3.069-1.586.596-2.449 1.479-2.236 3.146.094.684 0 1.39 0 2.086a81.03 81.03 0 01-1.444 15.288 131.16 131.16 0 01-5.324 21.392c-1.478 4.415-3.407 8.831-5.3 13.125-1.42 3.223-2.969 6.391-4.732 9.471-2.236 3.973-4.59 7.903-7.099 11.722a168.995 168.995 0 01-14.386 18.379 84.902 84.902 0 01-11.677 11.038c-3.289 2.539-6.471 5.222-9.926 7.551a139.47 139.47 0 01-12.41 7.583 104.595 104.595 0 01-20.787 8.61c-1.692.475-3.384.927-5.087 1.358-.616.143-1.278.176-1.917.264l-.142-.386a4.493 4.493 0 011.053-.574 106.097 106.097 0 0016.67-5.519c2.531-1.104 4.945-2.362 7.406-3.576 1.857-.917 3.679-1.877 5.537-2.804a81.912 81.912 0 0010.458-6.888 77.614 77.614 0 0012.008-9.935c3.751-3.995 7.442-8.035 10.944-12.208a156.17 156.17 0 0015.794-22.242c2.248-3.875 3.951-8.036 5.809-12.142 1.479-3.312 2.815-6.623 4.235-9.869.096-.236.275-.435.509-.563a19.711 19.711 0 01-1.692 5.244c-.331.816-.509 1.689-.757 2.527l-.71 1.171.343.132.367-1.303c.395-.583.755-1.188 1.076-1.81a120.74 120.74 0 006.306-18.831 107.608 107.608 0 003.242-17.949c.237-3.145.497-6.291.733-9.448.024-.25.024-.501 0-.751-.165-1.402-.627-1.7-1.987-1.104a943.528 943.528 0 00-11.334 4.714c-9.133 3.874-18.255 7.726-27.4 11.656-7.659 3.253-15.317 6.494-22.976 9.725-8.222 3.455-16.48 6.855-24.726 10.277l-9.465 3.951c.364.335.76.638 1.183.905a377.22 377.22 0 007.821 3.676 10.353 10.353 0 013.348 2.594c-1.574.353-2.485-.563-3.549-.993-1.065-.431-2.13-1.104-3.207-1.645-1.076-.541-2.07-.96-3.087-1.457-1.018-.497-2.142-1.049-3.301-1.612l-2 2.274-.508-.243.65-2.461c-3.632.927-6.779 2.704-10.375 3.543.639-.938.639-.927 2.662-1.766l2.957-1.269 3.55-1.502a75.081 75.081 0 00-8.945-4.316c-.792 1.965-1.561 3.764-2.247 5.597-1.018 2.748-1.976 5.519-2.982 8.279-.248.673-.378 1.501-1.455 1.666-.615-.706-.142-1.357.071-1.965 1.183-3.179 2.366-6.336 3.549-9.515.256-.614.333-1.28.225-1.931-1.514 1.225-3.1 2.373-4.519 3.687-4.922 4.525-9.938 8.996-14.659 13.72-3.786 3.786-7.299 7.815-10.742 11.877a169.978 169.978 0 00-15.534 20.874 112.79 112.79 0 00-8.968 17.253c-2.673 6.777-5.5 13.511-6.85 20.653-.58 3.035-.84 6.137-1.183 9.217a41.083 41.083 0 00-.367 6.81c.308 4.416.166 8.831 1.018 13.246.852 4.416 1.396 8.831 2.224 13.246.45 2.429 1.183 4.802 1.787 7.208a2.402 2.402 0 01-.154 2.307 6.577 6.577 0 01-.888-1.324 42.977 42.977 0 01-1.42-4.946 621.275 621.275 0 01-2.697-15.343 88.324 88.324 0 01-1.183-18.346 68.102 68.102 0 013.869-20.641c2.035-5.519 4.022-11.16 6.436-16.558a103.111 103.111 0 0112.718-21.569c3.135-4.051 6.105-8.223 9.465-12.142 3.549-4.261 7.429-8.367 11.322-12.418 3.265-3.378 6.661-6.623 10.174-9.824 3.206-2.903 6.649-5.519 9.985-8.356.485-.397.935-.85 1.586-1.457-1.645-.872-3.017-1.656-4.449-2.34-9.547-4.537-19.142-9.007-28.666-13.599-11.144-5.376-22.23-10.873-33.362-16.293a3562.178 3562.178 0 00-22.952-11.038c-6.01-2.914-12.02-5.862-18.042-8.831-2.366-1.104-2.153-.949-3.727.839-3.987 4.526-5.383 10.122-7.583 15.365a230.45 230.45 0 00-10.648 33.281 240.35 240.35 0 00-5.135 26.128c-.721 5.32-1.183 10.685-1.798 16.016a126.253 126.253 0 00-.805 15.531c0 1.766-.378 3.532-.319 5.299.166 4.923.497 9.835.722 14.758a135.53 135.53 0 002.898 21.249 81.213 81.213 0 007.335 21.27c2.056 4.288 4.948 8.18 8.53 11.48a2.843 2.843 0 011.183 1.866c-.91.176-1.325-.486-1.845-.916a34.421 34.421 0 01-6.838-8.235 67.574 67.574 0 01-7.655-17.728 124.803 124.803 0 01-4.318-22.44c-.533-5.211-.757-10.465-.911-15.708-.154-5-.166-10.001 0-15.001.165-5 .591-10.222 1.124-15.31.544-5.288 1.183-10.575 2.082-15.807 1.183-6.877 2.508-13.721 4.034-20.531a222.848 222.848 0 019.903-32.486c2.366-6.005 5.146-11.844 7.737-17.761l1.467-3.311c-.591-.365-1.065-.707-1.573-.961-3.065-1.512-6.152-2.958-9.181-4.514a3.302 3.302 0 00-1.508-.598 3.407 3.407 0 00-1.627.178c-.52-.85-.982-1.578-1.538-2.461.343 0 .627-.078.816 0 1.088.474 1.74 0 2.366-.773 3.55-4.184 7.099-8.334 10.648-12.484l23.472-27.442c1.467-1.722 2.91-3.455 4.401-5.243-1.408-1.402-3.549-1.556-5.11-3.234a7.95 7.95 0 011.596.132c.746.287 1.468.651 2.201.994 2.26 1.037 2.366.993 4.01-.928a285.685 285.685 0 013.42-4.006c.367-.42.71-.972 1.763-.563-1.645 2.505-4 4.415-5.62 7.075.71.364 1.337.707 1.987 1.005 5.916 2.76 11.831 5.519 17.652 8.256 7.998 3.764 16.007 7.517 23.946 11.38a4.977 4.977 0 002.275.627c.803.025 1.6-.141 2.315-.483a435.549 435.549 0 0111.263-4.867c.864-.376 1.739-.718 2.591-1.104.651-.276 1.289-.596 2.106-.983a4.935 4.935 0 00-.769-.64 4031.924 4031.924 0 00-15.25-6.789L74.932 48.4a5.826 5.826 0 00-2.668-.76 5.872 5.872 0 00-2.727.55 40.613 40.613 0 01-4.98 1.678c.402-1.104 1.183-1.104 1.703-1.402 1.597-.772 3.55-.894 4.733-2.428a.535.535 0 01.355-.166c4.235-.276 7.82-2.362 11.653-3.697 7.95-2.782 15.841-5.685 23.732-8.566 5.49-2.01 10.956-4.096 16.433-6.149.116-.064.22-.146.308-.242a4.915 4.915 0 00-2.645-1.802 5.25 5.25 0 00-3.27.146L81.297 38.499a4605.843 4605.843 0 01-20.952 7.351c-.65.221-1.337.353-2 .53l-.2-.464c.468-.296.958-.562 1.466-.794 5.81-2.12 11.618-4.25 17.45-6.336 8.424-3.003 16.883-5.95 25.319-8.93l13.51-4.79c.557-.2 1.113-.42 1.964-.752l-2.366-1.953a6.79 6.79 0 011.526.463 4.976 4.976 0 002.288.678 5.02 5.02 0 002.35-.457c4.235-1.545 8.495-3.024 12.754-4.515l30.665-10.784a494.05 494.05 0 005.703-2.042 16.38 16.38 0 001.573-.795l-3.111-1.777a3.337 3.337 0 011.609-.226c.548.058 1.071.25 1.514.557a4.99 4.99 0 002.315.603 5.003 5.003 0 002.334-.537c1.243-.496 2.497-.982 3.786-1.39a5.296 5.296 0 012.366-.177c-1.774 1.6-4.318 1.755-6.613 3.113 1.822.794 3.313 1.457 4.827 2.097 5.442 2.303 10.88 4.6 16.315 6.888l18.479 7.793a309.07 309.07 0 016.661 2.848c.451.215.949.327 1.455.327.506 0 1.005-.112 1.456-.327 6.435-2.7 12.875-5.39 19.319-8.07 3.408-1.412 6.819-2.818 10.234-4.216a14.2 14.2 0 011.845-.474c-.354 1.103-1.183 1.324-1.774 1.6-4.52 1.899-9.051 3.753-13.57 5.64a3087.995 3087.995 0 00-14.457 6.105 8.186 8.186 0 00-.864.463c1.183 1.104 44.957 19.693 48.613 20.753l.556-.96c.218.041.43.112.627.209.615.497 1.183 1.027 1.822 1.512a18.513 18.513 0 005.182 2.947c2.709.994 5.335 2.208 7.986 3.312a4.07 4.07 0 001.783.372 4.063 4.063 0 001.766-.438c1.845-.795 3.738-1.502 5.631-2.208a6.048 6.048 0 012.13-.397c-.675 1.457-2.201 1.644-3.455 2.207s-2.709 1.104-4.519 1.822c1.703.783 3.04 1.346 4.306 2.009 1.266.662 2.745.64 3.549 1.832l-.189.442a20.067 20.067 0 01-2.165-.608c-1.81-.717-3.608-1.457-5.359-2.285a4.286 4.286 0 00-2.577-.416 4.13 4.13 0 00-2.309 1.145c.78.762 1.455 1.512 2.236 2.208 2.058 1.744 4.188 3.4 6.235 5.155 2.508 2.13 4.921 4.349 7.417 6.49 4.2 3.587 8.424 7.142 12.648 10.707 1.656 1.402 3.312 2.793 4.957 4.217a709.09 709.09 0 017.098 6.248c.306.37.747.624 1.24.712a2.173 2.173 0 001.434-.238c5.17-2.207 10.387-4.415 15.593-6.546.748-.267 1.51-.5 2.283-.695.095 1.181-.698 1.303-1.242 1.545-3.265 1.391-6.554 2.749-9.843 4.129l-14.469 6.082c-.545.232-1.041.54-1.834.96l2.532 2.418c-1.526.353-2.142-.552-2.922-1.027a2.322 2.322 0 00-1.471-.581 2.34 2.34 0 00-1.511.482c-.275.13-.484.355-.583.627-.1.273-.081.57.051.83.248.585.461 1.181.745 1.755a62.855 62.855 0 014.236 12.462 173.955 173.955 0 013.785 18.843 95.78 95.78 0 01.97 19.295 183.178 183.178 0 01-6.329 38.38 127.826 127.826 0 01-5.773 17.661c-1.183 2.694-2.449 5.354-3.739 8.003a924.113 924.113 0 01-5.371 10.851 7.32 7.32 0 00-.32.894l-.082-.078zM164.113 106.053c.982.497 1.597.839 2.236 1.104 5.04 2.362 10.08 4.702 15.108 7.076.674.309 1.573.452 1.774 1.424-1.029.507-1.774-.1-2.508-.453-5.619-2.649-11.239-5.342-16.859-8.014-.638-.298-1.301-.53-2.082-.85-.331.806-.591 1.38-.804 1.976-1.665 4.68-3.325 9.364-4.981 14.052-2.733 7.727-5.454 15.52-8.222 23.258-1.633 4.57-3.349 9.106-4.993 13.665-.26.718-.876 1.435-.343 2.34 1.81-.331 2.662-2.207 4.732-2.505-1.408 1.975-3.857 2.594-4.874 4.614.43.344.885.661 1.36.949 1.976.971 3.976 1.932 5.975 2.87 2.189 1.015 2.366 1.104 3.49-.927 4.567-8.191 9.051-16.436 13.546-24.66 2.781-5.078 5.513-10.166 8.282-15.244.083-.165.331-.254.497-.386-6.401 13.776-13.547 27.143-21.059 40.753.769-.221 1.183-.287 1.502-.43 2.236-.905 4.484-1.811 6.709-2.727 10.115-4.172 20.242-8.312 30.346-12.506 7.843-3.223 15.522-6.535 23.223-9.78 8.566-3.665 17.108-7.385 25.685-11.038 4.732-2.009 9.394-3.963 14.102-5.917 7.442-3.069 14.907-6.104 22.349-9.195 5.821-2.417 11.629-4.879 17.438-7.329a6342.699 6342.699 0 0020.397-8.6c.408-.214.803-.45 1.183-.706-1.101-2.638-2.307-4.945-4.91-6.623-6.164-3.918-12.15-8.08-18.208-12.142-.461-.309-.851-.695-1.277-1.037a1.78 1.78 0 011.396.22c1.833 1.193 3.655 2.407 5.477 3.61 6.949 4.54 13.894 9.08 20.834 13.621a2.264 2.264 0 002.449.177c1.881-.872 3.822-1.645 5.715-2.484.434-.24.849-.51 1.242-.806-.639-.618-1.112-1.104-1.656-1.59-2.213-1.865-4.472-3.686-6.673-5.518a2690.491 2690.491 0 01-15.214-13.147c-5.573-4.802-11.169-9.592-16.694-14.45a2.816 2.816 0 00-1.595-.902 2.955 2.955 0 00-1.847.24c-2.367.994-4.887 1.888-7.324 2.849-6.814 2.67-13.617 5.375-20.432 8.057a8225.971 8225.971 0 00-25.897 10.134c-.814.376-1.604.796-2.366 1.258 1.703.872 2.993 1.523 4.282 2.208 1.29.684 2.58 1.39 3.893 2.075 1.313.684 2.662 1.27 3.916 2.009 1.254.74 2.792.883 3.691 2.296a2.667 2.667 0 01-1.178.021 2.572 2.572 0 01-1.058-.485 547.212 547.212 0 01-13.144-6.844 4.108 4.108 0 00-3.821-.265 1625.452 1625.452 0 01-21.935 8.666 15366.496 15366.496 0 01-36.06 14.051c-1.455.574-2.899 1.215-4.815 1.987zM30.235 109.63c.21.203.435.391.675.563l22.892 11.17c9.56 4.651 19.123 9.298 28.69 13.942 9.82 4.735 19.663 9.427 29.494 14.151l20.113 9.648c2.117 1.015 4.211 2.064 6.341 3.035 1.313.585 1.573.453 2.118-.817.449-1.104.887-2.13 1.277-3.201a6870.837 6870.837 0 0010.435-28.766c2.54-7.072 5.072-14.155 7.596-21.249.851-2.373.84-2.373-1.456-3.466a130897.42 130897.42 0 00-33.422-15.762 2977.031 2977.031 0 00-19.106-8.92c-2.225-1.037-2.367-.97-3.55 1.105-.863 1.578-1.691 3.179-2.579 4.735-4.63 8.168-9.263 16.329-13.9 24.483-2.947 5.188-5.916 10.409-8.803 15.597a21.123 21.123 0 01-1.266 1.821l-.473-.275c4.495-8.103 8.837-16.293 13.522-24.285 3.36-5.729 13.014-23.103 13.334-24.814-2.272-.784-3.916 1.214-5.916 1.402l-.165-.375 4.2-2.076c-2.982-1.435-5.608-2.726-8.282-3.984l-28.69-13.556c-2.295-1.103-4.614-2.141-6.909-3.234a1.637 1.637 0 00-.6-.236 1.685 1.685 0 00-.65.01 1.627 1.627 0 00-.592.255 1.505 1.505 0 00-.43.457c-2.247 2.704-4.554 5.354-6.814 8.036a4409.687 4409.687 0 00-14.126 16.668c-5.347 6.292-10.73 12.55-16.09 18.842-.532.618-.994 1.292-1.644 2.153 4.4 1.953 8.281 4.194 12.481 5.971l1.74-2.042.366 1.358c.805-.695.923-1.865 2.26-2.042l-2.07 3.698zm139.663-60.203c.418.348.861.669 1.325.96 5.005 2.55 10.009 5.067 15.025 7.605l16.09 8.147c4.283 2.207 8.589 4.305 12.848 6.546a3.54 3.54 0 003.242.144 1496.355 1496.355 0 0117.829-6.966l29.861-11.602c.426-.165.793-.419 1.503-.794-.864-.387-1.444-.663-2.035-.905l-21.864-8.831a11007.04 11007.04 0 01-29.092-11.833 3.906 3.906 0 00-1.65-.364c-.573 0-1.138.125-1.65.364-3.751 1.622-7.548 3.157-11.322 4.724l-28.797 12.065c-.437.223-.86.47-1.266.74h-.047zm-3.49.121l.083-.552c-.604-.353-1.183-.74-1.822-1.104-2.023-1.026-4.058-2.03-6.081-3.068l-15.771-8.102c-4.401-2.208-8.802-4.493-13.179-6.778-4.378-2.285-3.431-2.274-8.282-.53-8.849 3.19-17.651 6.524-26.489 9.758-6.07 2.208-12.15 4.415-18.22 6.623-.721.265-1.407.585-2.507 1.104 1.29.618 2.117 1.026 2.957 1.413a936.617 936.617 0 009.725 4.349c6.803 3.002 13.629 5.972 20.432 8.985 4.338 1.935 8.676 3.89 13.014 5.861a3.779 3.779 0 003.289.243 2039.976 2039.976 0 0117.746-7.539c5.915-2.461 11.772-4.89 17.652-7.351a410.568 410.568 0 017.524-3.312h-.071zm-42.792 19.185c.875.452 1.503.805 2.153 1.104 5.916 2.627 11.76 5.22 17.616 7.859 8.802 3.952 17.616 7.881 26.359 11.932.82.43 1.74.668 2.68.69a6.122 6.122 0 002.715-.557c3.833-1.612 7.749-3.058 11.63-4.57l27.4-10.696a5.42 5.42 0 00.875-.596c-.473-.31-.769-.552-1.112-.729a1221.69 1221.69 0 00-10.647-5.519c-4.993-2.55-10.009-5.067-15.002-7.627a2274.549 2274.549 0 01-17.959-9.284 3.897 3.897 0 00-1.812-.505 3.925 3.925 0 00-1.844.395c-5.312 2.207-10.647 4.415-15.959 6.69l-25.792 10.806c-.366.121-.698.309-1.301.607zm87.548-38.027c-1.065-.508-1.751-.883-2.484-1.181l-19.971-8.091c-6.649-2.694-13.321-5.365-19.958-8.103a4.093 4.093 0 00-1.645-.343c-.569 0-1.13.117-1.644.343-4.839 1.822-9.725 3.555-14.588 5.332l-22.549 8.256a13.07 13.07 0 00-1.444.773c.746.453 1.183.795 1.763 1.104l11.831 5.983c8.814 4.47 17.64 8.919 26.43 13.411a2.929 2.929 0 002.697.188c2.367-1.004 4.733-1.943 7.099-2.936 4.945-2.086 9.867-4.217 14.824-6.292 5.75-2.406 11.523-4.768 17.285-7.164.627-.375 1.301-.784 2.342-1.28h.012zm-48.932 74.453c1.916-.254 62.94-24.152 64.62-25.267-.722-.452-1.349-.894-2.035-1.247-2.142-1.104-4.342-2.108-6.448-3.311a2.805 2.805 0 00-2.851-.154c-.432.187-.874.353-1.325.496l-36.451 14.151c-1.124.442-2.201.982-3.336 1.402-2.071.75-4.165 1.446-6.259 2.141-.118 0-.319-.165-.769-.408l3.336-1.788c-.674-.332-1.076-.541-1.502-.729L144.58 79.528a5406.57 5406.57 0 01-21.295-9.548 3.53 3.53 0 00-1.55-.356 3.53 3.53 0 00-1.55.356c-4.732 1.954-9.465 3.874-14.197 5.84-.665.333-1.309.701-1.928 1.103.224 1.236 1.183 1.424 1.94 1.777a15094.06 15094.06 0 0024.667 11.69 4740.838 4740.838 0 0027.779 13.147c.757.353 1.562.607 2.189.85 1.254-.795.792-2.385 2.543-3.036l-.946 3.808zm124.401-48.568c-.13-.32-.142-.53-.272-.652-3.278-3.112-6.46-6.347-11.086-7.793a9.661 9.661 0 01-.923-.397c-7.962-3.378-15.924-6.778-23.886-10.144-7.962-3.367-16.208-6.789-24.289-10.244a4.36 4.36 0 00-3.691-.122c-2.094.917-4.2 1.789-6.282 2.705-.443.234-.867.5-1.266.795.497.232.781.386 1.077.508 4.235 1.7 8.482 3.377 12.706 5.088l25.554 10.398c4.532 1.844 9.11 3.62 13.63 5.52.548.263 1.157.4 1.774.4a4.11 4.11 0 001.775-.4c1.1-.486 2.236-.928 3.372-1.336.659-.207 1.331-.38 2.011-.519l.248.486a8.664 8.664 0 01-1.337.894c-.852.397-1.774.64-2.602 1.104a26.98 26.98 0 00-2.426 1.611c-1.183-.497-2.532.232-3.892.773-4.815 1.888-9.619 3.797-14.446 5.674l-31.943 12.374c-.602.297-1.187.625-1.751.982.899.563 1.467.982 2.106 1.314 2.011 1.037 4.106 1.953 6.069 3.08a3.763 3.763 0 003.621.144c5.678-2.275 11.381-4.416 17.072-6.69l36.202-14.218c.934-.441 1.881-.883 2.875-1.335zM169.224 12.084c.757.397 1.183.684 1.668.883l21.461 8.698 18.669 7.55a3.784 3.784 0 003.111.365c2.367-1.005 4.733-1.954 7.099-2.97.319-.132.521-.474.864-.805-.438-.243-.71-.42-1.018-.552l-14.646-6.17a21552.775 21552.775 0 01-30.583-12.938 3.691 3.691 0 00-2.91-.055l-51.027 18.004c-.28.13-.549.282-.804.452 2.094 1.645 4.034 2.396 6.755 1.37 11.689-4.416 23.461-8.666 35.209-12.971a893.404 893.404 0 0111.014-3.963c.311-.21.686-.324 1.071-.324.385 0 .759.113 1.071.324-2.177 1.446-4.674 1.777-7.004 3.135v-.033zm115.705 40.124l-.331.475c.757.706 1.49 1.435 2.283 2.108 1.443 1.226 1.834 1.226 3.94-.088l-5.892-2.495zm35.149 45.258a5.984 5.984 0 00-2.922-1.712c1.053 2.782 1.408 2.97 2.922 1.756v-.044z"/></mask><path d="M307.822 228.788c-1.929 2.981-3.751 6.016-5.809 8.919-3.774 5.321-7.69 10.575-11.571 15.84-.39.53-.721 1.237-1.668 1.27-.473-.762.13-1.203.485-1.689 3.549-4.802 7.099-9.559 10.648-14.35a107.644 107.644 0 0010.281-17.661c2.366-5.067 4.732-10.078 6.873-15.211a92.926 92.926 0 003.68-11.248c1.644-6.204 3.206-12.429 4.472-18.71.994-4.956 1.597-10.001 2.189-15.023.426-3.709.638-7.44.769-11.16a99.056 99.056 0 00-1.74-20.388 135.283 135.283 0 00-5.099-21.094c-.911-2.638-2.011-5.21-3.111-8.058-1.656.618-3.088 1.104-4.472 1.7-7.726 3.311-15.38 6.623-23.165 9.813a6505.87 6505.87 0 01-28.394 11.778c-2.472 1.027-4.933 2.108-7.441 3.069-1.586.596-2.449 1.479-2.236 3.146.094.684 0 1.39 0 2.086a81.03 81.03 0 01-1.444 15.288 131.16 131.16 0 01-5.324 21.392c-1.478 4.415-3.407 8.831-5.3 13.125-1.42 3.223-2.969 6.391-4.732 9.471-2.236 3.973-4.59 7.903-7.099 11.722a168.995 168.995 0 01-14.386 18.379 84.902 84.902 0 01-11.677 11.038c-3.289 2.539-6.471 5.222-9.926 7.551a139.47 139.47 0 01-12.41 7.583 104.595 104.595 0 01-20.787 8.61c-1.692.475-3.384.927-5.087 1.358-.616.143-1.278.176-1.917.264l-.142-.386a4.493 4.493 0 011.053-.574 106.097 106.097 0 0016.67-5.519c2.531-1.104 4.945-2.362 7.406-3.576 1.857-.917 3.679-1.877 5.537-2.804a81.912 81.912 0 0010.458-6.888 77.614 77.614 0 0012.008-9.935c3.751-3.995 7.442-8.035 10.944-12.208a156.17 156.17 0 0015.794-22.242c2.248-3.875 3.951-8.036 5.809-12.142 1.479-3.312 2.815-6.623 4.235-9.869.096-.236.275-.435.509-.563a19.711 19.711 0 01-1.692 5.244c-.331.816-.509 1.689-.757 2.527l-.71 1.171.343.132.367-1.303c.395-.583.755-1.188 1.076-1.81a120.74 120.74 0 006.306-18.831 107.608 107.608 0 003.242-17.949c.237-3.145.497-6.291.733-9.448.024-.25.024-.501 0-.751-.165-1.402-.627-1.7-1.987-1.104a943.528 943.528 0 00-11.334 4.714c-9.133 3.874-18.255 7.726-27.4 11.656-7.659 3.253-15.317 6.494-22.976 9.725-8.222 3.455-16.48 6.855-24.726 10.277l-9.465 3.951c.364.335.76.638 1.183.905a377.22 377.22 0 007.821 3.676 10.353 10.353 0 013.348 2.594c-1.574.353-2.485-.563-3.549-.993-1.065-.431-2.13-1.104-3.207-1.645-1.076-.541-2.07-.96-3.087-1.457-1.018-.497-2.142-1.049-3.301-1.612l-2 2.274-.508-.243.65-2.461c-3.632.927-6.779 2.704-10.375 3.543.639-.938.639-.927 2.662-1.766l2.957-1.269 3.55-1.502a75.081 75.081 0 00-8.945-4.316c-.792 1.965-1.561 3.764-2.247 5.597-1.018 2.748-1.976 5.519-2.982 8.279-.248.673-.378 1.501-1.455 1.666-.615-.706-.142-1.357.071-1.965 1.183-3.179 2.366-6.336 3.549-9.515.256-.614.333-1.28.225-1.931-1.514 1.225-3.1 2.373-4.519 3.687-4.922 4.525-9.938 8.996-14.659 13.72-3.786 3.786-7.299 7.815-10.742 11.877a169.978 169.978 0 00-15.534 20.874 112.79 112.79 0 00-8.968 17.253c-2.673 6.777-5.5 13.511-6.85 20.653-.58 3.035-.84 6.137-1.183 9.217a41.083 41.083 0 00-.367 6.81c.308 4.416.166 8.831 1.018 13.246.852 4.416 1.396 8.831 2.224 13.246.45 2.429 1.183 4.802 1.787 7.208a2.402 2.402 0 01-.154 2.307 6.577 6.577 0 01-.888-1.324 42.977 42.977 0 01-1.42-4.946 621.275 621.275 0 01-2.697-15.343 88.324 88.324 0 01-1.183-18.346 68.102 68.102 0 013.869-20.641c2.035-5.519 4.022-11.16 6.436-16.558a103.111 103.111 0 0112.718-21.569c3.135-4.051 6.105-8.223 9.465-12.142 3.549-4.261 7.429-8.367 11.322-12.418 3.265-3.378 6.661-6.623 10.174-9.824 3.206-2.903 6.649-5.519 9.985-8.356.485-.397.935-.85 1.586-1.457-1.645-.872-3.017-1.656-4.449-2.34-9.547-4.537-19.142-9.007-28.666-13.599-11.144-5.376-22.23-10.873-33.362-16.293a3562.178 3562.178 0 00-22.952-11.038c-6.01-2.914-12.02-5.862-18.042-8.831-2.366-1.104-2.153-.949-3.727.839-3.987 4.526-5.383 10.122-7.583 15.365a230.45 230.45 0 00-10.648 33.281 240.35 240.35 0 00-5.135 26.128c-.721 5.32-1.183 10.685-1.798 16.016a126.253 126.253 0 00-.805 15.531c0 1.766-.378 3.532-.319 5.299.166 4.923.497 9.835.722 14.758a135.53 135.53 0 002.898 21.249 81.213 81.213 0 007.335 21.27c2.056 4.288 4.948 8.18 8.53 11.48a2.843 2.843 0 011.183 1.866c-.91.176-1.325-.486-1.845-.916a34.421 34.421 0 01-6.838-8.235 67.574 67.574 0 01-7.655-17.728 124.803 124.803 0 01-4.318-22.44c-.533-5.211-.757-10.465-.911-15.708-.154-5-.166-10.001 0-15.001.165-5 .591-10.222 1.124-15.31.544-5.288 1.183-10.575 2.082-15.807 1.183-6.877 2.508-13.721 4.034-20.531a222.848 222.848 0 019.903-32.486c2.366-6.005 5.146-11.844 7.737-17.761l1.467-3.311c-.591-.365-1.065-.707-1.573-.961-3.065-1.512-6.152-2.958-9.181-4.514a3.302 3.302 0 00-1.508-.598 3.407 3.407 0 00-1.627.178c-.52-.85-.982-1.578-1.538-2.461.343 0 .627-.078.816 0 1.088.474 1.74 0 2.366-.773 3.55-4.184 7.099-8.334 10.648-12.484l23.472-27.442c1.467-1.722 2.91-3.455 4.401-5.243-1.408-1.402-3.549-1.556-5.11-3.234a7.95 7.95 0 011.596.132c.746.287 1.468.651 2.201.994 2.26 1.037 2.366.993 4.01-.928a285.685 285.685 0 013.42-4.006c.367-.42.71-.972 1.763-.563-1.645 2.505-4 4.415-5.62 7.075.71.364 1.337.707 1.987 1.005 5.916 2.76 11.831 5.519 17.652 8.256 7.998 3.764 16.007 7.517 23.946 11.38a4.977 4.977 0 002.275.627c.803.025 1.6-.141 2.315-.483a435.549 435.549 0 0111.263-4.867c.864-.376 1.739-.718 2.591-1.104.651-.276 1.289-.596 2.106-.983a4.935 4.935 0 00-.769-.64 4031.924 4031.924 0 00-15.25-6.789L74.932 48.4a5.826 5.826 0 00-2.668-.76 5.872 5.872 0 00-2.727.55 40.613 40.613 0 01-4.98 1.678c.402-1.104 1.183-1.104 1.703-1.402 1.597-.772 3.55-.894 4.733-2.428a.535.535 0 01.355-.166c4.235-.276 7.82-2.362 11.653-3.697 7.95-2.782 15.841-5.685 23.732-8.566 5.49-2.01 10.956-4.096 16.433-6.149.116-.064.22-.146.308-.242a4.915 4.915 0 00-2.645-1.802 5.25 5.25 0 00-3.27.146L81.297 38.499a4605.843 4605.843 0 01-20.952 7.351c-.65.221-1.337.353-2 .53l-.2-.464c.468-.296.958-.562 1.466-.794 5.81-2.12 11.618-4.25 17.45-6.336 8.424-3.003 16.883-5.95 25.319-8.93l13.51-4.79c.557-.2 1.113-.42 1.964-.752l-2.366-1.953a6.79 6.79 0 011.526.463 4.976 4.976 0 002.288.678 5.02 5.02 0 002.35-.457c4.235-1.545 8.495-3.024 12.754-4.515l30.665-10.784a494.05 494.05 0 005.703-2.042 16.38 16.38 0 001.573-.795l-3.111-1.777a3.337 3.337 0 011.609-.226c.548.058 1.071.25 1.514.557a4.99 4.99 0 002.315.603 5.003 5.003 0 002.334-.537c1.243-.496 2.497-.982 3.786-1.39a5.296 5.296 0 012.366-.177c-1.774 1.6-4.318 1.755-6.613 3.113 1.822.794 3.313 1.457 4.827 2.097 5.442 2.303 10.88 4.6 16.315 6.888l18.479 7.793a309.07 309.07 0 016.661 2.848c.451.215.949.327 1.455.327.506 0 1.005-.112 1.456-.327 6.435-2.7 12.875-5.39 19.319-8.07 3.408-1.412 6.819-2.818 10.234-4.216a14.2 14.2 0 011.845-.474c-.354 1.103-1.183 1.324-1.774 1.6-4.52 1.899-9.051 3.753-13.57 5.64a3087.995 3087.995 0 00-14.457 6.105 8.186 8.186 0 00-.864.463c1.183 1.104 44.957 19.693 48.613 20.753l.556-.96c.218.041.43.112.627.209.615.497 1.183 1.027 1.822 1.512a18.513 18.513 0 005.182 2.947c2.709.994 5.335 2.208 7.986 3.312a4.07 4.07 0 001.783.372 4.063 4.063 0 001.766-.438c1.845-.795 3.738-1.502 5.631-2.208a6.048 6.048 0 012.13-.397c-.675 1.457-2.201 1.644-3.455 2.207s-2.709 1.104-4.519 1.822c1.703.783 3.04 1.346 4.306 2.009 1.266.662 2.745.64 3.549 1.832l-.189.442a20.067 20.067 0 01-2.165-.608c-1.81-.717-3.608-1.457-5.359-2.285a4.286 4.286 0 00-2.577-.416 4.13 4.13 0 00-2.309 1.145c.78.762 1.455 1.512 2.236 2.208 2.058 1.744 4.188 3.4 6.235 5.155 2.508 2.13 4.921 4.349 7.417 6.49 4.2 3.587 8.424 7.142 12.648 10.707 1.656 1.402 3.312 2.793 4.957 4.217a709.09 709.09 0 017.098 6.248c.306.37.747.624 1.24.712a2.173 2.173 0 001.434-.238c5.17-2.207 10.387-4.415 15.593-6.546.748-.267 1.51-.5 2.283-.695.095 1.181-.698 1.303-1.242 1.545-3.265 1.391-6.554 2.749-9.843 4.129l-14.469 6.082c-.545.232-1.041.54-1.834.96l2.532 2.418c-1.526.353-2.142-.552-2.922-1.027a2.322 2.322 0 00-1.471-.581 2.34 2.34 0 00-1.511.482c-.275.13-.484.355-.583.627-.1.273-.081.57.051.83.248.585.461 1.181.745 1.755a62.855 62.855 0 014.236 12.462 173.955 173.955 0 013.785 18.843 95.78 95.78 0 01.97 19.295 183.178 183.178 0 01-6.329 38.38 127.826 127.826 0 01-5.773 17.661c-1.183 2.694-2.449 5.354-3.739 8.003a924.113 924.113 0 01-5.371 10.851 7.32 7.32 0 00-.32.894l-.082-.078zM164.113 106.053c.982.497 1.597.839 2.236 1.104 5.04 2.362 10.08 4.702 15.108 7.076.674.309 1.573.452 1.774 1.424-1.029.507-1.774-.1-2.508-.453-5.619-2.649-11.239-5.342-16.859-8.014-.638-.298-1.301-.53-2.082-.85-.331.806-.591 1.38-.804 1.976-1.665 4.68-3.325 9.364-4.981 14.052-2.733 7.727-5.454 15.52-8.222 23.258-1.633 4.57-3.349 9.106-4.993 13.665-.26.718-.876 1.435-.343 2.34 1.81-.331 2.662-2.207 4.732-2.505-1.408 1.975-3.857 2.594-4.874 4.614.43.344.885.661 1.36.949 1.976.971 3.976 1.932 5.975 2.87 2.189 1.015 2.366 1.104 3.49-.927 4.567-8.191 9.051-16.436 13.546-24.66 2.781-5.078 5.513-10.166 8.282-15.244.083-.165.331-.254.497-.386-6.401 13.776-13.547 27.143-21.059 40.753.769-.221 1.183-.287 1.502-.43 2.236-.905 4.484-1.811 6.709-2.727 10.115-4.172 20.242-8.312 30.346-12.506 7.843-3.223 15.522-6.535 23.223-9.78 8.566-3.665 17.108-7.385 25.685-11.038 4.732-2.009 9.394-3.963 14.102-5.917 7.442-3.069 14.907-6.104 22.349-9.195 5.821-2.417 11.629-4.879 17.438-7.329a6342.699 6342.699 0 0020.397-8.6c.408-.214.803-.45 1.183-.706-1.101-2.638-2.307-4.945-4.91-6.623-6.164-3.918-12.15-8.08-18.208-12.142-.461-.309-.851-.695-1.277-1.037a1.78 1.78 0 011.396.22c1.833 1.193 3.655 2.407 5.477 3.61 6.949 4.54 13.894 9.08 20.834 13.621a2.264 2.264 0 002.449.177c1.881-.872 3.822-1.645 5.715-2.484.434-.24.849-.51 1.242-.806-.639-.618-1.112-1.104-1.656-1.59-2.213-1.865-4.472-3.686-6.673-5.518a2690.491 2690.491 0 01-15.214-13.147c-5.573-4.802-11.169-9.592-16.694-14.45a2.816 2.816 0 00-1.595-.902 2.955 2.955 0 00-1.847.24c-2.367.994-4.887 1.888-7.324 2.849-6.814 2.67-13.617 5.375-20.432 8.057a8225.971 8225.971 0 00-25.897 10.134c-.814.376-1.604.796-2.366 1.258 1.703.872 2.993 1.523 4.282 2.208 1.29.684 2.58 1.39 3.893 2.075 1.313.684 2.662 1.27 3.916 2.009 1.254.74 2.792.883 3.691 2.296a2.667 2.667 0 01-1.178.021 2.572 2.572 0 01-1.058-.485 547.212 547.212 0 01-13.144-6.844 4.108 4.108 0 00-3.821-.265 1625.452 1625.452 0 01-21.935 8.666 15366.496 15366.496 0 01-36.06 14.051c-1.455.574-2.899 1.215-4.815 1.987zM30.235 109.63c.21.203.435.391.675.563l22.892 11.17c9.56 4.651 19.123 9.298 28.69 13.942 9.82 4.735 19.663 9.427 29.494 14.151l20.113 9.648c2.117 1.015 4.211 2.064 6.341 3.035 1.313.585 1.573.453 2.118-.817.449-1.104.887-2.13 1.277-3.201a6870.837 6870.837 0 0010.435-28.766c2.54-7.072 5.072-14.155 7.596-21.249.851-2.373.84-2.373-1.456-3.466a130897.42 130897.42 0 00-33.422-15.762 2977.031 2977.031 0 00-19.106-8.92c-2.225-1.037-2.367-.97-3.55 1.105-.863 1.578-1.691 3.179-2.579 4.735-4.63 8.168-9.263 16.329-13.9 24.483-2.947 5.188-5.916 10.409-8.803 15.597a21.123 21.123 0 01-1.266 1.821l-.473-.275c4.495-8.103 8.837-16.293 13.522-24.285 3.36-5.729 13.014-23.103 13.334-24.814-2.272-.784-3.916 1.214-5.916 1.402l-.165-.375 4.2-2.076c-2.982-1.435-5.608-2.726-8.282-3.984l-28.69-13.556c-2.295-1.103-4.614-2.141-6.909-3.234a1.637 1.637 0 00-.6-.236 1.685 1.685 0 00-.65.01 1.627 1.627 0 00-.592.255 1.505 1.505 0 00-.43.457c-2.247 2.704-4.554 5.354-6.814 8.036a4409.687 4409.687 0 00-14.126 16.668c-5.347 6.292-10.73 12.55-16.09 18.842-.532.618-.994 1.292-1.644 2.153 4.4 1.953 8.281 4.194 12.481 5.971l1.74-2.042.366 1.358c.805-.695.923-1.865 2.26-2.042l-2.07 3.698zm139.663-60.203c.418.348.861.669 1.325.96 5.005 2.55 10.009 5.067 15.025 7.605l16.09 8.147c4.283 2.207 8.589 4.305 12.848 6.546a3.54 3.54 0 003.242.144 1496.355 1496.355 0 0117.829-6.966l29.861-11.602c.426-.165.793-.419 1.503-.794-.864-.387-1.444-.663-2.035-.905l-21.864-8.831a11007.04 11007.04 0 01-29.092-11.833 3.906 3.906 0 00-1.65-.364c-.573 0-1.138.125-1.65.364-3.751 1.622-7.548 3.157-11.322 4.724l-28.797 12.065c-.437.223-.86.47-1.266.74h-.047zm-3.49.121l.083-.552c-.604-.353-1.183-.74-1.822-1.104-2.023-1.026-4.058-2.03-6.081-3.068l-15.771-8.102c-4.401-2.208-8.802-4.493-13.179-6.778-4.378-2.285-3.431-2.274-8.282-.53-8.849 3.19-17.651 6.524-26.489 9.758-6.07 2.208-12.15 4.415-18.22 6.623-.721.265-1.407.585-2.507 1.104 1.29.618 2.117 1.026 2.957 1.413a936.617 936.617 0 009.725 4.349c6.803 3.002 13.629 5.972 20.432 8.985 4.338 1.935 8.676 3.89 13.014 5.861a3.779 3.779 0 003.289.243 2039.976 2039.976 0 0117.746-7.539c5.915-2.461 11.772-4.89 17.652-7.351a410.568 410.568 0 017.524-3.312h-.071zm-42.792 19.185c.875.452 1.503.805 2.153 1.104 5.916 2.627 11.76 5.22 17.616 7.859 8.802 3.952 17.616 7.881 26.359 11.932.82.43 1.74.668 2.68.69a6.122 6.122 0 002.715-.557c3.833-1.612 7.749-3.058 11.63-4.57l27.4-10.696a5.42 5.42 0 00.875-.596c-.473-.31-.769-.552-1.112-.729a1221.69 1221.69 0 00-10.647-5.519c-4.993-2.55-10.009-5.067-15.002-7.627a2274.549 2274.549 0 01-17.959-9.284 3.897 3.897 0 00-1.812-.505 3.925 3.925 0 00-1.844.395c-5.312 2.207-10.647 4.415-15.959 6.69l-25.792 10.806c-.366.121-.698.309-1.301.607zm87.548-38.027c-1.065-.508-1.751-.883-2.484-1.181l-19.971-8.091c-6.649-2.694-13.321-5.365-19.958-8.103a4.093 4.093 0 00-1.645-.343c-.569 0-1.13.117-1.644.343-4.839 1.822-9.725 3.555-14.588 5.332l-22.549 8.256a13.07 13.07 0 00-1.444.773c.746.453 1.183.795 1.763 1.104l11.831 5.983c8.814 4.47 17.64 8.919 26.43 13.411a2.929 2.929 0 002.697.188c2.367-1.004 4.733-1.943 7.099-2.936 4.945-2.086 9.867-4.217 14.824-6.292 5.75-2.406 11.523-4.768 17.285-7.164.627-.375 1.301-.784 2.342-1.28h.012zm-48.932 74.453c1.916-.254 62.94-24.152 64.62-25.267-.722-.452-1.349-.894-2.035-1.247-2.142-1.104-4.342-2.108-6.448-3.311a2.805 2.805 0 00-2.851-.154c-.432.187-.874.353-1.325.496l-36.451 14.151c-1.124.442-2.201.982-3.336 1.402-2.071.75-4.165 1.446-6.259 2.141-.118 0-.319-.165-.769-.408l3.336-1.788c-.674-.332-1.076-.541-1.502-.729L144.58 79.528a5406.57 5406.57 0 01-21.295-9.548 3.53 3.53 0 00-1.55-.356 3.53 3.53 0 00-1.55.356c-4.732 1.954-9.465 3.874-14.197 5.84-.665.333-1.309.701-1.928 1.103.224 1.236 1.183 1.424 1.94 1.777a15094.06 15094.06 0 0024.667 11.69 4740.838 4740.838 0 0027.779 13.147c.757.353 1.562.607 2.189.85 1.254-.795.792-2.385 2.543-3.036l-.946 3.808zm124.401-48.568c-.13-.32-.142-.53-.272-.652-3.278-3.112-6.46-6.347-11.086-7.793a9.661 9.661 0 01-.923-.397c-7.962-3.378-15.924-6.778-23.886-10.144-7.962-3.367-16.208-6.789-24.289-10.244a4.36 4.36 0 00-3.691-.122c-2.094.917-4.2 1.789-6.282 2.705-.443.234-.867.5-1.266.795.497.232.781.386 1.077.508 4.235 1.7 8.482 3.377 12.706 5.088l25.554 10.398c4.532 1.844 9.11 3.62 13.63 5.52.548.263 1.157.4 1.774.4a4.11 4.11 0 001.775-.4c1.1-.486 2.236-.928 3.372-1.336.659-.207 1.331-.38 2.011-.519l.248.486a8.664 8.664 0 01-1.337.894c-.852.397-1.774.64-2.602 1.104a26.98 26.98 0 00-2.426 1.611c-1.183-.497-2.532.232-3.892.773-4.815 1.888-9.619 3.797-14.446 5.674l-31.943 12.374c-.602.297-1.187.625-1.751.982.899.563 1.467.982 2.106 1.314 2.011 1.037 4.106 1.953 6.069 3.08a3.763 3.763 0 003.621.144c5.678-2.275 11.381-4.416 17.072-6.69l36.202-14.218c.934-.441 1.881-.883 2.875-1.335zM169.224 12.084c.757.397 1.183.684 1.668.883l21.461 8.698 18.669 7.55a3.784 3.784 0 003.111.365c2.367-1.005 4.733-1.954 7.099-2.97.319-.132.521-.474.864-.805-.438-.243-.71-.42-1.018-.552l-14.646-6.17a21552.775 21552.775 0 01-30.583-12.938 3.691 3.691 0 00-2.91-.055l-51.027 18.004c-.28.13-.549.282-.804.452 2.094 1.645 4.034 2.396 6.755 1.37 11.689-4.416 23.461-8.666 35.209-12.971a893.404 893.404 0 0111.014-3.963c.311-.21.686-.324 1.071-.324.385 0 .759.113 1.071.324-2.177 1.446-4.674 1.777-7.004 3.135v-.033zm115.705 40.124l-.331.475c.757.706 1.49 1.435 2.283 2.108 1.443 1.226 1.834 1.226 3.94-.088l-5.892-2.495zm35.149 45.258a5.984 5.984 0 00-2.922-1.712c1.053 2.782 1.408 2.97 2.922 1.756v-.044z" fill="#6895FF"/><path d="M307.822 228.788c-1.929 2.981-3.751 6.016-5.809 8.919-3.774 5.321-7.69 10.575-11.571 15.84-.39.53-.721 1.237-1.668 1.27-.473-.762.13-1.203.485-1.689 3.549-4.802 7.099-9.559 10.648-14.35a107.644 107.644 0 0010.281-17.661c2.366-5.067 4.732-10.078 6.873-15.211a92.926 92.926 0 003.68-11.248c1.644-6.204 3.206-12.429 4.472-18.71.994-4.956 1.597-10.001 2.189-15.023.426-3.709.638-7.44.769-11.16a99.056 99.056 0 00-1.74-20.388 135.283 135.283 0 00-5.099-21.094c-.911-2.638-2.011-5.21-3.111-8.058-1.656.618-3.088 1.104-4.472 1.7-7.726 3.311-15.38 6.623-23.165 9.813a6505.87 6505.87 0 01-28.394 11.778c-2.472 1.027-4.933 2.108-7.441 3.069-1.586.596-2.449 1.479-2.236 3.146.094.684 0 1.39 0 2.086a81.03 81.03 0 01-1.444 15.288 131.16 131.16 0 01-5.324 21.392c-1.478 4.415-3.407 8.831-5.3 13.125-1.42 3.223-2.969 6.391-4.732 9.471-2.236 3.973-4.59 7.903-7.099 11.722a168.995 168.995 0 01-14.386 18.379 84.902 84.902 0 01-11.677 11.038c-3.289 2.539-6.471 5.222-9.926 7.551a139.47 139.47 0 01-12.41 7.583 104.595 104.595 0 01-20.787 8.61c-1.692.475-3.384.927-5.087 1.358-.616.143-1.278.176-1.917.264l-.142-.386a4.493 4.493 0 011.053-.574 106.097 106.097 0 0016.67-5.519c2.531-1.104 4.945-2.362 7.406-3.576 1.857-.917 3.679-1.877 5.537-2.804a81.912 81.912 0 0010.458-6.888 77.614 77.614 0 0012.008-9.935c3.751-3.995 7.442-8.035 10.944-12.208a156.17 156.17 0 0015.794-22.242c2.248-3.875 3.951-8.036 5.809-12.142 1.479-3.312 2.815-6.623 4.235-9.869.096-.236.275-.435.509-.563a19.711 19.711 0 01-1.692 5.244c-.331.816-.509 1.689-.757 2.527l-.71 1.171.343.132.367-1.303c.395-.583.755-1.188 1.076-1.81a120.74 120.74 0 006.306-18.831 107.608 107.608 0 003.242-17.949c.237-3.145.497-6.291.733-9.448.024-.25.024-.501 0-.751-.165-1.402-.627-1.7-1.987-1.104a943.528 943.528 0 00-11.334 4.714c-9.133 3.874-18.255 7.726-27.4 11.656-7.659 3.253-15.317 6.494-22.976 9.725-8.222 3.455-16.48 6.855-24.726 10.277l-9.465 3.951c.364.335.76.638 1.183.905a377.22 377.22 0 007.821 3.676 10.353 10.353 0 013.348 2.594c-1.574.353-2.485-.563-3.549-.993-1.065-.431-2.13-1.104-3.207-1.645-1.076-.541-2.07-.96-3.087-1.457-1.018-.497-2.142-1.049-3.301-1.612l-2 2.274-.508-.243.65-2.461c-3.632.927-6.779 2.704-10.375 3.543.639-.938.639-.927 2.662-1.766l2.957-1.269 3.55-1.502a75.081 75.081 0 00-8.945-4.316c-.792 1.965-1.561 3.764-2.247 5.597-1.018 2.748-1.976 5.519-2.982 8.279-.248.673-.378 1.501-1.455 1.666-.615-.706-.142-1.357.071-1.965 1.183-3.179 2.366-6.336 3.549-9.515.256-.614.333-1.28.225-1.931-1.514 1.225-3.1 2.373-4.519 3.687-4.922 4.525-9.938 8.996-14.659 13.72-3.786 3.786-7.299 7.815-10.742 11.877a169.978 169.978 0 00-15.534 20.874 112.79 112.79 0 00-8.968 17.253c-2.673 6.777-5.5 13.511-6.85 20.653-.58 3.035-.84 6.137-1.183 9.217a41.083 41.083 0 00-.367 6.81c.308 4.416.166 8.831 1.018 13.246.852 4.416 1.396 8.831 2.224 13.246.45 2.429 1.183 4.802 1.787 7.208a2.402 2.402 0 01-.154 2.307 6.577 6.577 0 01-.888-1.324 42.977 42.977 0 01-1.42-4.946 621.275 621.275 0 01-2.697-15.343 88.324 88.324 0 01-1.183-18.346 68.102 68.102 0 013.869-20.641c2.035-5.519 4.022-11.16 6.436-16.558a103.111 103.111 0 0112.718-21.569c3.135-4.051 6.105-8.223 9.465-12.142 3.549-4.261 7.429-8.367 11.322-12.418 3.265-3.378 6.661-6.623 10.174-9.824 3.206-2.903 6.649-5.519 9.985-8.356.485-.397.935-.85 1.586-1.457-1.645-.872-3.017-1.656-4.449-2.34-9.547-4.537-19.142-9.007-28.666-13.599-11.144-5.376-22.23-10.873-33.362-16.293a3562.178 3562.178 0 00-22.952-11.038c-6.01-2.914-12.02-5.862-18.042-8.831-2.366-1.104-2.153-.949-3.727.839-3.987 4.526-5.383 10.122-7.583 15.365a230.45 230.45 0 00-10.648 33.281 240.35 240.35 0 00-5.135 26.128c-.721 5.32-1.183 10.685-1.798 16.016a126.253 126.253 0 00-.805 15.531c0 1.766-.378 3.532-.319 5.299.166 4.923.497 9.835.722 14.758a135.53 135.53 0 002.898 21.249 81.213 81.213 0 007.335 21.27c2.056 4.288 4.948 8.18 8.53 11.48a2.843 2.843 0 011.183 1.866c-.91.176-1.325-.486-1.845-.916a34.421 34.421 0 01-6.838-8.235 67.574 67.574 0 01-7.655-17.728 124.803 124.803 0 01-4.318-22.44c-.533-5.211-.757-10.465-.911-15.708-.154-5-.166-10.001 0-15.001.165-5 .591-10.222 1.124-15.31.544-5.288 1.183-10.575 2.082-15.807 1.183-6.877 2.508-13.721 4.034-20.531a222.848 222.848 0 019.903-32.486c2.366-6.005 5.146-11.844 7.737-17.761l1.467-3.311c-.591-.365-1.065-.707-1.573-.961-3.065-1.512-6.152-2.958-9.181-4.514a3.302 3.302 0 00-1.508-.598 3.407 3.407 0 00-1.627.178c-.52-.85-.982-1.578-1.538-2.461.343 0 .627-.078.816 0 1.088.474 1.74 0 2.366-.773 3.55-4.184 7.099-8.334 10.648-12.484l23.472-27.442c1.467-1.722 2.91-3.455 4.401-5.243-1.408-1.402-3.549-1.556-5.11-3.234a7.95 7.95 0 011.596.132c.746.287 1.468.651 2.201.994 2.26 1.037 2.366.993 4.01-.928a285.685 285.685 0 013.42-4.006c.367-.42.71-.972 1.763-.563-1.645 2.505-4 4.415-5.62 7.075.71.364 1.337.707 1.987 1.005 5.916 2.76 11.831 5.519 17.652 8.256 7.998 3.764 16.007 7.517 23.946 11.38a4.977 4.977 0 002.275.627c.803.025 1.6-.141 2.315-.483a435.549 435.549 0 0111.263-4.867c.864-.376 1.739-.718 2.591-1.104.651-.276 1.289-.596 2.106-.983a4.935 4.935 0 00-.769-.64 4031.924 4031.924 0 00-15.25-6.789L74.932 48.4a5.826 5.826 0 00-2.668-.76 5.872 5.872 0 00-2.727.55 40.613 40.613 0 01-4.98 1.678c.402-1.104 1.183-1.104 1.703-1.402 1.597-.772 3.55-.894 4.733-2.428a.535.535 0 01.355-.166c4.235-.276 7.82-2.362 11.653-3.697 7.95-2.782 15.841-5.685 23.732-8.566 5.49-2.01 10.956-4.096 16.433-6.149.116-.064.22-.146.308-.242a4.915 4.915 0 00-2.645-1.802 5.25 5.25 0 00-3.27.146L81.297 38.499a4605.843 4605.843 0 01-20.952 7.351c-.65.221-1.337.353-2 .53l-.2-.464c.468-.296.958-.562 1.466-.794 5.81-2.12 11.618-4.25 17.45-6.336 8.424-3.003 16.883-5.95 25.319-8.93l13.51-4.79c.557-.2 1.113-.42 1.964-.752l-2.366-1.953a6.79 6.79 0 011.526.463 4.976 4.976 0 002.288.678 5.02 5.02 0 002.35-.457c4.235-1.545 8.495-3.024 12.754-4.515l30.665-10.784a494.05 494.05 0 005.703-2.042 16.38 16.38 0 001.573-.795l-3.111-1.777a3.337 3.337 0 011.609-.226c.548.058 1.071.25 1.514.557a4.99 4.99 0 002.315.603 5.003 5.003 0 002.334-.537c1.243-.496 2.497-.982 3.786-1.39a5.296 5.296 0 012.366-.177c-1.774 1.6-4.318 1.755-6.613 3.113 1.822.794 3.313 1.457 4.827 2.097 5.442 2.303 10.88 4.6 16.315 6.888l18.479 7.793a309.07 309.07 0 016.661 2.848c.451.215.949.327 1.455.327.506 0 1.005-.112 1.456-.327 6.435-2.7 12.875-5.39 19.319-8.07 3.408-1.412 6.819-2.818 10.234-4.216a14.2 14.2 0 011.845-.474c-.354 1.103-1.183 1.324-1.774 1.6-4.52 1.899-9.051 3.753-13.57 5.64a3087.995 3087.995 0 00-14.457 6.105 8.186 8.186 0 00-.864.463c1.183 1.104 44.957 19.693 48.613 20.753l.556-.96c.218.041.43.112.627.209.615.497 1.183 1.027 1.822 1.512a18.513 18.513 0 005.182 2.947c2.709.994 5.335 2.208 7.986 3.312a4.07 4.07 0 001.783.372 4.063 4.063 0 001.766-.438c1.845-.795 3.738-1.502 5.631-2.208a6.048 6.048 0 012.13-.397c-.675 1.457-2.201 1.644-3.455 2.207s-2.709 1.104-4.519 1.822c1.703.783 3.04 1.346 4.306 2.009 1.266.662 2.745.64 3.549 1.832l-.189.442a20.067 20.067 0 01-2.165-.608c-1.81-.717-3.608-1.457-5.359-2.285a4.286 4.286 0 00-2.577-.416 4.13 4.13 0 00-2.309 1.145c.78.762 1.455 1.512 2.236 2.208 2.058 1.744 4.188 3.4 6.235 5.155 2.508 2.13 4.921 4.349 7.417 6.49 4.2 3.587 8.424 7.142 12.648 10.707 1.656 1.402 3.312 2.793 4.957 4.217a709.09 709.09 0 017.098 6.248c.306.37.747.624 1.24.712a2.173 2.173 0 001.434-.238c5.17-2.207 10.387-4.415 15.593-6.546.748-.267 1.51-.5 2.283-.695.095 1.181-.698 1.303-1.242 1.545-3.265 1.391-6.554 2.749-9.843 4.129l-14.469 6.082c-.545.232-1.041.54-1.834.96l2.532 2.418c-1.526.353-2.142-.552-2.922-1.027a2.322 2.322 0 00-1.471-.581 2.34 2.34 0 00-1.511.482c-.275.13-.484.355-.583.627-.1.273-.081.57.051.83.248.585.461 1.181.745 1.755a62.855 62.855 0 014.236 12.462 173.955 173.955 0 013.785 18.843 95.78 95.78 0 01.97 19.295 183.178 183.178 0 01-6.329 38.38 127.826 127.826 0 01-5.773 17.661c-1.183 2.694-2.449 5.354-3.739 8.003a924.113 924.113 0 01-5.371 10.851 7.32 7.32 0 00-.32.894l-.082-.078zM164.113 106.053c.982.497 1.597.839 2.236 1.104 5.04 2.362 10.08 4.702 15.108 7.076.674.309 1.573.452 1.774 1.424-1.029.507-1.774-.1-2.508-.453-5.619-2.649-11.239-5.342-16.859-8.014-.638-.298-1.301-.53-2.082-.85-.331.806-.591 1.38-.804 1.976-1.665 4.68-3.325 9.364-4.981 14.052-2.733 7.727-5.454 15.52-8.222 23.258-1.633 4.57-3.349 9.106-4.993 13.665-.26.718-.876 1.435-.343 2.34 1.81-.331 2.662-2.207 4.732-2.505-1.408 1.975-3.857 2.594-4.874 4.614.43.344.885.661 1.36.949 1.976.971 3.976 1.932 5.975 2.87 2.189 1.015 2.366 1.104 3.49-.927 4.567-8.191 9.051-16.436 13.546-24.66 2.781-5.078 5.513-10.166 8.282-15.244.083-.165.331-.254.497-.386-6.401 13.776-13.547 27.143-21.059 40.753.769-.221 1.183-.287 1.502-.43 2.236-.905 4.484-1.811 6.709-2.727 10.115-4.172 20.242-8.312 30.346-12.506 7.843-3.223 15.522-6.535 23.223-9.78 8.566-3.665 17.108-7.385 25.685-11.038 4.732-2.009 9.394-3.963 14.102-5.917 7.442-3.069 14.907-6.104 22.349-9.195 5.821-2.417 11.629-4.879 17.438-7.329a6342.699 6342.699 0 0020.397-8.6c.408-.214.803-.45 1.183-.706-1.101-2.638-2.307-4.945-4.91-6.623-6.164-3.918-12.15-8.08-18.208-12.142-.461-.309-.851-.695-1.277-1.037a1.78 1.78 0 011.396.22c1.833 1.193 3.655 2.407 5.477 3.61 6.949 4.54 13.894 9.08 20.834 13.621a2.264 2.264 0 002.449.177c1.881-.872 3.822-1.645 5.715-2.484.434-.24.849-.51 1.242-.806-.639-.618-1.112-1.104-1.656-1.59-2.213-1.865-4.472-3.686-6.673-5.518a2690.491 2690.491 0 01-15.214-13.147c-5.573-4.802-11.169-9.592-16.694-14.45a2.816 2.816 0 00-1.595-.902 2.955 2.955 0 00-1.847.24c-2.367.994-4.887 1.888-7.324 2.849-6.814 2.67-13.617 5.375-20.432 8.057a8225.971 8225.971 0 00-25.897 10.134c-.814.376-1.604.796-2.366 1.258 1.703.872 2.993 1.523 4.282 2.208 1.29.684 2.58 1.39 3.893 2.075 1.313.684 2.662 1.27 3.916 2.009 1.254.74 2.792.883 3.691 2.296a2.667 2.667 0 01-1.178.021 2.572 2.572 0 01-1.058-.485 547.212 547.212 0 01-13.144-6.844 4.108 4.108 0 00-3.821-.265 1625.452 1625.452 0 01-21.935 8.666 15366.496 15366.496 0 01-36.06 14.051c-1.455.574-2.899 1.215-4.815 1.987zM30.235 109.63c.21.203.435.391.675.563l22.892 11.17c9.56 4.651 19.123 9.298 28.69 13.942 9.82 4.735 19.663 9.427 29.494 14.151l20.113 9.648c2.117 1.015 4.211 2.064 6.341 3.035 1.313.585 1.573.453 2.118-.817.449-1.104.887-2.13 1.277-3.201a6870.837 6870.837 0 0010.435-28.766c2.54-7.072 5.072-14.155 7.596-21.249.851-2.373.84-2.373-1.456-3.466a130897.42 130897.42 0 00-33.422-15.762 2977.031 2977.031 0 00-19.106-8.92c-2.225-1.037-2.367-.97-3.55 1.105-.863 1.578-1.691 3.179-2.579 4.735-4.63 8.168-9.263 16.329-13.9 24.483-2.947 5.188-5.916 10.409-8.803 15.597a21.123 21.123 0 01-1.266 1.821l-.473-.275c4.495-8.103 8.837-16.293 13.522-24.285 3.36-5.729 13.014-23.103 13.334-24.814-2.272-.784-3.916 1.214-5.916 1.402l-.165-.375 4.2-2.076c-2.982-1.435-5.608-2.726-8.282-3.984l-28.69-13.556c-2.295-1.103-4.614-2.141-6.909-3.234a1.637 1.637 0 00-.6-.236 1.685 1.685 0 00-.65.01 1.627 1.627 0 00-.592.255 1.505 1.505 0 00-.43.457c-2.247 2.704-4.554 5.354-6.814 8.036a4409.687 4409.687 0 00-14.126 16.668c-5.347 6.292-10.73 12.55-16.09 18.842-.532.618-.994 1.292-1.644 2.153 4.4 1.953 8.281 4.194 12.481 5.971l1.74-2.042.366 1.358c.805-.695.923-1.865 2.26-2.042l-2.07 3.698zm139.663-60.203c.418.348.861.669 1.325.96 5.005 2.55 10.009 5.067 15.025 7.605l16.09 8.147c4.283 2.207 8.589 4.305 12.848 6.546a3.54 3.54 0 003.242.144 1496.355 1496.355 0 0117.829-6.966l29.861-11.602c.426-.165.793-.419 1.503-.794-.864-.387-1.444-.663-2.035-.905l-21.864-8.831a11007.04 11007.04 0 01-29.092-11.833 3.906 3.906 0 00-1.65-.364c-.573 0-1.138.125-1.65.364-3.751 1.622-7.548 3.157-11.322 4.724l-28.797 12.065c-.437.223-.86.47-1.266.74h-.047zm-3.49.121l.083-.552c-.604-.353-1.183-.74-1.822-1.104-2.023-1.026-4.058-2.03-6.081-3.068l-15.771-8.102c-4.401-2.208-8.802-4.493-13.179-6.778-4.378-2.285-3.431-2.274-8.282-.53-8.849 3.19-17.651 6.524-26.489 9.758-6.07 2.208-12.15 4.415-18.22 6.623-.721.265-1.407.585-2.507 1.104 1.29.618 2.117 1.026 2.957 1.413a936.617 936.617 0 009.725 4.349c6.803 3.002 13.629 5.972 20.432 8.985 4.338 1.935 8.676 3.89 13.014 5.861a3.779 3.779 0 003.289.243 2039.976 2039.976 0 0117.746-7.539c5.915-2.461 11.772-4.89 17.652-7.351a410.568 410.568 0 017.524-3.312h-.071zm-42.792 19.185c.875.452 1.503.805 2.153 1.104 5.916 2.627 11.76 5.22 17.616 7.859 8.802 3.952 17.616 7.881 26.359 11.932.82.43 1.74.668 2.68.69a6.122 6.122 0 002.715-.557c3.833-1.612 7.749-3.058 11.63-4.57l27.4-10.696a5.42 5.42 0 00.875-.596c-.473-.31-.769-.552-1.112-.729a1221.69 1221.69 0 00-10.647-5.519c-4.993-2.55-10.009-5.067-15.002-7.627a2274.549 2274.549 0 01-17.959-9.284 3.897 3.897 0 00-1.812-.505 3.925 3.925 0 00-1.844.395c-5.312 2.207-10.647 4.415-15.959 6.69l-25.792 10.806c-.366.121-.698.309-1.301.607zm87.548-38.027c-1.065-.508-1.751-.883-2.484-1.181l-19.971-8.091c-6.649-2.694-13.321-5.365-19.958-8.103a4.093 4.093 0 00-1.645-.343c-.569 0-1.13.117-1.644.343-4.839 1.822-9.725 3.555-14.588 5.332l-22.549 8.256a13.07 13.07 0 00-1.444.773c.746.453 1.183.795 1.763 1.104l11.831 5.983c8.814 4.47 17.64 8.919 26.43 13.411a2.929 2.929 0 002.697.188c2.367-1.004 4.733-1.943 7.099-2.936 4.945-2.086 9.867-4.217 14.824-6.292 5.75-2.406 11.523-4.768 17.285-7.164.627-.375 1.301-.784 2.342-1.28h.012zm-48.932 74.453c1.916-.254 62.94-24.152 64.62-25.267-.722-.452-1.349-.894-2.035-1.247-2.142-1.104-4.342-2.108-6.448-3.311a2.805 2.805 0 00-2.851-.154c-.432.187-.874.353-1.325.496l-36.451 14.151c-1.124.442-2.201.982-3.336 1.402-2.071.75-4.165 1.446-6.259 2.141-.118 0-.319-.165-.769-.408l3.336-1.788c-.674-.332-1.076-.541-1.502-.729L144.58 79.528a5406.57 5406.57 0 01-21.295-9.548 3.53 3.53 0 00-1.55-.356 3.53 3.53 0 00-1.55.356c-4.732 1.954-9.465 3.874-14.197 5.84-.665.333-1.309.701-1.928 1.103.224 1.236 1.183 1.424 1.94 1.777a15094.06 15094.06 0 0024.667 11.69 4740.838 4740.838 0 0027.779 13.147c.757.353 1.562.607 2.189.85 1.254-.795.792-2.385 2.543-3.036l-.946 3.808zm124.401-48.568c-.13-.32-.142-.53-.272-.652-3.278-3.112-6.46-6.347-11.086-7.793a9.661 9.661 0 01-.923-.397c-7.962-3.378-15.924-6.778-23.886-10.144-7.962-3.367-16.208-6.789-24.289-10.244a4.36 4.36 0 00-3.691-.122c-2.094.917-4.2 1.789-6.282 2.705-.443.234-.867.5-1.266.795.497.232.781.386 1.077.508 4.235 1.7 8.482 3.377 12.706 5.088l25.554 10.398c4.532 1.844 9.11 3.62 13.63 5.52.548.263 1.157.4 1.774.4a4.11 4.11 0 001.775-.4c1.1-.486 2.236-.928 3.372-1.336.659-.207 1.331-.38 2.011-.519l.248.486a8.664 8.664 0 01-1.337.894c-.852.397-1.774.64-2.602 1.104a26.98 26.98 0 00-2.426 1.611c-1.183-.497-2.532.232-3.892.773-4.815 1.888-9.619 3.797-14.446 5.674l-31.943 12.374c-.602.297-1.187.625-1.751.982.899.563 1.467.982 2.106 1.314 2.011 1.037 4.106 1.953 6.069 3.08a3.763 3.763 0 003.621.144c5.678-2.275 11.381-4.416 17.072-6.69l36.202-14.218c.934-.441 1.881-.883 2.875-1.335v0zM169.224 12.084c.757.397 1.183.684 1.668.883l21.461 8.698 18.669 7.55a3.784 3.784 0 003.111.365c2.367-1.005 4.733-1.954 7.099-2.97.319-.132.521-.474.864-.805-.438-.243-.71-.42-1.018-.552l-14.646-6.17a21552.775 21552.775 0 01-30.583-12.938 3.691 3.691 0 00-2.91-.055l-51.027 18.004c-.28.13-.549.282-.804.452 2.094 1.645 4.034 2.396 6.755 1.37 11.689-4.416 23.461-8.666 35.209-12.971a893.404 893.404 0 0111.014-3.963c.311-.21.686-.324 1.071-.324.385 0 .759.113 1.071.324-2.177 1.446-4.674 1.777-7.004 3.135v-.033zm115.705 40.124l-.331.475c.757.706 1.49 1.435 2.283 2.108 1.443 1.226 1.834 1.226 3.94-.088l-5.892-2.495zm35.149 45.258a5.984 5.984 0 00-2.922-1.712c1.053 2.782 1.408 2.97 2.922 1.756v-.044z" stroke="#6895FF" stroke-width="2" mask="url(#a)"/><path d="M65.616 146.007l.315-.411-.422-.301-.249-.176-.301-.214-.293.225a9.02 9.02 0 00-1.253 1.169l-.008.01-.008.01c-.552.691-1.116 1.382-1.682 2.077-1.53 1.874-3.079 3.77-4.444 5.766a154.452 154.452 0 00-10.194 16.897h0l-.003.006c-7.023 13.978-11.985 28.78-14.751 44.002h0l-.002.008a280.917 280.917 0 00-2.37 18.079c-.495 4.948-.644 9.925-.792 14.882l-.015.485v.001c-.053 1.852.093 3.758.234 5.587.048.622.095 1.234.134 1.833.043.669.077 1.346.11 2.027.087 1.72.174 3.467.414 5.192a186.038 186.038 0 003.819 20.794v.002a114.93 114.93 0 0010.778 27.484l.007.013.008.013c.3.476.634.934.999 1.368l.238.285.342-.146.437-.188.397-.17-.11-.417c-.14-.53-.318-1.05-.532-1.557l-.004-.011-.005-.011c-.3-.627-.627-1.248-.948-1.858l-.245-.467a30.39 30.39 0 01-1.104-2.288v-.001c-.375-.886-.751-1.768-1.127-2.65-1.556-3.647-3.103-7.274-4.422-10.974a137.883 137.883 0 01-5.068-19.64v-.003a125.97 125.97 0 01-2.063-18.383h0v-.006c-.452-9.07-.101-18.16 1.05-27.176v-.004a185.862 185.862 0 015.097-26.221 160.854 160.854 0 017.277-20.842v-.001a133.896 133.896 0 019.617-18.529c1.856-2.92 3.884-5.75 5.919-8.59.56-.783 1.122-1.567 1.68-2.353.786-1.048 1.57-2.065 2.356-3.084.395-.512.79-1.025 1.187-1.543zM208.06 324.838l.376-.269c.139-.1.283-.206.43-.315.404-.299.835-.618 1.289-.88 2.748-1.603 5.502-3.19 8.253-4.775l3.686-2.125.25.433-.25-.433 8.292-4.794a5822.73 5822.73 0 0119.748-11.389l.002-.001c3.875-2.197 7.751-4.327 11.623-6.455l2.579-1.418c1.967-1.086 3.934-2.159 5.9-3.23 2.305-1.257 4.609-2.513 6.912-3.79l2.318-1.287c4.993-2.772 9.989-5.545 14.923-8.4l.001-.001c1.604-.926 3.169-1.917 4.735-2.92l.696-.446a183.74 183.74 0 014.024-2.534h.001a1892.155 1892.155 0 0117.491-10.434c2.586-1.528 5.218-2.988 7.833-4.423l.003-.002h0c.079-.043.152-.089.242-.146l.135-.085a2.74 2.74 0 01.523-.266c.206-.075.445-.121.711-.088.266.032.526.138.783.318l.271.19-.069.324c-.144.67-.552 1.07-.98 1.341a5.866 5.866 0 01-.618.329l-.079.037c-.167.079-.311.147-.444.222-1.597.926-3.2 1.831-4.8 2.733-2.522 1.423-5.035 2.841-7.495 4.326-2.806 1.695-5.597 3.429-8.39 5.164-3.987 2.478-7.981 4.96-12.035 7.335l-88.87 48.154zm0 0l.238.396m-.238-.396l.238.396m0 0l.272.452.187.311.353-.081c.491-.113.969-.27 1.426-.471l.02-.009m-2.258-.202l2.258.202m0 0l.018-.01m-.018.01l.018-.01m0 0c1.935-1.052 3.844-2.158 5.746-3.261h.002l.002-.002-5.75 3.263zm50.707-29.37c-2.639 1.446-5.279 2.892-7.905 4.36l20.736-10.857c-1.855 1.042-3.723 2.066-5.588 3.089l-2.117 1.163h-.001l-.241-.438c-1.626.898-3.255 1.79-4.884 2.683zm-155.354 49.848l-.451-.21-.212.45-.178.375-.198.419.402.229c.607.346 1.217.7 1.829 1.055 1.456.844 2.925 1.696 4.4 2.475.939.607 2.088.85 3.209.683a5.723 5.723 0 011.636.113l.012.003.013.002a68.184 68.184 0 0018.366.511v.001l.011-.002c4.885-.64 9.796-1.293 14.651-2.212l.002-.001a111.405 111.405 0 0017.82-5.02 138.529 138.529 0 0019.063-8.196l.002-.001c.083-.044.167-.081.27-.126l.139-.062c.157-.071.341-.16.517-.282.379-.264.687-.664.757-1.308l.061-.558-.561.003c-.441.003-.88.06-1.306.171l-.029.007-.029.012c-.831.329-1.641.711-2.45 1.092-.346.163-.693.326-1.04.485h0l-.012.006a152.737 152.737 0 01-29.775 10.881h0l-.007.002a97.945 97.945 0 01-24.548 3.294c-3-.044-5.949-.132-8.869-.449h0l-.011-.001a37.347 37.347 0 01-10.665-2.514c-.603-.257-1.183-.539-1.776-.827-.342-.166-.687-.334-1.043-.5zm81.42-10.655c-.209.407-.596.578-.96.739-.11.048-.217.095-.317.148l1.277-.887zm24.913-28.5h0l-17-9.327 17 9.327zm0 0l.009.004m-.009-.004l.009.004m0 0c.344.181.724.33 1.176.508.219.086.454.178.71.284l.191-.462m-2.077-.33l2.077.33m0 0l.489-.108a2.805 2.805 0 00-.674-1.286 3.044 3.044 0 00-1.191-.795 1268.521 1268.521 0 00-12.698-7.091h0c-8.235-4.518-16.477-9.03-24.728-13.533v-.001a5360.14 5360.14 0 00-13.879-7.539l-.002-.001c-1.805-.968-3.6-1.945-5.392-2.921-2.365-1.286-4.723-2.57-7.09-3.824-.723-.389-1.472-.744-2.206-1.092a99.95 99.95 0 01-1.121-.538l-.402-.198-.241.378-.225.353-.264.416.411.27c.66.434 1.312.878 1.967 1.324 1.47 1.001 2.959 2.015 4.59 2.953 1.189.683 2.431 1.289 3.661 1.882l.268.13c1.143.55 2.271 1.094 3.355 1.69l.001.001c12.098 6.623 24.193 13.246 36.284 19.869l19.087 9.661zm93.688-78.747l-.303.539 1.83 1.967c5.963 4.393 11.926 8.764 17.96 13.058l-.292.406.001.001c3.342 2.402 6.785 4.744 10.214 7.075 1.321.899 2.64 1.795 3.95 2.694a2.7 2.7 0 001.302.718 2.81 2.81 0 001.55-.078l.742-.255-.544-.565a17.285 17.285 0 00-1.718-1.557l-.013-.011-.014-.009c-3.099-2.131-6.2-4.249-9.301-6.366a2580.88 2580.88 0 01-11.52-7.895 124.42 124.42 0 01-3.745-2.74l-.226-.169a150.085 150.085 0 00-3.537-2.607l-.001-.001c-1.376-.97-2.802-1.899-4.221-2.825-.648-.422-1.295-.844-1.935-1.268l-.027-.041-.128-.06-.024-.011zM106.351 17.13l-.458.858c1.203 1.064 2.585 1.795 3.975 2.431.484.222.964.43 1.438.635.91.395 1.801.78 2.671 1.24l1.444.763-.77-1.44a2.778 2.778 0 00-1.138-1.132h0l-.006-.003-.233-.122a235.808 235.808 0 00-5.125-2.622l-.014-.006-.014-.006a13.276 13.276 0 00-1.77-.597z" fill="#6895FF" stroke="#6895FF"/><path d="M67.503 142.416l-.38-.295-.31.369-2.26 2.694.383.321.198.459c1.25-.54 2.265-1.475 2.863-2.65l.186-.368-.325-.254-.355-.276zm34.568-109.617l-.406.12.053.421.047.376.079.626.592-.22 1.243-.464.481-.18-.192-.475-.106-.265-.17-.423-.437.13-1.184.354zm2.352-15.476l1.694.615-1.135-1.4c-.179-.22-.428-.522-.778-.699-.388-.196-.835-.214-1.343-.015l-1.238.482 1.249.453 1.551.564zm-3.695 17.435l.47-.273-.311-.446-.178-.254-.261-.372-.395.224-.723.408-.47.266.3.448.179.265.26.39.406-.236.723-.42zm-3.953 309.017l.457.243.227-.465.178-.365.234-.48-.495-.202-.948-.386-.416-.17-.213.396-.142.265-.237.442.442.236.913.486z" fill="#6895FF" stroke="#6895FF"/><path d="M104.38 17.306l1.634.762.212-.453.211-.453-1.634-.763-.211.453-.212.454zM87.506 339.729l-.476-.139-.143.475-.083.277-.146.489.492.137.758.21.467.13.144-.463.083-.266.152-.486-.49-.142-.758-.222zM283.069 82.89l.015-.004a9.038 9.038 0 011.49-.269l.589-.056-.043.59c-.047.644-.328 1.055-.711 1.327a2.83 2.83 0 01-.522.282l-.186.078a4.807 4.807 0 00-.249.108l-.011.005-.012.005a4751.143 4751.143 0 01-11.623 4.801l-.002.001h-.001a4866.79 4866.79 0 00-11.622 4.802h-.001a889.184 889.184 0 00-7.914 3.328c-2.056.872-4.113 1.745-6.186 2.61a4008.157 4008.157 0 01-16.352 6.789l-17.473 7.274h0a4403.922 4403.922 0 01-19.167 7.915h-.001l-.19-.462a518.637 518.637 0 01-5.501 2.239l95.673-41.363zm0 0l-.014.004c-3.118 1.04-27.836 11.29-51.914 21.453-12.047 5.085-23.947 10.153-32.922 14.045a805.162 805.162 0 00-10.928 4.811 136.306 136.306 0 00-3.179 1.477c-.381.185-.689.342-.915.465a5.649 5.649 0 00-.29.167c-.065.041-.16.104-.231.18l.366.341L283.069 82.89zM91.963 81.733l.842-1.09-1.345.296a9.635 9.635 0 00-3.644 1.641l.47.871a9.15 9.15 0 01.885-.263l.13-.033c.27-.069.554-.141.83-.23.65-.209 1.318-.527 1.832-1.192z" fill="#6895FF" stroke="#6895FF"/><path d="M91.347 80.977l-.28.137v.825l.48.02a5.003 5.003 0 001.864-.282 4.774 4.774 0 001.602-.95l.28-.252-.165-.338-.177-.364-.22-.45-.45.22-2.934 1.434z" fill="#6895FF" stroke="#6895FF"/></svg>