<svg width="348" height="380" fill="none" xmlns="http://www.w3.org/2000/svg"><path d="M295.339 54.161l.551.188.033.011 1.321.451-1.103.414c-.157.47-.45.788-.793 1.018-.289.194-.642.336-.933.453l-.23.094-3.319 1.42 7.21 3.535.415.204-.17.43-.167.419-.139.35-.375-.037a6.732 6.732 0 01-1.329-.27l-.02-.005-.02-.008a58.003 58.003 0 01-5.51-2.586l-.009-.005-.008-.005c-.975-.572-1.842-.754-2.682-.641-.712.095-1.446.408-2.244.945 1.855 1.762 3.724 3.502 5.589 5.239 3.316 3.087 6.621 6.164 9.815 9.334l.311.31-.266.348-.277.363-.229.3-.351-.138a4.476 4.476 0 01-.999-.549l-.024-.018-.021-.02c-1.181-1.098-2.365-2.194-3.549-3.29-3.57-3.305-7.146-6.616-10.653-10.009l-.011-.011-.011-.012a2.448 2.448 0 00-1.481-.784 2.415 2.415 0 00-1.626.359l-.033.021-.036.016a3161.856 3161.856 0 01-15.281 6.57c-3.103 1.328-6.207 2.655-9.308 3.99a9651.315 9651.315 0 00-10.47 4.54l-5.22 2.264h0c-8.739 3.78-17.482 7.561-26.228 11.342a5895.14 5895.14 0 01-26.418 11.342l-26.07 11.193h-.001c-.184.08-.355.163-.581.272 2.368 1.333 4.742 2.562 7.1 3.783l1.683.872c3.179 1.654 6.315 3.333 9.322 5.263l-.433.894c-3.338-1.145-6.453-2.786-9.523-4.404-1.046-.55-2.085-1.098-3.127-1.622-2.483-1.251-5.03-2.595-7.579-3.94-1.705-.9-3.412-1.801-5.102-2.675a1324.61 1324.61 0 00-7.403-3.789c-1.715-.874-3.429-1.746-5.15-2.629a1682.576 1682.576 0 01-9.128-4.733c-1.133-.59-2.264-1.18-3.395-1.767l165.685-44.6zm0 0l-.057.319m.057-.319l-.057.319m0 0l-.497.186c-1.73.648-3.468 1.3-5.198 1.97l-.035.013-.033.018a2.077 2.077 0 01-1.843.107c-1.302-.668-2.639-1.262-3.97-1.84-.203-.09-.406-.177-.609-.265-1.133-.492-2.258-.98-3.362-1.506-2.6-1.24-5.049-2.675-7.117-4.802l-.001-.001a.843.843 0 00-.403-.214l-.01-.002a3.398 3.398 0 00-.068-.018c-.075-.02-.149-.038-.247-.072l-1.178-.402.573 1.106c.094.182.181.352.269.527-9.717-4.5-19.407-8.978-29.084-13.45-22.683-10.482-45.294-20.93-68.012-31.547L295.282 54.48zM116.956 92.17l12.698 6.59 48.73-97.482-.177-.468h-.001c-.384.146-.776.288-1.172.431-1.057.383-2.141.777-3.173 1.263l-.015.007-.015.008a3.62 3.62 0 01-3.496.01 5.155 5.155 0 00-3.476-.852l-1.481.17 1.284.757 2.712 1.6a7.182 7.182 0 01-.276.142l-4.478 1.716h-.002l-40.322 15.652h-.001l-23.978 9.346h0c-2.539.99-5.079 1.976-7.618 2.961-3.71 1.44-7.418 2.878-11.12 4.332a4323.847 4323.847 0 00-20.202 7.94l-.018.007-.018.008c-.438.215-.86.463-1.262.742l.434.888c5.281-1.65 10.425-3.606 15.544-5.58h0l30.782-11.874h.001l43.302-16.82h.001c1.828-.704 3.651-1.401 5.471-2.098 4.948-1.893 9.872-3.778 14.801-5.752l.01-.005.011-.004a3.322 3.322 0 012.986.118h0l.011.006a40.94 40.94 0 002.28 1.073c.408.182.813.363 1.207.547h.001a74225.35 74225.35 0 0143.491 20.279h.002c16.385 7.562 32.777 15.123 49.176 22.684l.21-.454-.21.454.334.154c3.45 1.587 6.756 3.107 9.173 6.06l.018.022.021.02c.298.29.612.56.94.814.467.454.924.907 1.412 1.392l.821.813-.326.163c-.496.248-.918.459-1.365.649h-.001a22199.63 22199.63 0 00-41.41 17.807h0c-14.154 6.11-28.318 12.226-42.494 18.35l-32.887 14.2.198.459-.199-.459-.078.034c-.926.4-1.602.692-2.162.885-.569.196-.982.276-1.372.266-.389-.011-.795-.113-1.347-.342-.559-.232-1.235-.58-2.169-1.065l-.001-.001c-4.357-2.246-8.7-4.506-13.045-6.767a5155.542 5155.542 0 00-9.481-4.926L99.124 80.896h-.001c-4.226-2.213-8.46-4.39-12.688-6.564l-4.877-2.51v-.001c-8.126-4.181-16.252-8.37-24.377-12.566l-.002-.001c-.47-.241-.904-.532-1.356-.835a90.848 90.848 0 00-.218-.146l.565-1.569.61-1.695-1.397 1.138-1.505 1.227-4.576-1.946-.437-.185-.208.426-.166.34-.204.417.4.234 4.017 2.353a4193.867 4193.867 0 01-3.677 4.69c-1.406 1.79-2.787 3.55-4.16 5.306h0l-8.122 10.423s0 0 0 0l-8.01 10.206-.001.001c-.848 1.088-1.7 2.172-2.553 3.257-1.87 2.38-3.741 4.76-5.569 7.176a110.048 110.048 0 00-7.54 10.464l.804.59c7.021-8.345 13.73-16.96 20.38-25.569L54.32 59.723l12.34 6.442h.001l12.71 6.567 12.532 6.476h0c2.088 1.078 4.173 2.163 6.26 3.249h0c2.086 1.087 4.172 2.173 6.261 3.25 1.394.72 2.787 1.437 4.18 2.154 2.784 1.433 5.568 2.867 8.352 4.31zm168.889-34.094a8.03 8.03 0 01-.618.424c-.328.198-.543.27-.708.281-.151.01-.316-.026-.555-.165-.251-.147-.549-.385-.959-.745l-.006-.006-.007-.005c-.878-.721-1.696-1.51-2.505-2.324l5.358 2.54z" fill="#6895FF" stroke="#6895FF"/><path d="M74.136 48.584l-.332.407-.296.364.445.268.041.026c.31.188.603.365.906.534l16.276 7.933h0l47.215 23.091-64.255-32.623zm0 0l.098.238c.436-.14.887-.274 1.343-.409.899-.267 1.82-.54 2.697-.882l.002-.001c13.748-5.437 27.462-10.88 41.144-16.332l.002-.001c3.758-1.516 7.518-3.028 11.276-4.54 10.499-4.221 20.991-8.441 31.453-12.735l.008-.003.007-.003a6.01 6.01 0 015.258.168l.013.007.013.006c9.546 4.332 19.12 8.59 28.693 12.85l3.09 1.373.001.001c9.965 4.4 19.9 8.8 29.806 13.201h.001l31.087 13.733.005.002 3.026 1.382-.174.081c-.642.3-1.172.546-1.712.771l-.004.002-31.824 13.61h-.001L199.683 83.92 74.136 48.584zm94.277 47.403l.019.013a2.757 2.757 0 002.581.192h.002c7.246-3.14 14.518-6.24 21.79-9.34 2.293-.977 4.585-1.954 6.877-2.933l-31.269 12.068zm0 0l-.021-.01m.021.01l-.021-.01m0 0l-1.592-.803a844.79 844.79 0 00-9.572-4.78m11.164 5.583l-11.164-5.583m0 0c-3.801-1.863-7.595-3.71-11.386-5.556m11.386 5.556l-11.386-5.556m0 0c-2.485-1.21-4.968-2.418-7.451-3.63l7.451 3.63zm-2.149.954l24.014 11.667c-.262.166-.556.296-.882.44l-.148.065c-.601.267-1.309.61-1.716 1.422l-.397.791.882-.068a6.424 6.424 0 002.065-.516 5492.607 5492.607 0 0022.16-9.47c2.619-1.12 5.211-2.254 7.801-3.386 2.866-1.253 5.729-2.504 8.62-3.736h.001a2398.317 2398.317 0 0115.239-6.428c3.753-1.573 7.512-3.15 11.275-4.743h.001c4.622-1.969 9.232-3.95 13.84-5.929a3820.173 3820.173 0 0117.407-7.445c1.047-.33 2.121-.56 3.209-.687l.291-.034.113-.271c.376-.907 1.181-1.257 2.274-1.65l.181-.064c.998-.355 2.204-.784 2.943-1.926l.716-1.104-1.269.35a28.76 28.76 0 00-4.894 1.847l-.011.006-.012.006a3.85 3.85 0 01-3.717 0l-.014-.008-.014-.007c-2.709-1.271-5.453-2.468-8.188-3.66-1.2-.523-2.398-1.045-3.59-1.573h-.002a4850.368 4850.368 0 01-22.469-9.912c-2.068-.926-4.134-1.853-6.201-2.78a5581.77 5581.77 0 00-19.152-8.562h0c-2.614-1.156-5.221-2.297-7.825-3.437-2.855-1.25-5.707-2.499-8.563-3.765h0a10084.99 10084.99 0 01-18.947-8.415h-.003c-.416-.183-.801-.37-1.243-.585l-.432-.209c.658-.31 1.311-.578 1.962-.845.245-.1.49-.201.735-.304 1.177-.493 2.337-1.03 3.383-1.844l1.201-.933-1.52.039a7.223 7.223 0 00-2.662.582c-2.113.856-4.224 1.717-6.335 2.578a2028.095 2028.095 0 01-9.293 3.77 23696.525 23696.525 0 00-31.569 12.59h0a6939.288 6939.288 0 00-23.504 9.46h0l-4.792 1.94A3432.707 3432.707 0 0078.19 45.74l-.002.001c-1.064.442-2.1.989-3.111 1.523a91.17 91.17 0 01-1.222.637l.097.236-.57.04-3.28.226-.328.023-.11.31-.143.408-.15.425.407.193c4.886 2.319 9.72 4.687 14.57 7.063 3.29 1.611 6.588 3.227 9.915 4.833 5.82 2.81 11.622 5.66 17.425 8.509 2.394 1.175 4.788 2.35 7.183 3.523h0l24.821 12.102h.001zm184.576 14.08l-.001.001c-.484.736-1.117 1.189-1.776 1.53-.327.168-.664.312-.992.446l-.211.086c-.257.105-.505.206-.753.318a359.348 359.348 0 01-5.547 2.536c-1.078.486-2.154.971-3.224 1.46-.304.17-.599.354-.885.553l.057.137c.203.482.387.922.591 1.365l.004.009h0a76.156 76.156 0 015.13 16.915c1.32 6.632 2.441 13.319 3.417 20.005l.001.01h0c.94 7.498 1.108 15.076.501 22.61a192.908 192.908 0 01-3.943 28.876c-2.573 12.111-5.607 24.108-10.749 35.477h0a791.799 791.799 0 00-1.456 3.232c-2.81 6.257-5.631 12.539-9.222 18.373l-.006.009-.006.009a21.76 21.76 0 01-1.746 2.251l-.319.361-.372-.305-.221-.182-.261-.213.1-.321c.109-.353.251-.693.424-1.018l.007-.013.008-.012c5.926-9.692 10.345-20.138 14.521-30.738 2.728-6.925 4.427-14.172 6.131-21.44l.174-.743a224.81 224.81 0 004.334-24.555 158.484 158.484 0 00.983-20.607m5.307-56.422l-4.807 56.412m4.807-56.412l.022-.034.496-.762-.909-.011a2.837 2.837 0 01-1.148-.26 2.907 2.907 0 01-.956-.707l-.014-.017-.016-.014a8923.522 8923.522 0 01-22.249-21.015l-.002-.002a7.574 7.574 0 00-.68-.555 48.252 48.252 0 00-.206-.151 15.021 15.021 0 01-.443-.332l-.373-.293-.313.357-.377.431-.293.336.3.33c.137.15.278.313.425.483.313.361.648.749 1 1.077a8136.34 8136.34 0 0120.265 18.995 75.805 75.805 0 011.822 1.8l.325.328m3.324.016l-3.324-.016m-1.983 56.438v-.002l.5-.008m-.5.01s0 0 0 0l.5-.01m-.5.01a129.02 129.02 0 00-2.042-20.336l-.002-.01h0a154.934 154.934 0 00-5.455-22.811m7.999 43.147a129.655 129.655 0 00-2.05-20.415 155.4 155.4 0 00-5.474-22.887m-.475.155l.001.003.474-.158m-.475.155l-.001-.002.476-.153m-.475.155c-.428-1.285-.917-2.531-1.44-3.863-.226-.577-.458-1.169-.695-1.788m2.61 5.496c-.432-1.297-.929-2.566-1.456-3.908-.227-.578-.459-1.17-.693-1.783l-.461.195m11.617-7.63l-.56.281c-.652.327-1.217.611-1.797.879-7.556 3.47-15.121 6.941-22.692 10.411l25.049-11.57zm-11.617 7.63l-.177-.467.177.467zm-16.254 147.503c-.121.144-.244.287-.369.429l.156.138c.06-.193.131-.383.213-.567zm.083.671l.178.055c.048-.157.105-.31.169-.461-.114.137-.23.272-.347.406zm-153.091-71.953c.958-.469 1.928-.92 3.035-1.434l.666-.31-3.701 1.744zm0 0c-.299.152-.596.31-.891.472m.891-.472l-.891.472m0 0c-.508.153-1.023.276-1.545.367h-.024v.004l-.018.003.018.105v.388l.067.123.031.057.14.26c.315-.17.621-.341.923-.509l.602-.335c.078-.023.155-.048.232-.073l1.431-.576c2.481-.999 4.981-2.005 7.433-3.098l-9.29 3.284zm-1.806.427l.237.94h.109l.042-.007a14.197 14.197 0 001.999-.494l.016-.006.016-.006 1.428-.576c2.481-.998 4.991-2.008 7.453-3.106a2031.172 2031.172 0 0020.736-9.347l.002-.001c3.739-1.727 7.472-3.457 11.202-5.187 4.432-2.055 8.862-4.109 13.297-6.154 0 0 0 0 0 0l15.901-7.327.018-.008.018-.01c.487-.274.954-.583 1.399-.923l.351-.269-.224-.381-.232-.397-.205-.35-.385.128c-.121.041-.255.082-.394.125a9.42 9.42 0 00-1.082.381l-.005.002a6277.04 6277.04 0 01-25.483 11.727s0 0 0 0l-33.109 15.129-.009.004c-1.388.665-2.777 1.281-4.204 1.783l-.009.003a2.19 2.19 0 01-1.512.008 173.43 173.43 0 01-7.788-4.116l-.002-.001c-.686-.379-.948-.66-1.047-.94-.104-.295-.077-.721.175-1.523.434-1.378.894-2.74 1.357-4.111.256-.759.514-1.521.768-2.289.417-1.241.836-2.483 1.255-3.725 1.28-3.798 2.561-7.601 3.831-11.405l.001-.003c.155-.477.273-.984.385-1.465.045-.194.089-.383.134-.565l.112-.449-.439-.146-.509-.17-.446-.149-.176.435c-.087.214-.176.43-.267.648-.237.57-.48 1.153-.684 1.748l-.001.002a6456.374 6456.374 0 01-7.187 21.104c-.167.413-.348.82-.544 1.219-5.084-2.681-10.147-5.345-15.189-7.999-8.094-4.261-16.137-8.494-24.13-12.723-3.535-1.87-7.074-3.731-10.612-5.591-9.6-5.047-19.194-10.092-28.695-15.319-5.023-2.763-14.462-7.832-22.874-12.242-4.206-2.205-8.158-4.247-11.175-5.754a140.2 140.2 0 00-3.746-1.818c-.48-.221-.885-.399-1.202-.527-.296-.119-.569-.218-.754-.244l-1.57-.223 1.158 1.083a8.46 8.46 0 001.649 1.206h0l.007.003 1.94 1.048c6.203 3.35 12.416 6.705 18.638 10.022l33.065 17.682.001.001c3.605 1.913 7.237 3.826 10.86 5.735 3.286 1.731 6.564 3.457 9.806 5.175 3.034 1.609 6.066 3.225 9.098 4.841 3.785 2.017 7.569 4.035 11.357 6.036h0c3.972 2.095 7.959 4.176 11.947 6.258a5195.16 5195.16 0 016.625 3.462c.767.404 1.515.825 2.288 1.26l.848.477-.468 1.512a319.638 319.638 0 01-1.625 5.158l-.001.002a505.866 505.866 0 01-1.472 4.464l-.001.002c-.495 1.488-.991 2.978-1.474 4.471l-.007.021-.005.021c-.112.49-.183.988-.211 1.49l-.024.432.423.086.443.091.423.087.147-.406c.137-.377.282-.739.428-1.103l.013-.033c.149-.374.299-.751.436-1.136l.002-.004c.673-1.957 1.341-3.916 2.01-5.874.827-2.424 1.654-4.849 2.493-7.275.147-.337.309-.666.487-.986l8.193 4.413-.323.149c-1.109.516-2.086.97-3.049 1.441l-.005.003c-.533.269-1.067.567-1.591.859-.298.166-.593.33-.881.486zm6.414-3.202l-8.947-4.819c-.288.473-.543.965-.764 1.474l9.711 3.345zm67.031-29.314c-.389.29-.795.554-1.217.791l-25.806 10.933c8.495-3.886 16.99-7.795 25.485-11.727.316-.142.653-.245.989-.348.105-.033.211-.065.315-.099l.054-.041.015.019.056-.018.233.396a4.243 4.243 0 01-.08.061l.005.017-.049.016zm-64.387 28.657c1.451-.51 2.858-1.134 4.255-1.803l-6.139 1.803a2.691 2.691 0 001.884 0z" fill="#6895FF" stroke="#6895FF"/><path d="M136.739 178.628l-.381.368-.475.46c-.462.445-.918.884-1.368 1.337a832.953 832.953 0 01-4.993 4.962c-3.913 3.867-7.812 7.721-11.537 11.764a218.374 218.374 0 00-19.08 24.18l-.004.006h0a142.883 142.883 0 00-13.449 23.642c-1.665 3.776-3.04 7.675-4.422 11.594a618.9 618.9 0 01-1.104 3.116l-.002.004a90.723 90.723 0 00-4.937 20.562v.001c-.16 1.319-.186 2.623-.212 3.958-.016.774-.031 1.557-.073 2.359v.001c-.551 10.153.672 20.238 2.288 30.289.37 2.274.903 4.536 1.44 6.817.261 1.114.524 2.232.77 3.359a5.55 5.55 0 01.084 2.102l-.21 1.389-.714-1.209a14.131 14.131 0 01-1.859-5.492 183.651 183.651 0 01-3.329-22.951v-.001c-.855-10.669-.636-21.302 2.12-31.72h0c1.166-4.398 2.66-8.71 4.143-12.992.413-1.194.826-2.386 1.23-3.576v-.001l.474.161m55.6-74.489l-44.442 50.899a113.277 113.277 0 00-11.158 23.59m55.6-74.489l-.39-.358-.332-.307-.329-.303-.338.294-.627.543c-.598.518-1.199 1.038-1.792 1.569a180.633 180.633 0 00-18.321 18.616l22.129-20.054zm-55.6 74.489c-.406 1.197-.82 2.393-1.235 3.589-1.482 4.28-2.967 8.569-4.128 12.947-2.737 10.344-2.958 20.914-2.105 31.552a183.14 183.14 0 003.324 22.91c.188 1.575.646 3.1 1.352 4.507a4.55 4.55 0 01-.051.737l.494.075.43-.254a12.679 12.679 0 01-.376-.684 5.037 5.037 0 00-.131-.978c-.243-1.111-.504-2.222-.765-3.333-.54-2.292-1.078-4.583-1.452-6.875-1.617-10.06-2.847-20.188-2.293-30.395.04-.767.055-1.535.07-2.303.028-1.355.055-2.709.218-4.048a91.237 91.237 0 014.964-20.676m1.684-6.771l-1.684 6.771m0 0c.37-1.033.735-2.068 1.1-3.104 1.383-3.921 2.766-7.845 4.44-11.64l-5.54 14.744zM5.45 278.7a158.513 158.513 0 01-2.628-21.277c-.277-5.168-.487-10.236-.431-15.346.088-6.865.32-13.662.741-20.457.387-6.122 1.05-12.224 1.738-18.338h0c.487-4.34 1.039-8.68 1.855-12.948 1.873-9.786 3.83-19.546 6.473-29.154h0l.002-.005a274.6 274.6 0 019.213-28.563l.007-.018.006-.019c.237-.801.41-1.62.515-2.45l.022-.169L5.45 278.7zm0 0c.555 2.87 1.108 5.737 1.773 8.966l.285 1.389-1.094-.903a3.617 3.617 0 01-1.283-2.378m.32-7.074l-.32 7.074m0 0a174.117 174.117 0 01-3.428-20.844v-.001a238.637 238.637 0 01-1.11-30.593c.111-5.689.567-11.374 1.11-17.048.61-6.593 1.309-13.201 2.219-19.767h0c.766-5.493 1.81-10.949 2.852-16.38v-.001l.123-.636c.867-4.472 1.742-8.99 2.943-13.407h0c2.296-8.434 4.802-16.799 7.329-25.157 0 0 0 0 0 0l.478.144-12.516 143.69zm322.014-10.872l-.385.282-.397.291c-.484.358-.982.725-1.498 1.062l-.004.003c-1.897 1.21-3.795 2.418-5.692 3.626-4.968 3.161-9.933 6.32-14.87 9.528-1.966 1.277-3.899 2.611-5.839 3.953l-.216.149c-1.866 1.291-3.74 2.587-5.645 3.836l-.001.001c-5.133 3.335-10.289 6.627-15.525 9.818m50.072-32.549l-50.333 32.122m50.333-32.122l-.264-.398-.21-.318-.178-.268-.317.051a4.73 4.73 0 00-1.139.329l-.029.012-.027.016a68.783 68.783 0 00-2.508 1.576l-.579.375h0a1189.25 1189.25 0 01-6.939 4.447c-5.285 3.37-10.579 6.746-15.744 10.305h-.001c-7.639 5.281-15.386 10.367-23.341 15.123m51.276-31.25l-51.02 31.68-.256-.43m1.204 1.299s0 0 0 0l-.261-.427m.261.427l.001-.001-.262-.426m.261.427c-4.522 2.774-9.068 5.492-13.608 8.207l-.305.182c-4.643 2.776-9.28 5.55-13.887 8.384m27.539-17.2c-4.52 2.774-9.064 5.49-13.606 8.206-4.743 2.836-9.485 5.671-14.195 8.568m.262.426l-.262-.426m.262.426c-5.521 3.398-10.994 6.873-16.469 10.348a2466.387 2466.387 0 01-9.289 5.879l-.001.001c-4.361 2.73-8.73 5.43-13.098 8.129l-2.847 1.76m41.704-26.117s0 0 0 0l-.262-.426m0 0l-41.442 26.543m-.783-.742c-.019.005-.039.008-.058.011m.058-.011l-.385-.006a.802.802 0 00.327.017m.058-.011l-.053.046-.005-.035m.058-.011l-.058.011s0 0 0 0m.841.731c-.21.132-.444.22-.689.258h0a1.805 1.805 0 01-.735-.039l-.832-.221.604-.613a8.27 8.27 0 011.001-.869l.014-.01.014-.009a3129.537 3129.537 0 0119.77-12.477c1.979-1.252 3.956-2.511 5.933-3.77 4.714-3.003 9.433-6.01 14.206-8.936h0c9.632-5.899 19.318-11.707 29.014-17.503m-68.3 44.189l68.3-44.189m50.322-31.171l.141-.025-.011-.071-.13.096zm-.21-.466a3.67 3.67 0 01.254-.049l-.065-.09-.189.139zm-118.95 75.534c-.074.025-.15.044-.227.056l.02.131c.068-.064.137-.126.207-.187zm-99.271 24.98l-.421-.1-.159.402-.122.306-.154.387.352.221a15.66 15.66 0 003.125 1.511l.026.01.028.006c2.362.546 4.751.962 7.157 1.246h.003c8.113.898 16.311.54 24.319-1.061a131.236 131.236 0 0023.754-7.012 128.899 128.899 0 0016.993-7.968l.005-.003c.254-.146.487-.314.703-.476l.203-.156c.142-.108.277-.211.419-.312l.406-.288-.286-.407-.255-.363-.244-.348-.383.186c-.249.12-.515.243-.785.368-.398.183-.806.372-1.186.566h0l-.005.003a162.918 162.918 0 01-24.9 10.594l-.004.002a99.719 99.719 0 01-28.369 5.27h-.003a58.433 58.433 0 01-13.056-.887c-1.593-.338-3.17-.725-4.756-1.114-.799-.196-1.599-.392-2.405-.583z" fill="#6895FF" stroke="#6895FF"/><path d="M22.029 317.993l1.657.752-1.04-1.494a9.4 9.4 0 00-.855-1.054l-.006-.006-.006-.006a41.407 41.407 0 01-8.868-13.1h0l-.003-.006c-1.167-2.647-2.13-5.376-3.1-8.127a258.941 258.941 0 00-1.308-3.651 6.228 6.228 0 00-1.354-2.738l-.717-.837-.157 1.091a3.982 3.982 0 00.101 1.622h0l.003.011c.138.459.274.92.41 1.383.463 1.568.929 3.149 1.48 4.692a60.012 60.012 0 009.77 18.207 10.12 10.12 0 003.992 3.261zm291.256-63.994l-.478-.329-.254.521-.011.023-.149.303.226.251c.551.612 1.14 1.188 1.764 1.723l.011.01.011.008a7047.533 7047.533 0 0022.163 16.832l.011.009.012.008c.488.326.994.621 1.518.883l.383.191.248-.349.266-.374.281-.397-.388-.292c-.292-.221-.58-.48-.892-.761l-.009-.008a14.463 14.463 0 00-.994-.842 4007.936 4007.936 0 00-18.762-13.998h0l-.011-.007c-1.158-.812-2.346-1.625-3.531-2.436l-1.415-.969zM157.242 121.004l.149-.47-.467-.156-.51-.17-.448-.15-.175.439-.099.243a9.77 9.77 0 00-.266.693c-.653 1.965-1.308 3.923-1.962 5.879-1.054 3.154-2.107 6.302-3.146 9.466a398.723 398.723 0 00-1.824 5.676c-.465 1.474-.931 2.95-1.408 4.417a2.522 2.522 0 00.222 2.781l.584.739.285-.897 9.065-28.49zM297.52 256.008l.232-.432-.427-.24-.222-.125-.316-.178-.267.246a6.032 6.032 0 00-.605.643l-.013.016-.012.018a2486.973 2486.973 0 00-11.449 17.016l-.006.008-.005.008c-.131.215-.142.45-.149.617l-.005.165a10.13 10.13 0 01-.028.573l-.124 1.539 1.002-1.174c.254-.297.47-.539.664-.755l.189-.212c.237-.267.445-.509.629-.773h0l.003-.005c.88-1.294 1.763-2.585 2.645-3.874 1.958-2.862 3.913-5.719 5.825-8.607v-.001c.653-.99 1.205-2.073 1.742-3.128.233-.457.463-.909.697-1.345zm30.091-156.813l-.096.06-.062.093-.022.034-.616.946 1.114-.179c.867-.139 1.72-.35 2.553-.632l.016-.006.017-.007c1.077-.452 2.155-.971 3.221-1.485.699-.337 1.393-.67 2.077-.982 1.157-.525 2.322-1.046 3.488-1.568a526.615 526.615 0 005.313-2.402l.025-.012.023-.014c.581-.35 1.135-.744 1.658-1.178l.672-.56-.823-.295a2.916 2.916 0 00-2.743.413 944.232 944.232 0 00-12.355 5.73c-.918.435-1.795.992-2.628 1.522-.283.18-.56.355-.832.522zm-305.812 30.59l-.093.318.256.209.166.136.403.33.313-.415c1.096-1.455 1.757-3.089 2.316-4.713.151-.438.294-.872.435-1.302.391-1.189.772-2.346 1.283-3.457l-.878-.474a37.405 37.405 0 00-4.201 9.368zm175.988 120.827l.359.55.415-.469a5.86 5.86 0 001.291-.752l.029-.022.026-.027c1.404-1.46 2.751-2.975 4.09-4.481v-.001c.543-.6 1.055-1.239 1.553-1.86l.425-.529.31-.383-.378-.315-.365-.306-.373-.313-.323.365-6.876 7.782-.544.206.339.521.022.034zm-38.581-63.583l.489-.5-.575-.274c-.619-.675-1.805-1.456-2.997-2.052a12.702 12.702 0 00-1.922-.786c-.603-.184-1.207-.297-1.704-.24l-1.726.199 1.568.749 6.161 2.942.308.369.387-.396.011-.011zm70.253 22.405l.241-.435-.434-.243-.465-.261-.417-.233-.252.405a48.678 48.678 0 00-2.956 5.5l-.19.416.398.227.399.227.439.25.245-.443 2.992-5.41zm-9.065 11.923l-.235.354.312.289.344.318.382.354.338-.397a24.682 24.682 0 003.393-5.198l.188-.385-.353-.245-.343-.238-.42-.291-.282.426-3.324 5.013z" fill="#6895FF" stroke="#6895FF"/><path d="M205.502 241.167l-.129.143v2.179l.812-.652c.55-.44 1.576-1.467 2.529-2.517.48-.528.95-1.072 1.34-1.561.383-.48.712-.936.889-1.281h0l.004-.008.925-1.89-.82-.555-5.55 6.142zm15.269-17.507l.295-.438-.453-.271-.399-.238-.35-.209-.275.3a11.961 11.961 0 00-1.966 2.912l-.187.39.359.241.388.261.414.279.279-.415 1.895-2.812z" fill="#6895FF" stroke="#6895FF"/><path d="M213.088 234.399l.255-.337-.291-.308-.332-.351-.343-.363-.363.342a9.133 9.133 0 00-1.946 2.652l-.173.355.305.251.333.272.398.326.315-.408c.434-.563.863-1.133 1.289-1.699l.553-.732zm82.201-179.333l.303.621.27-.263c.517.177 1.003.15 1.477-.042.535-.219 1.031-.644 1.529-1.098l.79-.72-1.06-.145a3.824 3.824 0 00-1.725.163c-.435.145-.84.366-1.198.653l-1.056-.541.659 1.349.011.023zm17.438 199.819l.385.253.284-.363.044-.056.222-.284-.199-.3a6.277 6.277 0 00-2.553-2.218l-.381-.18-.242.346-.277.397-.294.421.429.283 2.582 1.701zm-170.682-69.689l.743-1.522-1.451.875-.016.01a4.877 4.877 0 00-2.802 1.187l-.286.249.162.342.189.398.237.499.473-.285 2.331-1.406.255-.009.131-.269.034-.069zm16.434 1.145l-.587.601.745.212a6.324 6.324 0 002.475 1.226l.441.108.15-.429.166-.477.174-.501-.51-.145-2.419-.686-.298-.253-.326.333-.011.011zm40.063 63.626l-.858-.88v1.057l-1.449 1.363.471.847c.445-.118.932-.29 1.311-.601.345-.281.585-.664.65-1.16l.253-.238-.355-.365-.023-.023zm-40.533-133.048l-.652-.666-.195.912-.011.053-.911 1.811-.254.506.533.19.51.181.544.194.114-.566c.132-.653.272-1.315.415-1.981l.018-.037.16-.319-.249-.255-.022-.023z" fill="#6895FF" stroke="#6895FF"/><path d="M157.316 117.642l.722.738.131-1.024.004-.033.269-.624c.127-.295.255-.592.388-.896l.234-.533-.563-.151-.466-.125-.552-.148-.073.567-.21 1.641-.007.016-.135.309.235.241.023.022zm57.605 112.97l-.475-.324-.255.514-.01.02-.893.837-.442.415.491.355.377.273.478.346.263-.529.541-1.091.018-.016.455-.426-.515-.352-.033-.022zm.415-.239l.469.32.258-.505.011-.022.847-.781.429-.396-.457-.363-.344-.273-.478-.379-.278.544-.528 1.034-.02.018-.461.426.519.354.033.023zM56.85 54.21l.785.594.986-.92.407-.38-.42-.364-.355-.306-.481-.416-.29.565-.633 1.227z" fill="#6895FF" stroke="#6895FF"/><path d="M57.686 54.747l.223-.282-.196-.3-.022-.035-.385-.592-.43.56-1.596 2.076.788.615 1.618-2.042z" fill="#6895FF" stroke="#6895FF"/></svg>