<svg width="331" height="356" fill="none" xmlns="http://www.w3.org/2000/svg"><mask id="a" maskUnits="userSpaceOnUse" x="0" y=".901" width="331" height="311" fill="#000"><path fill="#fff" d="M0 .901h331v311H0z"/><path d="M289.412 230.414c-1.812 3.002-3.525 6.059-5.46 8.983-3.548 5.359-7.229 10.651-10.876 15.954-.367.533-.679 1.245-1.568 1.278-.445-.767.122-1.211.456-1.701 3.336-4.836 6.672-9.627 10.008-14.452a110.607 110.607 0 009.665-17.788c2.224-5.103 4.448-10.15 6.461-15.32a98.391 98.391 0 003.458-11.329c1.546-6.248 3.014-12.518 4.204-18.844.934-4.991 1.501-10.072 2.058-15.131.4-3.735.6-7.493.722-11.239a106.655 106.655 0 00-1.634-20.534 144.786 144.786 0 00-4.793-21.246c-.857-2.657-1.891-5.247-2.925-8.115-1.557.622-2.903 1.111-4.204 1.712-7.262 3.335-14.457 6.67-21.775 9.883a5984.104 5984.104 0 01-26.69 11.862c-2.324 1.034-4.638 2.124-6.995 3.091-1.49.6-2.302 1.49-2.102 3.169.089.689 0 1.4 0 2.101a87.253 87.253 0 01-1.357 15.397 140.057 140.057 0 01-5.004 21.546c-1.39 4.447-3.203 8.894-4.982 13.219-1.335 3.246-2.792 6.437-4.449 9.538-2.102 4.003-4.315 7.96-6.672 11.807a169.114 169.114 0 01-13.524 18.511 82.598 82.598 0 01-10.976 11.117c-3.092 2.557-6.083 5.259-9.33 7.604a129.91 129.91 0 01-11.666 7.638 94.825 94.825 0 01-19.54 8.672c-1.59.478-3.18.933-4.782 1.367-.578.145-1.201.178-1.801.267l-.134-.389c.301-.238.635-.433.99-.578a95.073 95.073 0 0015.669-5.559c2.38-1.112 4.649-2.379 6.962-3.602 1.746-.923 3.459-1.89 5.205-2.824a76.777 76.777 0 009.831-6.937 74.335 74.335 0 0011.287-10.006c3.526-4.024 6.995-8.093 10.287-12.296a157.736 157.736 0 0014.847-22.401c2.113-3.903 3.714-8.094 5.46-12.23 1.39-3.335 2.647-6.67 3.981-9.939.09-.238.259-.438.479-.567a20.837 20.837 0 01-1.591 5.281c-.311.823-.478 1.701-.711 2.546l-.668 1.179.323.133.345-1.312c.371-.588.709-1.197 1.012-1.823a127.876 127.876 0 005.927-18.966 115.264 115.264 0 003.047-18.077c.223-3.169.467-6.337.69-9.517a4.338 4.338 0 000-.756c-.156-1.412-.59-1.712-1.869-1.112a860.523 860.523 0 00-10.653 4.747c-8.586 3.903-17.16 7.783-25.757 11.74a9356.185 9356.185 0 01-21.597 9.795c-7.729 3.48-15.491 6.904-23.242 10.35l-8.897 3.98c.342.338.714.643 1.112.912a350.56 350.56 0 007.351 3.702 9.85 9.85 0 013.147 2.613c-1.479.355-2.335-.567-3.336-1.001-1.001-.433-2.002-1.112-3.014-1.656-1.012-.545-1.946-.968-2.902-1.468-.957-.5-2.013-1.056-3.103-1.623l-1.88 2.29-.478-.244.612-2.48c-3.414.934-6.373 2.724-9.753 3.569.6-.945.6-.934 2.502-1.779l2.78-1.278 3.336-1.512a68.622 68.622 0 00-8.407-4.347c-.745 1.979-1.468 3.791-2.113 5.636-.956 2.769-1.857 5.559-2.802 8.339-.234.678-.356 1.511-1.368 1.678-.579-.711-.134-1.367.066-1.979 1.112-3.201 2.225-6.381 3.337-9.583.24-.619.313-1.29.211-1.945-1.423 1.234-2.914 2.39-4.248 3.713-4.627 4.558-9.342 9.06-13.779 13.819-3.559 3.813-6.862 7.871-10.098 11.962a170.85 170.85 0 00-14.602 21.023 116.737 116.737 0 00-8.43 17.377c-2.513 6.826-5.17 13.607-6.439 20.8-.544 3.058-.789 6.182-1.112 9.283a44.327 44.327 0 00-.344 6.86c.289 4.447.155 8.894.956 13.341.8 4.447 1.312 8.894 2.09 13.341.423 2.446 1.113 4.836 1.68 7.259a2.572 2.572 0 01-.145 2.324 6.63 6.63 0 01-.834-1.334 45.714 45.714 0 01-1.334-4.981 666.598 666.598 0 01-2.536-15.453 95.2 95.2 0 01-1.112-18.477 72.97 72.97 0 013.637-20.79c1.913-5.558 3.78-11.239 6.05-16.676a105.701 105.701 0 0111.955-21.723c2.947-4.08 5.738-8.283 8.896-12.229 3.337-4.292 6.984-8.427 10.643-12.508 3.07-3.401 6.261-6.67 9.564-9.894 3.014-2.924 6.25-5.559 9.386-8.416.456-.4.879-.856 1.491-1.468-1.546-.878-2.836-1.667-4.182-2.356-8.975-4.57-17.994-9.072-26.946-13.697-10.476-5.414-20.896-10.951-31.361-16.409a3275.458 3275.458 0 00-21.575-11.118 2750.813 2750.813 0 01-16.96-8.894c-2.223-1.112-2.023-.956-3.502.845-3.748 4.558-5.06 10.195-7.129 15.476a244.163 244.163 0 00-10.009 33.519 257.5 257.5 0 00-4.826 26.315c-.679 5.358-1.112 10.761-1.69 16.131a136.153 136.153 0 00-.757 15.642c0 1.779-.356 3.558-.3 5.337.156 4.958.467 9.905.678 14.864a145.703 145.703 0 002.725 21.401 85.811 85.811 0 006.895 21.423 38.124 38.124 0 008.018 11.562 2.89 2.89 0 011.112 1.879c-.856.178-1.245-.489-1.735-.923a34.235 34.235 0 01-6.428-8.293 70.693 70.693 0 01-7.195-17.855 133.723 133.723 0 01-4.059-22.602c-.5-5.247-.712-10.539-.856-15.82a253.442 253.442 0 010-15.108c.155-5.037.556-10.295 1.056-15.42.512-5.326 1.112-10.651 1.957-15.92 1.113-6.927 2.358-13.819 3.793-20.679a236.56 236.56 0 019.308-32.719c2.224-6.047 4.837-11.928 7.273-17.887l1.379-3.336c-.556-.367-1-.711-1.48-.967-2.88-1.523-5.782-2.979-8.629-4.547a3.007 3.007 0 00-2.947-.422c-.49-.856-.923-1.59-1.446-2.48.323 0 .59-.077.768 0 1.023.478 1.634 0 2.224-.778 3.336-4.213 6.672-8.393 10.009-12.574L46.442 61.24c1.379-1.734 2.735-3.48 4.137-5.28-1.324-1.412-3.337-1.568-4.805-3.258a6.985 6.985 0 011.502.134c.7.289 1.379.656 2.068 1 2.124 1.045 2.224 1 3.77-.934a283.683 283.683 0 013.214-4.035c.345-.423.667-.979 1.657-.567-1.546 2.523-3.759 4.447-5.282 7.126.667.367 1.256.712 1.868 1.012 5.56 2.78 11.121 5.558 16.593 8.316 7.517 3.79 15.046 7.57 22.508 11.462a4.449 4.449 0 004.315.144 394.908 394.908 0 0110.587-4.903c.812-.378 1.635-.722 2.436-1.111.612-.278 1.212-.6 1.979-.99a4.729 4.729 0 00-.722-.645c-4.775-2.29-9.553-4.569-14.335-6.837-9.142-4.38-18.287-8.76-27.436-13.14a5.206 5.206 0 00-5.07-.212 36.434 36.434 0 01-4.683 1.69c.378-1.112 1.112-1.112 1.602-1.412 1.501-.778 3.336-.9 4.448-2.446a.49.49 0 01.334-.167c3.98-.277 7.35-2.379 10.954-3.724 7.473-2.802 14.89-5.725 22.308-8.627 5.161-2.023 10.298-4.125 15.447-6.192.11-.066.207-.148.29-.245a4.63 4.63 0 00-5.561-1.668l-34.086 13.03a4148.005 4148.005 0 01-19.695 7.404c-.611.223-1.256.356-1.88.534l-.188-.467c.44-.299.9-.566 1.379-.8 5.46-2.135 10.92-4.28 16.403-6.382 7.918-3.024 15.87-5.992 23.799-8.994l12.7-4.825c.523-.2 1.045-.422 1.846-.756l-2.224-1.968c.496.096.978.253 1.435.467a4.444 4.444 0 004.359.223c3.981-1.557 7.985-3.046 11.988-4.547l28.826-10.862c1.79-.678 3.581-1.356 5.36-2.057a14.942 14.942 0 001.479-.8l-2.925-1.79a2.95 2.95 0 012.936.333 4.453 4.453 0 004.371.067c1.168-.5 2.346-.99 3.559-1.4a4.66 4.66 0 012.224-.179c-1.668 1.612-4.059 1.768-6.217 3.135 1.713.8 3.114 1.468 4.538 2.113 5.115 2.32 10.227 4.632 15.335 6.937l17.371 7.849c2.091.934 4.182 1.879 6.261 2.868a3.008 3.008 0 002.736 0c6.05-2.72 12.103-5.429 18.161-8.127 3.203-1.423 6.409-2.838 9.619-4.246.567-.2 1.146-.36 1.735-.479-.333 1.112-1.112 1.335-1.668 1.612-4.248 1.913-8.507 3.78-12.756 5.681a2798.188 2798.188 0 00-13.589 6.148c-.28.14-.552.295-.812.467 1.112 1.112 42.259 19.834 45.696 20.901l.522-.967c.206.042.404.113.59.211.578.5 1.112 1.034 1.712 1.523a17.15 17.15 0 004.871 2.969c2.547 1 5.016 2.223 7.507 3.335a3.618 3.618 0 003.336-.067c1.735-.8 3.515-1.512 5.294-2.223a5.35 5.35 0 012.002-.4c-.634 1.467-2.069 1.656-3.248 2.223-1.179.567-2.546 1.112-4.248 1.834 1.602.79 2.858 1.357 4.048 2.024s2.58.645 3.336 1.845l-.177.445a17.85 17.85 0 01-2.036-.612c-1.701-.722-3.392-1.467-5.037-2.3a3.796 3.796 0 00-4.593.733c.734.767 1.368 1.523 2.102 2.223 1.935 1.757 3.936 3.425 5.86 5.192 2.358 2.146 4.627 4.38 6.973 6.537 3.948 3.613 7.918 7.193 11.888 10.784 1.557 1.412 3.114 2.813 4.66 4.247a705.157 705.157 0 016.673 6.292 1.923 1.923 0 002.513.478 1019.04 1019.04 0 0114.657-6.592c.703-.27 1.42-.504 2.147-.7.089 1.189-.656 1.311-1.168 1.556-3.069 1.4-6.161 2.768-9.253 4.158l-13.601 6.126c-.511.233-.978.544-1.723.967l2.38 2.434c-1.435.356-2.013-.555-2.747-1.033a2.1 2.1 0 00-2.803-.1 1.112 1.112 0 00-.5 1.467c.233.589.434 1.19.7 1.768a66.375 66.375 0 013.982 12.551 186.323 186.323 0 013.558 18.978c.915 6.434 1.22 12.941.912 19.433-.693 13.051-2.686 26-5.949 38.655a135.445 135.445 0 01-5.427 17.788c-1.112 2.713-2.302 5.392-3.515 8.06a950.333 950.333 0 01-5.049 10.929 7.913 7.913 0 00-.3.9l-.078-.078zM154.326 106.8c.923.5 1.501.845 2.102 1.111 4.737 2.38 9.475 4.736 14.201 7.127.634.311 1.48.456 1.669 1.434-.968.511-1.669-.1-2.358-.456-5.283-2.668-10.565-5.381-15.847-8.071-.601-.3-1.224-.534-1.958-.856-.311.811-.556 1.389-.756 1.99a8374.424 8374.424 0 00-4.682 14.152c-2.569 7.783-5.127 15.631-7.729 23.425-1.535 4.602-3.147 9.172-4.693 13.763-.245.723-.823 1.445-.323 2.357 1.702-.334 2.503-2.224 4.449-2.524-1.324 1.99-3.626 2.613-4.582 4.647.404.347.832.667 1.279.956 1.857.979 3.737 1.946 5.616 2.891 2.057 1.023 2.224 1.112 3.281-.934 4.292-8.249 8.507-16.554 12.733-24.836 2.614-5.114 5.183-10.239 7.785-15.353.078-.167.311-.256.467-.389-6.016 13.874-12.734 27.337-19.795 41.045.723-.222 1.112-.289 1.412-.434 2.102-.911 4.215-1.823 6.306-2.745 9.508-4.203 19.028-8.372 28.525-12.597 7.373-3.246 14.591-6.581 21.83-9.85 8.052-3.691 16.081-7.437 24.144-11.117 4.448-2.023 8.83-3.991 13.256-5.959 6.995-3.091 14.012-6.148 21.008-9.261 5.471-2.434 10.932-4.914 16.392-7.382a5436.414 5436.414 0 0019.172-8.66c.384-.216.755-.454 1.112-.712-1.034-2.657-2.168-4.98-4.615-6.67-5.794-3.947-11.421-8.138-17.115-12.23-.434-.31-.801-.7-1.201-1.044a1.568 1.568 0 011.312.222c1.724 1.2 3.437 2.423 5.149 3.635 6.532 4.573 13.06 9.146 19.584 13.72a2.015 2.015 0 002.302.177c1.769-.878 3.592-1.656 5.372-2.501a10.05 10.05 0 001.168-.812c-.601-.623-1.046-1.112-1.557-1.6-2.08-1.88-4.204-3.714-6.273-5.56-4.767-4.38-9.534-8.793-14.301-13.24-5.238-4.836-10.498-9.661-15.692-14.553a2.612 2.612 0 00-3.236-.667c-2.224 1-4.593 1.901-6.884 2.868-6.406 2.69-12.8 5.414-19.206 8.116a7416.46 7416.46 0 00-24.344 10.206c-.765.379-1.508.802-2.224 1.267 1.602.878 2.814 1.534 4.026 2.224 1.212.689 2.424 1.4 3.659 2.09 1.234.689 2.502 1.278 3.681 2.023 1.179.745 2.624.89 3.47 2.312a2.348 2.348 0 01-2.102-.466 503.337 503.337 0 01-12.356-6.893 3.634 3.634 0 00-3.592-.267 1465.634 1465.634 0 01-20.618 8.727 14282.458 14282.458 0 01-33.897 14.153c-1.368.578-2.724 1.222-4.526 2.001zm-125.845 3.602c.197.205.409.394.634.567l21.52 11.251a31858.28 31858.28 0 0026.968 14.041c9.23 4.769 18.483 9.494 27.724 14.252l18.906 9.717c1.99 1.023 3.959 2.079 5.961 3.057 1.234.59 1.479.456 1.99-.822.423-1.112.834-2.146 1.201-3.224a7389.264 7389.264 0 009.809-28.972 8514.342 8514.342 0 007.14-21.401c.8-2.391.789-2.391-1.368-3.491a127226.91 127226.91 0 00-31.417-15.876 2695.757 2695.757 0 00-17.96-8.983c-2.091-1.045-2.224-.978-3.337 1.112-.811 1.59-1.59 3.202-2.424 4.77-4.352 8.226-8.708 16.446-13.067 24.658-2.77 5.225-5.56 10.483-8.274 15.709a21.558 21.558 0 01-1.19 1.834l-.445-.278c4.226-8.16 8.307-16.409 12.711-24.458 3.159-5.77 12.233-23.27 12.534-24.992-2.135-.79-3.681 1.223-5.56 1.412l-.156-.378 3.948-2.09c-2.803-1.446-5.272-2.746-7.785-4.014L59.576 60.151c-2.158-1.112-4.338-2.157-6.495-3.258a1.478 1.478 0 00-2.135.49c-2.113 2.723-4.282 5.392-6.406 8.093a4375.426 4375.426 0 00-13.278 16.787c-5.027 6.337-10.087 12.641-15.125 18.978-.5.623-.934 1.301-1.546 2.168 4.137 1.968 7.785 4.224 11.733 6.014l1.635-2.056.344 1.367c.757-.7.868-1.879 2.124-2.057l-1.946 3.725zm131.283-60.635c.393.35.809.674 1.246.967 4.704 2.569 9.408 5.103 14.123 7.66l15.125 8.205c4.026 2.224 8.074 4.336 12.077 6.593a3.14 3.14 0 003.047.144 1350.2 1350.2 0 0116.76-7.015l28.069-11.684c.4-.167.745-.423 1.412-.8-.811-.39-1.356-.668-1.912-.912l-20.552-8.894a9808.807 9808.807 0 01-27.346-11.918 3.473 3.473 0 00-3.103 0c-3.526 1.634-7.095 3.18-10.643 4.758l-27.068 12.151c-.412.225-.809.473-1.19.745h-.045zm-3.28.123l.077-.556c-.567-.356-1.112-.745-1.712-1.112-1.902-1.034-3.815-2.046-5.716-3.09l-14.825-8.16c-4.137-2.224-8.274-4.526-12.388-6.827-4.115-2.301-3.225-2.29-7.785-.534-8.319 3.213-16.593 6.57-24.9 9.828-5.705 2.224-11.421 4.447-17.126 6.67-.678.267-1.324.59-2.358 1.112 1.212.623 1.99 1.034 2.78 1.423a855.42 855.42 0 009.142 4.38c6.394 3.025 12.811 6.015 19.206 9.05a1864.82 1864.82 0 0112.233 5.904 3.336 3.336 0 003.091.244 1847.406 1847.406 0 0116.682-7.593c5.56-2.48 11.065-4.925 16.592-7.404a375.232 375.232 0 017.073-3.335h-.066zm-40.225 19.322c.823.456 1.412.811 2.024 1.111 5.561 2.646 11.054 5.259 16.559 7.916 8.274 3.98 16.559 7.938 24.778 12.018a5.428 5.428 0 005.071.133c3.603-1.623 7.284-3.08 10.932-4.602l25.756-10.773c.293-.172.569-.373.823-.6-.445-.312-.723-.556-1.046-.734a1110.552 1110.552 0 00-10.008-5.559c-4.693-2.568-9.409-5.103-14.102-7.682a2074.03 2074.03 0 01-16.881-9.35 3.487 3.487 0 00-3.437-.111c-4.993 2.224-10.009 4.447-15.002 6.737L117.482 68.6c-.344.123-.656.312-1.223.612zm82.295-38.3c-1.001-.511-1.646-.89-2.335-1.19l-18.772-8.149c-6.25-2.712-12.523-5.403-18.761-8.16a3.63 3.63 0 00-3.092 0c-4.549 1.835-9.142 3.58-13.712 5.37l-21.197 8.316c-.468.23-.922.49-1.357.778.701.456 1.113.8 1.657 1.112l11.121 6.025c8.286 4.503 16.582 8.983 24.845 13.508a2.59 2.59 0 002.535.19c2.224-1.013 4.449-1.958 6.673-2.958 4.648-2.101 9.275-4.247 13.934-6.337 5.405-2.424 10.832-4.803 16.248-7.215.589-.378 1.223-.79 2.202-1.29h.011zM152.558 105.9c1.801-.256 59.163-24.325 60.743-25.448-.679-.455-1.268-.9-1.913-1.256-2.013-1.112-4.082-2.123-6.061-3.335a2.493 2.493 0 00-2.68-.156c-.406.19-.822.357-1.246.5l-34.264 14.253c-1.056.445-2.068.99-3.136 1.412-1.946.756-3.914 1.456-5.883 2.157-.111 0-.3-.167-.723-.412l3.137-1.8c-.634-.334-1.012-.545-1.413-.734l-23.154-10.995a4915.72 4915.72 0 01-20.017-9.617 3.142 3.142 0 00-2.914 0c-4.448 1.968-8.897 3.902-13.345 5.881-.625.336-1.23.707-1.813 1.112.211 1.245 1.112 1.434 1.824 1.79 7.733 3.935 15.462 7.86 23.187 11.773a4346.79 4346.79 0 0026.112 13.241c.712.356 1.468.611 2.058.856 1.178-.8.745-2.401 2.391-3.057l-.89 3.835zm116.937-48.916c-.123-.323-.134-.534-.256-.656-3.081-3.136-6.072-6.393-10.42-7.85a8.668 8.668 0 01-.868-.4c-7.484-3.401-14.969-6.826-22.453-10.216-7.484-3.391-15.236-6.838-22.831-10.317a3.862 3.862 0 00-3.47-.123c-1.969.923-3.948 1.801-5.905 2.724a9.23 9.23 0 00-1.19.8c.467.234.734.39 1.012.512 3.981 1.712 7.973 3.402 11.944 5.125l24.021 10.473c4.259 1.856 8.563 3.646 12.811 5.558a3.648 3.648 0 003.337 0 46.6 46.6 0 013.169-1.345 18.19 18.19 0 011.891-.522l.233.489c-.389.34-.81.64-1.257.9-.8.4-1.668.645-2.446 1.112a25.332 25.332 0 00-2.28 1.623c-1.112-.5-2.38.234-3.659.778-4.526 1.901-9.041 3.825-13.578 5.715l-30.027 12.462c-.567.3-1.116.63-1.646.99.845.567 1.379.99 1.98 1.323 1.89 1.045 3.859 1.968 5.705 3.102a3.337 3.337 0 003.403.144c5.338-2.29 10.698-4.447 16.047-6.737l34.03-14.32c.879-.444 1.769-.889 2.703-1.344zM159.13 12.157c.712.4 1.112.69 1.568.89l20.174 8.76 17.549 7.604a3.336 3.336 0 002.925.367c2.224-1.011 4.448-1.968 6.672-2.99.3-.134.489-.479.812-.812-.412-.245-.667-.422-.957-.556l-13.767-6.215c-9.587-4.335-19.169-8.679-28.748-13.03a3.27 3.27 0 00-2.736-.055l-47.964 18.133a5.681 5.681 0 00-.757.456c1.969 1.656 3.793 2.412 6.35 1.378 10.988-4.447 22.053-8.727 33.096-13.063a805.69 805.69 0 0110.354-3.991 1.714 1.714 0 012.013 0c-2.046 1.456-4.393 1.79-6.584 3.157v-.033zm108.763 40.412l-.311.478c.712.712 1.401 1.445 2.146 2.123 1.357 1.234 1.724 1.234 3.704-.089l-5.539-2.512zm33.041 45.581a5.564 5.564 0 00-2.747-1.723c.99 2.802 1.323 2.99 2.747 1.768v-.045z"/></mask><path d="M289.412 230.414c-1.812 3.002-3.525 6.059-5.46 8.983-3.548 5.359-7.229 10.651-10.876 15.954-.367.533-.679 1.245-1.568 1.278-.445-.767.122-1.211.456-1.701 3.336-4.836 6.672-9.627 10.008-14.452a110.607 110.607 0 009.665-17.788c2.224-5.103 4.448-10.15 6.461-15.32a98.391 98.391 0 003.458-11.329c1.546-6.248 3.014-12.518 4.204-18.844.934-4.991 1.501-10.072 2.058-15.131.4-3.735.6-7.493.722-11.239a106.655 106.655 0 00-1.634-20.534 144.786 144.786 0 00-4.793-21.246c-.857-2.657-1.891-5.247-2.925-8.115-1.557.622-2.903 1.111-4.204 1.712-7.262 3.335-14.457 6.67-21.775 9.883a5984.104 5984.104 0 01-26.69 11.862c-2.324 1.034-4.638 2.124-6.995 3.091-1.49.6-2.302 1.49-2.102 3.169.089.689 0 1.4 0 2.101a87.253 87.253 0 01-1.357 15.397 140.057 140.057 0 01-5.004 21.546c-1.39 4.447-3.203 8.894-4.982 13.219-1.335 3.246-2.792 6.437-4.449 9.538-2.102 4.003-4.315 7.96-6.672 11.807a169.114 169.114 0 01-13.524 18.511 82.598 82.598 0 01-10.976 11.117c-3.092 2.557-6.083 5.259-9.33 7.604a129.91 129.91 0 01-11.666 7.638 94.825 94.825 0 01-19.54 8.672c-1.59.478-3.18.933-4.782 1.367-.578.145-1.201.178-1.801.267l-.134-.389c.301-.238.635-.433.99-.578a95.073 95.073 0 0015.669-5.559c2.38-1.112 4.649-2.379 6.962-3.602 1.746-.923 3.459-1.89 5.205-2.824a76.777 76.777 0 009.831-6.937 74.335 74.335 0 0011.287-10.006c3.526-4.024 6.995-8.093 10.287-12.296a157.736 157.736 0 0014.847-22.401c2.113-3.903 3.714-8.094 5.46-12.23 1.39-3.335 2.647-6.67 3.981-9.939.09-.238.259-.438.479-.567a20.837 20.837 0 01-1.591 5.281c-.311.823-.478 1.701-.711 2.546l-.668 1.179.323.133.345-1.312c.371-.588.709-1.197 1.012-1.823a127.876 127.876 0 005.927-18.966 115.264 115.264 0 003.047-18.077c.223-3.169.467-6.337.69-9.517a4.338 4.338 0 000-.756c-.156-1.412-.59-1.712-1.869-1.112a860.523 860.523 0 00-10.653 4.747c-8.586 3.903-17.16 7.783-25.757 11.74a9356.185 9356.185 0 01-21.597 9.795c-7.729 3.48-15.491 6.904-23.242 10.35l-8.897 3.98c.342.338.714.643 1.112.912a350.56 350.56 0 007.351 3.702 9.85 9.85 0 013.147 2.613c-1.479.355-2.335-.567-3.336-1.001-1.001-.433-2.002-1.112-3.014-1.656-1.012-.545-1.946-.968-2.902-1.468-.957-.5-2.013-1.056-3.103-1.623l-1.88 2.29-.478-.244.612-2.48c-3.414.934-6.373 2.724-9.753 3.569.6-.945.6-.934 2.502-1.779l2.78-1.278 3.336-1.512a68.622 68.622 0 00-8.407-4.347c-.745 1.979-1.468 3.791-2.113 5.636-.956 2.769-1.857 5.559-2.802 8.339-.234.678-.356 1.511-1.368 1.678-.579-.711-.134-1.367.066-1.979 1.112-3.201 2.225-6.381 3.337-9.583.24-.619.313-1.29.211-1.945-1.423 1.234-2.914 2.39-4.248 3.713-4.627 4.558-9.342 9.06-13.779 13.819-3.559 3.813-6.862 7.871-10.098 11.962a170.85 170.85 0 00-14.602 21.023 116.737 116.737 0 00-8.43 17.377c-2.513 6.826-5.17 13.607-6.439 20.8-.544 3.058-.789 6.182-1.112 9.283a44.327 44.327 0 00-.344 6.86c.289 4.447.155 8.894.956 13.341.8 4.447 1.312 8.894 2.09 13.341.423 2.446 1.113 4.836 1.68 7.259a2.572 2.572 0 01-.145 2.324 6.63 6.63 0 01-.834-1.334 45.714 45.714 0 01-1.334-4.981 666.598 666.598 0 01-2.536-15.453 95.2 95.2 0 01-1.112-18.477 72.97 72.97 0 013.637-20.79c1.913-5.558 3.78-11.239 6.05-16.676a105.701 105.701 0 0111.955-21.723c2.947-4.08 5.738-8.283 8.896-12.229 3.337-4.292 6.984-8.427 10.643-12.508 3.07-3.401 6.261-6.67 9.564-9.894 3.014-2.924 6.25-5.559 9.386-8.416.456-.4.879-.856 1.491-1.468-1.546-.878-2.836-1.667-4.182-2.356-8.975-4.57-17.994-9.072-26.946-13.697-10.476-5.414-20.896-10.951-31.361-16.409a3275.458 3275.458 0 00-21.575-11.118 2750.813 2750.813 0 01-16.96-8.894c-2.223-1.112-2.023-.956-3.502.845-3.748 4.558-5.06 10.195-7.129 15.476a244.163 244.163 0 00-10.009 33.519 257.5 257.5 0 00-4.826 26.315c-.679 5.358-1.112 10.761-1.69 16.131a136.153 136.153 0 00-.757 15.642c0 1.779-.356 3.558-.3 5.337.156 4.958.467 9.905.678 14.864a145.703 145.703 0 002.725 21.401 85.811 85.811 0 006.895 21.423 38.124 38.124 0 008.018 11.562 2.89 2.89 0 011.112 1.879c-.856.178-1.245-.489-1.735-.923a34.235 34.235 0 01-6.428-8.293 70.693 70.693 0 01-7.195-17.855 133.723 133.723 0 01-4.059-22.602c-.5-5.247-.712-10.539-.856-15.82a253.442 253.442 0 010-15.108c.155-5.037.556-10.295 1.056-15.42.512-5.326 1.112-10.651 1.957-15.92 1.113-6.927 2.358-13.819 3.793-20.679a236.56 236.56 0 019.308-32.719c2.224-6.047 4.837-11.928 7.273-17.887l1.379-3.336c-.556-.367-1-.711-1.48-.967-2.88-1.523-5.782-2.979-8.629-4.547a3.007 3.007 0 00-2.947-.422c-.49-.856-.923-1.59-1.446-2.48.323 0 .59-.077.768 0 1.023.478 1.634 0 2.224-.778 3.336-4.213 6.672-8.393 10.009-12.574L46.442 61.24c1.379-1.734 2.735-3.48 4.137-5.28-1.324-1.412-3.337-1.568-4.805-3.258a6.985 6.985 0 011.502.134c.7.289 1.379.656 2.068 1 2.124 1.045 2.224 1 3.77-.934a283.683 283.683 0 013.214-4.035c.345-.423.667-.979 1.657-.567-1.546 2.523-3.759 4.447-5.282 7.126.667.367 1.256.712 1.868 1.012 5.56 2.78 11.121 5.558 16.593 8.316 7.517 3.79 15.046 7.57 22.508 11.462a4.449 4.449 0 004.315.144 394.908 394.908 0 0110.587-4.903c.812-.378 1.635-.722 2.436-1.111.612-.278 1.212-.6 1.979-.99a4.729 4.729 0 00-.722-.645c-4.775-2.29-9.553-4.569-14.335-6.837-9.142-4.38-18.287-8.76-27.436-13.14a5.206 5.206 0 00-5.07-.212 36.434 36.434 0 01-4.683 1.69c.378-1.112 1.112-1.112 1.602-1.412 1.501-.778 3.336-.9 4.448-2.446a.49.49 0 01.334-.167c3.98-.277 7.35-2.379 10.954-3.724 7.473-2.802 14.89-5.725 22.308-8.627 5.161-2.023 10.298-4.125 15.447-6.192.11-.066.207-.148.29-.245a4.63 4.63 0 00-5.561-1.668l-34.086 13.03a4148.005 4148.005 0 01-19.695 7.404c-.611.223-1.256.356-1.88.534l-.188-.467c.44-.299.9-.566 1.379-.8 5.46-2.135 10.92-4.28 16.403-6.382 7.918-3.024 15.87-5.992 23.799-8.994l12.7-4.825c.523-.2 1.045-.422 1.846-.756l-2.224-1.968c.496.096.978.253 1.435.467a4.444 4.444 0 004.359.223c3.981-1.557 7.985-3.046 11.988-4.547l28.826-10.862c1.79-.678 3.581-1.356 5.36-2.057a14.942 14.942 0 001.479-.8l-2.925-1.79a2.95 2.95 0 012.936.333 4.453 4.453 0 004.371.067c1.168-.5 2.346-.99 3.559-1.4a4.66 4.66 0 012.224-.179c-1.668 1.612-4.059 1.768-6.217 3.135 1.713.8 3.114 1.468 4.538 2.113 5.115 2.32 10.227 4.632 15.335 6.937l17.371 7.849c2.091.934 4.182 1.879 6.261 2.868a3.008 3.008 0 002.736 0c6.05-2.72 12.103-5.429 18.161-8.127 3.203-1.423 6.409-2.838 9.619-4.246.567-.2 1.146-.36 1.735-.479-.333 1.112-1.112 1.335-1.668 1.612-4.248 1.913-8.507 3.78-12.756 5.681a2798.188 2798.188 0 00-13.589 6.148c-.28.14-.552.295-.812.467 1.112 1.112 42.259 19.834 45.696 20.901l.522-.967c.206.042.404.113.59.211.578.5 1.112 1.034 1.712 1.523a17.15 17.15 0 004.871 2.969c2.547 1 5.016 2.223 7.507 3.335a3.618 3.618 0 003.336-.067c1.735-.8 3.515-1.512 5.294-2.223a5.35 5.35 0 012.002-.4c-.634 1.467-2.069 1.656-3.248 2.223-1.179.567-2.546 1.112-4.248 1.834 1.602.79 2.858 1.357 4.048 2.024s2.58.645 3.336 1.845l-.177.445a17.85 17.85 0 01-2.036-.612c-1.701-.722-3.392-1.467-5.037-2.3a3.796 3.796 0 00-4.593.733c.734.767 1.368 1.523 2.102 2.223 1.935 1.757 3.936 3.425 5.86 5.192 2.358 2.146 4.627 4.38 6.973 6.537 3.948 3.613 7.918 7.193 11.888 10.784 1.557 1.412 3.114 2.813 4.66 4.247a705.157 705.157 0 016.673 6.292 1.923 1.923 0 002.513.478 1019.04 1019.04 0 0114.657-6.592c.703-.27 1.42-.504 2.147-.7.089 1.189-.656 1.311-1.168 1.556-3.069 1.4-6.161 2.768-9.253 4.158l-13.601 6.126c-.511.233-.978.544-1.723.967l2.38 2.434c-1.435.356-2.013-.555-2.747-1.033a2.1 2.1 0 00-2.803-.1 1.112 1.112 0 00-.5 1.467c.233.589.434 1.19.7 1.768a66.375 66.375 0 013.982 12.551 186.323 186.323 0 013.558 18.978c.915 6.434 1.22 12.941.912 19.433-.693 13.051-2.686 26-5.949 38.655a135.445 135.445 0 01-5.427 17.788c-1.112 2.713-2.302 5.392-3.515 8.06a950.333 950.333 0 01-5.049 10.929 7.913 7.913 0 00-.3.9l-.078-.078zM154.326 106.8c.923.5 1.501.845 2.102 1.111 4.737 2.38 9.475 4.736 14.201 7.127.634.311 1.48.456 1.669 1.434-.968.511-1.669-.1-2.358-.456-5.283-2.668-10.565-5.381-15.847-8.071-.601-.3-1.224-.534-1.958-.856-.311.811-.556 1.389-.756 1.99a8374.424 8374.424 0 00-4.682 14.152c-2.569 7.783-5.127 15.631-7.729 23.425-1.535 4.602-3.147 9.172-4.693 13.763-.245.723-.823 1.445-.323 2.357 1.702-.334 2.503-2.224 4.449-2.524-1.324 1.99-3.626 2.613-4.582 4.647.404.347.832.667 1.279.956 1.857.979 3.737 1.946 5.616 2.891 2.057 1.023 2.224 1.112 3.281-.934 4.292-8.249 8.507-16.554 12.733-24.836 2.614-5.114 5.183-10.239 7.785-15.353.078-.167.311-.256.467-.389-6.016 13.874-12.734 27.337-19.795 41.045.723-.222 1.112-.289 1.412-.434 2.102-.911 4.215-1.823 6.306-2.745 9.508-4.203 19.028-8.372 28.525-12.597 7.373-3.246 14.591-6.581 21.83-9.85 8.052-3.691 16.081-7.437 24.144-11.117 4.448-2.023 8.83-3.991 13.256-5.959 6.995-3.091 14.012-6.148 21.008-9.261 5.471-2.434 10.932-4.914 16.392-7.382a5436.414 5436.414 0 0019.172-8.66c.384-.216.755-.454 1.112-.712-1.034-2.657-2.168-4.98-4.615-6.67-5.794-3.947-11.421-8.138-17.115-12.23-.434-.31-.801-.7-1.201-1.044a1.568 1.568 0 011.312.222c1.724 1.2 3.437 2.423 5.149 3.635 6.532 4.573 13.06 9.146 19.584 13.72a2.015 2.015 0 002.302.177c1.769-.878 3.592-1.656 5.372-2.501a10.05 10.05 0 001.168-.812c-.601-.623-1.046-1.112-1.557-1.6-2.08-1.88-4.204-3.714-6.273-5.56-4.767-4.38-9.534-8.793-14.301-13.24-5.238-4.836-10.498-9.661-15.692-14.553a2.612 2.612 0 00-3.236-.667c-2.224 1-4.593 1.901-6.884 2.868-6.406 2.69-12.8 5.414-19.206 8.116a7416.46 7416.46 0 00-24.344 10.206c-.765.379-1.508.802-2.224 1.267 1.602.878 2.814 1.534 4.026 2.224 1.212.689 2.424 1.4 3.659 2.09 1.234.689 2.502 1.278 3.681 2.023 1.179.745 2.624.89 3.47 2.312a2.348 2.348 0 01-2.102-.466 503.337 503.337 0 01-12.356-6.893 3.634 3.634 0 00-3.592-.267 1465.634 1465.634 0 01-20.618 8.727 14282.458 14282.458 0 01-33.897 14.153c-1.368.578-2.724 1.222-4.526 2.001zm-125.845 3.602c.197.205.409.394.634.567l21.52 11.251a31858.28 31858.28 0 0026.968 14.041c9.23 4.769 18.483 9.494 27.724 14.252l18.906 9.717c1.99 1.023 3.959 2.079 5.961 3.057 1.234.59 1.479.456 1.99-.822.423-1.112.834-2.146 1.201-3.224a7389.264 7389.264 0 009.809-28.972 8514.342 8514.342 0 007.14-21.401c.8-2.391.789-2.391-1.368-3.491a127226.91 127226.91 0 00-31.417-15.876 2695.757 2695.757 0 00-17.96-8.983c-2.091-1.045-2.224-.978-3.337 1.112-.811 1.59-1.59 3.202-2.424 4.77-4.352 8.226-8.708 16.446-13.067 24.658-2.77 5.225-5.56 10.483-8.274 15.709a21.558 21.558 0 01-1.19 1.834l-.445-.278c4.226-8.16 8.307-16.409 12.711-24.458 3.159-5.77 12.233-23.27 12.534-24.992-2.135-.79-3.681 1.223-5.56 1.412l-.156-.378 3.948-2.09c-2.803-1.446-5.272-2.746-7.785-4.014L59.576 60.151c-2.158-1.112-4.338-2.157-6.495-3.258a1.478 1.478 0 00-2.135.49c-2.113 2.723-4.282 5.392-6.406 8.093a4375.426 4375.426 0 00-13.278 16.787c-5.027 6.337-10.087 12.641-15.125 18.978-.5.623-.934 1.301-1.546 2.168 4.137 1.968 7.785 4.224 11.733 6.014l1.635-2.056.344 1.367c.757-.7.868-1.879 2.124-2.057l-1.946 3.725zm131.283-60.635c.393.35.809.674 1.246.967 4.704 2.569 9.408 5.103 14.123 7.66l15.125 8.205c4.026 2.224 8.074 4.336 12.077 6.593a3.14 3.14 0 003.047.144 1350.2 1350.2 0 0116.76-7.015l28.069-11.684c.4-.167.745-.423 1.412-.8-.811-.39-1.356-.668-1.912-.912l-20.552-8.894a9808.807 9808.807 0 01-27.346-11.918 3.473 3.473 0 00-3.103 0c-3.526 1.634-7.095 3.18-10.643 4.758l-27.068 12.151c-.412.225-.809.473-1.19.745h-.045zm-3.28.123l.077-.556c-.567-.356-1.112-.745-1.712-1.112-1.902-1.034-3.815-2.046-5.716-3.09l-14.825-8.16c-4.137-2.224-8.274-4.526-12.388-6.827-4.115-2.301-3.225-2.29-7.785-.534-8.319 3.213-16.593 6.57-24.9 9.828-5.705 2.224-11.421 4.447-17.126 6.67-.678.267-1.324.59-2.358 1.112 1.212.623 1.99 1.034 2.78 1.423a855.42 855.42 0 009.142 4.38c6.394 3.025 12.811 6.015 19.206 9.05a1864.82 1864.82 0 0112.233 5.904 3.336 3.336 0 003.091.244 1847.406 1847.406 0 0116.682-7.593c5.56-2.48 11.065-4.925 16.592-7.404a375.232 375.232 0 017.073-3.335h-.066zm-40.225 19.322c.823.456 1.412.811 2.024 1.111 5.561 2.646 11.054 5.259 16.559 7.916 8.274 3.98 16.559 7.938 24.778 12.018a5.428 5.428 0 005.071.133c3.603-1.623 7.284-3.08 10.932-4.602l25.756-10.773c.293-.172.569-.373.823-.6-.445-.312-.723-.556-1.046-.734a1110.552 1110.552 0 00-10.008-5.559c-4.693-2.568-9.409-5.103-14.102-7.682a2074.03 2074.03 0 01-16.881-9.35 3.487 3.487 0 00-3.437-.111c-4.993 2.224-10.009 4.447-15.002 6.737L117.482 68.6c-.344.123-.656.312-1.223.612zm82.295-38.3c-1.001-.511-1.646-.89-2.335-1.19l-18.772-8.149c-6.25-2.712-12.523-5.403-18.761-8.16a3.63 3.63 0 00-3.092 0c-4.549 1.835-9.142 3.58-13.712 5.37l-21.197 8.316c-.468.23-.922.49-1.357.778.701.456 1.113.8 1.657 1.112l11.121 6.025c8.286 4.503 16.582 8.983 24.845 13.508a2.59 2.59 0 002.535.19c2.224-1.013 4.449-1.958 6.673-2.958 4.648-2.101 9.275-4.247 13.934-6.337 5.405-2.424 10.832-4.803 16.248-7.215.589-.378 1.223-.79 2.202-1.29h.011zM152.558 105.9c1.801-.256 59.163-24.325 60.743-25.448-.679-.455-1.268-.9-1.913-1.256-2.013-1.112-4.082-2.123-6.061-3.335a2.493 2.493 0 00-2.68-.156c-.406.19-.822.357-1.246.5l-34.264 14.253c-1.056.445-2.068.99-3.136 1.412-1.946.756-3.914 1.456-5.883 2.157-.111 0-.3-.167-.723-.412l3.137-1.8c-.634-.334-1.012-.545-1.413-.734l-23.154-10.995a4915.72 4915.72 0 01-20.017-9.617 3.142 3.142 0 00-2.914 0c-4.448 1.968-8.897 3.902-13.345 5.881-.625.336-1.23.707-1.813 1.112.211 1.245 1.112 1.434 1.824 1.79 7.733 3.935 15.462 7.86 23.187 11.773a4346.79 4346.79 0 0026.112 13.241c.712.356 1.468.611 2.058.856 1.178-.8.745-2.401 2.391-3.057l-.89 3.835zm116.937-48.916c-.123-.323-.134-.534-.256-.656-3.081-3.136-6.072-6.393-10.42-7.85a8.668 8.668 0 01-.868-.4c-7.484-3.401-14.969-6.826-22.453-10.216-7.484-3.391-15.236-6.838-22.831-10.317a3.862 3.862 0 00-3.47-.123c-1.969.923-3.948 1.801-5.905 2.724a9.23 9.23 0 00-1.19.8c.467.234.734.39 1.012.512 3.981 1.712 7.973 3.402 11.944 5.125l24.021 10.473c4.259 1.856 8.563 3.646 12.811 5.558a3.648 3.648 0 003.337 0 46.6 46.6 0 013.169-1.345 18.19 18.19 0 011.891-.522l.233.489c-.389.34-.81.64-1.257.9-.8.4-1.668.645-2.446 1.112a25.332 25.332 0 00-2.28 1.623c-1.112-.5-2.38.234-3.659.778-4.526 1.901-9.041 3.825-13.578 5.715l-30.027 12.462c-.567.3-1.116.63-1.646.99.845.567 1.379.99 1.98 1.323 1.89 1.045 3.859 1.968 5.705 3.102a3.337 3.337 0 003.403.144c5.338-2.29 10.698-4.447 16.047-6.737l34.03-14.32c.879-.444 1.769-.889 2.703-1.344zM159.13 12.157c.712.4 1.112.69 1.568.89l20.174 8.76 17.549 7.604a3.336 3.336 0 002.925.367c2.224-1.011 4.448-1.968 6.672-2.99.3-.134.489-.479.812-.812-.412-.245-.667-.422-.957-.556l-13.767-6.215c-9.587-4.335-19.169-8.679-28.748-13.03a3.27 3.27 0 00-2.736-.055l-47.964 18.133a5.681 5.681 0 00-.757.456c1.969 1.656 3.793 2.412 6.35 1.378 10.988-4.447 22.053-8.727 33.096-13.063a805.69 805.69 0 0110.354-3.991 1.714 1.714 0 012.013 0c-2.046 1.456-4.393 1.79-6.584 3.157v-.033zm108.763 40.412l-.311.478c.712.712 1.401 1.445 2.146 2.123 1.357 1.234 1.724 1.234 3.704-.089l-5.539-2.512zm33.041 45.581a5.564 5.564 0 00-2.747-1.723c.99 2.802 1.323 2.99 2.747 1.768v-.045z" fill="#6895FF"/><path d="M289.412 230.414c-1.812 3.002-3.525 6.059-5.46 8.983-3.548 5.359-7.229 10.651-10.876 15.954-.367.533-.679 1.245-1.568 1.278-.445-.767.122-1.211.456-1.701 3.336-4.836 6.672-9.627 10.008-14.452a110.607 110.607 0 009.665-17.788c2.224-5.103 4.448-10.15 6.461-15.32a98.391 98.391 0 003.458-11.329c1.546-6.248 3.014-12.518 4.204-18.844.934-4.991 1.501-10.072 2.058-15.131.4-3.735.6-7.493.722-11.239a106.655 106.655 0 00-1.634-20.534 144.786 144.786 0 00-4.793-21.246c-.857-2.657-1.891-5.247-2.925-8.115-1.557.622-2.903 1.111-4.204 1.712-7.262 3.335-14.457 6.67-21.775 9.883a5984.104 5984.104 0 01-26.69 11.862c-2.324 1.034-4.638 2.124-6.995 3.091-1.49.6-2.302 1.49-2.102 3.169.089.689 0 1.4 0 2.101a87.253 87.253 0 01-1.357 15.397 140.057 140.057 0 01-5.004 21.546c-1.39 4.447-3.203 8.894-4.982 13.219-1.335 3.246-2.792 6.437-4.449 9.538-2.102 4.003-4.315 7.96-6.672 11.807a169.114 169.114 0 01-13.524 18.511 82.598 82.598 0 01-10.976 11.117c-3.092 2.557-6.083 5.259-9.33 7.604a129.91 129.91 0 01-11.666 7.638 94.825 94.825 0 01-19.54 8.672c-1.59.478-3.18.933-4.782 1.367-.578.145-1.201.178-1.801.267l-.134-.389c.301-.238.635-.433.99-.578a95.073 95.073 0 0015.669-5.559c2.38-1.112 4.649-2.379 6.962-3.602 1.746-.923 3.459-1.89 5.205-2.824a76.777 76.777 0 009.831-6.937 74.335 74.335 0 0011.287-10.006c3.526-4.024 6.995-8.093 10.287-12.296a157.736 157.736 0 0014.847-22.401c2.113-3.903 3.714-8.094 5.46-12.23 1.39-3.335 2.647-6.67 3.981-9.939.09-.238.259-.438.479-.567a20.837 20.837 0 01-1.591 5.281c-.311.823-.478 1.701-.711 2.546l-.668 1.179.323.133.345-1.312c.371-.588.709-1.197 1.012-1.823a127.876 127.876 0 005.927-18.966 115.264 115.264 0 003.047-18.077c.223-3.169.467-6.337.69-9.517a4.338 4.338 0 000-.756c-.156-1.412-.59-1.712-1.869-1.112a860.523 860.523 0 00-10.653 4.747c-8.586 3.903-17.16 7.783-25.757 11.74a9356.185 9356.185 0 01-21.597 9.795c-7.729 3.48-15.491 6.904-23.242 10.35l-8.897 3.98c.342.338.714.643 1.112.912a350.56 350.56 0 007.351 3.702 9.85 9.85 0 013.147 2.613c-1.479.355-2.335-.567-3.336-1.001-1.001-.433-2.002-1.112-3.014-1.656-1.012-.545-1.946-.968-2.902-1.468-.957-.5-2.013-1.056-3.103-1.623l-1.88 2.29-.478-.244.612-2.48c-3.414.934-6.373 2.724-9.753 3.569.6-.945.6-.934 2.502-1.779l2.78-1.278 3.336-1.512a68.622 68.622 0 00-8.407-4.347c-.745 1.979-1.468 3.791-2.113 5.636-.956 2.769-1.857 5.559-2.802 8.339-.234.678-.356 1.511-1.368 1.678-.579-.711-.134-1.367.066-1.979 1.112-3.201 2.225-6.381 3.337-9.583.24-.619.313-1.29.211-1.945-1.423 1.234-2.914 2.39-4.248 3.713-4.627 4.558-9.342 9.06-13.779 13.819-3.559 3.813-6.862 7.871-10.098 11.962a170.85 170.85 0 00-14.602 21.023 116.737 116.737 0 00-8.43 17.377c-2.513 6.826-5.17 13.607-6.439 20.8-.544 3.058-.789 6.182-1.112 9.283a44.327 44.327 0 00-.344 6.86c.289 4.447.155 8.894.956 13.341.8 4.447 1.312 8.894 2.09 13.341.423 2.446 1.113 4.836 1.68 7.259a2.572 2.572 0 01-.145 2.324 6.63 6.63 0 01-.834-1.334 45.714 45.714 0 01-1.334-4.981 666.598 666.598 0 01-2.536-15.453 95.2 95.2 0 01-1.112-18.477 72.97 72.97 0 013.637-20.79c1.913-5.558 3.78-11.239 6.05-16.676a105.701 105.701 0 0111.955-21.723c2.947-4.08 5.738-8.283 8.896-12.229 3.337-4.292 6.984-8.427 10.643-12.508 3.07-3.401 6.261-6.67 9.564-9.894 3.014-2.924 6.25-5.559 9.386-8.416.456-.4.879-.856 1.491-1.468-1.546-.878-2.836-1.667-4.182-2.356-8.975-4.57-17.994-9.072-26.946-13.697-10.476-5.414-20.896-10.951-31.361-16.409a3275.458 3275.458 0 00-21.575-11.118 2750.813 2750.813 0 01-16.96-8.894c-2.223-1.112-2.023-.956-3.502.845-3.748 4.558-5.06 10.195-7.129 15.476a244.163 244.163 0 00-10.009 33.519 257.5 257.5 0 00-4.826 26.315c-.679 5.358-1.112 10.761-1.69 16.131a136.153 136.153 0 00-.757 15.642c0 1.779-.356 3.558-.3 5.337.156 4.958.467 9.905.678 14.864a145.703 145.703 0 002.725 21.401 85.811 85.811 0 006.895 21.423 38.124 38.124 0 008.018 11.562 2.89 2.89 0 011.112 1.879c-.856.178-1.245-.489-1.735-.923a34.235 34.235 0 01-6.428-8.293 70.693 70.693 0 01-7.195-17.855 133.723 133.723 0 01-4.059-22.602c-.5-5.247-.712-10.539-.856-15.82a253.442 253.442 0 010-15.108c.155-5.037.556-10.295 1.056-15.42.512-5.326 1.112-10.651 1.957-15.92 1.113-6.927 2.358-13.819 3.793-20.679a236.56 236.56 0 019.308-32.719c2.224-6.047 4.837-11.928 7.273-17.887l1.379-3.336c-.556-.367-1-.711-1.48-.967-2.88-1.523-5.782-2.979-8.629-4.547a3.007 3.007 0 00-2.947-.422c-.49-.856-.923-1.59-1.446-2.48.323 0 .59-.077.768 0 1.023.478 1.634 0 2.224-.778 3.336-4.213 6.672-8.393 10.009-12.574L46.442 61.24c1.379-1.734 2.735-3.48 4.137-5.28-1.324-1.412-3.337-1.568-4.805-3.258a6.985 6.985 0 011.502.134c.7.289 1.379.656 2.068 1 2.124 1.045 2.224 1 3.77-.934a283.683 283.683 0 013.214-4.035c.345-.423.667-.979 1.657-.567-1.546 2.523-3.759 4.447-5.282 7.126.667.367 1.256.712 1.868 1.012 5.56 2.78 11.121 5.558 16.593 8.316 7.517 3.79 15.046 7.57 22.508 11.462a4.449 4.449 0 004.315.144 394.908 394.908 0 0110.587-4.903c.812-.378 1.635-.722 2.436-1.111.612-.278 1.212-.6 1.979-.99a4.729 4.729 0 00-.722-.645c-4.775-2.29-9.553-4.569-14.335-6.837-9.142-4.38-18.287-8.76-27.436-13.14a5.206 5.206 0 00-5.07-.212 36.434 36.434 0 01-4.683 1.69c.378-1.112 1.112-1.112 1.602-1.412 1.501-.778 3.336-.9 4.448-2.446a.49.49 0 01.334-.167c3.98-.277 7.35-2.379 10.954-3.724 7.473-2.802 14.89-5.725 22.308-8.627 5.161-2.023 10.298-4.125 15.447-6.192.11-.066.207-.148.29-.245a4.63 4.63 0 00-5.561-1.668l-34.086 13.03a4148.005 4148.005 0 01-19.695 7.404c-.611.223-1.256.356-1.88.534l-.188-.467c.44-.299.9-.566 1.379-.8 5.46-2.135 10.92-4.28 16.403-6.382 7.918-3.024 15.87-5.992 23.799-8.994l12.7-4.825c.523-.2 1.045-.422 1.846-.756l-2.224-1.968c.496.096.978.253 1.435.467a4.444 4.444 0 004.359.223c3.981-1.557 7.985-3.046 11.988-4.547l28.826-10.862c1.79-.678 3.581-1.356 5.36-2.057a14.942 14.942 0 001.479-.8l-2.925-1.79a2.95 2.95 0 012.936.333 4.453 4.453 0 004.371.067c1.168-.5 2.346-.99 3.559-1.4a4.66 4.66 0 012.224-.179c-1.668 1.612-4.059 1.768-6.217 3.135 1.713.8 3.114 1.468 4.538 2.113 5.115 2.32 10.227 4.632 15.335 6.937l17.371 7.849c2.091.934 4.182 1.879 6.261 2.868a3.008 3.008 0 002.736 0c6.05-2.72 12.103-5.429 18.161-8.127 3.203-1.423 6.409-2.838 9.619-4.246.567-.2 1.146-.36 1.735-.479-.333 1.112-1.112 1.335-1.668 1.612-4.248 1.913-8.507 3.78-12.756 5.681a2798.188 2798.188 0 00-13.589 6.148c-.28.14-.552.295-.812.467 1.112 1.112 42.259 19.834 45.696 20.901l.522-.967c.206.042.404.113.59.211.578.5 1.112 1.034 1.712 1.523a17.15 17.15 0 004.871 2.969c2.547 1 5.016 2.223 7.507 3.335a3.618 3.618 0 003.336-.067c1.735-.8 3.515-1.512 5.294-2.223a5.35 5.35 0 012.002-.4c-.634 1.467-2.069 1.656-3.248 2.223-1.179.567-2.546 1.112-4.248 1.834 1.602.79 2.858 1.357 4.048 2.024s2.58.645 3.336 1.845l-.177.445a17.85 17.85 0 01-2.036-.612c-1.701-.722-3.392-1.467-5.037-2.3a3.796 3.796 0 00-4.593.733c.734.767 1.368 1.523 2.102 2.223 1.935 1.757 3.936 3.425 5.86 5.192 2.358 2.146 4.627 4.38 6.973 6.537 3.948 3.613 7.918 7.193 11.888 10.784 1.557 1.412 3.114 2.813 4.66 4.247a705.157 705.157 0 016.673 6.292 1.923 1.923 0 002.513.478 1019.04 1019.04 0 0114.657-6.592c.703-.27 1.42-.504 2.147-.7.089 1.189-.656 1.311-1.168 1.556-3.069 1.4-6.161 2.768-9.253 4.158l-13.601 6.126c-.511.233-.978.544-1.723.967l2.38 2.434c-1.435.356-2.013-.555-2.747-1.033a2.1 2.1 0 00-2.803-.1 1.112 1.112 0 00-.5 1.467c.233.589.434 1.19.7 1.768a66.375 66.375 0 013.982 12.551 186.323 186.323 0 013.558 18.978c.915 6.434 1.22 12.941.912 19.433-.693 13.051-2.686 26-5.949 38.655a135.445 135.445 0 01-5.427 17.788c-1.112 2.713-2.302 5.392-3.515 8.06a950.333 950.333 0 01-5.049 10.929 7.913 7.913 0 00-.3.9l-.078-.078zM154.326 106.8c.923.5 1.501.845 2.102 1.111 4.737 2.38 9.475 4.736 14.201 7.127.634.311 1.48.456 1.669 1.434-.968.511-1.669-.1-2.358-.456-5.283-2.668-10.565-5.381-15.847-8.071-.601-.3-1.224-.534-1.958-.856-.311.811-.556 1.389-.756 1.99a8374.424 8374.424 0 00-4.682 14.152c-2.569 7.783-5.127 15.631-7.729 23.425-1.535 4.602-3.147 9.172-4.693 13.763-.245.723-.823 1.445-.323 2.357 1.702-.334 2.503-2.224 4.449-2.524-1.324 1.99-3.626 2.613-4.582 4.647.404.347.832.667 1.279.956 1.857.979 3.737 1.946 5.616 2.891 2.057 1.023 2.224 1.112 3.281-.934 4.292-8.249 8.507-16.554 12.733-24.836 2.614-5.114 5.183-10.239 7.785-15.353.078-.167.311-.256.467-.389-6.016 13.874-12.734 27.337-19.795 41.045.723-.222 1.112-.289 1.412-.434 2.102-.911 4.215-1.823 6.306-2.745 9.508-4.203 19.028-8.372 28.525-12.597 7.373-3.246 14.591-6.581 21.83-9.85 8.052-3.691 16.081-7.437 24.144-11.117 4.448-2.023 8.83-3.991 13.256-5.959 6.995-3.091 14.012-6.148 21.008-9.261 5.471-2.434 10.932-4.914 16.392-7.382a5436.414 5436.414 0 0019.172-8.66c.384-.216.755-.454 1.112-.712-1.034-2.657-2.168-4.98-4.615-6.67-5.794-3.947-11.421-8.138-17.115-12.23-.434-.31-.801-.7-1.201-1.044a1.568 1.568 0 011.312.222c1.724 1.2 3.437 2.423 5.149 3.635 6.532 4.573 13.06 9.146 19.584 13.72a2.015 2.015 0 002.302.177c1.769-.878 3.592-1.656 5.372-2.501a10.05 10.05 0 001.168-.812c-.601-.623-1.046-1.112-1.557-1.6-2.08-1.88-4.204-3.714-6.273-5.56-4.767-4.38-9.534-8.793-14.301-13.24-5.238-4.836-10.498-9.661-15.692-14.553a2.612 2.612 0 00-3.236-.667c-2.224 1-4.593 1.901-6.884 2.868-6.406 2.69-12.8 5.414-19.206 8.116a7416.46 7416.46 0 00-24.344 10.206c-.765.379-1.508.802-2.224 1.267 1.602.878 2.814 1.534 4.026 2.224 1.212.689 2.424 1.4 3.659 2.09 1.234.689 2.502 1.278 3.681 2.023 1.179.745 2.624.89 3.47 2.312a2.348 2.348 0 01-2.102-.466 503.337 503.337 0 01-12.356-6.893 3.634 3.634 0 00-3.592-.267 1465.634 1465.634 0 01-20.618 8.727 14282.458 14282.458 0 01-33.897 14.153c-1.368.578-2.724 1.222-4.526 2.001zm-125.845 3.602c.197.205.409.394.634.567l21.52 11.251a31858.28 31858.28 0 0026.968 14.041c9.23 4.769 18.483 9.494 27.724 14.252l18.906 9.717c1.99 1.023 3.959 2.079 5.961 3.057 1.234.59 1.479.456 1.99-.822.423-1.112.834-2.146 1.201-3.224a7389.264 7389.264 0 009.809-28.972 8514.342 8514.342 0 007.14-21.401c.8-2.391.789-2.391-1.368-3.491a127226.91 127226.91 0 00-31.417-15.876 2695.757 2695.757 0 00-17.96-8.983c-2.091-1.045-2.224-.978-3.337 1.112-.811 1.59-1.59 3.202-2.424 4.77-4.352 8.226-8.708 16.446-13.067 24.658-2.77 5.225-5.56 10.483-8.274 15.709a21.558 21.558 0 01-1.19 1.834l-.445-.278c4.226-8.16 8.307-16.409 12.711-24.458 3.159-5.77 12.233-23.27 12.534-24.992-2.135-.79-3.681 1.223-5.56 1.412l-.156-.378 3.948-2.09c-2.803-1.446-5.272-2.746-7.785-4.014L59.576 60.151c-2.158-1.112-4.338-2.157-6.495-3.258a1.478 1.478 0 00-2.135.49c-2.113 2.723-4.282 5.392-6.406 8.093a4375.426 4375.426 0 00-13.278 16.787c-5.027 6.337-10.087 12.641-15.125 18.978-.5.623-.934 1.301-1.546 2.168 4.137 1.968 7.785 4.224 11.733 6.014l1.635-2.056.344 1.367c.757-.7.868-1.879 2.124-2.057l-1.946 3.725zm131.283-60.635c.393.35.809.674 1.246.967 4.704 2.569 9.408 5.103 14.123 7.66l15.125 8.205c4.026 2.224 8.074 4.336 12.077 6.593a3.14 3.14 0 003.047.144 1350.2 1350.2 0 0116.76-7.015l28.069-11.684c.4-.167.745-.423 1.412-.8-.811-.39-1.356-.668-1.912-.912l-20.552-8.894a9808.807 9808.807 0 01-27.346-11.918 3.473 3.473 0 00-3.103 0c-3.526 1.634-7.095 3.18-10.643 4.758l-27.068 12.151c-.412.225-.809.473-1.19.745h-.045zm-3.28.123l.077-.556c-.567-.356-1.112-.745-1.712-1.112-1.902-1.034-3.815-2.046-5.716-3.09l-14.825-8.16c-4.137-2.224-8.274-4.526-12.388-6.827-4.115-2.301-3.225-2.29-7.785-.534-8.319 3.213-16.593 6.57-24.9 9.828-5.705 2.224-11.421 4.447-17.126 6.67-.678.267-1.324.59-2.358 1.112 1.212.623 1.99 1.034 2.78 1.423a855.42 855.42 0 009.142 4.38c6.394 3.025 12.811 6.015 19.206 9.05a1864.82 1864.82 0 0112.233 5.904 3.336 3.336 0 003.091.244 1847.406 1847.406 0 0116.682-7.593c5.56-2.48 11.065-4.925 16.592-7.404a375.232 375.232 0 017.073-3.335h-.066zm-40.225 19.322c.823.456 1.412.811 2.024 1.111 5.561 2.646 11.054 5.259 16.559 7.916 8.274 3.98 16.559 7.938 24.778 12.018a5.428 5.428 0 005.071.133c3.603-1.623 7.284-3.08 10.932-4.602l25.756-10.773c.293-.172.569-.373.823-.6-.445-.312-.723-.556-1.046-.734a1110.552 1110.552 0 00-10.008-5.559c-4.693-2.568-9.409-5.103-14.102-7.682a2074.03 2074.03 0 01-16.881-9.35 3.487 3.487 0 00-3.437-.111c-4.993 2.224-10.009 4.447-15.002 6.737L117.482 68.6c-.344.123-.656.312-1.223.612zm82.295-38.3c-1.001-.511-1.646-.89-2.335-1.19l-18.772-8.149c-6.25-2.712-12.523-5.403-18.761-8.16a3.63 3.63 0 00-3.092 0c-4.549 1.835-9.142 3.58-13.712 5.37l-21.197 8.316c-.468.23-.922.49-1.357.778.701.456 1.113.8 1.657 1.112l11.121 6.025c8.286 4.503 16.582 8.983 24.845 13.508a2.59 2.59 0 002.535.19c2.224-1.013 4.449-1.958 6.673-2.958 4.648-2.101 9.275-4.247 13.934-6.337 5.405-2.424 10.832-4.803 16.248-7.215.589-.378 1.223-.79 2.202-1.29h.011zM152.558 105.9c1.801-.256 59.163-24.325 60.743-25.448-.679-.455-1.268-.9-1.913-1.256-2.013-1.112-4.082-2.123-6.061-3.335a2.493 2.493 0 00-2.68-.156c-.406.19-.822.357-1.246.5l-34.264 14.253c-1.056.445-2.068.99-3.136 1.412-1.946.756-3.914 1.456-5.883 2.157-.111 0-.3-.167-.723-.412l3.137-1.8c-.634-.334-1.012-.545-1.413-.734l-23.154-10.995a4915.72 4915.72 0 01-20.017-9.617 3.142 3.142 0 00-2.914 0c-4.448 1.968-8.897 3.902-13.345 5.881-.625.336-1.23.707-1.813 1.112.211 1.245 1.112 1.434 1.824 1.79 7.733 3.935 15.462 7.86 23.187 11.773a4346.79 4346.79 0 0026.112 13.241c.712.356 1.468.611 2.058.856 1.178-.8.745-2.401 2.391-3.057l-.89 3.835zm116.937-48.916c-.123-.323-.134-.534-.256-.656-3.081-3.136-6.072-6.393-10.42-7.85a8.668 8.668 0 01-.868-.4c-7.484-3.401-14.969-6.826-22.453-10.216-7.484-3.391-15.236-6.838-22.831-10.317a3.862 3.862 0 00-3.47-.123c-1.969.923-3.948 1.801-5.905 2.724a9.23 9.23 0 00-1.19.8c.467.234.734.39 1.012.512 3.981 1.712 7.973 3.402 11.944 5.125l24.021 10.473c4.259 1.856 8.563 3.646 12.811 5.558a3.648 3.648 0 003.337 0 46.6 46.6 0 013.169-1.345 18.19 18.19 0 011.891-.522l.233.489c-.389.34-.81.64-1.257.9-.8.4-1.668.645-2.446 1.112a25.332 25.332 0 00-2.28 1.623c-1.112-.5-2.38.234-3.659.778-4.526 1.901-9.041 3.825-13.578 5.715l-30.027 12.462c-.567.3-1.116.63-1.646.99.845.567 1.379.99 1.98 1.323 1.89 1.045 3.859 1.968 5.705 3.102a3.337 3.337 0 003.403.144c5.338-2.29 10.698-4.447 16.047-6.737l34.03-14.32c.879-.444 1.769-.889 2.703-1.344zM159.13 12.157c.712.4 1.112.69 1.568.89l20.174 8.76 17.549 7.604a3.336 3.336 0 002.925.367c2.224-1.011 4.448-1.968 6.672-2.99.3-.134.489-.479.812-.812-.412-.245-.667-.422-.957-.556l-13.767-6.215c-9.587-4.335-19.169-8.679-28.748-13.03a3.27 3.27 0 00-2.736-.055l-47.964 18.133a5.681 5.681 0 00-.757.456c1.969 1.656 3.793 2.412 6.35 1.378 10.988-4.447 22.053-8.727 33.096-13.063a805.69 805.69 0 0110.354-3.991 1.714 1.714 0 012.013 0c-2.046 1.456-4.393 1.79-6.584 3.157v-.033zm108.763 40.412l-.311.478c.712.712 1.401 1.445 2.146 2.123 1.357 1.234 1.724 1.234 3.704-.089l-5.539-2.512zm33.041 45.581a5.564 5.564 0 00-2.747-1.723c.99 2.802 1.323 2.99 2.747 1.768v-.045z" stroke="#6895FF" stroke-width="2" mask="url(#a)"/><path d="M42.427 313.417a120.265 120.265 0 01-10.087-27.56l10.087 27.56zm0 0c.247.421.52.827.817 1.215m-.817-1.215l.817 1.215m0 0l.01.039.016-.005.058.074.411-.189-.028-.111.01-.008-.018-.024c-.12-.461-.267-.914-.442-1.358-.279-.623-.58-1.237-.88-1.851-.457-.93-.913-1.86-1.289-2.818-.35-.888-.703-1.774-1.056-2.661-1.463-3.675-2.925-7.347-4.17-11.091l7.378 20.003zm18.529-167.608l.282-.394-.386-.294-.234-.178-.315-.24-.306.252a8.75 8.75 0 00-1.18 1.179l-.008.01-.007.01c-.518.697-1.049 1.393-1.581 2.092-1.438 1.887-2.894 3.797-4.177 5.807a158.065 158.065 0 00-9.582 17.018h0l-.003.005a172.197 172.197 0 00-13.864 44.31h0v.008a302.055 302.055 0 00-2.229 18.206c-.464 4.982-.605 9.993-.744 14.986l-.014.488v.001c-.05 1.864.088 3.78.22 5.622.045.626.09 1.244.126 1.848.04.675.072 1.357.104 2.043.081 1.733.163 3.49.388 5.226a199.466 199.466 0 003.59 20.939v.002a120.76 120.76 0 0010.129 27.675l.006.013.008.012c.282.48.595.94.938 1.378l.243.311.36-.165.41-.189.376-.172-.098-.402a12.287 12.287 0 00-.499-1.564l-.004-.011-.005-.01a56.421 56.421 0 00-.89-1.871l-.23-.47a31.658 31.658 0 01-1.04-2.306v-.002c-.351-.891-.705-1.78-1.058-2.668-1.463-3.673-2.918-7.327-4.158-11.054a146.99 146.99 0 01-4.765-19.785v-.003a135.623 135.623 0 01-1.939-18.52v-.006a166.207 166.207 0 01.986-27.377v-.004a199.2 199.2 0 014.793-26.414 169.94 169.94 0 016.841-20.994v-.002a138.668 138.668 0 019.042-18.664c1.745-2.941 3.65-5.791 5.564-8.652.527-.788 1.055-1.578 1.58-2.37a289.686 289.686 0 012.214-3.106c.371-.516.743-1.032 1.116-1.554zm133.842 180.134l.344-.264c.131-.099.265-.206.403-.315.38-.302.788-.625 1.216-.891m-1.963 1.47l2.227-1.045m-2.227 1.045l.212.378.256.456.186.331.369-.09a7.175 7.175 0 001.35-.478l.02-.009.019-.011c1.819-1.06 3.614-2.175 5.402-3.285l.002-.001m-7.816 2.709l7.816-2.709m-5.853 1.239h.001l.263.425m-.264-.425l-.001.001.265.424m-.264-.425c2.583-1.613 5.172-3.212 7.758-4.808 1.156-.714 2.311-1.427 3.464-2.141l.263.426-3.465 2.141a1731.377 1731.377 0 00-7.756 4.807m104.515-64.459c2.425-1.534 4.893-3.002 7.351-4.447.09-.052.18-.113.271-.175.418-.285.866-.59 1.486-.125-.157.783-.75 1.083-1.315 1.368-.156.079-.311.157-.453.244m-7.34 3.135l-.267-.423m.267.423a1767.529 1767.529 0 00-16.437 10.506l16.17-10.929m.267.423l-.267-.422v-.001m0 0c2.432-1.538 4.906-3.009 7.365-4.455l.003-.002c.073-.042.14-.088.224-.145l.128-.087a2.66 2.66 0 01.499-.272c.201-.078.435-.126.698-.092.262.034.514.146.758.329l.252.189-.062.309c-.132.664-.512 1.068-.922 1.346a5.12 5.12 0 01-.585.334l-.074.037c-.158.08-.292.148-.415.223m0 0l.002-.001-.264-.425m.262.426l-.002.001-.26-.427m.262.426a432.668 432.668 0 01-4.513 2.753c-2.37 1.433-4.731 2.86-7.043 4.356a704.376 704.376 0 00-7.885 5.2c-3.749 2.496-7.504 4.996-11.315 7.388m30.494-20.123c-1.491.926-2.995 1.835-4.498 2.744-2.377 1.437-4.751 2.873-7.068 4.371a708.688 708.688 0 00-7.902 5.212c-3.742 2.491-7.483 4.982-11.293 7.373m0 0l.267.423m-.267-.423c-5.166 3.249-10.405 6.373-15.644 9.498a1808.686 1808.686 0 00-5.797 3.465m21.441-12.963l.266.424.001-.001m0 0c-5.173 3.252-10.418 6.381-15.66 9.507a1966.13 1966.13 0 00-5.79 3.462m-.258-.429l.258.428v.001m-.258-.429a564.441 564.441 0 01-5.246 3.107l-1.994 1.173m7.24-4.28l.258.429m0 0a593.486 593.486 0 01-5.253 3.111c-.664.39-1.328.78-1.99 1.171m-.255-.431l.255.431m-.255-.431c-1.528.904-3.059 1.803-4.59 2.702-2.481 1.457-4.963 2.913-7.431 4.391-2.683 1.582-5.348 3.232-8.013 4.881-1.08.668-2.161 1.337-3.242 2.001l-23.81 14.586m47.086-28.561l.254.431h.001m0 0c-1.531.905-3.064 1.805-4.596 2.704-2.479 1.456-4.956 2.91-7.423 4.387l-.003.002c-2.678 1.579-5.336 3.224-7.999 4.872-1.082.669-2.164 1.339-3.248 2.005h-.001l-23.807 14.585-.264-.425m0 0l.262.426m-.262-.426h-.001c-1.79 1.112-3.58 2.224-5.392 3.28a6.729 6.729 0 01-1.257.444l6.912-3.298m45.08-29.94s0 0 0 0l.254.431-.254-.431zm12.298-6.64l-.255-.43h-.001l.256.43zm-161.153 60.51l-.469-.235-.212.48-.166.378-.177.4.373.228c.57.349 1.143.705 1.719 1.062 1.367.85 2.749 1.709 4.136 2.493.89.616 1.983.865 3.052.696a4.961 4.961 0 011.517.112l.013.003.013.003a59.917 59.917 0 0017.282.515v.001l.012-.002c4.591-.645 9.21-1.303 13.775-2.229h.003a99.578 99.578 0 0016.759-5.059 125.91 125.91 0 0017.925-8.257l.001-.002c.078-.043.155-.08.25-.125l.133-.063c.148-.072.324-.163.492-.288.363-.271.646-.673.711-1.309l.057-.554-.557.003c-.42.003-.838.062-1.243.174l-.031.009-.03.013c-.783.332-1.546.717-2.307 1.102-.326.164-.651.328-.976.488l-.001-.001-.012.007a137.545 137.545 0 01-27.978 10.955h0l-.007.002a86.275 86.275 0 01-23.059 3.316c-2.82-.044-5.588-.133-8.33-.452v-.001l-.012-.001a33.116 33.116 0 01-10.008-2.527 36.353 36.353 0 01-1.665-.831 68.228 68.228 0 00-.983-.504zm101.687-38.652l.888.394-.196-.952a2.888 2.888 0 00-1.758-2.095 1186.014 1186.014 0 00-11.934-7.14h0c-7.741-4.551-15.489-9.094-23.244-13.631h-.001a5192.612 5192.612 0 00-13.046-7.594l-.001-.001c-1.697-.974-3.384-1.958-5.069-2.94-2.223-1.296-4.44-2.589-6.665-3.853-.68-.392-1.386-.75-2.077-1.101-.356-.182-.709-.361-1.052-.542l-.42-.221-.243.409-.211.355-.236.398.378.266c.618.436 1.231.883 1.847 1.333 1.382 1.008 2.783 2.031 4.317 2.976 1.119.689 2.288 1.3 3.444 1.897l.253.13c1.074.555 2.133 1.102 3.151 1.702l.001.001c11.373 6.67 22.742 13.34 34.108 20.011l15.98 9.394h0l.009.005c.326.183.687.335 1.113.514.205.087.426.18.664.285zm106.282-63.695c3.142 2.42 6.379 4.778 9.603 7.127 1.241.904 2.479 1.806 3.71 2.711a2.541 2.541 0 002.733.651l.692-.255-.493-.548a16.76 16.76 0 00-1.616-1.571l-.013-.011-.014-.01a3141.298 3141.298 0 00-8.743-6.411 2481.573 2481.573 0 01-10.829-7.951 120.341 120.341 0 01-3.731-2.93c-1.095-.882-2.197-1.77-3.326-2.626l-.001-.001c-1.294-.977-2.635-1.914-3.97-2.846-.607-.425-1.214-.849-1.814-1.275l-.027-.043-.127-.064-.023-.011-.318.53-.309.19a11.956 11.956 0 001.683 2.146l.021.022.025.019c5.605 4.425 11.212 8.83 16.887 13.157zm0 0h.001l.303-.397-.305.396.001.001zM100.045 17.244l-.478.845c1.134 1.075 2.436 1.813 3.744 2.454.457.224.909.434 1.355.641.855.397 1.69.784 2.505 1.246l1.424.806-.73-1.464a2.722 2.722 0 00-1.076-1.144h0l-.006-.003-.219-.123c-1.613-.901-3.195-1.786-4.819-2.64l-.014-.008-.014-.006a11.95 11.95 0 00-1.672-.604z" fill="#6895FF" stroke="#6895FF"/><path d="M60.705 146.226l.604.762a5.585 5.585 0 002.7-2.675l.166-.35-.297-.248-.334-.278-.396-.33-.318.406-2.125 2.713zm35.283-113.2l-.392.126.048.409.045.378.076.648.606-.242 1.168-.467.455-.182-.172-.458-.1-.267-.167-.446-.454.145-1.113.356zm2.209-15.601l1.645.64-1.065-1.407c-.167-.22-.403-.527-.74-.71-.38-.206-.819-.222-1.31-.017l-1.144.478 1.156.45 1.458.566zm-3.425 17.558l.434-.27-.28-.428-.166-.256-.264-.405-.414.25-.68.412-.433.263.269.43.167.267.264.423.424-.264.68-.422zm-3.77 311.232l.476.272.227-.499.167-.367.21-.462-.465-.203-.892-.39-.434-.19-.213.425-.133.267-.212.423.41.235.859.489z" fill="#6895FF" stroke="#6895FF"/><path d="M98.153 17.407l1.536.768.223-.448.224-.447-1.536-.767-.224.447-.223.447zM82.334 342.156l-.492-.154-.14.497-.077.278-.133.474.472.14.713.212.482.144.14-.483.078-.268.138-.47-.468-.147-.713-.223zM267.488 84.213c-.185.423-.553.587-.913.747-.092.04-.184.082-.272.127a4395.797 4395.797 0 01-10.927 4.836c-3.644 1.609-7.289 3.218-10.926 4.836l23.038-10.546zm0 0l.167-.019-.051-.497-.499-.034a1.442 1.442 0 01-.01.103c-.275.047-.546.11-.814.186-5.114 1.828-72.999 32.325-90.225 40.701l91.432-40.44zm-95.746 42.18l-1.054 1.214 1.557-.402c.55-.142 1.091-.319 1.618-.531h0l.008-.004a470.656 470.656 0 007.714-3.338 3900.943 3900.943 0 0018.018-7.972h0l16.424-7.326h.001a3600.766 3600.766 0 0015.37-6.838c1.95-.871 3.883-1.75 5.816-2.63 2.471-1.122 4.94-2.245 7.439-3.35h.001c3.635-1.617 7.278-3.226 10.922-4.835l.003-.001h0c3.645-1.61 7.29-3.219 10.927-4.837l.012-.005.012-.006c.078-.04.148-.071.23-.107l.177-.08a2.66 2.66 0 00.498-.288c.367-.279.625-.691.668-1.327l.04-.59-.59.06c-.477.048-.949.14-1.41.272l-.016.004-.014.006c-2.934 1.048-26.172 11.373-48.804 21.608-11.324 5.121-22.51 10.225-30.947 14.145a735.707 735.707 0 00-10.273 4.847c-1.26.611-2.271 1.113-2.989 1.487-.358.187-.649.345-.862.47-.107.062-.2.119-.274.169a1.167 1.167 0 00-.222.185zM86.539 82.29l.782-1.086-1.302.306a8.823 8.823 0 00-3.443 1.661l.494.857a7.93 7.93 0 01.826-.263l.122-.033c.253-.07.523-.143.783-.233.62-.213 1.253-.537 1.738-1.21z" fill="#6895FF" stroke="#6895FF"/><path d="M85.9 81.553l-.268.14v.816l.48.02a4.474 4.474 0 003.293-1.251l.254-.246-.146-.321-.167-.367-.219-.48-.468.244-2.759 1.445z" fill="#6895FF" stroke="#6895FF"/></svg>